<?xml version="1.0" standalone="no"?>
<!DOCTYPE svg PUBLIC "-//W3C//DTD SVG 1.1//EN" "http://www.w3.org/Graphics/SVG/1.1/DTD/svg11.dtd" >
<svg xmlns="http://www.w3.org/2000/svg" xmlns:xlink="http://www.w3.org/1999/xlink" version="1.1">
<metadata>
Created by FontForge 20170731 at Fri Dec 20 16:33:15 2019
 By Aleksey,,,
Copyright (c) 2019 by Mike Abbink, Paul van der Laan, Pieter van Rosmalen, Mint Tantisuwanna. All rights reserved.
</metadata>
<defs>
<font id="Anuphan-Bold" horiz-adv-x="0" >
  <font-face 
    font-family="Anuphan"
    font-weight="700"
    font-stretch="normal"
    units-per-em="1000"
    panose-1="2 11 5 3 5 2 3 0 2 3"
    ascent="780"
    descent="-220"
    x-height="525"
    cap-height="698"
    bbox="-683 -310 1332 1150"
    underline-thickness="100"
    underline-position="-316"
    unicode-range="U+0020-FB02"
  />
<missing-glyph horiz-adv-x="472" 
d="M32 0v780h408v-780h-408zM132 100h208v580h-208v-580z" />
    <glyph glyph-name="fi" unicode="fi" horiz-adv-x="647" 
d="M504 581q-43 0 -64.5 20t-21.5 53v22q0 33 21.5 53t64.5 20t64.5 -20t21.5 -53v-22q0 -33 -21.5 -53t-64.5 -20zM95 0v410h-74v115h74v62q0 75 40 114t117 39h96v-115h-105v-100h335v-525h-148v410h-187v-410h-148z" />
    <glyph glyph-name="fl" unicode="fl" horiz-adv-x="664" 
d="M95 0v410h-74v115h74v62q0 75 40 114t117 39h96v-115h-105v-100h105v-115h-105v-410h-148zM577 0q-147 0 -147 144v596h148v-625h66v-115h-67z" />
    <glyph glyph-name="uni0E240E45" unicode="&#xe24;&#xe45;" horiz-adv-x="1022" 
d="M749 587q102 0 154.5 -60t52.5 -174v-573h-150v536q0 76 -29 112.5t-92 36.5t-92 -36.5t-29 -112.5v-536h-150v571q0 114 -108 114q-44 0 -71.5 -19t-34.5 -53h108v-103q-52 -3 -73.5 -34t-21.5 -105v-31h87v-120h-90q-73 0 -110 35.5t-37 100.5v10q0 118 124 143v5h-131
v45q0 118 67 183t189 65q179 0 232 -131h7q19 60 72 95.5t126 35.5z" />
    <glyph glyph-name="uni0E260E45" unicode="&#xe26;&#xe45;" horiz-adv-x="1030" 
d="M757 587q102 0 154.5 -60t52.5 -174v-573h-150v536q0 76 -29 112.5t-92 36.5t-92 -36.5t-29 -112.5v-536h-150v571q0 114 -110 114q-92 0 -108 -72h110v-96q-36 -2 -48 -26t-12 -93v-54q0 -65 -30 -94.5t-97 -29.5h-87v116h74v43q0 117 94 136v5h-148v39q0 118 67.5 183
t190.5 65q179 0 234 -131h7q19 60 72 95.5t126 35.5z" />
    <glyph glyph-name=".notdef" horiz-adv-x="472" 
d="M32 0v780h408v-780h-408zM132 100h208v580h-208v-580z" />
    <glyph glyph-name=".null" 
 />
    <glyph glyph-name="nonmarkingreturn" horiz-adv-x="333" 
 />
    <glyph glyph-name="space" unicode=" " horiz-adv-x="236" 
 />
    <glyph glyph-name="exclam" unicode="!" horiz-adv-x="320" 
d="M130 220l-47 284v194h156v-194l-46 -284h-63zM160 -12q-45 0 -67 21t-22 55v24q0 34 22 55t67 21t67 -21t22 -55v-24q0 -34 -22 -55t-67 -21z" />
    <glyph glyph-name="quotedbl" unicode="&#x22;" horiz-adv-x="493" 
d="M68 414v326h132v-326h-132zM293 414v326h132v-326h-132z" />
    <glyph glyph-name="numbersign" unicode="#" horiz-adv-x="632" 
d="M82 0l30 173h-101v90h117l29 172h-101v90h117l30 173h93l-30 -173h160l30 173h94l-30 -173h101v-90h-117l-29 -172h101v-90h-117l-30 -173h-93l30 173h-160l-30 -173h-94zM221 263h160l30 172h-160z" />
    <glyph glyph-name="dollar" unicode="$" horiz-adv-x="601" 
d="M250 -82v92q-133 12 -218 105l90 82q60 -63 141 -75v180q-110 23 -160.5 71t-50.5 123q0 79 51 129t147 61v94h114v-94q115 -13 183 -90l-91 -82q-40 45 -104 60v-166q106 -24 156.5 -69.5t50.5 -121.5q0 -77 -49.5 -132t-145.5 -71v-96h-114zM263 428v148
q-73 -14 -73 -76q0 -28 17 -44.5t56 -27.5zM352 124q69 19 69 82q0 55 -69 76v-158z" />
    <glyph glyph-name="percent" unicode="%" horiz-adv-x="974" 
d="M230 314q-87 0 -133.5 50.5t-46.5 147.5t46.5 147.5t133.5 50.5t133.5 -50.5t46.5 -147.5t-46.5 -147.5t-133.5 -50.5zM179 0l484 698h132l-484 -698h-132zM230 400q52 0 52 86v52q0 86 -52 86t-52 -86v-52q0 -86 52 -86zM744 -12q-87 0 -133.5 50.5t-46.5 147.5
t46.5 147.5t133.5 50.5t133.5 -50.5t46.5 -147.5t-46.5 -147.5t-133.5 -50.5zM744 74q52 0 52 86v52q0 86 -52 86t-52 -86v-52q0 -86 52 -86z" />
    <glyph glyph-name="ampersand" unicode="&#x26;" horiz-adv-x="721" 
d="M287 -12q-112 0 -174.5 54t-62.5 141q0 66 35.5 110t104.5 84q-78 88 -78 166q0 71 57.5 119t151.5 48q88 0 144.5 -42.5t56.5 -117.5q0 -61 -36.5 -104.5t-102.5 -82.5l108 -117q24 61 29 139h167v-123h-63q-17 -64 -45 -111l139 -151h-179l-52 57q-84 -69 -200 -69z
M310 442q71 42 71 94v4q0 26 -18 41.5t-46 15.5t-46 -15.5t-18 -41.5v-4q0 -19 12 -38t45 -56zM309 111q59 0 101 28l-147 159q-62 -37 -62 -89v-10q0 -40 28 -64t80 -24z" />
    <glyph glyph-name="quotesingle" unicode="'" horiz-adv-x="268" 
d="M68 414v326h132v-326h-132z" />
    <glyph glyph-name="parenleft" unicode="(" horiz-adv-x="338" 
d="M211 -138q-76 66 -125 187.5t-49 262.5t48.5 260.5t126.5 187.5h139q-82 -77 -128 -183t-46 -231v-70q0 -255 174 -414h-140z" />
    <glyph glyph-name="parenright" unicode=")" horiz-adv-x="338" 
d="M-13 -138q174 159 174 414v70q0 125 -46 231t-128 183h139q78 -68 126.5 -187.5t48.5 -260.5t-49 -262.5t-125 -187.5h-140z" />
    <glyph glyph-name="asterisk" unicode="*" horiz-adv-x="601" 
d="M192 238l-104 70l127 153l-183 55l39 114l174 -73l-9 190h129l-9 -190l174 73l39 -114l-183 -55l126 -153l-104 -69l-108 162z" />
    <glyph glyph-name="plus" unicode="+" horiz-adv-x="600" 
d="M236 63v184h-169v118h169v184h128v-184h169v-118h-169v-184h-128z" />
    <glyph glyph-name="comma" unicode="," horiz-adv-x="310" 
d="M38 -147q77 72 98 138q-67 12 -67 78v20q0 36 22.5 58t65.5 22t65.5 -22t22.5 -58v-20q0 -61 -29.5 -120t-77.5 -96h-100z" />
    <glyph glyph-name="hyphen" unicode="-" horiz-adv-x="403" 
d="M53 233v144h297v-144h-297z" />
    <glyph glyph-name="period" unicode="." horiz-adv-x="310" 
d="M155 -11q-43 0 -65.5 22t-22.5 58v20q0 36 22.5 58t65.5 22t65.5 -22t22.5 -58v-20q0 -36 -22.5 -58t-65.5 -22z" />
    <glyph glyph-name="slash" unicode="/" horiz-adv-x="460" 
d="M3 -151l298 891h122l-298 -891h-122z" />
    <glyph glyph-name="zero" unicode="0" horiz-adv-x="600" 
d="M300 -12q-135 0 -202 93.5t-67 267.5t67 267.5t202 93.5t202 -93.5t67 -267.5t-67 -267.5t-202 -93.5zM300 115q58 0 82 42t24 126v132q0 84 -24 126t-82 42t-82 -42t-24 -126v-132q0 -84 24 -126t82 -42z" />
    <glyph glyph-name="one" unicode="1" horiz-adv-x="600" 
d="M94 0v121h188v468h-9l-142 -186l-96 75l167 220h230v-577h148v-121h-486z" />
    <glyph glyph-name="two" unicode="2" horiz-adv-x="600" 
d="M57 0v137l215 184q59 51 82 86t23 79v14q0 37 -27.5 58.5t-64.5 21.5q-86 0 -112 -98l-131 50q25 79 89.5 128.5t167.5 49.5q111 0 174.5 -58.5t63.5 -151.5q0 -43 -13.5 -80.5t-43.5 -72.5t-56.5 -59t-72.5 -60l-130 -102h330v-126h-494z" />
    <glyph glyph-name="three" unicode="3" horiz-adv-x="600" 
d="M274 -12q-173 0 -258 134l111 86q52 -98 147 -98q51 0 79.5 25.5t28.5 69.5v6q0 42 -32 64t-90 22h-63v125h65q53 0 80 20.5t27 54.5v7q0 38 -25 61t-69 23q-87 0 -142 -83l-94 88q44 57 100 87t141 30q112 0 179.5 -50.5t67.5 -134.5q0 -64 -38 -105.5t-95 -51.5v-6
q65 -12 105 -55.5t40 -112.5q0 -93 -73 -149.5t-192 -56.5z" />
    <glyph glyph-name="four" unicode="4" horiz-adv-x="600" 
d="M337 0v134h-307v128l272 436h178v-448h88v-116h-88v-134h-143zM150 250h187v293h-10z" />
    <glyph glyph-name="five" unicode="5" horiz-adv-x="600" 
d="M295 -12q-170 0 -249 134l109 86q54 -98 141 -98q53 0 81 30.5t28 82.5v8q0 48 -28 76t-77 28q-66 0 -108 -49l-123 17l26 395h427v-131h-317l-15 -221h8q24 56 56 83.5t94 27.5q92 0 153.5 -60t61.5 -162q0 -110 -71 -178.5t-197 -68.5z" />
    <glyph glyph-name="six" unicode="6" horiz-adv-x="600" 
d="M304 -12q-123 0 -192.5 75t-69.5 202q0 135 73.5 249t176.5 184h207q-139 -100 -209.5 -178t-90.5 -172l9 -3q48 105 154 105q88 0 146 -60t58 -157q0 -108 -72 -176.5t-190 -68.5zM304 105q50 0 78 27.5t28 78.5v18q0 51 -28 78.5t-78 27.5t-78 -27.5t-28 -78.5v-18
q0 -51 28 -78.5t78 -27.5z" />
    <glyph glyph-name="seven" unicode="7" horiz-adv-x="600" 
d="M166 0l234 576h-218v-127h-127v249h494v-130l-225 -568h-158z" />
    <glyph glyph-name="eight" unicode="8" horiz-adv-x="600" 
d="M300 -12q-121 0 -190.5 56.5t-69.5 146.5q0 65 36.5 108t100.5 61v8q-116 43 -116 158q0 82 63 133t176 51t176 -51t63 -133q0 -115 -116 -158v-8q64 -18 100.5 -61t36.5 -108q0 -90 -69.5 -146.5t-190.5 -56.5zM300 411q47 0 72.5 22.5t25.5 61.5v16q0 39 -25.5 61.5
t-72.5 22.5t-72.5 -22.5t-25.5 -61.5v-16q0 -39 25.5 -61.5t72.5 -22.5zM300 103q49 0 76 23.5t27 65.5v20q0 42 -27 65.5t-76 23.5t-76 -23.5t-27 -65.5v-20q0 -42 27 -65.5t76 -23.5z" />
    <glyph glyph-name="nine" unicode="9" horiz-adv-x="600" 
d="M101 0q139 100 209.5 178t90.5 172l-9 3q-48 -105 -154 -105q-88 0 -146 60t-58 157q0 108 72 176.5t190 68.5q123 0 192.5 -75t69.5 -202q0 -135 -73.5 -249t-176.5 -184h-207zM296 363q50 0 78 27.5t28 78.5v18q0 51 -28 78.5t-78 27.5t-78 -27.5t-28 -78.5v-18
q0 -51 28 -78.5t78 -27.5z" />
    <glyph glyph-name="colon" unicode=":" horiz-adv-x="330" 
d="M165 356q-43 0 -65.5 22t-22.5 58v20q0 36 22.5 58t65.5 22t65.5 -22t22.5 -58v-20q0 -36 -22.5 -58t-65.5 -22zM165 -11q-43 0 -65.5 22t-22.5 58v20q0 36 22.5 58t65.5 22t65.5 -22t22.5 -58v-20q0 -36 -22.5 -58t-65.5 -22z" />
    <glyph glyph-name="semicolon" unicode=";" horiz-adv-x="330" 
d="M165 356q-43 0 -65.5 22t-22.5 58v20q0 36 22.5 58t65.5 22t65.5 -22t22.5 -58v-20q0 -36 -22.5 -58t-65.5 -22zM48 -147q77 72 98 138q-67 12 -67 78v20q0 36 22.5 58t65.5 22t65.5 -22t22.5 -58v-20q0 -61 -29.5 -120t-77.5 -96h-100z" />
    <glyph glyph-name="less" unicode="&#x3c;" horiz-adv-x="600" 
d="M497 -2l-394 260v87l394 259v-149l-238 -150v-7l238 -150v-150z" />
    <glyph glyph-name="equal" unicode="=" horiz-adv-x="600" 
d="M67 362v118h466v-118h-466zM67 130v118h466v-118h-466z" />
    <glyph glyph-name="greater" unicode="&#x3e;" horiz-adv-x="600" 
d="M103 -2v150l238 150v7l-238 150v149l394 -258v-87z" />
    <glyph glyph-name="question" unicode="?" horiz-adv-x="500" 
d="M158 233v153q81 3 119.5 27.5t38.5 78.5v14q0 37 -22 57.5t-59 20.5q-38 0 -64 -23.5t-35 -61.5l-122 51q20 68 76 114t150 46q105 0 169 -57t64 -149q0 -81 -50.5 -134t-124.5 -65v-72h-140zM230 -12q-45 0 -67 21t-22 55v24q0 34 22 55t67 21t67 -21t22 -55v-24
q0 -34 -22 -55t-67 -21z" />
    <glyph glyph-name="at" unicode="@" horiz-adv-x="903" 
d="M462 -121q-187 0 -294 113t-107 299q0 185 109 301.5t292 116.5q173 0 278.5 -102t105.5 -272q0 -118 -50.5 -185.5t-136.5 -67.5q-54 0 -88 26t-37 68h-5q-22 -92 -115 -92q-68 0 -111 54t-43 153t43 153t111 54q40 0 67 -21.5t36 -56.5h5v69h111v-269q0 -50 44 -50
q35 0 55.5 38t20.5 112v28q0 126 -80.5 200t-210.5 74q-140 0 -224 -87t-84 -225v-38q0 -137 84 -221t224 -84h210v-88h-210zM455 175q25 0 46 19.5t21 42.5v116q0 23 -20 38.5t-47 15.5q-36 0 -57.5 -23t-21.5 -59v-68q0 -36 21.5 -59t57.5 -23z" />
    <glyph glyph-name="A" unicode="A" horiz-adv-x="685" 
d="M20 0l230 698h188l227 -698h-158l-50 166h-233l-50 -166h-154zM260 295h160l-78 265h-5z" />
    <glyph glyph-name="B" unicode="B" horiz-adv-x="667" 
d="M77 0v698h339q86 0 135 -48.5t49 -130.5q0 -75 -36 -111.5t-94 -38.5v-6q59 0 108 -41t49 -123q0 -83 -51.5 -141t-128.5 -58h-370zM229 412h151q30 0 47 17t17 47v30q0 30 -17 47t-47 17h-151v-158zM229 128h175q30 0 47.5 16.5t17.5 46.5v34q0 30 -17.5 46.5
t-47.5 16.5h-175v-160z" />
    <glyph glyph-name="C" unicode="C" horiz-adv-x="651" 
d="M359 -12q-144 0 -226.5 91t-82.5 265q0 175 83 270.5t226 95.5q96 0 159.5 -40t101.5 -124l-131 -68q-30 97 -130 97q-68 0 -108 -44.5t-40 -125.5v-112q0 -81 40 -125.5t108 -44.5q101 0 139 104l124 -72q-82 -167 -263 -167z" />
    <glyph glyph-name="D" unicode="D" horiz-adv-x="697" 
d="M77 0v698h263q142 0 224.5 -89.5t82.5 -259.5t-82.5 -259.5t-224.5 -89.5h-263zM229 135h111q146 0 146 160v108q0 160 -146 160h-111v-428z" />
    <glyph glyph-name="E" unicode="E" horiz-adv-x="607" 
d="M77 0v698h475v-135h-323v-143h277v-134h-277v-151h323v-135h-475z" />
    <glyph glyph-name="F" unicode="F" horiz-adv-x="585" 
d="M77 0v698h463v-135h-311v-143h265v-134h-265v-286h-152z" />
    <glyph glyph-name="G" unicode="G" horiz-adv-x="719" 
d="M336 -12q-125 0 -205.5 94t-80.5 264q0 173 85.5 268.5t230.5 95.5q190 0 269 -162l-124 -71q-38 98 -145 98q-73 0 -114 -42.5t-41 -127.5v-112q0 -85 41 -127.5t114 -42.5q60 0 98.5 27.5t38.5 76.5v35h-130v127h275v-389h-128v111h-5q-8 -54 -55.5 -88.5t-123.5 -34.5
z" />
    <glyph glyph-name="H" unicode="H" horiz-adv-x="724" 
d="M77 0v698h152v-278h266v278h152v-698h-152v286h-266v-286h-152z" />
    <glyph glyph-name="I" unicode="I" horiz-adv-x="432" 
d="M50 0v121h90v456h-90v121h332v-121h-90v-456h90v-121h-332z" />
    <glyph glyph-name="J" unicode="J" horiz-adv-x="559" 
d="M256 -11q-100 0 -157.5 52t-73.5 144l142 28q17 -91 87 -91q35 0 57.5 22t22.5 65v367h-212v122h364v-496q0 -97 -61.5 -155t-168.5 -58z" />
    <glyph glyph-name="K" unicode="K" horiz-adv-x="696" 
d="M77 0v698h152v-332h6l99 135l157 197h172l-235 -287l256 -411h-179l-185 304l-91 -110v-194h-152z" />
    <glyph glyph-name="L" unicode="L" horiz-adv-x="530" 
d="M77 0v698h152v-563h266v-135h-418z" />
    <glyph glyph-name="M" unicode="M" horiz-adv-x="819" 
d="M77 0v698h161l171 -327h2l169 327h162v-698h-143v458h-3l-51 -102l-136 -247l-133 246l-53 110h-3v-465h-143z" />
    <glyph glyph-name="N" unicode="N" horiz-adv-x="724" 
d="M77 0v698h166l191 -330l67 -140h3v470h143v-698h-166l-191 330l-67 140h-3v-470h-143z" />
    <glyph glyph-name="O" unicode="O" horiz-adv-x="714" 
d="M357 -12q-142 0 -224.5 93.5t-82.5 267.5t82.5 267.5t224.5 93.5t224.5 -93.5t82.5 -267.5t-82.5 -267.5t-224.5 -93.5zM357 123q69 0 107.5 45.5t38.5 128.5v104q0 83 -38.5 128.5t-107.5 45.5t-107.5 -45.5t-38.5 -128.5v-104q0 -83 38.5 -128.5t107.5 -45.5z" />
    <glyph glyph-name="P" unicode="P" horiz-adv-x="656" 
d="M77 0v698h330q97 0 154.5 -61.5t57.5 -161.5t-57.5 -161.5t-154.5 -61.5h-178v-252h-152zM229 384h160q34 0 53.5 18t19.5 51v44q0 33 -19.5 51t-53.5 18h-160v-182z" />
    <glyph glyph-name="Q" unicode="Q" horiz-adv-x="714" 
d="M448 -184q-155 0 -155 148v29q-114 21 -178.5 112t-64.5 244q0 174 82.5 267.5t224.5 93.5t224.5 -93.5t82.5 -267.5q0 -149 -60.5 -239t-168.5 -114v-56h107v-124h-94zM357 123q69 0 107.5 45.5t38.5 128.5v104q0 83 -38.5 128.5t-107.5 45.5t-107.5 -45.5t-38.5 -128.5
v-104q0 -83 38.5 -128.5t107.5 -45.5z" />
    <glyph glyph-name="R" unicode="R" horiz-adv-x="674" 
d="M77 0v698h331q96 0 153.5 -61.5t57.5 -161.5q0 -72 -32.5 -124.5t-94.5 -76.5l137 -274h-169l-122 256h-109v-256h-152zM229 384h160q34 0 53.5 18t19.5 51v44q0 33 -19.5 51t-53.5 18h-160v-182z" />
    <glyph glyph-name="S" unicode="S" horiz-adv-x="624" 
d="M303 -12q-162 0 -265 113l100 101q71 -80 175 -80q54 0 82 22.5t28 61.5q0 31 -17.5 50t-63.5 25l-69 9q-214 28 -214 208q0 95 70.5 153.5t191.5 58.5q153 0 242 -98l-101 -102q-56 66 -150 66q-101 0 -101 -68q0 -35 19 -51.5t64 -23.5l69 -11q108 -17 160 -67.5
t52 -139.5q0 -103 -72 -165t-200 -62z" />
    <glyph glyph-name="T" unicode="T" horiz-adv-x="584" 
d="M216 0v563h-189v135h530v-135h-189v-563h-152z" />
    <glyph glyph-name="U" unicode="U" horiz-adv-x="694" 
d="M347 -12q-148 0 -211 70.5t-63 227.5v412h148v-428q0 -75 30 -111t96 -36t96 36t30 111v428h148v-412q0 -157 -63 -227.5t-211 -70.5z" />
    <glyph glyph-name="V" unicode="V" horiz-adv-x="650" 
d="M239 0l-225 698h154l104 -335l55 -219h3l53 219l104 335h149l-227 -698h-170z" />
    <glyph glyph-name="W" unicode="W" horiz-adv-x="973" 
d="M187 0l-158 698h150l66 -335l37 -194h3l44 194l77 335h166l78 -335l43 -194h3l37 194l67 335h144l-162 -698h-173l-88 378l-34 153h-3l-35 -153l-88 -378h-174z" />
    <glyph glyph-name="X" unicode="X" horiz-adv-x="673" 
d="M16 0l224 361l-213 337h177l136 -236h3l138 236h164l-215 -340l227 -358h-176l-151 257h-3l-147 -257h-164z" />
    <glyph glyph-name="Y" unicode="Y" horiz-adv-x="649" 
d="M248 0v273l-239 425h170l150 -278h2l144 278h165l-239 -424v-274h-153z" />
    <glyph glyph-name="Z" unicode="Z" horiz-adv-x="607" 
d="M39 0v135l344 428h-327v135h504v-135l-345 -428h353v-135h-529z" />
    <glyph glyph-name="bracketleft" unicode="[" horiz-adv-x="334" 
d="M77 -138v898h207v-104h-70v-690h70v-104h-207z" />
    <glyph glyph-name="backslash" unicode="\" horiz-adv-x="460" 
d="M334 -151l-298 891h122l298 -891h-122z" />
    <glyph glyph-name="bracketright" unicode="]" horiz-adv-x="334" 
d="M50 -138v104h70v690h-70v104h207v-898h-207z" />
    <glyph glyph-name="asciicircum" unicode="^" horiz-adv-x="600" 
d="M154 277l-112 57l200 364h120l197 -364l-119 -57l-140 260h-6z" />
    <glyph glyph-name="underscore" unicode="_" horiz-adv-x="556" 
d="M30 -190v123h496v-123h-496z" />
    <glyph glyph-name="grave" unicode="`" horiz-adv-x="600" 
d="M284 579l-134 176l123 61l99 -194z" />
    <glyph glyph-name="a" unicode="a" horiz-adv-x="569" 
d="M197 -12q-77 0 -120 41.5t-43 111.5q0 81 59 122.5t166 41.5h83v33q0 83 -87 83q-68 0 -113 -62l-88 78q68 100 212 100q110 0 167 -49t57 -143v-230h49v-115h-82q-36 0 -62 21.5t-35 57.5l-3 13h-6q-12 -50 -52.5 -77t-101.5 -27zM252 91q40 0 65 17t25 51v62h-72
q-87 0 -87 -59v-15q0 -56 69 -56z" />
    <glyph glyph-name="b" unicode="b" horiz-adv-x="608" 
d="M363 -12q-51 0 -90.5 28.5t-50.5 71.5h-5v-88h-148v740h148v-303h5q11 44 50.5 72t90.5 28q99 0 150.5 -70t51.5 -204t-51.5 -204.5t-150.5 -70.5zM314 108q42 0 69.5 30t27.5 79v91q0 49 -27.5 79t-69.5 30q-43 0 -70 -21t-27 -56v-155q0 -35 27 -56t70 -21z" />
    <glyph glyph-name="c" unicode="c" horiz-adv-x="517" 
d="M281 -12q-117 0 -181 73.5t-64 201.5t64 201t181 73q79 0 132.5 -36t77.5 -101l-120 -52q-7 32 -30 52t-60 20q-44 0 -67.5 -29t-23.5 -80v-98q0 -50 23.5 -79t67.5 -29q70 0 98 78l115 -50q-51 -145 -213 -145z" />
    <glyph glyph-name="d" unicode="d" horiz-adv-x="608" 
d="M245 -12q-99 0 -150.5 70.5t-51.5 204.5t51.5 204t150.5 70q51 0 90.5 -28t50.5 -72h5v303h148v-740h-148v88h-5q-11 -43 -50.5 -71.5t-90.5 -28.5zM294 108q43 0 70 21t27 56v155q0 35 -27 56t-70 21q-42 0 -69.5 -30t-27.5 -79v-91q0 -49 27.5 -79t69.5 -30z" />
    <glyph glyph-name="e" unicode="e" horiz-adv-x="562" 
d="M288 -12q-119 0 -185.5 74t-66.5 201q0 126 64.5 200t181.5 74q123 0 183.5 -76t60.5 -192v-44h-337v-8q0 -53 29 -83t87 -30q42 0 70.5 16t58.5 47l74 -92q-76 -87 -220 -87zM189 312h184v9q0 49 -22.5 78t-65.5 29q-44 0 -70 -29.5t-26 -78.5v-8z" />
    <glyph glyph-name="f" unicode="f" horiz-adv-x="361" 
d="M95 0v410h-74v115h74v62q0 75 40 114t117 39h96v-115h-105v-100h105v-115h-105v-410h-148z" />
    <glyph glyph-name="g" unicode="g" horiz-adv-x="552" 
d="M271 -212q-249 0 -249 122q0 87 98 100v11q-36 7 -56 32t-20 60q0 38 28 61t70 32v4q-94 43 -94 150q0 82 57.5 129.5t167.5 47.5q52 0 89 -10v20q0 79 79 79h83v-110h-116v-6q90 -43 90 -150q0 -81 -57 -127.5t-168 -46.5q-51 0 -93 11q-23 -15 -23 -42q0 -40 63 -40
h152q183 0 183 -153q0 -87 -65 -130.5t-219 -43.5zM273 283q87 0 87 72v12q0 72 -87 72t-87 -72v-12q0 -72 87 -72zM246 -114h60q59 0 84.5 13.5t25.5 42.5q0 47 -81 47h-180q-19 -19 -19 -47q0 -29 25.5 -42.5t84.5 -13.5z" />
    <glyph glyph-name="h" unicode="h" horiz-adv-x="596" 
d="M69 0v740h148v-304h6q35 101 146 101q80 0 122 -54t42 -154v-329h-148v317q0 52 -16.5 76t-56.5 24q-39 0 -67 -20t-28 -57v-340h-148z" />
    <glyph glyph-name="i" unicode="i" horiz-adv-x="286" 
d="M143 581q-43 0 -64.5 20t-21.5 53v22q0 33 21.5 53t64.5 20t64.5 -20t21.5 -53v-22q0 -33 -21.5 -53t-64.5 -20zM69 0v525h148v-525h-148z" />
    <glyph glyph-name="j" unicode="j" horiz-adv-x="286" 
d="M143 581q-43 0 -64.5 20t-21.5 53v22q0 33 21.5 53t64.5 20t64.5 -20t21.5 -53v-22q0 -33 -21.5 -53t-64.5 -20zM-9 -200v115h78v610h148v-581q0 -144 -148 -144h-78z" />
    <glyph glyph-name="k" unicode="k" horiz-adv-x="577" 
d="M69 0v740h148v-437h6l65 97l105 125h164l-175 -201l195 -324h-176l-118 222l-66 -74v-148h-148z" />
    <glyph glyph-name="l" unicode="l" horiz-adv-x="303" 
d="M216 0q-147 0 -147 144v596h148v-625h66v-115h-67z" />
    <glyph glyph-name="m" unicode="m" horiz-adv-x="894" 
d="M69 0v525h148v-89h6q34 101 141 101q112 0 147 -106h3q15 46 58.5 76t101.5 30q76 0 116.5 -54.5t40.5 -153.5v-329h-148v317q0 100 -72 100q-36 0 -61.5 -20t-25.5 -57v-340h-148v317q0 100 -72 100q-35 0 -61 -20t-26 -57v-340h-148z" />
    <glyph glyph-name="n" unicode="n" horiz-adv-x="596" 
d="M69 0v525h148v-89h6q35 101 146 101q80 0 122 -54t42 -154v-329h-148v317q0 52 -16.5 76t-56.5 24q-39 0 -67 -20t-28 -57v-340h-148z" />
    <glyph glyph-name="o" unicode="o" horiz-adv-x="564" 
d="M282 -12q-115 0 -180.5 74t-65.5 201t65.5 200.5t180.5 73.5t180.5 -73.5t65.5 -200.5t-65.5 -201t-180.5 -74zM282 105q44 0 68 27.5t24 76.5v107q0 49 -24 76.5t-68 27.5t-68 -27.5t-24 -76.5v-107q0 -49 24 -76.5t68 -27.5z" />
    <glyph glyph-name="p" unicode="p" horiz-adv-x="608" 
d="M69 -200v725h148v-88h5q11 44 50.5 72t90.5 28q99 0 150.5 -70t51.5 -204t-51.5 -204.5t-150.5 -70.5q-51 0 -90.5 28.5t-50.5 71.5h-5v-288h-148zM314 108q42 0 69.5 30t27.5 79v91q0 49 -27.5 79t-69.5 30q-43 0 -70 -21t-27 -56v-155q0 -35 27 -56t70 -21z" />
    <glyph glyph-name="q" unicode="q" horiz-adv-x="608" 
d="M391 -200v288h-5q-11 -43 -50.5 -71.5t-90.5 -28.5q-99 0 -150.5 70.5t-51.5 204.5t51.5 204t150.5 70q51 0 90.5 -28t50.5 -72h5v88h148v-725h-148zM294 108q43 0 70 21t27 56v155q0 35 -27 56t-70 21q-42 0 -69.5 -30t-27.5 -79v-91q0 -49 27.5 -79t69.5 -30z" />
    <glyph glyph-name="r" unicode="r" horiz-adv-x="404" 
d="M69 0v525h148v-114h5q10 49 43.5 81.5t90.5 32.5h26v-138h-37q-67 0 -97.5 -18t-30.5 -62v-307h-148z" />
    <glyph glyph-name="s" unicode="s" horiz-adv-x="504" 
d="M247 -12q-136 0 -221 94l87 88q60 -67 139 -67q78 0 78 50q0 37 -53 44l-57 7q-177 22 -177 162q0 76 55.5 123.5t148.5 47.5q78 0 124 -19.5t90 -62.5l-85 -87q-54 54 -121 54q-70 0 -70 -44q0 -22 12 -33.5t43 -15.5l59 -8q173 -23 173 -158q0 -76 -62.5 -125.5
t-162.5 -49.5z" />
    <glyph glyph-name="t" unicode="t" horiz-adv-x="383" 
d="M253 0q-76 0 -116 39t-40 114v257h-74v115h37q29 0 40.5 14t11.5 42v86h133v-142h104v-115h-104v-295h96v-115h-88z" />
    <glyph glyph-name="u" unicode="u" horiz-adv-x="596" 
d="M227 -12q-80 0 -122 53.5t-42 153.5v330h148v-317q0 -100 75 -100q37 0 65 20.5t28 55.5v341h148v-525h-148v88h-5q-34 -100 -147 -100z" />
    <glyph glyph-name="v" unicode="v" horiz-adv-x="538" 
d="M181 0l-172 525h146l65 -212l49 -190h8l49 190l63 212h140l-172 -525h-176z" />
    <glyph glyph-name="w" unicode="w" horiz-adv-x="841" 
d="M166 0l-147 525h143l51 -212l36 -160h4l42 160l60 212h135l61 -212l43 -160h4l36 160l51 212h137l-145 -525h-155l-64 222l-37 136h-3l-36 -136l-64 -222h-152z" />
    <glyph glyph-name="x" unicode="x" horiz-adv-x="560" 
d="M18 0l173 267l-171 258h168l98 -165h4l95 165h156l-174 -263l175 -262h-168l-101 171h-4l-97 -171h-154z" />
    <glyph glyph-name="y" unicode="y" horiz-adv-x="534" 
d="M73 -200v115h99l18 58l-184 552h147l77 -245l38 -152h6l39 152l77 245h138l-202 -606q-21 -62 -58 -90.5t-103 -28.5h-92z" />
    <glyph glyph-name="z" unicode="z" horiz-adv-x="518" 
d="M39 0v117l261 293h-252v115h424v-116l-262 -294h269v-115h-440z" />
    <glyph glyph-name="braceleft" unicode="{" horiz-adv-x="372" 
d="M213 -138q-42 0 -69.5 27t-27.5 74v203q0 42 -27 65.5t-70 23.5v113q43 0 70 23.5t27 65.5v202q0 47 27.5 74t69.5 27h109v-104h-69v-215q0 -48 -30.5 -84t-73.5 -44v-4q43 -8 73.5 -44t30.5 -84v-215h69v-104h-109z" />
    <glyph glyph-name="bar" unicode="|" horiz-adv-x="402" 
d="M138 -138v898h126v-898h-126z" />
    <glyph glyph-name="braceright" unicode="}" horiz-adv-x="372" 
d="M50 -138v104h69v216q0 48 30.5 84t73.5 44v4q-43 8 -73.5 44t-30.5 84v214h-69v104h109q42 0 69.5 -27t27.5 -74v-202q0 -42 27 -65.5t70 -23.5v-113q-43 0 -70 -23.5t-27 -65.5v-203q0 -47 -27.5 -74t-69.5 -27h-109z" />
    <glyph glyph-name="asciitilde" unicode="~" horiz-adv-x="600" 
d="M416 212q-54 0 -126 36q-66 33 -110 33q-37 0 -78 -27l-49 84q44 62 131 62q54 0 126 -36q66 -33 110 -33q37 0 78 27l49 -84q-44 -62 -131 -62z" />
    <glyph glyph-name="uni00A0" unicode="&#xa0;" horiz-adv-x="236" 
 />
    <glyph glyph-name="exclamdown" unicode="&#xa1;" horiz-adv-x="320" 
d="M160 361q-45 0 -67 21t-22 55v24q0 34 22 55t67 21t67 -21t22 -55v-24q0 -34 -22 -55t-67 -21zM82 -173v194l46 284h63l47 -284v-194h-156z" />
    <glyph glyph-name="cent" unicode="&#xa2;" horiz-adv-x="552" 
d="M237 -114v107q-93 18 -144.5 87t-51.5 178q0 108 51.5 178t144.5 87v107h110v-106q113 -18 161 -122l-106 -58q-23 50 -64 67v-307q45 16 73 69l105 -59q-50 -105 -169 -122v-106h-110zM247 106v304q-65 -26 -65 -110v-84q0 -84 65 -110z" />
    <glyph glyph-name="sterling" unicode="&#xa3;" horiz-adv-x="582" 
d="M66 0v136q83 37 83 122q0 18 -4 33h-111v120h66q-18 50 -18 94q0 93 68 149t182 56q156 0 236 -121l-110 -77q-52 67 -122 67q-49 0 -75 -25.5t-26 -72.5q0 -31 14 -70h196v-120h-150q2 -18 2 -28q0 -86 -77 -126v-9h334v-128h-488z" />
    <glyph glyph-name="currency" unicode="&#xa4;" horiz-adv-x="628" 
d="M91 45l-81 80l91 91q-32 55 -32 133t32 133l-91 91l81 80l91 -92q55 30 132 30t132 -30l91 92l81 -80l-91 -91q32 -55 32 -133t-32 -133l91 -91l-81 -80l-91 92q-55 -30 -132 -30t-132 30zM314 214q46 0 71.5 28t25.5 79v56q0 51 -25.5 79t-71.5 28t-71.5 -28t-25.5 -79
v-56q0 -51 25.5 -79t71.5 -28z" />
    <glyph glyph-name="yen" unicode="&#xa5;" horiz-adv-x="650" 
d="M246 0v133h-168v90h168v68h-168v90h110l-169 317h172l138 -275h2l137 275h163l-174 -317h110v-90h-168v-68h168v-90h-168v-133h-153z" />
    <glyph glyph-name="brokenbar" unicode="&#xa6;" horiz-adv-x="402" 
d="M138 401v359h126v-359h-126zM138 -138v359h126v-359h-126z" />
    <glyph glyph-name="section" unicode="&#xa7;" horiz-adv-x="569" 
d="M271 -161q-122 0 -199 72l72 88q55 -55 129 -55q41 0 66 16.5t25 46.5q0 27 -20.5 43t-66.5 28l-77 21q-79 22 -114.5 61t-35.5 87q0 93 107 138v17q-77 51 -77 139q0 80 59.5 124.5t156.5 44.5q124 0 201 -72l-73 -88q-57 55 -131 55q-89 0 -89 -59q0 -25 20 -40.5
t67 -27.5l77 -21q79 -22 115 -61.5t36 -88.5q0 -93 -108 -138v-16q77 -51 77 -140q0 -81 -60 -127.5t-157 -46.5zM361 179q35 41 35 83q0 60 -80 83l-76 21q-18 5 -32 10q-36 -41 -36 -84q0 -58 80 -81l76 -21q11 -3 33 -11z" />
    <glyph glyph-name="dieresis" unicode="&#xa8;" horiz-adv-x="600" 
d="M190 600q-80 0 -80 63v25q0 63 80 63t80 -63v-25q0 -63 -80 -63zM410 600q-80 0 -80 63v25q0 63 80 63t80 -63v-25q0 -63 -80 -63z" />
    <glyph glyph-name="copyright" unicode="&#xa9;" horiz-adv-x="792" 
d="M396 -12q-154 0 -251 98t-97 263t97 263t251 98t251 -98t97 -263t-97 -263t-251 -98zM396 52q118 0 196 75.5t78 187.5v68q0 112 -78 187.5t-196 75.5t-196 -75.5t-78 -187.5v-68q0 -112 78 -187.5t196 -75.5zM403 134q-97 0 -152.5 58.5t-55.5 156.5t55.5 156.5
t152.5 58.5q135 0 181 -113l-100 -48q-13 29 -31.5 43.5t-49.5 14.5q-33 0 -52 -19.5t-19 -52.5v-80q0 -33 19 -52.5t52 -19.5q58 0 88 58l101 -47q-52 -114 -189 -114z" />
    <glyph glyph-name="ordfeminine" unicode="&#xaa;" horiz-adv-x="449" 
d="M160 324q-52 0 -83 29t-31 80q0 111 160 111h56v19q0 34 -14.5 49.5t-48.5 15.5q-54 0 -87 -45l-56 50q41 71 155 71q73 0 114 -35t41 -102v-162h39v-75h-60q-61 0 -72 57l-1 7h-4q-20 -70 -108 -70zM200 392q28 0 45 13.5t17 38.5v44h-53q-62 0 -62 -43v-14
q0 -39 53 -39z" />
    <glyph glyph-name="guillemotleft" unicode="&#xab;" horiz-adv-x="558" 
d="M224 49l-186 160v126l186 160l43 -92l-120 -131l120 -131zM465 49l-186 160v126l186 160l43 -92l-120 -131l120 -131z" />
    <glyph glyph-name="logicalnot" unicode="&#xac;" horiz-adv-x="600" 
d="M412 78v169h-360v118h481v-287h-121z" />
    <glyph glyph-name="uni00AD" unicode="&#xad;" horiz-adv-x="403" 
d="M53 233v144h297v-144h-297z" />
    <glyph glyph-name="registered" unicode="&#xae;" horiz-adv-x="464" 
d="M232 298q-85 0 -143.5 59t-58.5 147t58.5 147t143.5 59t143.5 -59t58.5 -147t-58.5 -147t-143.5 -59zM232 345q62 0 105 39t43 104v32q0 65 -43 104t-105 39t-105 -39t-43 -104v-32q0 -65 43 -104t105 -39zM145 400v209h102q40 0 60 -19t20 -51q0 -48 -37 -66l43 -73h-69
l-32 61h-23v-61h-64zM209 508h25q28 0 28 23v7q0 23 -28 23h-25v-53z" />
    <glyph glyph-name="macron" unicode="&#xaf;" horiz-adv-x="600" 
d="M147 624v103h306v-103h-306z" />
    <glyph glyph-name="degree" unicode="&#xb0;" horiz-adv-x="470" 
d="M235 334q-79 0 -132 53.5t-53 134.5t53 134.5t132 53.5t132 -53.5t53 -134.5t-53 -134.5t-132 -53.5zM235 429q38 0 61 26.5t23 66.5t-23 66.5t-61 26.5t-61 -26.5t-23 -66.5t23 -66.5t61 -26.5z" />
    <glyph glyph-name="plusminus" unicode="&#xb1;" horiz-adv-x="600" 
d="M236 184v167h-169v119h169v165h128v-165h169v-119h-169v-167h-128zM67 0v119h466v-119h-466z" />
    <glyph glyph-name="uni00B2" unicode="&#xb2;" horiz-adv-x="347" 
d="M33 329v88l109 83q40 31 53.5 46.5t13.5 36.5v1q0 34 -43 34q-42 0 -55 -45l-89 33q15 44 54.5 71t99.5 27q66 0 104 -31.5t38 -82.5q0 -81 -114 -145l-59 -33h177v-83h-289z" />
    <glyph glyph-name="uni00B3" unicode="&#xb3;" horiz-adv-x="345" 
d="M159 323q-107 0 -155 75l76 58q26 -54 79 -54q23 0 36.5 11t13.5 29v2q0 32 -61 32h-31v82h34q51 0 51 27v4q0 15 -12 25.5t-33 10.5q-48 0 -80 -43l-62 59q54 63 145 63q70 0 110 -27.5t40 -73.5q0 -33 -22 -55t-54 -26v-4q38 -6 60 -28t22 -57q0 -50 -43.5 -80
t-113.5 -30z" />
    <glyph glyph-name="acute" unicode="&#xb4;" horiz-adv-x="600" 
d="M316 579l-88 43l99 194l123 -61z" />
    <glyph glyph-name="uni00B5" unicode="&#xb5;" horiz-adv-x="602" 
d="M69 -200v725h148v-319q0 -98 74 -98q40 0 67 21t27 56v340h148v-525h-148v88h-5q-14 -44 -43.5 -72t-72.5 -28q-53 0 -72 42h-5l30 -136v-94h-148z" />
    <glyph glyph-name="paragraph" unicode="&#xb6;" horiz-adv-x="677" 
d="M242 -149v409q-88 0 -149.5 64.5t-61.5 154.5t61.5 154.5t149.5 64.5h382v-106h-66v-741h-109v741h-98v-741h-109z" />
    <glyph glyph-name="periodcentered" unicode="&#xb7;" horiz-adv-x="358" 
d="M179 213q-43 0 -65.5 22t-22.5 58v20q0 36 22.5 58t65.5 22t65.5 -22t22.5 -58v-20q0 -36 -22.5 -58t-65.5 -22z" />
    <glyph glyph-name="cedilla" unicode="&#xb8;" horiz-adv-x="600" 
d="M314 -212q-87 0 -124 44l46 56q24 -29 66 -29q44 0 44 25q0 33 -75 40l-21 2l22 104h67l-18 -85l4 -4q28 7 48 7q32 0 52.5 -17t20.5 -52q0 -47 -37.5 -69t-94.5 -22z" />
    <glyph glyph-name="uni00B9" unicode="&#xb9;" horiz-adv-x="344" 
d="M49 329v79h93v210h-6l-61 -83l-67 48l85 115h150v-290h81v-79h-275z" />
    <glyph glyph-name="ordmasculine" unicode="&#xba;" horiz-adv-x="433" 
d="M217 324q-84 0 -131.5 51t-47.5 139t47.5 139t131.5 51t131.5 -51t47.5 -139t-47.5 -139t-131.5 -51zM217 402q72 0 72 83v58q0 83 -72 83t-72 -83v-58q0 -83 72 -83z" />
    <glyph glyph-name="guillemotright" unicode="&#xbb;" horiz-adv-x="558" 
d="M93 49l-43 92l120 131l-120 131l43 92l186 -160v-126zM334 49l-43 92l120 131l-120 131l43 92l186 -160v-126z" />
    <glyph glyph-name="onequarter" unicode="&#xbc;" horiz-adv-x="837" 
d="M49 329v79h93v210h-6l-61 -83l-67 48l85 115h150v-290h81v-79h-275zM114 0l529 698h108l-529 -698h-108zM674 0v70h-166v85l149 214h115v-223h46v-76h-46v-70h-98zM587 146h87v113h-7z" />
    <glyph glyph-name="onehalf" unicode="&#xbd;" horiz-adv-x="859" 
d="M49 329v79h93v210h-6l-61 -83l-67 48l85 115h150v-290h81v-79h-275zM114 0l529 698h108l-529 -698h-108zM545 0v88l109 83q40 31 53.5 46.5t13.5 36.5v1q0 34 -43 34q-42 0 -55 -45l-89 33q15 44 54.5 71t99.5 27q66 0 104 -31.5t38 -82.5q0 -81 -114 -145l-59 -33h177
v-83h-289z" />
    <glyph glyph-name="threequarters" unicode="&#xbe;" horiz-adv-x="828" 
d="M159 323q-107 0 -155 75l76 58q26 -54 79 -54q23 0 36.5 11t13.5 29v2q0 32 -61 32h-31v82h34q51 0 51 27v4q0 15 -12 25.5t-33 10.5q-48 0 -80 -43l-62 59q54 63 145 63q70 0 110 -27.5t40 -73.5q0 -33 -22 -55t-54 -26v-4q38 -6 60 -28t22 -57q0 -50 -43.5 -80
t-113.5 -30zM105 0l529 698h108l-529 -698h-108zM665 0v70h-166v85l149 214h115v-223h46v-76h-46v-70h-98zM578 146h87v113h-7z" />
    <glyph glyph-name="questiondown" unicode="&#xbf;" horiz-adv-x="494" 
d="M270 361q-45 0 -67 21t-22 55v24q0 34 22 55t67 21t67 -21t22 -55v-24q0 -34 -22 -55t-67 -21zM260 -185q-105 0 -169 57t-64 149q0 81 50.5 134t124.5 65v72h140v-153q-81 -3 -119.5 -27.5t-38.5 -78.5v-14q0 -37 22 -57.5t59 -20.5q38 0 64 23.5t35 61.5l122 -51
q-20 -68 -76 -114t-150 -46z" />
    <glyph glyph-name="Agrave" unicode="&#xc0;" horiz-adv-x="685" 
d="M326 740l-134 176l123 61l99 -194zM20 0l230 698h188l227 -698h-158l-50 166h-233l-50 -166h-154zM260 295h160l-78 265h-5z" />
    <glyph glyph-name="Aacute" unicode="&#xc1;" horiz-adv-x="685" 
d="M357 740l-88 43l99 194l123 -61zM20 0l230 698h188l227 -698h-158l-50 166h-233l-50 -166h-154zM260 295h160l-78 265h-5z" />
    <glyph glyph-name="Acircumflex" unicode="&#xc2;" horiz-adv-x="685" 
d="M221 739l-73 58l132 159h124l132 -159l-73 -58l-121 115zM20 0l230 698h188l227 -698h-158l-50 166h-233l-50 -166h-154zM260 295h160l-78 265h-5z" />
    <glyph glyph-name="Atilde" unicode="&#xc3;" horiz-adv-x="685" 
d="M418 762q-32 0 -77 20q-53 22 -78 22q-28 0 -59 -25l-52 68q43 64 114 64q32 0 77 -20q53 -22 78 -22q28 0 59 25l52 -68q-43 -64 -114 -64zM20 0l230 698h188l227 -698h-158l-50 166h-233l-50 -166h-154zM260 295h160l-78 265h-5z" />
    <glyph glyph-name="Adieresis" unicode="&#xc4;" horiz-adv-x="685" 
d="M232 761q-80 0 -80 63v25q0 63 80 63t80 -63v-25q0 -63 -80 -63zM452 761q-80 0 -80 63v25q0 63 80 63t80 -63v-25q0 -63 -80 -63zM20 0l230 698h188l227 -698h-158l-50 166h-233l-50 -166h-154zM260 295h160l-78 265h-5z" />
    <glyph glyph-name="Aring" unicode="&#xc5;" horiz-adv-x="685" 
d="M342 719q-63 0 -105.5 40.5t-42.5 102.5t42.5 102.5t105.5 40.5t105.5 -40.5t42.5 -102.5t-42.5 -102.5t-105.5 -40.5zM342 794q24 0 37.5 13.5t13.5 37.5v34q0 24 -13.5 37.5t-37.5 13.5t-37.5 -13.5t-13.5 -37.5v-34q0 -24 13.5 -37.5t37.5 -13.5zM20 0l230 698h188
l227 -698h-158l-50 166h-233l-50 -166h-154zM260 295h160l-78 265h-5z" />
    <glyph glyph-name="AE" unicode="&#xc6;" horiz-adv-x="968" 
d="M-1 0l341 698h573v-135h-324v-143h278v-134h-278v-151h324v-135h-475v166h-209l-78 -166h-152zM290 295h148v268h-23z" />
    <glyph glyph-name="Ccedilla" unicode="&#xc7;" horiz-adv-x="651" 
d="M348 -212q-87 0 -124 44l46 56q24 -29 66 -29q44 0 44 25q0 33 -75 40l-21 2l14 67q-117 18 -182.5 107.5t-65.5 243.5q0 175 83 270.5t226 95.5q96 0 159.5 -40t101.5 -124l-131 -68q-30 97 -130 97q-68 0 -108 -44.5t-40 -125.5v-112q0 -81 40 -125.5t108 -44.5
q101 0 139 104l124 -72q-82 -167 -258 -167l-9 -43l4 -4q28 7 48 7q32 0 52.5 -17t20.5 -52q0 -47 -37.5 -69t-94.5 -22z" />
    <glyph glyph-name="Egrave" unicode="&#xc8;" horiz-adv-x="607" 
d="M300 740l-134 176l123 61l99 -194zM77 0v698h475v-135h-323v-143h277v-134h-277v-151h323v-135h-475z" />
    <glyph glyph-name="Eacute" unicode="&#xc9;" horiz-adv-x="607" 
d="M331 740l-88 43l99 194l123 -61zM77 0v698h475v-135h-323v-143h277v-134h-277v-151h323v-135h-475z" />
    <glyph glyph-name="Ecircumflex" unicode="&#xca;" horiz-adv-x="607" 
d="M195 739l-73 58l132 159h124l132 -159l-73 -58l-121 115zM77 0v698h475v-135h-323v-143h277v-134h-277v-151h323v-135h-475z" />
    <glyph glyph-name="Edieresis" unicode="&#xcb;" horiz-adv-x="607" 
d="M206 761q-80 0 -80 63v25q0 63 80 63t80 -63v-25q0 -63 -80 -63zM426 761q-80 0 -80 63v25q0 63 80 63t80 -63v-25q0 -63 -80 -63zM77 0v698h475v-135h-323v-143h277v-134h-277v-151h323v-135h-475z" />
    <glyph glyph-name="Igrave" unicode="&#xcc;" horiz-adv-x="432" 
d="M200 740l-134 176l123 61l99 -194zM50 0v121h90v456h-90v121h332v-121h-90v-456h90v-121h-332z" />
    <glyph glyph-name="Iacute" unicode="&#xcd;" horiz-adv-x="432" 
d="M231 740l-88 43l99 194l123 -61zM50 0v121h90v456h-90v121h332v-121h-90v-456h90v-121h-332z" />
    <glyph glyph-name="Icircumflex" unicode="&#xce;" horiz-adv-x="432" 
d="M95 739l-73 58l132 159h124l132 -159l-73 -58l-121 115zM50 0v121h90v456h-90v121h332v-121h-90v-456h90v-121h-332z" />
    <glyph glyph-name="Idieresis" unicode="&#xcf;" horiz-adv-x="432" 
d="M106 761q-80 0 -80 63v25q0 63 80 63t80 -63v-25q0 -63 -80 -63zM326 761q-80 0 -80 63v25q0 63 80 63t80 -63v-25q0 -63 -80 -63zM50 0v121h90v456h-90v121h332v-121h-90v-456h90v-121h-332z" />
    <glyph glyph-name="Eth" unicode="&#xd0;" horiz-adv-x="702" 
d="M82 0v297h-75v114h75v287h263q142 0 224.5 -89.5t82.5 -259.5t-82.5 -259.5t-224.5 -89.5h-263zM234 135h111q146 0 146 160v108q0 160 -146 160h-111v-152h119v-114h-119v-162z" />
    <glyph glyph-name="Ntilde" unicode="&#xd1;" horiz-adv-x="724" 
d="M438 762q-32 0 -77 20q-53 22 -78 22q-28 0 -59 -25l-52 68q43 64 114 64q32 0 77 -20q53 -22 78 -22q28 0 59 25l52 -68q-43 -64 -114 -64zM77 0v698h166l191 -330l67 -140h3v470h143v-698h-166l-191 330l-67 140h-3v-470h-143z" />
    <glyph glyph-name="Ograve" unicode="&#xd2;" horiz-adv-x="714" 
d="M341 740l-134 176l123 61l99 -194zM357 -12q-142 0 -224.5 93.5t-82.5 267.5t82.5 267.5t224.5 93.5t224.5 -93.5t82.5 -267.5t-82.5 -267.5t-224.5 -93.5zM357 123q69 0 107.5 45.5t38.5 128.5v104q0 83 -38.5 128.5t-107.5 45.5t-107.5 -45.5t-38.5 -128.5v-104
q0 -83 38.5 -128.5t107.5 -45.5z" />
    <glyph glyph-name="Oacute" unicode="&#xd3;" horiz-adv-x="714" 
d="M372 740l-88 43l99 194l123 -61zM357 -12q-142 0 -224.5 93.5t-82.5 267.5t82.5 267.5t224.5 93.5t224.5 -93.5t82.5 -267.5t-82.5 -267.5t-224.5 -93.5zM357 123q69 0 107.5 45.5t38.5 128.5v104q0 83 -38.5 128.5t-107.5 45.5t-107.5 -45.5t-38.5 -128.5v-104
q0 -83 38.5 -128.5t107.5 -45.5z" />
    <glyph glyph-name="Ocircumflex" unicode="&#xd4;" horiz-adv-x="714" 
d="M236 739l-73 58l132 159h124l132 -159l-73 -58l-121 115zM357 -12q-142 0 -224.5 93.5t-82.5 267.5t82.5 267.5t224.5 93.5t224.5 -93.5t82.5 -267.5t-82.5 -267.5t-224.5 -93.5zM357 123q69 0 107.5 45.5t38.5 128.5v104q0 83 -38.5 128.5t-107.5 45.5t-107.5 -45.5
t-38.5 -128.5v-104q0 -83 38.5 -128.5t107.5 -45.5z" />
    <glyph glyph-name="Otilde" unicode="&#xd5;" horiz-adv-x="714" 
d="M433 762q-32 0 -77 20q-53 22 -78 22q-28 0 -59 -25l-52 68q43 64 114 64q32 0 77 -20q53 -22 78 -22q28 0 59 25l52 -68q-43 -64 -114 -64zM357 -12q-142 0 -224.5 93.5t-82.5 267.5t82.5 267.5t224.5 93.5t224.5 -93.5t82.5 -267.5t-82.5 -267.5t-224.5 -93.5zM357 123
q69 0 107.5 45.5t38.5 128.5v104q0 83 -38.5 128.5t-107.5 45.5t-107.5 -45.5t-38.5 -128.5v-104q0 -83 38.5 -128.5t107.5 -45.5z" />
    <glyph glyph-name="Odieresis" unicode="&#xd6;" horiz-adv-x="714" 
d="M247 761q-80 0 -80 63v25q0 63 80 63t80 -63v-25q0 -63 -80 -63zM467 761q-80 0 -80 63v25q0 63 80 63t80 -63v-25q0 -63 -80 -63zM357 -12q-142 0 -224.5 93.5t-82.5 267.5t82.5 267.5t224.5 93.5t224.5 -93.5t82.5 -267.5t-82.5 -267.5t-224.5 -93.5zM357 123
q69 0 107.5 45.5t38.5 128.5v104q0 83 -38.5 128.5t-107.5 45.5t-107.5 -45.5t-38.5 -128.5v-104q0 -83 38.5 -128.5t107.5 -45.5z" />
    <glyph glyph-name="multiply" unicode="&#xd7;" horiz-adv-x="600" 
d="M161 71l-82 82l139 146l-139 146l82 82l139 -146l139 146l82 -82l-139 -146l139 -146l-82 -82l-139 146z" />
    <glyph glyph-name="Oslash" unicode="&#xd8;" horiz-adv-x="714" 
d="M154 -56l-92 59l61 90q-73 93 -73 256q0 174 82.5 267.5t224.5 93.5q84 0 150 -34l53 78l92 -59l-61 -90q73 -93 73 -256q0 -174 -82.5 -267.5t-224.5 -93.5q-84 0 -150 34zM216 211l223 354q-33 21 -82 21q-72 0 -112.5 -47.5t-40.5 -134.5v-110q0 -47 12 -83zM357 112
q72 0 112.5 47.5t40.5 134.5v110q0 47 -12 83l-223 -354q33 -21 82 -21z" />
    <glyph glyph-name="Ugrave" unicode="&#xd9;" horiz-adv-x="694" 
d="M331 740l-134 176l123 61l99 -194zM347 -12q-148 0 -211 70.5t-63 227.5v412h148v-428q0 -75 30 -111t96 -36t96 36t30 111v428h148v-412q0 -157 -63 -227.5t-211 -70.5z" />
    <glyph glyph-name="Uacute" unicode="&#xda;" horiz-adv-x="694" 
d="M362 740l-88 43l99 194l123 -61zM347 -12q-148 0 -211 70.5t-63 227.5v412h148v-428q0 -75 30 -111t96 -36t96 36t30 111v428h148v-412q0 -157 -63 -227.5t-211 -70.5z" />
    <glyph glyph-name="Ucircumflex" unicode="&#xdb;" horiz-adv-x="694" 
d="M226 739l-73 58l132 159h124l132 -159l-73 -58l-121 115zM347 -12q-148 0 -211 70.5t-63 227.5v412h148v-428q0 -75 30 -111t96 -36t96 36t30 111v428h148v-412q0 -157 -63 -227.5t-211 -70.5z" />
    <glyph glyph-name="Udieresis" unicode="&#xdc;" horiz-adv-x="694" 
d="M237 761q-80 0 -80 63v25q0 63 80 63t80 -63v-25q0 -63 -80 -63zM457 761q-80 0 -80 63v25q0 63 80 63t80 -63v-25q0 -63 -80 -63zM347 -12q-148 0 -211 70.5t-63 227.5v412h148v-428q0 -75 30 -111t96 -36t96 36t30 111v428h148v-412q0 -157 -63 -227.5t-211 -70.5z" />
    <glyph glyph-name="Yacute" unicode="&#xdd;" horiz-adv-x="649" 
d="M340 740l-88 43l99 194l123 -61zM248 0v273l-239 425h170l150 -278h2l144 278h165l-239 -424v-274h-153z" />
    <glyph glyph-name="Thorn" unicode="&#xde;" horiz-adv-x="656" 
d="M77 0v698h152v-120h178q96 0 154 -62t58 -161t-58 -161t-154 -62h-178v-132h-152zM229 264h160q34 0 53.5 18t19.5 51v44q0 33 -19.5 51t-53.5 18h-160v-182z" />
    <glyph glyph-name="germandbls" unicode="&#xdf;" horiz-adv-x="692" 
d="M473 -12q-130 0 -186 75l84 86q43 -51 100 -51q28 0 44 15t16 42q0 25 -15 38.5t-51 25.5l-31 10q-112 36 -112 145q0 60 37 100t104 55v2q0 111 -110 111t-110 -111v-531h-148v410h-74v115h74v4q0 104 70 163.5t184 59.5t182 -58.5t68 -162.5v-97h-56q-47 0 -66 -10.5
t-19 -36.5q0 -22 13.5 -33t48.5 -23l31 -10q116 -37 116 -148q0 -85 -53.5 -135t-140.5 -50z" />
    <glyph glyph-name="agrave" unicode="&#xe0;" horiz-adv-x="569" 
d="M252 579l-134 176l123 61l99 -194zM197 -12q-77 0 -120 41.5t-43 111.5q0 81 59 122.5t166 41.5h83v33q0 83 -87 83q-68 0 -113 -62l-88 78q68 100 212 100q110 0 167 -49t57 -143v-230h49v-115h-82q-36 0 -62 21.5t-35 57.5l-3 13h-6q-12 -50 -52.5 -77t-101.5 -27z
M252 91q40 0 65 17t25 51v62h-72q-87 0 -87 -59v-15q0 -56 69 -56z" />
    <glyph glyph-name="aacute" unicode="&#xe1;" horiz-adv-x="569" 
d="M284 579l-88 43l99 194l123 -61zM197 -12q-77 0 -120 41.5t-43 111.5q0 81 59 122.5t166 41.5h83v33q0 83 -87 83q-68 0 -113 -62l-88 78q68 100 212 100q110 0 167 -49t57 -143v-230h49v-115h-82q-36 0 -62 21.5t-35 57.5l-3 13h-6q-12 -50 -52.5 -77t-101.5 -27z
M252 91q40 0 65 17t25 51v62h-72q-87 0 -87 -59v-15q0 -56 69 -56z" />
    <glyph glyph-name="acircumflex" unicode="&#xe2;" horiz-adv-x="569" 
d="M147 578l-73 58l132 159h124l132 -159l-73 -58l-121 115zM197 -12q-77 0 -120 41.5t-43 111.5q0 81 59 122.5t166 41.5h83v33q0 83 -87 83q-68 0 -113 -62l-88 78q68 100 212 100q110 0 167 -49t57 -143v-230h49v-115h-82q-36 0 -62 21.5t-35 57.5l-3 13h-6
q-12 -50 -52.5 -77t-101.5 -27zM252 91q40 0 65 17t25 51v62h-72q-87 0 -87 -59v-15q0 -56 69 -56z" />
    <glyph glyph-name="atilde" unicode="&#xe3;" horiz-adv-x="569" 
d="M344 601q-32 0 -77 20q-53 22 -78 22q-28 0 -59 -25l-52 68q43 64 114 64q32 0 77 -20q53 -22 78 -22q28 0 59 25l52 -68q-43 -64 -114 -64zM197 -12q-77 0 -120 41.5t-43 111.5q0 81 59 122.5t166 41.5h83v33q0 83 -87 83q-68 0 -113 -62l-88 78q68 100 212 100
q110 0 167 -49t57 -143v-230h49v-115h-82q-36 0 -62 21.5t-35 57.5l-3 13h-6q-12 -50 -52.5 -77t-101.5 -27zM252 91q40 0 65 17t25 51v62h-72q-87 0 -87 -59v-15q0 -56 69 -56z" />
    <glyph glyph-name="adieresis" unicode="&#xe4;" horiz-adv-x="569" 
d="M158 600q-80 0 -80 63v25q0 63 80 63t80 -63v-25q0 -63 -80 -63zM378 600q-80 0 -80 63v25q0 63 80 63t80 -63v-25q0 -63 -80 -63zM197 -12q-77 0 -120 41.5t-43 111.5q0 81 59 122.5t166 41.5h83v33q0 83 -87 83q-68 0 -113 -62l-88 78q68 100 212 100q110 0 167 -49
t57 -143v-230h49v-115h-82q-36 0 -62 21.5t-35 57.5l-3 13h-6q-12 -50 -52.5 -77t-101.5 -27zM252 91q40 0 65 17t25 51v62h-72q-87 0 -87 -59v-15q0 -56 69 -56z" />
    <glyph glyph-name="aring" unicode="&#xe5;" horiz-adv-x="569" 
d="M268 558q-63 0 -105.5 40.5t-42.5 102.5t42.5 102.5t105.5 40.5t105.5 -40.5t42.5 -102.5t-42.5 -102.5t-105.5 -40.5zM268 633q51 0 51 51v34q0 51 -51 51t-51 -51v-34q0 -51 51 -51zM197 -12q-77 0 -120 41.5t-43 111.5q0 81 59 122.5t166 41.5h83v33q0 83 -87 83
q-68 0 -113 -62l-88 78q68 100 212 100q110 0 167 -49t57 -143v-230h49v-115h-82q-36 0 -62 21.5t-35 57.5l-3 13h-6q-12 -50 -52.5 -77t-101.5 -27zM252 91q40 0 65 17t25 51v62h-72q-87 0 -87 -59v-15q0 -56 69 -56z" />
    <glyph glyph-name="ae" unicode="&#xe6;" horiz-adv-x="864" 
d="M198 -12q-78 0 -121 43t-43 113q0 82 61.5 125t163.5 43h83v26q0 83 -87 83q-68 0 -113 -62l-88 78q68 100 212 100q101 0 148 -74h6q47 74 168 74q63 0 110.5 -21.5t75 -59.5t41 -85t13.5 -102v-44h-338v-8q0 -51 31.5 -81t88.5 -30q70 0 129 61l74 -92
q-76 -87 -220 -87q-72 0 -127 29t-77 74h-6q-40 -103 -185 -103zM491 312h184v9q0 49 -22.5 78t-65.5 29q-44 0 -70 -29.5t-26 -78.5v-8zM254 91q38 0 63 17t25 51v66h-72q-40 0 -63.5 -15.5t-23.5 -43.5v-14q0 -61 71 -61z" />
    <glyph glyph-name="ccedilla" unicode="&#xe7;" horiz-adv-x="517" 
d="M275 -212q-87 0 -124 44l46 56q24 -29 66 -29q44 0 44 25q0 33 -75 40l-21 2l14 67q-91 17 -140 88t-49 182q0 128 64 201t181 73q79 0 132.5 -36t77.5 -101l-120 -52q-7 32 -30 52t-60 20q-44 0 -67.5 -29t-23.5 -80v-98q0 -50 23.5 -79t67.5 -29q70 0 98 78l115 -50
q-49 -140 -203 -145l-9 -43l4 -4q28 7 48 7q32 0 52.5 -17t20.5 -52q0 -47 -37.5 -69t-94.5 -22z" />
    <glyph glyph-name="egrave" unicode="&#xe8;" horiz-adv-x="562" 
d="M271 579l-134 176l123 61l99 -194zM288 -12q-119 0 -185.5 74t-66.5 201q0 126 64.5 200t181.5 74q123 0 183.5 -76t60.5 -192v-44h-337v-8q0 -53 29 -83t87 -30q42 0 70.5 16t58.5 47l74 -92q-76 -87 -220 -87zM189 312h184v9q0 49 -22.5 78t-65.5 29q-44 0 -70 -29.5
t-26 -78.5v-8z" />
    <glyph glyph-name="eacute" unicode="&#xe9;" horiz-adv-x="562" 
d="M303 579l-88 43l99 194l123 -61zM288 -12q-119 0 -185.5 74t-66.5 201q0 126 64.5 200t181.5 74q123 0 183.5 -76t60.5 -192v-44h-337v-8q0 -53 29 -83t87 -30q42 0 70.5 16t58.5 47l74 -92q-76 -87 -220 -87zM189 312h184v9q0 49 -22.5 78t-65.5 29q-44 0 -70 -29.5
t-26 -78.5v-8z" />
    <glyph glyph-name="ecircumflex" unicode="&#xea;" horiz-adv-x="562" 
d="M166 578l-73 58l132 159h124l132 -159l-73 -58l-121 115zM288 -12q-119 0 -185.5 74t-66.5 201q0 126 64.5 200t181.5 74q123 0 183.5 -76t60.5 -192v-44h-337v-8q0 -53 29 -83t87 -30q42 0 70.5 16t58.5 47l74 -92q-76 -87 -220 -87zM189 312h184v9q0 49 -22.5 78
t-65.5 29q-44 0 -70 -29.5t-26 -78.5v-8z" />
    <glyph glyph-name="edieresis" unicode="&#xeb;" horiz-adv-x="562" 
d="M177 600q-80 0 -80 63v25q0 63 80 63t80 -63v-25q0 -63 -80 -63zM397 600q-80 0 -80 63v25q0 63 80 63t80 -63v-25q0 -63 -80 -63zM288 -12q-119 0 -185.5 74t-66.5 201q0 126 64.5 200t181.5 74q123 0 183.5 -76t60.5 -192v-44h-337v-8q0 -53 29 -83t87 -30
q42 0 70.5 16t58.5 47l74 -92q-76 -87 -220 -87zM189 312h184v9q0 49 -22.5 78t-65.5 29q-44 0 -70 -29.5t-26 -78.5v-8z" />
    <glyph glyph-name="igrave" unicode="&#xec;" horiz-adv-x="286" 
d="M127 579l-134 176l123 61l99 -194zM69 0v525h148v-525h-148z" />
    <glyph glyph-name="iacute" unicode="&#xed;" horiz-adv-x="286" 
d="M159 579l-88 43l99 194l123 -61zM69 0v525h148v-525h-148z" />
    <glyph glyph-name="icircumflex" unicode="&#xee;" horiz-adv-x="286" 
d="M22 578l-73 58l132 159h124l132 -159l-73 -58l-121 115zM69 0v525h148v-525h-148z" />
    <glyph glyph-name="idieresis" unicode="&#xef;" horiz-adv-x="286" 
d="M33 600q-80 0 -80 63v25q0 63 80 63t80 -63v-25q0 -63 -80 -63zM253 600q-80 0 -80 63v25q0 63 80 63t80 -63v-25q0 -63 -80 -63zM69 0v525h148v-525h-148z" />
    <glyph glyph-name="eth" unicode="&#xf0;" horiz-adv-x="603" 
d="M301 -12q-122 0 -191 71t-69 194q0 112 54.5 179.5t143.5 67.5q104 0 156 -98l7 3q-26 90 -112 176l-89 -53l-51 60l80 47q-71 58 -159 105h226q7 -5 49 -36l83 49l50 -60l-73 -44q149 -155 149 -371q0 -147 -68 -218.5t-186 -71.5zM298 98q49 0 76.5 31t27.5 87v54
q0 56 -27.5 87t-76.5 31t-76.5 -31t-27.5 -87v-54q0 -56 27.5 -87t76.5 -31z" />
    <glyph glyph-name="ntilde" unicode="&#xf1;" horiz-adv-x="596" 
d="M374 598q-32 0 -77 20q-53 22 -78 22q-28 0 -59 -25l-52 68q43 64 114 64q32 0 77 -20q53 -22 78 -22q28 0 59 25l52 -68q-43 -64 -114 -64zM69 0v525h148v-89h6q35 101 146 101q80 0 122 -54t42 -154v-329h-148v317q0 52 -16.5 76t-56.5 24q-39 0 -67 -20t-28 -57v-340
h-148z" />
    <glyph glyph-name="ograve" unicode="&#xf2;" horiz-adv-x="564" 
d="M266 578l-134 176l123 61l99 -194zM282 -12q-115 0 -180.5 74t-65.5 201t65.5 200.5t180.5 73.5t180.5 -73.5t65.5 -200.5t-65.5 -201t-180.5 -74zM282 105q44 0 68 27.5t24 76.5v107q0 49 -24 76.5t-68 27.5t-68 -27.5t-24 -76.5v-107q0 -49 24 -76.5t68 -27.5z" />
    <glyph glyph-name="oacute" unicode="&#xf3;" horiz-adv-x="564" 
d="M298 578l-88 43l99 194l123 -61zM282 -12q-115 0 -180.5 74t-65.5 201t65.5 200.5t180.5 73.5t180.5 -73.5t65.5 -200.5t-65.5 -201t-180.5 -74zM282 105q44 0 68 27.5t24 76.5v107q0 49 -24 76.5t-68 27.5t-68 -27.5t-24 -76.5v-107q0 -49 24 -76.5t68 -27.5z" />
    <glyph glyph-name="ocircumflex" unicode="&#xf4;" horiz-adv-x="564" 
d="M161 577l-73 58l132 159h124l132 -159l-73 -58l-121 115zM282 -12q-115 0 -180.5 74t-65.5 201t65.5 200.5t180.5 73.5t180.5 -73.5t65.5 -200.5t-65.5 -201t-180.5 -74zM282 105q44 0 68 27.5t24 76.5v107q0 49 -24 76.5t-68 27.5t-68 -27.5t-24 -76.5v-107
q0 -49 24 -76.5t68 -27.5z" />
    <glyph glyph-name="otilde" unicode="&#xf5;" horiz-adv-x="564" 
d="M358 600q-32 0 -77 20q-53 22 -78 22q-28 0 -59 -25l-52 68q43 64 114 64q32 0 77 -20q53 -22 78 -22q28 0 59 25l52 -68q-43 -64 -114 -64zM282 -12q-115 0 -180.5 74t-65.5 201t65.5 200.5t180.5 73.5t180.5 -73.5t65.5 -200.5t-65.5 -201t-180.5 -74zM282 105
q44 0 68 27.5t24 76.5v107q0 49 -24 76.5t-68 27.5t-68 -27.5t-24 -76.5v-107q0 -49 24 -76.5t68 -27.5z" />
    <glyph glyph-name="odieresis" unicode="&#xf6;" horiz-adv-x="564" 
d="M172 599q-80 0 -80 63v25q0 63 80 63t80 -63v-25q0 -63 -80 -63zM392 599q-80 0 -80 63v25q0 63 80 63t80 -63v-25q0 -63 -80 -63zM282 -12q-115 0 -180.5 74t-65.5 201t65.5 200.5t180.5 73.5t180.5 -73.5t65.5 -200.5t-65.5 -201t-180.5 -74zM282 105q44 0 68 27.5
t24 76.5v107q0 49 -24 76.5t-68 27.5t-68 -27.5t-24 -76.5v-107q0 -49 24 -76.5t68 -27.5z" />
    <glyph glyph-name="divide" unicode="&#xf7;" horiz-adv-x="600" 
d="M300 420q-44 0 -65.5 19.5t-21.5 49.5v24q0 30 21.5 49.5t65.5 19.5t65.5 -19.5t21.5 -49.5v-24q0 -30 -21.5 -49.5t-65.5 -19.5zM67 247v118h465v-118h-465zM300 28q-44 0 -65.5 19.5t-21.5 49.5v24q0 30 21.5 49.5t65.5 19.5t65.5 -19.5t21.5 -49.5v-24
q0 -30 -21.5 -49.5t-65.5 -19.5z" />
    <glyph glyph-name="oslash" unicode="&#xf8;" horiz-adv-x="572" 
d="M94 -50l-80 60l67 83q-41 68 -41 170q0 127 65.5 200.5t180.5 73.5q75 0 132 -34l60 72l80 -60l-68 -84q42 -66 42 -169q0 -127 -65.5 -200.5t-180.5 -73.5q-75 0 -132 33zM189 214l160 192q-25 23 -63 23q-45 0 -71 -32t-26 -86v-26v-71zM286 96q45 0 71 32t26 86v38v60
l-161 -193q25 -23 64 -23z" />
    <glyph glyph-name="ugrave" unicode="&#xf9;" horiz-adv-x="596" 
d="M279 579l-134 176l123 61l99 -194zM227 -12q-80 0 -122 53.5t-42 153.5v330h148v-317q0 -100 75 -100q37 0 65 20.5t28 55.5v341h148v-525h-148v88h-5q-34 -100 -147 -100z" />
    <glyph glyph-name="uacute" unicode="&#xfa;" horiz-adv-x="596" 
d="M311 579l-88 43l99 194l123 -61zM227 -12q-80 0 -122 53.5t-42 153.5v330h148v-317q0 -100 75 -100q37 0 65 20.5t28 55.5v341h148v-525h-148v88h-5q-34 -100 -147 -100z" />
    <glyph glyph-name="ucircumflex" unicode="&#xfb;" horiz-adv-x="596" 
d="M174 578l-73 58l132 159h124l132 -159l-73 -58l-121 115zM227 -12q-80 0 -122 53.5t-42 153.5v330h148v-317q0 -100 75 -100q37 0 65 20.5t28 55.5v341h148v-525h-148v88h-5q-34 -100 -147 -100z" />
    <glyph glyph-name="udieresis" unicode="&#xfc;" horiz-adv-x="596" 
d="M185 600q-80 0 -80 63v25q0 63 80 63t80 -63v-25q0 -63 -80 -63zM405 600q-80 0 -80 63v25q0 63 80 63t80 -63v-25q0 -63 -80 -63zM227 -12q-80 0 -122 53.5t-42 153.5v330h148v-317q0 -100 75 -100q37 0 65 20.5t28 55.5v341h148v-525h-148v88h-5q-34 -100 -147 -100z
" />
    <glyph glyph-name="yacute" unicode="&#xfd;" horiz-adv-x="534" 
d="M286 579l-88 43l99 194l123 -61zM73 -200v115h99l18 58l-184 552h147l77 -245l38 -152h6l39 152l77 245h138l-202 -606q-21 -62 -58 -90.5t-103 -28.5h-92z" />
    <glyph glyph-name="thorn" unicode="&#xfe;" horiz-adv-x="608" 
d="M69 -200v940h148v-303h5q11 44 50.5 72t90.5 28q99 0 150.5 -70t51.5 -204t-51.5 -204.5t-150.5 -70.5q-51 0 -90.5 28.5t-50.5 71.5h-5v-288h-148zM314 108q42 0 69.5 30t27.5 79v91q0 49 -27.5 79t-69.5 30q-43 0 -70 -21t-27 -56v-155q0 -35 27 -56t70 -21z" />
    <glyph glyph-name="ydieresis" unicode="&#xff;" horiz-adv-x="534" 
d="M160 600q-80 0 -80 63v25q0 63 80 63t80 -63v-25q0 -63 -80 -63zM380 600q-80 0 -80 63v25q0 63 80 63t80 -63v-25q0 -63 -80 -63zM73 -200v115h99l18 58l-184 552h147l77 -245l38 -152h6l39 152l77 245h138l-202 -606q-21 -62 -58 -90.5t-103 -28.5h-92z" />
    <glyph glyph-name="Amacron" unicode="&#x100;" horiz-adv-x="685" 
d="M189 785v103h306v-103h-306zM20 0l230 698h188l227 -698h-158l-50 166h-233l-50 -166h-154zM260 295h160l-78 265h-5z" />
    <glyph glyph-name="amacron" unicode="&#x101;" horiz-adv-x="569" 
d="M115 624v103h306v-103h-306zM197 -12q-77 0 -120 41.5t-43 111.5q0 81 59 122.5t166 41.5h83v33q0 83 -87 83q-68 0 -113 -62l-88 78q68 100 212 100q110 0 167 -49t57 -143v-230h49v-115h-82q-36 0 -62 21.5t-35 57.5l-3 13h-6q-12 -50 -52.5 -77t-101.5 -27zM252 91
q40 0 65 17t25 51v62h-72q-87 0 -87 -59v-15q0 -56 69 -56z" />
    <glyph glyph-name="Abreve" unicode="&#x102;" horiz-adv-x="685" 
d="M342 740q-133 0 -190 170l81 42l19 -32q24 -40 44 -58.5t46 -18.5t47 18.5t44 58.5l19 32l80 -42q-57 -170 -190 -170zM20 0l230 698h188l227 -698h-158l-50 166h-233l-50 -166h-154zM260 295h160l-78 265h-5z" />
    <glyph glyph-name="abreve" unicode="&#x103;" horiz-adv-x="569" 
d="M268 579q-42 0 -75.5 15.5t-55.5 43.5t-35 53t-24 58l81 42l20 -33q23 -39 43.5 -57.5t45.5 -18.5q44 0 90 76l20 33l80 -42q-59 -170 -190 -170zM197 -12q-77 0 -120 41.5t-43 111.5q0 81 59 122.5t166 41.5h83v33q0 83 -87 83q-68 0 -113 -62l-88 78q68 100 212 100
q110 0 167 -49t57 -143v-230h49v-115h-82q-36 0 -62 21.5t-35 57.5l-3 13h-6q-12 -50 -52.5 -77t-101.5 -27zM252 91q40 0 65 17t25 51v62h-72q-87 0 -87 -59v-15q0 -56 69 -56z" />
    <glyph glyph-name="Aogonek" unicode="&#x104;" horiz-adv-x="685" 
d="M575 -212q-124 0 -124 85q0 40 29.5 67.5t89.5 55.5l-1 4h-62l-50 166h-233l-50 -166h-154l230 698h188l227 -698q-70 -43 -92 -64.5t-22 -40.5q0 -33 38 -33q31 0 55 28l53 -51q-27 -51 -122 -51zM260 295h160l-78 265h-5z" />
    <glyph glyph-name="aogonek" unicode="&#x105;" horiz-adv-x="569" 
d="M449 -212q-124 0 -124 85q0 40 29.5 67.5t89.5 55.5l-2 5l-6 1q-31 6 -51 28t-27 57l-1 5h-6q-12 -50 -52.5 -77t-101.5 -27q-77 0 -120 41.5t-43 111.5q0 81 59 122.5t166 41.5h83v33q0 83 -87 83q-68 0 -113 -62l-88 78q68 100 212 100q110 0 167 -49t57 -143v-229h49
v-116q-70 -43 -92 -64.5t-22 -40.5q0 -33 38 -33q31 0 55 28l53 -51q-27 -51 -122 -51zM252 91q40 0 65 17t25 51v62h-72q-87 0 -87 -59v-15q0 -56 69 -56z" />
    <glyph glyph-name="Cacute" unicode="&#x106;" horiz-adv-x="651" 
d="M374 740l-88 43l99 194l123 -61zM359 -12q-144 0 -226.5 91t-82.5 265q0 175 83 270.5t226 95.5q96 0 159.5 -40t101.5 -124l-131 -68q-30 97 -130 97q-68 0 -108 -44.5t-40 -125.5v-112q0 -81 40 -125.5t108 -44.5q101 0 139 104l124 -72q-82 -167 -263 -167z" />
    <glyph glyph-name="cacute" unicode="&#x107;" horiz-adv-x="517" 
d="M290 578l-88 43l99 194l123 -61zM281 -12q-117 0 -181 73.5t-64 201.5t64 201t181 73q79 0 132.5 -36t77.5 -101l-120 -52q-7 32 -30 52t-60 20q-44 0 -67.5 -29t-23.5 -80v-98q0 -50 23.5 -79t67.5 -29q70 0 98 78l115 -50q-51 -145 -213 -145z" />
    <glyph glyph-name="Ccircumflex" unicode="&#x108;" horiz-adv-x="651" 
d="M238 739l-73 58l132 159h124l132 -159l-73 -58l-121 115zM359 -12q-144 0 -226.5 91t-82.5 265q0 175 83 270.5t226 95.5q96 0 159.5 -40t101.5 -124l-131 -68q-30 97 -130 97q-68 0 -108 -44.5t-40 -125.5v-112q0 -81 40 -125.5t108 -44.5q101 0 139 104l124 -72
q-82 -167 -263 -167z" />
    <glyph glyph-name="ccircumflex" unicode="&#x109;" horiz-adv-x="517" 
d="M153 577l-73 58l132 159h124l132 -159l-73 -58l-121 115zM281 -12q-117 0 -181 73.5t-64 201.5t64 201t181 73q79 0 132.5 -36t77.5 -101l-120 -52q-7 32 -30 52t-60 20q-44 0 -67.5 -29t-23.5 -80v-98q0 -50 23.5 -79t67.5 -29q70 0 98 78l115 -50q-51 -145 -213 -145z
" />
    <glyph glyph-name="Cdotaccent" unicode="&#x10a;" horiz-adv-x="651" 
d="M359 752q-89 0 -89 70v29q0 70 89 70t89 -70v-29q0 -70 -89 -70zM359 -12q-144 0 -226.5 91t-82.5 265q0 175 83 270.5t226 95.5q96 0 159.5 -40t101.5 -124l-131 -68q-30 97 -130 97q-68 0 -108 -44.5t-40 -125.5v-112q0 -81 40 -125.5t108 -44.5q101 0 139 104l124 -72
q-82 -167 -263 -167z" />
    <glyph glyph-name="cdotaccent" unicode="&#x10b;" horiz-adv-x="517" 
d="M274 590q-89 0 -89 70v29q0 70 89 70t89 -70v-29q0 -70 -89 -70zM281 -12q-117 0 -181 73.5t-64 201.5t64 201t181 73q79 0 132.5 -36t77.5 -101l-120 -52q-7 32 -30 52t-60 20q-44 0 -67.5 -29t-23.5 -80v-98q0 -50 23.5 -79t67.5 -29q70 0 98 78l115 -50
q-51 -145 -213 -145z" />
    <glyph glyph-name="Ccaron" unicode="&#x10c;" horiz-adv-x="651" 
d="M297 748l-132 159l73 58l121 -115l121 115l73 -58l-132 -159h-124zM359 -12q-144 0 -226.5 91t-82.5 265q0 175 83 270.5t226 95.5q96 0 159.5 -40t101.5 -124l-131 -68q-30 97 -130 97q-68 0 -108 -44.5t-40 -125.5v-112q0 -81 40 -125.5t108 -44.5q101 0 139 104
l124 -72q-82 -167 -263 -167z" />
    <glyph glyph-name="ccaron" unicode="&#x10d;" horiz-adv-x="517" 
d="M212 586l-132 159l73 58l121 -115l121 115l73 -58l-132 -159h-124zM281 -12q-117 0 -181 73.5t-64 201.5t64 201t181 73q79 0 132.5 -36t77.5 -101l-120 -52q-7 32 -30 52t-60 20q-44 0 -67.5 -29t-23.5 -80v-98q0 -50 23.5 -79t67.5 -29q70 0 98 78l115 -50
q-51 -145 -213 -145z" />
    <glyph glyph-name="Dcaron" unicode="&#x10e;" horiz-adv-x="697" 
d="M260 748l-132 159l73 58l121 -115l121 115l73 -58l-132 -159h-124zM77 0v698h263q142 0 224.5 -89.5t82.5 -259.5t-82.5 -259.5t-224.5 -89.5h-263zM229 135h111q146 0 146 160v108q0 160 -146 160h-111v-428z" />
    <glyph glyph-name="dcaron" unicode="&#x10f;" horiz-adv-x="600" 
d="M245 -12q-99 0 -150.5 70.5t-51.5 204.5t51.5 204t150.5 70q51 0 90.5 -28t50.5 -72h5v303h148v-740h-148v88h-5q-11 -43 -50.5 -71.5t-90.5 -28.5zM602 525l6 215h157l-66 -215h-97zM294 108q43 0 70 21t27 56v155q0 35 -27 56t-70 21q-42 0 -69.5 -30t-27.5 -79v-91
q0 -49 27.5 -79t69.5 -30z" />
    <glyph glyph-name="Dcroat" unicode="&#x110;" horiz-adv-x="702" 
d="M82 0v297h-75v114h75v287h263q142 0 224.5 -89.5t82.5 -259.5t-82.5 -259.5t-224.5 -89.5h-263zM234 135h111q146 0 146 160v108q0 160 -146 160h-111v-152h119v-114h-119v-162z" />
    <glyph glyph-name="dcroat" unicode="&#x111;" horiz-adv-x="611" 
d="M245 -12q-99 0 -150.5 70.5t-51.5 204.5t51.5 204t150.5 70q51 0 90.5 -28t50.5 -72h5v153h-141v100h141v50h148v-50h61v-100h-61v-590h-148v88h-5q-11 -43 -50.5 -71.5t-90.5 -28.5zM294 108q43 0 70 21t27 56v155q0 35 -27 56t-70 21q-42 0 -69.5 -30t-27.5 -79v-91
q0 -49 27.5 -79t69.5 -30z" />
    <glyph glyph-name="Emacron" unicode="&#x112;" horiz-adv-x="607" 
d="M163 785v103h306v-103h-306zM77 0v698h475v-135h-323v-143h277v-134h-277v-151h323v-135h-475z" />
    <glyph glyph-name="emacron" unicode="&#x113;" horiz-adv-x="562" 
d="M134 624v103h306v-103h-306zM288 -12q-119 0 -185.5 74t-66.5 201q0 126 64.5 200t181.5 74q123 0 183.5 -76t60.5 -192v-44h-337v-8q0 -53 29 -83t87 -30q42 0 70.5 16t58.5 47l74 -92q-76 -87 -220 -87zM189 312h184v9q0 49 -22.5 78t-65.5 29q-44 0 -70 -29.5
t-26 -78.5v-8z" />
    <glyph glyph-name="Ebreve" unicode="&#x114;" horiz-adv-x="607" 
d="M316 740q-133 0 -190 170l81 42l19 -32q24 -40 44 -58.5t46 -18.5t47 18.5t44 58.5l19 32l80 -42q-57 -170 -190 -170zM77 0v698h475v-135h-323v-143h277v-134h-277v-151h323v-135h-475z" />
    <glyph glyph-name="ebreve" unicode="&#x115;" horiz-adv-x="562" 
d="M287 579q-42 0 -75.5 15.5t-55.5 43.5t-35 53t-24 58l81 42l20 -33q23 -39 43.5 -57.5t45.5 -18.5q44 0 90 76l20 33l80 -42q-59 -170 -190 -170zM288 -12q-119 0 -185.5 74t-66.5 201q0 126 64.5 200t181.5 74q123 0 183.5 -76t60.5 -192v-44h-337v-8q0 -53 29 -83
t87 -30q42 0 70.5 16t58.5 47l74 -92q-76 -87 -220 -87zM189 312h184v9q0 49 -22.5 78t-65.5 29q-44 0 -70 -29.5t-26 -78.5v-8z" />
    <glyph glyph-name="Edotaccent" unicode="&#x116;" horiz-adv-x="607" 
d="M316 752q-89 0 -89 70v29q0 70 89 70t89 -70v-29q0 -70 -89 -70zM77 0v698h475v-135h-323v-143h277v-134h-277v-151h323v-135h-475z" />
    <glyph glyph-name="edotaccent" unicode="&#x117;" horiz-adv-x="562" 
d="M287 591q-89 0 -89 70v29q0 70 89 70t89 -70v-29q0 -70 -89 -70zM288 -12q-119 0 -185.5 74t-66.5 201q0 126 64.5 200t181.5 74q123 0 183.5 -76t60.5 -192v-44h-337v-8q0 -53 29 -83t87 -30q42 0 70.5 16t58.5 47l74 -92q-76 -87 -220 -87zM189 312h184v9
q0 49 -22.5 78t-65.5 29q-44 0 -70 -29.5t-26 -78.5v-8z" />
    <glyph glyph-name="Eogonek" unicode="&#x118;" horiz-adv-x="607" 
d="M463 -212q-124 0 -124 85q0 40 29.5 67.5t89.5 55.5l-1 4h-380v698h475v-135h-323v-143h277v-134h-277v-151h323v-135q-69 -42 -91 -63.5t-22 -41.5q0 -33 38 -33q31 0 55 28l53 -51q-27 -51 -122 -51z" />
    <glyph glyph-name="eogonek" unicode="&#x119;" horiz-adv-x="562" 
d="M336 -212q-54 0 -88 20t-34 64q0 39 28 65t86 51l-1 4q-18 -4 -44 -4q-117 0 -182 74t-65 201q0 126 64.5 200t181.5 74q123 0 183.5 -76t60.5 -192v-44h-337v-8q0 -53 29.5 -83t88.5 -30q69 0 128 63l74 -92q-16 -19 -107 -85q-50 -37 -69.5 -56.5t-19.5 -39.5
q0 -32 38 -32q29 0 54 28l52 -51q-27 -51 -121 -51zM189 312h184v9q0 49 -22.5 78t-65.5 29q-44 0 -70 -29.5t-26 -78.5v-8z" />
    <glyph glyph-name="Ecaron" unicode="&#x11a;" horiz-adv-x="607" 
d="M254 748l-132 159l73 58l121 -115l121 115l73 -58l-132 -159h-124zM77 0v698h475v-135h-323v-143h277v-134h-277v-151h323v-135h-475z" />
    <glyph glyph-name="ecaron" unicode="&#x11b;" horiz-adv-x="562" 
d="M225 587l-132 159l73 58l121 -115l121 115l73 -58l-132 -159h-124zM288 -12q-119 0 -185.5 74t-66.5 201q0 126 64.5 200t181.5 74q123 0 183.5 -76t60.5 -192v-44h-337v-8q0 -53 29 -83t87 -30q42 0 70.5 16t58.5 47l74 -92q-76 -87 -220 -87zM189 312h184v9
q0 49 -22.5 78t-65.5 29q-44 0 -70 -29.5t-26 -78.5v-8z" />
    <glyph glyph-name="Gcircumflex" unicode="&#x11c;" horiz-adv-x="719" 
d="M237 739l-73 58l132 159h124l132 -159l-73 -58l-121 115zM336 -12q-125 0 -205.5 94t-80.5 264q0 173 85.5 268.5t230.5 95.5q190 0 269 -162l-124 -71q-38 98 -145 98q-73 0 -114 -42.5t-41 -127.5v-112q0 -85 41 -127.5t114 -42.5q60 0 98.5 27.5t38.5 76.5v35h-130
v127h275v-389h-128v111h-5q-8 -54 -55.5 -88.5t-123.5 -34.5z" />
    <glyph glyph-name="gcircumflex" unicode="&#x11d;" horiz-adv-x="562" 
d="M153 578l-73 58l132 159h124l132 -159l-73 -58l-121 115zM271 -212q-249 0 -249 122q0 87 98 100v11q-36 7 -56 32t-20 60q0 38 28 61t70 32v4q-94 43 -94 150q0 82 57.5 129.5t167.5 47.5q59 0 99 -12h174v-99h-64q16 -28 16 -66q0 -81 -57 -127.5t-168 -46.5
q-51 0 -93 11q-23 -15 -23 -42q0 -40 63 -40h152q183 0 183 -153q0 -87 -65 -130.5t-219 -43.5zM273 283q87 0 87 72v12q0 72 -87 72t-87 -72v-12q0 -72 87 -72zM246 -114h60q59 0 84.5 13.5t25.5 42.5q0 47 -81 47h-180q-19 -19 -19 -47q0 -29 25.5 -42.5t84.5 -13.5z" />
    <glyph glyph-name="Gbreve" unicode="&#x11e;" horiz-adv-x="719" 
d="M358 740q-133 0 -190 170l81 42l19 -32q24 -40 44 -58.5t46 -18.5t47 18.5t44 58.5l19 32l80 -42q-57 -170 -190 -170zM336 -12q-125 0 -205.5 94t-80.5 264q0 173 85.5 268.5t230.5 95.5q190 0 269 -162l-124 -71q-38 98 -145 98q-73 0 -114 -42.5t-41 -127.5v-112
q0 -85 41 -127.5t114 -42.5q60 0 98.5 27.5t38.5 76.5v35h-130v127h275v-389h-128v111h-5q-8 -54 -55.5 -88.5t-123.5 -34.5z" />
    <glyph glyph-name="gbreve" unicode="&#x11f;" horiz-adv-x="562" 
d="M274 579q-42 0 -75.5 15.5t-55.5 43.5t-35 53t-24 58l81 42l20 -33q23 -39 43.5 -57.5t45.5 -18.5q44 0 90 76l20 33l80 -42q-59 -170 -190 -170zM271 -212q-249 0 -249 122q0 87 98 100v11q-36 7 -56 32t-20 60q0 38 28 61t70 32v4q-94 43 -94 150q0 82 57.5 129.5
t167.5 47.5q59 0 99 -12h174v-99h-64q16 -28 16 -66q0 -81 -57 -127.5t-168 -46.5q-51 0 -93 11q-23 -15 -23 -42q0 -40 63 -40h152q183 0 183 -153q0 -87 -65 -130.5t-219 -43.5zM273 283q87 0 87 72v12q0 72 -87 72t-87 -72v-12q0 -72 87 -72zM246 -114h60q59 0 84.5 13.5
t25.5 42.5q0 47 -81 47h-180q-19 -19 -19 -47q0 -29 25.5 -42.5t84.5 -13.5z" />
    <glyph glyph-name="Gdotaccent" unicode="&#x120;" horiz-adv-x="719" 
d="M358 752q-89 0 -89 70v29q0 70 89 70t89 -70v-29q0 -70 -89 -70zM336 -12q-125 0 -205.5 94t-80.5 264q0 173 85.5 268.5t230.5 95.5q190 0 269 -162l-124 -71q-38 98 -145 98q-73 0 -114 -42.5t-41 -127.5v-112q0 -85 41 -127.5t114 -42.5q60 0 98.5 27.5t38.5 76.5v35
h-130v127h275v-389h-128v111h-5q-8 -54 -55.5 -88.5t-123.5 -34.5z" />
    <glyph glyph-name="gdotaccent" unicode="&#x121;" horiz-adv-x="562" 
d="M274 591q-89 0 -89 70v29q0 70 89 70t89 -70v-29q0 -70 -89 -70zM271 -212q-249 0 -249 122q0 87 98 100v11q-36 7 -56 32t-20 60q0 38 28 61t70 32v4q-94 43 -94 150q0 82 57.5 129.5t167.5 47.5q59 0 99 -12h174v-99h-64q16 -28 16 -66q0 -81 -57 -127.5t-168 -46.5
q-51 0 -93 11q-23 -15 -23 -42q0 -40 63 -40h152q183 0 183 -153q0 -87 -65 -130.5t-219 -43.5zM273 283q87 0 87 72v12q0 72 -87 72t-87 -72v-12q0 -72 87 -72zM246 -114h60q59 0 84.5 13.5t25.5 42.5q0 47 -81 47h-180q-19 -19 -19 -47q0 -29 25.5 -42.5t84.5 -13.5z" />
    <glyph glyph-name="uni0122" unicode="&#x122;" horiz-adv-x="719" 
d="M336 -12q-125 0 -205.5 94t-80.5 264q0 173 85.5 268.5t230.5 95.5q190 0 269 -162l-124 -71q-38 98 -145 98q-73 0 -114 -42.5t-41 -127.5v-112q0 -85 41 -127.5t114 -42.5q60 0 98.5 27.5t38.5 76.5v35h-130v127h275v-389h-128v111h-5q-8 -54 -55.5 -88.5t-123.5 -34.5
zM267 -275q47 40 62 99q-50 4 -50 61v11q0 30 18.5 46t51.5 16t51.5 -16t18.5 -46v-14q0 -45 -19 -88.5t-48 -68.5h-85z" />
    <glyph glyph-name="uni0123" unicode="&#x123;" horiz-adv-x="562" 
d="M275 576q-33 0 -51.5 16t-18.5 46v14q0 45 19 88.5t48 68.5h85q-47 -40 -62 -99q50 -4 50 -61v-11q0 -30 -18.5 -46t-51.5 -16zM271 -212q-249 0 -249 122q0 87 98 100v11q-36 7 -56 32t-20 60q0 38 28 61t70 32v4q-94 43 -94 150q0 82 57.5 129.5t167.5 47.5
q59 0 99 -12h174v-99h-64q16 -28 16 -66q0 -81 -57 -127.5t-168 -46.5q-51 0 -93 11q-23 -15 -23 -42q0 -40 63 -40h152q183 0 183 -153q0 -87 -65 -130.5t-219 -43.5zM273 283q87 0 87 72v12q0 72 -87 72t-87 -72v-12q0 -72 87 -72zM246 -114h60q59 0 84.5 13.5t25.5 42.5
q0 47 -81 47h-180q-19 -19 -19 -47q0 -29 25.5 -42.5t84.5 -13.5z" />
    <glyph glyph-name="Hcircumflex" unicode="&#x124;" horiz-adv-x="724" 
d="M241 739l-73 58l132 159h124l132 -159l-73 -58l-121 115zM77 0v698h152v-278h266v278h152v-698h-152v286h-266v-286h-152z" />
    <glyph glyph-name="hcircumflex" unicode="&#x125;" horiz-adv-x="596" 
d="M21 736l-73 58l132 159h124l132 -159l-73 -58l-121 115zM69 0v740h148v-304h6q35 101 146 101q80 0 122 -54t42 -154v-329h-148v317q0 52 -16.5 76t-56.5 24q-39 0 -67 -20t-28 -57v-340h-148z" />
    <glyph glyph-name="Hbar" unicode="&#x126;" horiz-adv-x="734" 
d="M82 0v506h-74v114h74v78h152v-78h266v78h152v-78h74v-114h-74v-506h-152v286h-266v-286h-152zM234 420h266v86h-266v-86z" />
    <glyph glyph-name="hbar" unicode="&#x127;" horiz-adv-x="596" 
d="M69 0v590h-62v100h62v50h148v-50h140v-100h-140v-154h6q35 101 146 101q80 0 122 -54t42 -154v-329h-148v317q0 52 -16.5 76t-56.5 24q-39 0 -67 -20t-28 -57v-340h-148z" />
    <glyph glyph-name="Itilde" unicode="&#x128;" horiz-adv-x="432" 
d="M292 762q-32 0 -77 20q-53 22 -78 22q-28 0 -59 -25l-52 68q43 64 114 64q32 0 77 -20q53 -22 78 -22q28 0 59 25l52 -68q-43 -64 -114 -64zM50 0v121h90v456h-90v121h332v-121h-90v-456h90v-121h-332z" />
    <glyph glyph-name="itilde" unicode="&#x129;" horiz-adv-x="286" 
d="M219 601q-32 0 -77 20q-53 22 -78 22q-28 0 -59 -25l-52 68q43 64 114 64q32 0 77 -20q53 -22 78 -22q28 0 59 25l52 -68q-43 -64 -114 -64zM69 0v525h148v-525h-148z" />
    <glyph glyph-name="Imacron" unicode="&#x12a;" horiz-adv-x="432" 
d="M63 785v103h306v-103h-306zM50 0v121h90v456h-90v121h332v-121h-90v-456h90v-121h-332z" />
    <glyph glyph-name="imacron" unicode="&#x12b;" horiz-adv-x="286" 
d="M-10 624v103h306v-103h-306zM69 0v525h148v-525h-148z" />
    <glyph glyph-name="Ibreve" unicode="&#x12c;" horiz-adv-x="432" 
d="M216 740q-133 0 -190 170l81 42l19 -32q24 -40 44 -58.5t46 -18.5t47 18.5t44 58.5l19 32l80 -42q-57 -170 -190 -170zM50 0v121h90v456h-90v121h332v-121h-90v-456h90v-121h-332z" />
    <glyph glyph-name="ibreve" unicode="&#x12d;" horiz-adv-x="286" 
d="M143 579q-42 0 -75.5 15.5t-55.5 43.5t-35 53t-24 58l81 42l20 -33q23 -39 43.5 -57.5t45.5 -18.5q44 0 90 76l20 33l80 -42q-59 -170 -190 -170zM69 0v525h148v-525h-148z" />
    <glyph glyph-name="Iogonek" unicode="&#x12e;" horiz-adv-x="432" 
d="M293 -212q-124 0 -124 85q0 40 29.5 67.5t89.5 55.5l-1 4h-237v121h90v456h-90v121h333v-121h-91v-456h91v-121q-70 -43 -92 -64.5t-22 -40.5q0 -33 38 -33q31 0 55 28l53 -51q-27 -51 -122 -51z" />
    <glyph glyph-name="iogonek" unicode="&#x12f;" horiz-adv-x="286" 
d="M143 581q-43 0 -64.5 20t-21.5 53v22q0 33 21.5 53t64.5 20t64.5 -20t21.5 -53v-22q0 -33 -21.5 -53t-64.5 -20zM127 -212q-124 0 -124 85q0 40 29.5 67.5t89.5 55.5l-1 4h-52v525h148v-525q-70 -43 -92 -64.5t-22 -40.5q0 -33 38 -33q31 0 55 28l53 -51
q-27 -51 -122 -51z" />
    <glyph glyph-name="Idotaccent" unicode="&#x130;" horiz-adv-x="432" 
d="M216 752q-89 0 -89 70v29q0 70 89 70t89 -70v-29q0 -70 -89 -70zM50 0v121h90v456h-90v121h332v-121h-90v-456h90v-121h-332z" />
    <glyph glyph-name="dotlessi" unicode="&#x131;" horiz-adv-x="286" 
d="M69 0v525h148v-525h-148z" />
    <glyph glyph-name="IJ" unicode="&#x132;" horiz-adv-x="656" 
d="M73 309v389h152v-389h-152zM330 -11q-108 0 -171 52.5t-79 143.5l142 28q8 -44 36 -67.5t71 -23.5t72.5 24t29.5 73v357h-88v122h240v-488q0 -101 -69 -161t-184 -60z" />
    <glyph glyph-name="ij" unicode="&#x133;" horiz-adv-x="566" 
d="M143 581q-43 0 -64.5 20t-21.5 53v22q0 33 21.5 53t64.5 20t64.5 -20t21.5 -53v-22q0 -33 -21.5 -53t-64.5 -20zM423 581q-43 0 -64.5 20t-21.5 53v22q0 33 21.5 53t64.5 20t64.5 -20t21.5 -53v-22q0 -33 -21.5 -53t-64.5 -20zM69 0v525h148v-525h-148zM271 -200v115h78
v610h148v-581q0 -144 -148 -144h-78z" />
    <glyph glyph-name="Jcircumflex" unicode="&#x134;" horiz-adv-x="559" 
d="M184 739l-73 58l132 159h124l132 -159l-73 -58l-121 115zM256 -11q-100 0 -157.5 52t-73.5 144l142 28q17 -91 87 -91q35 0 57.5 22t22.5 65v367h-212v122h364v-496q0 -97 -61.5 -155t-168.5 -58z" />
    <glyph glyph-name="jcircumflex" unicode="&#x135;" horiz-adv-x="286" 
d="M22 578l-73 58l132 159h124l132 -159l-73 -58l-121 115zM-9 -200v115h78v610h148v-581q0 -144 -148 -144h-78z" />
    <glyph glyph-name="uni0136" unicode="&#x136;" horiz-adv-x="696" 
d="M77 0v698h152v-332h6l99 135l157 197h172l-235 -287l256 -411h-179l-185 304l-91 -110v-194h-152zM282 -275q47 40 62 99q-50 4 -50 61v11q0 30 18.5 46t51.5 16t51.5 -16t18.5 -46v-14q0 -45 -19 -88.5t-48 -68.5h-85z" />
    <glyph glyph-name="uni0137" unicode="&#x137;" horiz-adv-x="577" 
d="M69 0v740h148v-437h6l65 97l105 125h164l-175 -201l195 -324h-176l-118 222l-66 -74v-148h-148zM241 -275q47 40 62 99q-50 4 -50 61v11q0 30 18.5 46t51.5 16t51.5 -16t18.5 -46v-14q0 -45 -19 -88.5t-48 -68.5h-85z" />
    <glyph glyph-name="kgreenlandic" unicode="&#x138;" horiz-adv-x="577" 
d="M69 0v525h148v-222h6l69 93l113 129h166l-186 -205l192 -320h-173l-122 219l-65 -71v-148h-148z" />
    <glyph glyph-name="Lacute" unicode="&#x139;" horiz-adv-x="530" 
d="M172 740l-88 43l99 194l123 -61zM77 0v698h152v-563h266v-135h-418z" />
    <glyph glyph-name="lacute" unicode="&#x13a;" horiz-adv-x="303" 
d="M168 779l-88 43l99 194l123 -61zM216 0q-147 0 -147 144v596h148v-625h66v-115h-67z" />
    <glyph glyph-name="uni013B" unicode="&#x13b;" horiz-adv-x="530" 
d="M77 0v698h152v-563h266v-135h-418zM203 -275q47 40 62 99q-50 4 -50 61v11q0 30 18.5 46t51.5 16t51.5 -16t18.5 -46v-14q0 -45 -19 -88.5t-48 -68.5h-85z" />
    <glyph glyph-name="uni013C" unicode="&#x13c;" horiz-adv-x="303" 
d="M216 0q-147 0 -147 144v596h148v-625h66v-115h-67zM92 -275q47 40 62 99q-50 4 -50 61v11q0 30 18.5 46t51.5 16t51.5 -16t18.5 -46v-14q0 -45 -19 -88.5t-48 -68.5h-85z" />
    <glyph glyph-name="Lcaron" unicode="&#x13d;" horiz-adv-x="530" 
d="M301 527l6 215h157l-66 -215h-97zM77 0v698h152v-563h266v-135h-418z" />
    <glyph glyph-name="lcaron" unicode="&#x13e;" horiz-adv-x="360" 
d="M216 0q-147 0 -147 144v596h148v-625h66v-115h-67zM280 525l6 215h157l-66 -215h-97z" />
    <glyph glyph-name="Ldot" unicode="&#x13f;" horiz-adv-x="530" 
d="M77 0v698h152v-563h266v-135h-418zM414 321q-89 0 -89 70v29q0 70 89 70t89 -70v-29q0 -70 -89 -70z" />
    <glyph glyph-name="ldot" unicode="&#x140;" horiz-adv-x="448" 
d="M216 0q-147 0 -147 144v596h148v-625h66v-115h-67zM363 273q-89 0 -89 70v29q0 70 89 70t89 -70v-29q0 -70 -89 -70z" />
    <glyph glyph-name="Lslash" unicode="&#x141;" horiz-adv-x="540" 
d="M82 0v243l-89 -29v113l89 29v342h152v-294l158 51v-113l-158 -51v-156h266v-135h-418z" />
    <glyph glyph-name="lslash" unicode="&#x142;" horiz-adv-x="314" 
d="M222 0q-147 0 -147 144v151l-77 -25v109l77 25v336h148v-288l104 34v-109l-104 -34v-228h66v-115h-67z" />
    <glyph glyph-name="Nacute" unicode="&#x143;" horiz-adv-x="724" 
d="M377 740l-88 43l99 194l123 -61zM77 0v698h166l191 -330l67 -140h3v470h143v-698h-166l-191 330l-67 140h-3v-470h-143z" />
    <glyph glyph-name="nacute" unicode="&#x144;" horiz-adv-x="596" 
d="M314 576l-88 43l99 194l123 -61zM69 0v525h148v-89h6q35 101 146 101q80 0 122 -54t42 -154v-329h-148v317q0 52 -16.5 76t-56.5 24q-39 0 -67 -20t-28 -57v-340h-148z" />
    <glyph glyph-name="uni0145" unicode="&#x145;" horiz-adv-x="724" 
d="M77 0v698h166l191 -330l67 -140h3v470h143v-698h-166l-191 330l-67 140h-3v-470h-143zM279 -275q47 40 62 99q-50 4 -50 61v11q0 30 18.5 46t51.5 16t51.5 -16t18.5 -46v-14q0 -45 -19 -88.5t-48 -68.5h-85z" />
    <glyph glyph-name="uni0146" unicode="&#x146;" horiz-adv-x="596" 
d="M69 0v525h148v-89h6q35 101 146 101q80 0 122 -54t42 -154v-329h-148v317q0 52 -16.5 76t-56.5 24q-39 0 -67 -20t-28 -57v-340h-148zM215 -275q47 40 62 99q-50 4 -50 61v11q0 30 18.5 46t51.5 16t51.5 -16t18.5 -46v-14q0 -45 -19 -88.5t-48 -68.5h-85z" />
    <glyph glyph-name="Ncaron" unicode="&#x147;" horiz-adv-x="724" 
d="M300 748l-132 159l73 58l121 -115l121 115l73 -58l-132 -159h-124zM77 0v698h166l191 -330l67 -140h3v470h143v-698h-166l-191 330l-67 140h-3v-470h-143z" />
    <glyph glyph-name="ncaron" unicode="&#x148;" horiz-adv-x="596" 
d="M236 584l-132 159l73 58l121 -115l121 115l73 -58l-132 -159h-124zM69 0v525h148v-89h6q35 101 146 101q80 0 122 -54t42 -154v-329h-148v317q0 52 -16.5 76t-56.5 24q-39 0 -67 -20t-28 -57v-340h-148z" />
    <glyph glyph-name="napostrophe" unicode="&#x149;" horiz-adv-x="886" 
d="M36 450q71 65 92 130q-62 12 -62 73v25q0 33 21.5 52.5t64.5 19.5t64.5 -19.5t21.5 -52.5v-21q0 -57 -31 -114t-78 -93h-93zM359 0v525h148v-89h6q35 101 146 101q80 0 122 -54t42 -154v-329h-148v317q0 52 -16.5 76t-56.5 24q-39 0 -67 -20t-28 -57v-340h-148z" />
    <glyph glyph-name="Eng" unicode="&#x14a;" horiz-adv-x="724" 
d="M420 -200v115h84v85h-23l-191 330l-67 140h-3v-470h-143v698h166l191 -330l67 -140h3v470h143v-754q0 -144 -148 -144h-79z" />
    <glyph glyph-name="eng" unicode="&#x14b;" horiz-adv-x="596" 
d="M307 -200v115h78v402q0 52 -16.5 76t-56.5 24q-39 0 -67 -20t-28 -57v-340h-148v525h148v-89h6q35 101 146 101q80 0 122 -54t42 -154v-385q0 -144 -147 -144h-79z" />
    <glyph glyph-name="Omacron" unicode="&#x14c;" horiz-adv-x="714" 
d="M204 785v103h306v-103h-306zM357 -12q-142 0 -224.5 93.5t-82.5 267.5t82.5 267.5t224.5 93.5t224.5 -93.5t82.5 -267.5t-82.5 -267.5t-224.5 -93.5zM357 123q69 0 107.5 45.5t38.5 128.5v104q0 83 -38.5 128.5t-107.5 45.5t-107.5 -45.5t-38.5 -128.5v-104
q0 -83 38.5 -128.5t107.5 -45.5z" />
    <glyph glyph-name="omacron" unicode="&#x14d;" horiz-adv-x="564" 
d="M129 623v103h306v-103h-306zM282 -12q-115 0 -180.5 74t-65.5 201t65.5 200.5t180.5 73.5t180.5 -73.5t65.5 -200.5t-65.5 -201t-180.5 -74zM282 105q44 0 68 27.5t24 76.5v107q0 49 -24 76.5t-68 27.5t-68 -27.5t-24 -76.5v-107q0 -49 24 -76.5t68 -27.5z" />
    <glyph glyph-name="Obreve" unicode="&#x14e;" horiz-adv-x="714" 
d="M357 740q-133 0 -190 170l81 42l19 -32q24 -40 44 -58.5t46 -18.5t47 18.5t44 58.5l19 32l80 -42q-57 -170 -190 -170zM357 -12q-142 0 -224.5 93.5t-82.5 267.5t82.5 267.5t224.5 93.5t224.5 -93.5t82.5 -267.5t-82.5 -267.5t-224.5 -93.5zM357 123q69 0 107.5 45.5
t38.5 128.5v104q0 83 -38.5 128.5t-107.5 45.5t-107.5 -45.5t-38.5 -128.5v-104q0 -83 38.5 -128.5t107.5 -45.5z" />
    <glyph glyph-name="obreve" unicode="&#x14f;" horiz-adv-x="564" 
d="M282 578q-42 0 -75.5 15.5t-55.5 43.5t-35 53t-24 58l81 42l20 -33q23 -39 43.5 -57.5t45.5 -18.5q44 0 90 76l20 33l80 -42q-59 -170 -190 -170zM282 -12q-115 0 -180.5 74t-65.5 201t65.5 200.5t180.5 73.5t180.5 -73.5t65.5 -200.5t-65.5 -201t-180.5 -74zM282 105
q44 0 68 27.5t24 76.5v107q0 49 -24 76.5t-68 27.5t-68 -27.5t-24 -76.5v-107q0 -49 24 -76.5t68 -27.5z" />
    <glyph glyph-name="Ohungarumlaut" unicode="&#x150;" horiz-adv-x="714" 
d="M267 740l-81 39l99 194l116 -57zM472 740l-81 39l99 194l116 -57zM357 -12q-142 0 -224.5 93.5t-82.5 267.5t82.5 267.5t224.5 93.5t224.5 -93.5t82.5 -267.5t-82.5 -267.5t-224.5 -93.5zM357 123q69 0 107.5 45.5t38.5 128.5v104q0 83 -38.5 128.5t-107.5 45.5
t-107.5 -45.5t-38.5 -128.5v-104q0 -83 38.5 -128.5t107.5 -45.5z" />
    <glyph glyph-name="ohungarumlaut" unicode="&#x151;" horiz-adv-x="564" 
d="M192 578l-81 39l99 194l116 -57zM397 578l-81 39l99 194l116 -57zM282 -12q-115 0 -180.5 74t-65.5 201t65.5 200.5t180.5 73.5t180.5 -73.5t65.5 -200.5t-65.5 -201t-180.5 -74zM282 105q44 0 68 27.5t24 76.5v107q0 49 -24 76.5t-68 27.5t-68 -27.5t-24 -76.5v-107
q0 -49 24 -76.5t68 -27.5z" />
    <glyph glyph-name="OE" unicode="&#x152;" horiz-adv-x="998" 
d="M357 -12q-142 0 -224.5 93.5t-82.5 267.5t82.5 267.5t224.5 93.5q67 0 123 -12h463v-135h-324v-143h278v-134h-278v-151h324v-135h-471q-44 -12 -115 -12zM357 123q59 0 110 9v433q-57 10 -110 10q-68 0 -107 -45.5t-39 -128.5v-104q0 -83 39 -128.5t107 -45.5z" />
    <glyph glyph-name="oe" unicode="&#x153;" horiz-adv-x="901" 
d="M282 -12q-115 0 -180.5 75t-65.5 203q0 127 65.5 199t180.5 72q120 0 166 -74h6q43 74 171 74q115 0 177.5 -72t62.5 -196v-44h-338v-8q0 -53 30.5 -83t89.5 -30q42 0 70.5 16t58.5 47l74 -92q-76 -87 -220 -87q-66 0 -113 20t-63 54h-6q-41 -74 -166 -74zM527 312h184v9
q0 49 -22.5 78t-65.5 29q-44 0 -70 -29.5t-26 -78.5v-8zM282 105q44 0 68 27.5t24 76.5v107q0 49 -24 76.5t-68 27.5t-68 -27.5t-24 -76.5v-107q0 -49 24 -76.5t68 -27.5z" />
    <glyph glyph-name="Racute" unicode="&#x154;" horiz-adv-x="674" 
d="M342 740l-88 43l99 194l123 -61zM77 0v698h331q96 0 153.5 -61.5t57.5 -161.5q0 -72 -32.5 -124.5t-94.5 -76.5l137 -274h-169l-122 256h-109v-256h-152zM229 384h160q34 0 53.5 18t19.5 51v44q0 33 -19.5 51t-53.5 18h-160v-182z" />
    <glyph glyph-name="racute" unicode="&#x155;" horiz-adv-x="404" 
d="M240 578l-88 43l99 194l123 -61zM69 0v525h148v-114h5q10 49 43.5 81.5t90.5 32.5h26v-138h-37q-67 0 -97.5 -18t-30.5 -62v-307h-148z" />
    <glyph glyph-name="uni0156" unicode="&#x156;" horiz-adv-x="674" 
d="M77 0v698h331q96 0 153.5 -61.5t57.5 -161.5q0 -72 -32.5 -124.5t-94.5 -76.5l137 -274h-169l-122 256h-109v-256h-152zM229 384h160q34 0 53.5 18t19.5 51v44q0 33 -19.5 51t-53.5 18h-160v-182zM271 -275q47 40 62 99q-50 4 -50 61v11q0 30 18.5 46t51.5 16t51.5 -16
t18.5 -46v-14q0 -45 -19 -88.5t-48 -68.5h-85z" />
    <glyph glyph-name="uni0157" unicode="&#x157;" horiz-adv-x="404" 
d="M69 0v525h148v-114h5q10 49 43.5 81.5t90.5 32.5h26v-138h-37q-67 0 -97.5 -18t-30.5 -62v-307h-148zM60 -275q47 40 62 99q-50 4 -50 61v11q0 30 18.5 46t51.5 16t51.5 -16t18.5 -46v-14q0 -45 -19 -88.5t-48 -68.5h-85z" />
    <glyph glyph-name="Rcaron" unicode="&#x158;" horiz-adv-x="674" 
d="M265 748l-132 159l73 58l121 -115l121 115l73 -58l-132 -159h-124zM77 0v698h331q96 0 153.5 -61.5t57.5 -161.5q0 -72 -32.5 -124.5t-94.5 -76.5l137 -274h-169l-122 256h-109v-256h-152zM229 384h160q34 0 53.5 18t19.5 51v44q0 33 -19.5 51t-53.5 18h-160v-182z" />
    <glyph glyph-name="rcaron" unicode="&#x159;" horiz-adv-x="404" 
d="M162 586l-132 159l73 58l121 -115l121 115l73 -58l-132 -159h-124zM69 0v525h148v-114h5q10 49 43.5 81.5t90.5 32.5h26v-138h-37q-67 0 -97.5 -18t-30.5 -62v-307h-148z" />
    <glyph glyph-name="Sacute" unicode="&#x15a;" horiz-adv-x="624" 
d="M327 740l-88 43l99 194l123 -61zM303 -12q-162 0 -265 113l100 101q71 -80 175 -80q54 0 82 22.5t28 61.5q0 31 -17.5 50t-63.5 25l-69 9q-214 28 -214 208q0 95 70.5 153.5t191.5 58.5q153 0 242 -98l-101 -102q-56 66 -150 66q-101 0 -101 -68q0 -35 19 -51.5t64 -23.5
l69 -11q108 -17 160 -67.5t52 -139.5q0 -103 -72 -165t-200 -62z" />
    <glyph glyph-name="sacute" unicode="&#x15b;" horiz-adv-x="504" 
d="M267 578l-88 43l99 194l123 -61zM247 -12q-136 0 -221 94l87 88q60 -67 139 -67q78 0 78 50q0 37 -53 44l-57 7q-177 22 -177 162q0 76 55.5 123.5t148.5 47.5q78 0 124 -19.5t90 -62.5l-85 -87q-54 54 -121 54q-70 0 -70 -44q0 -22 12 -33.5t43 -15.5l59 -8
q173 -23 173 -158q0 -76 -62.5 -125.5t-162.5 -49.5z" />
    <glyph glyph-name="Scircumflex" unicode="&#x15c;" horiz-adv-x="624" 
d="M191 739l-73 58l132 159h124l132 -159l-73 -58l-121 115zM303 -12q-162 0 -265 113l100 101q71 -80 175 -80q54 0 82 22.5t28 61.5q0 31 -17.5 50t-63.5 25l-69 9q-214 28 -214 208q0 95 70.5 153.5t191.5 58.5q153 0 242 -98l-101 -102q-56 66 -150 66q-101 0 -101 -68
q0 -35 19 -51.5t64 -23.5l69 -11q108 -17 160 -67.5t52 -139.5q0 -103 -72 -165t-200 -62z" />
    <glyph glyph-name="scircumflex" unicode="&#x15d;" horiz-adv-x="504" 
d="M130 577l-73 58l132 159h124l132 -159l-73 -58l-121 115zM247 -12q-136 0 -221 94l87 88q60 -67 139 -67q78 0 78 50q0 37 -53 44l-57 7q-177 22 -177 162q0 76 55.5 123.5t148.5 47.5q78 0 124 -19.5t90 -62.5l-85 -87q-54 54 -121 54q-70 0 -70 -44q0 -22 12 -33.5
t43 -15.5l59 -8q173 -23 173 -158q0 -76 -62.5 -125.5t-162.5 -49.5z" />
    <glyph glyph-name="Scedilla" unicode="&#x15e;" horiz-adv-x="624" 
d="M319 -212q-87 0 -124 44l46 56q24 -29 66 -29q44 0 44 25q0 33 -75 40l-21 2l13 63q-139 11 -230 112l100 101q71 -80 175 -80q54 0 82 22.5t28 61.5q0 31 -17.5 50t-63.5 25l-69 9q-214 28 -214 208q0 95 70.5 153.5t191.5 58.5q153 0 242 -98l-101 -102q-56 66 -150 66
q-101 0 -101 -68q0 -35 19 -51.5t64 -23.5l69 -11q108 -17 160 -67.5t52 -139.5q0 -95 -63 -156.5t-177 -69.5l-9 -44l4 -4q28 7 48 7q32 0 52.5 -17t20.5 -52q0 -47 -37.5 -69t-94.5 -22z" />
    <glyph glyph-name="scedilla" unicode="&#x15f;" horiz-adv-x="504" 
d="M262 -212q-87 0 -124 44l46 56q24 -29 66 -29q44 0 44 25q0 33 -75 40l-21 2l13 64q-112 10 -185 92l87 88q60 -67 139 -67q78 0 78 50q0 37 -53 44l-57 7q-177 22 -177 162q0 76 55.5 123.5t148.5 47.5q78 0 124 -19.5t90 -62.5l-85 -87q-54 54 -121 54q-70 0 -70 -44
q0 -22 12 -33.5t43 -15.5l59 -8q173 -23 173 -158q0 -70 -53 -118t-141 -56l-9 -44l4 -4q28 7 48 7q32 0 52.5 -17t20.5 -52q0 -47 -37.5 -69t-94.5 -22z" />
    <glyph glyph-name="Scaron" unicode="&#x160;" horiz-adv-x="624" 
d="M250 748l-132 159l73 58l121 -115l121 115l73 -58l-132 -159h-124zM303 -12q-162 0 -265 113l100 101q71 -80 175 -80q54 0 82 22.5t28 61.5q0 31 -17.5 50t-63.5 25l-69 9q-214 28 -214 208q0 95 70.5 153.5t191.5 58.5q153 0 242 -98l-101 -102q-56 66 -150 66
q-101 0 -101 -68q0 -35 19 -51.5t64 -23.5l69 -11q108 -17 160 -67.5t52 -139.5q0 -103 -72 -165t-200 -62z" />
    <glyph glyph-name="scaron" unicode="&#x161;" horiz-adv-x="504" 
d="M189 586l-132 159l73 58l121 -115l121 115l73 -58l-132 -159h-124zM247 -12q-136 0 -221 94l87 88q60 -67 139 -67q78 0 78 50q0 37 -53 44l-57 7q-177 22 -177 162q0 76 55.5 123.5t148.5 47.5q78 0 124 -19.5t90 -62.5l-85 -87q-54 54 -121 54q-70 0 -70 -44
q0 -22 12 -33.5t43 -15.5l59 -8q173 -23 173 -158q0 -76 -62.5 -125.5t-162.5 -49.5z" />
    <glyph glyph-name="uni0162" unicode="&#x162;" horiz-adv-x="584" 
d="M216 0v563h-189v135h530v-135h-189v-563h-152zM209 -275q47 40 62 99q-50 4 -50 61v11q0 30 18.5 46t51.5 16t51.5 -16t18.5 -46v-14q0 -45 -19 -88.5t-48 -68.5h-85z" />
    <glyph glyph-name="uni0163" unicode="&#x163;" horiz-adv-x="383" 
d="M253 0q-76 0 -116 39t-40 114v257h-74v115h37q29 0 40.5 14t11.5 42v86h133v-142h104v-115h-104v-295h96v-115h-88zM146 -275q47 40 62 99q-50 4 -50 61v11q0 30 18.5 46t51.5 16t51.5 -16t18.5 -46v-14q0 -45 -19 -88.5t-48 -68.5h-85z" />
    <glyph glyph-name="Tcaron" unicode="&#x164;" horiz-adv-x="584" 
d="M230 748l-132 159l73 58l121 -115l121 115l73 -58l-132 -159h-124zM216 0v563h-189v135h530v-135h-189v-563h-152z" />
    <glyph glyph-name="tcaron" unicode="&#x165;" horiz-adv-x="388" 
d="M308 576l6 215h157l-66 -215h-97zM253 0q-76 0 -116 39t-40 114v257h-74v115h37q29 0 40.5 14t11.5 42v86h133v-142h104v-115h-104v-295h96v-115h-88z" />
    <glyph glyph-name="Tbar" unicode="&#x166;" horiz-adv-x="594" 
d="M221 0v274h-139v114h139v175h-189v135h530v-135h-189v-175h139v-114h-139v-274h-152z" />
    <glyph glyph-name="tbar" unicode="&#x167;" horiz-adv-x="391" 
d="M257 0q-76 0 -116 39t-40 114v68h-64v100h64v89h-74v115h37q29 0 40.5 14t11.5 42v86h133v-142h104v-115h-104v-89h85v-100h-85v-106h96v-115h-88z" />
    <glyph glyph-name="Utilde" unicode="&#x168;" horiz-adv-x="694" 
d="M423 762q-32 0 -77 20q-53 22 -78 22q-28 0 -59 -25l-52 68q43 64 114 64q32 0 77 -20q53 -22 78 -22q28 0 59 25l52 -68q-43 -64 -114 -64zM347 -12q-148 0 -211 70.5t-63 227.5v412h148v-428q0 -75 30 -111t96 -36t96 36t30 111v428h148v-412q0 -157 -63 -227.5
t-211 -70.5z" />
    <glyph glyph-name="utilde" unicode="&#x169;" horiz-adv-x="596" 
d="M371 601q-32 0 -77 20q-53 22 -78 22q-28 0 -59 -25l-52 68q43 64 114 64q32 0 77 -20q53 -22 78 -22q28 0 59 25l52 -68q-43 -64 -114 -64zM227 -12q-80 0 -122 53.5t-42 153.5v330h148v-317q0 -100 75 -100q37 0 65 20.5t28 55.5v341h148v-525h-148v88h-5
q-34 -100 -147 -100z" />
    <glyph glyph-name="Umacron" unicode="&#x16a;" horiz-adv-x="694" 
d="M194 785v103h306v-103h-306zM347 -12q-148 0 -211 70.5t-63 227.5v412h148v-428q0 -75 30 -111t96 -36t96 36t30 111v428h148v-412q0 -157 -63 -227.5t-211 -70.5z" />
    <glyph glyph-name="umacron" unicode="&#x16b;" horiz-adv-x="596" 
d="M142 624v103h306v-103h-306zM227 -12q-80 0 -122 53.5t-42 153.5v330h148v-317q0 -100 75 -100q37 0 65 20.5t28 55.5v341h148v-525h-148v88h-5q-34 -100 -147 -100z" />
    <glyph glyph-name="Ubreve" unicode="&#x16c;" horiz-adv-x="694" 
d="M347 740q-133 0 -190 170l81 42l19 -32q24 -40 44 -58.5t46 -18.5t47 18.5t44 58.5l19 32l80 -42q-57 -170 -190 -170zM347 -12q-148 0 -211 70.5t-63 227.5v412h148v-428q0 -75 30 -111t96 -36t96 36t30 111v428h148v-412q0 -157 -63 -227.5t-211 -70.5z" />
    <glyph glyph-name="ubreve" unicode="&#x16d;" horiz-adv-x="596" 
d="M295 579q-42 0 -75.5 15.5t-55.5 43.5t-35 53t-24 58l81 42l20 -33q23 -39 43.5 -57.5t45.5 -18.5q44 0 90 76l20 33l80 -42q-59 -170 -190 -170zM227 -12q-80 0 -122 53.5t-42 153.5v330h148v-317q0 -100 75 -100q37 0 65 20.5t28 55.5v341h148v-525h-148v88h-5
q-34 -100 -147 -100z" />
    <glyph glyph-name="Uring" unicode="&#x16e;" horiz-adv-x="694" 
d="M347 719q-63 0 -105.5 40.5t-42.5 102.5t42.5 102.5t105.5 40.5t105.5 -40.5t42.5 -102.5t-42.5 -102.5t-105.5 -40.5zM347 794q24 0 37.5 13.5t13.5 37.5v34q0 24 -13.5 37.5t-37.5 13.5t-37.5 -13.5t-13.5 -37.5v-34q0 -24 13.5 -37.5t37.5 -13.5zM347 -12
q-148 0 -211 70.5t-63 227.5v412h148v-428q0 -75 30 -111t96 -36t96 36t30 111v428h148v-412q0 -157 -63 -227.5t-211 -70.5z" />
    <glyph glyph-name="uring" unicode="&#x16f;" horiz-adv-x="596" 
d="M295 558q-63 0 -105.5 40.5t-42.5 102.5t42.5 102.5t105.5 40.5t105.5 -40.5t42.5 -102.5t-42.5 -102.5t-105.5 -40.5zM295 633q51 0 51 51v34q0 51 -51 51t-51 -51v-34q0 -51 51 -51zM227 -12q-80 0 -122 53.5t-42 153.5v330h148v-317q0 -100 75 -100q37 0 65 20.5
t28 55.5v341h148v-525h-148v88h-5q-34 -100 -147 -100z" />
    <glyph glyph-name="Uhungarumlaut" unicode="&#x170;" horiz-adv-x="694" 
d="M257 740l-81 39l99 194l116 -57zM462 740l-81 39l99 194l116 -57zM347 -12q-148 0 -211 70.5t-63 227.5v412h148v-428q0 -75 30 -111t96 -36t96 36t30 111v428h148v-412q0 -157 -63 -227.5t-211 -70.5z" />
    <glyph glyph-name="uhungarumlaut" unicode="&#x171;" horiz-adv-x="596" 
d="M205 579l-81 39l99 194l116 -57zM410 579l-81 39l99 194l116 -57zM227 -12q-80 0 -122 53.5t-42 153.5v330h148v-317q0 -100 75 -100q37 0 65 20.5t28 55.5v341h148v-525h-148v88h-5q-34 -100 -147 -100z" />
    <glyph glyph-name="Uogonek" unicode="&#x172;" horiz-adv-x="694" 
d="M421 -212q-54 0 -88.5 20t-34.5 64q0 39 28.5 63.5t90.5 50.5l-2 6q-28 -4 -68 -4q-148 0 -211 70.5t-63 227.5v412h148v-428q0 -75 30 -111t96 -36t96 36t30 111v428h148v-412q0 -108 -26 -174t-96 -118q-9 -6 -27 -18.5t-28.5 -20t-22.5 -18t-18 -21.5t-6 -22
q0 -32 38 -32q29 0 54 28l53 -51q-27 -51 -121 -51z" />
    <glyph glyph-name="uogonek" unicode="&#x173;" horiz-adv-x="596" 
d="M437 -212q-124 0 -124 85q0 40 29.5 67.5t89.5 55.5l-1 4h-52v88h-5q-34 -100 -147 -100q-80 0 -122 53.5t-42 153.5v330h148v-317q0 -100 75 -100q37 0 65 20.5t28 55.5v341h147v-525q-69 -42 -91 -63.5t-22 -41.5q0 -33 38 -33q30 0 55 28l53 -51q-27 -51 -122 -51z
" />
    <glyph glyph-name="Wcircumflex" unicode="&#x174;" horiz-adv-x="973" 
d="M366 739l-73 58l132 159h124l132 -159l-73 -58l-121 115zM187 0l-158 698h150l66 -335l37 -194h3l44 194l77 335h166l78 -335l43 -194h3l37 194l67 335h144l-162 -698h-173l-88 378l-34 153h-3l-35 -153l-88 -378h-174z" />
    <glyph glyph-name="wcircumflex" unicode="&#x175;" horiz-adv-x="841" 
d="M300 578l-73 58l132 159h124l132 -159l-73 -58l-121 115zM166 0l-147 525h143l51 -212l36 -160h4l42 160l60 212h135l61 -212l43 -160h4l36 160l51 212h137l-145 -525h-155l-64 222l-37 136h-3l-36 -136l-64 -222h-152z" />
    <glyph glyph-name="Ycircumflex" unicode="&#x176;" horiz-adv-x="649" 
d="M204 739l-73 58l132 159h124l132 -159l-73 -58l-121 115zM248 0v273l-239 425h170l150 -278h2l144 278h165l-239 -424v-274h-153z" />
    <glyph glyph-name="ycircumflex" unicode="&#x177;" horiz-adv-x="534" 
d="M149 578l-73 58l132 159h124l132 -159l-73 -58l-121 115zM73 -200v115h99l18 58l-184 552h147l77 -245l38 -152h6l39 152l77 245h138l-202 -606q-21 -62 -58 -90.5t-103 -28.5h-92z" />
    <glyph glyph-name="Ydieresis" unicode="&#x178;" horiz-adv-x="649" 
d="M215 761q-80 0 -80 63v25q0 63 80 63t80 -63v-25q0 -63 -80 -63zM435 761q-80 0 -80 63v25q0 63 80 63t80 -63v-25q0 -63 -80 -63zM248 0v273l-239 425h170l150 -278h2l144 278h165l-239 -424v-274h-153z" />
    <glyph glyph-name="Zacute" unicode="&#x179;" horiz-adv-x="607" 
d="M319 740l-88 43l99 194l123 -61zM39 0v135l344 428h-327v135h504v-135l-345 -428h353v-135h-529z" />
    <glyph glyph-name="zacute" unicode="&#x17a;" horiz-adv-x="518" 
d="M275 579l-88 43l99 194l123 -61zM39 0v117l261 293h-252v115h424v-116l-262 -294h269v-115h-440z" />
    <glyph glyph-name="Zdotaccent" unicode="&#x17b;" horiz-adv-x="607" 
d="M304 752q-89 0 -89 70v29q0 70 89 70t89 -70v-29q0 -70 -89 -70zM39 0v135l344 428h-327v135h504v-135l-345 -428h353v-135h-529z" />
    <glyph glyph-name="zdotaccent" unicode="&#x17c;" horiz-adv-x="518" 
d="M259 591q-89 0 -89 70v29q0 70 89 70t89 -70v-29q0 -70 -89 -70zM39 0v117l261 293h-252v115h424v-116l-262 -294h269v-115h-440z" />
    <glyph glyph-name="Zcaron" unicode="&#x17d;" horiz-adv-x="607" 
d="M242 748l-132 159l73 58l121 -115l121 115l73 -58l-132 -159h-124zM39 0v135l344 428h-327v135h504v-135l-345 -428h353v-135h-529z" />
    <glyph glyph-name="zcaron" unicode="&#x17e;" horiz-adv-x="518" 
d="M197 587l-132 159l73 58l121 -115l121 115l73 -58l-132 -159h-124zM39 0v117l261 293h-252v115h424v-116l-262 -294h269v-115h-440z" />
    <glyph glyph-name="uni018F" unicode="&#x18f;" horiz-adv-x="714" 
d="M357 -12q-142 0 -224.5 93.5t-82.5 267.5v50h453v3q0 82 -39 127.5t-107 45.5q-64 0 -97.5 -28t-48.5 -83l-137 49q29 88 100 142.5t183 54.5q142 0 224.5 -93.5t82.5 -267.5t-82.5 -267.5t-224.5 -93.5zM357 123q62 0 99.5 37t44.5 105l1 9h-290l1 -9q8 -67 45 -104.5
t99 -37.5z" />
    <glyph glyph-name="florin" unicode="&#x192;" horiz-adv-x="484" 
d="M5 -134l12 115h115l28 270h-106l12 120h106l18 175q7 69 51 110.5t121 41.5h110l-12 -115h-119l-22 -212h125l-10 -120h-127l-24 -234q-7 -69 -51 -110t-121 -41h-106z" />
    <glyph glyph-name="Ohorn" unicode="&#x1a0;" horiz-adv-x="714" 
d="M357 -12q-142 0 -224.5 93.5t-82.5 267.5t82.5 267.5t224.5 93.5q51 0 93 -12h111v106h124v-94q0 -51 -20 -76t-73 -25h-5q77 -94 77 -260q0 -174 -82.5 -267.5t-224.5 -93.5zM357 123q69 0 107.5 45.5t38.5 128.5v104q0 83 -38.5 128.5t-107.5 45.5t-107.5 -45.5
t-38.5 -128.5v-104q0 -83 38.5 -128.5t107.5 -45.5z" />
    <glyph glyph-name="ohorn" unicode="&#x1a1;" horiz-adv-x="564" 
d="M282 -12q-115 0 -180.5 75t-65.5 203q0 127 65.5 199t180.5 72q46 0 85 -12h60v106h124v-94q0 -45 -14.5 -68t-47.5 -29l-6 -1q45 -69 45 -173q0 -128 -65.5 -203t-180.5 -75zM282 105q44 0 68 27.5t24 76.5v107q0 49 -24 76.5t-68 27.5t-68 -27.5t-24 -76.5v-107
q0 -49 24 -76.5t68 -27.5z" />
    <glyph glyph-name="Uhorn" unicode="&#x1af;" horiz-adv-x="694" 
d="M347 -12q-148 0 -211 70.5t-63 227.5v412h148v-428q0 -75 30 -111t96 -36t96 36t30 111v428h77v106h124v-94q0 -75 -48 -92l-5 -2v-330q0 -157 -63 -227.5t-211 -70.5z" />
    <glyph glyph-name="uhorn" unicode="&#x1b0;" horiz-adv-x="596" 
d="M227 -12q-80 0 -122 53.5t-42 153.5v330h148v-317q0 -100 75 -100q37 0 65 20.5t28 55.5v341h87v106h124v-94q0 -43 -13.5 -67t-45.5 -30l-5 -1v-439h-147v88h-5q-34 -100 -147 -100z" />
    <glyph glyph-name="uni01B3" unicode="&#x1b3;" horiz-adv-x="649" 
d="M361 728l-75 35l41 92h-122v106h143q98 0 98 -73q0 -57 -57 -126zM248 0v273l-239 425h170l150 -278h2l144 278h165l-239 -424v-274h-153z" />
    <glyph glyph-name="uni01B4" unicode="&#x1b4;" horiz-adv-x="534" 
d="M306 570l-75 35l41 92h-122v106h143q98 0 98 -73q0 -57 -57 -126zM73 -200v115h99l18 58l-184 552h147l77 -245l38 -152h6l39 152l77 245h138l-202 -606q-21 -62 -58 -90.5t-103 -28.5h-92z" />
    <glyph glyph-name="Aringacute" unicode="&#x1fa;" horiz-adv-x="685" 
d="M335 976l-53 57l129 117l74 -81zM342 725q-66 0 -109 32.5t-43 87.5t43 87.5t109 32.5t109 -32.5t43 -87.5t-43 -87.5t-109 -32.5zM342 795q55 0 55 45v10q0 45 -55 45t-55 -45v-10q0 -45 55 -45zM20 0l230 698h188l227 -698h-158l-50 166h-233l-50 -166h-154zM260 295
h160l-78 265h-5z" />
    <glyph glyph-name="aringacute" unicode="&#x1fb;" horiz-adv-x="569" 
d="M261 818l-53 57l129 117l74 -81zM268 567q-66 0 -109 32.5t-43 87.5t43 87.5t109 32.5t109 -32.5t43 -87.5t-43 -87.5t-109 -32.5zM268 637q55 0 55 45v10q0 45 -55 45t-55 -45v-10q0 -45 55 -45zM197 -12q-77 0 -120 41.5t-43 111.5q0 81 59 122.5t166 41.5h83v33
q0 83 -87 83q-68 0 -113 -62l-88 78q68 100 212 100q110 0 167 -49t57 -143v-230h49v-115h-82q-36 0 -62 21.5t-35 57.5l-3 13h-6q-12 -50 -52.5 -77t-101.5 -27zM252 91q40 0 65 17t25 51v62h-72q-87 0 -87 -59v-15q0 -56 69 -56z" />
    <glyph glyph-name="AEacute" unicode="&#x1fc;" horiz-adv-x="968" 
d="M499 740l-88 43l99 194l123 -61zM-1 0l341 698h573v-135h-324v-143h278v-134h-278v-151h324v-135h-475v166h-209l-78 -166h-152zM290 295h148v268h-23z" />
    <glyph glyph-name="aeacute" unicode="&#x1fd;" horiz-adv-x="864" 
d="M448 588l-88 43l99 194l123 -61zM198 -12q-78 0 -121 43t-43 113q0 82 61.5 125t163.5 43h83v26q0 83 -87 83q-68 0 -113 -62l-88 78q68 100 212 100q101 0 148 -74h6q47 74 168 74q63 0 110.5 -21.5t75 -59.5t41 -85t13.5 -102v-44h-338v-8q0 -51 31.5 -81t88.5 -30
q70 0 129 61l74 -92q-76 -87 -220 -87q-72 0 -127 29t-77 74h-6q-40 -103 -185 -103zM491 312h184v9q0 49 -22.5 78t-65.5 29q-44 0 -70 -29.5t-26 -78.5v-8zM254 91q38 0 63 17t25 51v66h-72q-40 0 -63.5 -15.5t-23.5 -43.5v-14q0 -61 71 -61z" />
    <glyph glyph-name="Oslashacute" unicode="&#x1fe;" horiz-adv-x="714" 
d="M372 740l-88 43l99 194l123 -61zM154 -56l-92 59l61 90q-73 93 -73 256q0 174 82.5 267.5t224.5 93.5q84 0 150 -34l53 78l92 -59l-61 -90q73 -93 73 -256q0 -174 -82.5 -267.5t-224.5 -93.5q-84 0 -150 34zM216 211l223 354q-33 21 -82 21q-72 0 -112.5 -47.5
t-40.5 -134.5v-110q0 -47 12 -83zM357 112q72 0 112.5 47.5t40.5 134.5v110q0 47 -12 83l-223 -354q33 -21 82 -21z" />
    <glyph glyph-name="oslashacute" unicode="&#x1ff;" horiz-adv-x="572" 
d="M302 578l-88 43l99 194l123 -61zM94 -50l-80 60l67 83q-41 68 -41 170q0 127 65.5 200.5t180.5 73.5q75 0 132 -34l60 72l80 -60l-68 -84q42 -66 42 -169q0 -127 -65.5 -200.5t-180.5 -73.5q-75 0 -132 33zM189 214l160 192q-25 23 -63 23q-45 0 -71 -32t-26 -86v-26v-71
zM286 96q45 0 71 32t26 86v38v60l-161 -193q25 -23 64 -23z" />
    <glyph glyph-name="uni0218" unicode="&#x218;" horiz-adv-x="624" 
d="M303 -12q-162 0 -265 113l100 101q71 -80 175 -80q54 0 82 22.5t28 61.5q0 31 -17.5 50t-63.5 25l-69 9q-214 28 -214 208q0 95 70.5 153.5t191.5 58.5q153 0 242 -98l-101 -102q-56 66 -150 66q-101 0 -101 -68q0 -35 19 -51.5t64 -23.5l69 -11q108 -17 160 -67.5
t52 -139.5q0 -103 -72 -165t-200 -62zM229 -275q47 40 62 99q-50 4 -50 61v11q0 30 18.5 46t51.5 16t51.5 -16t18.5 -46v-14q0 -45 -19 -88.5t-48 -68.5h-85z" />
    <glyph glyph-name="uni0219" unicode="&#x219;" horiz-adv-x="504" 
d="M247 -12q-136 0 -221 94l87 88q60 -67 139 -67q78 0 78 50q0 37 -53 44l-57 7q-177 22 -177 162q0 76 55.5 123.5t148.5 47.5q78 0 124 -19.5t90 -62.5l-85 -87q-54 54 -121 54q-70 0 -70 -44q0 -22 12 -33.5t43 -15.5l59 -8q173 -23 173 -158q0 -76 -62.5 -125.5
t-162.5 -49.5zM166 -275q47 40 62 99q-50 4 -50 61v11q0 30 18.5 46t51.5 16t51.5 -16t18.5 -46v-14q0 -45 -19 -88.5t-48 -68.5h-85z" />
    <glyph glyph-name="uni021A" unicode="&#x21a;" horiz-adv-x="584" 
d="M216 0v563h-189v135h530v-135h-189v-563h-152zM209 -275q47 40 62 99q-50 4 -50 61v11q0 30 18.5 46t51.5 16t51.5 -16t18.5 -46v-14q0 -45 -19 -88.5t-48 -68.5h-85z" />
    <glyph glyph-name="uni021B" unicode="&#x21b;" horiz-adv-x="383" 
d="M253 0q-76 0 -116 39t-40 114v257h-74v115h37q29 0 40.5 14t11.5 42v86h133v-142h104v-115h-104v-295h96v-115h-88zM146 -275q47 40 62 99q-50 4 -50 61v11q0 30 18.5 46t51.5 16t51.5 -16t18.5 -46v-14q0 -45 -19 -88.5t-48 -68.5h-85z" />
    <glyph glyph-name="uni0237" unicode="&#x237;" horiz-adv-x="286" 
d="M-9 -200v115h78v610h148v-581q0 -144 -148 -144h-78z" />
    <glyph glyph-name="uni0259" unicode="&#x259;" horiz-adv-x="562" 
d="M280 -12q-123 0 -183.5 76t-60.5 192v44h337v8q0 53 -27.5 83t-83.5 30q-31 0 -57.5 -11t-38.5 -22t-30 -30l-74 92q76 87 217 87q117 0 182 -74t65 -201q0 -126 -64.5 -200t-181.5 -74zM277 97q44 0 70 29.5t26 78.5v8h-184v-9q0 -49 22.5 -78t65.5 -29z" />
    <glyph glyph-name="uni02BB" unicode="&#x2bb;" horiz-adv-x="600" 
d="M301 576q-33 0 -51.5 16t-18.5 46v14q0 45 19 88.5t48 68.5h85q-47 -40 -62 -99q50 -4 50 -61v-11q0 -30 -18.5 -46t-51.5 -16z" />
    <glyph glyph-name="uni02BC" unicode="&#x2bc;" horiz-adv-x="600" 
d="M137 525l6 215h157l-66 -215h-97z" />
    <glyph glyph-name="circumflex" unicode="&#x2c6;" horiz-adv-x="600" 
d="M179 578l-73 58l132 159h124l132 -159l-73 -58l-121 115z" />
    <glyph glyph-name="caron" unicode="&#x2c7;" horiz-adv-x="600" 
d="M238 587l-132 159l73 58l121 -115l121 115l73 -58l-132 -159h-124z" />
    <glyph glyph-name="breve" unicode="&#x2d8;" horiz-adv-x="600" 
d="M300 579q-42 0 -75.5 15.5t-55.5 43.5t-35 53t-24 58l81 42l20 -33q23 -39 43.5 -57.5t45.5 -18.5q44 0 90 76l20 33l80 -42q-59 -170 -190 -170z" />
    <glyph glyph-name="dotaccent" unicode="&#x2d9;" horiz-adv-x="600" 
d="M300 591q-89 0 -89 70v29q0 70 89 70t89 -70v-29q0 -70 -89 -70z" />
    <glyph glyph-name="ring" unicode="&#x2da;" horiz-adv-x="600" 
d="M300 558q-63 0 -105.5 40.5t-42.5 102.5t42.5 102.5t105.5 40.5t105.5 -40.5t42.5 -102.5t-42.5 -102.5t-105.5 -40.5zM300 633q51 0 51 51v34q0 51 -51 51t-51 -51v-34q0 -51 51 -51z" />
    <glyph glyph-name="ogonek" unicode="&#x2db;" horiz-adv-x="600" 
d="M210 -212q-124 0 -124 85q0 40 29.5 67.5t89.5 55.5l-8 26h93l10 -22q-70 -43 -92 -64.5t-22 -40.5q0 -33 38 -33q30 0 55 28l53 -51q-27 -51 -122 -51z" />
    <glyph glyph-name="tilde" unicode="&#x2dc;" horiz-adv-x="600" 
d="M376 601q-32 0 -77 20q-53 22 -78 22q-28 0 -59 -25l-52 68q43 64 114 64q32 0 77 -20q53 -22 78 -22q28 0 59 25l52 -68q-43 -64 -114 -64z" />
    <glyph glyph-name="hungarumlaut" unicode="&#x2dd;" horiz-adv-x="600" 
d="M210 579l-81 39l99 194l116 -57zM415 579l-81 39l99 194l116 -57z" />
    <glyph glyph-name="gravecomb" unicode="&#x300;" 
d="M-16 579l-134 176l123 61l99 -194z" />
    <glyph glyph-name="acutecomb" unicode="&#x301;" 
d="M16 579l-88 43l99 194l123 -61z" />
    <glyph glyph-name="uni0302" unicode="&#x302;" 
d="M-121 578l-73 58l132 159h124l132 -159l-73 -58l-121 115z" />
    <glyph glyph-name="tildecomb" unicode="&#x303;" 
d="M76 601q-32 0 -77 20q-53 22 -78 22q-28 0 -59 -25l-52 68q43 64 114 64q32 0 77 -20q53 -22 78 -22q28 0 59 25l52 -68q-43 -64 -114 -64z" />
    <glyph glyph-name="uni0304" unicode="&#x304;" 
d="M-153 624v103h306v-103h-306z" />
    <glyph glyph-name="uni0306" unicode="&#x306;" 
d="M0 579q-42 0 -75.5 15.5t-55.5 43.5t-35 53t-24 58l81 42l20 -33q23 -39 43.5 -57.5t45.5 -18.5q44 0 90 76l20 33l80 -42q-59 -170 -190 -170z" />
    <glyph glyph-name="uni0307" unicode="&#x307;" 
d="M0 591q-89 0 -89 70v29q0 70 89 70t89 -70v-29q0 -70 -89 -70z" />
    <glyph glyph-name="uni0308" unicode="&#x308;" 
d="M-110 600q-80 0 -80 63v25q0 63 80 63t80 -63v-25q0 -63 -80 -63zM110 600q-80 0 -80 63v25q0 63 80 63t80 -63v-25q0 -63 -80 -63z" />
    <glyph glyph-name="hookabovecomb" unicode="&#x309;" 
d="M36 569l-75 35l41 92h-122v106h143q98 0 98 -73q0 -57 -57 -126z" />
    <glyph glyph-name="uni030A" unicode="&#x30a;" 
d="M0 558q-63 0 -105.5 40.5t-42.5 102.5t42.5 102.5t105.5 40.5t105.5 -40.5t42.5 -102.5t-42.5 -102.5t-105.5 -40.5zM0 633q51 0 51 51v34q0 51 -51 51t-51 -51v-34q0 -51 51 -51z" />
    <glyph glyph-name="uni030B" unicode="&#x30b;" 
d="M-90 579l-81 39l99 194l116 -57zM115 579l-81 39l99 194l116 -57z" />
    <glyph glyph-name="uni030C" unicode="&#x30c;" 
d="M-62 587l-132 159l73 58l121 -115l121 115l73 -58l-132 -159h-124z" />
    <glyph glyph-name="uni0312" unicode="&#x312;" 
d="M1 576q-33 0 -51.5 16t-18.5 46v14q0 45 19 88.5t48 68.5h85q-47 -40 -62 -99q50 -4 50 -61v-11q0 -30 -18.5 -46t-51.5 -16z" />
    <glyph glyph-name="uni0315" unicode="&#x315;" 
d="M0 525l6 215h157l-66 -215h-97z" />
    <glyph glyph-name="uni031B" unicode="&#x31b;" 
d="M-125 436v89h126v106h124v-94q0 -53 -21.5 -77t-78.5 -24h-150z" />
    <glyph glyph-name="dotbelowcomb" unicode="&#x323;" 
d="M0 -204q-81 0 -81 63v26q0 63 81 63t81 -63v-26q0 -63 -81 -63z" />
    <glyph glyph-name="uni0326" unicode="&#x326;" 
d="M-83 -275q47 40 62 99q-50 4 -50 61v11q0 30 18.5 46t51.5 16t51.5 -16t18.5 -46v-14q0 -45 -19 -88.5t-48 -68.5h-85z" />
    <glyph glyph-name="uni0327" unicode="&#x327;" 
d="M14 -212q-87 0 -124 44l46 56q24 -29 66 -29q44 0 44 25q0 33 -75 40l-21 2l22 104h67l-18 -85l4 -4q28 7 48 7q32 0 52.5 -17t20.5 -52q0 -47 -37.5 -69t-94.5 -22z" />
    <glyph glyph-name="uni0328" unicode="&#x328;" 
d="M-90 -212q-124 0 -124 85q0 40 29.5 67.5t89.5 55.5l-8 26h93l10 -22q-70 -43 -92 -64.5t-22 -40.5q0 -33 38 -33q30 0 55 28l53 -51q-27 -51 -122 -51z" />
    <glyph glyph-name="uni037E" unicode="&#x37e;" horiz-adv-x="330" 
d="M164 355q-43 0 -65.5 22t-22.5 58v20q0 36 22.5 58t65.5 22t65.5 -22t22.5 -58v-20q0 -36 -22.5 -58t-65.5 -22zM46 -147q77 72 98 138q-67 12 -67 78v20q0 36 22.5 58t65.5 22t65.5 -22t22.5 -58v-20q0 -61 -29.5 -120t-77.5 -96h-100z" />
    <glyph glyph-name="tonos" unicode="&#x384;" horiz-adv-x="600" 
d="M352 579l-95 14l35 223l133 -20z" />
    <glyph glyph-name="dieresistonos" unicode="&#x385;" horiz-adv-x="600" 
d="M338 579l-63 11l35 226l101 -17zM183 605q-64 0 -64 58v24q0 59 64 59t64 -58v-24q0 -59 -64 -59zM477 605q-64 0 -64 58v24q0 59 64 59t64 -58v-24q0 -59 -64 -59z" />
    <glyph glyph-name="Alphatonos" unicode="&#x386;" horiz-adv-x="685" 
d="M136 579l-95 14l35 223l133 -20zM20 0l230 698h188l227 -698h-158l-50 166h-233l-50 -166h-154zM260 295h160l-78 265h-5z" />
    <glyph glyph-name="anoteleia" unicode="&#x387;" horiz-adv-x="330" 
d="M165 355q-43 0 -65.5 22t-22.5 58v20q0 36 22.5 58t65.5 22t65.5 -22t22.5 -58v-20q0 -36 -22.5 -58t-65.5 -22z" />
    <glyph glyph-name="Epsilontonos" unicode="&#x388;" horiz-adv-x="703" 
d="M79 579l-95 14l35 223l133 -20zM173 0v698h475v-135h-323v-143h277v-134h-277v-151h323v-135h-475z" />
    <glyph glyph-name="Etatonos" unicode="&#x389;" horiz-adv-x="820" 
d="M79 579l-95 14l35 223l133 -20zM173 0v698h152v-278h266v278h152v-698h-152v286h-266v-286h-152z" />
    <glyph glyph-name="Iotatonos" unicode="&#x38a;" horiz-adv-x="555" 
d="M112 579l-95 14l35 223l133 -20zM173 0v121h90v456h-90v121h332v-121h-90v-456h90v-121h-332z" />
    <glyph glyph-name="Omicrontonos" unicode="&#x38c;" horiz-adv-x="756" 
d="M78 579l-95 14l35 223l133 -20zM399 -12q-142 0 -224.5 93.5t-82.5 267.5t82.5 267.5t224.5 93.5t224.5 -93.5t82.5 -267.5t-82.5 -267.5t-224.5 -93.5zM399 123q69 0 107.5 45.5t38.5 128.5v104q0 83 -38.5 128.5t-107.5 45.5t-107.5 -45.5t-38.5 -128.5v-104
q0 -83 38.5 -128.5t107.5 -45.5z" />
    <glyph glyph-name="Upsilontonos" unicode="&#x38e;" horiz-adv-x="793" 
d="M79 579l-95 14l35 223l133 -20zM392 0v273l-239 425h170l150 -278h2l144 278h165l-239 -424v-274h-153z" />
    <glyph glyph-name="Omegatonos" unicode="&#x38f;" horiz-adv-x="767" 
d="M80 579l-95 14l35 223l133 -20zM93 0v134h159v10q-154 70 -154 256q0 134 82.5 222t224.5 88t224.5 -88t82.5 -222q0 -186 -154 -256v-10h159v-134h-269v205q46 13 75 54.5t29 90.5v81q0 59 -40.5 101.5t-106.5 42.5t-106.5 -42.5t-40.5 -101.5v-81q0 -49 29 -90.5
t75 -54.5v-205h-269z" />
    <glyph glyph-name="iotadieresistonos" unicode="&#x390;" horiz-adv-x="329" 
d="M163 579l-63 11l35 226l101 -17zM8 605q-64 0 -64 58v24q0 59 64 59t64 -58v-24q0 -59 -64 -59zM302 605q-64 0 -64 58v24q0 59 64 59t64 -58v-24q0 -59 -64 -59zM225 0q-76 0 -116 39t-40 114v372h148v-410h96v-115h-88z" />
    <glyph glyph-name="Alpha" unicode="&#x391;" horiz-adv-x="685" 
d="M20 0l230 698h188l227 -698h-158l-50 166h-233l-50 -166h-154zM260 295h160l-78 265h-5z" />
    <glyph glyph-name="Beta" unicode="&#x392;" horiz-adv-x="667" 
d="M77 0v698h339q86 0 135 -48.5t49 -130.5q0 -75 -36 -111.5t-94 -38.5v-6q59 0 108 -41t49 -123q0 -83 -51.5 -141t-128.5 -58h-370zM229 412h151q30 0 47 17t17 47v30q0 30 -17 47t-47 17h-151v-158zM229 128h175q30 0 47.5 16.5t17.5 46.5v34q0 30 -17.5 46.5
t-47.5 16.5h-175v-160z" />
    <glyph glyph-name="Gamma" unicode="&#x393;" horiz-adv-x="514" 
d="M77 0v698h410v-135h-258v-563h-152z" />
    <glyph glyph-name="uni0394" unicode="&#x394;" horiz-adv-x="684" 
d="M49 0v121l199 577h188l199 -577v-121h-586zM204 135h271l-133 425h-5z" />
    <glyph glyph-name="Epsilon" unicode="&#x395;" horiz-adv-x="607" 
d="M77 0v698h475v-135h-323v-143h277v-134h-277v-151h323v-135h-475z" />
    <glyph glyph-name="Zeta" unicode="&#x396;" horiz-adv-x="607" 
d="M39 0v135l344 428h-327v135h504v-135l-345 -428h353v-135h-529z" />
    <glyph glyph-name="Eta" unicode="&#x397;" horiz-adv-x="724" 
d="M77 0v698h152v-278h266v278h152v-698h-152v286h-266v-286h-152z" />
    <glyph glyph-name="Theta" unicode="&#x398;" horiz-adv-x="724" 
d="M362 -12q-146 0 -229 93t-83 268t83 268t229 93t229 -93t83 -268t-83 -268t-229 -93zM362 123q73 0 112 45.5t39 128.5v104q0 83 -39 128.5t-112 45.5t-112 -45.5t-39 -128.5v-104q0 -83 39 -128.5t112 -45.5zM266 286v134h192v-134h-192z" />
    <glyph glyph-name="Iota" unicode="&#x399;" horiz-adv-x="432" 
d="M50 0v121h90v456h-90v121h332v-121h-90v-456h90v-121h-332z" />
    <glyph glyph-name="Kappa" unicode="&#x39a;" horiz-adv-x="696" 
d="M77 0v698h152v-332h6l99 135l157 197h172l-235 -287l256 -411h-179l-185 304l-91 -110v-194h-152z" />
    <glyph glyph-name="Lambda" unicode="&#x39b;" horiz-adv-x="671" 
d="M20 0l227 698h179l225 -698h-158l-104 335l-55 219h-3l-53 -219l-104 -335h-154z" />
    <glyph glyph-name="Mu" unicode="&#x39c;" horiz-adv-x="819" 
d="M77 0v698h161l171 -327h2l169 327h162v-698h-143v458h-3l-51 -102l-136 -247l-133 246l-53 110h-3v-465h-143z" />
    <glyph glyph-name="Nu" unicode="&#x39d;" horiz-adv-x="724" 
d="M77 0v698h166l191 -330l67 -140h3v470h143v-698h-166l-191 330l-67 140h-3v-470h-143z" />
    <glyph glyph-name="Xi" unicode="&#x39e;" horiz-adv-x="605" 
d="M55 563v135h495v-135h-495zM116 286v134h373v-134h-373zM55 0v135h495v-135h-495z" />
    <glyph glyph-name="Omicron" unicode="&#x39f;" horiz-adv-x="714" 
d="M357 -12q-142 0 -224.5 93.5t-82.5 267.5t82.5 267.5t224.5 93.5t224.5 -93.5t82.5 -267.5t-82.5 -267.5t-224.5 -93.5zM357 123q69 0 107.5 45.5t38.5 128.5v104q0 83 -38.5 128.5t-107.5 45.5t-107.5 -45.5t-38.5 -128.5v-104q0 -83 38.5 -128.5t107.5 -45.5z" />
    <glyph glyph-name="Pi" unicode="&#x3a0;" horiz-adv-x="709" 
d="M77 0v698h555v-698h-152v563h-251v-563h-152z" />
    <glyph glyph-name="Rho" unicode="&#x3a1;" horiz-adv-x="656" 
d="M77 0v698h330q97 0 154.5 -61.5t57.5 -161.5t-57.5 -161.5t-154.5 -61.5h-178v-252h-152zM229 384h160q34 0 53.5 18t19.5 51v44q0 33 -19.5 51t-53.5 18h-160v-182z" />
    <glyph glyph-name="Sigma" unicode="&#x3a3;" horiz-adv-x="611" 
d="M44 0v135l222 215l-212 213v135h505v-134h-317l208 -209l-227 -221h336v-134h-515z" />
    <glyph glyph-name="Tau" unicode="&#x3a4;" horiz-adv-x="584" 
d="M216 0v563h-189v135h530v-135h-189v-563h-152z" />
    <glyph glyph-name="Upsilon" unicode="&#x3a5;" horiz-adv-x="649" 
d="M248 0v273l-239 425h170l150 -278h2l144 278h165l-239 -424v-274h-153z" />
    <glyph glyph-name="Phi" unicode="&#x3a6;" horiz-adv-x="848" 
d="M347 -44v76h-10q-136 0 -216.5 87t-80.5 234q0 148 80.5 235.5t216.5 87.5h10v64h154v-64h10q136 0 216.5 -87t80.5 -234q0 -148 -80.5 -235.5t-216.5 -87.5h-10v-76h-154zM340 157h10v394h-10q-58 0 -101 -45.5t-43 -120.5v-62q0 -75 43 -120.5t101 -45.5zM498 157h10
q58 0 101 45.5t43 120.5v62q0 75 -43 120.5t-101 45.5h-10v-394z" />
    <glyph glyph-name="Chi" unicode="&#x3a7;" horiz-adv-x="673" 
d="M16 0l224 361l-213 337h177l136 -236h3l138 236h164l-215 -340l227 -358h-176l-151 257h-3l-147 -257h-164z" />
    <glyph glyph-name="Psi" unicode="&#x3a8;" horiz-adv-x="840" 
d="M343 0v176q-139 0 -208 77t-69 216v229h152v-229q0 -92 30.5 -130t94.5 -38v397h154v-397q64 0 94.5 38t30.5 130v229h152v-229q0 -139 -69 -216t-208 -77v-176h-154z" />
    <glyph glyph-name="uni03A9" unicode="&#x3a9;" horiz-adv-x="724" 
d="M50 0v134h159v10q-154 70 -154 256q0 134 82.5 222t224.5 88t224.5 -88t82.5 -222q0 -186 -154 -256v-10h159v-134h-269v205q46 13 75 54.5t29 90.5v81q0 59 -40.5 101.5t-106.5 42.5t-106.5 -42.5t-40.5 -101.5v-81q0 -49 29 -90.5t75 -54.5v-205h-269z" />
    <glyph glyph-name="Iotadieresis" unicode="&#x3aa;" horiz-adv-x="432" 
d="M106 761q-80 0 -80 63v25q0 63 80 63t80 -63v-25q0 -63 -80 -63zM326 761q-80 0 -80 63v25q0 63 80 63t80 -63v-25q0 -63 -80 -63zM50 0v121h90v456h-90v121h332v-121h-90v-456h90v-121h-332z" />
    <glyph glyph-name="Upsilondieresis" unicode="&#x3ab;" horiz-adv-x="649" 
d="M215 761q-80 0 -80 63v25q0 63 80 63t80 -63v-25q0 -63 -80 -63zM435 761q-80 0 -80 63v25q0 63 80 63t80 -63v-25q0 -63 -80 -63zM248 0v273l-239 425h170l150 -278h2l144 278h165l-239 -424v-274h-153z" />
    <glyph glyph-name="alphatonos" unicode="&#x3ac;" horiz-adv-x="667" 
d="M332 579l-95 14l35 223l133 -20zM251 -12q-97 0 -152.5 71t-55.5 203t55.5 203.5t152.5 71.5q73 0 119 -38.5t70 -121.5h4l18 71l23 77h148l-116 -259l60 -151h56v-115h-59q-59 0 -87.5 23t-40.5 81l-9 44h-3q-25 -82 -68 -121t-115 -39zM264 108q51 0 82 91l22 64
l-22 63q-31 91 -82 91q-67 0 -67 -115v-79q0 -115 67 -115z" />
    <glyph glyph-name="epsilontonos" unicode="&#x3ad;" horiz-adv-x="528" 
d="M321 579l-95 14l35 223l133 -20zM270 -12q-105 0 -167.5 43.5t-62.5 116.5q0 54 32.5 85.5t91.5 39.5v5q-111 15 -111 110q0 66 57.5 107.5t160.5 41.5q140 0 225 -82l-85 -87q-53 53 -129 53q-80 0 -80 -50v-10q0 -45 59 -45h103v-98h-116q-59 0 -59 -45v-11
q0 -58 99 -58q82 0 143 63l74 -92q-82 -87 -235 -87z" />
    <glyph glyph-name="etatonos" unicode="&#x3ae;" horiz-adv-x="610" 
d="M357 579l-95 14l35 223l133 -20zM399 -200v517q0 52 -16.5 76t-56.5 24q-39 0 -67 -20t-28 -57v-340h-148v410h-49v115h82q94 0 112 -89l1 -5h6q35 106 148 106q80 0 122 -54t42 -154v-529h-148z" />
    <glyph glyph-name="iotatonos" unicode="&#x3af;" horiz-adv-x="329" 
d="M189 579l-95 14l35 223l133 -20zM225 0q-76 0 -116 39t-40 114v372h148v-410h96v-115h-88z" />
    <glyph glyph-name="upsilondieresistonos" unicode="&#x3b0;" horiz-adv-x="582" 
d="M311 579l-63 11l35 226l101 -17zM156 605q-64 0 -64 58v24q0 59 64 59t64 -58v-24q0 -59 -64 -59zM450 605q-64 0 -64 58v24q0 59 64 59t64 -58v-24q0 -59 -64 -59zM291 -12q-232 0 -232 251v286h148v-315q0 -105 84 -105t84 105v315h148v-286q0 -251 -232 -251z" />
    <glyph glyph-name="alpha" unicode="&#x3b1;" horiz-adv-x="667" 
d="M251 -12q-97 0 -152.5 71t-55.5 203t55.5 203.5t152.5 71.5q73 0 119 -38.5t70 -121.5h4l18 71l23 77h148l-116 -259l60 -151h56v-115h-59q-59 0 -87.5 23t-40.5 81l-9 44h-3q-25 -82 -68 -121t-115 -39zM264 108q51 0 82 91l22 64l-22 63q-31 91 -82 91q-67 0 -67 -115
v-79q0 -115 67 -115z" />
    <glyph glyph-name="beta" unicode="&#x3b2;" horiz-adv-x="609" 
d="M69 -200v678q0 134 58.5 204t173.5 70q117 0 175 -53.5t58 -138.5q0 -134 -118 -171v-5q71 -9 110 -52t39 -115q0 -103 -52 -166t-148 -63q-53 0 -92.5 28t-50.5 72h-5v-288h-148zM316 105q47 0 73.5 25t26.5 70v34q0 40 -27 63t-73 23h-39v115h33q32 0 53.5 22t21.5 57
v30q0 42 -21 66.5t-63 24.5q-38 0 -61 -27.5t-23 -76.5v-346q0 -38 26.5 -59t72.5 -21z" />
    <glyph glyph-name="gamma" unicode="&#x3b3;" horiz-adv-x="540" 
d="M192 -200v200l-135 410h-49v115h52q59 0 90 -23.5t48 -83.5l35 -125l33 -148h8l41 148l76 232h140l-191 -525v-200h-148z" />
    <glyph glyph-name="delta" unicode="&#x3b4;" horiz-adv-x="564" 
d="M282 -12q-114 0 -180 73t-66 189q0 112 54 177t131 65v6l-131 102v140h391v-115h-158l-93 11v-4l105 -64q103 -63 148 -137.5t45 -167.5q0 -128 -65.5 -201.5t-180.5 -73.5zM282 105q44 0 68 27.5t24 76.5v41q0 65 -17 106.5t-65 84.5q-49 -7 -75.5 -44t-26.5 -94v-94
q0 -49 24 -76.5t68 -27.5z" />
    <glyph glyph-name="epsilon" unicode="&#x3b5;" horiz-adv-x="528" 
d="M270 -12q-105 0 -167.5 43.5t-62.5 116.5q0 54 32.5 85.5t91.5 39.5v5q-111 15 -111 110q0 66 57.5 107.5t160.5 41.5q140 0 225 -82l-85 -87q-53 53 -129 53q-80 0 -80 -50v-10q0 -45 59 -45h103v-98h-116q-59 0 -59 -45v-11q0 -58 99 -58q82 0 143 63l74 -92
q-82 -87 -235 -87z" />
    <glyph glyph-name="zeta" unicode="&#x3b6;" horiz-adv-x="438" 
d="M358 -175l-120 46l48 117l-74 20q-176 47 -176 195q0 70 25 126.5t102 149.5l127 151v5l-82 -10h-150v115h374v-116l-170 -227q-72 -96 -72 -162v-14q0 -68 76 -88l74 -20q40 -11 62 -38.5t22 -63.5q0 -25 -12 -55z" />
    <glyph glyph-name="eta" unicode="&#x3b7;" horiz-adv-x="610" 
d="M399 -200v517q0 52 -16.5 76t-56.5 24q-39 0 -67 -20t-28 -57v-340h-148v410h-49v115h82q94 0 112 -89l1 -5h6q35 106 148 106q80 0 122 -54t42 -154v-529h-148z" />
    <glyph glyph-name="theta" unicode="&#x3b8;" horiz-adv-x="576" 
d="M288 -12q-121 0 -183.5 88t-62.5 294t62.5 294t183.5 88t183.5 -88t62.5 -294t-62.5 -294t-183.5 -88zM196 428h184v52q0 88 -22 121.5t-70 33.5t-70 -33.5t-22 -121.5v-52zM288 105q48 0 70 33.5t22 121.5v53h-184v-53q0 -88 22 -121.5t70 -33.5z" />
    <glyph glyph-name="iota" unicode="&#x3b9;" horiz-adv-x="329" 
d="M225 0q-76 0 -116 39t-40 114v372h148v-410h96v-115h-88z" />
    <glyph glyph-name="kappa" unicode="&#x3ba;" horiz-adv-x="580" 
d="M69 0v525h148v-225h6l67 88l79 89q25 28 49.5 38t65.5 10h52v-115h-61l-94 -94l185 -316h-173l-110 219l-66 -66v-153h-148z" />
    <glyph glyph-name="lambda" unicode="&#x3bb;" horiz-adv-x="538" 
d="M4 0l188 525l-33 100h-86v115h89q57 0 86 -21.5t47 -76.5l172 -527h61v-115h-64q-57 0 -86 21.5t-47 76.5l-42 130l-28 124h-11l-29 -124l-77 -228h-140z" />
    <glyph glyph-name="uni03BC" unicode="&#x3bc;" horiz-adv-x="616" 
d="M69 -200v725h148v-319q0 -98 74 -98q40 0 67 21t27 56v340h148v-410h49v-115h-50q-112 0 -139 86l-3 10h-5q-23 -108 -108 -108q-58 0 -94 56h-5l38 -140v-104h-147z" />
    <glyph glyph-name="nu" unicode="&#x3bd;" horiz-adv-x="540" 
d="M178 0l-121 410h-49v115h52q59 0 90.5 -24t47.5 -85l37 -142l31 -151h8l40 151l77 251h140l-177 -525h-176z" />
    <glyph glyph-name="xi" unicode="&#x3be;" horiz-adv-x="441" 
d="M355 -175l-120 46l48 117l-70 19q-93 25 -131 74t-38 132q0 65 40 112.5t109 57.5v5q-123 21 -123 122q0 36 21 65.5t57 41.5v8h-115v115h406v-115h-131q-94 0 -94 -89v-16q0 -38 27 -61.5t73 -23.5h49v-115h-95q-32 0 -53.5 -22t-21.5 -55v-26q0 -35 17 -54.5t57 -30.5
l70 -19q40 -11 62 -38.5t22 -63.5q0 -25 -12 -55z" />
    <glyph glyph-name="omicron" unicode="&#x3bf;" horiz-adv-x="564" 
d="M282 -12q-115 0 -180.5 74t-65.5 201t65.5 200.5t180.5 73.5t180.5 -73.5t65.5 -200.5t-65.5 -201t-180.5 -74zM282 105q44 0 68 27t24 77v107q0 49 -24 76.5t-68 27.5t-68 -27.5t-24 -76.5v-107q0 -49 24 -76.5t68 -27.5z" />
    <glyph glyph-name="pi" unicode="&#x3c0;" horiz-adv-x="655" 
d="M103 0v410h-80v115h598v-115h-95v-295h66v-115h-58q-76 0 -116 39t-40 114v257h-127v-410h-148z" />
    <glyph glyph-name="rho" unicode="&#x3c1;" horiz-adv-x="577" 
d="M48 -200v463q0 274 240 274q129 0 187.5 -68.5t58.5 -205.5q0 -133 -50 -204t-145 -71q-49 0 -88 28.5t-50 71.5h-5v-288h-148zM288 105q40 0 66 29.5t26 82.5v99q0 49 -24 76.5t-68 27.5t-68 -27.5t-24 -76.5v-131q0 -37 26 -58.5t66 -21.5z" />
    <glyph glyph-name="uni03C2" unicode="&#x3c2;" horiz-adv-x="507" 
d="M380 -175l-120 46l48 117l-63 17q-114 31 -161.5 91.5t-47.5 184.5q0 114 65.5 185t179.5 71q79 0 132.5 -36t77.5 -101l-120 -52q-7 32 -30 52t-60 20q-44 0 -67.5 -29t-23.5 -80v-58q0 -94 109 -123l63 -17q40 -11 62 -38.5t22 -63.5q0 -25 -12 -55z" />
    <glyph glyph-name="sigma" unicode="&#x3c3;" horiz-adv-x="586" 
d="M282 -12q-115 0 -180.5 73t-65.5 196q0 127 65 197.5t181 70.5h282v-115h-115v-8q79 -49 79 -155q0 -116 -66 -187.5t-180 -71.5zM282 105q44 0 68 27.5t24 76.5v101q0 65 -44 100h-48q-44 0 -68 -25.5t-24 -74.5v-101q0 -49 24 -76.5t68 -27.5z" />
    <glyph glyph-name="tau" unicode="&#x3c4;" horiz-adv-x="500" 
d="M318 0q-76 0 -116 39t-40 114v257h-142v115h452v-115h-162v-295h106v-115h-98z" />
    <glyph glyph-name="upsilon" unicode="&#x3c5;" horiz-adv-x="582" 
d="M291 -12q-232 0 -232 251v286h148v-315q0 -105 84 -105t84 105v315h148v-286q0 -251 -232 -251z" />
    <glyph glyph-name="phi" unicode="&#x3c6;" horiz-adv-x="773" 
d="M311 -200v188q-124 0 -196 73t-72 204q0 201 130 272l94 -89q-70 -53 -70 -149v-74q0 -59 32 -90.5t82 -31.5v206q0 107 51 167.5t154 60.5q109 0 161.5 -62t52.5 -203q0 -137 -71.5 -210.5t-202.5 -73.5v-188h-145zM456 103q56 0 88 31t32 91v105q0 50 -14.5 71
t-45.5 21t-45.5 -21t-14.5 -71v-227z" />
    <glyph glyph-name="chi" unicode="&#x3c7;" horiz-adv-x="545" 
d="M12 -200l177 369l-104 241h-66v115h69q56 0 85 -20t47 -70l58 -156h4l97 246h156l-170 -353l106 -257h66v-115h-69q-56 0 -85 20.5t-47 69.5l-61 173h-4l-103 -263h-156z" />
    <glyph glyph-name="psi" unicode="&#x3c8;" horiz-adv-x="759" 
d="M307 -200v188q-248 0 -248 265v272h148v-303q0 -119 100 -119v607h145v-607q100 0 100 119v303h148v-272q0 -265 -248 -265v-188h-145z" />
    <glyph glyph-name="omega" unicode="&#x3c9;" horiz-adv-x="770" 
d="M234 -12q-89 0 -140 66t-51 195q0 218 130 288l94 -89q-70 -53 -70 -149v-102q0 -50 13.5 -71t43.5 -21t43.5 21t13.5 71v172h148v-172q0 -50 13.5 -71t43.5 -21t43.5 21t13.5 71v102q0 91 -70 149l94 89q67 -35 98.5 -103.5t31.5 -184.5q0 -129 -51 -195t-140 -66
q-119 0 -149 137h-4q-30 -137 -149 -137z" />
    <glyph glyph-name="iotadieresis" unicode="&#x3ca;" horiz-adv-x="329" 
d="M39 600q-80 0 -80 63v25q0 63 80 63t80 -63v-25q0 -63 -80 -63zM259 600q-80 0 -80 63v25q0 63 80 63t80 -63v-25q0 -63 -80 -63zM225 0q-76 0 -116 39t-40 114v372h148v-410h96v-115h-88z" />
    <glyph glyph-name="upsilondieresis" unicode="&#x3cb;" horiz-adv-x="582" 
d="M186 600q-80 0 -80 63v25q0 63 80 63t80 -63v-25q0 -63 -80 -63zM406 600q-80 0 -80 63v25q0 63 80 63t80 -63v-25q0 -63 -80 -63zM291 -12q-232 0 -232 251v286h148v-315q0 -105 84 -105t84 105v315h148v-286q0 -251 -232 -251z" />
    <glyph glyph-name="omicrontonos" unicode="&#x3cc;" horiz-adv-x="564" 
d="M322 579l-95 14l35 223l133 -20zM282 -12q-115 0 -180.5 74t-65.5 201t65.5 200.5t180.5 73.5t180.5 -73.5t65.5 -200.5t-65.5 -201t-180.5 -74zM282 105q44 0 68 27t24 77v107q0 49 -24 76.5t-68 27.5t-68 -27.5t-24 -76.5v-107q0 -49 24 -76.5t68 -27.5z" />
    <glyph glyph-name="upsilontonos" unicode="&#x3cd;" horiz-adv-x="582" 
d="M341 579l-95 14l35 223l133 -20zM291 -12q-232 0 -232 251v286h148v-315q0 -105 84 -105t84 105v315h148v-286q0 -251 -232 -251z" />
    <glyph glyph-name="omegatonos" unicode="&#x3ce;" horiz-adv-x="770" 
d="M428 578l-95 14l35 223l133 -20zM234 -12q-89 0 -140 66t-51 195q0 218 130 288l94 -89q-70 -53 -70 -149v-102q0 -50 13.5 -71t43.5 -21t43.5 21t13.5 71v172h148v-172q0 -50 13.5 -71t43.5 -21t43.5 21t13.5 71v102q0 91 -70 149l94 89q67 -35 98.5 -103.5t31.5 -184.5
q0 -129 -51 -195t-140 -66q-119 0 -149 137h-4q-30 -137 -149 -137z" />
    <glyph glyph-name="uni0400" unicode="&#x400;" horiz-adv-x="607" 
d="M300 740l-134 176l123 61l99 -194zM77 0v698h475v-135h-323v-143h277v-134h-277v-151h323v-135h-475z" />
    <glyph glyph-name="uni0401" unicode="&#x401;" horiz-adv-x="607" 
d="M206 761q-80 0 -80 63v25q0 63 80 63t80 -63v-25q0 -63 -80 -63zM426 761q-80 0 -80 63v25q0 63 80 63t80 -63v-25q0 -63 -80 -63zM77 0v698h475v-135h-323v-143h277v-134h-277v-151h323v-135h-475z" />
    <glyph glyph-name="uni0402" unicode="&#x402;" horiz-adv-x="807" 
d="M472 -184v141h103q26 36 26 112v126q0 119 -114 119q-75 0 -119 -18v-296h-152v563h-189v135h530v-135h-189v-140h5q53 23 128 23q252 0 252 -257v-126q0 -120 -59.5 -183.5t-169.5 -63.5h-52z" />
    <glyph glyph-name="uni0403" unicode="&#x403;" horiz-adv-x="514" 
d="M298 740l-88 43l99 194l123 -61zM77 0v698h410v-135h-258v-563h-152z" />
    <glyph glyph-name="uni0404" unicode="&#x404;" horiz-adv-x="671" 
d="M369 -12q-152 0 -235.5 90.5t-83.5 265.5q0 176 84 271t235 95q98 0 161 -38.5t108 -117.5l-127 -72q-20 47 -51 70t-91 23q-72 0 -112.5 -39.5t-45.5 -113.5v-2h231v-134h-231v-4q3 -77 43.5 -118t114.5 -41q111 0 149 100l123 -76q-79 -159 -272 -159z" />
    <glyph glyph-name="uni0405" unicode="&#x405;" horiz-adv-x="624" 
d="M303 -12q-162 0 -265 113l100 101q71 -80 175 -80q54 0 82 22.5t28 61.5q0 31 -17.5 50t-63.5 25l-69 9q-214 28 -214 208q0 95 70.5 153.5t191.5 58.5q153 0 242 -98l-101 -102q-56 66 -150 66q-101 0 -101 -68q0 -35 19 -51.5t64 -23.5l69 -11q108 -17 160 -67.5
t52 -139.5q0 -103 -72 -165t-200 -62z" />
    <glyph glyph-name="uni0406" unicode="&#x406;" horiz-adv-x="432" 
d="M50 0v121h90v456h-90v121h332v-121h-90v-456h90v-121h-332z" />
    <glyph glyph-name="uni0407" unicode="&#x407;" horiz-adv-x="432" 
d="M106 761q-80 0 -80 63v25q0 63 80 63t80 -63v-25q0 -63 -80 -63zM326 761q-80 0 -80 63v25q0 63 80 63t80 -63v-25q0 -63 -80 -63zM50 0v121h90v456h-90v121h332v-121h-90v-456h90v-121h-332z" />
    <glyph glyph-name="uni0408" unicode="&#x408;" horiz-adv-x="559" 
d="M256 -11q-100 0 -157.5 52t-73.5 144l142 28q17 -91 87 -91q35 0 57.5 22t22.5 65v367h-212v122h364v-496q0 -97 -61.5 -155t-168.5 -58z" />
    <glyph glyph-name="uni0409" unicode="&#x409;" horiz-adv-x="1047" 
d="M20 -6v141h83q34 37 50 113.5t16 227.5v222h465v-252h168q97 0 154.5 -61.5t57.5 -161.5t-57.5 -161.5t-154.5 -61.5h-320v563h-165v-108q0 -314 -90 -404q-57 -57 -155 -57h-52zM634 132h150q34 0 53.5 18t19.5 51v44q0 33 -19.5 51t-53.5 18h-150v-182z" />
    <glyph glyph-name="uni040A" unicode="&#x40a;" horiz-adv-x="1040" 
d="M77 0v698h152v-278h246v278h152v-252h168q97 0 154.5 -61.5t57.5 -161.5t-57.5 -161.5t-154.5 -61.5h-320v286h-246v-286h-152zM627 132h150q34 0 53.5 18t19.5 51v44q0 33 -19.5 51t-53.5 18h-150v-182z" />
    <glyph glyph-name="uni040B" unicode="&#x40b;" horiz-adv-x="817" 
d="M216 0v563h-189v135h530v-135h-189v-140h5q53 23 133 23q257 0 257 -257v-189h-152v195q0 119 -119 119q-80 0 -124 -18v-296h-152z" />
    <glyph glyph-name="uni040C" unicode="&#x40c;" horiz-adv-x="675" 
d="M370 740l-88 43l99 194l123 -61zM77 0v698h152v-278h101l104 195q44 83 125 83h62v-135h-62l-72 -136q-26 -49 -73 -64v-6q50 -9 77 -63l82 -159h62v-135h-79q-43 0 -70 18.5t-52 66.5l-104 201h-101v-286h-152z" />
    <glyph glyph-name="uni040D" unicode="&#x40d;" horiz-adv-x="724" 
d="M349 740l-134 176l123 61l99 -194zM77 0v698h148v-341l-16 -147h3l69 133l230 355h136v-698h-148v341l16 147h-3l-69 -133l-230 -355h-136z" />
    <glyph glyph-name="uni040E" unicode="&#x40e;" horiz-adv-x="631" 
d="M318 740q-124 0 -171 112l-21 51l115 43l32 -101q14 -7 45 -7t45 7l32 101l115 -43l-21 -51q-47 -112 -171 -112zM119 0v135h122l15 38l-244 525h160l98 -217l58 -139h3l51 140l86 216h149l-246 -600q-23 -54 -56.5 -76t-95.5 -22h-100z" />
    <glyph glyph-name="uni040F" unicode="&#x40f;" horiz-adv-x="709" 
d="M283 -150v150h-206v698h152v-563h251v563h152v-698h-206v-150h-143z" />
    <glyph glyph-name="uni0410" unicode="&#x410;" horiz-adv-x="685" 
d="M20 0l230 698h188l227 -698h-158l-50 166h-233l-50 -166h-154zM260 295h160l-78 265h-5z" />
    <glyph glyph-name="uni0411" unicode="&#x411;" horiz-adv-x="657" 
d="M77 0v698h472v-135h-320v-131h178q96 0 154 -60.5t58 -156.5q0 -94 -58 -154.5t-154 -60.5h-330zM229 132h160q34 0 53.5 18t19.5 51v30q0 33 -19.5 51t-53.5 18h-160v-168z" />
    <glyph glyph-name="uni0412" unicode="&#x412;" horiz-adv-x="667" 
d="M77 0v698h339q86 0 135 -48.5t49 -130.5q0 -75 -36 -111.5t-94 -38.5v-6q59 0 108 -41t49 -123q0 -83 -51.5 -141t-128.5 -58h-370zM229 412h151q30 0 47 17t17 47v30q0 30 -17 47t-47 17h-151v-158zM229 128h175q30 0 47.5 16.5t17.5 46.5v34q0 30 -17.5 46.5
t-47.5 16.5h-175v-160z" />
    <glyph glyph-name="uni0413" unicode="&#x413;" horiz-adv-x="514" 
d="M77 0v698h410v-135h-258v-563h-152z" />
    <glyph glyph-name="uni0414" unicode="&#x414;" horiz-adv-x="815" 
d="M17 -150v285h76q81 77 81 341v222h501v-563h113v-285h-143v150h-485v-150h-143zM265 135h258v429h-201v-109q0 -235 -57 -317v-3z" />
    <glyph glyph-name="uni0415" unicode="&#x415;" horiz-adv-x="607" 
d="M77 0v698h475v-135h-323v-143h277v-134h-277v-151h323v-135h-475z" />
    <glyph glyph-name="uni0416" unicode="&#x416;" horiz-adv-x="1006" 
d="M40 0v135h62l77 163q24 52 75 59v6q-47 13 -73 66l-65 134h-62v135h63q84 0 125 -84l94 -194h91v278h152v-278h91l94 194q41 84 125 84h62v-135h-62l-64 -134q-26 -53 -73 -66v-6q51 -7 75 -59l77 -163h62v-135h-80q-43 0 -71 19t-51 68l-94 199h-91v-286h-152v286h-91
l-94 -199q-23 -49 -51 -68t-71 -19h-80z" />
    <glyph glyph-name="uni0417" unicode="&#x417;" horiz-adv-x="608" 
d="M285 -12q-156 0 -256 103l100 101q66 -69 156 -69q59 0 90.5 21t31.5 59v8q0 39 -24 57t-75 18h-121v134h115q93 0 93 77v5q0 73 -105 73q-92 0 -149 -63l-92 96q44 48 107 75t134 27q124 0 195 -52.5t71 -142.5q0 -68 -40.5 -105t-104.5 -43v-6q65 -3 111 -43t46 -111
q0 -98 -77 -158.5t-206 -60.5z" />
    <glyph glyph-name="uni0418" unicode="&#x418;" horiz-adv-x="724" 
d="M77 0v698h148v-341l-16 -147h3l69 133l230 355h136v-698h-148v341l16 147h-3l-69 -133l-230 -355h-136z" />
    <glyph glyph-name="uni0419" unicode="&#x419;" horiz-adv-x="724" 
d="M364 740q-124 0 -171 112l-21 51l115 43l32 -101q14 -7 45 -7t45 7l32 101l115 -43l-21 -51q-47 -112 -171 -112zM77 0v698h148v-341l-16 -147h3l69 133l230 355h136v-698h-148v341l16 147h-3l-69 -133l-230 -355h-136z" />
    <glyph glyph-name="uni041A" unicode="&#x41a;" horiz-adv-x="675" 
d="M77 0v698h152v-278h101l104 195q44 83 125 83h62v-135h-62l-72 -136q-26 -49 -73 -64v-6q50 -9 77 -63l82 -159h62v-135h-79q-43 0 -70 18.5t-52 66.5l-104 201h-101v-286h-152z" />
    <glyph glyph-name="uni041B" unicode="&#x41b;" horiz-adv-x="739" 
d="M20 -6v141h83q34 37 50 113.5t16 227.5v222h493v-698h-152v563h-193v-108q0 -314 -90 -404q-57 -57 -155 -57h-52z" />
    <glyph glyph-name="uni041C" unicode="&#x41c;" horiz-adv-x="819" 
d="M77 0v698h161l171 -327h2l169 327h162v-698h-143v458h-3l-51 -102l-136 -247l-133 246l-53 110h-3v-465h-143z" />
    <glyph glyph-name="uni041D" unicode="&#x41d;" horiz-adv-x="724" 
d="M77 0v698h152v-278h266v278h152v-698h-152v286h-266v-286h-152z" />
    <glyph glyph-name="uni041E" unicode="&#x41e;" horiz-adv-x="714" 
d="M357 -12q-142 0 -224.5 93.5t-82.5 267.5t82.5 267.5t224.5 93.5t224.5 -93.5t82.5 -267.5t-82.5 -267.5t-224.5 -93.5zM357 123q69 0 107.5 45.5t38.5 128.5v104q0 83 -38.5 128.5t-107.5 45.5t-107.5 -45.5t-38.5 -128.5v-104q0 -83 38.5 -128.5t107.5 -45.5z" />
    <glyph glyph-name="uni041F" unicode="&#x41f;" horiz-adv-x="709" 
d="M77 0v698h555v-698h-152v563h-251v-563h-152z" />
    <glyph glyph-name="uni0420" unicode="&#x420;" horiz-adv-x="656" 
d="M77 0v698h330q97 0 154.5 -61.5t57.5 -161.5t-57.5 -161.5t-154.5 -61.5h-178v-252h-152zM229 384h160q34 0 53.5 18t19.5 51v44q0 33 -19.5 51t-53.5 18h-160v-182z" />
    <glyph glyph-name="uni0421" unicode="&#x421;" horiz-adv-x="651" 
d="M359 -12q-144 0 -226.5 91t-82.5 265q0 175 83 270.5t226 95.5q96 0 159.5 -40t101.5 -124l-131 -68q-30 97 -130 97q-68 0 -108 -44.5t-40 -125.5v-112q0 -81 40 -125.5t108 -44.5q101 0 139 104l124 -72q-82 -167 -263 -167z" />
    <glyph glyph-name="uni0422" unicode="&#x422;" horiz-adv-x="584" 
d="M216 0v563h-189v135h530v-135h-189v-563h-152z" />
    <glyph glyph-name="uni0423" unicode="&#x423;" horiz-adv-x="631" 
d="M119 0v135h122l15 38l-244 525h160l98 -217l58 -139h3l51 140l86 216h149l-246 -600q-23 -54 -56.5 -76t-95.5 -22h-100z" />
    <glyph glyph-name="uni0424" unicode="&#x424;" horiz-adv-x="904" 
d="M375 -44v90h-41q-131 0 -215 86t-84 215q0 130 83 216.5t216 86.5h41v90h154v-90h41q133 0 216 -86.5t83 -216.5q0 -129 -84 -215t-215 -86h-41v-90h-154zM334 171h44v354h-44q-72 0 -107.5 -40.5t-35.5 -105.5v-62q0 -66 36.5 -106t106.5 -40zM526 171h44q70 0 106.5 40
t36.5 106v62q0 65 -35.5 105.5t-107.5 40.5h-44v-354z" />
    <glyph glyph-name="uni0425" unicode="&#x425;" horiz-adv-x="673" 
d="M16 0l224 361l-213 337h177l136 -236h3l138 236h164l-215 -340l227 -358h-176l-151 257h-3l-147 -257h-164z" />
    <glyph glyph-name="uni0426" unicode="&#x426;" horiz-adv-x="772" 
d="M602 -150v150h-525v698h152v-563h251v563h152v-563h113v-285h-143z" />
    <glyph glyph-name="uni0427" unicode="&#x427;" horiz-adv-x="678" 
d="M449 0v247h-5q-53 -23 -133 -23q-257 0 -257 257v217h152v-223q0 -119 119 -119q81 0 124 18v324h152v-698h-152z" />
    <glyph glyph-name="uni0428" unicode="&#x428;" horiz-adv-x="1030" 
d="M77 0v698h152v-563h211v563h152v-563h209v563h152v-698h-876z" />
    <glyph glyph-name="uni0429" unicode="&#x429;" horiz-adv-x="1093" 
d="M923 -150v150h-846v698h152v-563h210v563h152v-563h210v563h152v-563h113v-285h-143z" />
    <glyph glyph-name="uni042A" unicode="&#x42a;" horiz-adv-x="758" 
d="M173 0v563h-151v135h303v-252h188q97 0 154.5 -61.5t57.5 -161.5t-57.5 -161.5t-154.5 -61.5h-340zM325 132h170q34 0 53.5 18t19.5 51v44q0 33 -19.5 51t-53.5 18h-170v-182z" />
    <glyph glyph-name="uni042B" unicode="&#x42b;" horiz-adv-x="933" 
d="M77 0v698h152v-252h178q97 0 154.5 -61.5t57.5 -161.5t-57.5 -161.5t-154.5 -61.5h-330zM704 0v698h152v-698h-152zM229 132h160q34 0 53.5 18t19.5 51v44q0 33 -19.5 51t-53.5 18h-160v-182z" />
    <glyph glyph-name="uni042C" unicode="&#x42c;" horiz-adv-x="662" 
d="M77 0v698h152v-252h188q97 0 154.5 -61.5t57.5 -161.5t-57.5 -161.5t-154.5 -61.5h-340zM229 132h170q34 0 53.5 18t19.5 51v44q0 33 -19.5 51t-53.5 18h-170v-182z" />
    <glyph glyph-name="uni042D" unicode="&#x42d;" horiz-adv-x="671" 
d="M303 -12q-193 0 -273 159l124 76q38 -100 149 -100q73 0 115 40.5t42 114.5v8h-231v134h231v3q-1 72 -43 112t-114 40q-60 0 -91 -23t-51 -70l-127 72q45 79 108 117.5t161 38.5q151 0 234.5 -91t83.5 -265q0 -176 -84 -271t-234 -95z" />
    <glyph glyph-name="uni042E" unicode="&#x42e;" horiz-adv-x="1016" 
d="M659 -12q-129 0 -209 76.5t-96 221.5h-125v-286h-152v698h152v-278h127q15 140 96 215t207 75q142 0 224.5 -93.5t82.5 -267.5t-82.5 -267.5t-224.5 -93.5zM659 123q69 0 107.5 45.5t38.5 128.5v104q0 83 -38.5 128.5t-107.5 45.5t-107.5 -45.5t-38.5 -128.5v-104
q0 -83 38.5 -128.5t107.5 -45.5z" />
    <glyph glyph-name="uni042F" unicode="&#x42f;" horiz-adv-x="678" 
d="M42 0v135h62l57 89q25 39 68 46v6q-77 8 -123.5 61t-46.5 138q0 100 57.5 161.5t153.5 61.5h331v-698h-152v256h-92l-117 -183q-27 -43 -54 -58t-70 -15h-74zM289 384h160v182h-160q-34 0 -53.5 -18t-19.5 -51v-43q0 -34 19.5 -52t53.5 -18z" />
    <glyph glyph-name="uni0430" unicode="&#x430;" horiz-adv-x="569" 
d="M197 -12q-77 0 -120 41.5t-43 111.5q0 81 59 122.5t166 41.5h83v33q0 83 -87 83q-68 0 -113 -62l-88 78q68 100 212 100q110 0 167 -49t57 -143v-230h49v-115h-82q-36 0 -62 21.5t-35 57.5l-3 13h-6q-12 -50 -52.5 -77t-101.5 -27zM252 91q40 0 65 17t25 51v62h-72
q-87 0 -87 -59v-15q0 -56 69 -56z" />
    <glyph glyph-name="uni0431" unicode="&#x431;" horiz-adv-x="567" 
d="M286 -12q-246 0 -246 337q0 199 68.5 297t217.5 113l170 17v-142l-171 -17q-73 -7 -100.5 -46t-30.5 -140h5q33 103 137 103q85 0 140 -67t55 -180q0 -128 -65 -201.5t-180 -73.5zM286 105q44 0 68 27.5t24 76.5v80q0 49 -24 76.5t-68 27.5t-68 -27.5t-24 -76.5v-80
q0 -49 24 -76.5t68 -27.5z" />
    <glyph glyph-name="uni0432" unicode="&#x432;" horiz-adv-x="576" 
d="M69 0v525h299q71 0 109.5 -36t38.5 -96q0 -100 -111 -115v-5q131 -12 131 -121q0 -70 -44 -111t-122 -41h-301zM213 309h112q19 0 30.5 11.5t11.5 30.5v27q0 20 -11.5 31t-30.5 11h-112v-111zM213 105h130q44 0 44 42v31q0 20 -12 31.5t-32 11.5h-130v-116z" />
    <glyph glyph-name="uni0433" unicode="&#x433;" horiz-adv-x="444" 
d="M69 0v525h355v-115h-207v-410h-148z" />
    <glyph glyph-name="uni0434" unicode="&#x434;" horiz-adv-x="658" 
d="M10 -140v255h69q52 74 52 261v149h422v-410h90v-255h-134v140h-365v-140h-134zM234 115h171v295h-132v-42q0 -186 -39 -253z" />
    <glyph glyph-name="uni0435" unicode="&#x435;" horiz-adv-x="562" 
d="M288 -12q-119 0 -185.5 74t-66.5 201q0 126 64.5 200t181.5 74q123 0 183.5 -76t60.5 -192v-44h-337v-8q0 -53 29 -83t87 -30q42 0 70.5 16t58.5 47l74 -92q-76 -87 -220 -87zM189 312h184v9q0 49 -22.5 78t-65.5 29q-44 0 -70 -29.5t-26 -78.5v-8z" />
    <glyph glyph-name="uni0436" unicode="&#x436;" horiz-adv-x="866" 
d="M40 0v115h54l55 108q20 37 58 45v5q-37 9 -56 47l-45 90h-54v115h61q42 0 69 -17t47 -57l64 -127h66v201h148v-201h66l64 127q20 40 47 57t69 17h61v-115h-54l-45 -90q-19 -38 -56 -47v-5q38 -8 58 -45l55 -108h54v-115h-67q-42 0 -69 17t-48 58l-69 134h-66v-209h-148
v209h-66l-69 -134q-21 -41 -48 -58t-69 -17h-67z" />
    <glyph glyph-name="uni0437" unicode="&#x437;" horiz-adv-x="531" 
d="M252 -12q-138 0 -229 94l87 88q58 -66 143 -66q89 0 89 58v11q0 45 -59 45h-116v98h103q59 0 59 45v10q0 50 -80 50q-85 0 -127 -62l-88 78q81 100 226 100q106 0 162 -39.5t56 -104.5q0 -100 -111 -115v-5q58 -6 91 -37t33 -80q0 -79 -63.5 -123.5t-175.5 -44.5z" />
    <glyph glyph-name="uni0438" unicode="&#x438;" horiz-adv-x="612" 
d="M69 0v525h145v-211l-13 -122h3l61 112l146 221h132v-525h-145v211l13 122h-3l-61 -112l-146 -221h-132z" />
    <glyph glyph-name="uni0439" unicode="&#x439;" horiz-adv-x="612" 
d="M307 579q-124 0 -171 112l-21 51l115 43l32 -101q14 -7 45 -7t45 7l32 101l115 -43l-21 -51q-47 -112 -171 -112zM69 0v525h145v-211l-13 -122h3l61 112l146 221h132v-525h-145v211l13 122h-3l-61 -112l-146 -221h-132z" />
    <glyph glyph-name="uni043A" unicode="&#x43a;" horiz-adv-x="591" 
d="M69 0v525h148v-201h76l69 128q21 39 47.5 56t68.5 17h61v-115h-53l-45 -84q-23 -44 -59 -53v-5q37 -8 58 -46l59 -107h54v-115h-69q-42 0 -68 17t-49 58l-74 134h-76v-209h-148z" />
    <glyph glyph-name="uni043B" unicode="&#x43b;" horiz-adv-x="611" 
d="M15 -6v121h68q42 58 42 244v166h417v-525h-148v410h-127v-59q0 -240 -73 -313q-44 -44 -134 -44h-45z" />
    <glyph glyph-name="uni043C" unicode="&#x43c;" horiz-adv-x="726" 
d="M69 0v525h160l132 -215h4l132 215h160v-525h-144v341h-3l-40 -73l-107 -174l-107 174l-40 73h-3v-341h-144z" />
    <glyph glyph-name="uni043D" unicode="&#x43d;" horiz-adv-x="612" 
d="M69 0v525h148v-201h178v201h148v-525h-148v209h-178v-209h-148z" />
    <glyph glyph-name="uni043E" unicode="&#x43e;" horiz-adv-x="564" 
d="M282 -12q-115 0 -180.5 74t-65.5 201t65.5 200.5t180.5 73.5t180.5 -73.5t65.5 -200.5t-65.5 -201t-180.5 -74zM282 105q44 0 68 27.5t24 76.5v107q0 49 -24 76.5t-68 27.5t-68 -27.5t-24 -76.5v-107q0 -49 24 -76.5t68 -27.5z" />
    <glyph glyph-name="uni043F" unicode="&#x43f;" horiz-adv-x="597" 
d="M69 0v525h459v-525h-148v410h-163v-410h-148z" />
    <glyph glyph-name="uni0440" unicode="&#x440;" horiz-adv-x="608" 
d="M69 -200v725h148v-88h5q11 44 50.5 72t90.5 28q99 0 150.5 -70t51.5 -204t-51.5 -204.5t-150.5 -70.5q-51 0 -90.5 28.5t-50.5 71.5h-5v-288h-148zM314 108q42 0 69.5 30t27.5 79v91q0 49 -27.5 79t-69.5 30q-43 0 -70 -21t-27 -56v-155q0 -35 27 -56t70 -21z" />
    <glyph glyph-name="uni0441" unicode="&#x441;" horiz-adv-x="517" 
d="M281 -12q-117 0 -181 73.5t-64 201.5t64 201t181 73q79 0 132.5 -36t77.5 -101l-120 -52q-7 32 -30 52t-60 20q-44 0 -67.5 -29t-23.5 -80v-98q0 -50 23.5 -79t67.5 -29q70 0 98 78l115 -50q-51 -145 -213 -145z" />
    <glyph glyph-name="uni0442" unicode="&#x442;" horiz-adv-x="492" 
d="M172 0v410h-152v115h452v-115h-152v-410h-148z" />
    <glyph glyph-name="uni0443" unicode="&#x443;" horiz-adv-x="534" 
d="M73 -200v115h99l18 58l-184 552h147l77 -245l38 -152h6l39 152l77 245h138l-202 -606q-21 -62 -58 -90.5t-103 -28.5h-92z" />
    <glyph glyph-name="uni0444" unicode="&#x444;" horiz-adv-x="804" 
d="M328 -200v256h-5q-35 -68 -115 -68q-88 0 -128 64t-40 210t40 210.5t128 64.5q78 0 115 -70h5v243h148v-243h5q37 70 115 70q88 0 128 -64.5t40 -210.5t-40 -210t-128 -64q-80 0 -115 68h-5v-256h-148zM267 94q61 0 61 58v221q0 58 -61 58q-40 0 -57.5 -28t-17.5 -89
v-103q0 -61 17.5 -89t57.5 -28zM537 94q40 0 57.5 28t17.5 89v103q0 61 -17.5 89t-57.5 28q-61 0 -61 -58v-221q0 -58 61 -58z" />
    <glyph glyph-name="uni0445" unicode="&#x445;" horiz-adv-x="560" 
d="M18 0l173 267l-171 258h168l98 -165h4l95 165h156l-174 -263l175 -262h-168l-101 171h-4l-97 -171h-154z" />
    <glyph glyph-name="uni0446" unicode="&#x446;" horiz-adv-x="633" 
d="M484 -140v140h-415v525h148v-410h163v410h148v-410h90v-255h-134z" />
    <glyph glyph-name="uni0447" unicode="&#x447;" horiz-adv-x="578" 
d="M361 0v223h-5q-39 -69 -136 -69q-88 0 -129 46t-41 141v184h148v-177q0 -39 18.5 -56.5t60.5 -17.5q41 0 62.5 15t21.5 38v198h148v-525h-148z" />
    <glyph glyph-name="uni0448" unicode="&#x448;" horiz-adv-x="844" 
d="M69 0v525h148v-410h131v410h148v-410h131v410h148v-525h-706z" />
    <glyph glyph-name="uni0449" unicode="&#x449;" horiz-adv-x="880" 
d="M731 -140v140h-662v525h148v-410h131v410h148v-410h131v410h148v-410h90v-255h-134z" />
    <glyph glyph-name="uni044A" unicode="&#x44a;" horiz-adv-x="639" 
d="M147 0v410h-127v115h275v-156h138q79 0 130 -48.5t51 -135.5t-51 -136t-130 -49h-286zM295 105h106q30 0 47 15.5t17 44.5v39q0 29 -17 44.5t-47 15.5h-106v-159z" />
    <glyph glyph-name="uni044B" unicode="&#x44b;" horiz-adv-x="809" 
d="M69 0v525h148v-156h127q79 0 130 -48.5t51 -135.5t-51 -136t-130 -49h-275zM592 0v525h148v-525h-148zM217 105h95q30 0 47 15.5t17 44.5v39q0 29 -17 44.5t-47 15.5h-95v-159z" />
    <glyph glyph-name="uni044C" unicode="&#x44c;" horiz-adv-x="561" 
d="M69 0v525h148v-156h138q79 0 130 -48.5t51 -135.5t-51 -136t-130 -49h-286zM217 105h106q30 0 47 15.5t17 44.5v39q0 29 -17 44.5t-47 15.5h-106v-159z" />
    <glyph glyph-name="uni044D" unicode="&#x44d;" horiz-adv-x="535" 
d="M244 -12q-84 0 -133.5 30.5t-87.5 101.5l113 59q15 -39 40.5 -57t67.5 -18q101 0 101 109v5h-164v98h164v3q0 46 -25.5 74t-72.5 28q-45 0 -68.5 -17t-34.5 -52l-118 61q62 124 221 124q123 0 187.5 -72.5t64.5 -201.5q0 -128 -65.5 -201.5t-189.5 -73.5z" />
    <glyph glyph-name="uni044E" unicode="&#x44e;" horiz-adv-x="822" 
d="M545 -12q-102 0 -163.5 58t-74.5 163h-90v-209h-148v525h148v-201h91q14 101 75.5 157t161.5 56q115 0 178 -73t63 -201t-63.5 -201.5t-177.5 -73.5zM545 105q87 0 87 104v107q0 104 -87 104t-87 -104v-107q0 -104 87 -104z" />
    <glyph glyph-name="uni044F" unicode="&#x44f;" horiz-adv-x="585" 
d="M43 0v115h56l24 47q18 37 55 40v5q-60 8 -94.5 44t-34.5 99q0 80 51.5 127.5t129.5 47.5h286v-525h-148v183h-81l-55 -108q-21 -41 -48.5 -58t-69.5 -17h-71zM262 288h106v132h-106q-30 0 -47 -15.5t-17 -44.5v-17q0 -24 17.5 -39.5t46.5 -15.5z" />
    <glyph glyph-name="uni0450" unicode="&#x450;" horiz-adv-x="562" 
d="M271 579l-134 176l123 61l99 -194zM288 -12q-119 0 -185.5 74t-66.5 201q0 126 64.5 200t181.5 74q123 0 183.5 -76t60.5 -192v-44h-337v-8q0 -53 29 -83t87 -30q42 0 70.5 16t58.5 47l74 -92q-76 -87 -220 -87zM189 312h184v9q0 49 -22.5 78t-65.5 29q-44 0 -70 -29.5
t-26 -78.5v-8z" />
    <glyph glyph-name="uni0451" unicode="&#x451;" horiz-adv-x="562" 
d="M177 600q-80 0 -80 63v25q0 63 80 63t80 -63v-25q0 -63 -80 -63zM397 600q-80 0 -80 63v25q0 63 80 63t80 -63v-25q0 -63 -80 -63zM288 -12q-119 0 -185.5 74t-66.5 201q0 126 64.5 200t181.5 74q123 0 183.5 -76t60.5 -192v-44h-337v-8q0 -53 29 -83t87 -30
q42 0 70.5 16t58.5 47l74 -92q-76 -87 -220 -87zM189 312h184v9q0 49 -22.5 78t-65.5 29q-44 0 -70 -29.5t-26 -78.5v-8z" />
    <glyph glyph-name="uni0452" unicode="&#x452;" horiz-adv-x="602" 
d="M307 -200v115h78v402q0 52 -16.5 76t-56.5 24q-39 0 -67 -20t-28 -57v-340h-148v590h-62v100h62v50h148v-50h140v-100h-140v-154h6q35 101 146 101q80 0 122 -54t42 -154v-385q0 -144 -148 -144h-78z" />
    <glyph glyph-name="uni0453" unicode="&#x453;" horiz-adv-x="444" 
d="M254 579l-88 43l99 194l123 -61zM69 0v525h355v-115h-207v-410h-148z" />
    <glyph glyph-name="uni0454" unicode="&#x454;" horiz-adv-x="535" 
d="M291 -12q-124 0 -189.5 73.5t-65.5 201.5t65 201t187 73q87 0 139 -31.5t82 -92.5l-118 -61q-11 35 -34.5 52t-68.5 17q-47 0 -71.5 -27.5t-26.5 -75.5v-2h164v-98h-164v-5q0 -109 101 -109q42 0 67.5 18t40.5 57l113 -59q-38 -71 -87.5 -101.5t-133.5 -30.5z" />
    <glyph glyph-name="uni0455" unicode="&#x455;" horiz-adv-x="504" 
d="M247 -12q-136 0 -221 94l87 88q60 -67 139 -67q78 0 78 50q0 37 -53 44l-57 7q-177 22 -177 162q0 76 55.5 123.5t148.5 47.5q78 0 124 -19.5t90 -62.5l-85 -87q-54 54 -121 54q-70 0 -70 -44q0 -22 12 -33.5t43 -15.5l59 -8q173 -23 173 -158q0 -76 -62.5 -125.5
t-162.5 -49.5z" />
    <glyph glyph-name="uni0456" unicode="&#x456;" horiz-adv-x="286" 
d="M143 581q-43 0 -64.5 20t-21.5 53v22q0 33 21.5 53t64.5 20t64.5 -20t21.5 -53v-22q0 -33 -21.5 -53t-64.5 -20zM69 0v525h148v-525h-148z" />
    <glyph glyph-name="uni0457" unicode="&#x457;" horiz-adv-x="286" 
d="M33 600q-80 0 -80 63v25q0 63 80 63t80 -63v-25q0 -63 -80 -63zM253 600q-80 0 -80 63v25q0 63 80 63t80 -63v-25q0 -63 -80 -63zM69 0v525h148v-525h-148z" />
    <glyph glyph-name="uni0458" unicode="&#x458;" horiz-adv-x="286" 
d="M143 581q-43 0 -64.5 20t-21.5 53v22q0 33 21.5 53t64.5 20t64.5 -20t21.5 -53v-22q0 -33 -21.5 -53t-64.5 -20zM-9 -200v115h78v610h148v-581q0 -144 -148 -144h-78z" />
    <glyph glyph-name="uni0459" unicode="&#x459;" horiz-adv-x="863" 
d="M15 -6v121h68q42 58 42 244v166h405v-156h127q79 0 130 -48.5t51 -135.5t-51 -136t-130 -49h-275v410h-115v-59q0 -240 -73 -313q-44 -44 -134 -44h-45zM530 105h95q30 0 47 15.5t17 44.5v39q0 29 -17 44.5t-47 15.5h-95v-159z" />
    <glyph glyph-name="uni045A" unicode="&#x45a;" horiz-adv-x="869" 
d="M69 0v525h148v-201h171v201h148v-156h127q79 0 130 -48.5t51 -135.5t-51 -136t-130 -49h-275v209h-171v-209h-148zM536 105h95q30 0 47 15.5t17 44.5v39q0 29 -17 44.5t-47 15.5h-95v-159z" />
    <glyph glyph-name="uni045B" unicode="&#x45b;" horiz-adv-x="596" 
d="M69 0v590h-62v100h62v50h148v-50h140v-100h-140v-154h6q35 101 146 101q80 0 122 -54t42 -154v-329h-148v317q0 52 -16.5 76t-56.5 24q-39 0 -67 -20t-28 -57v-340h-148z" />
    <glyph glyph-name="uni045C" unicode="&#x45c;" horiz-adv-x="591" 
d="M318 579l-88 43l99 194l123 -61zM69 0v525h148v-201h76l69 128q21 39 47.5 56t68.5 17h61v-115h-53l-45 -84q-23 -44 -59 -53v-5q37 -8 58 -46l59 -107h54v-115h-69q-42 0 -68 17t-49 58l-74 134h-76v-209h-148z" />
    <glyph glyph-name="uni045D" unicode="&#x45d;" horiz-adv-x="612" 
d="M291 579l-134 176l123 61l99 -194zM69 0v525h145v-211l-13 -122h3l61 112l146 221h132v-525h-145v211l13 122h-3l-61 -112l-146 -221h-132z" />
    <glyph glyph-name="uni045E" unicode="&#x45e;" horiz-adv-x="534" 
d="M270 579q-124 0 -171 112l-21 51l115 43l32 -101q14 -7 45 -7t45 7l32 101l115 -43l-21 -51q-47 -112 -171 -112zM73 -200v115h99l18 58l-184 552h147l77 -245l38 -152h6l39 152l77 245h138l-202 -606q-21 -62 -58 -90.5t-103 -28.5h-92z" />
    <glyph glyph-name="uni045F" unicode="&#x45f;" horiz-adv-x="598" 
d="M232 -140v140h-163v525h148v-410h164v410h148v-525h-163v-140h-134z" />
    <glyph glyph-name="uni0472" unicode="&#x472;" horiz-adv-x="714" 
d="M357 -12q-142 0 -224.5 93.5t-82.5 267.5t82.5 267.5t224.5 93.5t224.5 -93.5t82.5 -267.5t-82.5 -267.5t-224.5 -93.5zM201 419h312l-1 14q-7 73 -47.5 112.5t-107.5 39.5t-108 -39.5t-47 -114.5zM357 113q67 0 108 40.5t47 116.5l1 15h-312l1 -17q6 -75 47 -115
t108 -40z" />
    <glyph glyph-name="uni0473" unicode="&#x473;" horiz-adv-x="564" 
d="M282 -12q-115 0 -180.5 74t-65.5 201t65.5 200.5t180.5 73.5t180.5 -73.5t65.5 -200.5t-65.5 -201t-180.5 -74zM180 313h204v7q0 53 -27 81.5t-75 28.5t-75 -28.5t-27 -81.5v-7zM282 95q48 0 75 28.5t27 81.5v10h-204v-10q0 -53 27 -81.5t75 -28.5z" />
    <glyph glyph-name="uni0490" unicode="&#x490;" horiz-adv-x="514" 
d="M77 0v698h267v150h143v-285h-258v-563h-152z" />
    <glyph glyph-name="uni0491" unicode="&#x491;" horiz-adv-x="444" 
d="M69 0v525h221v140h134v-255h-207v-410h-148z" />
    <glyph glyph-name="uni0492" unicode="&#x492;" horiz-adv-x="545" 
d="M108 0v282h-86v114h86v302h410v-135h-258v-167h172v-114h-172v-282h-152z" />
    <glyph glyph-name="uni0493" unicode="&#x493;" horiz-adv-x="461" 
d="M86 0v205h-64v98h64v222h355v-115h-207v-107h123v-98h-123v-205h-148z" />
    <glyph glyph-name="uni0494" unicode="&#x494;" horiz-adv-x="668" 
d="M323 -184v141h103q36 39 36 124v64q0 119 -114 119q-76 0 -119 -18v-246h-152v698h410v-135h-258v-190h5q53 23 128 23q252 0 252 -257v-65q0 -129 -63.5 -193.5t-175.5 -64.5h-52z" />
    <glyph glyph-name="uni0495" unicode="&#x495;" horiz-adv-x="574" 
d="M273 -200v115h84q23 26 23 96v95q0 49 -18 67.5t-61 18.5q-41 0 -62.5 -15t-21.5 -38v-139h-148v525h355v-115h-207v-167h5q39 69 136 69q89 0 129.5 -47t40.5 -152v-114q0 -103 -46.5 -151t-143.5 -48h-65z" />
    <glyph glyph-name="uni0496" unicode="&#x496;" horiz-adv-x="1029" 
d="M874 -150v150l-12 1q-61 4 -98 86l-94 199h-91v-286h-152v286h-91l-94 -199q-23 -49 -51 -68t-71 -19h-80v135h62l77 163q24 52 75 59v6q-47 13 -73 66l-65 134h-62v135h63q84 0 125 -84l94 -194h91v278h152v-278h91l94 194q41 84 125 84h62v-135h-62l-64 -134
q-26 -53 -73 -66v-6q51 -7 75 -59l77 -163h113v-285h-143z" />
    <glyph glyph-name="uni0497" unicode="&#x497;" horiz-adv-x="874" 
d="M728 -140v142l-5 1q-51 11 -81 72l-69 134h-66v-209h-148v209h-66l-69 -134q-21 -41 -48 -58t-69 -17h-67v115h54l55 108q20 37 58 45v5q-37 9 -56 47l-45 90h-54v115h61q42 0 69 -17t47 -57l64 -127h66v201h148v-201h66l64 127q20 40 47 57t69 17h61v-115h-54l-45 -90
q-19 -38 -56 -47v-5q38 -8 58 -45l55 -108h90v-255h-134z" />
    <glyph glyph-name="uni0498" unicode="&#x498;" horiz-adv-x="608" 
d="M214 -150v144q-109 18 -185 97l100 101q66 -69 156 -69q59 0 90.5 21t31.5 59v8q0 39 -24 57t-75 18h-121v134h115q93 0 93 77v5q0 73 -105 73q-92 0 -149 -63l-92 96q44 48 107 75t134 27q124 0 195 -52.5t71 -142.5q0 -68 -40.5 -105t-104.5 -43v-6q65 -3 111 -43
t46 -111q0 -83 -56.5 -140t-154.5 -73v-144h-143z" />
    <glyph glyph-name="uni0499" unicode="&#x499;" horiz-adv-x="531" 
d="M186 -140v134q-93 15 -163 88l87 88q58 -66 143 -66q89 0 89 58v11q0 45 -59 45h-116v98h103q59 0 59 45v10q0 50 -80 50q-85 0 -127 -62l-88 78q81 100 226 100q106 0 162 -39.5t56 -104.5q0 -100 -111 -115v-5q58 -6 91 -37t33 -80q0 -66 -45 -108.5t-126 -54.5v-133
h-134z" />
    <glyph glyph-name="uni049A" unicode="&#x49a;" horiz-adv-x="698" 
d="M543 -150v150l-9 1q-32 4 -55 23t-45 61l-104 201h-101v-286h-152v698h152v-278h101l104 195q42 83 125 83h62v-135h-62l-72 -136q-26 -49 -73 -64v-6q50 -9 77 -63l82 -159h113v-285h-143z" />
    <glyph glyph-name="uni049B" unicode="&#x49b;" horiz-adv-x="601" 
d="M455 -140v142l-8 1q-44 5 -80 72l-74 134h-76v-209h-148v525h148v-201h76l69 128q21 39 47.5 56t68.5 17h61v-115h-53l-45 -84q-23 -44 -59 -53v-5q37 -8 58 -46l59 -107h90v-255h-134z" />
    <glyph glyph-name="uni049C" unicode="&#x49c;" horiz-adv-x="755" 
d="M77 0v698h152v-278h42v133h114v-133h35l94 195q44 83 125 83h62v-135h-62l-63 -132q-24 -51 -72 -68v-6q52 -12 77 -67l72 -155h62v-135h-79q-44 0 -72 18.5t-50 66.5l-94 201h-35v-133h-114v133h-42v-286h-152z" />
    <glyph glyph-name="uni049D" unicode="&#x49d;" horiz-adv-x="671" 
d="M69 0v525h148v-201h41v114h94v-114h31l55 116q21 45 48.5 65t71.5 20h61v-115h-53l-40 -84q-21 -44 -54 -53v-5q38 -9 55 -46l52 -107h54v-115h-69q-43 0 -70.5 19t-47.5 60l-63 130h-31v-114h-94v114h-41v-209h-148z" />
    <glyph glyph-name="uni04A0" unicode="&#x4a0;" horiz-adv-x="771" 
d="M173 0v563h-151v135h303v-278h101l104 195q42 83 125 83h62v-135h-62l-72 -136q-26 -49 -73 -64v-6q50 -9 77 -63l82 -159h62v-135h-79q-43 0 -70 18.5t-52 66.5l-104 201h-101v-286h-152z" />
    <glyph glyph-name="uni04A1" unicode="&#x4a1;" horiz-adv-x="669" 
d="M147 0v410h-127v115h275v-201h76l69 128q21 39 47.5 56t68.5 17h61v-115h-53l-45 -84q-23 -44 -59 -53v-5q37 -8 58 -46l59 -107h54v-115h-69q-42 0 -68 17t-49 58l-74 134h-76v-209h-148z" />
    <glyph glyph-name="uni04A2" unicode="&#x4a2;" horiz-adv-x="787" 
d="M617 -150v150h-122v286h-266v-286h-152v698h152v-278h266v278h152v-563h113v-285h-143z" />
    <glyph glyph-name="uni04A3" unicode="&#x4a3;" horiz-adv-x="648" 
d="M499 -140v140h-104v209h-178v-209h-148v525h148v-201h178v201h148v-410h90v-255h-134z" />
    <glyph glyph-name="uni04A4" unicode="&#x4a4;" horiz-adv-x="912" 
d="M77 0v698h152v-278h246v278h410v-135h-258v-563h-152v286h-246v-286h-152z" />
    <glyph glyph-name="uni04A5" unicode="&#x4a5;" horiz-adv-x="763" 
d="M69 0v525h148v-201h171v201h355v-115h-207v-410h-148v209h-171v-209h-148z" />
    <glyph glyph-name="uni04AA" unicode="&#x4aa;" horiz-adv-x="651" 
d="M288 -150v144q-113 21 -175.5 110t-62.5 240q0 175 83 270.5t226 95.5q96 0 159.5 -40t101.5 -124l-131 -68q-30 97 -130 97q-68 0 -108 -44.5t-40 -125.5v-112q0 -81 40 -125.5t108 -44.5q101 0 139 104l124 -72q-66 -133 -191 -160v-145h-143z" />
    <glyph glyph-name="uni04AB" unicode="&#x4ab;" horiz-adv-x="517" 
d="M214 -140v135q-86 19 -132 89.5t-46 178.5q0 128 64 201t181 73q79 0 132.5 -36t77.5 -101l-120 -52q-7 32 -30 52t-60 20q-44 0 -67.5 -29t-23.5 -80v-98q0 -51 23.5 -80t67.5 -29q70 0 98 79l115 -50q-39 -112 -146 -137v-136h-134z" />
    <glyph glyph-name="uni04AE" unicode="&#x4ae;" horiz-adv-x="649" 
d="M248 0v273l-239 425h170l150 -278h2l144 278h165l-239 -424v-274h-153z" />
    <glyph glyph-name="uni04AF" unicode="&#x4af;" horiz-adv-x="538" 
d="M195 -200v200l-186 525h146l69 -212l45 -168h8l46 168l66 212h140l-186 -525v-200h-148z" />
    <glyph glyph-name="uni04B0" unicode="&#x4b0;" horiz-adv-x="649" 
d="M248 0v159h-139v114h139l-239 425h170l150 -278h2l144 278h165l-239 -425h138v-114h-138v-159h-153z" />
    <glyph glyph-name="uni04B1" unicode="&#x4b1;" horiz-adv-x="538" 
d="M195 -200v102h-120v98h120l-186 525h146l69 -212l45 -168h8l46 168l66 212h140l-186 -525h120v-98h-120v-102h-148z" />
    <glyph glyph-name="uni04B2" unicode="&#x4b2;" horiz-adv-x="695" 
d="M541 -150v150h-60l-151 257h-3l-147 -257h-164l224 361l-213 337h177l136 -236h3l138 236h164l-215 -340l141 -223h113v-285h-143z" />
    <glyph glyph-name="uni04B3" unicode="&#x4b3;" horiz-adv-x="573" 
d="M431 -140v140h-57l-101 171h-4l-97 -171h-154l173 267l-171 258h168l98 -165h4l95 165h156l-174 -263l98 -147h100v-255h-134z" />
    <glyph glyph-name="uni04B6" unicode="&#x4b6;" horiz-adv-x="741" 
d="M571 -150v150h-122v247h-5q-53 -23 -133 -23q-257 0 -257 257v217h152v-223q0 -119 119 -119q81 0 124 18v324h152v-563h113v-285h-143z" />
    <glyph glyph-name="uni04B7" unicode="&#x4b7;" horiz-adv-x="614" 
d="M465 -140v140h-104v223h-5q-39 -69 -136 -69q-88 0 -129 46t-41 141v184h148v-177q0 -39 18.5 -56.5t60.5 -17.5q41 0 62.5 15t21.5 38v198h148v-410h90v-255h-134z" />
    <glyph glyph-name="uni04B8" unicode="&#x4b8;" horiz-adv-x="698" 
d="M469 0v247h-5q-28 -12 -65 -18v-125h-114v121q-231 13 -231 256v217h152v-223q0 -97 79 -115v144h114v-146q38 3 70 16v324h152v-698h-152z" />
    <glyph glyph-name="uni04B9" unicode="&#x4b9;" horiz-adv-x="598" 
d="M381 0v206h-5q-17 -27 -40 -41v-92h-94v81q-100 0 -146 46t-46 141v184h148v-177q0 -57 44 -69v137h94v-137q18 2 31.5 14.5t13.5 28.5v203h148v-525h-148z" />
    <glyph glyph-name="uni04BA" unicode="&#x4ba;" horiz-adv-x="678" 
d="M77 0v698h152v-247h5q53 23 133 23q257 0 257 -257v-217h-152v223q0 119 -119 119q-81 0 -124 -18v-324h-152z" />
    <glyph glyph-name="uni04BB" unicode="&#x4bb;" horiz-adv-x="596" 
d="M69 0v740h148v-304h6q35 101 146 101q80 0 122 -54t42 -154v-329h-148v317q0 52 -16.5 76t-56.5 24q-39 0 -67 -20t-28 -57v-340h-148z" />
    <glyph glyph-name="uni04C0" unicode="&#x4c0;" horiz-adv-x="432" 
d="M50 0v121h90v456h-90v121h332v-121h-90v-456h90v-121h-332z" />
    <glyph glyph-name="uni04C1" unicode="&#x4c1;" horiz-adv-x="1006" 
d="M502 740q-124 0 -171 112l-21 51l115 43l32 -101q14 -7 45 -7t45 7l32 101l115 -43l-21 -51q-47 -112 -171 -112zM40 0v135h62l77 163q24 52 75 59v6q-47 13 -73 66l-65 134h-62v135h63q84 0 125 -84l94 -194h91v278h152v-278h91l94 194q41 84 125 84h62v-135h-62
l-64 -134q-26 -53 -73 -66v-6q51 -7 75 -59l77 -163h62v-135h-80q-43 0 -71 19t-51 68l-94 199h-91v-286h-152v286h-91l-94 -199q-23 -49 -51 -68t-71 -19h-80z" />
    <glyph glyph-name="uni04C2" unicode="&#x4c2;" horiz-adv-x="866" 
d="M433 579q-124 0 -171 112l-21 51l115 43l32 -101q14 -7 45 -7t45 7l32 101l115 -43l-21 -51q-47 -112 -171 -112zM40 0v115h54l55 108q20 37 58 45v5q-37 9 -56 47l-45 90h-54v115h61q42 0 69 -17t47 -57l64 -127h66v201h148v-201h66l64 127q20 40 47 57t69 17h61v-115
h-54l-45 -90q-19 -38 -56 -47v-5q38 -8 58 -45l55 -108h54v-115h-67q-42 0 -69 17t-48 58l-69 134h-66v-209h-148v209h-66l-69 -134q-21 -41 -48 -58t-69 -17h-67z" />
    <glyph glyph-name="uni04CF" unicode="&#x4cf;" horiz-adv-x="286" 
d="M69 0v740h148v-740h-148z" />
    <glyph glyph-name="uni04D0" unicode="&#x4d0;" horiz-adv-x="685" 
d="M341 740q-124 0 -171 112l-21 51l115 43l32 -101q14 -7 45 -7t45 7l32 101l115 -43l-21 -51q-47 -112 -171 -112zM20 0l230 698h188l227 -698h-158l-50 166h-233l-50 -166h-154zM260 295h160l-78 265h-5z" />
    <glyph glyph-name="uni04D1" unicode="&#x4d1;" horiz-adv-x="569" 
d="M268 579q-124 0 -171 112l-21 51l115 43l32 -101q14 -7 45 -7t45 7l32 101l115 -43l-21 -51q-47 -112 -171 -112zM197 -12q-77 0 -120 41.5t-43 111.5q0 81 59 122.5t166 41.5h83v33q0 83 -87 83q-68 0 -113 -62l-88 78q68 100 212 100q110 0 167 -49t57 -143v-230h49
v-115h-82q-36 0 -62 21.5t-35 57.5l-3 13h-6q-12 -50 -52.5 -77t-101.5 -27zM252 91q40 0 65 17t25 51v62h-72q-87 0 -87 -59v-15q0 -56 69 -56z" />
    <glyph glyph-name="uni04D2" unicode="&#x4d2;" horiz-adv-x="685" 
d="M232 761q-80 0 -80 63v25q0 63 80 63t80 -63v-25q0 -63 -80 -63zM452 761q-80 0 -80 63v25q0 63 80 63t80 -63v-25q0 -63 -80 -63zM20 0l230 698h188l227 -698h-158l-50 166h-233l-50 -166h-154zM260 295h160l-78 265h-5z" />
    <glyph glyph-name="uni04D3" unicode="&#x4d3;" horiz-adv-x="569" 
d="M158 600q-80 0 -80 63v25q0 63 80 63t80 -63v-25q0 -63 -80 -63zM378 600q-80 0 -80 63v25q0 63 80 63t80 -63v-25q0 -63 -80 -63zM197 -12q-77 0 -120 41.5t-43 111.5q0 81 59 122.5t166 41.5h83v33q0 83 -87 83q-68 0 -113 -62l-88 78q68 100 212 100q110 0 167 -49
t57 -143v-230h49v-115h-82q-36 0 -62 21.5t-35 57.5l-3 13h-6q-12 -50 -52.5 -77t-101.5 -27zM252 91q40 0 65 17t25 51v62h-72q-87 0 -87 -59v-15q0 -56 69 -56z" />
    <glyph glyph-name="uni04D4" unicode="&#x4d4;" horiz-adv-x="968" 
d="M-1 0l341 698h573v-135h-324v-143h278v-134h-278v-151h324v-135h-475v166h-209l-78 -166h-152zM290 295h148v268h-23z" />
    <glyph glyph-name="uni04D5" unicode="&#x4d5;" horiz-adv-x="864" 
d="M198 -12q-78 0 -121 43t-43 113q0 82 61.5 125t163.5 43h83v26q0 83 -87 83q-68 0 -113 -62l-88 78q68 100 212 100q101 0 148 -74h6q47 74 168 74q63 0 110.5 -21.5t75 -59.5t41 -85t13.5 -102v-44h-338v-8q0 -51 31.5 -81t88.5 -30q70 0 129 61l74 -92
q-76 -87 -220 -87q-72 0 -127 29t-77 74h-6q-40 -103 -185 -103zM491 312h184v9q0 49 -22.5 78t-65.5 29q-44 0 -70 -29.5t-26 -78.5v-8zM254 91q38 0 63 17t25 51v66h-72q-40 0 -63.5 -15.5t-23.5 -43.5v-14q0 -61 71 -61z" />
    <glyph glyph-name="uni04D6" unicode="&#x4d6;" horiz-adv-x="607" 
d="M315 740q-124 0 -171 112l-21 51l115 43l32 -101q14 -7 45 -7t45 7l32 101l115 -43l-21 -51q-47 -112 -171 -112zM77 0v698h475v-135h-323v-143h277v-134h-277v-151h323v-135h-475z" />
    <glyph glyph-name="uni04D7" unicode="&#x4d7;" horiz-adv-x="562" 
d="M287 579q-124 0 -171 112l-21 51l115 43l32 -101q14 -7 45 -7t45 7l32 101l115 -43l-21 -51q-47 -112 -171 -112zM288 -12q-119 0 -185.5 74t-66.5 201q0 126 64.5 200t181.5 74q123 0 183.5 -76t60.5 -192v-44h-337v-8q0 -53 29 -83t87 -30q42 0 70.5 16t58.5 47l74 -92
q-76 -87 -220 -87zM189 312h184v9q0 49 -22.5 78t-65.5 29q-44 0 -70 -29.5t-26 -78.5v-8z" />
    <glyph glyph-name="uni04D8" unicode="&#x4d8;" horiz-adv-x="714" 
d="M357 -12q-142 0 -224.5 93.5t-82.5 267.5v50h453v3q0 82 -39 127.5t-107 45.5q-64 0 -97.5 -28t-48.5 -83l-137 49q29 88 100 142.5t183 54.5q142 0 224.5 -93.5t82.5 -267.5t-82.5 -267.5t-224.5 -93.5zM357 123q62 0 99.5 37t44.5 105l1 9h-290l1 -9q8 -67 45 -104.5
t99 -37.5z" />
    <glyph glyph-name="uni04D9" unicode="&#x4d9;" horiz-adv-x="562" 
d="M280 -12q-123 0 -183.5 76t-60.5 192v44h337v8q0 53 -27.5 83t-83.5 30q-31 0 -57.5 -11t-38.5 -22t-30 -30l-74 92q76 87 217 87q117 0 182 -74t65 -201q0 -126 -64.5 -200t-181.5 -74zM277 97q44 0 70 29.5t26 78.5v8h-184v-9q0 -49 22.5 -78t65.5 -29z" />
    <glyph glyph-name="uni04DC" unicode="&#x4dc;" horiz-adv-x="1006" 
d="M393 761q-80 0 -80 63v25q0 63 80 63t80 -63v-25q0 -63 -80 -63zM613 761q-80 0 -80 63v25q0 63 80 63t80 -63v-25q0 -63 -80 -63zM40 0v135h62l77 163q24 52 75 59v6q-47 13 -73 66l-65 134h-62v135h63q84 0 125 -84l94 -194h91v278h152v-278h91l94 194q41 84 125 84h62
v-135h-62l-64 -134q-26 -53 -73 -66v-6q51 -7 75 -59l77 -163h62v-135h-80q-43 0 -71 19t-51 68l-94 199h-91v-286h-152v286h-91l-94 -199q-23 -49 -51 -68t-71 -19h-80z" />
    <glyph glyph-name="uni04DD" unicode="&#x4dd;" horiz-adv-x="866" 
d="M323 600q-80 0 -80 63v25q0 63 80 63t80 -63v-25q0 -63 -80 -63zM543 600q-80 0 -80 63v25q0 63 80 63t80 -63v-25q0 -63 -80 -63zM40 0v115h54l55 108q20 37 58 45v5q-37 9 -56 47l-45 90h-54v115h61q42 0 69 -17t47 -57l64 -127h66v201h148v-201h66l64 127q20 40 47 57
t69 17h61v-115h-54l-45 -90q-19 -38 -56 -47v-5q38 -8 58 -45l55 -108h54v-115h-67q-42 0 -69 17t-48 58l-69 134h-66v-209h-148v209h-66l-69 -134q-21 -41 -48 -58t-69 -17h-67z" />
    <glyph glyph-name="uni04DE" unicode="&#x4de;" horiz-adv-x="608" 
d="M180 761q-80 0 -80 63v25q0 63 80 63t80 -63v-25q0 -63 -80 -63zM400 761q-80 0 -80 63v25q0 63 80 63t80 -63v-25q0 -63 -80 -63zM285 -12q-156 0 -256 103l100 101q66 -69 156 -69q59 0 90.5 21t31.5 59v8q0 39 -24 57t-75 18h-121v134h115q93 0 93 77v5q0 73 -105 73
q-92 0 -149 -63l-92 96q44 48 107 75t134 27q124 0 195 -52.5t71 -142.5q0 -68 -40.5 -105t-104.5 -43v-6q65 -3 111 -43t46 -111q0 -98 -77 -158.5t-206 -60.5z" />
    <glyph glyph-name="uni04DF" unicode="&#x4df;" horiz-adv-x="531" 
d="M150 600q-80 0 -80 63v25q0 63 80 63t80 -63v-25q0 -63 -80 -63zM370 600q-80 0 -80 63v25q0 63 80 63t80 -63v-25q0 -63 -80 -63zM252 -12q-138 0 -229 94l87 88q58 -66 143 -66q89 0 89 58v11q0 45 -59 45h-116v98h103q59 0 59 45v10q0 50 -80 50q-85 0 -127 -62
l-88 78q81 100 226 100q106 0 162 -39.5t56 -104.5q0 -100 -111 -115v-5q58 -6 91 -37t33 -80q0 -79 -63.5 -123.5t-175.5 -44.5z" />
    <glyph glyph-name="uni04E2" unicode="&#x4e2;" horiz-adv-x="724" 
d="M212 785v103h306v-103h-306zM77 0v698h148v-341l-16 -147h3l69 133l230 355h136v-698h-148v341l16 147h-3l-69 -133l-230 -355h-136z" />
    <glyph glyph-name="uni04E3" unicode="&#x4e3;" horiz-adv-x="612" 
d="M154 624v103h306v-103h-306zM69 0v525h145v-211l-13 -122h3l61 112l146 221h132v-525h-145v211l13 122h-3l-61 -112l-146 -221h-132z" />
    <glyph glyph-name="uni04E4" unicode="&#x4e4;" horiz-adv-x="724" 
d="M255 761q-80 0 -80 63v25q0 63 80 63t80 -63v-25q0 -63 -80 -63zM475 761q-80 0 -80 63v25q0 63 80 63t80 -63v-25q0 -63 -80 -63zM77 0v698h148v-341l-16 -147h3l69 133l230 355h136v-698h-148v341l16 147h-3l-69 -133l-230 -355h-136z" />
    <glyph glyph-name="uni04E5" unicode="&#x4e5;" horiz-adv-x="612" 
d="M197 600q-80 0 -80 63v25q0 63 80 63t80 -63v-25q0 -63 -80 -63zM417 600q-80 0 -80 63v25q0 63 80 63t80 -63v-25q0 -63 -80 -63zM69 0v525h145v-211l-13 -122h3l61 112l146 221h132v-525h-145v211l13 122h-3l-61 -112l-146 -221h-132z" />
    <glyph glyph-name="uni04E6" unicode="&#x4e6;" horiz-adv-x="714" 
d="M247 761q-80 0 -80 63v25q0 63 80 63t80 -63v-25q0 -63 -80 -63zM467 761q-80 0 -80 63v25q0 63 80 63t80 -63v-25q0 -63 -80 -63zM357 -12q-142 0 -224.5 93.5t-82.5 267.5t82.5 267.5t224.5 93.5t224.5 -93.5t82.5 -267.5t-82.5 -267.5t-224.5 -93.5zM357 123
q69 0 107.5 45.5t38.5 128.5v104q0 83 -38.5 128.5t-107.5 45.5t-107.5 -45.5t-38.5 -128.5v-104q0 -83 38.5 -128.5t107.5 -45.5z" />
    <glyph glyph-name="uni04E7" unicode="&#x4e7;" horiz-adv-x="564" 
d="M172 599q-80 0 -80 63v25q0 63 80 63t80 -63v-25q0 -63 -80 -63zM392 599q-80 0 -80 63v25q0 63 80 63t80 -63v-25q0 -63 -80 -63zM282 -12q-115 0 -180.5 74t-65.5 201t65.5 200.5t180.5 73.5t180.5 -73.5t65.5 -200.5t-65.5 -201t-180.5 -74zM282 105q44 0 68 27.5
t24 76.5v107q0 49 -24 76.5t-68 27.5t-68 -27.5t-24 -76.5v-107q0 -49 24 -76.5t68 -27.5z" />
    <glyph glyph-name="uni04E8" unicode="&#x4e8;" horiz-adv-x="714" 
d="M357 -12q-142 0 -224.5 93.5t-82.5 267.5t82.5 267.5t224.5 93.5t224.5 -93.5t82.5 -267.5t-82.5 -267.5t-224.5 -93.5zM201 419h312l-1 14q-7 73 -47.5 112.5t-107.5 39.5t-108 -39.5t-47 -114.5zM357 113q67 0 108 40.5t47 116.5l1 15h-312l1 -17q6 -75 47 -115
t108 -40z" />
    <glyph glyph-name="uni04E9" unicode="&#x4e9;" horiz-adv-x="564" 
d="M282 -12q-115 0 -180.5 74t-65.5 201t65.5 200.5t180.5 73.5t180.5 -73.5t65.5 -200.5t-65.5 -201t-180.5 -74zM180 313h204v7q0 53 -27 81.5t-75 28.5t-75 -28.5t-27 -81.5v-7zM282 95q48 0 75 28.5t27 81.5v10h-204v-10q0 -53 27 -81.5t75 -28.5z" />
    <glyph glyph-name="uni04EE" unicode="&#x4ee;" horiz-adv-x="631" 
d="M166 785v103h306v-103h-306zM119 0v135h122l15 38l-244 525h160l98 -217l58 -139h3l51 140l86 216h149l-246 -600q-23 -54 -56.5 -76t-95.5 -22h-100z" />
    <glyph glyph-name="uni04EF" unicode="&#x4ef;" horiz-adv-x="534" 
d="M117 624v103h306v-103h-306zM73 -200v115h99l18 58l-184 552h147l77 -245l38 -152h6l39 152l77 245h138l-202 -606q-21 -62 -58 -90.5t-103 -28.5h-92z" />
    <glyph glyph-name="uni04F0" unicode="&#x4f0;" horiz-adv-x="631" 
d="M209 761q-80 0 -80 63v25q0 63 80 63t80 -63v-25q0 -63 -80 -63zM429 761q-80 0 -80 63v25q0 63 80 63t80 -63v-25q0 -63 -80 -63zM119 0v135h122l15 38l-244 525h160l98 -217l58 -139h3l51 140l86 216h149l-246 -600q-23 -54 -56.5 -76t-95.5 -22h-100z" />
    <glyph glyph-name="uni04F1" unicode="&#x4f1;" horiz-adv-x="534" 
d="M160 600q-80 0 -80 63v25q0 63 80 63t80 -63v-25q0 -63 -80 -63zM380 600q-80 0 -80 63v25q0 63 80 63t80 -63v-25q0 -63 -80 -63zM73 -200v115h99l18 58l-184 552h147l77 -245l38 -152h6l39 152l77 245h138l-202 -606q-21 -62 -58 -90.5t-103 -28.5h-92z" />
    <glyph glyph-name="uni04F2" unicode="&#x4f2;" horiz-adv-x="631" 
d="M229 740l-81 39l99 194l116 -57zM434 740l-81 39l99 194l116 -57zM119 0v135h122l15 38l-244 525h160l98 -217l58 -139h3l51 140l86 216h149l-246 -600q-23 -54 -56.5 -76t-95.5 -22h-100z" />
    <glyph glyph-name="uni04F3" unicode="&#x4f3;" horiz-adv-x="534" 
d="M180 579l-81 39l99 194l116 -57zM385 579l-81 39l99 194l116 -57zM73 -200v115h99l18 58l-184 552h147l77 -245l38 -152h6l39 152l77 245h138l-202 -606q-21 -62 -58 -90.5t-103 -28.5h-92z" />
    <glyph glyph-name="uni04F4" unicode="&#x4f4;" horiz-adv-x="678" 
d="M217 761q-80 0 -80 63v25q0 63 80 63t80 -63v-25q0 -63 -80 -63zM437 761q-80 0 -80 63v25q0 63 80 63t80 -63v-25q0 -63 -80 -63zM449 0v247h-5q-53 -23 -133 -23q-257 0 -257 257v217h152v-223q0 -119 119 -119q81 0 124 18v324h152v-698h-152z" />
    <glyph glyph-name="uni04F5" unicode="&#x4f5;" horiz-adv-x="578" 
d="M170 600q-80 0 -80 63v25q0 63 80 63t80 -63v-25q0 -63 -80 -63zM390 600q-80 0 -80 63v25q0 63 80 63t80 -63v-25q0 -63 -80 -63zM361 0v223h-5q-39 -69 -136 -69q-88 0 -129 46t-41 141v184h148v-177q0 -39 18.5 -56.5t60.5 -17.5q41 0 62.5 15t21.5 38v198h148v-525
h-148z" />
    <glyph glyph-name="uni04F8" unicode="&#x4f8;" horiz-adv-x="933" 
d="M357 761q-80 0 -80 63v25q0 63 80 63t80 -63v-25q0 -63 -80 -63zM577 761q-80 0 -80 63v25q0 63 80 63t80 -63v-25q0 -63 -80 -63zM77 0v698h152v-252h178q97 0 154.5 -61.5t57.5 -161.5t-57.5 -161.5t-154.5 -61.5h-330zM704 0v698h152v-698h-152zM229 132h160
q34 0 53.5 18t19.5 51v44q0 33 -19.5 51t-53.5 18h-160v-182z" />
    <glyph glyph-name="uni04F9" unicode="&#x4f9;" horiz-adv-x="809" 
d="M294 600q-80 0 -80 63v25q0 63 80 63t80 -63v-25q0 -63 -80 -63zM514 600q-80 0 -80 63v25q0 63 80 63t80 -63v-25q0 -63 -80 -63zM69 0v525h148v-156h127q79 0 130 -48.5t51 -135.5t-51 -136t-130 -49h-275zM592 0v525h148v-525h-148zM217 105h95q30 0 47 15.5t17 44.5
v39q0 29 -17 44.5t-47 15.5h-95v-159z" />
    <glyph glyph-name="uni0E01" unicode="&#xe01;" horiz-adv-x="630" 
d="M313 587q124 0 187.5 -64.5t63.5 -183.5v-339h-150v351q0 114 -107 114q-44 0 -71 -19t-34 -53h108v-103q-46 -3 -66.5 -34.5t-20.5 -104.5v-151h-150v142q0 63 35.5 99.5t88.5 47.5v5h-139v45q0 118 66.5 183t188.5 65z" />
    <glyph glyph-name="uni0E02" unicode="&#xe02;" horiz-adv-x="586" 
d="M288 -12q-120 0 -175 56t-55 154q0 42 10.5 75.5t25 54t29 38t25 37.5t10.5 43v14h-108v115h131q117 0 117 -106v-4q0 -42 -14 -78t-31 -57t-31 -52.5t-14 -65.5q0 -50 19 -74t61 -24t61 24t19 74v363h150v-337q0 -132 -53 -191t-177 -59z" />
    <glyph glyph-name="uni0E03" unicode="&#xe03;" horiz-adv-x="607" 
d="M309 -12q-120 0 -175 56t-55 154q0 42 14.5 76.5t34.5 57.5t40.5 42.5t35 42.5t14.5 49v25h-5q-4 -41 -28.5 -67.5t-61.5 -26.5q-43 0 -66.5 26.5t-23.5 75.5v76h120v-85q27 0 41 20t14 51v14h130v-106q0 -35 -11.5 -64t-27.5 -50t-32 -41t-27 -46t-11 -56q0 -50 19 -74
t61 -24t61 24t19 74v363h150v-337q0 -132 -53 -191t-177 -59z" />
    <glyph glyph-name="uni0E04" unicode="&#xe04;" horiz-adv-x="638" 
d="M66 0v339q0 119 65 183.5t188 64.5t188 -64.5t65 -183.5v-339h-150v349q0 112 -103 112t-103 -112v-103h5q19 96 114 96h30v-125h-41q-108 0 -108 -80v-137h-150z" />
    <glyph glyph-name="uni0E05" unicode="&#xe05;" horiz-adv-x="644" 
d="M66 0v376q0 100 54 155.5t150 55.5l51 -56h2l51 56q96 0 150 -55.5t54 -155.5v-376h-150v378q0 42 -10 60.5t-34 18.5l-61 -60h-2l-61 60q-24 0 -34 -18.5t-10 -60.5v-140h5q19 96 114 96h30v-125h-41q-108 0 -108 -80v-129h-150z" />
    <glyph glyph-name="uni0E06" unicode="&#xe06;" horiz-adv-x="648" 
d="M401 -12q-116 0 -151 101h-6v-89h-150v211q0 39 14.5 71.5t35 55t40.5 42t34.5 41.5t14.5 45v25h-5q-5 -41 -32.5 -67.5t-67.5 -26.5q-43 0 -66.5 26.5t-23.5 75.5v76h120v-85q31 0 48 19.5t17 51.5v14h130v-115q0 -48 -17 -83.5t-37.5 -53.5t-37.5 -45t-17 -60v-7
q0 -45 29.5 -69t71.5 -24q46 0 65.5 27.5t19.5 86.5v343h150v-379q0 -208 -179 -208z" />
    <glyph glyph-name="uni0E07" unicode="&#xe07;" horiz-adv-x="587" 
d="M178 0l-152 575h148l104 -457h20q76 0 76 154v178h-87v125h111q59 0 91.5 -39t32.5 -110v-131q0 -295 -224 -295h-120z" />
    <glyph glyph-name="uni0E08" unicode="&#xe08;" horiz-adv-x="565" 
d="M268 587q251 0 251 -291q0 -158 -59 -227t-191 -69h-82l-48 217h-76v125h104q38 0 57 -18.5t31 -69.5l32 -136h5q77 0 77 128v112q0 103 -101 103q-78 0 -131 -67l-95 84q72 109 226 109z" />
    <glyph glyph-name="uni0E09" unicode="&#xe09;" horiz-adv-x="621" 
d="M262 -12q-67 0 -104 37t-37 109v80h-62v118h90q107 0 107 -104v-55q0 -55 48 -55q36 0 63 20.5t27 62.5v142q0 114 -112 114q-52 0 -85.5 -21t-63.5 -59l-95 87q81 123 251 123q126 0 190.5 -61t64.5 -179v-231h55v-116h-79q-95 0 -109 100h-7q-20 -56 -52.5 -84
t-89.5 -28z" />
    <glyph glyph-name="uni0E0A" unicode="&#xe0a;" horiz-adv-x="562" 
d="M286 -12q-229 0 -229 209q0 52 12.5 92t28 59t28 45t12.5 53v14h-98v115h121q113 0 113 -106v-4q-1 -66 -35.5 -133.5t-34.5 -114.5q0 -53 20 -78t64 -25q43 0 62.5 23t19.5 75v8q0 43 -15 60.5t-51 17.5h-13v111h11q57 0 57 106v60h150v-17q0 -127 -94 -146v-5
q56 -8 78.5 -53t22.5 -126v-10q0 -118 -53.5 -174t-176.5 -56z" />
    <glyph glyph-name="uni0E0B" unicode="&#xe0b;" horiz-adv-x="596" 
d="M320 -12q-229 0 -229 209q0 42 12.5 77t30.5 57.5t36 42.5t30.5 43t12.5 49v25h-5q-4 -41 -28.5 -67.5t-61.5 -26.5q-43 0 -66.5 26.5t-23.5 75.5v76h120v-85q27 0 41 20t14 51v14h130v-106q0 -41 -15 -76.5t-33 -56t-32.5 -52t-14.5 -67.5q0 -53 20 -78t64 -25
q43 0 62.5 23t19.5 75v8q0 43 -12.5 60.5t-43.5 17.5h-13v111h11q57 0 57 106v60h150v-17q0 -127 -94 -146v-5q48 -14 69.5 -56t21.5 -123v-10q0 -118 -53.5 -174t-176.5 -56z" />
    <glyph glyph-name="uni0E0C" unicode="&#xe0c;" horiz-adv-x="928" 
d="M710 575h150v-391q0 -94 -40.5 -145t-116.5 -51q-106 0 -143 101h-6v-89h-144v351q0 56 -27.5 85t-78.5 29q-43 0 -70 -19t-34 -53h108v-103q-52 -3 -73.5 -34t-21.5 -105v-31h87v-120h-90q-73 0 -110 35.5t-37 100.5v10q0 118 124 143v5h-131v45q0 119 64 183.5
t184 64.5q123 0 186.5 -64.5t63.5 -183.5v-151q0 -33 26.5 -51.5t61.5 -18.5q37 0 52.5 22t15.5 69v366z" />
    <glyph glyph-name="uni0E0D" unicode="&#xe0d;" horiz-adv-x="928" 
d="M710 575h150v-561q0 -104 -59.5 -159t-171.5 -55q-158 0 -234 111l98 84q48 -69 131 -69q42 0 64 24.5t22 67.5v93h-6q-37 -91 -143 -91q-73 0 -112 46t-39 130v155q0 56 -27.5 85t-78.5 29q-43 0 -70 -19t-34 -53h108v-103q-52 -3 -73.5 -34t-21.5 -105v-31h87v-120h-90
q-73 0 -110 35.5t-37 100.5v10q0 118 124 143v5h-131v45q0 118 66 183t187 65q117 0 181 -65t64 -183v-108q0 -47 15.5 -69t52.5 -22q35 0 61.5 18.5t26.5 51.5v365z" />
    <glyph glyph-name="uni0E0E" unicode="&#xe0e;" horiz-adv-x="638" 
d="M318 587q125 0 189.5 -64.5t64.5 -183.5v-559h-150q-59 59 -141 59q-93 0 -137 -69l-97 84q70 106 189 106q114 0 181 -113h5v504q0 114 -110 114q-92 0 -108 -72h110v-96q-36 -2 -48 -26t-12 -93v-54q0 -65 -30 -94.5t-97 -29.5h-87v116h74v43q0 117 94 136v5h-148v39
q0 118 67.5 183t190.5 65z" />
    <glyph glyph-name="uni0E0F" unicode="&#xe0f;" horiz-adv-x="638" 
d="M318 587q125 0 189.5 -64.5t64.5 -183.5v-359q0 -110 -44 -155t-152 -45l-71 64h-4q-31 -69 -104 -69q-95 0 -137 100l96 75q19 -57 63 -57q25 0 43.5 16t38.5 54h4l72 -59q24 0 34.5 12.5t10.5 40.5v394q0 114 -110 114q-92 0 -108 -72h110v-96q-36 -2 -48 -26t-12 -93
v-54q0 -65 -30 -94.5t-97 -29.5h-87v116h74v43q0 117 94 136v5h-148v39q0 118 67.5 183t190.5 65z" />
    <glyph glyph-name="uni0E10" unicode="&#xe10;" horiz-adv-x="604" 
d="M580 494h-101v-18q40 -67 40 -185q0 -291 -250 -291h-82l-48 217h-76v125h104q38 0 57 -18.5t31 -69.5l32 -136h5q77 0 77 128v97q0 55 -27.5 84t-77.5 29q-80 0 -127 -67l-95 84q72 109 225 109q101 0 157 -50q1 0 1 -1q1 40 18.5 56t57.5 16h79v-109zM393 -84v34h126
v-73q0 -59 -28.5 -92t-78.5 -33q-48 0 -82.5 30t-46.5 84h-5l-8 -28q-13 -46 -33 -61t-63 -15h-111v120h99l22 68h107q7 -85 62 -85q40 0 40 51z" />
    <glyph glyph-name="uni0E11" unicode="&#xe11;" horiz-adv-x="652" 
d="M86 0v201q0 42 11 70t43 71q65 90 65 134v15h-5q-4 -41 -28.5 -67.5t-61.5 -26.5q-43 0 -66.5 26.5t-23.5 75.5v76h120v-85q27 0 41 20t14 51v14h130v-106h4q28 59 60.5 88.5t79.5 29.5q111 0 111 -162v-425h-150v391q0 66 -37 66q-22 0 -42 -22.5t-59 -89.5
q-30 -52 -43 -86.5t-13 -70.5v-188h-150z" />
    <glyph glyph-name="uni0E12" unicode="&#xe12;" horiz-adv-x="915" 
d="M690 -12q-106 0 -143 101h-6v-89h-145v377q0 41 -9.5 58.5t-34.5 18.5l-50 -62h-2l-52 62q-54 0 -54 -112v-90q0 -73 21 -100.5t77 -27.5h19v-124h-44q-123 0 -173 66t-50 229q0 154 47 223t152 69l57 -73h2l54 73q89 0 137 -51t48 -150v-198q0 -33 26.5 -51.5
t61.5 -18.5q37 0 52.5 22t15.5 69v366h150v-391q0 -94 -40.5 -145t-116.5 -51z" />
    <glyph glyph-name="uni0E13" unicode="&#xe13;" horiz-adv-x="934" 
d="M710 575h150v-575h-150v89h-6q-37 -101 -143 -101q-73 0 -112 51t-39 145v167q0 56 -27.5 85t-78.5 29q-43 0 -70 -19t-34 -53h108v-103q-52 -3 -73.5 -34t-21.5 -105v-31h87v-120h-90q-73 0 -110 35.5t-37 100.5v10q0 118 124 143v5h-131v45q0 119 64.5 183.5
t183.5 64.5q125 0 187.5 -64t62.5 -184v-130q0 -47 15.5 -69t52.5 -22q35 0 61.5 18.5t26.5 51.5v387z" />
    <glyph glyph-name="uni0E14" unicode="&#xe14;" horiz-adv-x="615" 
d="M274 0q-121 0 -176.5 66t-55.5 209q0 312 261 312q120 0 183 -64.5t63 -183.5v-339h-150v345q0 112 -101 112q-102 0 -102 -112v-87q0 -71 21.5 -99.5t77.5 -28.5h16v-130h-37z" />
    <glyph glyph-name="uni0E15" unicode="&#xe15;" horiz-adv-x="627" 
d="M267 0q-123 0 -173 66t-50 229q0 292 204 292l62 -80h2l63 80q83 0 134.5 -52t51.5 -149v-386h-150v377q0 39 -10 57.5t-33 19.5l-56 -68h-2l-55 68q-61 0 -61 -112v-90q0 -73 21 -100.5t77 -27.5h31v-124h-56z" />
    <glyph glyph-name="uni0E16" unicode="&#xe16;" horiz-adv-x="630" 
d="M312 587q124 0 188 -64.5t64 -183.5v-339h-150v351q0 114 -108 114q-44 0 -71.5 -19t-34.5 -53h108v-103q-52 -3 -73.5 -34t-21.5 -105v-31h87v-120h-90q-73 0 -110 35.5t-37 100.5v10q0 118 124 143v5h-131v45q0 118 67 183t189 65z" />
    <glyph glyph-name="uni0E17" unicode="&#xe17;" horiz-adv-x="636" 
d="M74 0v575h150v-96h6q38 108 160 108q86 0 132 -58t46 -164v-365h-150v345q0 58 -19.5 85t-65.5 27q-44 0 -76.5 -22.5t-32.5 -63.5v-371h-150z" />
    <glyph glyph-name="uni0E18" unicode="&#xe18;" horiz-adv-x="551" 
d="M290 -12q-144 0 -225 57v192h132v-110q38 -15 87 -15q91 0 91 74q0 37 -17.5 54.5t-63.5 24.5l-108 12q-130 19 -130 128v12q0 77 60 123.5t165 46.5q155 0 227 -95l-96 -86q-56 57 -132 57q-42 0 -64 -14t-22 -38v-21l141 -18q93 -15 135.5 -61t42.5 -128
q0 -95 -56.5 -145t-166.5 -50z" />
    <glyph glyph-name="uni0E19" unicode="&#xe19;" horiz-adv-x="634" 
d="M245 -12q-86 0 -131.5 58t-45.5 164v365h150v-345q0 -58 19.5 -85t64.5 -27q43 0 75.5 22.5t32.5 63.5v371h150v-575h-150v96h-6q-38 -108 -159 -108z" />
    <glyph glyph-name="uni0E1A" unicode="&#xe1a;" horiz-adv-x="626" 
d="M313 -12q-132 0 -188.5 63t-56.5 203v321h150v-350q0 -57 22.5 -84t72.5 -27t72.5 27t22.5 84v350h150v-321q0 -140 -56.5 -203t-188.5 -63z" />
    <glyph glyph-name="uni0E1B" unicode="&#xe1b;" horiz-adv-x="626" 
d="M313 -12q-132 0 -188.5 63t-56.5 203v321h150v-350q0 -57 22.5 -84t72.5 -27t72.5 27t22.5 84v555h150v-526q0 -140 -56.5 -203t-188.5 -63z" />
    <glyph glyph-name="uni0E1C" unicode="&#xe1c;" horiz-adv-x="668" 
d="M70 0v430q0 78 30 111.5t103 33.5h112v-120h-95v-309l111 171h2l111 -171v429h150v-575h-155l-106 169h-2l-106 -169h-155z" />
    <glyph glyph-name="uni0E1D" unicode="&#xe1d;" horiz-adv-x="668" 
d="M70 0v425q0 78 30 111.5t103 33.5h112v-120h-95v-304l111 171h2l111 -171v634h150v-780h-155l-106 169h-2l-106 -169h-155z" />
    <glyph glyph-name="uni0E1E" unicode="&#xe1e;" horiz-adv-x="749" 
d="M127 0l-82 575h140l34 -428h3l83 428h139l83 -428h3l34 428h140l-82 -575h-163l-83 412h-3l-83 -412h-163z" />
    <glyph glyph-name="uni0E1F" unicode="&#xe1f;" horiz-adv-x="718" 
d="M127 0l-82 575h140l34 -428h3l80 428h139l78 -428h3l38 633h140l-86 -780h-163l-78 412h-3l-80 -412h-163z" />
    <glyph glyph-name="uni0E20" unicode="&#xe20;" horiz-adv-x="638" 
d="M318 587q125 0 189.5 -64.5t64.5 -183.5v-339h-150v351q0 114 -110 114q-92 0 -108 -72h110v-96q-35 -2 -47.5 -26.5t-12.5 -92.5v-54q0 -65 -30 -94.5t-97 -29.5h-87v116h74v43q0 117 94 136v5h-148v39q0 118 67.5 183t190.5 65z" />
    <glyph glyph-name="uni0E21" unicode="&#xe21;" horiz-adv-x="638" 
d="M391 -12q-126 0 -161 101h-6v-89h-150v575h150v-369q0 -43 32.5 -65.5t78.5 -22.5t65.5 27.5t19.5 86.5v343h150v-379q0 -208 -179 -208z" />
    <glyph glyph-name="uni0E22" unicode="&#xe22;" horiz-adv-x="609" 
d="M296 -12q-118 0 -183 54t-65 152v9q0 64 35 107.5t91 43.5h10v6q-55 5 -89 34.5t-34 76.5v3q0 45 31.5 73t89.5 28h109v-115h-92v-10q0 -37 24.5 -61.5t60.5 -24.5h15v-112h-101v-26q0 -112 98 -112q50 0 72.5 27t22.5 84v350h150v-321q0 -140 -56.5 -203t-188.5 -63z
" />
    <glyph glyph-name="uni0E23" unicode="&#xe23;" horiz-adv-x="543" 
d="M278 -12q-151 0 -240 113l95 90q64 -79 149 -79q34 0 55.5 15t21.5 40q0 49 -81 62l-31 5q-93 15 -136 56t-43 113q0 91 59.5 137.5t151.5 46.5q141 0 213 -95l-96 -86q-56 57 -118 57q-32 0 -52 -14t-20 -37q0 -49 72 -57l41 -5q178 -23 178 -179q0 -86 -59.5 -134.5
t-159.5 -48.5z" />
    <glyph glyph-name="uni0E24" unicode="&#xe24;" horiz-adv-x="630" 
d="M312 587q124 0 188 -64.5t64 -183.5v-559h-150v571q0 114 -108 114q-44 0 -71.5 -19t-34.5 -53h108v-103q-52 -3 -73.5 -34t-21.5 -105v-31h87v-120h-90q-73 0 -110 35.5t-37 100.5v10q0 118 124 143v5h-131v45q0 118 67 183t189 65z" />
    <glyph glyph-name="uni0E25" unicode="&#xe25;" horiz-adv-x="587" 
d="M282 587q239 0 239 -220v-367h-148v235h-124q-59 0 -59 -52v-11q0 -50 59 -50h56v-122h-73q-90 0 -139 44.5t-49 127.5q0 78 49 122t139 44h141v30q0 93 -99 93q-77 0 -130 -69l-93 82q32 52 91.5 82.5t139.5 30.5z" />
    <glyph glyph-name="uni0E26" unicode="&#xe26;" horiz-adv-x="638" 
d="M318 587q125 0 189.5 -64.5t64.5 -183.5v-559h-150v571q0 114 -110 114q-92 0 -108 -72h110v-96q-36 -2 -48 -26t-12 -93v-54q0 -65 -30 -94.5t-97 -29.5h-87v116h74v43q0 117 94 136v5h-148v39q0 118 67.5 183t190.5 65z" />
    <glyph glyph-name="uni0E27" unicode="&#xe27;" horiz-adv-x="544" 
d="M261 -12q-81 0 -141 39.5t-88 118.5l126 55q7 -21 13 -33t16.5 -26t27 -20t39.5 -6q43 0 66.5 29.5t23.5 83.5v117q0 54 -23.5 83.5t-66.5 29.5q-70 0 -88 -79l-131 58q26 71 84.5 110t139.5 39q115 0 177 -75.5t62 -223.5q0 -149 -61 -224.5t-176 -75.5z" />
    <glyph glyph-name="uni0E28" unicode="&#xe28;" horiz-adv-x="662" 
d="M634 494h-101v-11q39 -54 39 -149v-334h-150v340q0 112 -103 112t-103 -112v-94h5q19 96 114 96h30v-125h-41q-108 0 -108 -80v-137h-150v334q0 118 65 183t186 65q105 0 162 -50q1 71 74 71h81v-109z" />
    <glyph glyph-name="uni0E29" unicode="&#xe29;" horiz-adv-x="641" 
d="M629 409v-125h-71v-48q0 -119 -62.5 -183.5t-182.5 -64.5q-119 0 -182 65t-63 183v339h150v-345q0 -112 98 -112t98 112v54h-98v126h98v165h144v-166h71z" />
    <glyph glyph-name="uni0E2A" unicode="&#xe2a;" horiz-adv-x="613" 
d="M585 494h-101v-12q37 -39 37 -140v-342h-148v235h-124q-28 0 -43.5 -13.5t-15.5 -38.5v-11q0 -50 58 -50h57v-122h-73q-90 0 -139 44.5t-49 127.5q0 80 50.5 123t147.5 43h131v25q0 93 -99 93q-77 0 -130 -69l-93 82q32 52 91.5 82.5t139.5 30.5q98 0 148 -44q4 65 74 65
h81v-109z" />
    <glyph glyph-name="uni0E2B" unicode="&#xe2b;" horiz-adv-x="611" 
d="M74 0v575h150v-198h74q97 0 97 106v92h154v-49q0 -62 -35.5 -98.5t-88.5 -47.5v-5q131 -19 131 -176v-199h-144v167q0 99 -87 99h-101v-266h-150z" />
    <glyph glyph-name="uni0E2C" unicode="&#xe2c;" horiz-adv-x="731" 
d="M127 0l-82 575h140l34 -428h3l83 361h139l83 -361h3l28 312q8 83 -56 83h-57v114h48q52 0 83 27.5t48 96.5h127q-16 -89 -42.5 -122t-76.5 -39v-4q70 -32 54 -149l-64 -466h-163l-83 375h-3l-83 -375h-163z" />
    <glyph glyph-name="uni0E2D" unicode="&#xe2d;" horiz-adv-x="591" 
d="M290 -12q-111 0 -176.5 57t-65.5 157v7q0 62 30.5 94.5t88.5 32.5h117v-115h-91v-16q0 -47 25.5 -73t71.5 -26t71.5 28t25.5 79v131q0 55 -25.5 87t-73.5 32q-77 0 -101 -80l-138 58q25 70 86.5 108t148.5 38q127 0 194 -77t67 -215q0 -145 -66 -226t-189 -81z" />
    <glyph glyph-name="uni0E2E" unicode="&#xe2e;" horiz-adv-x="627" 
d="M603 494h-101v-25q43 -57 43 -174q0 -145 -66 -226t-189 -81q-111 0 -176.5 57t-65.5 157v7q0 62 30.5 94.5t88.5 32.5h117v-115h-91v-16q0 -47 25.5 -73t71.5 -26t71.5 28t25.5 79v131q0 55 -25.5 87t-73.5 32q-77 0 -101 -80l-138 58q25 70 85 108t140 38
q110 0 174 -62q1 43 18 60.5t58 17.5h79v-109z" />
    <glyph glyph-name="uni0E2F" unicode="&#xe2f;" horiz-adv-x="567" 
d="M343 0l1 335h-6q-37 -109 -149 -109q-80 0 -126.5 44.5t-46.5 124.5q0 82 49.5 131t132.5 49h95v-115h-67q-31 0 -48 -15t-17 -43q0 -60 75 -60q108 0 108 165v68h148l1 -575h-150z" />
    <glyph glyph-name="uni0E30" unicode="&#xe30;" horiz-adv-x="457" 
d="M206 323q-144 0 -144 147v76h145v-93h190v-130h-191zM206 30q-144 0 -144 147v76h145v-93h190v-130h-191z" />
    <glyph glyph-name="uni0E31" unicode="&#xe31;" 
d="M-168 645q-144 0 -144 147v51h133v-88h204v-110h-193z" />
    <glyph glyph-name="uni0E32" unicode="&#xe32;" horiz-adv-x="509" 
d="M293 0v369q0 92 -79 92q-74 0 -120 -69l-94 84q72 111 223 111q106 0 163 -55.5t57 -158.5v-373h-150z" />
    <glyph glyph-name="uni0E33" unicode="&#xe33;" horiz-adv-x="508" 
d="M-146 637q-55 0 -83 26t-28 69v29q0 43 28 69t83 26q56 0 84 -26t28 -69v-29q0 -43 -28 -69t-84 -26zM-146 707q36 0 36 40t-36 40q-38 0 -38 -40t38 -40zM292 0v369q0 92 -79 92q-74 0 -120 -69l-94 84q72 111 223 111q106 0 163 -55.5t57 -158.5v-373h-150z" />
    <glyph glyph-name="uni0E34" unicode="&#xe34;" 
d="M-508 645v110h440v-110h-440z" />
    <glyph glyph-name="uni0E35" unicode="&#xe35;" 
d="M-503 645v110h305v113h135v-76q0 -147 -144 -147h-296z" />
    <glyph glyph-name="uni0E36" unicode="&#xe36;" 
d="M-158 872q58 0 87 -27t29 -72v-30q0 -44 -29 -71t-87 -27h-2h-350v110h237v18q0 44 29 71.5t86 27.5zM-158 718q37 0 37 41q0 42 -37 42q-40 0 -40 -42q0 -41 40 -41z" />
    <glyph glyph-name="uni0E37" unicode="&#xe37;" 
d="M-193 868h125v-76q0 -147 -144 -147h-296v110h148v113h119v-113h48v113z" />
    <glyph glyph-name="uni0E38" unicode="&#xe38;" 
d="M-188 -310v130h-93v115h96q62 0 89.5 -27t27.5 -87v-131h-120z" />
    <glyph glyph-name="uni0E39" unicode="&#xe39;" 
d="M-235 -306q-94 0 -94 92v44h-58v105h71q51 0 74 -22.5t23 -71.5v-63h42l-1 157h110v-149q0 -92 -94 -92h-73z" />
    <glyph glyph-name="uni0E3A" unicode="&#xe3a;" 
d="M-144 -230q-43 0 -64.5 20t-21.5 53v22q0 33 21.5 53t64.5 20t64.5 -20t21.5 -53v-22q0 -33 -21.5 -53t-64.5 -20z" />
    <glyph glyph-name="uni0E3F" unicode="&#xe3f;" horiz-adv-x="665" 
d="M276 -90v110h-199v658h199v102h114v-102h37q80 0 126.5 -46t46.5 -123q0 -67 -31 -100t-97 -41v-6q69 -4 111 -41.5t42 -112.5q0 -79 -49 -133.5t-121 -54.5h-65v-110h-114zM220 408h66v149h-66v-149zM381 408h10q29 0 45 15.5t16 43.5v31q0 28 -16 43.5t-45 15.5h-10
v-149zM220 141h66v151h-66v-151zM381 141h34q29 0 45.5 16t16.5 44v31q0 28 -16.5 44t-45.5 16h-34v-151z" />
    <glyph glyph-name="uni0E40" unicode="&#xe40;" horiz-adv-x="329" 
d="M223 0q-147 0 -147 144v431h150v-450h83v-125h-86z" />
    <glyph glyph-name="uni0E41" unicode="&#xe41;" horiz-adv-x="631" 
d="M223 0q-147 0 -147 144v431h150v-450h83v-125h-86zM525 0q-147 0 -147 144v431h150v-450h83v-125h-86z" />
    <glyph glyph-name="uni0E42" unicode="&#xe42;" horiz-adv-x="390" 
d="M268 0q-147 0 -147 144v457q0 150 -112 172v126h411v-124h-281v-5q132 -22 132 -236v-409h93v-125h-96z" />
    <glyph glyph-name="uni0E43" unicode="&#xe43;" horiz-adv-x="394" 
d="M262 0q-147 0 -147 144v506q72 3 106.5 24t34.5 66v12q0 30 -18 46.5t-47 16.5q-67 0 -83 -87l-128 54q18 66 72 108t144 42q93 0 148 -49.5t55 -131.5q0 -67 -36.5 -114t-97.5 -60v-452h93v-125h-96z" />
    <glyph glyph-name="uni0E44" unicode="&#xe44;" horiz-adv-x="381" 
d="M251 0q-147 0 -147 144v380q0 107 41.5 170.5t110.5 75.5v5h-226v124h361v-126q-66 -11 -101.5 -55t-35.5 -117v-476h93v-125h-96z" />
    <glyph glyph-name="uni0E45" unicode="&#xe45;" horiz-adv-x="515" 
d="M299 -220v582q0 95 -83 95q-70 0 -118 -69l-98 88q76 111 221 111q112 0 170 -58t58 -165v-584h-150z" />
    <glyph glyph-name="uni0E46" unicode="&#xe46;" horiz-adv-x="539" 
d="M315 -110l1 539q0 51 -33 52l-43 -39h-1l-44 39q-35 0 -35 -50v-15q0 -51 50 -51h30v-118h-43q-167 0 -167 145v19q0 91 41.5 133.5t133.5 42.5l34 -35h2l34 35q100 0 145 -42t45 -134v-521h-150z" />
    <glyph glyph-name="uni0E47" unicode="&#xe47;" 
d="M-338 783q-38 0 -38 -40q0 -37 33 -40l16 52h67q0 -50 28 -50q24 0 24 30v26h76v-53q0 -37 -17 -55t-46 -18q-32 0 -52.5 20.5t-24.5 58.5h-1l-4 -20q-11 -59 -75 -59q-52 0 -82 31t-30 83t33 83t87 31h221v-80h-215z" />
    <glyph glyph-name="uni0E48" unicode="&#xe48;" 
d="M-218 645v213h140v-213h-140z" />
    <glyph glyph-name="uni0E49" unicode="&#xe49;" 
d="M-186 755h153v-110h-272v116h-77v110h62q72 0 100.5 -24.5t33.5 -91.5z" />
    <glyph glyph-name="uni0E4A" unicode="&#xe4a;" 
d="M-67 743h66v-93h-161v112q0 29 -24 34l-47 -35l-51 35q-13 -2 -21 -12t-8 -22q0 -35 56 -35h40v-77h-62q-65 0 -99.5 31t-34.5 86q0 49 33 81t84 35l60 -43h1l62 43q47 -4 76.5 -34.5t29.5 -81.5v-24z" />
    <glyph glyph-name="uni0E4B" unicode="&#xe4b;" 
d="M1 817v-99h-78v-74h-117v74h-78v99h78v73h117v-73h78z" />
    <glyph glyph-name="uni0E4C" unicode="&#xe4c;" 
d="M-360 655v56q0 147 144 147h110v-110h-127v-93h-127z" />
    <glyph glyph-name="uni0E4D" unicode="&#xe4d;" 
d="M-148 637q-55 0 -83 26t-28 69v29q0 43 28 69t83 26q56 0 84 -26t28 -69v-29q0 -43 -28 -69t-84 -26zM-148 710q33 0 33 37t-33 37q-35 0 -35 -37t35 -37z" />
    <glyph glyph-name="uni0E4E" unicode="&#xe4e;" 
d="M-104 898h92v-93h-88v-87h-89v-73h-110v80q0 86 78 86h28v11q0 76 89 76z" />
    <glyph glyph-name="uni0E4F" unicode="&#xe4f;" horiz-adv-x="546" 
d="M273 20q-103 0 -168 70.5t-65 179.5t65 179.5t168 70.5t168 -70.5t65 -179.5t-65 -179.5t-168 -70.5zM273 118q53 0 85.5 30t32.5 82v80q0 52 -32.5 82t-85.5 30t-85.5 -30t-32.5 -82v-80q0 -52 32.5 -82t85.5 -30zM273 170q-37 0 -59.5 21t-22.5 58v42q0 37 22.5 58
t59.5 21t59.5 -21t22.5 -58v-42q0 -37 -22.5 -58t-59.5 -21z" />
    <glyph glyph-name="uni0E50" unicode="&#xe50;" horiz-adv-x="564" 
d="M282 -12q-115 0 -180.5 74t-65.5 201t65.5 200.5t180.5 73.5t180.5 -73.5t65.5 -200.5t-65.5 -201t-180.5 -74zM282 105q44 0 68 27.5t24 76.5v107q0 49 -24 76.5t-68 27.5t-68 -27.5t-24 -76.5v-107q0 -49 24 -76.5t68 -27.5z" />
    <glyph glyph-name="uni0E51" unicode="&#xe51;" horiz-adv-x="536" 
d="M155 -34q112 87 155.5 160.5t43.5 176.5q0 63 -23.5 90t-69.5 27q-43 0 -67 -24t-24 -67v-15q0 -71 74 -71h18v-115h-37q-94 0 -144.5 49.5t-50.5 141.5q0 102 62 160t169 58q114 0 177.5 -64t63.5 -184q0 -91 -42.5 -176t-119.5 -147h-185z" />
    <glyph glyph-name="uni0E52" unicode="&#xe52;" horiz-adv-x="737" 
d="M308 0q-133 0 -189 55.5t-56 180.5v397h139v-405q0 -57 22.5 -84t72.5 -27h146q97 0 97 111v139q0 52 -33 52l-43 -39h-1l-44 39q-35 0 -35 -50v-74h80v-110h-53q-147 0 -147 144v20q0 91 37 133.5t118 42.5l44 -50h2l44 50q89 0 129.5 -46t40.5 -140v-103
q0 -125 -60 -180.5t-202 -55.5h-109z" />
    <glyph glyph-name="uni0E53" unicode="&#xe53;" horiz-adv-x="729" 
d="M205 0q-147 0 -147 144v192q0 106 43.5 153.5t140.5 47.5q133 0 169 -96h6q19 96 120 96q62 0 95.5 -33.5t33.5 -98.5v-405h-140v357q0 63 -52 63t-52 -63v-227h-120v227q0 63 -52 63t-52 -63v-242h60v-115h-53z" />
    <glyph glyph-name="uni0E54" unicode="&#xe54;" horiz-adv-x="574" 
d="M282 0q-115 0 -180.5 71.5t-65.5 191.5t65.5 191t180.5 71h141v108h135v-78q0 -147 -144 -147h-132q-44 0 -68 -26t-24 -72v-95q0 -46 24 -72t68 -26h103v6q-52 7 -84.5 34t-32.5 76v3q0 102 116 102h109v-110h-87v-15q0 -44 23 -70t72 -26h31v-117h-250z" />
    <glyph glyph-name="uni0E55" unicode="&#xe55;" horiz-adv-x="574" 
d="M282 418q-44 0 -68 -26.5t-24 -76.5v-95q0 -50 24 -76.5t68 -26.5h103v6q-52 7 -84.5 34t-32.5 76v3q0 102 116 102h109v-110h-87v-15q0 -44 23 -70t72 -26h31v-117h-250q-115 0 -180.5 72t-65.5 196q0 93 38.5 157t94.5 87q-1 5 -1 14v29q0 43 28 69t83 26q56 0 84 -26
t28 -69v-29v-6h42v113h125v-68q0 -147 -144 -147h-132zM279 581q-38 0 -38 -40t38 -40q36 0 36 40t-36 40z" />
    <glyph glyph-name="uni0E56" unicode="&#xe56;" horiz-adv-x="559" 
d="M274 -12q-100 0 -163.5 52t-63.5 137q0 115 117 115h92v-110h-71v-6q0 -33 24.5 -52t66.5 -19q45 0 69 27t24 77v107q0 50 -24.5 77t-71.5 27q-34 0 -55.5 -13.5t-28.5 -33.5h-128l-47 260h130l35 -198h6q3 39 38 70.5t97 31.5q97 0 150 -73t53 -201t-66 -201.5
t-183 -73.5z" />
    <glyph glyph-name="uni0E57" unicode="&#xe57;" horiz-adv-x="902" 
d="M706 633h132v-418q0 -215 -235 -215h-115v368q0 27 -13 39.5t-32 12.5q-45 0 -45 -52v-198h-116v198q0 52 -45 52t-45 -52v-253h66v-115h-53q-147 0 -147 144v192q0 105 42 153t132 48q119 0 155 -96h6q28 96 115 96q114 0 114 -146v-273q47 4 65.5 29.5t18.5 83.5v402z
" />
    <glyph glyph-name="uni0E58" unicode="&#xe58;" horiz-adv-x="613" 
d="M219 -7q-85 0 -133 69.5t-48 184.5q0 130 64.5 204t179.5 74h141v108h135v-78q0 -147 -144 -147h-138q-44 0 -68 -27.5t-24 -76.5v-105q0 -84 45 -84h3l35 124h105q0 -73 13 -103.5t44 -30.5q45 0 45 62v43h-61v110h62q117 0 117 -143v-9q0 -86 -31.5 -130.5t-88.5 -44.5
q-58 0 -91.5 40t-33.5 101h-6l-10 -47q-22 -94 -112 -94z" />
    <glyph glyph-name="uni0E59" unicode="&#xe59;" horiz-adv-x="690" 
d="M546 633h116v-134q0 -105 -41.5 -153.5t-127.5 -48.5h-40l-41 85q-17 35 -38 35q-19 0 -26 -20l171 -397h-120l-161 388q-11 27 -29 27q-24 0 -24 -34v-266h66v-115h-53q-147 0 -147 144v238q0 73 36 114t100 41q90 0 143 -102v1h6q0 101 71 101q46 0 71 -52l45 -90
q14 3 18.5 22.5t4.5 69.5v146z" />
    <glyph glyph-name="uni0E5A" unicode="&#xe5a;" horiz-adv-x="812" 
d="M593 575h145v-575h-145v335h-6q-26 -78 -98 -101v-234h-145v335h-6q-37 -109 -156 -109q-75 0 -120.5 44.5t-45.5 124.5q0 82 49.5 131t132.5 49h95v-115h-67q-31 0 -48 -15t-17 -43q0 -60 75 -60q108 0 108 165v68h145v-233q104 3 104 165v68z" />
    <glyph glyph-name="uni0E5B" unicode="&#xe5b;" horiz-adv-x="871" 
d="M237 80q-82 0 -131.5 47.5t-49.5 125.5q0 80 52.5 128.5t139.5 48.5h68v-115h-40q-31 0 -48 -15t-17 -42q0 -28 15 -43t41 -15q44 0 69 40.5t50 154.5h118l36 -136h2l32 136h111l60 -134h80v-110h-72q-39 0 -62 14.5t-37 47.5l-21 50h-2l-23 -142h-134l-27 142h-2
q-29 -98 -80 -140.5t-128 -42.5z" />
    <glyph glyph-name="Wgrave" unicode="&#x1e80;" horiz-adv-x="973" 
d="M471 740l-134 176l123 61l99 -194zM187 0l-158 698h150l66 -335l37 -194h3l44 194l77 335h166l78 -335l43 -194h3l37 194l67 335h144l-162 -698h-173l-88 378l-34 153h-3l-35 -153l-88 -378h-174z" />
    <glyph glyph-name="wgrave" unicode="&#x1e81;" horiz-adv-x="841" 
d="M405 579l-134 176l123 61l99 -194zM166 0l-147 525h143l51 -212l36 -160h4l42 160l60 212h135l61 -212l43 -160h4l36 160l51 212h137l-145 -525h-155l-64 222l-37 136h-3l-36 -136l-64 -222h-152z" />
    <glyph glyph-name="Wacute" unicode="&#x1e82;" horiz-adv-x="973" 
d="M502 740l-88 43l99 194l123 -61zM187 0l-158 698h150l66 -335l37 -194h3l44 194l77 335h166l78 -335l43 -194h3l37 194l67 335h144l-162 -698h-173l-88 378l-34 153h-3l-35 -153l-88 -378h-174z" />
    <glyph glyph-name="wacute" unicode="&#x1e83;" horiz-adv-x="841" 
d="M437 579l-88 43l99 194l123 -61zM166 0l-147 525h143l51 -212l36 -160h4l42 160l60 212h135l61 -212l43 -160h4l36 160l51 212h137l-145 -525h-155l-64 222l-37 136h-3l-36 -136l-64 -222h-152z" />
    <glyph glyph-name="Wdieresis" unicode="&#x1e84;" horiz-adv-x="973" 
d="M377 761q-80 0 -80 63v25q0 63 80 63t80 -63v-25q0 -63 -80 -63zM597 761q-80 0 -80 63v25q0 63 80 63t80 -63v-25q0 -63 -80 -63zM187 0l-158 698h150l66 -335l37 -194h3l44 194l77 335h166l78 -335l43 -194h3l37 194l67 335h144l-162 -698h-173l-88 378l-34 153h-3
l-35 -153l-88 -378h-174z" />
    <glyph glyph-name="wdieresis" unicode="&#x1e85;" horiz-adv-x="841" 
d="M311 600q-80 0 -80 63v25q0 63 80 63t80 -63v-25q0 -63 -80 -63zM531 600q-80 0 -80 63v25q0 63 80 63t80 -63v-25q0 -63 -80 -63zM166 0l-147 525h143l51 -212l36 -160h4l42 160l60 212h135l61 -212l43 -160h4l36 160l51 212h137l-145 -525h-155l-64 222l-37 136h-3
l-36 -136l-64 -222h-152z" />
    <glyph glyph-name="uni1E9E" unicode="&#x1e9e;" horiz-adv-x="731" 
d="M472 -12q-127 0 -198 79l95 97q47 -50 103 -50q34 0 55 22.5t21 55.5v36q0 74 -96 74h-96v117l130 151h-257v-570h-152v698h560v-139l-124 -144v-4q33 -2 64.5 -14.5t60 -34.5t46 -60t17.5 -86q0 -100 -62 -164t-167 -64z" />
    <glyph glyph-name="uni1EA0" unicode="&#x1ea0;" horiz-adv-x="685" 
d="M20 0l230 698h188l227 -698h-158l-50 166h-233l-50 -166h-154zM260 295h160l-78 265h-5zM343 -204q-81 0 -81 63v26q0 63 81 63t81 -63v-26q0 -63 -81 -63z" />
    <glyph glyph-name="uni1EA1" unicode="&#x1ea1;" horiz-adv-x="569" 
d="M197 -12q-77 0 -120 41.5t-43 111.5q0 81 59 122.5t166 41.5h83v33q0 83 -87 83q-68 0 -113 -62l-88 78q68 100 212 100q110 0 167 -49t57 -143v-230h49v-115h-82q-36 0 -62 21.5t-35 57.5l-3 13h-6q-12 -50 -52.5 -77t-101.5 -27zM252 91q40 0 65 17t25 51v62h-72
q-87 0 -87 -59v-15q0 -56 69 -56zM269 -204q-81 0 -81 63v26q0 63 81 63t81 -63v-26q0 -63 -81 -63z" />
    <glyph glyph-name="uni1EA2" unicode="&#x1ea2;" horiz-adv-x="685" 
d="M378 728l-75 35l41 92h-122v106h143q98 0 98 -73q0 -57 -57 -126zM20 0l230 698h188l227 -698h-158l-50 166h-233l-50 -166h-154zM260 295h160l-78 265h-5z" />
    <glyph glyph-name="uni1EA3" unicode="&#x1ea3;" horiz-adv-x="569" 
d="M304 570l-75 35l41 92h-122v106h143q98 0 98 -73q0 -57 -57 -126zM197 -12q-77 0 -120 41.5t-43 111.5q0 81 59 122.5t166 41.5h83v33q0 83 -87 83q-68 0 -113 -62l-88 78q68 100 212 100q110 0 167 -49t57 -143v-230h49v-115h-82q-36 0 -62 21.5t-35 57.5l-3 13h-6
q-12 -50 -52.5 -77t-101.5 -27zM252 91q40 0 65 17t25 51v62h-72q-87 0 -87 -59v-15q0 -56 69 -56z" />
    <glyph glyph-name="uni1EA4" unicode="&#x1ea4;" horiz-adv-x="685" 
d="M515 894l-79 39l99 194l114 -57zM218 731l-68 64l145 147h94l145 -147l-68 -64l-124 104zM20 0l230 698h188l227 -698h-158l-50 166h-233l-50 -166h-154zM260 295h160l-78 265h-5z" />
    <glyph glyph-name="uni1EA5" unicode="&#x1ea5;" horiz-adv-x="569" 
d="M441 736l-79 39l99 194l114 -57zM144 573l-68 64l145 147h94l145 -147l-68 -64l-124 104zM197 -12q-77 0 -120 41.5t-43 111.5q0 81 59 122.5t166 41.5h83v33q0 83 -87 83q-68 0 -113 -62l-88 78q68 100 212 100q110 0 167 -49t57 -143v-230h49v-115h-82q-36 0 -62 21.5
t-35 57.5l-3 13h-6q-12 -50 -52.5 -77t-101.5 -27zM252 91q40 0 65 17t25 51v62h-72q-87 0 -87 -59v-15q0 -56 69 -56z" />
    <glyph glyph-name="uni1EA6" unicode="&#x1ea6;" horiz-adv-x="685" 
d="M169 894l-134 176l114 57l99 -194zM218 731l-68 64l145 147h94l145 -147l-68 -64l-124 104zM20 0l230 698h188l227 -698h-158l-50 166h-233l-50 -166h-154zM260 295h160l-78 265h-5z" />
    <glyph glyph-name="uni1EA7" unicode="&#x1ea7;" horiz-adv-x="569" 
d="M95 736l-134 176l114 57l99 -194zM144 573l-68 64l145 147h94l145 -147l-68 -64l-124 104zM197 -12q-77 0 -120 41.5t-43 111.5q0 81 59 122.5t166 41.5h83v33q0 83 -87 83q-68 0 -113 -62l-88 78q68 100 212 100q110 0 167 -49t57 -143v-230h49v-115h-82q-36 0 -62 21.5
t-35 57.5l-3 13h-6q-12 -50 -52.5 -77t-101.5 -27zM252 91q40 0 65 17t25 51v62h-72q-87 0 -87 -59v-15q0 -56 69 -56z" />
    <glyph glyph-name="uni1EA8" unicode="&#x1ea8;" horiz-adv-x="685" 
d="M522 881l-66 34l43 97h-119v101h134q98 0 98 -72q0 -51 -63 -127zM218 731l-68 64l145 147h94l145 -147l-68 -64l-124 104zM20 0l230 698h188l227 -698h-158l-50 166h-233l-50 -166h-154zM260 295h160l-78 265h-5z" />
    <glyph glyph-name="uni1EA9" unicode="&#x1ea9;" horiz-adv-x="569" 
d="M448 723l-66 34l43 97h-119v101h134q98 0 98 -72q0 -51 -63 -127zM144 573l-68 64l145 147h94l145 -147l-68 -64l-124 104zM197 -12q-77 0 -120 41.5t-43 111.5q0 81 59 122.5t166 41.5h83v33q0 83 -87 83q-68 0 -113 -62l-88 78q68 100 212 100q110 0 167 -49t57 -143
v-230h49v-115h-82q-36 0 -62 21.5t-35 57.5l-3 13h-6q-12 -50 -52.5 -77t-101.5 -27zM252 91q40 0 65 17t25 51v62h-72q-87 0 -87 -59v-15q0 -56 69 -56z" />
    <glyph glyph-name="uni1EAA" unicode="&#x1eaa;" horiz-adv-x="685" 
d="M417 958q-32 0 -77 20q-53 22 -78 22q-28 0 -59 -25l-50 64q43 64 114 64q32 0 77 -20q53 -22 78 -22q28 0 59 25l50 -64q-43 -64 -114 -64zM218 731l-66 64l142 134h96l142 -134l-66 -64l-124 95zM20 0l230 698h188l227 -698h-158l-50 166h-233l-50 -166h-154zM260 295
h160l-78 265h-5z" />
    <glyph glyph-name="uni1EAB" unicode="&#x1eab;" horiz-adv-x="569" 
d="M343 800q-32 0 -77 20q-53 22 -78 22q-28 0 -59 -25l-50 64q43 64 114 64q32 0 77 -20q53 -22 78 -22q28 0 59 25l50 -64q-43 -64 -114 -64zM144 573l-66 64l142 134h96l142 -134l-66 -64l-124 95zM197 -12q-77 0 -120 41.5t-43 111.5q0 81 59 122.5t166 41.5h83v33
q0 83 -87 83q-68 0 -113 -62l-88 78q68 100 212 100q110 0 167 -49t57 -143v-230h49v-115h-82q-36 0 -62 21.5t-35 57.5l-3 13h-6q-12 -50 -52.5 -77t-101.5 -27zM252 91q40 0 65 17t25 51v62h-72q-87 0 -87 -59v-15q0 -56 69 -56z" />
    <glyph glyph-name="uni1EAC" unicode="&#x1eac;" horiz-adv-x="685" 
d="M221 739l-73 58l132 159h124l132 -159l-73 -58l-121 115zM20 0l230 698h188l227 -698h-158l-50 166h-233l-50 -166h-154zM260 295h160l-78 265h-5zM343 -204q-81 0 -81 63v26q0 63 81 63t81 -63v-26q0 -63 -81 -63z" />
    <glyph glyph-name="uni1EAD" unicode="&#x1ead;" horiz-adv-x="569" 
d="M147 578l-73 58l132 159h124l132 -159l-73 -58l-121 115zM197 -12q-77 0 -120 41.5t-43 111.5q0 81 59 122.5t166 41.5h83v33q0 83 -87 83q-68 0 -113 -62l-88 78q68 100 212 100q110 0 167 -49t57 -143v-230h49v-115h-82q-36 0 -62 21.5t-35 57.5l-3 13h-6
q-12 -50 -52.5 -77t-101.5 -27zM252 91q40 0 65 17t25 51v62h-72q-87 0 -87 -59v-15q0 -56 69 -56zM269 -204q-81 0 -81 63v26q0 63 81 63t81 -63v-26q0 -63 -81 -63z" />
    <glyph glyph-name="uni1EAE" unicode="&#x1eae;" horiz-adv-x="685" 
d="M362 894l-79 39l96 194l113 -57zM342 733q-76 0 -125.5 44t-72.5 105l75 47l20 -30q44 -65 103 -65q60 0 103 65l20 30l75 -47q-23 -61 -72.5 -105t-125.5 -44zM20 0l230 698h188l227 -698h-158l-50 166h-233l-50 -166h-154zM260 295h160l-78 265h-5z" />
    <glyph glyph-name="uni1EAF" unicode="&#x1eaf;" horiz-adv-x="569" 
d="M288 736l-79 39l96 194l113 -57zM268 575q-76 0 -125.5 44t-72.5 105l75 47l20 -30q44 -65 103 -65q60 0 103 65l20 30l75 -47q-23 -61 -72.5 -105t-125.5 -44zM197 -12q-77 0 -120 41.5t-43 111.5q0 81 59 122.5t166 41.5h83v33q0 83 -87 83q-68 0 -113 -62l-88 78
q68 100 212 100q110 0 167 -49t57 -143v-230h49v-115h-82q-36 0 -62 21.5t-35 57.5l-3 13h-6q-12 -50 -52.5 -77t-101.5 -27zM252 91q40 0 65 17t25 51v62h-72q-87 0 -87 -59v-15q0 -56 69 -56z" />
    <glyph glyph-name="uni1EB0" unicode="&#x1eb0;" horiz-adv-x="685" 
d="M322 894l-127 176l111 57l96 -192zM342 733q-76 0 -125.5 44t-72.5 105l75 47l20 -30q44 -65 103 -65q60 0 103 65l20 30l75 -47q-23 -61 -72.5 -105t-125.5 -44zM20 0l230 698h188l227 -698h-158l-50 166h-233l-50 -166h-154zM260 295h160l-78 265h-5z" />
    <glyph glyph-name="uni1EB1" unicode="&#x1eb1;" horiz-adv-x="569" 
d="M248 736l-127 176l111 57l96 -192zM268 575q-76 0 -125.5 44t-72.5 105l75 47l20 -30q44 -65 103 -65q60 0 103 65l20 30l75 -47q-23 -61 -72.5 -105t-125.5 -44zM197 -12q-77 0 -120 41.5t-43 111.5q0 81 59 122.5t166 41.5h83v33q0 83 -87 83q-68 0 -113 -62l-88 78
q68 100 212 100q110 0 167 -49t57 -143v-230h49v-115h-82q-36 0 -62 21.5t-35 57.5l-3 13h-6q-12 -50 -52.5 -77t-101.5 -27zM252 91q40 0 65 17t25 51v62h-72q-87 0 -87 -59v-15q0 -56 69 -56z" />
    <glyph glyph-name="uni1EB2" unicode="&#x1eb2;" horiz-adv-x="685" 
d="M357 881l-66 32l43 99h-122v101h136q98 0 98 -72q0 -50 -62 -127zM342 733q-76 0 -125.5 44t-72.5 105l75 47l20 -30q44 -65 103 -65q60 0 103 65l20 30l75 -47q-23 -61 -72.5 -105t-125.5 -44zM20 0l230 698h188l227 -698h-158l-50 166h-233l-50 -166h-154zM260 295h160
l-78 265h-5z" />
    <glyph glyph-name="uni1EB3" unicode="&#x1eb3;" horiz-adv-x="569" 
d="M283 723l-66 32l43 99h-122v101h136q98 0 98 -72q0 -50 -62 -127zM268 575q-76 0 -125.5 44t-72.5 105l75 47l20 -30q44 -65 103 -65q60 0 103 65l20 30l75 -47q-23 -61 -72.5 -105t-125.5 -44zM197 -12q-77 0 -120 41.5t-43 111.5q0 81 59 122.5t166 41.5h83v33
q0 83 -87 83q-68 0 -113 -62l-88 78q68 100 212 100q110 0 167 -49t57 -143v-230h49v-115h-82q-36 0 -62 21.5t-35 57.5l-3 13h-6q-12 -50 -52.5 -77t-101.5 -27zM252 91q40 0 65 17t25 51v62h-72q-87 0 -87 -59v-15q0 -56 69 -56z" />
    <glyph glyph-name="uni1EB4" unicode="&#x1eb4;" horiz-adv-x="685" 
d="M413 948q-30 0 -73 18q-51 22 -75 22q-29 0 -59 -24l-50 64q42 63 114 63q30 0 74 -20q51 -20 74 -20q28 0 59 25l50 -64q-43 -64 -114 -64zM342 733q-76 0 -125.5 44t-72.5 105l75 47l20 -30q44 -65 103 -65q60 0 103 65l20 30l75 -47q-23 -61 -72.5 -105t-125.5 -44z
M20 0l230 698h188l227 -698h-158l-50 166h-233l-50 -166h-154zM260 295h160l-78 265h-5z" />
    <glyph glyph-name="uni1EB5" unicode="&#x1eb5;" horiz-adv-x="569" 
d="M339 790q-30 0 -73 18q-51 22 -75 22q-29 0 -59 -24l-50 64q42 63 114 63q30 0 74 -20q51 -20 74 -20q28 0 59 25l50 -64q-43 -64 -114 -64zM268 575q-76 0 -125.5 44t-72.5 105l75 47l20 -30q44 -65 103 -65q60 0 103 65l20 30l75 -47q-23 -61 -72.5 -105t-125.5 -44z
M197 -12q-77 0 -120 41.5t-43 111.5q0 81 59 122.5t166 41.5h83v33q0 83 -87 83q-68 0 -113 -62l-88 78q68 100 212 100q110 0 167 -49t57 -143v-230h49v-115h-82q-36 0 -62 21.5t-35 57.5l-3 13h-6q-12 -50 -52.5 -77t-101.5 -27zM252 91q40 0 65 17t25 51v62h-72
q-87 0 -87 -59v-15q0 -56 69 -56z" />
    <glyph glyph-name="uni1EB6" unicode="&#x1eb6;" horiz-adv-x="685" 
d="M342 740q-133 0 -190 170l81 42l19 -32q24 -40 44 -58.5t46 -18.5t47 18.5t44 58.5l19 32l80 -42q-57 -170 -190 -170zM20 0l230 698h188l227 -698h-158l-50 166h-233l-50 -166h-154zM260 295h160l-78 265h-5zM343 -204q-81 0 -81 63v26q0 63 81 63t81 -63v-26
q0 -63 -81 -63z" />
    <glyph glyph-name="uni1EB7" unicode="&#x1eb7;" horiz-adv-x="569" 
d="M268 579q-42 0 -75.5 15.5t-55.5 43.5t-35 53t-24 58l81 42l20 -33q23 -39 43.5 -57.5t45.5 -18.5q44 0 90 76l20 33l80 -42q-59 -170 -190 -170zM197 -12q-77 0 -120 41.5t-43 111.5q0 81 59 122.5t166 41.5h83v33q0 83 -87 83q-68 0 -113 -62l-88 78q68 100 212 100
q110 0 167 -49t57 -143v-230h49v-115h-82q-36 0 -62 21.5t-35 57.5l-3 13h-6q-12 -50 -52.5 -77t-101.5 -27zM252 91q40 0 65 17t25 51v62h-72q-87 0 -87 -59v-15q0 -56 69 -56zM269 -204q-81 0 -81 63v26q0 63 81 63t81 -63v-26q0 -63 -81 -63z" />
    <glyph glyph-name="uni1EB8" unicode="&#x1eb8;" horiz-adv-x="607" 
d="M77 0v698h475v-135h-323v-143h277v-134h-277v-151h323v-135h-475zM316 -204q-81 0 -81 63v26q0 63 81 63t81 -63v-26q0 -63 -81 -63z" />
    <glyph glyph-name="uni1EB9" unicode="&#x1eb9;" horiz-adv-x="562" 
d="M288 -12q-119 0 -185.5 74t-66.5 201q0 126 64.5 200t181.5 74q123 0 183.5 -76t60.5 -192v-44h-337v-8q0 -53 29 -83t87 -30q42 0 70.5 16t58.5 47l74 -92q-76 -87 -220 -87zM189 312h184v9q0 49 -22.5 78t-65.5 29q-44 0 -70 -29.5t-26 -78.5v-8zM293 -204
q-81 0 -81 63v26q0 63 81 63t81 -63v-26q0 -63 -81 -63z" />
    <glyph glyph-name="uni1EBA" unicode="&#x1eba;" horiz-adv-x="607" 
d="M352 728l-75 35l41 92h-122v106h143q98 0 98 -73q0 -57 -57 -126zM77 0v698h475v-135h-323v-143h277v-134h-277v-151h323v-135h-475z" />
    <glyph glyph-name="uni1EBB" unicode="&#x1ebb;" horiz-adv-x="562" 
d="M323 570l-75 35l41 92h-122v106h143q98 0 98 -73q0 -57 -57 -126zM288 -12q-119 0 -185.5 74t-66.5 201q0 126 64.5 200t181.5 74q123 0 183.5 -76t60.5 -192v-44h-337v-8q0 -53 29 -83t87 -30q42 0 70.5 16t58.5 47l74 -92q-76 -87 -220 -87zM189 312h184v9
q0 49 -22.5 78t-65.5 29q-44 0 -70 -29.5t-26 -78.5v-8z" />
    <glyph glyph-name="uni1EBC" unicode="&#x1ebc;" horiz-adv-x="607" 
d="M392 762q-32 0 -77 20q-53 22 -78 22q-28 0 -59 -25l-52 68q43 64 114 64q32 0 77 -20q53 -22 78 -22q28 0 59 25l52 -68q-43 -64 -114 -64zM77 0v698h475v-135h-323v-143h277v-134h-277v-151h323v-135h-475z" />
    <glyph glyph-name="uni1EBD" unicode="&#x1ebd;" horiz-adv-x="562" 
d="M363 601q-32 0 -77 20q-53 22 -78 22q-28 0 -59 -25l-52 68q43 64 114 64q32 0 77 -20q53 -22 78 -22q28 0 59 25l52 -68q-43 -64 -114 -64zM288 -12q-119 0 -185.5 74t-66.5 201q0 126 64.5 200t181.5 74q123 0 183.5 -76t60.5 -192v-44h-337v-8q0 -53 29 -83t87 -30
q42 0 70.5 16t58.5 47l74 -92q-76 -87 -220 -87zM189 312h184v9q0 49 -22.5 78t-65.5 29q-44 0 -70 -29.5t-26 -78.5v-8z" />
    <glyph glyph-name="uni1EBE" unicode="&#x1ebe;" horiz-adv-x="607" 
d="M489 894l-79 39l99 194l114 -57zM192 731l-68 64l145 147h94l145 -147l-68 -64l-124 104zM77 0v698h475v-135h-323v-143h277v-134h-277v-151h323v-135h-475z" />
    <glyph glyph-name="uni1EBF" unicode="&#x1ebf;" horiz-adv-x="562" 
d="M460 736l-79 39l99 194l114 -57zM163 573l-68 64l145 147h94l145 -147l-68 -64l-124 104zM288 -12q-119 0 -185.5 74t-66.5 201q0 126 64.5 200t181.5 74q123 0 183.5 -76t60.5 -192v-44h-337v-8q0 -53 29 -83t87 -30q42 0 70.5 16t58.5 47l74 -92q-76 -87 -220 -87z
M189 312h184v9q0 49 -22.5 78t-65.5 29q-44 0 -70 -29.5t-26 -78.5v-8z" />
    <glyph glyph-name="uni1EC0" unicode="&#x1ec0;" horiz-adv-x="607" 
d="M143 894l-134 176l114 57l99 -194zM192 731l-68 64l145 147h94l145 -147l-68 -64l-124 104zM77 0v698h475v-135h-323v-143h277v-134h-277v-151h323v-135h-475z" />
    <glyph glyph-name="uni1EC1" unicode="&#x1ec1;" horiz-adv-x="562" 
d="M114 736l-134 176l114 57l99 -194zM163 573l-68 64l145 147h94l145 -147l-68 -64l-124 104zM288 -12q-119 0 -185.5 74t-66.5 201q0 126 64.5 200t181.5 74q123 0 183.5 -76t60.5 -192v-44h-337v-8q0 -53 29 -83t87 -30q42 0 70.5 16t58.5 47l74 -92q-76 -87 -220 -87z
M189 312h184v9q0 49 -22.5 78t-65.5 29q-44 0 -70 -29.5t-26 -78.5v-8z" />
    <glyph glyph-name="uni1EC2" unicode="&#x1ec2;" horiz-adv-x="607" 
d="M496 881l-66 34l43 97h-119v101h134q98 0 98 -72q0 -51 -63 -127zM192 731l-68 64l145 147h94l145 -147l-68 -64l-124 104zM77 0v698h475v-135h-323v-143h277v-134h-277v-151h323v-135h-475z" />
    <glyph glyph-name="uni1EC3" unicode="&#x1ec3;" horiz-adv-x="562" 
d="M467 723l-66 34l43 97h-119v101h134q98 0 98 -72q0 -51 -63 -127zM163 573l-68 64l145 147h94l145 -147l-68 -64l-124 104zM288 -12q-119 0 -185.5 74t-66.5 201q0 126 64.5 200t181.5 74q123 0 183.5 -76t60.5 -192v-44h-337v-8q0 -53 29 -83t87 -30q42 0 70.5 16
t58.5 47l74 -92q-76 -87 -220 -87zM189 312h184v9q0 49 -22.5 78t-65.5 29q-44 0 -70 -29.5t-26 -78.5v-8z" />
    <glyph glyph-name="uni1EC4" unicode="&#x1ec4;" horiz-adv-x="607" 
d="M391 958q-32 0 -77 20q-53 22 -78 22q-28 0 -59 -25l-50 64q43 64 114 64q32 0 77 -20q53 -22 78 -22q28 0 59 25l50 -64q-43 -64 -114 -64zM192 731l-66 64l142 134h96l142 -134l-66 -64l-124 95zM77 0v698h475v-135h-323v-143h277v-134h-277v-151h323v-135h-475z" />
    <glyph glyph-name="uni1EC5" unicode="&#x1ec5;" horiz-adv-x="562" 
d="M362 800q-32 0 -77 20q-53 22 -78 22q-28 0 -59 -25l-50 64q43 64 114 64q32 0 77 -20q53 -22 78 -22q28 0 59 25l50 -64q-43 -64 -114 -64zM163 573l-66 64l142 134h96l142 -134l-66 -64l-124 95zM288 -12q-119 0 -185.5 74t-66.5 201q0 126 64.5 200t181.5 74
q123 0 183.5 -76t60.5 -192v-44h-337v-8q0 -53 29 -83t87 -30q42 0 70.5 16t58.5 47l74 -92q-76 -87 -220 -87zM189 312h184v9q0 49 -22.5 78t-65.5 29q-44 0 -70 -29.5t-26 -78.5v-8z" />
    <glyph glyph-name="uni1EC6" unicode="&#x1ec6;" horiz-adv-x="607" 
d="M195 739l-73 58l132 159h124l132 -159l-73 -58l-121 115zM77 0v698h475v-135h-323v-143h277v-134h-277v-151h323v-135h-475zM316 -204q-81 0 -81 63v26q0 63 81 63t81 -63v-26q0 -63 -81 -63z" />
    <glyph glyph-name="uni1EC7" unicode="&#x1ec7;" horiz-adv-x="562" 
d="M166 578l-73 58l132 159h124l132 -159l-73 -58l-121 115zM288 -12q-119 0 -185.5 74t-66.5 201q0 126 64.5 200t181.5 74q123 0 183.5 -76t60.5 -192v-44h-337v-8q0 -53 29 -83t87 -30q42 0 70.5 16t58.5 47l74 -92q-76 -87 -220 -87zM189 312h184v9q0 49 -22.5 78
t-65.5 29q-44 0 -70 -29.5t-26 -78.5v-8zM293 -204q-81 0 -81 63v26q0 63 81 63t81 -63v-26q0 -63 -81 -63z" />
    <glyph glyph-name="uni1EC8" unicode="&#x1ec8;" horiz-adv-x="432" 
d="M252 728l-75 35l41 92h-122v106h143q98 0 98 -73q0 -57 -57 -126zM50 0v121h90v456h-90v121h332v-121h-90v-456h90v-121h-332z" />
    <glyph glyph-name="uni1EC9" unicode="&#x1ec9;" horiz-adv-x="286" 
d="M179 570l-75 35l41 92h-122v106h143q98 0 98 -73q0 -57 -57 -126zM69 0v525h148v-525h-148z" />
    </font>
</defs>
</svg>
