<?xml version="1.0" standalone="no"?>
<!DOCTYPE svg PUBLIC "-//W3C//DTD SVG 1.1//EN" "http://www.w3.org/Graphics/SVG/1.1/DTD/svg11.dtd" >
<svg xmlns="http://www.w3.org/2000/svg" xmlns:xlink="http://www.w3.org/1999/xlink" version="1.1">
<metadata>
Created by FontForge 20170731 at Fri Dec 20 16:32:51 2019
 By Aleksey,,,
Copyright (c) 2019 by Mike Abbink, Paul van der Laan, Pieter van Rosmalen, Mint Tantisuwanna. All rights reserved.
</metadata>
<defs>
<font id="Anuphan-Thin" horiz-adv-x="600" >
  <font-face 
    font-family="Anuphan Thin"
    font-weight="250"
    font-stretch="normal"
    units-per-em="1000"
    panose-1="2 11 5 3 5 2 3 0 2 3"
    ascent="780"
    descent="-220"
    x-height="506"
    cap-height="698"
    bbox="-556 -236 1165 1091"
    underline-thickness="16"
    underline-position="-224"
    unicode-range="U+0020-FB02"
  />
<missing-glyph horiz-adv-x="472" 
d="M32 0v780h408v-780h-408zM48 16h376v748h-376v-748z" />
    <glyph glyph-name="fi" unicode="fi" horiz-adv-x="510" 
d="M123 0v487h-93v19h93v205q0 29 29 29h108v-19h-116v-215h261v-506h-21v487h-240v-487h-21zM395 673q-23 0 -23 21v7q0 21 23 21t23 -21v-7q0 -21 -23 -21z" />
    <glyph glyph-name="fl" unicode="fl" horiz-adv-x="536" 
d="M123 0v487h-93v19h93v205q0 29 29 29h108v-19h-116v-215h116v-19h-116v-487h-21zM419 0q-29 0 -29 29v711h21v-721h85v-19h-77z" />
    <glyph glyph-name="uni0E240E45" unicode="&#xe24;&#xe45;" horiz-adv-x="915" 
d="M637 576q89 0 136 -49.5t47 -143.5v-583h-21v580q0 177 -163 177q-67 0 -111 -36t-44 -103v-618h-21v580q0 177 -180 177q-176 0 -179 -181h164v-17q-68 -9 -105.5 -47.5t-37.5 -104.5v-188h106v-19h-98q-29 0 -29 29v168q0 128 109 160v3h-130v12q0 204 200 204
q152 0 187 -118h4q9 51 53 84.5t113 33.5z" />
    <glyph glyph-name="uni0E260E45" unicode="&#xe26;&#xe45;" horiz-adv-x="915" 
d="M642 576q86 0 132 -49.5t46 -143.5v-583h-21v580q0 177 -159 177q-69 0 -114 -36t-45 -103v-618h-21v569q0 97 -45 142.5t-137 45.5q-178 0 -181 -181h173v-17q-68 -9 -105.5 -47.5t-37.5 -104.5v-178q0 -29 -29 -29h-68v19h76v178q0 128 109 160v3h-139v12
q0 204 202 204q149 0 189 -112h4q33 112 171 112z" />
    <glyph glyph-name=".notdef" horiz-adv-x="472" 
d="M32 0v780h408v-780h-408zM48 16h376v748h-376v-748z" />
    <glyph glyph-name=".null" horiz-adv-x="0" 
 />
    <glyph glyph-name="nonmarkingreturn" horiz-adv-x="333" 
 />
    <glyph glyph-name="space" unicode=" " horiz-adv-x="236" 
 />
    <glyph glyph-name="exclam" unicode="!" horiz-adv-x="252" 
d="M120 176l-5 239v283h22v-283l-5 -239h-12zM126 -5q-27 0 -27 25v8q0 25 27 25t27 -25v-8q0 -25 -27 -25z" />
    <glyph glyph-name="quotedbl" unicode="&#x22;" horiz-adv-x="373" 
d="M100 490v250h20v-250h-20zM253 490v250h20v-250h-20z" />
    <glyph glyph-name="numbersign" unicode="#" horiz-adv-x="712" 
d="M182 0l38 220h-150v19h154l37 220h-152v19h155l38 220h21l-38 -220h186l38 220h21l-38 -220h150v-19h-154l-37 -220h152v-19h-155l-38 -220h-21l38 220h-186l-38 -220h-21zM244 239h186l38 220h-186z" />
    <glyph glyph-name="dollar" unicode="$" horiz-adv-x="547" 
d="M268 -82v82q-141 3 -226 114l18 13q81 -105 208 -107v331q-114 22 -162 62t-48 117q0 83 56 125.5t154 42.5v82h20v-82q128 -6 189 -95l-18 -13q-56 82 -171 88v-310q108 -18 154.5 -59.5t46.5 -123.5q0 -88 -53 -135t-148 -50v-82h-20zM268 371v307q-90 0 -139 -37.5
t-49 -110.5q0 -70 41.5 -103.5t146.5 -55.5zM288 20q87 3 133 44.5t46 119.5q0 76 -41 112t-138 52v-328z" />
    <glyph glyph-name="percent" unicode="%" horiz-adv-x="882" 
d="M217 326q-62 0 -102 47.5t-40 144.5t40 144.5t102 47.5t102 -47.5t40 -144.5t-40 -144.5t-102 -47.5zM187 0l484 698h23l-484 -698h-23zM217 343q51 0 85.5 39.5t34.5 119.5v32q0 80 -34.5 119.5t-85.5 39.5t-85.5 -39.5t-34.5 -119.5v-32q0 -80 34.5 -119.5t85.5 -39.5z
M665 -12q-62 0 -102 47.5t-40 144.5t40 144.5t102 47.5t102 -47.5t40 -144.5t-40 -144.5t-102 -47.5zM665 5q51 0 85.5 39.5t34.5 119.5v32q0 80 -34.5 119.5t-85.5 39.5t-85.5 -39.5t-34.5 -119.5v-32q0 -80 34.5 -119.5t85.5 -39.5z" />
    <glyph glyph-name="ampersand" unicode="&#x26;" horiz-adv-x="677" 
d="M271 -12q-91 0 -146 49t-55 129q0 76 43.5 121t125.5 84q-53 58 -76 97.5t-23 85.5q0 70 46 113t123 43q73 0 116.5 -40t43.5 -100q0 -67 -48 -111.5t-148 -91.5l220 -218q32 75 32 202h109v-20h-90q-3 -120 -37 -196l133 -135h-28l-115 116q-33 -60 -91 -94t-135 -34z
M259 380q91 42 139 84.5t48 95.5v14q0 54 -40 85.5t-97 31.5q-67 0 -106.5 -36t-39.5 -91v-18q0 -39 24 -77t72 -89zM271 8q148 0 212 121l-230 229q-39 -19 -62.5 -33.5t-49 -36.5t-37 -49.5t-11.5 -62.5v-20q0 -67 50 -107.5t128 -40.5z" />
    <glyph glyph-name="quotesingle" unicode="'" horiz-adv-x="220" 
d="M100 490v250h20v-250h-20z" />
    <glyph glyph-name="parenleft" unicode="(" horiz-adv-x="332" 
d="M289 -138q-77 71 -130.5 189t-53.5 260t53.5 260t130.5 189h25q-80 -71 -134 -186t-54 -246v-34q0 -131 54 -246t134 -186h-25z" />
    <glyph glyph-name="parenright" unicode=")" horiz-adv-x="332" 
d="M18 -138q80 71 134 186t54 246v34q0 131 -54 246t-134 186h25q77 -71 130.5 -189t53.5 -260t-53.5 -260t-130.5 -189h-25z" />
    <glyph glyph-name="asterisk" unicode="*" horiz-adv-x="362" 
d="M88 436l-15 11l95 128l-151 46l6 19l150 -50l-2 157h20l-2 -157l150 50l6 -19l-151 -46l95 -128l-15 -11l-93 129z" />
    <glyph glyph-name="plus" unicode="+" 
d="M290 62v234h-228v19h228v234h21v-234h228v-19h-228v-234h-21z" />
    <glyph glyph-name="comma" unicode="," horiz-adv-x="240" 
d="M51 -147q66 64 74 142q-32 0 -32 23v9q0 26 28 26q26 0 26 -26v-12q0 -40 -22 -85.5t-55 -76.5h-19z" />
    <glyph glyph-name="hyphen" unicode="-" horiz-adv-x="395" 
d="M83 295v20h229v-20h-229z" />
    <glyph glyph-name="period" unicode="." horiz-adv-x="240" 
d="M120 -5q-27 0 -27 25v8q0 25 27 25t27 -25v-8q0 -25 -27 -25z" />
    <glyph glyph-name="slash" unicode="/" horiz-adv-x="313" 
d="M13 -151l238 891h20l-238 -891h-20z" />
    <glyph glyph-name="zero" unicode="0" 
d="M300 -12q-113 0 -171 87t-58 274t58 274t171 87t171 -87t58 -274t-58 -274t-171 -87zM300 8q100 0 152.5 78t52.5 231v64q0 153 -52.5 231t-152.5 78t-152.5 -78t-52.5 -231v-64q0 -153 52.5 -231t152.5 -78z" />
    <glyph glyph-name="one" unicode="1" 
d="M93 0v20h219v662h-3l-216 -181l-13 16l216 181h38v-678h211v-20h-452z" />
    <glyph glyph-name="two" unicode="2" 
d="M87 0v22l269 272q106 106 106 208v30q0 70 -43.5 114t-124.5 44q-143 0 -187 -139l-20 4q20 72 72 113.5t135 41.5q93 0 142.5 -51.5t49.5 -142.5q0 -121 -116 -237l-258 -259h409v-20h-434z" />
    <glyph glyph-name="three" unicode="3" 
d="M283 -12q-146 0 -213 107l18 11q62 -98 195 -98q81 0 132 44.5t51 117.5v28q0 72 -50 115t-134 43h-96v20h94q76 0 123.5 40.5t47.5 105.5v24q0 64 -45.5 104t-118.5 40q-125 0 -174 -99l-18 8q22 51 71 81t121 30q86 0 137 -47.5t51 -126.5q0 -71 -37.5 -113t-102.5 -55
v-3q72 -9 113.5 -55.5t41.5 -122.5q0 -92 -56 -145.5t-151 -53.5z" />
    <glyph glyph-name="four" unicode="4" 
d="M412 0v160h-365v21l360 517h25v-519h118v-19h-118v-160h-20zM69 179h343v491h-2z" />
    <glyph glyph-name="five" unicode="5" 
d="M297 -12q-146 0 -213 107l18 11q62 -98 195 -98q86 0 135 50t49 130v28q0 81 -46.5 129t-130.5 48q-62 0 -98.5 -16t-68.5 -54l-23 3l26 372h341v-20h-323l-24 -334l3 -1q54 70 167 70q95 0 148 -55.5t53 -154.5t-56 -157t-152 -58z" />
    <glyph glyph-name="six" unicode="6" 
d="M300 -12q-108 0 -160.5 65.5t-52.5 172.5q0 304 273 472h32q-122 -76 -190 -169.5t-89 -217.5l3 -1q52 107 183 107q97 0 154.5 -57t57.5 -155q0 -99 -57.5 -158t-153.5 -59zM299 8q86 0 137 50.5t51 128.5v31q0 78 -51 128.5t-137 50.5q-87 0 -137.5 -50.5t-50.5 -128.5
v-28q0 -80 51.5 -131t136.5 -51z" />
    <glyph glyph-name="seven" unicode="7" 
d="M187 0l302 678h-390v-166h-22v186h435v-20l-301 -678h-24z" />
    <glyph glyph-name="eight" unicode="8" 
d="M300 -12q-105 0 -166.5 52.5t-61.5 139.5q0 74 41 123t113 61v4q-61 12 -95.5 56t-34.5 111q0 80 55 127.5t149 47.5t149 -47.5t55 -127.5q0 -67 -34.5 -111t-95.5 -56v-4q72 -12 113 -61t41 -123q0 -87 -61.5 -139.5t-166.5 -52.5zM300 376q82 0 131 40t49 105v24
q0 65 -49 105t-131 40t-131 -40t-49 -105v-24q0 -65 49 -105t131 -40zM300 8q92 0 148 44.5t56 116.5v26q0 72 -56 116.5t-148 44.5t-148 -44.5t-56 -116.5v-26q0 -72 56 -116.5t148 -44.5z" />
    <glyph glyph-name="nine" unicode="9" 
d="M211 0q122 76 190 169.5t89 217.5l-3 1q-52 -107 -183 -107q-97 0 -154.5 57t-57.5 155q0 99 57.5 158t153.5 59q108 0 160.5 -65.5t52.5 -172.5q0 -304 -273 -472h-32zM304 301q87 0 137.5 50.5t50.5 128.5v28q0 80 -51 131t-137 51t-137 -50.5t-51 -128.5v-31
q0 -78 51 -128.5t137 -50.5z" />
    <glyph glyph-name="colon" unicode=":" horiz-adv-x="260" 
d="M130 453q-27 0 -27 25v8q0 25 27 25t27 -25v-8q0 -25 -27 -25zM130 -5q-27 0 -27 25v8q0 25 27 25t27 -25v-8q0 -25 -27 -25z" />
    <glyph glyph-name="semicolon" unicode=";" horiz-adv-x="260" 
d="M130 453q-27 0 -27 25v8q0 25 27 25t27 -25v-8q0 -25 -27 -25zM61 -147q66 64 74 142q-32 0 -32 23v9q0 26 28 26q26 0 26 -26v-12q0 -40 -22 -85.5t-55 -76.5h-19z" />
    <glyph glyph-name="less" unicode="&#x3c;" 
d="M515 38l-430 258v18l430 258v-23l-407 -243v-2l407 -243v-23z" />
    <glyph glyph-name="equal" unicode="=" 
d="M62 385v19h476v-19h-476zM62 207v19h476v-19h-476z" />
    <glyph glyph-name="greater" unicode="&#x3e;" 
d="M85 38v23l407 243v2l-407 243v23l430 -258v-18z" />
    <glyph glyph-name="question" unicode="?" horiz-adv-x="456" 
d="M198 176v173q94 1 147 47t53 120v26q0 67 -43.5 108t-118.5 41q-140 0 -179 -137l-20 5q43 151 199 151q85 0 135 -49t50 -130q0 -87 -52 -139.5t-149 -61.5v-154h-22zM209 -5q-27 0 -27 25v8q0 25 27 25t27 -25v-8q0 -25 -27 -25z" />
    <glyph glyph-name="at" unicode="@" horiz-adv-x="880" 
d="M440 -121q-160 0 -265 112.5t-105 308.5q0 187 105 298.5t267 111.5q158 0 263 -101t105 -279q0 -117 -35 -189t-107 -72q-39 0 -64 21.5t-29 57.5h-3q-16 -33 -51 -56t-85 -23q-82 0 -127 55.5t-45 162.5q0 109 45 165t127 56q51 0 85.5 -22t49.5 -53h3v63h20v-333
q0 -34 20 -55t54 -21q55 0 87.5 58t32.5 160v47q0 151 -98.5 245.5t-247.5 94.5q-151 0 -250.5 -103.5t-99.5 -262.5v-52q0 -166 98.5 -271.5t249.5 -105.5h236v-18h-236zM436 87q56 0 97 35t41 90v150q0 56 -40.5 92t-97.5 36q-72 0 -111 -49t-39 -135v-38q0 -84 39 -132.5
t111 -48.5z" />
    <glyph glyph-name="A" unicode="A" 
d="M32 0l253 698h30l253 -698h-23l-85 234h-320l-85 -234h-23zM147 253h306l-152 422h-3z" />
    <glyph glyph-name="B" unicode="B" horiz-adv-x="615" 
d="M108 0v698h252q75 0 116.5 -44t41.5 -126q0 -125 -98 -157v-2q64 -12 97 -58.5t33 -121.5q0 -88 -45 -138.5t-129 -50.5h-268zM130 378h230q65 0 99.5 37.5t34.5 91.5v42q0 54 -34.5 91.5t-99.5 37.5h-230v-300zM130 20h246q73 0 111.5 43t38.5 105v42q0 62 -38.5 105
t-111.5 43h-246v-338z" />
    <glyph glyph-name="C" unicode="C" horiz-adv-x="610" 
d="M329 -12q-125 0 -192 91.5t-67 269.5t67 269.5t192 91.5q74 0 130.5 -38.5t85.5 -104.5l-19 -9q-27 62 -78.5 97t-118.5 35q-112 0 -173.5 -81t-61.5 -239v-42q0 -158 61.5 -239t173.5 -81q147 0 202 140l19 -8q-28 -70 -85.5 -111t-135.5 -41z" />
    <glyph glyph-name="D" unicode="D" horiz-adv-x="658" 
d="M108 0v698h204q276 0 276 -349t-276 -349h-204zM130 20h183q126 0 188.5 79t62.5 220v60q0 141 -62.5 220t-188.5 79h-183v-658z" />
    <glyph glyph-name="E" unicode="E" horiz-adv-x="561" 
d="M108 0v698h381v-20h-359v-314h347v-20h-347v-324h359v-20h-381z" />
    <glyph glyph-name="F" unicode="F" horiz-adv-x="535" 
d="M108 0v698h373v-20h-351v-314h337v-20h-337v-344h-22z" />
    <glyph glyph-name="G" unicode="G" horiz-adv-x="666" 
d="M340 -12q-131 0 -200.5 91.5t-69.5 269.5t69.5 269.5t200.5 91.5q80 0 140 -38.5t89 -104.5l-19 -9q-27 62 -82 97t-128 35q-116 0 -181 -82t-65 -238v-42q0 -156 65 -238t181 -82q96 0 160 51.5t64 146.5v106h-176v20h198v-332h-21v114h-3q-60 -126 -222 -126z" />
    <glyph glyph-name="H" unicode="H" horiz-adv-x="692" 
d="M108 0v698h22v-334h432v334h22v-698h-22v344h-432v-344h-22z" />
    <glyph glyph-name="I" unicode="I" horiz-adv-x="372" 
d="M68 0v19h107v660h-107v19h236v-19h-107v-660h107v-19h-236z" />
    <glyph glyph-name="J" unicode="J" horiz-adv-x="464" 
d="M192 -12q-62 0 -109 34.5t-61 90.5l19 6q15 -49 55 -80t96 -31q74 0 112 45t38 130v495h-246v20h268v-515q0 -95 -45.5 -145t-126.5 -50z" />
    <glyph glyph-name="K" unicode="K" horiz-adv-x="572" 
d="M108 0v698h22v-427h2l389 427h28l-269 -295l272 -403h-26l-261 387l-135 -148v-239h-22z" />
    <glyph glyph-name="L" unicode="L" horiz-adv-x="475" 
d="M108 0v698h22v-678h325v-20h-347z" />
    <glyph glyph-name="M" unicode="M" horiz-adv-x="796" 
d="M108 0v698h33l256 -420h3l255 420h33v-698h-21v673h-3l-266 -437l-166 272l-100 165h-3v-673h-21z" />
    <glyph glyph-name="N" unicode="N" horiz-adv-x="692" 
d="M108 0v698h32l420 -671h3v671h21v-698h-32l-420 671h-3v-671h-21z" />
    <glyph glyph-name="O" unicode="O" horiz-adv-x="680" 
d="M340 -12q-131 0 -200.5 91.5t-69.5 269.5t69.5 269.5t200.5 91.5t200.5 -91.5t69.5 -269.5t-69.5 -269.5t-200.5 -91.5zM340 8q116 0 181 82t65 238v42q0 156 -65 238t-181 82t-181 -82t-65 -238v-42q0 -156 65 -238t181 -82z" />
    <glyph glyph-name="P" unicode="P" horiz-adv-x="594" 
d="M108 0v698h268q84 0 129 -50.5t45 -137.5t-45 -137.5t-129 -50.5h-246v-322h-22zM130 342h246q73 0 111.5 42.5t38.5 104.5v42q0 62 -38.5 104.5t-111.5 42.5h-246v-336z" />
    <glyph glyph-name="Q" unicode="Q" horiz-adv-x="680" 
d="M359 -146q-29 0 -29 29v105q-126 4 -193 95t-67 266q0 178 69.5 269.5t200.5 91.5t200.5 -91.5t69.5 -269.5q0 -174 -66.5 -265t-191.5 -96v-114h104v-20h-97zM340 8q116 0 181 82t65 238v42q0 156 -65 238t-181 82t-181 -82t-65 -238v-42q0 -156 65 -238t181 -82z" />
    <glyph glyph-name="R" unicode="R" horiz-adv-x="630" 
d="M108 0v698h268q84 0 129 -50.5t45 -137.5t-45.5 -137.5t-130.5 -50.5l192 -322h-25l-192 322h-219v-322h-22zM130 342h246q73 0 111.5 42.5t38.5 104.5v42q0 62 -38.5 104.5t-111.5 42.5h-246v-336z" />
    <glyph glyph-name="S" unicode="S" horiz-adv-x="547" 
d="M276 -12q-148 0 -234 114l18 13q40 -52 90.5 -79.5t125.5 -27.5q92 0 141.5 43t49.5 125q0 80 -43 115.5t-118 49.5l-70 13q-178 33 -178 180q0 87 56.5 131.5t156.5 44.5q142 0 206 -95l-18 -13q-61 88 -190 88q-90 0 -139.5 -39.5t-49.5 -116.5q0 -75 43 -110t119 -49
l70 -13q99 -19 138 -66.5t39 -117.5q0 -93 -56.5 -141.5t-156.5 -48.5z" />
    <glyph glyph-name="T" unicode="T" horiz-adv-x="560" 
d="M269 0v678h-252v20h526v-20h-252v-678h-22z" />
    <glyph glyph-name="U" unicode="U" horiz-adv-x="652" 
d="M326 -12q-126 0 -176 63t-50 219v428h22v-430q0 -144 44 -202t160 -58t160 58t44 202v430h22v-428q0 -156 -50 -219t-176 -63z" />
    <glyph glyph-name="V" unicode="V" horiz-adv-x="570" 
d="M270 0l-240 698h24l129 -379l101 -294h3l230 673h23l-240 -698h-30z" />
    <glyph glyph-name="W" unicode="W" horiz-adv-x="872" 
d="M216 0l-186 698h24l85 -324l91 -343h3l187 667h32l90 -322l97 -345h3l177 667h23l-186 -698h-30l-91 324l-98 350h-3l-188 -674h-30z" />
    <glyph glyph-name="X" unicode="X" horiz-adv-x="558" 
d="M28 0l238 354l-229 344h26l215 -322h2l215 322h26l-228 -341l237 -357h-26l-223 335h-2l-225 -335h-26z" />
    <glyph glyph-name="Y" unicode="Y" horiz-adv-x="546" 
d="M262 0v294l-241 404h25l226 -378h3l226 378h24l-241 -404v-294h-22z" />
    <glyph glyph-name="Z" unicode="Z" horiz-adv-x="555" 
d="M39 0v22l443 656h-420v20h444v-22l-443 -656h464v-20h-488z" />
    <glyph glyph-name="bracketleft" unicode="[" horiz-adv-x="301" 
d="M108 -138v898h124v-18h-104v-862h104v-18h-124z" />
    <glyph glyph-name="backslash" unicode="\" horiz-adv-x="313" 
d="M274 -151l-233 891h20l233 -891h-20z" />
    <glyph glyph-name="bracketright" unicode="]" horiz-adv-x="301" 
d="M69 -138v18h104v862h-104v18h124v-898h-124z" />
    <glyph glyph-name="asciicircum" unicode="^" 
d="M86 322l-18 10l221 366h22l221 -366l-18 -10l-213 354h-2z" />
    <glyph glyph-name="underscore" unicode="_" horiz-adv-x="569" 
d="M30 -141v18h509v-18h-509z" />
    <glyph glyph-name="grave" unicode="`" 
d="M317 587l-115 152l19 12l111 -154z" />
    <glyph glyph-name="a" unicode="a" horiz-adv-x="519" 
d="M224 -12q-78 0 -120.5 37t-42.5 105q0 145 190 145h142v74q0 150 -144 150q-113 0 -153 -95l-18 8q46 106 171 106q82 0 123.5 -42.5t41.5 -123.5v-333h85v-19h-77q-29 0 -29 29v48h-3q-46 -89 -166 -89zM224 7q72 0 120.5 37t48.5 104v109h-141q-168 0 -168 -112v-30
q0 -51 38.5 -79.5t101.5 -28.5z" />
    <glyph glyph-name="b" unicode="b" horiz-adv-x="565" 
d="M293 -12q-62 0 -104 26.5t-60 63.5h-3v-78h-21v740h21v-312h3q18 37 60 63.5t104 26.5q101 0 156.5 -67.5t55.5 -197.5t-55.5 -197.5t-156.5 -67.5zM293 7q90 0 139.5 59t49.5 163v48q0 104 -49.5 163t-139.5 59q-68 0 -117.5 -38.5t-49.5 -97.5v-220q0 -59 49.5 -97.5
t117.5 -38.5z" />
    <glyph glyph-name="c" unicode="c" horiz-adv-x="487" 
d="M270 -12q-100 0 -155 67.5t-55 197.5t55 197.5t155 67.5q113 0 165 -100l-18 -9q-50 90 -147 90q-89 0 -138 -59.5t-49 -162.5v-48q0 -103 49 -162.5t138 -59.5q107 0 158 88l16 -11q-56 -96 -174 -96z" />
    <glyph glyph-name="d" unicode="d" horiz-adv-x="565" 
d="M272 -12q-101 0 -156.5 67.5t-55.5 197.5t55.5 197.5t156.5 67.5q62 0 104 -26.5t60 -63.5h3v312h21v-740h-21v78h-3q-18 -37 -60 -63.5t-104 -26.5zM272 7q68 0 117.5 38.5t49.5 97.5v220q0 59 -49.5 97.5t-117.5 38.5q-90 0 -139.5 -59t-49.5 -163v-48
q0 -104 49.5 -163t139.5 -59z" />
    <glyph glyph-name="e" unicode="e" horiz-adv-x="533" 
d="M272 -12q-100 0 -156 68t-56 197q0 128 54.5 196.5t153.5 68.5q92 0 148.5 -68.5t56.5 -183.5v-10h-390v-27q0 -103 50 -162.5t139 -59.5q128 0 175 124l18 -7q-23 -64 -72.5 -100t-120.5 -36zM83 275h367v4q0 100 -50 160t-132 60q-88 0 -136.5 -59.5t-48.5 -162.5v-2z
" />
    <glyph glyph-name="f" unicode="f" horiz-adv-x="285" 
d="M123 0v487h-93v19h93v205q0 29 29 29h108v-19h-116v-215h116v-19h-116v-487h-21z" />
    <glyph glyph-name="g" unicode="g" horiz-adv-x="527" 
d="M262 -212q-108 0 -160 34.5t-52 95.5q0 88 99 120v3q-53 16 -53 67q0 61 85 86v3q-91 40 -91 152q0 77 46.5 123t126.5 46q65 0 111 -33v49q0 27 27 27h103v-19h-111v-74q43 -45 43 -119q0 -76 -47.5 -122.5t-125.5 -46.5q-21 0 -56 7q-91 -24 -91 -78q0 -56 87 -56h135
q163 0 163 -118q0 -147 -239 -147zM263 199q69 0 109 37t40 94v38q0 57 -40 94t-109 37t-109 -37t-40 -94v-38q0 -57 40.5 -94t108.5 -37zM238 -193h49q89 0 140.5 32t51.5 96q0 48 -33 73t-111 25h-155q-108 -27 -108 -116q0 -50 45 -80t121 -30z" />
    <glyph glyph-name="h" unicode="h" horiz-adv-x="556" 
d="M105 0v740h21v-310h3q15 38 54.5 63t103.5 25q85 0 129.5 -49.5t44.5 -143.5v-325h-21v321q0 178 -155 178q-67 0 -113 -35.5t-46 -101.5v-362h-21z" />
    <glyph glyph-name="i" unicode="i" horiz-adv-x="231" 
d="M115 673q-23 0 -23 21v7q0 21 23 21t23 -21v-7q0 -21 -23 -21zM105 0v506h21v-506h-21z" />
    <glyph glyph-name="j" unicode="j" horiz-adv-x="231" 
d="M115 673q-23 0 -23 21v7q0 21 23 21t23 -21v-7q0 -21 -23 -21zM20 -200v19h85v687h21v-677q0 -29 -29 -29h-77z" />
    <glyph glyph-name="k" unicode="k" horiz-adv-x="490" 
d="M105 0v740h21v-520h3l80 79l207 207h28l-215 -214l242 -292h-26l-231 277l-88 -87v-190h-21z" />
    <glyph glyph-name="l" unicode="l" horiz-adv-x="251" 
d="M134 0q-29 0 -29 29v711h21v-721h85v-19h-77z" />
    <glyph glyph-name="m" unicode="m" horiz-adv-x="879" 
d="M105 0v506h21v-76h3q15 38 53 63t100 25q128 0 159 -112h4q15 51 56.5 81.5t109.5 30.5q85 0 129 -49t44 -144v-325h-21v322q0 177 -154 177q-65 0 -109.5 -36t-44.5 -103v-360h-21v322q0 177 -154 177q-65 0 -109.5 -35.5t-44.5 -101.5v-362h-21z" />
    <glyph glyph-name="n" unicode="n" horiz-adv-x="556" 
d="M105 0v506h21v-76h3q15 38 54.5 63t103.5 25q85 0 129.5 -49.5t44.5 -143.5v-325h-21v321q0 178 -155 178q-67 0 -113 -35.5t-46 -101.5v-362h-21z" />
    <glyph glyph-name="o" unicode="o" horiz-adv-x="540" 
d="M270 -12q-100 0 -155 67.5t-55 197.5t55 197.5t155 67.5t155 -67.5t55 -197.5t-55 -197.5t-155 -67.5zM270 7q89 0 138 59.5t49 162.5v48q0 103 -49 162.5t-138 59.5t-138 -59.5t-49 -162.5v-48q0 -103 49 -162.5t138 -59.5z" />
    <glyph glyph-name="p" unicode="p" horiz-adv-x="565" 
d="M105 -200v706h21v-78h3q18 37 60 63.5t104 26.5q101 0 156.5 -67.5t55.5 -197.5t-55.5 -197.5t-156.5 -67.5q-62 0 -104 26.5t-60 63.5h-3v-278h-21zM293 7q90 0 139.5 59t49.5 163v48q0 104 -49.5 163t-139.5 59q-68 0 -117.5 -38.5t-49.5 -97.5v-220q0 -59 49.5 -97.5
t117.5 -38.5z" />
    <glyph glyph-name="q" unicode="q" horiz-adv-x="565" 
d="M439 -200v278h-3q-18 -37 -60 -63.5t-104 -26.5q-101 0 -156.5 67.5t-55.5 197.5t55.5 197.5t156.5 67.5q62 0 104 -26.5t60 -63.5h3v78h21v-706h-21zM272 7q68 0 117.5 38.5t49.5 97.5v220q0 59 -49.5 97.5t-117.5 38.5q-90 0 -139.5 -59t-49.5 -163v-48
q0 -104 49.5 -163t139.5 -59z" />
    <glyph glyph-name="r" unicode="r" horiz-adv-x="341" 
d="M105 0v506h21v-87h3q43 87 158 87h41v-19h-44q-66 0 -112 -36t-46 -102v-349h-21z" />
    <glyph glyph-name="s" unicode="s" horiz-adv-x="462" 
d="M236 -12q-121 0 -187 93l18 12q34 -47 73.5 -66.5t95.5 -19.5q71 0 108.5 30.5t37.5 86.5q0 55 -31.5 83t-96.5 38l-44 7q-71 11 -107.5 42.5t-36.5 94.5q0 62 45 95.5t115 33.5q102 0 167 -73l-16 -14q-60 68 -150 68q-64 0 -102 -28.5t-38 -80.5q0 -55 30 -81t97 -37
l44 -7q71 -11 108 -43.5t37 -96.5q0 -65 -44.5 -101t-122.5 -36z" />
    <glyph glyph-name="t" unicode="t" horiz-adv-x="310" 
d="M154 0q-29 0 -29 29v458h-95v19h72q13 0 18 5.5t5 19.5v119h21v-144h121v-19h-121v-468h113v-19h-105z" />
    <glyph glyph-name="u" unicode="u" horiz-adv-x="556" 
d="M269 -12q-85 0 -129.5 49.5t-44.5 143.5v325h21v-321q0 -178 155 -178q67 0 113 35.5t46 101.5v362h21v-506h-21v76h-3q-15 -38 -54.5 -63t-103.5 -25z" />
    <glyph glyph-name="v" unicode="v" horiz-adv-x="452" 
d="M213 0l-188 506h22l103 -278l75 -204h3l75 204l103 278h21l-188 -506h-26z" />
    <glyph glyph-name="w" unicode="w" horiz-adv-x="725" 
d="M189 0l-154 506h22l56 -187l88 -292h3l51 166l97 313h22l95 -306l53 -173h3l144 479h21l-154 -506h-26l-100 322l-46 150h-3l-47 -151l-99 -321h-26z" />
    <glyph glyph-name="x" unicode="x" horiz-adv-x="470" 
d="M34 0l188 255l-183 251h24l171 -235h2l171 235h24l-183 -251l188 -255h-24l-176 239h-2l-176 -239h-24z" />
    <glyph glyph-name="y" unicode="y" horiz-adv-x="452" 
d="M57 -200v19h93l66 174l-191 513h22l106 -286l72 -196h3l70 190l108 292h21l-255 -687q-7 -19 -31 -19h-84z" />
    <glyph glyph-name="z" unicode="z" horiz-adv-x="417" 
d="M27 0v21l337 466h-327v19h349v-21l-337 -466h347v-19h-369z" />
    <glyph glyph-name="braceleft" unicode="{" horiz-adv-x="315" 
d="M147 -138q-25 0 -25 26v313q0 86 -97 86v48q97 0 97 86v313q0 26 25 26h100v-18h-105v-321q0 -46 -27 -74t-72 -28v-16q45 0 72 -28t27 -74v-321h105v-18h-100z" />
    <glyph glyph-name="bar" unicode="|" horiz-adv-x="236" 
d="M108 -138v898h20v-898h-20z" />
    <glyph glyph-name="braceright" unicode="}" horiz-adv-x="315" 
d="M68 -138v18h105v321q0 46 27 74t72 28v16q-45 0 -72 28t-27 74v321h-105v18h100q25 0 25 -26v-313q0 -86 97 -86v-48q-97 0 -97 -86v-313q0 -26 -25 -26h-100z" />
    <glyph glyph-name="asciitilde" unicode="~" 
d="M424 256q-44 0 -130 39q-49 22 -71.5 29.5t-47.5 7.5q-52 0 -97 -42l-13 14q49 48 111 48q44 0 130 -39q49 -22 71.5 -29.5t47.5 -7.5q52 0 97 42l13 -14q-49 -48 -111 -48z" />
    <glyph glyph-name="uni00A0" unicode="&#xa0;" horiz-adv-x="236" 
 />
    <glyph glyph-name="exclamdown" unicode="&#xa1;" horiz-adv-x="252" 
d="M126 453q-27 0 -27 25v8q0 25 27 25t27 -25v-8q0 -25 -27 -25zM115 -192v283l5 239h12l5 -239v-283h-22z" />
    <glyph glyph-name="cent" unicode="&#xa2;" horiz-adv-x="497" 
d="M253 -114v103q-93 5 -143 72.5t-50 191.5t50 191.5t143 72.5v103h20v-102q110 -1 162 -100l-18 -9q-50 90 -144 90v-492q104 1 155 88l16 -11q-56 -96 -171 -96v-102h-20zM253 8v490q-81 -5 -125.5 -64t-44.5 -157v-48q0 -98 44.5 -157t125.5 -64z" />
    <glyph glyph-name="sterling" unicode="&#xa3;" horiz-adv-x="579" 
d="M83 0v25q96 72 96 195q0 42 -14 91h-95v20h88q-4 12 -14.5 41t-16 45.5t-10.5 42.5t-5 50q0 92 58 146t149 54q131 0 200 -118l-19 -10q-63 108 -180 108q-84 0 -135 -48t-51 -132q0 -24 5 -50t10.5 -42t16.5 -45.5t15 -41.5h218v-20h-212q14 -49 14 -90q0 -127 -94 -199
v-2h406v-20h-430z" />
    <glyph glyph-name="currency" unicode="&#xa4;" horiz-adv-x="586" 
d="M37 78l-15 15l112 113q-34 53 -34 143t34 143l-112 113l15 15l110 -111q51 60 146 60t146 -60l110 111l15 -15l-112 -113q34 -53 34 -143t-34 -143l112 -113l-15 -15l-110 111q-51 -60 -146 -60t-146 60zM293 148q80 0 125 47.5t45 130.5v46q0 83 -45 130.5t-125 47.5
t-125 -47.5t-45 -130.5v-46q0 -83 45 -130.5t125 -47.5z" />
    <glyph glyph-name="yen" unicode="&#xa5;" horiz-adv-x="580" 
d="M279 0v168h-198v19h198v138h-198v19h186l-219 354h25l216 -350h3l216 350h24l-219 -354h186v-19h-198v-138h198v-19h-198v-168h-22z" />
    <glyph glyph-name="brokenbar" unicode="&#xa6;" horiz-adv-x="236" 
d="M108 401v359h20v-359h-20zM108 -138v359h20v-359h-20z" />
    <glyph glyph-name="section" unicode="&#xa7;" horiz-adv-x="564" 
d="M269 -154q-96 0 -154 56l13 15q56 -52 142 -52q71 0 111 31.5t40 90.5q0 52 -33 80.5t-91 47.5l-67 22q-73 24 -108.5 59.5t-35.5 99.5q0 107 110 150v3q-74 44 -74 120q0 70 48.5 105.5t124.5 35.5q96 0 154 -56l-13 -15q-56 52 -142 52q-71 0 -111 -31.5t-40 -90.5
q0 -52 33 -80.5t91 -47.5l67 -22q73 -24 108.5 -59.5t35.5 -99.5q0 -107 -110 -150v-3q74 -44 74 -120q0 -70 -48.5 -105.5t-124.5 -35.5zM350 116q107 46 107 143q0 57 -31.5 89t-99.5 53l-66 21q-17 5 -46 18q-107 -46 -107 -143q0 -57 31.5 -89t99.5 -53l66 -21
q17 -5 46 -18z" />
    <glyph glyph-name="dieresis" unicode="&#xa8;" 
d="M209 642q-23 0 -23 21v7q0 21 23 21t23 -21v-7q0 -21 -23 -21zM391 642q-23 0 -23 21v7q0 21 23 21t23 -21v-7q0 -21 -23 -21z" />
    <glyph glyph-name="copyright" unicode="&#xa9;" horiz-adv-x="708" 
d="M354 -12q-143 0 -232 99t-89 262t89 262t232 99t232 -99t89 -262t-89 -262t-232 -99zM354 6q133 0 216 91t83 230v44q0 139 -83 230t-216 91t-216 -91t-83 -230v-44q0 -139 83 -230t216 -91zM351 149q-69 0 -109 51t-40 146t40.5 146t110.5 51q47 0 78.5 -22.5
t44.5 -58.5l-16 -5q-27 69 -107 69q-61 0 -96 -44t-35 -126v-20q0 -84 34.5 -127t95.5 -43q82 0 113 70l15 -7q-15 -35 -49 -57.5t-80 -22.5z" />
    <glyph glyph-name="ordfeminine" unicode="&#xaa;" horiz-adv-x="353" 
d="M149 360q-52 0 -80.5 24t-28.5 65q0 93 127 93h96v56q0 89 -99 89q-74 0 -99 -58l-15 8q29 67 114 67q56 0 87 -27t31 -76v-218h47v-17h-48q-18 0 -18 19v30h-2q-29 -55 -112 -55zM149 377q49 0 81.5 21.5t32.5 62.5v64h-97q-105 0 -105 -69v-13q0 -32 23.5 -49t64.5 -17
z" />
    <glyph glyph-name="guillemotleft" unicode="&#xab;" horiz-adv-x="472" 
d="M232 106l-198 178v20l198 178l9 -15l-184 -173l184 -173zM412 106l-198 178v20l198 178l9 -15l-184 -173l184 -173z" />
    <glyph glyph-name="logicalnot" unicode="&#xac;" 
d="M501 104v192h-439v19h460v-211h-21z" />
    <glyph glyph-name="uni00AD" unicode="&#xad;" horiz-adv-x="395" 
d="M83 295v20h229v-20h-229z" />
    <glyph glyph-name="registered" unicode="&#xae;" horiz-adv-x="466" 
d="M233 298q-87 0 -142.5 57.5t-55.5 148.5t55.5 148.5t142.5 57.5t142.5 -57.5t55.5 -148.5t-55.5 -148.5t-142.5 -57.5zM233 314q77 0 128 51t51 129v20q0 78 -51 129t-128 51t-128 -51t-51 -129v-20q0 -78 51 -129t128 -51zM168 397v212h81q63 0 63 -62
q0 -26 -13.5 -41.5t-34.5 -16.5l54 -92h-19l-52 91h-63v-91h-16zM184 503h64q25 0 35.5 9.5t10.5 32.5v7q0 23 -10.5 32.5t-35.5 9.5h-64v-91z" />
    <glyph glyph-name="macron" unicode="&#xaf;" 
d="M171 658v18h258v-18h-258z" />
    <glyph glyph-name="degree" unicode="&#xb0;" horiz-adv-x="466" 
d="M233 374q-70 0 -116 48t-46 120t46 120t116 48q69 0 115.5 -48.5t46.5 -119.5t-46.5 -119.5t-115.5 -48.5zM233 393q63 0 102 43t39 106t-39 106t-102 43t-102 -43t-39 -106t39 -106t102 -43z" />
    <glyph glyph-name="plusminus" unicode="&#xb1;" 
d="M290 115v234h-228v19h228v234h21v-234h228v-19h-228v-234h-21zM62 0v19h476v-19h-476z" />
    <glyph glyph-name="uni00B2" unicode="&#xb2;" horiz-adv-x="345" 
d="M44 329v20l139 115q84 69 84 128v10q0 38 -24.5 61.5t-70.5 23.5q-86 0 -114 -78l-17 5q13 40 46 65t85 25q55 0 85 -29.5t30 -75.5q0 -72 -93 -147l-130 -106h236v-17h-256z" />
    <glyph glyph-name="uni00B3" unicode="&#xb3;" horiz-adv-x="347" 
d="M162 323q-78 0 -120 56l14 11q40 -50 106 -50q51 0 78 22.5t27 64.5v6q0 79 -101 79h-53v17h46q101 0 101 79v6q0 34 -24 53.5t-68 19.5q-66 0 -101 -46l-14 10q36 53 115 53q53 0 82.5 -25.5t29.5 -69.5q0 -70 -70 -86v-3q77 -12 77 -89q0 -50 -33 -79t-92 -29z" />
    <glyph glyph-name="acute" unicode="&#xb4;" 
d="M282 587l-15 10l111 154l19 -12z" />
    <glyph glyph-name="uni00B5" unicode="&#xb5;" horiz-adv-x="566" 
d="M105 -200v706h21v-321q0 -178 155 -178q67 0 113 35.5t46 101.5v362h21v-506h-21v76h-3q-15 -38 -54.5 -63t-103.5 -25q-116 0 -155 91h-3l5 -123v-156h-21z" />
    <glyph glyph-name="paragraph" unicode="&#xb6;" horiz-adv-x="591" 
d="M250 -149v479q-85 0 -142 49.5t-57 134.5t57 134.5t142 49.5h243v-18h-69v-829h-21v829h-132v-829h-21z" />
    <glyph glyph-name="periodcentered" unicode="&#xb7;" horiz-adv-x="298" 
d="M149 277q-27 0 -27 25v8q0 25 27 25t27 -25v-8q0 -25 -27 -25z" />
    <glyph glyph-name="cedilla" unicode="&#xb8;" 
d="M309 -202q-58 0 -81 32l13 13q22 -27 68 -27q28 0 44.5 13.5t16.5 38.5q0 43 -61 46l-37 2l21 87h18l-19 -76l2 -2q13 3 30 3q30 0 48.5 -16t18.5 -43q0 -30 -22.5 -50.5t-59.5 -20.5z" />
    <glyph glyph-name="uni00B9" unicode="&#xb9;" horiz-adv-x="373" 
d="M60 329v17h129v337h-4l-125 -105l-11 13l127 107h32v-352h118v-17h-266z" />
    <glyph glyph-name="ordmasculine" unicode="&#xba;" horiz-adv-x="366" 
d="M183 360q-64 0 -100.5 46t-36.5 126t36.5 126t100.5 46t100.5 -46t36.5 -126t-36.5 -126t-100.5 -46zM183 377q55 0 85.5 39.5t30.5 99.5v32q0 60 -30.5 99.5t-85.5 39.5t-85.5 -39.5t-30.5 -99.5v-32q0 -60 30.5 -99.5t85.5 -39.5z" />
    <glyph glyph-name="guillemotright" unicode="&#xbb;" horiz-adv-x="472" 
d="M60 106l-9 15l184 173l-184 173l9 15l198 -178v-20zM240 106l-9 15l184 173l-184 173l9 15l198 -178v-20z" />
    <glyph glyph-name="onequarter" unicode="&#xbc;" horiz-adv-x="851" 
d="M60 329v17h129v337h-4l-125 -105l-11 13l127 107h32v-352h118v-17h-266zM228 0l447 698h22l-447 -698h-22zM738 0v89h-213v19l204 261h28v-263h66v-17h-66v-89h-19zM545 106h193v244h-3z" />
    <glyph glyph-name="onehalf" unicode="&#xbd;" horiz-adv-x="885" 
d="M60 329v17h129v337h-4l-125 -105l-11 13l127 107h32v-352h118v-17h-266zM228 0l447 698h22l-447 -698h-22zM584 0v20l139 115q84 69 84 128v10q0 38 -24.5 61.5t-70.5 23.5q-86 0 -114 -78l-17 5q13 40 46 65t85 25q55 0 85 -29.5t30 -75.5q0 -72 -93 -147l-130 -106h236
v-17h-256z" />
    <glyph glyph-name="threequarters" unicode="&#xbe;" horiz-adv-x="815" 
d="M162 323q-78 0 -120 56l14 11q40 -50 106 -50q51 0 78 22.5t27 64.5v6q0 79 -101 79h-53v17h46q101 0 101 79v6q0 34 -24 53.5t-68 19.5q-66 0 -101 -46l-14 10q36 53 115 53q53 0 82.5 -25.5t29.5 -69.5q0 -70 -70 -86v-3q77 -12 77 -89q0 -50 -33 -79t-92 -29zM192 0
l447 698h22l-447 -698h-22zM702 0v89h-213v19l204 261h28v-263h66v-17h-66v-89h-19zM509 106h193v244h-3z" />
    <glyph glyph-name="questiondown" unicode="&#xbf;" horiz-adv-x="456" 
d="M247 453q-27 0 -27 25v8q0 25 27 25t27 -25v-8q0 -25 -27 -25zM220 -204q-85 0 -135 49t-50 130q0 87 52 139.5t149 61.5v154h22v-173q-94 -1 -147 -47t-53 -120v-26q0 -67 43.5 -108t118.5 -41q140 0 179 137l20 -5q-43 -151 -199 -151z" />
    <glyph glyph-name="Agrave" unicode="&#xc0;" 
d="M317 767l-115 152l19 12l111 -154zM32 0l253 698h30l253 -698h-23l-85 234h-320l-85 -234h-23zM147 253h306l-152 422h-3z" />
    <glyph glyph-name="Aacute" unicode="&#xc1;" 
d="M282 767l-15 10l111 154l19 -12zM32 0l253 698h30l253 -698h-23l-85 234h-320l-85 -234h-23zM147 253h306l-152 422h-3z" />
    <glyph glyph-name="Acircumflex" unicode="&#xc2;" 
d="M174 779l-14 11l128 133h24l128 -133l-14 -11l-126 127zM32 0l253 698h30l253 -698h-23l-85 234h-320l-85 -234h-23zM147 253h306l-152 422h-3z" />
    <glyph glyph-name="Atilde" unicode="&#xc3;" 
d="M371 808q-31 0 -77 30q-40 26 -66 26q-34 0 -65 -33l-12 12q35 39 78 39q31 0 77 -30q40 -26 66 -26q34 0 65 33l12 -12q-35 -39 -78 -39zM32 0l253 698h30l253 -698h-23l-85 234h-320l-85 -234h-23zM147 253h306l-152 422h-3z" />
    <glyph glyph-name="Adieresis" unicode="&#xc4;" 
d="M209 819q-23 0 -23 21v7q0 21 23 21t23 -21v-7q0 -21 -23 -21zM391 819q-23 0 -23 21v7q0 21 23 21t23 -21v-7q0 -21 -23 -21zM32 0l253 698h30l253 -698h-23l-85 234h-320l-85 -234h-23zM147 253h306l-152 422h-3z" />
    <glyph glyph-name="Aring" unicode="&#xc5;" 
d="M300 769q-40 0 -65 25t-25 66t25 66t65 25t65 -25t25 -66t-25 -66t-65 -25zM300 787q32 0 51 18.5t19 49.5v10q0 31 -19 49.5t-51 18.5t-51 -18.5t-19 -49.5v-10q0 -31 19 -49.5t51 -18.5zM32 0l253 698h30l253 -698h-23l-85 234h-320l-85 -234h-23zM147 253h306
l-152 422h-3z" />
    <glyph glyph-name="AE" unicode="&#xc6;" horiz-adv-x="861" 
d="M2 0l383 698h404v-20h-359v-314h347v-20h-347v-324h359v-20h-381v234h-253l-129 -234h-24zM165 253h243v425h-11z" />
    <glyph glyph-name="Ccedilla" unicode="&#xc7;" horiz-adv-x="610" 
d="M342 -202q-58 0 -81 32l13 13q22 -27 68 -27q28 0 44.5 13.5t16.5 38.5q0 43 -61 46l-37 2l17 72q-122 2 -187 93.5t-65 267.5q0 178 67 269.5t192 91.5q74 0 130.5 -38.5t85.5 -104.5l-19 -9q-27 62 -78.5 97t-118.5 35q-112 0 -173.5 -81t-61.5 -239v-42
q0 -158 61.5 -239t173.5 -81q147 0 202 140l19 -8q-27 -68 -81.5 -108.5t-128.5 -43.5l-15 -61l2 -2q13 3 30 3q30 0 48.5 -16t18.5 -43q0 -30 -22.5 -50.5t-59.5 -20.5z" />
    <glyph glyph-name="Egrave" unicode="&#xc8;" horiz-adv-x="561" 
d="M316 767l-115 152l19 12l111 -154zM108 0v698h381v-20h-359v-314h347v-20h-347v-324h359v-20h-381z" />
    <glyph glyph-name="Eacute" unicode="&#xc9;" horiz-adv-x="561" 
d="M281 767l-15 10l111 154l19 -12zM108 0v698h381v-20h-359v-314h347v-20h-347v-324h359v-20h-381z" />
    <glyph glyph-name="Ecircumflex" unicode="&#xca;" horiz-adv-x="561" 
d="M173 779l-14 11l128 133h24l128 -133l-14 -11l-126 127zM108 0v698h381v-20h-359v-314h347v-20h-347v-324h359v-20h-381z" />
    <glyph glyph-name="Edieresis" unicode="&#xcb;" horiz-adv-x="561" 
d="M208 819q-23 0 -23 21v7q0 21 23 21t23 -21v-7q0 -21 -23 -21zM390 819q-23 0 -23 21v7q0 21 23 21t23 -21v-7q0 -21 -23 -21zM108 0v698h381v-20h-359v-314h347v-20h-347v-324h359v-20h-381z" />
    <glyph glyph-name="Igrave" unicode="&#xcc;" horiz-adv-x="372" 
d="M203 767l-115 152l19 12l111 -154zM68 0v19h107v660h-107v19h236v-19h-107v-660h107v-19h-236z" />
    <glyph glyph-name="Iacute" unicode="&#xcd;" horiz-adv-x="372" 
d="M168 767l-15 10l111 154l19 -12zM68 0v19h107v660h-107v19h236v-19h-107v-660h107v-19h-236z" />
    <glyph glyph-name="Icircumflex" unicode="&#xce;" horiz-adv-x="372" 
d="M60 779l-14 11l128 133h24l128 -133l-14 -11l-126 127zM68 0v19h107v660h-107v19h236v-19h-107v-660h107v-19h-236z" />
    <glyph glyph-name="Idieresis" unicode="&#xcf;" horiz-adv-x="372" 
d="M95 819q-23 0 -23 21v7q0 21 23 21t23 -21v-7q0 -21 -23 -21zM277 819q-23 0 -23 21v7q0 21 23 21t23 -21v-7q0 -21 -23 -21zM68 0v19h107v660h-107v19h236v-19h-107v-660h107v-19h-236z" />
    <glyph glyph-name="Eth" unicode="&#xd0;" horiz-adv-x="661" 
d="M111 0v359h-83v19h83v320h204q276 0 276 -349t-276 -349h-204zM133 20h183q126 0 188.5 79t62.5 220v60q0 141 -62.5 220t-188.5 79h-183v-300h172v-19h-172v-339z" />
    <glyph glyph-name="Ntilde" unicode="&#xd1;" horiz-adv-x="692" 
d="M417 808q-31 0 -77 30q-40 26 -66 26q-34 0 -65 -33l-12 12q35 39 78 39q31 0 77 -30q40 -26 66 -26q34 0 65 33l12 -12q-35 -39 -78 -39zM108 0v698h32l420 -671h3v671h21v-698h-32l-420 671h-3v-671h-21z" />
    <glyph glyph-name="Ograve" unicode="&#xd2;" horiz-adv-x="680" 
d="M357 767l-115 152l19 12l111 -154zM340 -12q-131 0 -200.5 91.5t-69.5 269.5t69.5 269.5t200.5 91.5t200.5 -91.5t69.5 -269.5t-69.5 -269.5t-200.5 -91.5zM340 8q116 0 181 82t65 238v42q0 156 -65 238t-181 82t-181 -82t-65 -238v-42q0 -156 65 -238t181 -82z" />
    <glyph glyph-name="Oacute" unicode="&#xd3;" horiz-adv-x="680" 
d="M322 767l-15 10l111 154l19 -12zM340 -12q-131 0 -200.5 91.5t-69.5 269.5t69.5 269.5t200.5 91.5t200.5 -91.5t69.5 -269.5t-69.5 -269.5t-200.5 -91.5zM340 8q116 0 181 82t65 238v42q0 156 -65 238t-181 82t-181 -82t-65 -238v-42q0 -156 65 -238t181 -82z" />
    <glyph glyph-name="Ocircumflex" unicode="&#xd4;" horiz-adv-x="680" 
d="M214 779l-14 11l128 133h24l128 -133l-14 -11l-126 127zM340 -12q-131 0 -200.5 91.5t-69.5 269.5t69.5 269.5t200.5 91.5t200.5 -91.5t69.5 -269.5t-69.5 -269.5t-200.5 -91.5zM340 8q116 0 181 82t65 238v42q0 156 -65 238t-181 82t-181 -82t-65 -238v-42
q0 -156 65 -238t181 -82z" />
    <glyph glyph-name="Otilde" unicode="&#xd5;" horiz-adv-x="680" 
d="M411 808q-31 0 -77 30q-40 26 -66 26q-34 0 -65 -33l-12 12q35 39 78 39q31 0 77 -30q40 -26 66 -26q34 0 65 33l12 -12q-35 -39 -78 -39zM340 -12q-131 0 -200.5 91.5t-69.5 269.5t69.5 269.5t200.5 91.5t200.5 -91.5t69.5 -269.5t-69.5 -269.5t-200.5 -91.5zM340 8
q116 0 181 82t65 238v42q0 156 -65 238t-181 82t-181 -82t-65 -238v-42q0 -156 65 -238t181 -82z" />
    <glyph glyph-name="Odieresis" unicode="&#xd6;" horiz-adv-x="680" 
d="M249 819q-23 0 -23 21v7q0 21 23 21t23 -21v-7q0 -21 -23 -21zM431 819q-23 0 -23 21v7q0 21 23 21t23 -21v-7q0 -21 -23 -21zM340 -12q-131 0 -200.5 91.5t-69.5 269.5t69.5 269.5t200.5 91.5t200.5 -91.5t69.5 -269.5t-69.5 -269.5t-200.5 -91.5zM340 8q116 0 181 82
t65 238v42q0 156 -65 238t-181 82t-181 -82t-65 -238v-42q0 -156 65 -238t181 -82z" />
    <glyph glyph-name="multiply" unicode="&#xd7;" 
d="M119 110l-14 13l182 182l-182 182l14 13l181 -182l181 182l14 -13l-182 -182l182 -182l-14 -13l-181 182z" />
    <glyph glyph-name="Oslash" unicode="&#xd8;" horiz-adv-x="680" 
d="M88 -31l-18 11l69 100q-69 92 -69 269q0 178 69.5 269.5t200.5 91.5q118 0 187 -74l66 95l17 -11l-70 -101q70 -91 70 -270q0 -178 -69.5 -269.5t-200.5 -91.5q-120 0 -187 75zM152 98l362 519q-64 73 -174 73q-116 0 -181 -82t-65 -238v-42q0 -145 58 -230zM340 8
q116 0 181 82t65 238v42q0 148 -59 230l-361 -519q64 -73 174 -73z" />
    <glyph glyph-name="Ugrave" unicode="&#xd9;" horiz-adv-x="652" 
d="M343 767l-115 152l19 12l111 -154zM326 -12q-126 0 -176 63t-50 219v428h22v-430q0 -144 44 -202t160 -58t160 58t44 202v430h22v-428q0 -156 -50 -219t-176 -63z" />
    <glyph glyph-name="Uacute" unicode="&#xda;" horiz-adv-x="652" 
d="M308 767l-15 10l111 154l19 -12zM326 -12q-126 0 -176 63t-50 219v428h22v-430q0 -144 44 -202t160 -58t160 58t44 202v430h22v-428q0 -156 -50 -219t-176 -63z" />
    <glyph glyph-name="Ucircumflex" unicode="&#xdb;" horiz-adv-x="652" 
d="M200 779l-14 11l128 133h24l128 -133l-14 -11l-126 127zM326 -12q-126 0 -176 63t-50 219v428h22v-430q0 -144 44 -202t160 -58t160 58t44 202v430h22v-428q0 -156 -50 -219t-176 -63z" />
    <glyph glyph-name="Udieresis" unicode="&#xdc;" horiz-adv-x="652" 
d="M235 819q-23 0 -23 21v7q0 21 23 21t23 -21v-7q0 -21 -23 -21zM417 819q-23 0 -23 21v7q0 21 23 21t23 -21v-7q0 -21 -23 -21zM326 -12q-126 0 -176 63t-50 219v428h22v-430q0 -144 44 -202t160 -58t160 58t44 202v430h22v-428q0 -156 -50 -219t-176 -63z" />
    <glyph glyph-name="Yacute" unicode="&#xdd;" horiz-adv-x="546" 
d="M255 767l-15 10l111 154l19 -12zM262 0v294l-241 404h25l226 -378h3l226 378h24l-241 -404v-294h-22z" />
    <glyph glyph-name="Thorn" unicode="&#xde;" horiz-adv-x="594" 
d="M108 0v698h22v-156h246q84 0 129 -50.5t45 -137.5t-45 -137.5t-129 -50.5h-246v-166h-22zM130 186h246q73 0 111.5 42.5t38.5 104.5v42q0 62 -38.5 104.5t-111.5 42.5h-246v-336z" />
    <glyph glyph-name="germandbls" unicode="&#xdf;" horiz-adv-x="645" 
d="M434 -12q-127 0 -192 93l18 12q35 -47 75 -66.5t99 -19.5q68 0 104.5 30.5t36.5 86.5q0 52 -26 77.5t-82 39.5l-44 11q-63 16 -93.5 42.5t-30.5 82.5q0 65 55 97t150 32v15q0 100 -45.5 156t-129.5 56t-129.5 -56t-45.5 -156v-521h-21v487h-93v19h93v15q0 106 51.5 168.5
t144.5 62.5t144.5 -62.5t51.5 -168.5v-33h-18q-85 0 -136 -27.5t-51 -82.5q0 -48 24.5 -70t82.5 -36l44 -11q62 -16 93.5 -46t31.5 -90q0 -65 -43 -101t-119 -36z" />
    <glyph glyph-name="agrave" unicode="&#xe0;" horiz-adv-x="519" 
d="M266 586l-115 152l19 12l111 -154zM224 -12q-78 0 -120.5 37t-42.5 105q0 145 190 145h142v74q0 150 -144 150q-113 0 -153 -95l-18 8q46 106 171 106q82 0 123.5 -42.5t41.5 -123.5v-333h85v-19h-77q-29 0 -29 29v48h-3q-46 -89 -166 -89zM224 7q72 0 120.5 37t48.5 104
v109h-141q-168 0 -168 -112v-30q0 -51 38.5 -79.5t101.5 -28.5z" />
    <glyph glyph-name="aacute" unicode="&#xe1;" horiz-adv-x="519" 
d="M231 587l-15 10l111 154l19 -12zM224 -12q-78 0 -120.5 37t-42.5 105q0 145 190 145h142v74q0 150 -144 150q-113 0 -153 -95l-18 8q46 106 171 106q82 0 123.5 -42.5t41.5 -123.5v-333h85v-19h-77q-29 0 -29 29v48h-3q-46 -89 -166 -89zM224 7q72 0 120.5 37t48.5 104
v109h-141q-168 0 -168 -112v-30q0 -51 38.5 -79.5t101.5 -28.5z" />
    <glyph glyph-name="acircumflex" unicode="&#xe2;" horiz-adv-x="519" 
d="M123 599l-14 11l128 133h24l128 -133l-14 -11l-126 127zM224 -12q-78 0 -120.5 37t-42.5 105q0 145 190 145h142v74q0 150 -144 150q-113 0 -153 -95l-18 8q46 106 171 106q82 0 123.5 -42.5t41.5 -123.5v-333h85v-19h-77q-29 0 -29 29v48h-3q-46 -89 -166 -89zM224 7
q72 0 120.5 37t48.5 104v109h-141q-168 0 -168 -112v-30q0 -51 38.5 -79.5t101.5 -28.5z" />
    <glyph glyph-name="atilde" unicode="&#xe3;" horiz-adv-x="519" 
d="M320 628q-31 0 -77 30q-40 26 -66 26q-33 0 -65 -33l-12 12q35 39 78 39q31 0 77 -30q40 -26 66 -26q33 0 65 33l12 -12q-35 -39 -78 -39zM224 -12q-78 0 -120.5 37t-42.5 105q0 145 190 145h142v74q0 150 -144 150q-113 0 -153 -95l-18 8q46 106 171 106
q82 0 123.5 -42.5t41.5 -123.5v-333h85v-19h-77q-29 0 -29 29v48h-3q-46 -89 -166 -89zM224 7q72 0 120.5 37t48.5 104v109h-141q-168 0 -168 -112v-30q0 -51 38.5 -79.5t101.5 -28.5z" />
    <glyph glyph-name="adieresis" unicode="&#xe4;" horiz-adv-x="519" 
d="M158 642q-23 0 -23 21v7q0 21 23 21t23 -21v-7q0 -21 -23 -21zM340 642q-23 0 -23 21v7q0 21 23 21t23 -21v-7q0 -21 -23 -21zM224 -12q-78 0 -120.5 37t-42.5 105q0 145 190 145h142v74q0 150 -144 150q-113 0 -153 -95l-18 8q46 106 171 106q82 0 123.5 -42.5
t41.5 -123.5v-333h85v-19h-77q-29 0 -29 29v48h-3q-46 -89 -166 -89zM224 7q72 0 120.5 37t48.5 104v109h-141q-168 0 -168 -112v-30q0 -51 38.5 -79.5t101.5 -28.5z" />
    <glyph glyph-name="aring" unicode="&#xe5;" horiz-adv-x="519" 
d="M249 589q-40 0 -65 25t-25 66t25 66t65 25t65 -25t25 -66t-25 -66t-65 -25zM249 607q32 0 51 18.5t19 49.5v10q0 31 -19 49.5t-51 18.5t-51 -18.5t-19 -49.5v-10q0 -31 19 -49.5t51 -18.5zM224 -12q-78 0 -120.5 37t-42.5 105q0 145 190 145h142v74q0 150 -144 150
q-113 0 -153 -95l-18 8q46 106 171 106q82 0 123.5 -42.5t41.5 -123.5v-333h85v-19h-77q-29 0 -29 29v48h-3q-46 -89 -166 -89zM224 7q72 0 120.5 37t48.5 104v109h-141q-168 0 -168 -112v-30q0 -51 38.5 -79.5t101.5 -28.5z" />
    <glyph glyph-name="ae" unicode="&#xe6;" horiz-adv-x="861" 
d="M219 -12q-78 0 -120.5 37t-42.5 105q0 145 190 145h142v74q0 150 -144 150q-113 0 -153 -95l-18 8q46 106 171 106q148 0 161 -136h3q23 65 71.5 100.5t116.5 35.5q92 0 148.5 -68.5t56.5 -183.5v-10h-390v-27q0 -103 50 -162.5t139 -59.5q128 0 175 124l18 -7
q-23 -64 -72.5 -100t-120.5 -36q-145 0 -192 133h-3q-12 -65 -63 -99t-123 -34zM411 275h367v4q0 100 -50 160t-132 60q-88 0 -136.5 -59.5t-48.5 -162.5v-2zM219 7q72 0 120.5 37t48.5 104v109h-141q-168 0 -168 -112v-30q0 -51 38.5 -79.5t101.5 -28.5z" />
    <glyph glyph-name="ccedilla" unicode="&#xe7;" horiz-adv-x="487" 
d="M280 -202q-58 0 -81 32l13 13q22 -27 68 -27q28 0 44.5 13.5t16.5 38.5q0 43 -61 46l-37 2l17 72q-96 3 -148 70.5t-52 194.5q0 130 55 197.5t155 67.5q113 0 165 -100l-18 -9q-50 90 -147 90q-89 0 -138 -59.5t-49 -162.5v-48q0 -103 49 -162.5t138 -59.5q107 0 158 88
l16 -11q-54 -93 -166 -96l-15 -61l2 -2q13 3 30 3q30 0 48.5 -16t18.5 -43q0 -30 -22.5 -50.5t-59.5 -20.5z" />
    <glyph glyph-name="egrave" unicode="&#xe8;" horiz-adv-x="533" 
d="M284 587l-115 152l19 12l111 -154zM272 -12q-100 0 -156 68t-56 197q0 128 54.5 196.5t153.5 68.5q92 0 148.5 -68.5t56.5 -183.5v-10h-390v-27q0 -103 50 -162.5t139 -59.5q128 0 175 124l18 -7q-23 -64 -72.5 -100t-120.5 -36zM83 275h367v4q0 100 -50 160t-132 60
q-88 0 -136.5 -59.5t-48.5 -162.5v-2z" />
    <glyph glyph-name="eacute" unicode="&#xe9;" horiz-adv-x="533" 
d="M249 587l-15 10l111 154l19 -12zM272 -12q-100 0 -156 68t-56 197q0 128 54.5 196.5t153.5 68.5q92 0 148.5 -68.5t56.5 -183.5v-10h-390v-27q0 -103 50 -162.5t139 -59.5q128 0 175 124l18 -7q-23 -64 -72.5 -100t-120.5 -36zM83 275h367v4q0 100 -50 160t-132 60
q-88 0 -136.5 -59.5t-48.5 -162.5v-2z" />
    <glyph glyph-name="ecircumflex" unicode="&#xea;" horiz-adv-x="533" 
d="M141 599l-14 11l128 133h24l128 -133l-14 -11l-126 127zM272 -12q-100 0 -156 68t-56 197q0 128 54.5 196.5t153.5 68.5q92 0 148.5 -68.5t56.5 -183.5v-10h-390v-27q0 -103 50 -162.5t139 -59.5q128 0 175 124l18 -7q-23 -64 -72.5 -100t-120.5 -36zM83 275h367v4
q0 100 -50 160t-132 60q-88 0 -136.5 -59.5t-48.5 -162.5v-2z" />
    <glyph glyph-name="edieresis" unicode="&#xeb;" horiz-adv-x="533" 
d="M176 642q-23 0 -23 21v7q0 21 23 21t23 -21v-7q0 -21 -23 -21zM358 642q-23 0 -23 21v7q0 21 23 21t23 -21v-7q0 -21 -23 -21zM272 -12q-100 0 -156 68t-56 197q0 128 54.5 196.5t153.5 68.5q92 0 148.5 -68.5t56.5 -183.5v-10h-390v-27q0 -103 50 -162.5t139 -59.5
q128 0 175 124l18 -7q-23 -64 -72.5 -100t-120.5 -36zM83 275h367v4q0 100 -50 160t-132 60q-88 0 -136.5 -59.5t-48.5 -162.5v-2z" />
    <glyph glyph-name="igrave" unicode="&#xec;" horiz-adv-x="231" 
d="M133 587l-115 152l19 12l111 -154zM105 0v506h21v-506h-21z" />
    <glyph glyph-name="iacute" unicode="&#xed;" horiz-adv-x="231" 
d="M98 587l-15 10l111 154l19 -12zM105 0v506h21v-506h-21z" />
    <glyph glyph-name="icircumflex" unicode="&#xee;" horiz-adv-x="231" 
d="M-10 599l-14 11l128 133h24l128 -133l-14 -11l-126 127zM105 0v506h21v-506h-21z" />
    <glyph glyph-name="idieresis" unicode="&#xef;" horiz-adv-x="231" 
d="M25 642q-23 0 -23 21v7q0 21 23 21t23 -21v-7q0 -21 -23 -21zM207 642q-23 0 -23 21v7q0 21 23 21t23 -21v-7q0 -21 -23 -21zM105 0v506h21v-506h-21z" />
    <glyph glyph-name="eth" unicode="&#xf0;" horiz-adv-x="544" 
d="M270 -12q-95 0 -152.5 69t-57.5 191q0 118 57.5 185t152.5 67q104 0 159 -81l3 2q-46 125 -150 229l-108 -78l-10 14l105 76q-55 49 -113 78h36q40 -23 91 -68l111 80l10 -14l-108 -78q79 -75 131.5 -183t52.5 -229q0 -122 -57.5 -191t-152.5 -69zM270 7q83 0 135 57.5
t52 153.5v52q0 96 -52 153.5t-135 57.5t-135 -57t-52 -154v-52q0 -97 52 -154t135 -57z" />
    <glyph glyph-name="ntilde" unicode="&#xf1;" horiz-adv-x="556" 
d="M355 629q-31 0 -77 30q-40 26 -66 26q-34 0 -65 -33l-12 12q35 39 78 39q31 0 77 -30q40 -26 66 -26q34 0 65 33l12 -12q-35 -39 -78 -39zM105 0v506h21v-76h3q15 38 54.5 63t103.5 25q85 0 129.5 -49.5t44.5 -143.5v-325h-21v321q0 178 -155 178q-67 0 -113 -35.5
t-46 -101.5v-362h-21z" />
    <glyph glyph-name="ograve" unicode="&#xf2;" horiz-adv-x="540" 
d="M287 587l-115 152l19 12l111 -154zM270 -12q-100 0 -155 67.5t-55 197.5t55 197.5t155 67.5t155 -67.5t55 -197.5t-55 -197.5t-155 -67.5zM270 7q89 0 138 59.5t49 162.5v48q0 103 -49 162.5t-138 59.5t-138 -59.5t-49 -162.5v-48q0 -103 49 -162.5t138 -59.5z" />
    <glyph glyph-name="oacute" unicode="&#xf3;" horiz-adv-x="540" 
d="M252 587l-15 10l111 154l19 -12zM270 -12q-100 0 -155 67.5t-55 197.5t55 197.5t155 67.5t155 -67.5t55 -197.5t-55 -197.5t-155 -67.5zM270 7q89 0 138 59.5t49 162.5v48q0 103 -49 162.5t-138 59.5t-138 -59.5t-49 -162.5v-48q0 -103 49 -162.5t138 -59.5z" />
    <glyph glyph-name="ocircumflex" unicode="&#xf4;" horiz-adv-x="540" 
d="M144 599l-14 11l128 133h24l128 -133l-14 -11l-126 127zM270 -12q-100 0 -155 67.5t-55 197.5t55 197.5t155 67.5t155 -67.5t55 -197.5t-55 -197.5t-155 -67.5zM270 7q89 0 138 59.5t49 162.5v48q0 103 -49 162.5t-138 59.5t-138 -59.5t-49 -162.5v-48q0 -103 49 -162.5
t138 -59.5z" />
    <glyph glyph-name="otilde" unicode="&#xf5;" horiz-adv-x="540" 
d="M341 628q-31 0 -77 30q-40 26 -66 26q-34 0 -65 -33l-12 12q35 39 78 39q31 0 77 -30q40 -26 66 -26q34 0 65 33l12 -12q-35 -39 -78 -39zM270 -12q-100 0 -155 67.5t-55 197.5t55 197.5t155 67.5t155 -67.5t55 -197.5t-55 -197.5t-155 -67.5zM270 7q89 0 138 59.5
t49 162.5v48q0 103 -49 162.5t-138 59.5t-138 -59.5t-49 -162.5v-48q0 -103 49 -162.5t138 -59.5z" />
    <glyph glyph-name="odieresis" unicode="&#xf6;" horiz-adv-x="540" 
d="M179 642q-23 0 -23 21v7q0 21 23 21t23 -21v-7q0 -21 -23 -21zM361 642q-23 0 -23 21v7q0 21 23 21t23 -21v-7q0 -21 -23 -21zM270 -12q-100 0 -155 67.5t-55 197.5t55 197.5t155 67.5t155 -67.5t55 -197.5t-55 -197.5t-155 -67.5zM270 7q89 0 138 59.5t49 162.5v48
q0 103 -49 162.5t-138 59.5t-138 -59.5t-49 -162.5v-48q0 -103 49 -162.5t138 -59.5z" />
    <glyph glyph-name="divide" unicode="&#xf7;" 
d="M300 468q-34 0 -34 27v8q0 27 34 27t34 -27v-8q0 -27 -34 -27zM62 296v19h476v-19h-476zM300 81q-34 0 -34 27v8q0 27 34 27t34 -27v-8q0 -27 -34 -27z" />
    <glyph glyph-name="oslash" unicode="&#xf8;" horiz-adv-x="546" 
d="M54 -26l-14 11l68 84q-45 68 -45 184q0 130 55 197.5t155 67.5q95 0 150 -61l69 85l14 -11l-72 -89q49 -67 49 -189q0 -130 -55 -197.5t-155 -67.5t-154 66zM121 85l289 356q-50 58 -137 58q-89 0 -138 -59.5t-49 -162.5v-48q0 -88 35 -144zM273 7q89 0 138 59.5
t49 162.5v48q0 93 -39 149l-289 -356q50 -63 141 -63z" />
    <glyph glyph-name="ugrave" unicode="&#xf9;" horiz-adv-x="556" 
d="M290 587l-115 152l19 12l111 -154zM269 -12q-85 0 -129.5 49.5t-44.5 143.5v325h21v-321q0 -178 155 -178q67 0 113 35.5t46 101.5v362h21v-506h-21v76h-3q-15 -38 -54.5 -63t-103.5 -25z" />
    <glyph glyph-name="uacute" unicode="&#xfa;" horiz-adv-x="556" 
d="M255 587l-15 10l111 154l19 -12zM269 -12q-85 0 -129.5 49.5t-44.5 143.5v325h21v-321q0 -178 155 -178q67 0 113 35.5t46 101.5v362h21v-506h-21v76h-3q-15 -38 -54.5 -63t-103.5 -25z" />
    <glyph glyph-name="ucircumflex" unicode="&#xfb;" horiz-adv-x="556" 
d="M147 599l-14 11l128 133h24l128 -133l-14 -11l-126 127zM269 -12q-85 0 -129.5 49.5t-44.5 143.5v325h21v-321q0 -178 155 -178q67 0 113 35.5t46 101.5v362h21v-506h-21v76h-3q-15 -38 -54.5 -63t-103.5 -25z" />
    <glyph glyph-name="udieresis" unicode="&#xfc;" horiz-adv-x="556" 
d="M182 642q-23 0 -23 21v7q0 21 23 21t23 -21v-7q0 -21 -23 -21zM364 642q-23 0 -23 21v7q0 21 23 21t23 -21v-7q0 -21 -23 -21zM269 -12q-85 0 -129.5 49.5t-44.5 143.5v325h21v-321q0 -178 155 -178q67 0 113 35.5t46 101.5v362h21v-506h-21v76h-3q-15 -38 -54.5 -63
t-103.5 -25z" />
    <glyph glyph-name="yacute" unicode="&#xfd;" horiz-adv-x="452" 
d="M209 586l-15 10l111 154l19 -12zM57 -200v19h93l66 174l-191 513h22l106 -286l72 -196h3l70 190l108 292h21l-255 -687q-7 -19 -31 -19h-84z" />
    <glyph glyph-name="thorn" unicode="&#xfe;" horiz-adv-x="565" 
d="M105 -200v940h21v-312h3q18 37 60 63.5t104 26.5q101 0 156.5 -67.5t55.5 -197.5t-55.5 -197.5t-156.5 -67.5q-62 0 -104 26.5t-60 63.5h-3v-278h-21zM293 7q90 0 139.5 59t49.5 163v48q0 104 -49.5 163t-139.5 59q-68 0 -117.5 -38.5t-49.5 -97.5v-220q0 -59 49.5 -97.5
t117.5 -38.5z" />
    <glyph glyph-name="ydieresis" unicode="&#xff;" horiz-adv-x="452" 
d="M136 641q-23 0 -23 21v7q0 21 23 21t23 -21v-7q0 -21 -23 -21zM318 641q-23 0 -23 21v7q0 21 23 21t23 -21v-7q0 -21 -23 -21zM57 -200v19h93l66 174l-191 513h22l106 -286l72 -196h3l70 190l108 292h21l-255 -687q-7 -19 -31 -19h-84z" />
    <glyph glyph-name="Amacron" unicode="&#x100;" 
d="M171 838v18h258v-18h-258zM32 0l253 698h30l253 -698h-23l-85 234h-320l-85 -234h-23zM147 253h306l-152 422h-3z" />
    <glyph glyph-name="amacron" unicode="&#x101;" horiz-adv-x="519" 
d="M120 658v18h258v-18h-258zM224 -12q-78 0 -120.5 37t-42.5 105q0 145 190 145h142v74q0 150 -144 150q-113 0 -153 -95l-18 8q46 106 171 106q82 0 123.5 -42.5t41.5 -123.5v-333h85v-19h-77q-29 0 -29 29v48h-3q-46 -89 -166 -89zM224 7q72 0 120.5 37t48.5 104v109
h-141q-168 0 -168 -112v-30q0 -51 38.5 -79.5t101.5 -28.5z" />
    <glyph glyph-name="Abreve" unicode="&#x102;" 
d="M300 786q-47 0 -73.5 27t-58.5 90l16 7l15 -27q26 -47 46.5 -62.5t54.5 -15.5t54.5 15.5t46.5 62.5l15 27l16 -7q-32 -63 -58.5 -90t-73.5 -27zM32 0l253 698h30l253 -698h-23l-85 234h-320l-85 -234h-23zM147 253h306l-152 422h-3z" />
    <glyph glyph-name="abreve" unicode="&#x103;" horiz-adv-x="519" 
d="M249 606q-47 0 -73.5 27t-58.5 90l16 7l15 -27q26 -47 46.5 -62.5t54.5 -15.5t54.5 15.5t46.5 62.5l15 27l16 -7q-32 -63 -58.5 -90t-73.5 -27zM224 -12q-78 0 -120.5 37t-42.5 105q0 145 190 145h142v74q0 150 -144 150q-113 0 -153 -95l-18 8q46 106 171 106
q82 0 123.5 -42.5t41.5 -123.5v-333h85v-19h-77q-29 0 -29 29v48h-3q-46 -89 -166 -89zM224 7q72 0 120.5 37t48.5 104v109h-141q-168 0 -168 -112v-30q0 -51 38.5 -79.5t101.5 -28.5z" />
    <glyph glyph-name="Aogonek" unicode="&#x104;" 
d="M517 -202q-35 0 -57.5 18.5t-22.5 50.5q0 72 108 133l-1 3l-10 28l-73 203h-321l-85 -234h-23l253 698h30l253 -698q-58 -39 -83.5 -68t-25.5 -64q0 -52 59 -52q39 0 60 25l14 -11q-23 -32 -75 -32zM147 253h307l-153 422h-3z" />
    <glyph glyph-name="aogonek" unicode="&#x105;" horiz-adv-x="519" 
d="M438 -202q-35 0 -57 17.5t-22 49.5q0 67 113 132l-1 3h-49q-29 0 -29 29v48h-3q-46 -89 -166 -89q-78 0 -120.5 37t-42.5 105q0 145 190 145h142v74q0 150 -144 150q-113 0 -153 -95l-18 8q46 106 171 106q81 0 123 -42.5t42 -123.5v-333h85v-19q-66 -43 -92.5 -70
t-26.5 -62q0 -52 59 -52q39 0 60 25l14 -11q-23 -32 -75 -32zM224 7q72 0 120.5 37t48.5 104v109h-141q-168 0 -168 -112v-30q0 -51 38.5 -79.5t101.5 -28.5z" />
    <glyph glyph-name="Cacute" unicode="&#x106;" horiz-adv-x="610" 
d="M314 767l-15 10l111 154l19 -12zM329 -12q-125 0 -192 91.5t-67 269.5t67 269.5t192 91.5q74 0 130.5 -38.5t85.5 -104.5l-19 -9q-27 62 -78.5 97t-118.5 35q-112 0 -173.5 -81t-61.5 -239v-42q0 -158 61.5 -239t173.5 -81q147 0 202 140l19 -8q-28 -70 -85.5 -111
t-135.5 -41z" />
    <glyph glyph-name="cacute" unicode="&#x107;" horiz-adv-x="487" 
d="M251 587l-15 10l111 154l19 -12zM270 -12q-100 0 -155 67.5t-55 197.5t55 197.5t155 67.5q113 0 165 -100l-18 -9q-50 90 -147 90q-89 0 -138 -59.5t-49 -162.5v-48q0 -103 49 -162.5t138 -59.5q107 0 158 88l16 -11q-56 -96 -174 -96z" />
    <glyph glyph-name="Ccircumflex" unicode="&#x108;" horiz-adv-x="610" 
d="M206 779l-14 11l128 133h24l128 -133l-14 -11l-126 127zM329 -12q-125 0 -192 91.5t-67 269.5t67 269.5t192 91.5q74 0 130.5 -38.5t85.5 -104.5l-19 -9q-27 62 -78.5 97t-118.5 35q-112 0 -173.5 -81t-61.5 -239v-42q0 -158 61.5 -239t173.5 -81q147 0 202 140l19 -8
q-28 -70 -85.5 -111t-135.5 -41z" />
    <glyph glyph-name="ccircumflex" unicode="&#x109;" horiz-adv-x="487" 
d="M143 599l-14 11l128 133h24l128 -133l-14 -11l-126 127zM270 -12q-100 0 -155 67.5t-55 197.5t55 197.5t155 67.5q113 0 165 -100l-18 -9q-50 90 -147 90q-89 0 -138 -59.5t-49 -162.5v-48q0 -103 49 -162.5t138 -59.5q107 0 158 88l16 -11q-56 -96 -174 -96z" />
    <glyph glyph-name="Cdotaccent" unicode="&#x10a;" horiz-adv-x="610" 
d="M332 822q-23 0 -23 21v7q0 21 23 21t23 -21v-7q0 -21 -23 -21zM329 -12q-125 0 -192 91.5t-67 269.5t67 269.5t192 91.5q74 0 130.5 -38.5t85.5 -104.5l-19 -9q-27 62 -78.5 97t-118.5 35q-112 0 -173.5 -81t-61.5 -239v-42q0 -158 61.5 -239t173.5 -81q147 0 202 140
l19 -8q-28 -70 -85.5 -111t-135.5 -41z" />
    <glyph glyph-name="cdotaccent" unicode="&#x10b;" horiz-adv-x="487" 
d="M269 642q-23 0 -23 21v7q0 21 23 21t23 -21v-7q0 -21 -23 -21zM270 -12q-100 0 -155 67.5t-55 197.5t55 197.5t155 67.5q113 0 165 -100l-18 -9q-50 90 -147 90q-89 0 -138 -59.5t-49 -162.5v-48q0 -103 49 -162.5t138 -59.5q107 0 158 88l16 -11q-56 -96 -174 -96z" />
    <glyph glyph-name="Ccaron" unicode="&#x10c;" horiz-adv-x="610" 
d="M320 783l-128 133l14 11l126 -127l126 127l14 -11l-128 -133h-24zM329 -12q-125 0 -192 91.5t-67 269.5t67 269.5t192 91.5q74 0 130.5 -38.5t85.5 -104.5l-19 -9q-27 62 -78.5 97t-118.5 35q-112 0 -173.5 -81t-61.5 -239v-42q0 -158 61.5 -239t173.5 -81q147 0 202 140
l19 -8q-28 -70 -85.5 -111t-135.5 -41z" />
    <glyph glyph-name="ccaron" unicode="&#x10d;" horiz-adv-x="487" 
d="M257 603l-128 133l14 11l126 -127l126 127l14 -11l-128 -133h-24zM270 -12q-100 0 -155 67.5t-55 197.5t55 197.5t155 67.5q113 0 165 -100l-18 -9q-50 90 -147 90q-89 0 -138 -59.5t-49 -162.5v-48q0 -103 49 -162.5t138 -59.5q107 0 158 88l16 -11q-56 -96 -174 -96z
" />
    <glyph glyph-name="Dcaron" unicode="&#x10e;" horiz-adv-x="658" 
d="M287 783l-128 133l14 11l126 -127l126 127l14 -11l-128 -133h-24zM108 0v698h204q276 0 276 -349t-276 -349h-204zM130 20h183q126 0 188.5 79t62.5 220v60q0 141 -62.5 220t-188.5 79h-183v-658z" />
    <glyph glyph-name="dcaron" unicode="&#x10f;" 
d="M272 -12q-101 0 -156.5 67.5t-55.5 197.5t55.5 197.5t156.5 67.5q62 0 104 -26.5t60 -63.5h3v312h21v-740h-21v78h-3q-18 -37 -60 -63.5t-104 -26.5zM548 564l16 176h25l-24 -176h-17zM272 7q68 0 117.5 38.5t49.5 97.5v220q0 59 -49.5 97.5t-117.5 38.5
q-90 0 -139.5 -59t-49.5 -163v-48q0 -104 49.5 -163t139.5 -59z" />
    <glyph glyph-name="Dcroat" unicode="&#x110;" horiz-adv-x="661" 
d="M111 0v359h-83v19h83v320h204q276 0 276 -349t-276 -349h-204zM133 20h183q126 0 188.5 79t62.5 220v60q0 141 -62.5 220t-188.5 79h-183v-300h172v-19h-172v-339z" />
    <glyph glyph-name="dcroat" unicode="&#x111;" horiz-adv-x="568" 
d="M272 -12q-101 0 -156.5 67.5t-55.5 197.5t55.5 197.5t156.5 67.5q62 0 104 -26.5t60 -63.5h3v201h-163v18h163v93h21v-93h66v-18h-66v-629h-21v78h-3q-18 -37 -60 -63.5t-104 -26.5zM272 7q68 0 117.5 38.5t49.5 97.5v220q0 59 -49.5 97.5t-117.5 38.5q-90 0 -139.5 -59
t-49.5 -163v-48q0 -104 49.5 -163t139.5 -59z" />
    <glyph glyph-name="Emacron" unicode="&#x112;" horiz-adv-x="561" 
d="M170 838v18h258v-18h-258zM108 0v698h381v-20h-359v-314h347v-20h-347v-324h359v-20h-381z" />
    <glyph glyph-name="emacron" unicode="&#x113;" horiz-adv-x="533" 
d="M138 658v18h258v-18h-258zM272 -12q-100 0 -156 68t-56 197q0 128 54.5 196.5t153.5 68.5q92 0 148.5 -68.5t56.5 -183.5v-10h-390v-27q0 -103 50 -162.5t139 -59.5q128 0 175 124l18 -7q-23 -64 -72.5 -100t-120.5 -36zM83 275h367v4q0 100 -50 160t-132 60
q-88 0 -136.5 -59.5t-48.5 -162.5v-2z" />
    <glyph glyph-name="Ebreve" unicode="&#x114;" horiz-adv-x="561" 
d="M299 786q-47 0 -73.5 27t-58.5 90l16 7l15 -27q26 -47 46.5 -62.5t54.5 -15.5t54.5 15.5t46.5 62.5l15 27l16 -7q-32 -63 -58.5 -90t-73.5 -27zM108 0v698h381v-20h-359v-314h347v-20h-347v-324h359v-20h-381z" />
    <glyph glyph-name="ebreve" unicode="&#x115;" horiz-adv-x="533" 
d="M267 606q-47 0 -73.5 27t-58.5 90l16 7l15 -27q26 -47 46.5 -62.5t54.5 -15.5t54.5 15.5t46.5 62.5l15 27l16 -7q-32 -63 -58.5 -90t-73.5 -27zM272 -12q-100 0 -156 68t-56 197q0 128 54.5 196.5t153.5 68.5q92 0 148.5 -68.5t56.5 -183.5v-10h-390v-27
q0 -103 50 -162.5t139 -59.5q128 0 175 124l18 -7q-23 -64 -72.5 -100t-120.5 -36zM83 275h367v4q0 100 -50 160t-132 60q-88 0 -136.5 -59.5t-48.5 -162.5v-2z" />
    <glyph glyph-name="Edotaccent" unicode="&#x116;" horiz-adv-x="561" 
d="M299 822q-23 0 -23 21v7q0 21 23 21t23 -21v-7q0 -21 -23 -21zM108 0v698h381v-20h-359v-314h347v-20h-347v-324h359v-20h-381z" />
    <glyph glyph-name="edotaccent" unicode="&#x117;" horiz-adv-x="533" 
d="M267 642q-23 0 -23 21v7q0 21 23 21t23 -21v-7q0 -21 -23 -21zM272 -12q-100 0 -156 68t-56 197q0 128 54.5 196.5t153.5 68.5q92 0 148.5 -68.5t56.5 -183.5v-10h-390v-27q0 -103 50 -162.5t139 -59.5q128 0 175 124l18 -7q-23 -64 -72.5 -100t-120.5 -36zM83 275h367v4
q0 100 -50 160t-132 60q-88 0 -136.5 -59.5t-48.5 -162.5v-2z" />
    <glyph glyph-name="Eogonek" unicode="&#x118;" horiz-adv-x="561" 
d="M428 -202q-35 0 -57 17.5t-22 49.5q0 67 112 132l-1 3h-352v698h381v-20h-359v-314h347v-20h-347v-324h359v-20q-66 -43 -92.5 -70t-26.5 -62q0 -52 59 -52q39 0 60 25l14 -11q-23 -32 -75 -32z" />
    <glyph glyph-name="eogonek" unicode="&#x119;" horiz-adv-x="533" 
d="M313 -202q-35 0 -57 18t-22 51q0 70 91 125l-1 2q-24 -6 -52 -6q-100 0 -156 68t-56 197q0 128 54.5 196.5t153.5 68.5q92 0 148.5 -68.5t56.5 -183.5v-10h-390v-27q0 -103 50 -162.5t139 -59.5q128 0 175 124l18 -7q-27 -72 -88 -110q-65 -41 -93.5 -73t-28.5 -71
q0 -54 59 -54q39 0 60 25l14 -11q-23 -32 -75 -32zM83 275h367v4q0 100 -50 160t-132 60q-88 0 -136.5 -59.5t-48.5 -162.5v-2z" />
    <glyph glyph-name="Ecaron" unicode="&#x11a;" horiz-adv-x="561" 
d="M287 783l-128 133l14 11l126 -127l126 127l14 -11l-128 -133h-24zM108 0v698h381v-20h-359v-314h347v-20h-347v-324h359v-20h-381z" />
    <glyph glyph-name="ecaron" unicode="&#x11b;" horiz-adv-x="533" 
d="M255 603l-128 133l14 11l126 -127l126 127l14 -11l-128 -133h-24zM272 -12q-100 0 -156 68t-56 197q0 128 54.5 196.5t153.5 68.5q92 0 148.5 -68.5t56.5 -183.5v-10h-390v-27q0 -103 50 -162.5t139 -59.5q128 0 175 124l18 -7q-23 -64 -72.5 -100t-120.5 -36zM83 275
h367v4q0 100 -50 160t-132 60q-88 0 -136.5 -59.5t-48.5 -162.5v-2z" />
    <glyph glyph-name="Gcircumflex" unicode="&#x11c;" horiz-adv-x="666" 
d="M214 779l-14 11l128 133h24l128 -133l-14 -11l-126 127zM340 -12q-131 0 -200.5 91.5t-69.5 269.5t69.5 269.5t200.5 91.5q80 0 140 -38.5t89 -104.5l-19 -9q-27 62 -82 97t-128 35q-116 0 -181 -82t-65 -238v-42q0 -156 65 -238t181 -82q96 0 160 51.5t64 146.5v106
h-176v20h198v-332h-21v114h-3q-60 -126 -222 -126z" />
    <glyph glyph-name="gcircumflex" unicode="&#x11d;" horiz-adv-x="527" 
d="M138 599l-14 11l128 133h24l128 -133l-14 -11l-126 127zM262 -212q-108 0 -160 34.5t-52 95.5q0 88 99 120v3q-53 16 -53 67q0 61 85 86v3q-91 40 -91 152q0 77 46.5 123t126.5 46q41 0 72 -12h166v-19h-130q65 -44 65 -138q0 -76 -47.5 -122.5t-125.5 -46.5q-21 0 -56 7
q-91 -24 -91 -78q0 -56 87 -56h135q163 0 163 -118q0 -147 -239 -147zM263 199q69 0 109 37t40 94v38q0 57 -40 94t-109 37t-109 -37t-40 -94v-38q0 -57 40.5 -94t108.5 -37zM238 -193h49q89 0 140.5 32t51.5 96q0 48 -33 73t-111 25h-155q-108 -27 -108 -116q0 -50 45 -80
t121 -30z" />
    <glyph glyph-name="Gbreve" unicode="&#x11e;" horiz-adv-x="666" 
d="M340 786q-47 0 -73.5 27t-58.5 90l16 7l15 -27q26 -47 46.5 -62.5t54.5 -15.5t54.5 15.5t46.5 62.5l15 27l16 -7q-32 -63 -58.5 -90t-73.5 -27zM340 -12q-131 0 -200.5 91.5t-69.5 269.5t69.5 269.5t200.5 91.5q80 0 140 -38.5t89 -104.5l-19 -9q-27 62 -82 97t-128 35
q-116 0 -181 -82t-65 -238v-42q0 -156 65 -238t181 -82q96 0 160 51.5t64 146.5v106h-176v20h198v-332h-21v114h-3q-60 -126 -222 -126z" />
    <glyph glyph-name="gbreve" unicode="&#x11f;" horiz-adv-x="527" 
d="M264 606q-47 0 -73.5 27t-58.5 90l16 7l15 -27q26 -47 46.5 -62.5t54.5 -15.5t54.5 15.5t46.5 62.5l15 27l16 -7q-32 -63 -58.5 -90t-73.5 -27zM262 -212q-108 0 -160 34.5t-52 95.5q0 88 99 120v3q-53 16 -53 67q0 61 85 86v3q-91 40 -91 152q0 77 46.5 123t126.5 46
q41 0 72 -12h166v-19h-130q65 -44 65 -138q0 -76 -47.5 -122.5t-125.5 -46.5q-21 0 -56 7q-91 -24 -91 -78q0 -56 87 -56h135q163 0 163 -118q0 -147 -239 -147zM263 199q69 0 109 37t40 94v38q0 57 -40 94t-109 37t-109 -37t-40 -94v-38q0 -57 40.5 -94t108.5 -37z
M238 -193h49q89 0 140.5 32t51.5 96q0 48 -33 73t-111 25h-155q-108 -27 -108 -116q0 -50 45 -80t121 -30z" />
    <glyph glyph-name="Gdotaccent" unicode="&#x120;" horiz-adv-x="666" 
d="M340 822q-23 0 -23 21v7q0 21 23 21t23 -21v-7q0 -21 -23 -21zM340 -12q-131 0 -200.5 91.5t-69.5 269.5t69.5 269.5t200.5 91.5q80 0 140 -38.5t89 -104.5l-19 -9q-27 62 -82 97t-128 35q-116 0 -181 -82t-65 -238v-42q0 -156 65 -238t181 -82q96 0 160 51.5t64 146.5
v106h-176v20h198v-332h-21v114h-3q-60 -126 -222 -126z" />
    <glyph glyph-name="gdotaccent" unicode="&#x121;" horiz-adv-x="527" 
d="M264 642q-23 0 -23 21v7q0 21 23 21t23 -21v-7q0 -21 -23 -21zM262 -212q-108 0 -160 34.5t-52 95.5q0 88 99 120v3q-53 16 -53 67q0 61 85 86v3q-91 40 -91 152q0 77 46.5 123t126.5 46q41 0 72 -12h166v-19h-130q65 -44 65 -138q0 -76 -47.5 -122.5t-125.5 -46.5
q-21 0 -56 7q-91 -24 -91 -78q0 -56 87 -56h135q163 0 163 -118q0 -147 -239 -147zM263 199q69 0 109 37t40 94v38q0 57 -40 94t-109 37t-109 -37t-40 -94v-38q0 -57 40.5 -94t108.5 -37zM238 -193h49q89 0 140.5 32t51.5 96q0 48 -33 73t-111 25h-155q-108 -27 -108 -116
q0 -50 45 -80t121 -30z" />
    <glyph glyph-name="uni0122" unicode="&#x122;" horiz-adv-x="666" 
d="M340 -12q-131 0 -200.5 91.5t-69.5 269.5t69.5 269.5t200.5 91.5q80 0 140 -38.5t89 -104.5l-19 -9q-27 62 -82 97t-128 35q-116 0 -181 -82t-65 -238v-42q0 -156 65 -238t181 -82q96 0 160 51.5t64 146.5v106h-176v20h198v-332h-21v114h-3q-60 -126 -222 -126zM300 -212
q38 41 45 96q-28 0 -28 20v8q0 22 24 22q22 0 22 -22v-11q0 -26 -13 -59t-32 -54h-18z" />
    <glyph glyph-name="uni0123" unicode="&#x123;" horiz-adv-x="527" 
d="M263 599q-22 0 -22 22v11q0 26 13 59t32 54h18q-38 -41 -45 -96q28 0 28 -20v-8q0 -22 -24 -22zM262 -212q-108 0 -160 34.5t-52 95.5q0 88 99 120v3q-53 16 -53 67q0 61 85 86v3q-91 40 -91 152q0 77 46.5 123t126.5 46q41 0 72 -12h166v-19h-130q65 -44 65 -138
q0 -76 -47.5 -122.5t-125.5 -46.5q-21 0 -56 7q-91 -24 -91 -78q0 -56 87 -56h135q163 0 163 -118q0 -147 -239 -147zM263 199q69 0 109 37t40 94v38q0 57 -40 94t-109 37t-109 -37t-40 -94v-38q0 -57 40.5 -94t108.5 -37zM238 -193h49q89 0 140.5 32t51.5 96q0 48 -33 73
t-111 25h-155q-108 -27 -108 -116q0 -50 45 -80t121 -30z" />
    <glyph glyph-name="Hcircumflex" unicode="&#x124;" horiz-adv-x="692" 
d="M220 779l-14 11l128 133h24l128 -133l-14 -11l-126 127zM108 0v698h22v-334h432v334h22v-698h-22v344h-432v-344h-22z" />
    <glyph glyph-name="hcircumflex" unicode="&#x125;" horiz-adv-x="556" 
d="M-10 757l-14 11l128 133h24l128 -133l-14 -11l-126 127zM105 0v740h21v-310h3q15 38 54.5 63t103.5 25q85 0 129.5 -49.5t44.5 -143.5v-325h-21v321q0 178 -155 178q-67 0 -113 -35.5t-46 -101.5v-362h-21z" />
    <glyph glyph-name="Hbar" unicode="&#x126;" horiz-adv-x="698" 
d="M111 0v537h-83v19h83v142h22v-142h432v142h22v-142h83v-19h-83v-537h-22v344h-432v-344h-22zM133 364h432v173h-432v-173z" />
    <glyph glyph-name="hbar" unicode="&#x127;" horiz-adv-x="559" 
d="M108 0v629h-66v18h66v93h21v-93h163v-18h-163v-199h3q15 38 54.5 63t103.5 25q85 0 129.5 -49.5t44.5 -143.5v-325h-21v321q0 178 -155 178q-67 0 -113 -35.5t-46 -101.5v-362h-21z" />
    <glyph glyph-name="Itilde" unicode="&#x128;" horiz-adv-x="372" 
d="M257 808q-31 0 -77 30q-40 26 -66 26q-34 0 -65 -33l-12 12q35 39 78 39q31 0 77 -30q40 -26 66 -26q34 0 65 33l12 -12q-35 -39 -78 -39zM68 0v19h107v660h-107v19h236v-19h-107v-660h107v-19h-236z" />
    <glyph glyph-name="itilde" unicode="&#x129;" horiz-adv-x="231" 
d="M187 628q-31 0 -77 30q-40 26 -66 26q-34 0 -65 -33l-12 12q35 39 78 39q31 0 77 -30q40 -26 66 -26q33 0 65 33l12 -12q-35 -39 -78 -39zM105 0v506h21v-506h-21z" />
    <glyph glyph-name="Imacron" unicode="&#x12a;" horiz-adv-x="372" 
d="M57 838v18h258v-18h-258zM68 0v19h107v660h-107v19h236v-19h-107v-660h107v-19h-236z" />
    <glyph glyph-name="imacron" unicode="&#x12b;" horiz-adv-x="231" 
d="M-13 658v18h258v-18h-258zM105 0v506h21v-506h-21z" />
    <glyph glyph-name="Ibreve" unicode="&#x12c;" horiz-adv-x="372" 
d="M186 786q-47 0 -73.5 27t-58.5 90l16 7l15 -27q26 -47 46.5 -62.5t54.5 -15.5t54.5 15.5t46.5 62.5l15 27l16 -7q-32 -63 -58.5 -90t-73.5 -27zM68 0v19h107v660h-107v19h236v-19h-107v-660h107v-19h-236z" />
    <glyph glyph-name="ibreve" unicode="&#x12d;" horiz-adv-x="231" 
d="M116 606q-47 0 -73.5 27t-58.5 90l16 7l15 -27q26 -47 46.5 -62.5t54.5 -15.5t54.5 15.5t46.5 62.5l15 27l16 -7q-32 -63 -58.5 -90t-73.5 -27zM105 0v506h21v-506h-21z" />
    <glyph glyph-name="Iogonek" unicode="&#x12e;" horiz-adv-x="372" 
d="M243 -202q-35 0 -57 17.5t-22 49.5q0 66 112 132l-1 3h-207v19h107v660h-107v19h236v-19h-107v-660h107v-19q-66 -43 -92.5 -70t-26.5 -62q0 -52 59 -52q39 0 60 25l14 -11q-23 -32 -75 -32z" />
    <glyph glyph-name="iogonek" unicode="&#x12f;" horiz-adv-x="231" 
d="M116 673q-23 0 -23 21v7q0 21 23 21t23 -21v-7q0 -21 -23 -21zM95 -202q-35 0 -57 18.5t-22 50.5q0 34 20.5 64t68.5 69v506h21v-506q-36 -34 -50.5 -49.5t-26.5 -37t-12 -43.5q0 -54 59 -54q39 0 60 25l14 -11q-23 -32 -75 -32z" />
    <glyph glyph-name="Idotaccent" unicode="&#x130;" horiz-adv-x="372" 
d="M186 822q-23 0 -23 21v7q0 21 23 21t23 -21v-7q0 -21 -23 -21zM68 0v19h107v660h-107v19h236v-19h-107v-660h107v-19h-236z" />
    <glyph glyph-name="dotlessi" unicode="&#x131;" horiz-adv-x="231" 
d="M105 0v506h21v-506h-21z" />
    <glyph glyph-name="IJ" unicode="&#x132;" horiz-adv-x="631" 
d="M310 -12q-91 0 -141.5 35t-68.5 110l19 6q20 -69 65 -100t126 -31q96 0 147.5 50t51.5 144v476h-196v20h218v-496q0 -104 -57 -159t-164 -55zM100 290v408h22v-408h-22z" />
    <glyph glyph-name="ij" unicode="&#x133;" horiz-adv-x="462" 
d="M115 673q-23 0 -23 21v7q0 21 23 21t23 -21v-7q0 -21 -23 -21zM361 673q-23 0 -23 21v7q0 21 23 21t23 -21v-7q0 -21 -23 -21zM105 0v506h21v-506h-21zM266 -200v19h85v687h21v-677q0 -29 -29 -29h-77z" />
    <glyph glyph-name="Jcircumflex" unicode="&#x134;" horiz-adv-x="464" 
d="M106 779l-14 11l128 133h24l128 -133l-14 -11l-126 127zM192 -12q-62 0 -109 34.5t-61 90.5l19 6q15 -49 55 -80t96 -31q74 0 112 45t38 130v495h-246v20h268v-515q0 -95 -45.5 -145t-126.5 -50z" />
    <glyph glyph-name="jcircumflex" unicode="&#x135;" horiz-adv-x="231" 
d="M-10 599l-14 11l128 133h24l128 -133l-14 -11l-126 127zM20 -200v19h85v687h21v-677q0 -29 -29 -29h-77z" />
    <glyph glyph-name="uni0136" unicode="&#x136;" horiz-adv-x="572" 
d="M108 0v698h22v-427h2l389 427h28l-269 -295l272 -403h-26l-261 387l-135 -148v-239h-22zM274 -212q38 41 45 96q-28 0 -28 20v8q0 22 24 22q22 0 22 -22v-11q0 -26 -13 -59t-32 -54h-18z" />
    <glyph glyph-name="uni0137" unicode="&#x137;" horiz-adv-x="490" 
d="M105 0v740h21v-520h3l80 79l207 207h28l-215 -214l242 -292h-26l-231 277l-88 -87v-190h-21zM230 -212q38 41 45 96q-28 0 -28 20v8q0 22 24 22q22 0 22 -22v-11q0 -26 -13 -59t-32 -54h-18z" />
    <glyph glyph-name="kgreenlandic" unicode="&#x138;" horiz-adv-x="490" 
d="M105 0v506h21v-297h3l81 80l217 217h27l-224 -224l241 -282h-26l-230 267l-89 -87v-180h-21z" />
    <glyph glyph-name="Lacute" unicode="&#x139;" horiz-adv-x="475" 
d="M100 767l-15 10l111 154l19 -12zM108 0v698h22v-678h325v-20h-347z" />
    <glyph glyph-name="lacute" unicode="&#x13a;" horiz-adv-x="251" 
d="M108 787l-15 10l111 154l19 -12zM134 0q-29 0 -29 29v711h21v-721h85v-19h-77z" />
    <glyph glyph-name="uni013B" unicode="&#x13b;" horiz-adv-x="475" 
d="M108 0v698h22v-678h325v-20h-347zM252 -212q38 41 45 96q-28 0 -28 20v8q0 22 24 22q22 0 22 -22v-11q0 -26 -13 -59t-32 -54h-18z" />
    <glyph glyph-name="uni013C" unicode="&#x13c;" horiz-adv-x="251" 
d="M134 0q-29 0 -29 29v711h21v-721h85v-19h-77zM122 -212q38 41 45 96q-28 0 -28 20v8q0 22 24 22q22 0 22 -22v-11q0 -26 -13 -59t-32 -54h-18z" />
    <glyph glyph-name="Lcaron" unicode="&#x13d;" horiz-adv-x="475" 
d="M230 564l16 176h25l-24 -176h-17zM108 0v698h22v-678h325v-20h-347z" />
    <glyph glyph-name="lcaron" unicode="&#x13e;" horiz-adv-x="251" 
d="M134 0q-29 0 -29 29v711h21v-721h85v-19h-77zM220 564l16 176h25l-24 -176h-17z" />
    <glyph glyph-name="Ldot" unicode="&#x13f;" horiz-adv-x="475" 
d="M108 0v698h22v-678h325v-20h-347zM359 270q-23 0 -23 21v7q0 21 23 21t23 -21v-7q0 -21 -23 -21z" />
    <glyph glyph-name="ldot" unicode="&#x140;" horiz-adv-x="276" 
d="M134 0q-29 0 -29 29v711h21v-721h85v-19h-77zM250 239q-23 0 -23 21v7q0 21 23 21t23 -21v-7q0 -21 -23 -21z" />
    <glyph glyph-name="Lslash" unicode="&#x141;" horiz-adv-x="478" 
d="M111 0v303l-97 -31v20l97 31v375h22v-368l204 64v-20l-204 -64v-290h325v-20h-347z" />
    <glyph glyph-name="lslash" unicode="&#x142;" horiz-adv-x="257" 
d="M137 0q-29 0 -29 29v322l-74 -24v20l74 24v369h21v-362l92 30v-20l-92 -30v-339h85v-19h-77z" />
    <glyph glyph-name="Nacute" unicode="&#x143;" horiz-adv-x="692" 
d="M328 767l-15 10l111 154l19 -12zM108 0v698h32l420 -671h3v671h21v-698h-32l-420 671h-3v-671h-21z" />
    <glyph glyph-name="nacute" unicode="&#x144;" horiz-adv-x="556" 
d="M266 588l-15 10l111 154l19 -12zM105 0v506h21v-76h3q15 38 54.5 63t103.5 25q85 0 129.5 -49.5t44.5 -143.5v-325h-21v321q0 178 -155 178q-67 0 -113 -35.5t-46 -101.5v-362h-21z" />
    <glyph glyph-name="uni0145" unicode="&#x145;" horiz-adv-x="692" 
d="M108 0v698h32l420 -671h3v671h21v-698h-32l-420 671h-3v-671h-21zM306 -212q38 41 45 96q-28 0 -28 20v8q0 22 24 22q22 0 22 -22v-11q0 -26 -13 -59t-32 -54h-18z" />
    <glyph glyph-name="uni0146" unicode="&#x146;" horiz-adv-x="556" 
d="M105 0v506h21v-76h3q15 38 54.5 63t103.5 25q85 0 129.5 -49.5t44.5 -143.5v-325h-21v321q0 178 -155 178q-67 0 -113 -35.5t-46 -101.5v-362h-21zM238 -212q38 41 45 96q-28 0 -28 20v8q0 22 24 22q22 0 22 -22v-11q0 -26 -13 -59t-32 -54h-18z" />
    <glyph glyph-name="Ncaron" unicode="&#x147;" horiz-adv-x="692" 
d="M334 783l-128 133l14 11l126 -127l126 127l14 -11l-128 -133h-24zM108 0v698h32l420 -671h3v671h21v-698h-32l-420 671h-3v-671h-21z" />
    <glyph glyph-name="ncaron" unicode="&#x148;" horiz-adv-x="556" 
d="M272 604l-128 133l14 11l126 -127l126 127l14 -11l-128 -133h-24zM105 0v506h21v-76h3q15 38 54.5 63t103.5 25q85 0 129.5 -49.5t44.5 -143.5v-325h-21v321q0 178 -155 178q-67 0 -113 -35.5t-46 -101.5v-362h-21z" />
    <glyph glyph-name="napostrophe" unicode="&#x149;" horiz-adv-x="761" 
d="M59 550q66 64 74 142q-32 0 -32 23v9q0 26 28 26q26 0 26 -26v-12q0 -40 -22 -85.5t-55 -76.5h-19zM310 0v506h21v-76h3q15 38 54.5 63t103.5 25q85 0 129.5 -49.5t44.5 -143.5v-325h-21v321q0 178 -155 178q-67 0 -113 -35.5t-46 -101.5v-362h-21z" />
    <glyph glyph-name="Eng" unicode="&#x14a;" horiz-adv-x="692" 
d="M478 -200v19h85v181h-11l-420 671h-3v-671h-21v698h32l420 -671h3v671h21v-869q0 -29 -29 -29h-77z" />
    <glyph glyph-name="eng" unicode="&#x14b;" horiz-adv-x="556" 
d="M355 -200v19h85v502q0 178 -155 178q-67 0 -113 -35.5t-46 -101.5v-362h-21v506h21v-76h3q15 38 54.5 63t103.5 25q85 0 129.5 -49.5t44.5 -143.5v-496q0 -29 -29 -29h-77z" />
    <glyph glyph-name="Omacron" unicode="&#x14c;" horiz-adv-x="680" 
d="M211 838v18h258v-18h-258zM340 -12q-131 0 -200.5 91.5t-69.5 269.5t69.5 269.5t200.5 91.5t200.5 -91.5t69.5 -269.5t-69.5 -269.5t-200.5 -91.5zM340 8q116 0 181 82t65 238v42q0 156 -65 238t-181 82t-181 -82t-65 -238v-42q0 -156 65 -238t181 -82z" />
    <glyph glyph-name="omacron" unicode="&#x14d;" horiz-adv-x="540" 
d="M141 658v18h258v-18h-258zM270 -12q-100 0 -155 67.5t-55 197.5t55 197.5t155 67.5t155 -67.5t55 -197.5t-55 -197.5t-155 -67.5zM270 7q89 0 138 59.5t49 162.5v48q0 103 -49 162.5t-138 59.5t-138 -59.5t-49 -162.5v-48q0 -103 49 -162.5t138 -59.5z" />
    <glyph glyph-name="Obreve" unicode="&#x14e;" horiz-adv-x="680" 
d="M340 786q-47 0 -73.5 27t-58.5 90l16 7l15 -27q26 -47 46.5 -62.5t54.5 -15.5t54.5 15.5t46.5 62.5l15 27l16 -7q-32 -63 -58.5 -90t-73.5 -27zM340 -12q-131 0 -200.5 91.5t-69.5 269.5t69.5 269.5t200.5 91.5t200.5 -91.5t69.5 -269.5t-69.5 -269.5t-200.5 -91.5z
M340 8q116 0 181 82t65 238v42q0 156 -65 238t-181 82t-181 -82t-65 -238v-42q0 -156 65 -238t181 -82z" />
    <glyph glyph-name="obreve" unicode="&#x14f;" horiz-adv-x="540" 
d="M270 606q-47 0 -73.5 27t-58.5 90l16 7l15 -27q26 -47 46.5 -62.5t54.5 -15.5t54.5 15.5t46.5 62.5l15 27l16 -7q-32 -63 -58.5 -90t-73.5 -27zM270 -12q-100 0 -155 67.5t-55 197.5t55 197.5t155 67.5t155 -67.5t55 -197.5t-55 -197.5t-155 -67.5zM270 7q89 0 138 59.5
t49 162.5v48q0 103 -49 162.5t-138 59.5t-138 -59.5t-49 -162.5v-48q0 -103 49 -162.5t138 -59.5z" />
    <glyph glyph-name="Ohungarumlaut" unicode="&#x150;" horiz-adv-x="680" 
d="M260 767l-15 10l111 154l19 -12zM420 767l-15 10l111 154l19 -12zM340 -12q-131 0 -200.5 91.5t-69.5 269.5t69.5 269.5t200.5 91.5t200.5 -91.5t69.5 -269.5t-69.5 -269.5t-200.5 -91.5zM340 8q116 0 181 82t65 238v42q0 156 -65 238t-181 82t-181 -82t-65 -238v-42
q0 -156 65 -238t181 -82z" />
    <glyph glyph-name="ohungarumlaut" unicode="&#x151;" horiz-adv-x="540" 
d="M190 587l-15 10l111 154l19 -12zM350 587l-15 10l111 154l19 -12zM270 -12q-100 0 -155 67.5t-55 197.5t55 197.5t155 67.5t155 -67.5t55 -197.5t-55 -197.5t-155 -67.5zM270 7q89 0 138 59.5t49 162.5v48q0 103 -49 162.5t-138 59.5t-138 -59.5t-49 -162.5v-48
q0 -103 49 -162.5t138 -59.5z" />
    <glyph glyph-name="OE" unicode="&#x152;" horiz-adv-x="967" 
d="M370 -12q-146 0 -223 91t-77 270t77 270t223 91q67 0 144 -12h381v-20h-359v-314h347v-20h-347v-324h359v-20h-381q-77 -12 -144 -12zM370 8q76 0 144 14v654q-68 14 -144 14q-131 0 -203.5 -82t-72.5 -238v-42q0 -156 72.5 -238t203.5 -82z" />
    <glyph glyph-name="oe" unicode="&#x153;" horiz-adv-x="929" 
d="M270 -12q-100 0 -155 67.5t-55 197.5t55 197.5t155 67.5q76 0 127 -40t70 -116h3q20 76 70 116t124 40q92 0 148.5 -68.5t56.5 -183.5v-10h-390v-27q0 -103 50 -162.5t139 -59.5q128 0 175 124l18 -7q-23 -64 -72.5 -100t-120.5 -36q-158 0 -199 158h-3
q-40 -158 -196 -158zM270 7q89 0 138 59.5t49 162.5v48q0 103 -49 162.5t-138 59.5t-138 -59.5t-49 -162.5v-48q0 -103 49 -162.5t138 -59.5zM479 275h367v4q0 100 -50 160t-132 60q-88 0 -136.5 -59.5t-48.5 -162.5v-2z" />
    <glyph glyph-name="Racute" unicode="&#x154;" horiz-adv-x="630" 
d="M287 767l-15 10l111 154l19 -12zM108 0v698h268q84 0 129 -50.5t45 -137.5t-45.5 -137.5t-130.5 -50.5l192 -322h-25l-192 322h-219v-322h-22zM130 342h246q73 0 111.5 42.5t38.5 104.5v42q0 62 -38.5 104.5t-111.5 42.5h-246v-336z" />
    <glyph glyph-name="racute" unicode="&#x155;" horiz-adv-x="341" 
d="M203 586l-15 10l111 154l19 -12zM105 0v506h21v-87h3q43 87 158 87h41v-19h-44q-66 0 -112 -36t-46 -102v-349h-21z" />
    <glyph glyph-name="uni0156" unicode="&#x156;" horiz-adv-x="630" 
d="M108 0v698h268q84 0 129 -50.5t45 -137.5t-45.5 -137.5t-130.5 -50.5l192 -322h-25l-192 322h-219v-322h-22zM130 342h246q73 0 111.5 42.5t38.5 104.5v42q0 62 -38.5 104.5t-111.5 42.5h-246v-336zM265 -212q38 41 45 96q-28 0 -28 20v8q0 22 24 22q22 0 22 -22v-11
q0 -26 -13 -59t-32 -54h-18z" />
    <glyph glyph-name="uni0157" unicode="&#x157;" horiz-adv-x="341" 
d="M105 0v506h21v-87h3q43 87 158 87h41v-19h-44q-66 0 -112 -36t-46 -102v-349h-21zM76 -212q38 41 45 96q-28 0 -28 20v8q0 22 24 22q22 0 22 -22v-11q0 -26 -13 -59t-32 -54h-18z" />
    <glyph glyph-name="Rcaron" unicode="&#x158;" horiz-adv-x="630" 
d="M293 783l-128 133l14 11l126 -127l126 127l14 -11l-128 -133h-24zM108 0v698h268q84 0 129 -50.5t45 -137.5t-45.5 -137.5t-130.5 -50.5l192 -322h-25l-192 322h-219v-322h-22zM130 342h246q73 0 111.5 42.5t38.5 104.5v42q0 62 -38.5 104.5t-111.5 42.5h-246v-336z" />
    <glyph glyph-name="rcaron" unicode="&#x159;" horiz-adv-x="341" 
d="M209 602l-128 133l14 11l126 -127l126 127l14 -11l-128 -133h-24zM105 0v506h21v-87h3q43 87 158 87h41v-19h-44q-66 0 -112 -36t-46 -102v-349h-21z" />
    <glyph glyph-name="Sacute" unicode="&#x15a;" horiz-adv-x="547" 
d="M251 767l-15 10l111 154l19 -12zM276 -12q-148 0 -234 114l18 13q40 -52 90.5 -79.5t125.5 -27.5q92 0 141.5 43t49.5 125q0 80 -43 115.5t-118 49.5l-70 13q-178 33 -178 180q0 87 56.5 131.5t156.5 44.5q142 0 206 -95l-18 -13q-61 88 -190 88q-90 0 -139.5 -39.5
t-49.5 -116.5q0 -75 43 -110t119 -49l70 -13q99 -19 138 -66.5t39 -117.5q0 -93 -56.5 -141.5t-156.5 -48.5z" />
    <glyph glyph-name="sacute" unicode="&#x15b;" horiz-adv-x="462" 
d="M205 587l-15 10l111 154l19 -12zM236 -12q-121 0 -187 93l18 12q34 -47 73.5 -66.5t95.5 -19.5q71 0 108.5 30.5t37.5 86.5q0 55 -31.5 83t-96.5 38l-44 7q-71 11 -107.5 42.5t-36.5 94.5q0 62 45 95.5t115 33.5q102 0 167 -73l-16 -14q-60 68 -150 68q-64 0 -102 -28.5
t-38 -80.5q0 -55 30 -81t97 -37l44 -7q71 -11 108 -43.5t37 -96.5q0 -65 -44.5 -101t-122.5 -36z" />
    <glyph glyph-name="Scircumflex" unicode="&#x15c;" horiz-adv-x="547" 
d="M143 779l-14 11l128 133h24l128 -133l-14 -11l-126 127zM276 -12q-148 0 -234 114l18 13q40 -52 90.5 -79.5t125.5 -27.5q92 0 141.5 43t49.5 125q0 80 -43 115.5t-118 49.5l-70 13q-178 33 -178 180q0 87 56.5 131.5t156.5 44.5q142 0 206 -95l-18 -13q-61 88 -190 88
q-90 0 -139.5 -39.5t-49.5 -116.5q0 -75 43 -110t119 -49l70 -13q99 -19 138 -66.5t39 -117.5q0 -93 -56.5 -141.5t-156.5 -48.5z" />
    <glyph glyph-name="scircumflex" unicode="&#x15d;" horiz-adv-x="462" 
d="M97 599l-14 11l128 133h24l128 -133l-14 -11l-126 127zM236 -12q-121 0 -187 93l18 12q34 -47 73.5 -66.5t95.5 -19.5q71 0 108.5 30.5t37.5 86.5q0 55 -31.5 83t-96.5 38l-44 7q-71 11 -107.5 42.5t-36.5 94.5q0 62 45 95.5t115 33.5q102 0 167 -73l-16 -14
q-60 68 -150 68q-64 0 -102 -28.5t-38 -80.5q0 -55 30 -81t97 -37l44 -7q71 -11 108 -43.5t37 -96.5q0 -65 -44.5 -101t-122.5 -36z" />
    <glyph glyph-name="Scedilla" unicode="&#x15e;" horiz-adv-x="547" 
d="M283 -202q-58 0 -81 32l13 13q22 -27 68 -27q28 0 44.5 13.5t16.5 38.5q0 43 -61 46l-37 2l17 72q-139 5 -221 114l18 13q40 -52 90.5 -79.5t125.5 -27.5q92 0 141.5 43t49.5 125q0 80 -43 115.5t-118 49.5l-70 13q-178 33 -178 180q0 87 56.5 131.5t156.5 44.5
q142 0 206 -95l-18 -13q-61 88 -190 88q-90 0 -139.5 -39.5t-49.5 -116.5q0 -75 43 -110t119 -49l70 -13q99 -19 138 -66.5t39 -117.5q0 -92 -56 -141t-152 -49l-15 -61l2 -2q13 3 30 3q30 0 48.5 -16t18.5 -43q0 -30 -22.5 -50.5t-59.5 -20.5z" />
    <glyph glyph-name="scedilla" unicode="&#x15f;" horiz-adv-x="462" 
d="M246 -202q-58 0 -81 32l13 13q22 -27 68 -27q28 0 44.5 13.5t16.5 38.5q0 43 -61 46l-37 2l17 72q-113 3 -177 93l18 12q34 -47 73.5 -66.5t95.5 -19.5q71 0 108.5 30.5t37.5 86.5q0 55 -31.5 83t-96.5 38l-44 7q-71 11 -107.5 42.5t-36.5 94.5q0 62 45 95.5t115 33.5
q102 0 167 -73l-16 -14q-60 68 -150 68q-64 0 -102 -28.5t-38 -80.5q0 -55 30 -81t97 -37l44 -7q71 -11 108 -43.5t37 -96.5q0 -63 -42.5 -99t-116.5 -38l-15 -61l2 -2q13 3 30 3q30 0 48.5 -16t18.5 -43q0 -30 -22.5 -50.5t-59.5 -20.5z" />
    <glyph glyph-name="Scaron" unicode="&#x160;" horiz-adv-x="547" 
d="M257 783l-128 133l14 11l126 -127l126 127l14 -11l-128 -133h-24zM276 -12q-148 0 -234 114l18 13q40 -52 90.5 -79.5t125.5 -27.5q92 0 141.5 43t49.5 125q0 80 -43 115.5t-118 49.5l-70 13q-178 33 -178 180q0 87 56.5 131.5t156.5 44.5q142 0 206 -95l-18 -13
q-61 88 -190 88q-90 0 -139.5 -39.5t-49.5 -116.5q0 -75 43 -110t119 -49l70 -13q99 -19 138 -66.5t39 -117.5q0 -93 -56.5 -141.5t-156.5 -48.5z" />
    <glyph glyph-name="scaron" unicode="&#x161;" horiz-adv-x="462" 
d="M211 603l-128 133l14 11l126 -127l126 127l14 -11l-128 -133h-24zM236 -12q-121 0 -187 93l18 12q34 -47 73.5 -66.5t95.5 -19.5q71 0 108.5 30.5t37.5 86.5q0 55 -31.5 83t-96.5 38l-44 7q-71 11 -107.5 42.5t-36.5 94.5q0 62 45 95.5t115 33.5q102 0 167 -73l-16 -14
q-60 68 -150 68q-64 0 -102 -28.5t-38 -80.5q0 -55 30 -81t97 -37l44 -7q71 -11 108 -43.5t37 -96.5q0 -65 -44.5 -101t-122.5 -36z" />
    <glyph glyph-name="uni0162" unicode="&#x162;" horiz-adv-x="560" 
d="M269 0v678h-252v20h526v-20h-252v-678h-22zM240 -212q38 41 45 96q-28 0 -28 20v8q0 22 24 22q22 0 22 -22v-11q0 -26 -13 -59t-32 -54h-18z" />
    <glyph glyph-name="uni0163" unicode="&#x163;" horiz-adv-x="310" 
d="M154 0q-29 0 -29 29v458h-95v19h72q13 0 18 5.5t5 19.5v119h21v-144h121v-19h-121v-468h113v-19h-105zM150 -212q38 41 45 96q-28 0 -28 20v8q0 22 24 22q22 0 22 -22v-11q0 -26 -13 -59t-32 -54h-18z" />
    <glyph glyph-name="Tcaron" unicode="&#x164;" horiz-adv-x="560" 
d="M268 783l-128 133l14 11l126 -127l126 127l14 -11l-128 -133h-24zM269 0v678h-252v20h526v-20h-252v-678h-22z" />
    <glyph glyph-name="tcaron" unicode="&#x165;" horiz-adv-x="310" 
d="M246 564l16 176h25l-24 -176h-17zM154 0q-29 0 -29 29v458h-95v19h72q13 0 18 5.5t5 19.5v119h21v-144h121v-19h-121v-468h113v-19h-105z" />
    <glyph glyph-name="Tbar" unicode="&#x166;" horiz-adv-x="560" 
d="M269 0v365h-187v19h187v294h-252v20h526v-20h-252v-294h188v-19h-188v-365h-22z" />
    <glyph glyph-name="tbar" unicode="&#x167;" horiz-adv-x="316" 
d="M157 0q-29 0 -29 29v251h-69v18h69v189h-95v19h72q13 0 18 5.5t5 19.5v119h21v-144h121v-19h-121v-189h101v-18h-101v-261h113v-19h-105z" />
    <glyph glyph-name="Utilde" unicode="&#x168;" horiz-adv-x="652" 
d="M397 808q-31 0 -77 30q-40 26 -66 26q-34 0 -65 -33l-12 12q35 39 78 39q31 0 77 -30q40 -26 66 -26q34 0 65 33l12 -12q-35 -39 -78 -39zM326 -12q-126 0 -176 63t-50 219v428h22v-430q0 -144 44 -202t160 -58t160 58t44 202v430h22v-428q0 -156 -50 -219t-176 -63z" />
    <glyph glyph-name="utilde" unicode="&#x169;" horiz-adv-x="556" 
d="M344 628q-31 0 -77 30q-40 26 -66 26q-33 0 -65 -33l-12 12q35 39 78 39q31 0 77 -30q40 -26 66 -26q33 0 65 33l12 -12q-35 -39 -78 -39zM269 -12q-85 0 -129.5 49.5t-44.5 143.5v325h21v-321q0 -178 155 -178q67 0 113 35.5t46 101.5v362h21v-506h-21v76h-3
q-15 -38 -54.5 -63t-103.5 -25z" />
    <glyph glyph-name="Umacron" unicode="&#x16a;" horiz-adv-x="652" 
d="M197 838v18h258v-18h-258zM326 -12q-126 0 -176 63t-50 219v428h22v-430q0 -144 44 -202t160 -58t160 58t44 202v430h22v-428q0 -156 -50 -219t-176 -63z" />
    <glyph glyph-name="umacron" unicode="&#x16b;" horiz-adv-x="556" 
d="M144 658v18h258v-18h-258zM269 -12q-85 0 -129.5 49.5t-44.5 143.5v325h21v-321q0 -178 155 -178q67 0 113 35.5t46 101.5v362h21v-506h-21v76h-3q-15 -38 -54.5 -63t-103.5 -25z" />
    <glyph glyph-name="Ubreve" unicode="&#x16c;" horiz-adv-x="652" 
d="M326 786q-47 0 -73.5 27t-58.5 90l16 7l15 -27q26 -47 46.5 -62.5t54.5 -15.5t54.5 15.5t46.5 62.5l15 27l16 -7q-32 -63 -58.5 -90t-73.5 -27zM326 -12q-126 0 -176 63t-50 219v428h22v-430q0 -144 44 -202t160 -58t160 58t44 202v430h22v-428q0 -156 -50 -219t-176 -63
z" />
    <glyph glyph-name="ubreve" unicode="&#x16d;" horiz-adv-x="556" 
d="M273 606q-47 0 -73.5 27t-58.5 90l16 7l15 -27q26 -47 46.5 -62.5t54.5 -15.5t54.5 15.5t46.5 62.5l15 27l16 -7q-32 -63 -58.5 -90t-73.5 -27zM269 -12q-85 0 -129.5 49.5t-44.5 143.5v325h21v-321q0 -178 155 -178q67 0 113 35.5t46 101.5v362h21v-506h-21v76h-3
q-15 -38 -54.5 -63t-103.5 -25z" />
    <glyph glyph-name="Uring" unicode="&#x16e;" horiz-adv-x="652" 
d="M326 769q-40 0 -65 25t-25 66t25 66t65 25t65 -25t25 -66t-25 -66t-65 -25zM326 787q32 0 51 18.5t19 49.5v10q0 31 -19 49.5t-51 18.5t-51 -18.5t-19 -49.5v-10q0 -31 19 -49.5t51 -18.5zM326 -12q-126 0 -176 63t-50 219v428h22v-430q0 -144 44 -202t160 -58t160 58
t44 202v430h22v-428q0 -156 -50 -219t-176 -63z" />
    <glyph glyph-name="uring" unicode="&#x16f;" horiz-adv-x="556" 
d="M273 589q-40 0 -65 25t-25 66t25 66t65 25t65 -25t25 -66t-25 -66t-65 -25zM273 607q32 0 51 18.5t19 49.5v10q0 31 -19 49.5t-51 18.5t-51 -18.5t-19 -49.5v-10q0 -31 19 -49.5t51 -18.5zM269 -12q-85 0 -129.5 49.5t-44.5 143.5v325h21v-321q0 -178 155 -178
q67 0 113 35.5t46 101.5v362h21v-506h-21v76h-3q-15 -38 -54.5 -63t-103.5 -25z" />
    <glyph glyph-name="Uhungarumlaut" unicode="&#x170;" horiz-adv-x="652" 
d="M246 767l-15 10l111 154l19 -12zM406 767l-15 10l111 154l19 -12zM326 -12q-126 0 -176 63t-50 219v428h22v-430q0 -144 44 -202t160 -58t160 58t44 202v430h22v-428q0 -156 -50 -219t-176 -63z" />
    <glyph glyph-name="uhungarumlaut" unicode="&#x171;" horiz-adv-x="556" 
d="M193 587l-15 10l111 154l19 -12zM353 587l-15 10l111 154l19 -12zM269 -12q-85 0 -129.5 49.5t-44.5 143.5v325h21v-321q0 -178 155 -178q67 0 113 35.5t46 101.5v362h21v-506h-21v76h-3q-15 -38 -54.5 -63t-103.5 -25z" />
    <glyph glyph-name="Uogonek" unicode="&#x172;" horiz-adv-x="652" 
d="M375 -202q-35 0 -56.5 17.5t-21.5 50.5q0 70 102 128l-1 2q-35 -8 -72 -8q-126 0 -176 63t-50 219v428h22v-430q0 -144 44 -202t160 -58t160 58t44 202v430h22v-428q0 -108 -23.5 -169.5t-78.5 -90.5q-132 -68 -132 -141q0 -53 58 -53q39 0 60 25l14 -11q-23 -32 -75 -32
z" />
    <glyph glyph-name="uogonek" unicode="&#x173;" horiz-adv-x="556" 
d="M410 -202q-35 0 -57 19t-22 53q0 65 99 131v75h-3q-15 -38 -54.5 -63t-103.5 -25q-85 0 -129.5 49.5t-44.5 143.5v325h21v-321q0 -178 155 -178q67 0 113 35.5t46 101.5v362h21v-506q-57 -45 -78 -69.5t-21 -57.5q0 -57 59 -57q39 0 60 25l14 -11q-23 -32 -75 -32z" />
    <glyph glyph-name="Wcircumflex" unicode="&#x174;" horiz-adv-x="872" 
d="M310 779l-14 11l128 133h24l128 -133l-14 -11l-126 127zM216 0l-186 698h24l85 -324l91 -343h3l187 667h32l90 -322l97 -345h3l177 667h23l-186 -698h-30l-91 324l-98 350h-3l-188 -674h-30z" />
    <glyph glyph-name="wcircumflex" unicode="&#x175;" horiz-adv-x="725" 
d="M237 599l-14 11l128 133h24l128 -133l-14 -11l-126 127zM189 0l-154 506h22l56 -187l88 -292h3l51 166l97 313h22l95 -306l53 -173h3l144 479h21l-154 -506h-26l-100 322l-46 150h-3l-47 -151l-99 -321h-26z" />
    <glyph glyph-name="Ycircumflex" unicode="&#x176;" horiz-adv-x="546" 
d="M147 779l-14 11l128 133h24l128 -133l-14 -11l-126 127zM262 0v294l-241 404h25l226 -378h3l226 378h24l-241 -404v-294h-22z" />
    <glyph glyph-name="ycircumflex" unicode="&#x177;" horiz-adv-x="452" 
d="M101 598l-14 11l128 133h24l128 -133l-14 -11l-126 127zM57 -200v19h93l66 174l-191 513h22l106 -286l72 -196h3l70 190l108 292h21l-255 -687q-7 -19 -31 -19h-84z" />
    <glyph glyph-name="Ydieresis" unicode="&#x178;" horiz-adv-x="546" 
d="M182 819q-23 0 -23 21v7q0 21 23 21t23 -21v-7q0 -21 -23 -21zM364 819q-23 0 -23 21v7q0 21 23 21t23 -21v-7q0 -21 -23 -21zM262 0v294l-241 404h25l226 -378h3l226 378h24l-241 -404v-294h-22z" />
    <glyph glyph-name="Zacute" unicode="&#x179;" horiz-adv-x="555" 
d="M260 767l-15 10l111 154l19 -12zM39 0v22l443 656h-420v20h444v-22l-443 -656h464v-20h-488z" />
    <glyph glyph-name="zacute" unicode="&#x17a;" horiz-adv-x="417" 
d="M191 587l-15 10l111 154l19 -12zM27 0v21l337 466h-327v19h349v-21l-337 -466h347v-19h-369z" />
    <glyph glyph-name="Zdotaccent" unicode="&#x17b;" horiz-adv-x="555" 
d="M278 822q-23 0 -23 21v7q0 21 23 21t23 -21v-7q0 -21 -23 -21zM39 0v22l443 656h-420v20h444v-22l-443 -656h464v-20h-488z" />
    <glyph glyph-name="zdotaccent" unicode="&#x17c;" horiz-adv-x="417" 
d="M209 642q-23 0 -23 21v7q0 21 23 21t23 -21v-7q0 -21 -23 -21zM27 0v21l337 466h-327v19h349v-21l-337 -466h347v-19h-369z" />
    <glyph glyph-name="Zcaron" unicode="&#x17d;" horiz-adv-x="555" 
d="M266 783l-128 133l14 11l126 -127l126 127l14 -11l-128 -133h-24zM39 0v22l443 656h-420v20h444v-22l-443 -656h464v-20h-488z" />
    <glyph glyph-name="zcaron" unicode="&#x17e;" horiz-adv-x="417" 
d="M197 603l-128 133l14 11l126 -127l126 127l14 -11l-128 -133h-24zM27 0v21l337 466h-327v19h349v-21l-337 -466h347v-19h-369z" />
    <glyph glyph-name="uni018F" unicode="&#x18f;" horiz-adv-x="680" 
d="M340 -12q-131 0 -200.5 91.5t-69.5 269.5v2h516v19q0 156 -65 238t-181 82q-85 0 -143.5 -44.5t-84.5 -131.5l-19 10q57 186 247 186q130 0 200 -91.5t70 -269.5t-69.5 -269.5t-200.5 -91.5zM340 8q116 0 181 82t65 238v3h-492v-3q0 -156 65 -238t181 -82z" />
    <glyph glyph-name="florin" unicode="&#x192;" horiz-adv-x="488" 
d="M-3 -134l2 19h178l42 426h-173l2 19h173l34 339q3 29 33 29h176l-2 -19h-185l-35 -349h210l-2 -19h-210l-41 -416q-3 -29 -34 -29h-168z" />
    <glyph glyph-name="Ohorn" unicode="&#x1a0;" horiz-adv-x="680" 
d="M340 -12q-131 0 -200.5 91.5t-69.5 269.5t69.5 269.5t200.5 91.5q49 0 88 -12h160v114h20v-103q0 -29 -29 -29h-109q140 -80 140 -331q0 -178 -69.5 -269.5t-200.5 -91.5zM340 8q116 0 181 82t65 238v42q0 156 -65 238t-181 82t-181 -82t-65 -238v-42q0 -156 65 -238
t181 -82z" />
    <glyph glyph-name="ohorn" unicode="&#x1a1;" horiz-adv-x="540" 
d="M270 -12q-100 0 -155 67.5t-55 197.5t55 197.5t155 67.5q45 0 78 -12h103v101h20v-90q0 -29 -29 -29h-59q45 -28 71 -88t26 -147q0 -130 -55 -197.5t-155 -67.5zM270 7q89 0 138 59.5t49 162.5v48q0 103 -49 162.5t-138 59.5t-138 -59.5t-49 -162.5v-48q0 -103 49 -162.5
t138 -59.5z" />
    <glyph glyph-name="Uhorn" unicode="&#x1af;" horiz-adv-x="652" 
d="M326 -12q-126 0 -176 63t-50 219v428h22v-430q0 -144 44 -202t160 -58t160 58t44 202v430h80v111h20v-100q0 -29 -29 -29h-49v-410q0 -156 -50 -219t-176 -63z" />
    <glyph glyph-name="uhorn" unicode="&#x1b0;" horiz-adv-x="556" 
d="M269 -12q-85 0 -129.5 49.5t-44.5 143.5v325h21v-321q0 -178 155 -178q67 0 113 35.5t46 101.5v362h80v111h20v-100q0 -29 -29 -29h-50v-488h-21v76h-3q-15 -38 -54.5 -63t-103.5 -25z" />
    <glyph glyph-name="uni01B3" unicode="&#x1b3;" horiz-adv-x="546" 
d="M278 765l-16 8l77 126h-141v18h137q23 0 23 -18q0 -10 -31 -58zM262 0v294l-241 404h25l226 -378h3l226 378h24l-241 -404v-294h-22z" />
    <glyph glyph-name="uni01B4" unicode="&#x1b4;" horiz-adv-x="452" 
d="M232 606l-16 8l77 126h-141v18h137q23 0 23 -18q0 -10 -31 -58zM57 -200v19h93l66 174l-191 513h22l106 -286l72 -196h3l70 190l108 292h21l-255 -687q-7 -19 -31 -19h-84z" />
    <glyph glyph-name="Aringacute" unicode="&#x1fa;" 
d="M300 979l-15 9l80 103l19 -13zM300 769q-40 0 -65 25t-25 66t25 66t65 25t65 -25t25 -66t-25 -66t-65 -25zM300 787q32 0 51 18.5t19 49.5v10q0 31 -19 49.5t-51 18.5t-51 -18.5t-19 -49.5v-10q0 -31 19 -49.5t51 -18.5zM32 0l253 698h30l253 -698h-23l-85 234h-320
l-85 -234h-23zM147 253h306l-152 422h-3z" />
    <glyph glyph-name="aringacute" unicode="&#x1fb;" horiz-adv-x="519" 
d="M249 799l-15 9l80 103l19 -13zM249 589q-40 0 -65 25t-25 66t25 66t65 25t65 -25t25 -66t-25 -66t-65 -25zM249 607q32 0 51 18.5t19 49.5v10q0 31 -19 49.5t-51 18.5t-51 -18.5t-19 -49.5v-10q0 -31 19 -49.5t51 -18.5zM224 -12q-78 0 -120.5 37t-42.5 105
q0 145 190 145h142v74q0 150 -144 150q-113 0 -153 -95l-18 8q46 106 171 106q82 0 123.5 -42.5t41.5 -123.5v-333h85v-19h-77q-29 0 -29 29v48h-3q-46 -89 -166 -89zM224 7q72 0 120.5 37t48.5 104v109h-141q-168 0 -168 -112v-30q0 -51 38.5 -79.5t101.5 -28.5z" />
    <glyph glyph-name="AEacute" unicode="&#x1fc;" horiz-adv-x="861" 
d="M413 767l-15 10l111 154l19 -12zM2 0l383 698h404v-20h-359v-314h347v-20h-347v-324h359v-20h-381v234h-253l-129 -234h-24zM165 253h243v425h-11z" />
    <glyph glyph-name="aeacute" unicode="&#x1fd;" horiz-adv-x="861" 
d="M410 587l-15 10l111 154l19 -12zM219 -12q-78 0 -120.5 37t-42.5 105q0 145 190 145h142v74q0 150 -144 150q-113 0 -153 -95l-18 8q46 106 171 106q148 0 161 -136h3q23 65 71.5 100.5t116.5 35.5q92 0 148.5 -68.5t56.5 -183.5v-10h-390v-27q0 -103 50 -162.5
t139 -59.5q128 0 175 124l18 -7q-23 -64 -72.5 -100t-120.5 -36q-145 0 -192 133h-3q-12 -65 -63 -99t-123 -34zM411 275h367v4q0 100 -50 160t-132 60q-88 0 -136.5 -59.5t-48.5 -162.5v-2zM219 7q72 0 120.5 37t48.5 104v109h-141q-168 0 -168 -112v-30q0 -51 38.5 -79.5
t101.5 -28.5z" />
    <glyph glyph-name="Oslashacute" unicode="&#x1fe;" horiz-adv-x="680" 
d="M322 767l-15 10l111 154l19 -12zM88 -31l-18 11l69 100q-69 92 -69 269q0 178 69.5 269.5t200.5 91.5q118 0 187 -74l66 95l17 -11l-70 -101q70 -91 70 -270q0 -178 -69.5 -269.5t-200.5 -91.5q-120 0 -187 75zM152 98l362 519q-64 73 -174 73q-116 0 -181 -82t-65 -238
v-42q0 -145 58 -230zM340 8q116 0 181 82t65 238v42q0 148 -59 230l-361 -519q64 -73 174 -73z" />
    <glyph glyph-name="oslashacute" unicode="&#x1ff;" horiz-adv-x="546" 
d="M255 587l-15 10l111 154l19 -12zM54 -26l-14 11l68 84q-45 68 -45 184q0 130 55 197.5t155 67.5q95 0 150 -61l69 85l14 -11l-72 -89q49 -67 49 -189q0 -130 -55 -197.5t-155 -67.5t-154 66zM121 85l289 356q-50 58 -137 58q-89 0 -138 -59.5t-49 -162.5v-48
q0 -88 35 -144zM273 7q89 0 138 59.5t49 162.5v48q0 93 -39 149l-289 -356q50 -63 141 -63z" />
    <glyph glyph-name="uni0218" unicode="&#x218;" horiz-adv-x="547" 
d="M276 -12q-148 0 -234 114l18 13q40 -52 90.5 -79.5t125.5 -27.5q92 0 141.5 43t49.5 125q0 80 -43 115.5t-118 49.5l-70 13q-178 33 -178 180q0 87 56.5 131.5t156.5 44.5q142 0 206 -95l-18 -13q-61 88 -190 88q-90 0 -139.5 -39.5t-49.5 -116.5q0 -75 43 -110t119 -49
l70 -13q99 -19 138 -66.5t39 -117.5q0 -93 -56.5 -141.5t-156.5 -48.5zM234 -212q38 41 45 96q-28 0 -28 20v8q0 22 24 22q22 0 22 -22v-11q0 -26 -13 -59t-32 -54h-18z" />
    <glyph glyph-name="uni0219" unicode="&#x219;" horiz-adv-x="462" 
d="M236 -12q-121 0 -187 93l18 12q34 -47 73.5 -66.5t95.5 -19.5q71 0 108.5 30.5t37.5 86.5q0 55 -31.5 83t-96.5 38l-44 7q-71 11 -107.5 42.5t-36.5 94.5q0 62 45 95.5t115 33.5q102 0 167 -73l-16 -14q-60 68 -150 68q-64 0 -102 -28.5t-38 -80.5q0 -55 30 -81t97 -37
l44 -7q71 -11 108 -43.5t37 -96.5q0 -65 -44.5 -101t-122.5 -36zM197 -212q38 41 45 96q-28 0 -28 20v8q0 22 24 22q22 0 22 -22v-11q0 -26 -13 -59t-32 -54h-18z" />
    <glyph glyph-name="uni021A" unicode="&#x21a;" horiz-adv-x="560" 
d="M269 0v678h-252v20h526v-20h-252v-678h-22zM240 -212q38 41 45 96q-28 0 -28 20v8q0 22 24 22q22 0 22 -22v-11q0 -26 -13 -59t-32 -54h-18z" />
    <glyph glyph-name="uni021B" unicode="&#x21b;" horiz-adv-x="310" 
d="M154 0q-29 0 -29 29v458h-95v19h72q13 0 18 5.5t5 19.5v119h21v-144h121v-19h-121v-468h113v-19h-105zM150 -212q38 41 45 96q-28 0 -28 20v8q0 22 24 22q22 0 22 -22v-11q0 -26 -13 -59t-32 -54h-18z" />
    <glyph glyph-name="uni0237" unicode="&#x237;" horiz-adv-x="231" 
d="M20 -200v19h85v687h21v-677q0 -29 -29 -29h-77z" />
    <glyph glyph-name="uni0259" unicode="&#x259;" horiz-adv-x="533" 
d="M265 -12q-92 0 -148.5 68.5t-56.5 183.5v10h390v27q0 103 -50 162.5t-139 59.5q-129 0 -176 -124l-17 7q23 64 72.5 100t120.5 36q100 0 156 -68t56 -197q0 -128 -54.5 -196.5t-153.5 -68.5zM265 7q88 0 136.5 59.5t48.5 162.5v2h-367v-4q0 -100 50 -160t132 -60z" />
    <glyph glyph-name="uni02BB" unicode="&#x2bb;" 
d="M299 599q-22 0 -22 22v11q0 26 13 59t32 54h18q-38 -41 -45 -96q28 0 28 -20v-8q0 -22 -24 -22z" />
    <glyph glyph-name="uni02BC" unicode="&#x2bc;" 
d="M237 564l16 176h25l-24 -176h-17z" />
    <glyph glyph-name="circumflex" unicode="&#x2c6;" 
d="M174 599l-14 11l128 133h24l128 -133l-14 -11l-126 127z" />
    <glyph glyph-name="caron" unicode="&#x2c7;" 
d="M288 603l-128 133l14 11l126 -127l126 127l14 -11l-128 -133h-24z" />
    <glyph glyph-name="breve" unicode="&#x2d8;" 
d="M300 606q-47 0 -73.5 27t-58.5 90l16 7l15 -27q26 -47 46.5 -62.5t54.5 -15.5t54.5 15.5t46.5 62.5l15 27l16 -7q-32 -63 -58.5 -90t-73.5 -27z" />
    <glyph glyph-name="dotaccent" unicode="&#x2d9;" 
d="M300 642q-23 0 -23 21v7q0 21 23 21t23 -21v-7q0 -21 -23 -21z" />
    <glyph glyph-name="ring" unicode="&#x2da;" 
d="M300 589q-40 0 -65 25t-25 66t25 66t65 25t65 -25t25 -66t-25 -66t-65 -25zM300 607q32 0 51 18.5t19 49.5v10q0 31 -19 49.5t-51 18.5t-51 -18.5t-19 -49.5v-10q0 -31 19 -49.5t51 -18.5z" />
    <glyph glyph-name="ogonek" unicode="&#x2db;" 
d="M239 -202q-35 0 -57 17.5t-22 49.5q0 69 119 137l-5 9l20 5l6 -16q-66 -43 -92.5 -70t-26.5 -62q0 -52 59 -52q39 0 60 25l14 -11q-23 -32 -75 -32z" />
    <glyph glyph-name="tilde" unicode="&#x2dc;" 
d="M371 628q-31 0 -77 30q-40 26 -66 26q-34 0 -65 -33l-12 12q35 39 78 39q31 0 77 -30q40 -26 66 -26q34 0 65 33l12 -12q-35 -39 -78 -39z" />
    <glyph glyph-name="hungarumlaut" unicode="&#x2dd;" 
d="M220 587l-15 10l111 154l19 -12zM380 587l-15 10l111 154l19 -12z" />
    <glyph glyph-name="gravecomb" unicode="&#x300;" horiz-adv-x="0" 
d="M17 587l-115 152l19 12l111 -154z" />
    <glyph glyph-name="acutecomb" unicode="&#x301;" horiz-adv-x="0" 
d="M-18 587l-15 10l111 154l19 -12z" />
    <glyph glyph-name="uni0302" unicode="&#x302;" horiz-adv-x="0" 
d="M-126 599l-14 11l128 133h24l128 -133l-14 -11l-126 127z" />
    <glyph glyph-name="tildecomb" unicode="&#x303;" horiz-adv-x="0" 
d="M71 628q-31 0 -77 30q-40 26 -66 26q-33 0 -65 -33l-12 12q35 39 78 39q31 0 77 -30q40 -26 66 -26q33 0 65 33l12 -12q-35 -39 -78 -39z" />
    <glyph glyph-name="uni0304" unicode="&#x304;" horiz-adv-x="0" 
d="M-129 658v18h258v-18h-258z" />
    <glyph glyph-name="uni0306" unicode="&#x306;" horiz-adv-x="0" 
d="M0 606q-47 0 -73.5 27t-58.5 90l16 7l15 -27q26 -47 46.5 -62.5t54.5 -15.5t54.5 15.5t46.5 62.5l15 27l16 -7q-32 -63 -58.5 -90t-73.5 -27z" />
    <glyph glyph-name="uni0307" unicode="&#x307;" horiz-adv-x="0" 
d="M0 642q-23 0 -23 21v7q0 21 23 21t23 -21v-7q0 -21 -23 -21z" />
    <glyph glyph-name="uni0308" unicode="&#x308;" horiz-adv-x="0" 
d="M-91 642q-23 0 -23 21v7q0 21 23 21t23 -21v-7q0 -21 -23 -21zM91 642q-23 0 -23 21v7q0 21 23 21t23 -21v-7q0 -21 -23 -21z" />
    <glyph glyph-name="hookabovecomb" unicode="&#x309;" horiz-adv-x="0" 
d="M6 585l-16 8l77 126h-141v18h137q23 0 23 -18q0 -10 -31 -58z" />
    <glyph glyph-name="uni030A" unicode="&#x30a;" horiz-adv-x="0" 
d="M0 589q-40 0 -65 25t-25 66t25 66t65 25t65 -25t25 -66t-25 -66t-65 -25zM0 607q32 0 51 18.5t19 49.5v10q0 31 -19 49.5t-51 18.5t-51 -18.5t-19 -49.5v-10q0 -31 19 -49.5t51 -18.5z" />
    <glyph glyph-name="uni030B" unicode="&#x30b;" horiz-adv-x="0" 
d="M-80 587l-15 10l111 154l19 -12zM80 587l-15 10l111 154l19 -12z" />
    <glyph glyph-name="uni030C" unicode="&#x30c;" horiz-adv-x="0" 
d="M-12 603l-128 133l14 11l126 -127l126 127l14 -11l-128 -133h-24z" />
    <glyph glyph-name="uni0312" unicode="&#x312;" horiz-adv-x="0" 
d="M-1 599q-22 0 -22 22v11q0 26 13 59t32 54h18q-38 -41 -45 -96q28 0 28 -20v-8q0 -22 -24 -22z" />
    <glyph glyph-name="uni0315" unicode="&#x315;" horiz-adv-x="0" 
d="M0 564l16 176h25l-24 -176h-17z" />
    <glyph glyph-name="uni031B" unicode="&#x31b;" horiz-adv-x="0" 
d="M-74 488v18h80v113h20v-102q0 -29 -29 -29h-71z" />
    <glyph glyph-name="dotbelowcomb" unicode="&#x323;" horiz-adv-x="0" 
d="M0 -134q-23 0 -23 21v7q0 21 23 21t23 -21v-7q0 -21 -23 -21z" />
    <glyph glyph-name="uni0326" unicode="&#x326;" horiz-adv-x="0" 
d="M-40 -212q38 41 45 96q-28 0 -28 20v8q0 22 24 22q22 0 22 -22v-11q0 -26 -13 -59t-32 -54h-18z" />
    <glyph glyph-name="uni0327" unicode="&#x327;" horiz-adv-x="0" 
d="M9 -202q-58 0 -81 32l13 13q22 -27 68 -27q28 0 44.5 13.5t16.5 38.5q0 43 -61 46l-37 2l21 87h18l-19 -76l2 -2q14 3 30 3q30 0 48.5 -16t18.5 -43q0 -30 -22.5 -50.5t-59.5 -20.5z" />
    <glyph glyph-name="uni0328" unicode="&#x328;" horiz-adv-x="0" 
d="M-61 -202q-35 0 -57 17.5t-22 49.5q0 69 119 137l-5 9l20 5l6 -16q-66 -43 -92.5 -70t-26.5 -62q0 -52 59 -52q39 0 60 25l14 -11q-23 -32 -75 -32z" />
    <glyph glyph-name="uni037E" unicode="&#x37e;" horiz-adv-x="258" 
d="M128 436q-27 0 -27 25v8q0 25 27 25t27 -25v-8q0 -25 -27 -25zM60 -147q66 64 74 142q-32 0 -32 23v9q0 26 28 26q26 0 26 -26v-12q0 -40 -22 -85.5t-55 -76.5h-19z" />
    <glyph glyph-name="tonos" unicode="&#x384;" 
d="M304 587l-16 6l68 158l21 -8z" />
    <glyph glyph-name="dieresistonos" unicode="&#x385;" 
d="M273 587l-16 6l68 158l21 -8zM209 642q-23 0 -23 21v7q0 21 23 21t23 -21v-7q0 -21 -23 -21zM391 642q-23 0 -23 21v7q0 21 23 21t23 -21v-7q0 -21 -23 -21z" />
    <glyph glyph-name="Alphatonos" unicode="&#x386;" 
d="M104 587l-16 6l68 158l21 -8zM32 0l253 698h30l253 -698h-23l-85 234h-320l-85 -234h-23zM147 253h306l-152 422h-3z" />
    <glyph glyph-name="anoteleia" unicode="&#x387;" horiz-adv-x="258" 
d="M129 436q-27 0 -27 25v8q0 25 27 25t27 -25v-8q0 -25 -27 -25z" />
    <glyph glyph-name="Epsilontonos" unicode="&#x388;" horiz-adv-x="583" 
d="M-6 587l-16 6l68 158l21 -8zM130 0v698h381v-20h-359v-314h347v-20h-347v-324h359v-20h-381z" />
    <glyph glyph-name="Etatonos" unicode="&#x389;" horiz-adv-x="714" 
d="M-4 587l-16 6l68 158l21 -8zM130 0v698h22v-334h432v334h22v-698h-22v344h-432v-344h-22z" />
    <glyph glyph-name="Iotatonos" unicode="&#x38a;" horiz-adv-x="423" 
d="M-8 587l-16 6l68 158l21 -8zM119 0v19h107v660h-107v19h236v-19h-107v-660h107v-19h-236z" />
    <glyph glyph-name="Omicrontonos" unicode="&#x38c;" horiz-adv-x="680" 
d="M-6 587l-16 6l68 158l21 -8zM340 -12q-131 0 -200.5 91.5t-69.5 269.5t69.5 269.5t200.5 91.5t200.5 -91.5t69.5 -269.5t-69.5 -269.5t-200.5 -91.5zM340 8q116 0 181 82t65 238v42q0 156 -65 238t-181 82t-181 -82t-65 -238v-42q0 -156 65 -238t181 -82z" />
    <glyph glyph-name="Upsilontonos" unicode="&#x38e;" horiz-adv-x="626" 
d="M-6 587l-16 6l68 158l21 -8zM342 0v294l-241 404h25l226 -378h3l226 378h24l-241 -404v-294h-22z" />
    <glyph glyph-name="Omegatonos" unicode="&#x38f;" horiz-adv-x="694" 
d="M-6 587l-16 6l68 158l21 -8zM82 0v20h177v17q-101 58 -142.5 136.5t-41.5 205.5q0 160 71 245.5t203 85.5t203 -85.5t71 -245.5q0 -127 -41.5 -205.5t-142.5 -136.5v-17h177v-20h-197v49q32 15 61 38t57 58.5t45 88t17 113.5v64q0 128 -68 203.5t-182 75.5t-182 -75.5
t-68 -203.5v-64q0 -61 17 -113.5t45 -88t57 -58.5t61 -38v-49h-197z" />
    <glyph glyph-name="iotadieresistonos" unicode="&#x390;" horiz-adv-x="269" 
d="M102 587l-16 6l68 158l21 -8zM38 642q-23 0 -23 21v7q0 21 23 21t23 -21v-7q0 -21 -23 -21zM220 642q-23 0 -23 21v7q0 21 23 21t23 -21v-7q0 -21 -23 -21zM134 0q-29 0 -29 29v477h21v-487h113v-19h-105z" />
    <glyph glyph-name="Alpha" unicode="&#x391;" 
d="M32 0l253 698h30l253 -698h-23l-85 234h-320l-85 -234h-23zM147 253h306l-152 422h-3z" />
    <glyph glyph-name="Beta" unicode="&#x392;" horiz-adv-x="615" 
d="M108 0v698h252q75 0 116.5 -44t41.5 -126q0 -125 -98 -157v-2q64 -12 97 -58.5t33 -121.5q0 -88 -45 -138.5t-129 -50.5h-268zM130 378h230q65 0 99.5 37.5t34.5 91.5v42q0 54 -34.5 91.5t-99.5 37.5h-230v-300zM130 20h246q73 0 111.5 43t38.5 105v42q0 62 -38.5 105
t-111.5 43h-246v-338z" />
    <glyph glyph-name="Gamma" unicode="&#x393;" horiz-adv-x="506" 
d="M108 0v698h354v-20h-332v-678h-22z" />
    <glyph glyph-name="uni0394" unicode="&#x394;" 
d="M39 0v19l246 679h30l246 -679v-19h-522zM62 19h476l-237 656h-3z" />
    <glyph glyph-name="Epsilon" unicode="&#x395;" horiz-adv-x="561" 
d="M108 0v698h381v-20h-359v-314h347v-20h-347v-324h359v-20h-381z" />
    <glyph glyph-name="Zeta" unicode="&#x396;" horiz-adv-x="555" 
d="M39 0v22l443 656h-420v20h444v-22l-443 -656h464v-20h-488z" />
    <glyph glyph-name="Eta" unicode="&#x397;" horiz-adv-x="692" 
d="M108 0v698h22v-334h432v334h22v-698h-22v344h-432v-344h-22z" />
    <glyph glyph-name="Theta" unicode="&#x398;" horiz-adv-x="680" 
d="M340 -12q-131 0 -200.5 91.5t-69.5 269.5t69.5 269.5t200.5 91.5t200.5 -91.5t69.5 -269.5t-69.5 -269.5t-200.5 -91.5zM340 8q116 0 181 82t65 238v42q0 156 -65 238t-181 82t-181 -82t-65 -238v-42q0 -156 65 -238t181 -82zM178 344v20h324v-20h-324z" />
    <glyph glyph-name="Iota" unicode="&#x399;" horiz-adv-x="372" 
d="M68 0v19h107v660h-107v19h236v-19h-107v-660h107v-19h-236z" />
    <glyph glyph-name="Kappa" unicode="&#x39a;" horiz-adv-x="572" 
d="M108 0v698h22v-427h2l389 427h28l-269 -295l272 -403h-26l-261 387l-135 -148v-239h-22z" />
    <glyph glyph-name="Lambda" unicode="&#x39b;" horiz-adv-x="590" 
d="M32 0l248 698h30l248 -698h-23l-114 323l-125 352h-3l-124 -351l-114 -324h-23z" />
    <glyph glyph-name="Mu" unicode="&#x39c;" horiz-adv-x="796" 
d="M108 0v698h33l256 -420h3l255 420h33v-698h-21v673h-3l-266 -437l-166 272l-100 165h-3v-673h-21z" />
    <glyph glyph-name="Nu" unicode="&#x39d;" horiz-adv-x="692" 
d="M108 0v698h32l420 -671h3v671h21v-698h-32l-420 671h-3v-671h-21z" />
    <glyph glyph-name="Xi" unicode="&#x39e;" horiz-adv-x="555" 
d="M72 678v20h411v-20h-411zM104 344v20h347v-20h-347zM72 0v20h411v-20h-411z" />
    <glyph glyph-name="Omicron" unicode="&#x39f;" horiz-adv-x="680" 
d="M340 -12q-131 0 -200.5 91.5t-69.5 269.5t69.5 269.5t200.5 91.5t200.5 -91.5t69.5 -269.5t-69.5 -269.5t-200.5 -91.5zM340 8q116 0 181 82t65 238v42q0 156 -65 238t-181 82t-181 -82t-65 -238v-42q0 -156 65 -238t181 -82z" />
    <glyph glyph-name="Pi" unicode="&#x3a0;" horiz-adv-x="678" 
d="M108 0v698h462v-698h-22v678h-418v-678h-22z" />
    <glyph glyph-name="Rho" unicode="&#x3a1;" horiz-adv-x="594" 
d="M108 0v698h268q84 0 129 -50.5t45 -137.5t-45 -137.5t-129 -50.5h-246v-322h-22zM130 342h246q73 0 111.5 42.5t38.5 104.5v42q0 62 -38.5 104.5t-111.5 42.5h-246v-336z" />
    <glyph glyph-name="Sigma" unicode="&#x3a3;" horiz-adv-x="572" 
d="M50 0v22l276 332l-270 322v22h448v-20h-424l272 -324l-278 -334h430v-20h-454z" />
    <glyph glyph-name="Tau" unicode="&#x3a4;" horiz-adv-x="560" 
d="M269 0v678h-252v20h526v-20h-252v-678h-22z" />
    <glyph glyph-name="Upsilon" unicode="&#x3a5;" horiz-adv-x="546" 
d="M262 0v294l-241 404h25l226 -378h3l226 378h24l-241 -404v-294h-22z" />
    <glyph glyph-name="Phi" unicode="&#x3a6;" horiz-adv-x="826" 
d="M402 -29v66h-36q-144 0 -222 84.5t-78 232.5t78 232.5t222 84.5h36v54h22v-54h36q144 0 222 -84.5t78 -232.5t-78 -232.5t-222 -84.5h-36v-66h-22zM366 57h36v594h-36q-131 0 -203.5 -77.5t-72.5 -189.5v-60q0 -112 72.5 -189.5t203.5 -77.5zM424 57h36q131 0 203.5 77.5
t72.5 189.5v60q0 112 -72.5 189.5t-203.5 77.5h-36v-594z" />
    <glyph glyph-name="Chi" unicode="&#x3a7;" horiz-adv-x="558" 
d="M28 0l238 354l-229 344h26l215 -322h2l215 322h26l-228 -341l237 -357h-26l-223 335h-2l-225 -335h-26z" />
    <glyph glyph-name="Psi" unicode="&#x3a8;" horiz-adv-x="750" 
d="M364 0v208q-141 0 -212.5 62.5t-71.5 209.5v218h22v-220q0 -134 65 -192t197 -58v470h22v-470q132 0 197 58t65 192v220h22v-218q0 -147 -71.5 -209.5t-212.5 -62.5v-208h-22z" />
    <glyph glyph-name="uni03A9" unicode="&#x3a9;" horiz-adv-x="694" 
d="M82 0v20h177v17q-101 58 -142.5 136.5t-41.5 205.5q0 160 71 245.5t203 85.5t203 -85.5t71 -245.5q0 -127 -41.5 -205.5t-142.5 -136.5v-17h177v-20h-197v49q32 15 61 38t57 58.5t45 88t17 113.5v64q0 128 -68 203.5t-182 75.5t-182 -75.5t-68 -203.5v-64
q0 -61 17 -113.5t45 -88t57 -58.5t61 -38v-49h-197z" />
    <glyph glyph-name="Iotadieresis" unicode="&#x3aa;" horiz-adv-x="372" 
d="M95 819q-23 0 -23 21v7q0 21 23 21t23 -21v-7q0 -21 -23 -21zM277 819q-23 0 -23 21v7q0 21 23 21t23 -21v-7q0 -21 -23 -21zM68 0v19h107v660h-107v19h236v-19h-107v-660h107v-19h-236z" />
    <glyph glyph-name="Upsilondieresis" unicode="&#x3ab;" horiz-adv-x="546" 
d="M182 819q-23 0 -23 21v7q0 21 23 21t23 -21v-7q0 -21 -23 -21zM364 819q-23 0 -23 21v7q0 21 23 21t23 -21v-7q0 -21 -23 -21zM262 0v294l-241 404h25l226 -378h3l226 378h24l-241 -404v-294h-22z" />
    <glyph glyph-name="alphatonos" unicode="&#x3ac;" horiz-adv-x="635" 
d="M270 587l-16 6l68 158l21 -8zM248 -12q-84 0 -136 68.5t-52 196.5t52 196.5t136 68.5q82 0 132 -52t76 -187h3l22 67l54 160h22l-87 -249l58 -238h65v-19h-59q-14 0 -21 6.5t-12 28.5l-42 192h-3q-38 -137 -84.5 -188t-123.5 -51zM248 7q69 0 108.5 44t74.5 156l14 46
l-15 59q-27 105 -69.5 146t-112.5 41q-73 0 -119 -60.5t-46 -161.5v-48q0 -101 46 -161.5t119 -60.5z" />
    <glyph glyph-name="epsilontonos" unicode="&#x3ad;" horiz-adv-x="526" 
d="M273 587l-16 6l68 158l21 -8zM268 -12q-90 0 -138 37t-48 104q0 51 31.5 86.5t85.5 44.5v3q-98 33 -98 122q0 65 46.5 99t130.5 34q71 0 111 -19.5t71 -53.5l-16 -14q-29 33 -64.5 50.5t-100.5 17.5q-77 0 -116 -28.5t-39 -79.5v-12q0 -45 37 -77t95 -32h121v-19h-122
q-69 0 -109.5 -31t-40.5 -82v-21q0 -51 43.5 -80.5t119.5 -29.5q137 0 189 88l16 -11q-56 -96 -205 -96z" />
    <glyph glyph-name="etatonos" unicode="&#x3ae;" horiz-adv-x="566" 
d="M294 587l-16 6l68 158l21 -8zM450 -200v521q0 178 -155 178q-67 0 -113 -35.5t-46 -101.5v-362h-21v487h-85v19h77q29 0 29 -29v-47h3q15 38 54.5 63t103.5 25q85 0 129.5 -49.5t44.5 -143.5v-525h-21z" />
    <glyph glyph-name="iotatonos" unicode="&#x3af;" horiz-adv-x="269" 
d="M124 587l-16 6l68 158l21 -8zM134 0q-29 0 -29 29v477h21v-487h113v-19h-105z" />
    <glyph glyph-name="upsilondieresistonos" unicode="&#x3b0;" horiz-adv-x="546" 
d="M251 587l-16 6l68 158l21 -8zM187 642q-23 0 -23 21v7q0 21 23 21t23 -21v-7q0 -21 -23 -21zM369 642q-23 0 -23 21v7q0 21 23 21t23 -21v-7q0 -21 -23 -21zM273 -12q-94 0 -136 55.5t-42 185.5v277h21v-291q0 -115 38 -161.5t119 -46.5t119 46.5t38 161.5v291h21v-277
q0 -130 -42 -185.5t-136 -55.5z" />
    <glyph glyph-name="alpha" unicode="&#x3b1;" horiz-adv-x="635" 
d="M248 -12q-84 0 -136 68.5t-52 196.5t52 196.5t136 68.5q82 0 132 -52t76 -187h3l22 67l54 160h22l-87 -249l58 -238h65v-19h-59q-14 0 -21 6.5t-12 28.5l-42 192h-3q-38 -137 -84.5 -188t-123.5 -51zM248 7q69 0 108.5 44t74.5 156l14 46l-15 59q-27 105 -69.5 146
t-112.5 41q-73 0 -119 -60.5t-46 -161.5v-48q0 -101 46 -161.5t119 -60.5z" />
    <glyph glyph-name="beta" unicode="&#x3b2;" horiz-adv-x="569" 
d="M105 -200v713q0 239 185 239q76 0 126.5 -48t50.5 -130q0 -66 -32 -108.5t-86 -56.5v-3q155 -27 155 -204q0 -98 -56.5 -156t-150.5 -58q-64 0 -107 26t-61 64h-3v-278h-21zM297 7q86 0 135 52.5t49 118.5v48q0 76 -48 123t-131 47h-93v19h92q64 0 103.5 42t39.5 103v28
q0 62 -44.5 103.5t-109.5 41.5q-164 0 -164 -212v-378q0 -59 50 -97.5t121 -38.5z" />
    <glyph glyph-name="gamma" unicode="&#x3b3;" horiz-adv-x="469" 
d="M232 -200v200l-173 487h-55v19h49q21 0 28 -18l132 -375l28 -89h3l32 89l147 393h21l-191 -506v-200h-21z" />
    <glyph glyph-name="delta" unicode="&#x3b4;" horiz-adv-x="540" 
d="M270 -12q-99 0 -154.5 67t-55.5 188q0 122 71.5 191.5t196.5 71.5v2l-221 211v21h342v-19h-267l-54 3v-1l146 -135q122 -114 164 -190t42 -166q0 -116 -55.5 -180t-154.5 -64zM270 7q88 0 137.5 56t49.5 146v36q0 65 -23.5 119.5t-91.5 128.5q-128 -3 -193.5 -67.5
t-65.5 -158.5v-48q0 -94 49.5 -153t137.5 -59z" />
    <glyph glyph-name="epsilon" unicode="&#x3b5;" horiz-adv-x="526" 
d="M268 -12q-90 0 -138 37t-48 104q0 51 31.5 86.5t85.5 44.5v3q-98 33 -98 122q0 65 46.5 99t130.5 34q71 0 111 -19.5t71 -53.5l-16 -14q-29 33 -64.5 50.5t-100.5 17.5q-77 0 -116 -28.5t-39 -79.5v-12q0 -45 37 -77t95 -32h121v-19h-122q-69 0 -109.5 -31t-40.5 -82v-21
q0 -51 43.5 -80.5t119.5 -29.5q137 0 189 88l16 -11q-56 -96 -205 -96z" />
    <glyph glyph-name="zeta" unicode="&#x3b6;" horiz-adv-x="428" 
d="M342 -160l-19 6l37 141l-77 20q-126 33 -175.5 84t-49.5 136q0 103 106 231l221 265v1l-54 -3h-259v19h332v-21l-224 -272q-99 -120 -99 -212v-16q0 -74 46 -119t160 -74l70 -18q22 -6 22 -23q0 -5 -2 -13z" />
    <glyph glyph-name="eta" unicode="&#x3b7;" horiz-adv-x="566" 
d="M450 -200v521q0 178 -155 178q-67 0 -113 -35.5t-46 -101.5v-362h-21v487h-85v19h77q29 0 29 -29v-47h3q15 38 54.5 63t103.5 25q85 0 129.5 -49.5t44.5 -143.5v-525h-21z" />
    <glyph glyph-name="theta" unicode="&#x3b8;" horiz-adv-x="548" 
d="M274 -12q-101 0 -152.5 86.5t-51.5 295.5t51.5 295.5t152.5 86.5t152.5 -86.5t51.5 -295.5t-51.5 -295.5t-152.5 -86.5zM93 380h362v14q0 183 -45.5 261t-135.5 78t-135.5 -78t-45.5 -261v-14zM274 7q90 0 135.5 78t45.5 261v15h-362v-15q0 -183 45.5 -261t135.5 -78z
" />
    <glyph glyph-name="iota" unicode="&#x3b9;" horiz-adv-x="269" 
d="M134 0q-29 0 -29 29v477h21v-487h113v-19h-105z" />
    <glyph glyph-name="kappa" unicode="&#x3ba;" horiz-adv-x="490" 
d="M105 0v506h21v-297h3l276 288q9 9 23 9h44v-19h-50l-194 -203l248 -284h-26l-237 269l-87 -89v-180h-21z" />
    <glyph glyph-name="lambda" unicode="&#x3bb;" horiz-adv-x="468" 
d="M17 0l191 508l-74 213h-65v19h59q20 0 27 -18l244 -703h55v-19h-48q-21 0 -28 18l-104 299l-55 159h-3l-59 -157l-119 -319h-21z" />
    <glyph glyph-name="uni03BC" unicode="&#x3bc;" horiz-adv-x="576" 
d="M105 -200v706h21v-321q0 -178 155 -178q67 0 113 35.5t46 101.5v362h21v-487h85v-19h-77q-29 0 -29 29v47h-3q-15 -38 -54.5 -63t-103.5 -25q-116 0 -155 91h-3l5 -123v-156h-21z" />
    <glyph glyph-name="nu" unicode="&#x3bd;" horiz-adv-x="469" 
d="M230 0l-171 487h-55v19h49q21 0 28 -18l58 -169l103 -295h3l178 482h21l-188 -506h-26z" />
    <glyph glyph-name="xi" unicode="&#x3be;" horiz-adv-x="463" 
d="M359 -160l-19 6l37 141l-77 20q-135 35 -185 83t-50 137q0 67 40.5 116.5t114.5 61.5v3q-118 30 -118 159q0 53 30.5 95.5t83.5 55.5v3h-137v19h332v-19h-113q-82 0 -127.5 -43.5t-45.5 -103.5v-14q0 -67 40.5 -106t108.5 -39h79v-19h-78q-88 0 -137.5 -45.5
t-49.5 -115.5v-16q0 -77 46 -119t170 -74l70 -18q22 -6 22 -23q0 -5 -2 -13z" />
    <glyph glyph-name="omicron" unicode="&#x3bf;" horiz-adv-x="540" 
d="M270 -12q-100 0 -155 67.5t-55 197.5t55 197.5t155 67.5t155 -67.5t55 -197.5t-55 -197.5t-155 -67.5zM270 7q89 0 138 59.5t49 162.5v48q0 103 -49 162.5t-138 59.5t-138 -59.5t-49 -162.5v-48q0 -103 49 -162.5t138 -59.5z" />
    <glyph glyph-name="pi" unicode="&#x3c0;" horiz-adv-x="590" 
d="M125 0v487h-95v19h522v-19h-107v-468h75v-19h-67q-29 0 -29 29v458h-278v-487h-21z" />
    <glyph glyph-name="rho" unicode="&#x3c1;" horiz-adv-x="535" 
d="M75 -200v453q0 130 52.5 197.5t147.5 67.5t147.5 -67.5t52.5 -197.5t-55.5 -197.5t-156.5 -67.5q-62 0 -104 26.5t-60 63.5h-3v-278h-21zM263 7q90 0 139.5 59t49.5 163v48q0 103 -46.5 162.5t-130.5 59.5q-85 0 -132 -61.5t-47 -172.5v-122q0 -59 49.5 -97.5
t117.5 -38.5z" />
    <glyph glyph-name="uni03C2" unicode="&#x3c2;" horiz-adv-x="487" 
d="M368 -160l-19 6l37 141l-77 20q-129 34 -189 94t-60 172q0 114 55.5 179.5t154.5 65.5q113 0 165 -100l-18 -9q-50 90 -147 90q-88 0 -137.5 -58t-49.5 -152v-32q0 -93 55.5 -146.5t174.5 -84.5l70 -18q22 -6 22 -23q0 -5 -2 -13z" />
    <glyph glyph-name="sigma" unicode="&#x3c3;" horiz-adv-x="550" 
d="M270 -12q-100 0 -155 66.5t-55 192.5q0 124 57.5 191.5t158.5 67.5h247v-19h-156v-3q113 -67 113 -237q0 -126 -55 -192.5t-155 -66.5zM270 7q89 0 138 58.5t49 157.5v48q0 145 -117 216h-64q-91 0 -142 -59.5t-51 -156.5v-48q0 -99 49 -157.5t138 -58.5z" />
    <glyph glyph-name="tau" unicode="&#x3c4;" horiz-adv-x="482" 
d="M250 0q-29 0 -29 29v458h-186v19h409v-19h-202v-468h118v-19h-110z" />
    <glyph glyph-name="upsilon" unicode="&#x3c5;" horiz-adv-x="546" 
d="M273 -12q-94 0 -136 55.5t-42 185.5v277h21v-291q0 -115 38 -161.5t119 -46.5t119 46.5t38 161.5v291h21v-277q0 -130 -42 -185.5t-136 -55.5z" />
    <glyph glyph-name="phi" unicode="&#x3c6;" horiz-adv-x="677" 
d="M315 -200v188q-255 0 -255 269q0 194 124 261l11 -17q-55 -28 -83.5 -86t-28.5 -134v-48q0 -107 59 -166.5t173 -59.5v264q0 129 37 188t111 59t111 -60t37 -191q0 -144 -69.5 -211.5t-205.5 -67.5v-188h-21zM336 7q252 0 252 236v48q0 107 -31 157.5t-94 50.5
q-65 0 -96 -53.5t-31 -164.5v-274z" />
    <glyph glyph-name="chi" unicode="&#x3c7;" horiz-adv-x="457" 
d="M22 -200l191 363l-148 324h-55v19h49q21 0 29 -19l138 -306h2l175 325h22l-186 -343l151 -344h55v-19h-49q-21 0 -29 19l-141 326h-2l-180 -345h-22z" />
    <glyph glyph-name="psi" unicode="&#x3c8;" horiz-adv-x="693" 
d="M336 -200v188q-126 0 -183.5 55.5t-57.5 185.5v277h21v-291q0 -115 54 -161.5t166 -46.5v703h21v-703q112 0 166 46.5t54 161.5v291h21v-277q0 -130 -57.5 -185.5t-183.5 -55.5v-188h-21z" />
    <glyph glyph-name="omega" unicode="&#x3c9;" horiz-adv-x="699" 
d="M213 -12q-74 0 -110.5 60t-36.5 191q0 212 124 279l11 -17q-112 -56 -112 -238v-48q0 -107 30.5 -157.5t93.5 -50.5q60 0 93 49t33 169v124h21v-124q0 -120 33 -169t93 -49q63 0 93.5 50.5t30.5 157.5v48q0 182 -112 238l11 17q124 -67 124 -279q0 -131 -36.5 -191
t-110.5 -60q-116 0 -135 142h-3q-19 -142 -135 -142z" />
    <glyph glyph-name="iotadieresis" unicode="&#x3ca;" horiz-adv-x="269" 
d="M33 642q-23 0 -23 21v7q0 21 23 21t23 -21v-7q0 -21 -23 -21zM215 642q-23 0 -23 21v7q0 21 23 21t23 -21v-7q0 -21 -23 -21zM134 0q-29 0 -29 29v477h21v-487h113v-19h-105z" />
    <glyph glyph-name="upsilondieresis" unicode="&#x3cb;" horiz-adv-x="546" 
d="M182 642q-23 0 -23 21v7q0 21 23 21t23 -21v-7q0 -21 -23 -21zM364 642q-23 0 -23 21v7q0 21 23 21t23 -21v-7q0 -21 -23 -21zM273 -12q-94 0 -136 55.5t-42 185.5v277h21v-291q0 -115 38 -161.5t119 -46.5t119 46.5t38 161.5v291h21v-277q0 -130 -42 -185.5t-136 -55.5z
" />
    <glyph glyph-name="omicrontonos" unicode="&#x3cc;" horiz-adv-x="540" 
d="M270 587l-16 6l68 158l21 -8zM270 -12q-100 0 -155 67.5t-55 197.5t55 197.5t155 67.5t155 -67.5t55 -197.5t-55 -197.5t-155 -67.5zM270 7q89 0 138 59.5t49 162.5v48q0 103 -49 162.5t-138 59.5t-138 -59.5t-49 -162.5v-48q0 -103 49 -162.5t138 -59.5z" />
    <glyph glyph-name="upsilontonos" unicode="&#x3cd;" horiz-adv-x="546" 
d="M273 588l-16 6l68 158l21 -8zM273 -12q-94 0 -136 55.5t-42 185.5v277h21v-291q0 -115 38 -161.5t119 -46.5t119 46.5t38 161.5v291h21v-277q0 -130 -42 -185.5t-136 -55.5z" />
    <glyph glyph-name="omegatonos" unicode="&#x3ce;" horiz-adv-x="699" 
d="M349 587l-16 6l68 158l21 -8zM213 -12q-74 0 -110.5 60t-36.5 191q0 212 124 279l11 -17q-112 -56 -112 -238v-48q0 -107 30.5 -157.5t93.5 -50.5q60 0 93 49t33 169v124h21v-124q0 -120 33 -169t93 -49q63 0 93.5 50.5t30.5 157.5v48q0 182 -112 238l11 17
q124 -67 124 -279q0 -131 -36.5 -191t-110.5 -60q-116 0 -135 142h-3q-19 -142 -135 -142z" />
    <glyph glyph-name="uni0400" unicode="&#x400;" horiz-adv-x="561" 
d="M316 767l-115 152l19 12l111 -154zM108 0v698h381v-20h-359v-314h347v-20h-347v-324h359v-20h-381z" />
    <glyph glyph-name="uni0401" unicode="&#x401;" horiz-adv-x="561" 
d="M208 819q-23 0 -23 21v7q0 21 23 21t23 -21v-7q0 -21 -23 -21zM390 819q-23 0 -23 21v7q0 21 23 21t23 -21v-7q0 -21 -23 -21zM108 0v698h381v-20h-359v-314h347v-20h-347v-324h359v-20h-381z" />
    <glyph glyph-name="uni0402" unicode="&#x402;" horiz-adv-x="772" 
d="M516 -164v20h85q81 24 81 186v151q0 208 -205 208q-112 0 -186 -29v-372h-22v678h-252v20h526v-20h-252v-285h5q72 28 183 28q225 0 225 -228v-151q0 -206 -125 -206h-63z" />
    <glyph glyph-name="uni0403" unicode="&#x403;" horiz-adv-x="506" 
d="M267 767l-15 10l111 154l19 -12zM108 0v698h354v-20h-332v-678h-22z" />
    <glyph glyph-name="uni0404" unicode="&#x404;" horiz-adv-x="610" 
d="M329 -12q-125 0 -192 91.5t-67 269.5t67 269.5t192 91.5q74 0 130.5 -38.5t85.5 -104.5l-19 -9q-27 62 -78.5 97t-118.5 35q-112 0 -173.5 -81t-61.5 -239v-6h347v-20h-347v-16q0 -158 61.5 -239t173.5 -81q147 0 202 140l19 -8q-28 -70 -85.5 -111t-135.5 -41z" />
    <glyph glyph-name="uni0405" unicode="&#x405;" horiz-adv-x="547" 
d="M276 -12q-148 0 -234 114l18 13q40 -52 90.5 -79.5t125.5 -27.5q92 0 141.5 43t49.5 125q0 80 -43 115.5t-118 49.5l-70 13q-178 33 -178 180q0 87 56.5 131.5t156.5 44.5q142 0 206 -95l-18 -13q-61 88 -190 88q-90 0 -139.5 -39.5t-49.5 -116.5q0 -75 43 -110t119 -49
l70 -13q99 -19 138 -66.5t39 -117.5q0 -93 -56.5 -141.5t-156.5 -48.5z" />
    <glyph glyph-name="uni0406" unicode="&#x406;" horiz-adv-x="372" 
d="M68 0v19h107v660h-107v19h236v-19h-107v-660h107v-19h-236z" />
    <glyph glyph-name="uni0407" unicode="&#x407;" horiz-adv-x="372" 
d="M95 819q-23 0 -23 21v7q0 21 23 21t23 -21v-7q0 -21 -23 -21zM277 819q-23 0 -23 21v7q0 21 23 21t23 -21v-7q0 -21 -23 -21zM68 0v19h107v660h-107v19h236v-19h-107v-660h107v-19h-236z" />
    <glyph glyph-name="uni0408" unicode="&#x408;" horiz-adv-x="464" 
d="M192 -12q-62 0 -109 34.5t-61 90.5l19 6q15 -49 55 -80t96 -31q74 0 112 45t38 130v495h-246v20h268v-515q0 -95 -45.5 -145t-126.5 -50z" />
    <glyph glyph-name="uni0409" unicode="&#x409;" horiz-adv-x="977" 
d="M8 0v20h63q110 107 110 493v185h326v-300h236q84 0 129 -53.5t45 -145.5t-45 -145.5t-129 -53.5h-258v678h-282v-165q0 -195 -28.5 -320t-76.5 -173q-20 -20 -49 -20h-41zM507 20h236q73 0 111.5 45.5t38.5 112.5v42q0 67 -38.5 112.5t-111.5 45.5h-236v-358z" />
    <glyph glyph-name="uni040A" unicode="&#x40a;" horiz-adv-x="1033" 
d="M108 0v698h22v-320h407v320h22v-320h240q84 0 129 -50.5t45 -138.5t-45 -138.5t-129 -50.5h-262v358h-407v-358h-22zM559 20h240q73 0 111.5 43t38.5 105v42q0 62 -38.5 105t-111.5 43h-240v-338z" />
    <glyph glyph-name="uni040B" unicode="&#x40b;" horiz-adv-x="782" 
d="M269 0v678h-252v20h526v-20h-252v-285h5q72 28 183 28q120 0 177.5 -56.5t57.5 -173.5v-191h-22v191q0 109 -54 159.5t-161 50.5q-112 0 -186 -29v-372h-22z" />
    <glyph glyph-name="uni040C" unicode="&#x40c;" horiz-adv-x="616" 
d="M288 767l-15 10l111 154l19 -12zM108 0v698h22v-334h161l185 313q12 21 35 21h49v-20h-59l-172 -291q-18 -30 -35 -33v-2q20 -3 34 -27l185 -305h59v-20h-50q-22 0 -35 21l-196 323h-161v-344h-22z" />
    <glyph glyph-name="uni040D" unicode="&#x40d;" horiz-adv-x="692" 
d="M363 767l-115 152l19 12l111 -154zM108 0v698h21v-597l-4 -74h3l41 73l396 598h19v-698h-21v597l4 74h-3l-41 -73l-396 -598h-19z" />
    <glyph glyph-name="uni040E" unicode="&#x40e;" horiz-adv-x="573" 
d="M299 786q-44 0 -71.5 24t-47.5 67l-12 25l18 8l35 -66q29 -40 78 -40t78 40l35 66l18 -8l-12 -25q-20 -43 -47.5 -67t-71.5 -24zM158 0v19h91l51 128l-270 551h24l219 -445l37 -76h2l30 76l178 445h23l-272 -679q-9 -19 -33 -19h-80z" />
    <glyph glyph-name="uni040F" unicode="&#x40f;" horiz-adv-x="678" 
d="M328 -150v150h-220v698h22v-678h418v678h22v-698h-220v-150h-22z" />
    <glyph glyph-name="uni0410" unicode="&#x410;" 
d="M32 0l253 698h30l253 -698h-23l-85 234h-320l-85 -234h-23zM147 253h306l-152 422h-3z" />
    <glyph glyph-name="uni0411" unicode="&#x411;" horiz-adv-x="605" 
d="M108 0v698h372v-20h-350v-280h236q84 0 129 -53.5t45 -145.5t-45 -145.5t-129 -53.5h-258zM130 20h236q73 0 111.5 45.5t38.5 112.5v42q0 67 -38.5 112.5t-111.5 45.5h-236v-358z" />
    <glyph glyph-name="uni0412" unicode="&#x412;" horiz-adv-x="615" 
d="M108 0v698h252q75 0 116.5 -44t41.5 -126q0 -125 -98 -157v-2q64 -12 97 -58.5t33 -121.5q0 -88 -45 -138.5t-129 -50.5h-268zM130 378h230q65 0 99.5 37.5t34.5 91.5v42q0 54 -34.5 91.5t-99.5 37.5h-230v-300zM130 20h246q73 0 111.5 43t38.5 105v42q0 62 -38.5 105
t-111.5 43h-246v-338z" />
    <glyph glyph-name="uni0413" unicode="&#x413;" horiz-adv-x="506" 
d="M108 0v698h354v-20h-332v-678h-22z" />
    <glyph glyph-name="uni0414" unicode="&#x414;" horiz-adv-x="667" 
d="M10 -150v170h71q98 144 98 492v186h350v-678h88v-170h-22v150h-563v-150h-22zM109 20h398v658h-306v-165q0 -339 -92 -490v-3z" />
    <glyph glyph-name="uni0415" unicode="&#x415;" horiz-adv-x="561" 
d="M108 0v698h381v-20h-359v-314h347v-20h-347v-324h359v-20h-381z" />
    <glyph glyph-name="uni0416" unicode="&#x416;" horiz-adv-x="904" 
d="M44 0v20h59l168 307q12 22 31 25v2q-17 3 -30 26l-157 298h-59v20h49q23 0 35 -21l165 -313h136v334h22v-334h136l165 313q12 21 35 21h49v-20h-59l-157 -298q-13 -23 -30 -26v-2q19 -3 31 -25l168 -307h59v-20h-50q-24 0 -32 17l-179 327h-136v-344h-22v344h-136
l-179 -327q-8 -17 -32 -17h-50z" />
    <glyph glyph-name="uni0417" unicode="&#x417;" horiz-adv-x="575" 
d="M283 -12q-155 0 -223 107l18 11q62 -98 205 -98q90 0 146.5 44.5t56.5 116.5v28q0 67 -52.5 107t-141.5 40h-116v20h114q80 0 130.5 44t50.5 113v24q0 64 -51 104.5t-133 40.5q-135 0 -184 -99l-18 8q22 51 74 81t128 30q94 0 151 -47.5t57 -127.5q0 -76 -38 -121
t-102 -58v-3q72 -9 113.5 -52.5t41.5 -114.5q0 -92 -61 -145t-166 -53z" />
    <glyph glyph-name="uni0418" unicode="&#x418;" horiz-adv-x="692" 
d="M108 0v698h21v-597l-4 -74h3l41 73l396 598h19v-698h-21v597l4 74h-3l-41 -73l-396 -598h-19z" />
    <glyph glyph-name="uni0419" unicode="&#x419;" horiz-adv-x="692" 
d="M345 786q-44 0 -71.5 24t-47.5 67l-12 25l18 8l35 -66q29 -40 78 -40t78 40l35 66l18 -8l-12 -25q-20 -43 -47.5 -67t-71.5 -24zM108 0v698h21v-597l-4 -74h3l41 73l396 598h19v-698h-21v597l4 74h-3l-41 -73l-396 -598h-19z" />
    <glyph glyph-name="uni041A" unicode="&#x41a;" horiz-adv-x="616" 
d="M108 0v698h22v-334h161l185 313q12 21 35 21h49v-20h-59l-172 -291q-18 -30 -35 -33v-2q20 -3 34 -27l185 -305h59v-20h-50q-22 0 -35 21l-196 323h-161v-344h-22z" />
    <glyph glyph-name="uni041B" unicode="&#x41b;" horiz-adv-x="639" 
d="M8 0v20h63q110 107 110 493v185h350v-698h-22v678h-306v-165q0 -195 -28.5 -320t-76.5 -173q-20 -20 -49 -20h-41z" />
    <glyph glyph-name="uni041C" unicode="&#x41c;" horiz-adv-x="796" 
d="M108 0v698h33l256 -420h3l255 420h33v-698h-21v673h-3l-266 -437l-166 272l-100 165h-3v-673h-21z" />
    <glyph glyph-name="uni041D" unicode="&#x41d;" horiz-adv-x="692" 
d="M108 0v698h22v-334h432v334h22v-698h-22v344h-432v-344h-22z" />
    <glyph glyph-name="uni041E" unicode="&#x41e;" horiz-adv-x="680" 
d="M340 -12q-131 0 -200.5 91.5t-69.5 269.5t69.5 269.5t200.5 91.5t200.5 -91.5t69.5 -269.5t-69.5 -269.5t-200.5 -91.5zM340 8q116 0 181 82t65 238v42q0 156 -65 238t-181 82t-181 -82t-65 -238v-42q0 -156 65 -238t181 -82z" />
    <glyph glyph-name="uni041F" unicode="&#x41f;" horiz-adv-x="678" 
d="M108 0v698h462v-698h-22v678h-418v-678h-22z" />
    <glyph glyph-name="uni0420" unicode="&#x420;" horiz-adv-x="594" 
d="M108 0v698h268q84 0 129 -50.5t45 -137.5t-45 -137.5t-129 -50.5h-246v-322h-22zM130 342h246q73 0 111.5 42.5t38.5 104.5v42q0 62 -38.5 104.5t-111.5 42.5h-246v-336z" />
    <glyph glyph-name="uni0421" unicode="&#x421;" horiz-adv-x="610" 
d="M329 -12q-125 0 -192 91.5t-67 269.5t67 269.5t192 91.5q74 0 130.5 -38.5t85.5 -104.5l-19 -9q-27 62 -78.5 97t-118.5 35q-112 0 -173.5 -81t-61.5 -239v-42q0 -158 61.5 -239t173.5 -81q147 0 202 140l19 -8q-28 -70 -85.5 -111t-135.5 -41z" />
    <glyph glyph-name="uni0422" unicode="&#x422;" horiz-adv-x="560" 
d="M269 0v678h-252v20h526v-20h-252v-678h-22z" />
    <glyph glyph-name="uni0423" unicode="&#x423;" horiz-adv-x="573" 
d="M158 0v19h91l51 128l-270 551h24l219 -445l37 -76h2l30 76l178 445h23l-272 -679q-9 -19 -33 -19h-80z" />
    <glyph glyph-name="uni0424" unicode="&#x424;" horiz-adv-x="814" 
d="M396 -29v90h-56q-128 0 -204 80.5t-76 206.5t76 206.5t204 80.5h56v90h22v-90h56q128 0 204 -80.5t76 -206.5t-76 -206.5t-204 -80.5h-56v-90h-22zM340 81h56v534h-56q-116 0 -186 -73.5t-70 -163.5v-60q0 -90 70 -163.5t186 -73.5zM418 81h56q116 0 186 73.5t70 163.5
v60q0 90 -70 163.5t-186 73.5h-56v-534z" />
    <glyph glyph-name="uni0425" unicode="&#x425;" horiz-adv-x="558" 
d="M28 0l238 354l-229 344h26l215 -322h2l215 322h26l-228 -341l237 -357h-26l-223 335h-2l-225 -335h-26z" />
    <glyph glyph-name="uni0426" unicode="&#x426;" horiz-adv-x="708" 
d="M636 -150v150h-528v698h22v-678h418v678h22v-678h88v-170h-22z" />
    <glyph glyph-name="uni0427" unicode="&#x427;" horiz-adv-x="621" 
d="M491 0v305h-5q-72 -28 -183 -28q-120 0 -177.5 56.5t-57.5 173.5v191h22v-191q0 -109 54 -159.5t161 -50.5q112 0 186 29v372h22v-698h-22z" />
    <glyph glyph-name="uni0428" unicode="&#x428;" horiz-adv-x="904" 
d="M108 0v698h22v-676h311v676h22v-676h311v676h22v-698h-688z" />
    <glyph glyph-name="uni0429" unicode="&#x429;" horiz-adv-x="934" 
d="M862 -150v150h-754v698h22v-678h311v678h22v-678h311v678h22v-678h88v-170h-22z" />
    <glyph glyph-name="uni042A" unicode="&#x42a;" horiz-adv-x="726" 
d="M224 0v678h-207v20h229v-300h246q84 0 129 -53.5t45 -145.5t-45 -145.5t-129 -53.5h-268zM246 20h246q73 0 111.5 45.5t38.5 112.5v42q0 67 -38.5 112.5t-111.5 45.5h-246v-358z" />
    <glyph glyph-name="uni042B" unicode="&#x42b;" horiz-adv-x="822" 
d="M108 0v698h22v-300h236q84 0 129 -53.5t45 -145.5t-45 -145.5t-129 -53.5h-258zM692 0v698h22v-698h-22zM130 20h236q73 0 111.5 45.5t38.5 112.5v42q0 67 -38.5 112.5t-111.5 45.5h-236v-358z" />
    <glyph glyph-name="uni042C" unicode="&#x42c;" horiz-adv-x="610" 
d="M108 0v698h22v-300h246q84 0 129 -53.5t45 -145.5t-45 -145.5t-129 -53.5h-268zM130 20h246q73 0 111.5 45.5t38.5 112.5v42q0 67 -38.5 112.5t-111.5 45.5h-246v-358z" />
    <glyph glyph-name="uni042D" unicode="&#x42d;" horiz-adv-x="610" 
d="M281 -12q-78 0 -135.5 41t-85.5 111l19 8q55 -140 202 -140q112 0 173.5 81t61.5 239v16h-347v20h347v6q0 158 -61.5 239t-173.5 81q-67 0 -118.5 -35t-78.5 -97l-19 9q29 66 85.5 104.5t130.5 38.5q125 0 192 -91.5t67 -269.5t-67 -269.5t-192 -91.5z" />
    <glyph glyph-name="uni042E" unicode="&#x42e;" horiz-adv-x="905" 
d="M569 -12q-129 0 -197.5 90.5t-68.5 265.5h-173v-344h-22v698h22v-334h173q3 171 71.5 258.5t194.5 87.5q129 0 197.5 -91.5t68.5 -269.5t-68.5 -269.5t-197.5 -91.5zM569 8q114 0 178 82t64 238v42q0 156 -64 238t-178 82t-178 -82t-64 -238v-42q0 -156 64 -238t178 -82z
" />
    <glyph glyph-name="uni042F" unicode="&#x42f;" horiz-adv-x="630" 
d="M35 0v20h59l141 270q14 26 28 29v3q-88 -2 -135.5 48.5t-47.5 139.5q0 87 45 137.5t129 50.5h268v-698h-22v322h-223l-160 -305q-9 -17 -32 -17h-50zM254 342h246v336h-246q-73 0 -111.5 -42.5t-38.5 -104.5v-42q0 -62 38.5 -104.5t111.5 -42.5z" />
    <glyph glyph-name="uni0430" unicode="&#x430;" horiz-adv-x="519" 
d="M224 -12q-78 0 -120.5 37t-42.5 105q0 145 190 145h142v74q0 150 -144 150q-113 0 -153 -95l-18 8q46 106 171 106q82 0 123.5 -42.5t41.5 -123.5v-333h85v-19h-77q-29 0 -29 29v48h-3q-46 -89 -166 -89zM224 7q72 0 120.5 37t48.5 104v109h-141q-168 0 -168 -112v-30
q0 -51 38.5 -79.5t101.5 -28.5z" />
    <glyph glyph-name="uni0431" unicode="&#x431;" horiz-adv-x="544" 
d="M274 -12q-113 0 -161.5 74t-48.5 208q0 179 22 274t74.5 138.5t153.5 51.5l134 11v-19l-134 -11q-55 -4 -92.5 -20t-61.5 -40.5t-38.5 -67.5t-21.5 -89.5t-12 -119.5h3q46 128 183 128q102 0 156 -67.5t54 -191.5q0 -123 -54.5 -191t-155.5 -68zM274 7q86 0 136.5 58
t50.5 159v46q0 101 -49.5 159t-137.5 58q-86 0 -136.5 -58t-50.5 -159v-46q0 -101 50.5 -159t136.5 -58z" />
    <glyph glyph-name="uni0432" unicode="&#x432;" horiz-adv-x="550" 
d="M105 0v506h226q54 0 84 -31.5t30 -92.5q0 -94 -82 -120v-2q105 -18 105 -123q0 -64 -32.5 -100.5t-93.5 -36.5h-237zM126 269h195q49 0 75 28t26 70v30q0 39 -23.5 64.5t-67.5 25.5h-205v-218zM126 19h216q50 0 76.5 30t26.5 73v30q0 41 -30.5 69.5t-88.5 28.5h-200v-231
z" />
    <glyph glyph-name="uni0433" unicode="&#x433;" horiz-adv-x="442" 
d="M105 0v506h297v-19h-276v-487h-21z" />
    <glyph glyph-name="uni0434" unicode="&#x434;" horiz-adv-x="548" 
d="M5 -140v159h52q84 128 84 336v151h287v-487h75v-159h-21v140h-456v-140h-21zM79 19h328v468h-245v-132q0 -105 -22.5 -193t-60.5 -143z" />
    <glyph glyph-name="uni0435" unicode="&#x435;" horiz-adv-x="533" 
d="M272 -12q-100 0 -156 68t-56 197q0 128 54.5 196.5t153.5 68.5q92 0 148.5 -68.5t56.5 -183.5v-10h-390v-27q0 -103 50 -162.5t139 -59.5q128 0 175 124l18 -7q-23 -64 -72.5 -100t-120.5 -36zM83 275h367v4q0 100 -50 160t-132 60q-88 0 -136.5 -59.5t-48.5 -162.5v-2z
" />
    <glyph glyph-name="uni0436" unicode="&#x436;" horiz-adv-x="737" 
d="M42 0v19h57l107 205q12 23 18.5 30.5t17.5 9.5v3q-17 4 -34 36l-102 184h-57v19h49q20 0 32 -22l116 -209h112v231h21v-231h112l116 209q12 22 32 22h49v-19h-57l-102 -184q-17 -32 -34 -36v-3q11 -2 17.5 -9.5t18.5 -30.5l107 -205h57v-19h-54q-17 0 -25 16l-125 240
h-112v-256h-21v256h-112l-125 -240q-8 -16 -25 -16h-54z" />
    <glyph glyph-name="uni0437" unicode="&#x437;" horiz-adv-x="494" 
d="M232 -12q-123 0 -179 96l16 11q52 -88 163 -88q71 0 115 31.5t44 82.5v21q0 51 -38.5 80t-103.5 29h-101v19h100q56 0 93.5 31t37.5 76v18q0 47 -37.5 75.5t-100.5 28.5q-60 0 -98 -22.5t-63 -67.5l-18 9q52 100 179 100q74 0 116.5 -35t42.5 -95q0 -51 -28.5 -83.5
t-75.5 -41.5v-3q54 -7 85 -39t31 -88q0 -67 -47.5 -106t-132.5 -39z" />
    <glyph glyph-name="uni0438" unicode="&#x438;" horiz-adv-x="576" 
d="M105 0v506h21v-405l-3 -69h4l38 61l287 413h19v-506h-21v405l3 69h-4l-38 -61l-287 -413h-19z" />
    <glyph glyph-name="uni0439" unicode="&#x439;" horiz-adv-x="576" 
d="M286 606q-44 0 -71.5 24t-47.5 67l-12 25l18 8l35 -66q29 -40 78 -40t78 40l35 66l18 -8l-12 -25q-20 -43 -47.5 -67t-71.5 -24zM105 0v506h21v-405l-3 -69h4l38 61l287 413h19v-506h-21v405l3 69h-4l-38 -61l-287 -413h-19z" />
    <glyph glyph-name="uni043A" unicode="&#x43a;" horiz-adv-x="520" 
d="M105 0v506h21v-231h122l143 213q12 18 30 18h50v-19h-57l-125 -186q-20 -30 -37 -34v-3q20 -6 40 -38l129 -207h57v-19h-54q-16 0 -25 14l-151 242h-122v-256h-21z" />
    <glyph glyph-name="uni043B" unicode="&#x43b;" horiz-adv-x="539" 
d="M4 0v19h57q86 86 86 336v151h287v-506h-21v487h-245v-132q0 -133 -25 -219t-62 -123q-13 -13 -34 -13h-43z" />
    <glyph glyph-name="uni043C" unicode="&#x43c;" horiz-adv-x="682" 
d="M105 0v506h34l201 -329h3l200 329h34v-506h-21v480h-5l-210 -342l-210 342h-5v-480h-21z" />
    <glyph glyph-name="uni043D" unicode="&#x43d;" horiz-adv-x="576" 
d="M105 0v506h21v-231h324v231h21v-506h-21v256h-324v-256h-21z" />
    <glyph glyph-name="uni043E" unicode="&#x43e;" horiz-adv-x="540" 
d="M270 -12q-100 0 -155 67.5t-55 197.5t55 197.5t155 67.5t155 -67.5t55 -197.5t-55 -197.5t-155 -67.5zM270 7q89 0 138 59.5t49 162.5v48q0 103 -49 162.5t-138 59.5t-138 -59.5t-49 -162.5v-48q0 -103 49 -162.5t138 -59.5z" />
    <glyph glyph-name="uni043F" unicode="&#x43f;" horiz-adv-x="566" 
d="M105 0v506h356v-506h-21v487h-314v-487h-21z" />
    <glyph glyph-name="uni0440" unicode="&#x440;" horiz-adv-x="565" 
d="M105 -200v706h21v-78h3q18 37 60 63.5t104 26.5q101 0 156.5 -67.5t55.5 -197.5t-55.5 -197.5t-156.5 -67.5q-62 0 -104 26.5t-60 63.5h-3v-278h-21zM293 7q90 0 139.5 59t49.5 163v48q0 104 -49.5 163t-139.5 59q-68 0 -117.5 -38.5t-49.5 -97.5v-220q0 -59 49.5 -97.5
t117.5 -38.5z" />
    <glyph glyph-name="uni0441" unicode="&#x441;" horiz-adv-x="487" 
d="M270 -12q-100 0 -155 67.5t-55 197.5t55 197.5t155 67.5q113 0 165 -100l-18 -9q-50 90 -147 90q-89 0 -138 -59.5t-49 -162.5v-48q0 -103 49 -162.5t138 -59.5q107 0 158 88l16 -11q-56 -96 -174 -96z" />
    <glyph glyph-name="uni0442" unicode="&#x442;" horiz-adv-x="479" 
d="M229 0v487h-194v19h409v-19h-194v-487h-21z" />
    <glyph glyph-name="uni0443" unicode="&#x443;" horiz-adv-x="452" 
d="M57 -200v19h93l66 174l-191 513h22l106 -286l72 -196h3l70 190l108 292h21l-255 -687q-7 -19 -31 -19h-84z" />
    <glyph glyph-name="uni0444" unicode="&#x444;" horiz-adv-x="727" 
d="M353 -200v268h-3q-17 -35 -48 -57.5t-75 -22.5q-84 0 -123.5 66t-39.5 199t39.5 199t123.5 66q44 0 75 -22.5t48 -57.5h3v272h21v-272h3q17 35 48 57.5t75 22.5q84 0 123.5 -66t39.5 -199t-39.5 -199t-123.5 -66q-44 0 -75 22.5t-48 57.5h-3v-268h-21zM227 7
q53 0 89.5 37.5t36.5 74.5v268q0 37 -36.5 74.5t-89.5 37.5q-140 0 -140 -222v-48q0 -222 140 -222zM500 7q140 0 140 222v48q0 222 -140 222q-53 0 -89.5 -38t-36.5 -74v-268q0 -36 36.5 -74t89.5 -38z" />
    <glyph glyph-name="uni0445" unicode="&#x445;" horiz-adv-x="470" 
d="M34 0l188 255l-183 251h24l171 -235h2l171 235h24l-183 -251l188 -255h-24l-176 239h-2l-176 -239h-24z" />
    <glyph glyph-name="uni0446" unicode="&#x446;" horiz-adv-x="581" 
d="M515 -140v140h-410v506h21v-487h314v487h21v-487h75v-159h-21z" />
    <glyph glyph-name="uni0447" unicode="&#x447;" horiz-adv-x="521" 
d="M395 0v278h-3q-38 -83 -160 -83q-172 0 -172 161v150h21v-146q0 -146 153 -146q74 0 117.5 35.5t43.5 96.5v160h21v-506h-21z" />
    <glyph glyph-name="uni0448" unicode="&#x448;" horiz-adv-x="779" 
d="M105 0v506h21v-487h253v487h21v-487h253v487h21v-506h-569z" />
    <glyph glyph-name="uni0449" unicode="&#x449;" horiz-adv-x="794" 
d="M728 -140v140h-623v506h21v-487h253v487h21v-487h253v487h21v-487h75v-159h-21z" />
    <glyph glyph-name="uni044A" unicode="&#x44a;" horiz-adv-x="588" 
d="M184 0v487h-149v19h170v-213h169q75 0 115.5 -39.5t40.5 -106.5q0 -68 -40.5 -107.5t-115.5 -39.5h-190zM205 19h169q65 0 99 33t34 81v27q0 48 -34 81t-99 33h-169v-255z" />
    <glyph glyph-name="uni044B" unicode="&#x44b;" horiz-adv-x="672" 
d="M105 0v506h21v-213h151q75 0 115.5 -39.5t40.5 -106.5q0 -68 -40.5 -107.5t-115.5 -39.5h-172zM546 0v506h21v-506h-21zM126 19h151q65 0 99 33t34 81v27q0 48 -34 81t-99 33h-151v-255z" />
    <glyph glyph-name="uni044C" unicode="&#x44c;" horiz-adv-x="509" 
d="M105 0v506h21v-213h169q75 0 115.5 -39.5t40.5 -106.5q0 -68 -40.5 -107.5t-115.5 -39.5h-190zM126 19h169q65 0 99 33t34 81v27q0 48 -34 81t-99 33h-169v-255z" />
    <glyph glyph-name="uni044D" unicode="&#x44d;" horiz-adv-x="497" 
d="M227 -12q-118 0 -174 96l16 11q51 -88 158 -88q89 0 138 59.5t49 162.5v17h-266v19h266v12q0 103 -49 162.5t-138 59.5q-97 0 -147 -90l-18 9q52 100 165 100q100 0 155 -67.5t55 -197.5t-55 -197.5t-155 -67.5z" />
    <glyph glyph-name="uni044E" unicode="&#x44e;" horiz-adv-x="734" 
d="M470 -12q-97 0 -150.5 68.5t-53.5 199.5h-140v-256h-21v506h21v-231h140q5 118 58.5 180.5t145.5 62.5q97 0 150.5 -68t53.5 -197t-53.5 -197t-150.5 -68zM470 7q86 0 133.5 60t47.5 162v48q0 102 -47.5 162t-133.5 60t-133.5 -60t-47.5 -162v-48q0 -102 47.5 -162
t133.5 -60z" />
    <glyph glyph-name="uni044F" unicode="&#x44f;" horiz-adv-x="518" 
d="M38 0v19h57l89 167q11 20 24 25v3q-68 4 -104.5 43t-36.5 102q0 68 40.5 107.5t115.5 39.5h190v-506h-21v213h-170l-105 -197q-8 -16 -25 -16h-54zM223 232h169v255h-169q-65 0 -99 -33t-34 -81v-27q0 -48 34 -81t99 -33z" />
    <glyph glyph-name="uni0450" unicode="&#x450;" horiz-adv-x="533" 
d="M284 587l-115 152l19 12l111 -154zM272 -12q-100 0 -156 68t-56 197q0 128 54.5 196.5t153.5 68.5q92 0 148.5 -68.5t56.5 -183.5v-10h-390v-27q0 -103 50 -162.5t139 -59.5q128 0 175 124l18 -7q-23 -64 -72.5 -100t-120.5 -36zM83 275h367v4q0 100 -50 160t-132 60
q-88 0 -136.5 -59.5t-48.5 -162.5v-2z" />
    <glyph glyph-name="uni0451" unicode="&#x451;" horiz-adv-x="533" 
d="M176 642q-23 0 -23 21v7q0 21 23 21t23 -21v-7q0 -21 -23 -21zM358 642q-23 0 -23 21v7q0 21 23 21t23 -21v-7q0 -21 -23 -21zM272 -12q-100 0 -156 68t-56 197q0 128 54.5 196.5t153.5 68.5q92 0 148.5 -68.5t56.5 -183.5v-10h-390v-27q0 -103 50 -162.5t139 -59.5
q128 0 175 124l18 -7q-23 -64 -72.5 -100t-120.5 -36zM83 275h367v4q0 100 -50 160t-132 60q-88 0 -136.5 -59.5t-48.5 -162.5v-2z" />
    <glyph glyph-name="uni0452" unicode="&#x452;" horiz-adv-x="559" 
d="M358 -200v19h85v502q0 178 -155 178q-67 0 -113 -35.5t-46 -101.5v-362h-21v629h-66v18h66v93h21v-93h163v-18h-163v-199h3q15 38 54.5 63t103.5 25q85 0 129.5 -49.5t44.5 -143.5v-496q0 -29 -29 -29h-77z" />
    <glyph glyph-name="uni0453" unicode="&#x453;" horiz-adv-x="442" 
d="M236 587l-15 10l111 154l19 -12zM105 0v506h297v-19h-276v-487h-21z" />
    <glyph glyph-name="uni0454" unicode="&#x454;" horiz-adv-x="497" 
d="M270 -12q-100 0 -155 67.5t-55 197.5t55 197.5t155 67.5q113 0 165 -100l-18 -9q-50 90 -147 90q-89 0 -138 -59.5t-49 -162.5v-12h266v-19h-266v-17q0 -103 49 -162.5t138 -59.5q107 0 158 88l16 -11q-56 -96 -174 -96z" />
    <glyph glyph-name="uni0455" unicode="&#x455;" horiz-adv-x="462" 
d="M236 -12q-121 0 -187 93l18 12q34 -47 73.5 -66.5t95.5 -19.5q71 0 108.5 30.5t37.5 86.5q0 55 -31.5 83t-96.5 38l-44 7q-71 11 -107.5 42.5t-36.5 94.5q0 62 45 95.5t115 33.5q102 0 167 -73l-16 -14q-60 68 -150 68q-64 0 -102 -28.5t-38 -80.5q0 -55 30 -81t97 -37
l44 -7q71 -11 108 -43.5t37 -96.5q0 -65 -44.5 -101t-122.5 -36z" />
    <glyph glyph-name="uni0456" unicode="&#x456;" horiz-adv-x="231" 
d="M115 673q-23 0 -23 21v7q0 21 23 21t23 -21v-7q0 -21 -23 -21zM105 0v506h21v-506h-21z" />
    <glyph glyph-name="uni0457" unicode="&#x457;" horiz-adv-x="231" 
d="M25 642q-23 0 -23 21v7q0 21 23 21t23 -21v-7q0 -21 -23 -21zM207 642q-23 0 -23 21v7q0 21 23 21t23 -21v-7q0 -21 -23 -21zM105 0v506h21v-506h-21z" />
    <glyph glyph-name="uni0458" unicode="&#x458;" horiz-adv-x="231" 
d="M115 673q-23 0 -23 21v7q0 21 23 21t23 -21v-7q0 -21 -23 -21zM20 -200v19h85v687h21v-677q0 -29 -29 -29h-77z" />
    <glyph glyph-name="uni0459" unicode="&#x459;" horiz-adv-x="766" 
d="M4 0v19h57q86 86 86 336v151h254v-213h151q75 0 115.5 -39.5t40.5 -106.5q0 -68 -40.5 -107.5t-115.5 -39.5h-172v487h-212v-132q0 -133 -25 -219t-62 -123q-13 -13 -34 -13h-43zM401 19h151q65 0 99 33t34 81v27q0 48 -34 81t-99 33h-151v-255z" />
    <glyph glyph-name="uni045A" unicode="&#x45a;" horiz-adv-x="806" 
d="M105 0v506h21v-222h294v222h21v-222h151q76 0 116 -37.5t40 -104.5t-40 -104.5t-116 -37.5h-172v265h-294v-265h-21zM441 19h151q65 0 99 30.5t34 78.5v28q0 48 -34 78.5t-99 30.5h-151v-246z" />
    <glyph glyph-name="uni045B" unicode="&#x45b;" horiz-adv-x="559" 
d="M108 0v629h-66v18h66v93h21v-93h163v-18h-163v-199h3q15 38 54.5 63t103.5 25q85 0 129.5 -49.5t44.5 -143.5v-325h-21v321q0 178 -155 178q-67 0 -113 -35.5t-46 -101.5v-362h-21z" />
    <glyph glyph-name="uni045C" unicode="&#x45c;" horiz-adv-x="520" 
d="M251 587l-15 10l111 154l19 -12zM105 0v506h21v-231h122l143 213q12 18 30 18h50v-19h-57l-125 -186q-20 -30 -37 -34v-3q20 -6 40 -38l129 -207h57v-19h-54q-16 0 -25 14l-151 242h-122v-256h-21z" />
    <glyph glyph-name="uni045D" unicode="&#x45d;" horiz-adv-x="576" 
d="M303 587l-115 152l19 12l111 -154zM105 0v506h21v-405l-3 -69h4l38 61l287 413h19v-506h-21v405l3 69h-4l-38 -61l-287 -413h-19z" />
    <glyph glyph-name="uni045E" unicode="&#x45e;" horiz-adv-x="452" 
d="M227 605q-44 0 -71.5 24t-47.5 67l-12 25l18 8l35 -66q29 -40 78 -40t78 40l35 66l18 -8l-12 -25q-20 -43 -47.5 -67t-71.5 -24zM57 -200v19h93l66 174l-191 513h22l106 -286l72 -196h3l70 190l108 292h21l-255 -687q-7 -19 -31 -19h-84z" />
    <glyph glyph-name="uni045F" unicode="&#x45f;" horiz-adv-x="567" 
d="M273 -140v140h-168v506h21v-487h315v487h21v-506h-168v-140h-21z" />
    <glyph glyph-name="uni0472" unicode="&#x472;" horiz-adv-x="680" 
d="M340 -12q-131 0 -200.5 91.5t-69.5 269.5t69.5 269.5t200.5 91.5t200.5 -91.5t69.5 -269.5t-69.5 -269.5t-200.5 -91.5zM94 364h492v6q0 156 -65 238t-181 82t-181 -82t-65 -238v-6zM340 8q116 0 181 82t65 238v16h-492v-16q0 -156 65 -238t181 -82z" />
    <glyph glyph-name="uni0473" unicode="&#x473;" horiz-adv-x="540" 
d="M270 -12q-100 0 -155 67.5t-55 197.5t55 197.5t155 67.5t155 -67.5t55 -197.5t-55 -197.5t-155 -67.5zM83 268h374v9q0 103 -49 162.5t-138 59.5t-138 -59.5t-49 -162.5v-9zM270 7q89 0 138 59.5t49 162.5v20h-374v-20q0 -103 49 -162.5t138 -59.5z" />
    <glyph glyph-name="uni0490" unicode="&#x490;" horiz-adv-x="506" 
d="M108 0v698h332v150h22v-170h-332v-678h-22z" />
    <glyph glyph-name="uni0491" unicode="&#x491;" horiz-adv-x="442" 
d="M105 0v506h276v140h21v-159h-276v-487h-21z" />
    <glyph glyph-name="uni0492" unicode="&#x492;" horiz-adv-x="526" 
d="M128 0v365h-102v19h102v314h354v-20h-332v-294h220v-19h-220v-365h-22z" />
    <glyph glyph-name="uni0493" unicode="&#x493;" horiz-adv-x="451" 
d="M114 0v257h-84v18h84v231h297v-19h-276v-212h186v-18h-186v-257h-21z" />
    <glyph glyph-name="uni0494" unicode="&#x494;" horiz-adv-x="611" 
d="M355 -164v20h85q81 24 81 186v114q0 108 -55.5 158t-168.5 50q-105 0 -167 -25v-339h-22v698h334v-20h-312v-317h5q60 23 165 23q125 0 184 -56t59 -172v-114q0 -206 -125 -206h-63z" />
    <glyph glyph-name="uni0495" unicode="&#x495;" horiz-adv-x="526" 
d="M312 -200v19h85q43 43 43 146v146q0 80 -37 113t-116 33q-74 0 -117.5 -35.5t-43.5 -96.5v-125h-21v506h297v-19h-276v-294h3q38 83 160 83q86 0 129 -38t43 -123v-154q0 -81 -23 -121t-55 -40h-71z" />
    <glyph glyph-name="uni0496" unicode="&#x496;" horiz-adv-x="914" 
d="M850 -150v150h-40q-24 0 -32 17l-179 327h-136v-344h-22v344h-136l-179 -327q-8 -17 -32 -17h-50v20h59l168 307q12 22 31 25v2q-17 3 -30 26l-157 298h-59v20h49q23 0 35 -21l165 -313h136v334h22v-334h136l165 313q12 21 35 21h49v-20h-59l-157 -298q-13 -23 -30 -26
v-2q19 -3 31 -25l168 -307h71v-170h-22z" />
    <glyph glyph-name="uni0497" unicode="&#x497;" horiz-adv-x="745" 
d="M684 -140v140h-43q-17 0 -25 16l-125 240h-112v-256h-21v256h-112l-125 -240q-8 -16 -25 -16h-54v19h57l107 205q12 23 18.5 30.5t17.5 9.5v3q-17 4 -34 36l-102 184h-57v19h49q20 0 32 -22l116 -209h112v231h21v-231h112l116 209q12 22 32 22h49v-19h-57l-102 -184
q-17 -32 -34 -36v-3q11 -2 17.5 -9.5t18.5 -30.5l107 -205h67v-159h-21z" />
    <glyph glyph-name="uni0498" unicode="&#x498;" horiz-adv-x="575" 
d="M272 -150v138q-146 3 -212 107l18 11q62 -98 205 -98q90 0 146.5 44.5t56.5 116.5v28q0 67 -52.5 107t-141.5 40h-116v20h114q80 0 130.5 44t50.5 113v24q0 64 -51 104.5t-133 40.5q-135 0 -184 -99l-18 8q22 51 74 81t128 30q94 0 151 -47.5t57 -127.5q0 -76 -38 -121
t-102 -58v-3q72 -9 113.5 -52.5t41.5 -114.5q0 -90 -58 -142.5t-158 -55.5v-138h-22z" />
    <glyph glyph-name="uni0499" unicode="&#x499;" horiz-adv-x="494" 
d="M222 -140v128q-115 4 -169 96l16 11q52 -88 163 -88q71 0 115 31.5t44 82.5v21q0 51 -38.5 80t-103.5 29h-101v19h100q56 0 93.5 31t37.5 76v18q0 47 -37.5 75.5t-100.5 28.5q-60 0 -98 -22.5t-63 -67.5l-18 9q52 100 179 100q74 0 116.5 -35t42.5 -95q0 -51 -28.5 -83.5
t-75.5 -41.5v-3q54 -7 85 -39t31 -88q0 -65 -44.5 -103.5t-124.5 -41.5v-128h-21z" />
    <glyph glyph-name="uni049A" unicode="&#x49a;" horiz-adv-x="626" 
d="M562 -150v150h-40q-22 0 -35 21l-196 323h-161v-344h-22v698h22v-334h161l185 313q12 21 35 21h49v-20h-59l-172 -291q-18 -30 -35 -33v-2q20 -3 34 -27l185 -305h71v-170h-22z" />
    <glyph glyph-name="uni049B" unicode="&#x49b;" horiz-adv-x="528" 
d="M467 -140v140h-43q-16 0 -25 14l-151 242h-122v-256h-21v506h21v-231h122l143 213q12 18 30 18h50v-19h-57l-125 -186q-20 -30 -37 -34v-3q20 -6 40 -38l129 -207h67v-159h-21z" />
    <glyph glyph-name="uni049C" unicode="&#x49c;" horiz-adv-x="626" 
d="M108 0v698h22v-334h83v173h22v-173h66l185 313q12 21 35 21h49v-20h-59l-172 -291q-18 -30 -35 -33v-2q20 -3 34 -27l185 -305h59v-20h-50q-22 0 -35 21l-196 323h-66v-171h-22v171h-83v-344h-22z" />
    <glyph glyph-name="uni049D" unicode="&#x49d;" horiz-adv-x="540" 
d="M105 0v506h21v-231h67v130h20v-130h55l143 213q12 18 30 18h50v-19h-57l-125 -186q-20 -30 -37 -34v-3q20 -6 40 -38l129 -207h57v-19h-54q-16 0 -25 14l-151 242h-55v-131h-20v131h-67v-256h-21z" />
    <glyph glyph-name="uni04A0" unicode="&#x4a0;" horiz-adv-x="732" 
d="M224 0v678h-207v20h229v-334h161l185 313q12 21 35 21h49v-20h-59l-172 -291q-18 -30 -35 -33v-2q20 -3 34 -27l185 -305h59v-20h-50q-22 0 -35 21l-196 323h-161v-344h-22z" />
    <glyph glyph-name="uni04A1" unicode="&#x4a1;" horiz-adv-x="599" 
d="M184 0v487h-149v19h170v-231h122l143 213q12 18 30 18h50v-19h-57l-125 -186q-20 -30 -37 -34v-3q20 -6 40 -38l129 -207h57v-19h-54q-16 0 -25 14l-151 242h-122v-256h-21z" />
    <glyph glyph-name="uni04A2" unicode="&#x4a2;" horiz-adv-x="722" 
d="M650 -150v150h-88v344h-432v-344h-22v698h22v-334h432v334h22v-678h88v-170h-22z" />
    <glyph glyph-name="uni04A3" unicode="&#x4a3;" horiz-adv-x="591" 
d="M525 -140v140h-75v256h-324v-256h-21v506h21v-231h324v231h21v-487h75v-159h-21z" />
    <glyph glyph-name="uni04A4" unicode="&#x4a4;" horiz-adv-x="935" 
d="M108 0v698h22v-334h407v334h354v-20h-332v-678h-22v344h-407v-344h-22z" />
    <glyph glyph-name="uni04A5" unicode="&#x4a5;" horiz-adv-x="762" 
d="M105 0v506h21v-222h294v222h297v-19h-276v-487h-21v265h-294v-265h-21z" />
    <glyph glyph-name="uni04AA" unicode="&#x4aa;" horiz-adv-x="610" 
d="M318 -150v138q-120 4 -184 95.5t-64 265.5q0 178 67 269.5t192 91.5q74 0 130.5 -38.5t85.5 -104.5l-19 -9q-27 62 -78.5 97t-118.5 35q-112 0 -173.5 -81t-61.5 -239v-42q0 -158 61.5 -239t173.5 -81q147 0 202 140l19 -8q-27 -68 -81.5 -108.5t-128.5 -43.5v-138h-22z
" />
    <glyph glyph-name="uni04AB" unicode="&#x4ab;" horiz-adv-x="487" 
d="M260 -140v128q-96 4 -148 71t-52 194q0 130 55 197.5t155 67.5q113 0 165 -100l-18 -9q-50 90 -147 90q-89 0 -138 -59.5t-49 -162.5v-48q0 -103 49 -162.5t138 -59.5q107 0 158 88l16 -11q-53 -92 -163 -96v-128h-21z" />
    <glyph glyph-name="uni04AE" unicode="&#x4ae;" horiz-adv-x="546" 
d="M284 0h-22v294l-241 404h24l226 -378h3l226 378h25l-241 -404v-294z" />
    <glyph glyph-name="uni04AF" unicode="&#x4af;" horiz-adv-x="452" 
d="M215 -200v200l-190 506h22l147 -393l30 -89h3l32 89l147 393h21l-191 -506v-200h-21z" />
    <glyph glyph-name="uni04B0" unicode="&#x4b0;" horiz-adv-x="546" 
d="M262 0v274h-181v20h181l-241 404h25l226 -378h3l226 378h24l-241 -404h181v-20h-181v-274h-22z" />
    <glyph glyph-name="uni04B1" unicode="&#x4b1;" horiz-adv-x="452" 
d="M215 -200v181h-130v19h130l-190 506h22l147 -393l30 -89h3l32 89l147 393h21l-191 -506h130v-19h-130v-181h-21z" />
    <glyph glyph-name="uni04B2" unicode="&#x4b2;" horiz-adv-x="590" 
d="M566 -150v150h-62l-223 335h-2l-225 -335h-26l238 354l-229 344h26l215 -322h2l215 322h26l-228 -341l224 -337h71v-170h-22z" />
    <glyph glyph-name="uni04B3" unicode="&#x4b3;" horiz-adv-x="489" 
d="M468 -140v140h-56l-176 239h-2l-176 -239h-24l188 255l-183 251h24l171 -235h2l171 235h24l-183 -251l174 -236h67v-159h-21z" />
    <glyph glyph-name="uni04B6" unicode="&#x4b6;" horiz-adv-x="651" 
d="M579 -150v150h-88v305h-5q-72 -28 -183 -28q-120 0 -177.5 56.5t-57.5 173.5v191h22v-191q0 -109 54 -159.5t161 -50.5q112 0 186 29v372h22v-678h88v-170h-22z" />
    <glyph glyph-name="uni04B7" unicode="&#x4b7;" horiz-adv-x="536" 
d="M470 -140v140h-75v278h-3q-38 -83 -160 -83q-172 0 -172 161v150h21v-146q0 -146 153 -146q74 0 117.5 35.5t43.5 96.5v160h21v-487h75v-159h-21z" />
    <glyph glyph-name="uni04B8" unicode="&#x4b8;" horiz-adv-x="621" 
d="M491 0v305h-5q-71 -28 -180 -28v-159h-20v159q-218 7 -218 230v191h22v-191q0 -104 49 -154.5t147 -55.5v185h20v-185q111 0 185 29v372h22v-698h-22z" />
    <glyph glyph-name="uni04B9" unicode="&#x4b9;" horiz-adv-x="521" 
d="M395 0v278h-3q-35 -78 -145 -83v-102h-20v102q-167 3 -167 161v150h21v-146q0 -143 146 -146v159h20v-159q68 4 108 39t40 93v160h21v-506h-21z" />
    <glyph glyph-name="uni04BA" unicode="&#x4ba;" horiz-adv-x="621" 
d="M108 0v698h22v-305h5q72 28 183 28q120 0 177.5 -56.5t57.5 -173.5v-191h-22v191q0 109 -54 159.5t-161 50.5q-112 0 -186 -29v-372h-22z" />
    <glyph glyph-name="uni04BB" unicode="&#x4bb;" horiz-adv-x="556" 
d="M105 0v740h21v-310h3q15 38 54.5 63t103.5 25q85 0 129.5 -49.5t44.5 -143.5v-325h-21v321q0 178 -155 178q-67 0 -113 -35.5t-46 -101.5v-362h-21z" />
    <glyph glyph-name="uni04C0" unicode="&#x4c0;" horiz-adv-x="372" 
d="M68 0v19h107v660h-107v19h236v-19h-107v-660h107v-19h-236z" />
    <glyph glyph-name="uni04C1" unicode="&#x4c1;" horiz-adv-x="904" 
d="M451 786q-44 0 -71.5 24t-47.5 67l-12 25l18 8l35 -66q29 -40 78 -40t78 40l35 66l18 -8l-12 -25q-20 -43 -47.5 -67t-71.5 -24zM44 0v20h59l168 307q12 22 31 25v2q-17 3 -30 26l-157 298h-59v20h49q23 0 35 -21l165 -313h136v334h22v-334h136l165 313q12 21 35 21h49
v-20h-59l-157 -298q-13 -23 -30 -26v-2q19 -3 31 -25l168 -307h59v-20h-50q-24 0 -32 17l-179 327h-136v-344h-22v344h-136l-179 -327q-8 -17 -32 -17h-50z" />
    <glyph glyph-name="uni04C2" unicode="&#x4c2;" horiz-adv-x="737" 
d="M369 606q-44 0 -71.5 24t-47.5 67l-12 25l18 8l35 -66q29 -40 78 -40t78 40l35 66l18 -8l-12 -25q-20 -43 -47.5 -67t-71.5 -24zM42 0v19h57l107 205q12 23 18.5 30.5t17.5 9.5v3q-17 4 -34 36l-102 184h-57v19h49q20 0 32 -22l116 -209h112v231h21v-231h112l116 209
q12 22 32 22h49v-19h-57l-102 -184q-17 -32 -34 -36v-3q11 -2 17.5 -9.5t18.5 -30.5l107 -205h57v-19h-54q-17 0 -25 16l-125 240h-112v-256h-21v256h-112l-125 -240q-8 -16 -25 -16h-54z" />
    <glyph glyph-name="uni04CF" unicode="&#x4cf;" horiz-adv-x="231" 
d="M105 0v740h21v-740h-21z" />
    <glyph glyph-name="uni04D0" unicode="&#x4d0;" 
d="M299 786q-44 0 -71.5 24t-47.5 67l-12 25l18 8l35 -66q29 -40 78 -40t78 40l35 66l18 -8l-12 -25q-20 -43 -47.5 -67t-71.5 -24zM32 0l253 698h30l253 -698h-23l-85 234h-320l-85 -234h-23zM147 253h306l-152 422h-3z" />
    <glyph glyph-name="uni04D1" unicode="&#x4d1;" horiz-adv-x="519" 
d="M249 606q-44 0 -71.5 24t-47.5 67l-12 25l18 8l35 -66q29 -40 78 -40t78 40l35 66l18 -8l-12 -25q-20 -43 -47.5 -67t-71.5 -24zM224 -12q-78 0 -120.5 37t-42.5 105q0 145 190 145h142v74q0 150 -144 150q-113 0 -153 -95l-18 8q46 106 171 106q82 0 123.5 -42.5
t41.5 -123.5v-333h85v-19h-77q-29 0 -29 29v48h-3q-46 -89 -166 -89zM224 7q72 0 120.5 37t48.5 104v109h-141q-168 0 -168 -112v-30q0 -51 38.5 -79.5t101.5 -28.5z" />
    <glyph glyph-name="uni04D2" unicode="&#x4d2;" 
d="M209 819q-23 0 -23 21v7q0 21 23 21t23 -21v-7q0 -21 -23 -21zM391 819q-23 0 -23 21v7q0 21 23 21t23 -21v-7q0 -21 -23 -21zM32 0l253 698h30l253 -698h-23l-85 234h-320l-85 -234h-23zM147 253h306l-152 422h-3z" />
    <glyph glyph-name="uni04D3" unicode="&#x4d3;" horiz-adv-x="519" 
d="M158 642q-23 0 -23 21v7q0 21 23 21t23 -21v-7q0 -21 -23 -21zM340 642q-23 0 -23 21v7q0 21 23 21t23 -21v-7q0 -21 -23 -21zM224 -12q-78 0 -120.5 37t-42.5 105q0 145 190 145h142v74q0 150 -144 150q-113 0 -153 -95l-18 8q46 106 171 106q82 0 123.5 -42.5
t41.5 -123.5v-333h85v-19h-77q-29 0 -29 29v48h-3q-46 -89 -166 -89zM224 7q72 0 120.5 37t48.5 104v109h-141q-168 0 -168 -112v-30q0 -51 38.5 -79.5t101.5 -28.5z" />
    <glyph glyph-name="uni04D4" unicode="&#x4d4;" horiz-adv-x="861" 
d="M2 0l383 698h404v-20h-359v-314h347v-20h-347v-324h359v-20h-381v234h-253l-129 -234h-24zM165 253h243v425h-11z" />
    <glyph glyph-name="uni04D5" unicode="&#x4d5;" horiz-adv-x="861" 
d="M219 -12q-78 0 -120.5 37t-42.5 105q0 145 190 145h142v74q0 150 -144 150q-113 0 -153 -95l-18 8q46 106 171 106q148 0 161 -136h3q23 65 71.5 100.5t116.5 35.5q92 0 148.5 -68.5t56.5 -183.5v-10h-390v-27q0 -103 50 -162.5t139 -59.5q128 0 175 124l18 -7
q-23 -64 -72.5 -100t-120.5 -36q-145 0 -192 133h-3q-12 -65 -63 -99t-123 -34zM411 275h367v4q0 100 -50 160t-132 60q-88 0 -136.5 -59.5t-48.5 -162.5v-2zM219 7q72 0 120.5 37t48.5 104v109h-141q-168 0 -168 -112v-30q0 -51 38.5 -79.5t101.5 -28.5z" />
    <glyph glyph-name="uni04D6" unicode="&#x4d6;" horiz-adv-x="561" 
d="M298 786q-44 0 -71.5 24t-47.5 67l-12 25l18 8l35 -66q29 -40 78 -40t78 40l35 66l18 -8l-12 -25q-20 -43 -47.5 -67t-71.5 -24zM108 0v698h381v-20h-359v-314h347v-20h-347v-324h359v-20h-381z" />
    <glyph glyph-name="uni04D7" unicode="&#x4d7;" horiz-adv-x="533" 
d="M267 606q-44 0 -71.5 24t-47.5 67l-12 25l18 8l35 -66q29 -40 78 -40t78 40l35 66l18 -8l-12 -25q-20 -43 -47.5 -67t-71.5 -24zM272 -12q-100 0 -156 68t-56 197q0 128 54.5 196.5t153.5 68.5q92 0 148.5 -68.5t56.5 -183.5v-10h-390v-27q0 -103 50 -162.5t139 -59.5
q128 0 175 124l18 -7q-23 -64 -72.5 -100t-120.5 -36zM83 275h367v4q0 100 -50 160t-132 60q-88 0 -136.5 -59.5t-48.5 -162.5v-2z" />
    <glyph glyph-name="uni04D8" unicode="&#x4d8;" horiz-adv-x="680" 
d="M340 -12q-131 0 -200.5 91.5t-69.5 269.5v2h516v19q0 156 -65 238t-181 82q-85 0 -143.5 -44.5t-84.5 -131.5l-19 10q57 186 247 186q130 0 200 -91.5t70 -269.5t-69.5 -269.5t-200.5 -91.5zM340 8q116 0 181 82t65 238v3h-492v-3q0 -156 65 -238t181 -82z" />
    <glyph glyph-name="uni04D9" unicode="&#x4d9;" horiz-adv-x="533" 
d="M265 -12q-92 0 -148.5 68.5t-56.5 183.5v10h390v27q0 103 -50 162.5t-139 59.5q-129 0 -176 -124l-17 7q23 64 72.5 100t120.5 36q100 0 156 -68t56 -197q0 -128 -54.5 -196.5t-153.5 -68.5zM265 7q88 0 136.5 59.5t48.5 162.5v2h-367v-4q0 -100 50 -160t132 -60z" />
    <glyph glyph-name="uni04DC" unicode="&#x4dc;" horiz-adv-x="904" 
d="M361 819q-23 0 -23 21v7q0 21 23 21t23 -21v-7q0 -21 -23 -21zM543 819q-23 0 -23 21v7q0 21 23 21t23 -21v-7q0 -21 -23 -21zM44 0v20h59l168 307q12 22 31 25v2q-17 3 -30 26l-157 298h-59v20h49q23 0 35 -21l165 -313h136v334h22v-334h136l165 313q12 21 35 21h49v-20
h-59l-157 -298q-13 -23 -30 -26v-2q19 -3 31 -25l168 -307h59v-20h-50q-24 0 -32 17l-179 327h-136v-344h-22v344h-136l-179 -327q-8 -17 -32 -17h-50z" />
    <glyph glyph-name="uni04DD" unicode="&#x4dd;" horiz-adv-x="737" 
d="M278 642q-23 0 -23 21v7q0 21 23 21t23 -21v-7q0 -21 -23 -21zM460 642q-23 0 -23 21v7q0 21 23 21t23 -21v-7q0 -21 -23 -21zM42 0v19h57l107 205q12 23 18.5 30.5t17.5 9.5v3q-17 4 -34 36l-102 184h-57v19h49q20 0 32 -22l116 -209h112v231h21v-231h112l116 209
q12 22 32 22h49v-19h-57l-102 -184q-17 -32 -34 -36v-3q11 -2 17.5 -9.5t18.5 -30.5l107 -205h57v-19h-54q-17 0 -25 16l-125 240h-112v-256h-21v256h-112l-125 -240q-8 -16 -25 -16h-54z" />
    <glyph glyph-name="uni04DE" unicode="&#x4de;" horiz-adv-x="575" 
d="M197 819q-23 0 -23 21v7q0 21 23 21t23 -21v-7q0 -21 -23 -21zM379 819q-23 0 -23 21v7q0 21 23 21t23 -21v-7q0 -21 -23 -21zM283 -12q-155 0 -223 107l18 11q62 -98 205 -98q90 0 146.5 44.5t56.5 116.5v28q0 67 -52.5 107t-141.5 40h-116v20h114q80 0 130.5 44
t50.5 113v24q0 64 -51 104.5t-133 40.5q-135 0 -184 -99l-18 8q22 51 74 81t128 30q94 0 151 -47.5t57 -127.5q0 -76 -38 -121t-102 -58v-3q72 -9 113.5 -52.5t41.5 -114.5q0 -92 -61 -145t-166 -53z" />
    <glyph glyph-name="uni04DF" unicode="&#x4df;" horiz-adv-x="494" 
d="M152 642q-23 0 -23 21v7q0 21 23 21t23 -21v-7q0 -21 -23 -21zM334 642q-23 0 -23 21v7q0 21 23 21t23 -21v-7q0 -21 -23 -21zM232 -12q-123 0 -179 96l16 11q52 -88 163 -88q71 0 115 31.5t44 82.5v21q0 51 -38.5 80t-103.5 29h-101v19h100q56 0 93.5 31t37.5 76v18
q0 47 -37.5 75.5t-100.5 28.5q-60 0 -98 -22.5t-63 -67.5l-18 9q52 100 179 100q74 0 116.5 -35t42.5 -95q0 -51 -28.5 -83.5t-75.5 -41.5v-3q54 -7 85 -39t31 -88q0 -67 -47.5 -106t-132.5 -39z" />
    <glyph glyph-name="uni04E2" unicode="&#x4e2;" horiz-adv-x="692" 
d="M217 838v18h258v-18h-258zM108 0v698h21v-597l-4 -74h3l41 73l396 598h19v-698h-21v597l4 74h-3l-41 -73l-396 -598h-19z" />
    <glyph glyph-name="uni04E3" unicode="&#x4e3;" horiz-adv-x="576" 
d="M157 658v18h258v-18h-258zM105 0v506h21v-405l-3 -69h4l38 61l287 413h19v-506h-21v405l3 69h-4l-38 -61l-287 -413h-19z" />
    <glyph glyph-name="uni04E4" unicode="&#x4e4;" horiz-adv-x="692" 
d="M255 819q-23 0 -23 21v7q0 21 23 21t23 -21v-7q0 -21 -23 -21zM437 819q-23 0 -23 21v7q0 21 23 21t23 -21v-7q0 -21 -23 -21zM108 0v698h21v-597l-4 -74h3l41 73l396 598h19v-698h-21v597l4 74h-3l-41 -73l-396 -598h-19z" />
    <glyph glyph-name="uni04E5" unicode="&#x4e5;" horiz-adv-x="576" 
d="M195 642q-23 0 -23 21v7q0 21 23 21t23 -21v-7q0 -21 -23 -21zM377 642q-23 0 -23 21v7q0 21 23 21t23 -21v-7q0 -21 -23 -21zM105 0v506h21v-405l-3 -69h4l38 61l287 413h19v-506h-21v405l3 69h-4l-38 -61l-287 -413h-19z" />
    <glyph glyph-name="uni04E6" unicode="&#x4e6;" horiz-adv-x="680" 
d="M249 819q-23 0 -23 21v7q0 21 23 21t23 -21v-7q0 -21 -23 -21zM431 819q-23 0 -23 21v7q0 21 23 21t23 -21v-7q0 -21 -23 -21zM340 -12q-131 0 -200.5 91.5t-69.5 269.5t69.5 269.5t200.5 91.5t200.5 -91.5t69.5 -269.5t-69.5 -269.5t-200.5 -91.5zM340 8q116 0 181 82
t65 238v42q0 156 -65 238t-181 82t-181 -82t-65 -238v-42q0 -156 65 -238t181 -82z" />
    <glyph glyph-name="uni04E7" unicode="&#x4e7;" horiz-adv-x="540" 
d="M179 642q-23 0 -23 21v7q0 21 23 21t23 -21v-7q0 -21 -23 -21zM361 642q-23 0 -23 21v7q0 21 23 21t23 -21v-7q0 -21 -23 -21zM270 -12q-100 0 -155 67.5t-55 197.5t55 197.5t155 67.5t155 -67.5t55 -197.5t-55 -197.5t-155 -67.5zM270 7q89 0 138 59.5t49 162.5v48
q0 103 -49 162.5t-138 59.5t-138 -59.5t-49 -162.5v-48q0 -103 49 -162.5t138 -59.5z" />
    <glyph glyph-name="uni04E8" unicode="&#x4e8;" horiz-adv-x="680" 
d="M340 -12q-131 0 -200.5 91.5t-69.5 269.5t69.5 269.5t200.5 91.5t200.5 -91.5t69.5 -269.5t-69.5 -269.5t-200.5 -91.5zM94 364h492v6q0 156 -65 238t-181 82t-181 -82t-65 -238v-6zM340 8q116 0 181 82t65 238v16h-492v-16q0 -156 65 -238t181 -82z" />
    <glyph glyph-name="uni04E9" unicode="&#x4e9;" horiz-adv-x="540" 
d="M270 -12q-100 0 -155 67.5t-55 197.5t55 197.5t155 67.5t155 -67.5t55 -197.5t-55 -197.5t-155 -67.5zM83 268h374v9q0 103 -49 162.5t-138 59.5t-138 -59.5t-49 -162.5v-9zM270 7q89 0 138 59.5t49 162.5v20h-374v-20q0 -103 49 -162.5t138 -59.5z" />
    <glyph glyph-name="uni04EE" unicode="&#x4ee;" horiz-adv-x="573" 
d="M171 838v18h258v-18h-258zM158 0v19h91l51 128l-270 551h24l219 -445l37 -76h2l30 76l178 445h23l-272 -679q-9 -19 -33 -19h-80z" />
    <glyph glyph-name="uni04EF" unicode="&#x4ef;" horiz-adv-x="452" 
d="M98 657v18h258v-18h-258zM57 -200v19h93l66 174l-191 513h22l106 -286l72 -196h3l70 190l108 292h21l-255 -687q-7 -19 -31 -19h-84z" />
    <glyph glyph-name="uni04F0" unicode="&#x4f0;" horiz-adv-x="573" 
d="M209 819q-23 0 -23 21v7q0 21 23 21t23 -21v-7q0 -21 -23 -21zM391 819q-23 0 -23 21v7q0 21 23 21t23 -21v-7q0 -21 -23 -21zM158 0v19h91l51 128l-270 551h24l219 -445l37 -76h2l30 76l178 445h23l-272 -679q-9 -19 -33 -19h-80z" />
    <glyph glyph-name="uni04F1" unicode="&#x4f1;" horiz-adv-x="452" 
d="M136 641q-23 0 -23 21v7q0 21 23 21t23 -21v-7q0 -21 -23 -21zM318 641q-23 0 -23 21v7q0 21 23 21t23 -21v-7q0 -21 -23 -21zM57 -200v19h93l66 174l-191 513h22l106 -286l72 -196h3l70 190l108 292h21l-255 -687q-7 -19 -31 -19h-84z" />
    <glyph glyph-name="uni04F2" unicode="&#x4f2;" horiz-adv-x="573" 
d="M220 767l-15 10l111 154l19 -12zM380 767l-15 10l111 154l19 -12zM158 0v19h91l51 128l-270 551h24l219 -445l37 -76h2l30 76l178 445h23l-272 -679q-9 -19 -33 -19h-80z" />
    <glyph glyph-name="uni04F3" unicode="&#x4f3;" horiz-adv-x="452" 
d="M147 586l-15 10l111 154l19 -12zM307 586l-15 10l111 154l19 -12zM57 -200v19h93l66 174l-191 513h22l106 -286l72 -196h3l70 190l108 292h21l-255 -687q-7 -19 -31 -19h-84z" />
    <glyph glyph-name="uni04F4" unicode="&#x4f4;" horiz-adv-x="621" 
d="M199 819q-23 0 -23 21v7q0 21 23 21t23 -21v-7q0 -21 -23 -21zM381 819q-23 0 -23 21v7q0 21 23 21t23 -21v-7q0 -21 -23 -21zM491 0v305h-5q-72 -28 -183 -28q-120 0 -177.5 56.5t-57.5 173.5v191h22v-191q0 -109 54 -159.5t161 -50.5q112 0 186 29v372h22v-698h-22z
" />
    <glyph glyph-name="uni04F5" unicode="&#x4f5;" horiz-adv-x="521" 
d="M146 642q-23 0 -23 21v7q0 21 23 21t23 -21v-7q0 -21 -23 -21zM328 642q-23 0 -23 21v7q0 21 23 21t23 -21v-7q0 -21 -23 -21zM395 0v278h-3q-38 -83 -160 -83q-172 0 -172 161v150h21v-146q0 -146 153 -146q74 0 117.5 35.5t43.5 96.5v160h21v-506h-21z" />
    <glyph glyph-name="uni04F8" unicode="&#x4f8;" horiz-adv-x="822" 
d="M320 819q-23 0 -23 21v7q0 21 23 21t23 -21v-7q0 -21 -23 -21zM502 819q-23 0 -23 21v7q0 21 23 21t23 -21v-7q0 -21 -23 -21zM108 0v698h22v-300h236q84 0 129 -53.5t45 -145.5t-45 -145.5t-129 -53.5h-258zM692 0v698h22v-698h-22zM130 20h236q73 0 111.5 45.5
t38.5 112.5v42q0 67 -38.5 112.5t-111.5 45.5h-236v-358z" />
    <glyph glyph-name="uni04F9" unicode="&#x4f9;" horiz-adv-x="672" 
d="M245 642q-23 0 -23 21v7q0 21 23 21t23 -21v-7q0 -21 -23 -21zM427 642q-23 0 -23 21v7q0 21 23 21t23 -21v-7q0 -21 -23 -21zM105 0v506h21v-213h151q75 0 115.5 -39.5t40.5 -106.5q0 -68 -40.5 -107.5t-115.5 -39.5h-172zM546 0v506h21v-506h-21zM126 19h151
q65 0 99 33t34 81v27q0 48 -34 81t-99 33h-151v-255z" />
    <glyph glyph-name="uni0E01" unicode="&#xe01;" horiz-adv-x="576" 
d="M280 576q201 0 201 -204v-372h-21v369q0 96 -45 142t-135 46q-176 0 -179 -181h164v-17q-68 -9 -105.5 -47.5t-37.5 -104.5v-207h-21v197q0 128 109 160v3h-130v12q0 204 200 204z" />
    <glyph glyph-name="uni0E02" unicode="&#xe02;" horiz-adv-x="523" 
d="M254 -12q-173 0 -173 189q0 58 14 104.5t31 71.5t31 60.5t14 74.5v59h-107v19h98q29 0 29 -29v-51q0 -40 -14 -76t-30.5 -60.5t-30.5 -69.5t-14 -100q0 -85 34.5 -129t117.5 -44q87 0 119.5 41.5t32.5 146.5v371h21v-374q0 -111 -38.5 -157.5t-134.5 -46.5z" />
    <glyph glyph-name="uni0E03" unicode="&#xe03;" horiz-adv-x="525" 
d="M256 -12q-92 0 -132.5 48t-40.5 138q0 58 17.5 105t38.5 72.5t38.5 61.5t17.5 75v27h-2q-27 -62 -97 -62q-33 0 -33 32v81h21v-94q53 0 82 24.5t29 65.5v4h20v-80q0 -40 -17.5 -76.5t-38 -61.5t-38 -70.5t-17.5 -100.5q0 -85 34 -127.5t118 -42.5q87 0 119.5 41.5
t32.5 146.5v371h21v-374q0 -111 -38.5 -157.5t-134.5 -46.5z" />
    <glyph glyph-name="uni0E04" unicode="&#xe04;" horiz-adv-x="586" 
d="M95 0v372q0 204 198 204t198 -204v-372h-21v369q0 96 -44 142t-133 46t-133 -46t-44 -142v-140h3q43 87 158 87h33v-19h-36q-66 0 -112 -36t-46 -102v-159h-21z" />
    <glyph glyph-name="uni0E05" unicode="&#xe05;" horiz-adv-x="598" 
d="M100 0v402q0 89 34.5 131.5t106.5 42.5l57 -68h2l58 68q71 0 105.5 -42.5t34.5 -131.5v-402h-21v399q0 84 -28 121.5t-83 36.5l-66 -76h-2l-66 76q-55 1 -83 -36.5t-28 -121.5v-170h3q43 87 158 87h33v-19h-36q-66 0 -112 -36t-46 -102v-159h-21z" />
    <glyph glyph-name="uni0E06" unicode="&#xe06;" horiz-adv-x="571" 
d="M289 -12q-71 0 -115.5 27.5t-61.5 69.5h-3v-85h-21v174q0 58 17.5 105t38.5 72.5t38.5 61.5t17.5 75v27h-2q-27 -62 -97 -62q-33 0 -33 32v81h21v-94q53 0 82 24.5t29 65.5v4h20v-80q0 -40 -17.5 -76.5t-38 -61.5t-38 -70.5t-17.5 -100.5v-20q0 -72 51.5 -111t126.5 -39
q168 0 168 188v371h21v-374q0 -100 -48 -152t-139 -52z" />
    <glyph glyph-name="uni0E07" unicode="&#xe07;" horiz-adv-x="509" 
d="M220 0l-180 566h22l173 -547h12q75 0 110.5 49.5t35.5 158.5v320h-101v19h93q29 0 29 -29v-314q0 -223 -163 -223h-31z" />
    <glyph glyph-name="uni0E08" unicode="&#xe08;" horiz-adv-x="520" 
d="M246 576q212 0 212 -288q0 -142 -57.5 -215t-150.5 -73h-40l-74 293h-76v19h68q25 0 31 -23l68 -271h23q81 0 133 63.5t52 178.5v56q0 113 -46.5 177t-142.5 64q-121 0 -175 -102l-17 10q57 111 192 111z" />
    <glyph glyph-name="uni0E09" unicode="&#xe09;" horiz-adv-x="552" 
d="M269 -12q-79 0 -117.5 37.5t-38.5 117.5v136h-55v19h47q29 0 29 -29v-126q0 -72 32.5 -104t102.5 -32q68 0 117.5 39.5t49.5 110.5v227q0 97 -43.5 135.5t-130.5 37.5q-134 -2 -180 -97l-20 8q52 108 200 108q98 0 146.5 -44.5t48.5 -144.5v-368h73v-19h-65
q-21 0 -25 12.5t-4 56.5v16h-3q-16 -41 -59 -69t-105 -28z" />
    <glyph glyph-name="uni0E0A" unicode="&#xe0a;" horiz-adv-x="526" 
d="M257 -12q-176 0 -176 189q0 58 14 104.5t31 71.5t31 60.5t14 74.5v59h-107v19h98q29 0 29 -29v-51q0 -40 -14 -76t-30.5 -60.5t-30.5 -69.5t-14 -100q0 -85 35 -129t120 -44q88 0 121.5 41.5t33.5 146.5v59q0 71 -27.5 100.5t-86.5 29.5h-26v18h4q61 0 96 40t35 104v20
h21v-20q0 -61 -24.5 -93t-67.5 -51v-4q48 -9 72.5 -42t24.5 -102v-62q0 -111 -39.5 -157.5t-136.5 -46.5z" />
    <glyph glyph-name="uni0E0B" unicode="&#xe0b;" horiz-adv-x="528" 
d="M259 -12q-94 0 -135 48t-41 138q0 58 17.5 105t38.5 72.5t38.5 61.5t17.5 75v27h-2q-27 -62 -97 -62q-33 0 -33 32v81h21v-94q53 0 82 24.5t29 65.5v4h20v-80q0 -40 -17.5 -76.5t-38 -61.5t-38 -70.5t-17.5 -100.5q0 -84 35 -127t120 -43q88 0 121.5 41.5t33.5 146.5v59
q0 71 -27.5 100.5t-86.5 29.5h-26v18h4q61 0 96 40t35 104v20h21v-20q0 -61 -24.5 -93t-67.5 -51v-4q48 -9 72.5 -42t24.5 -102v-62q0 -111 -39.5 -157.5t-136.5 -46.5z" />
    <glyph glyph-name="uni0E0C" unicode="&#xe0c;" horiz-adv-x="919" 
d="M803 566h21v-374q0 -99 -46 -151.5t-129 -52.5q-63 0 -106 28t-59 69h-3v-85h-21v369q0 96 -45 142t-135 46q-176 0 -179 -181h164v-17q-68 -9 -105.5 -47.5t-37.5 -104.5v-188h106v-19h-98q-29 0 -29 29v168q0 128 109 160v3h-130v12q0 204 200 204q201 0 201 -204v-215
q0 -71 49.5 -110.5t116.5 -39.5q74 0 115 46.5t41 141.5v371z" />
    <glyph glyph-name="uni0E0D" unicode="&#xe0d;" horiz-adv-x="935" 
d="M809 566h21v-556q0 -94 -51 -138.5t-135 -44.5q-139 0 -189 108l18 9q23 -50 64 -73.5t107 -24.5q165 -2 165 166v85h-3q-17 -41 -60 -69t-108 -28q-85 0 -131.5 52.5t-46.5 151.5v165q0 96 -45 142t-135 46q-176 0 -179 -181h164v-17q-68 -9 -105.5 -47.5t-37.5 -104.5
v-188h106v-19h-98q-29 0 -29 29v168q0 128 109 160v3h-130v12q0 204 200 204q201 0 201 -204v-165q0 -188 159 -188q69 0 119 39.5t50 110.5v397z" />
    <glyph glyph-name="uni0E0E" unicode="&#xe0e;" horiz-adv-x="576" 
d="M278 576q203 0 203 -204v-572h-22q-67 85 -167 85q-98 0 -154 -96l-17 10q57 105 172 105q101 0 164 -80h3v545q0 97 -45 142.5t-137 45.5q-178 0 -181 -181h173v-17q-68 -9 -105.5 -47.5t-37.5 -104.5v-178q0 -29 -29 -29h-68v19h76v178q0 128 109 160v3h-139v12
q0 204 202 204z" />
    <glyph glyph-name="uni0E0F" unicode="&#xe0f;" horiz-adv-x="576" 
d="M278 576q203 0 203 -204v-453q0 -65 -24 -92t-82 -27l-78 65h-2q-37 -70 -96 -70q-64 0 -100 68l15 13q34 -62 85 -62q28 0 49 16t43 56h9l81 -67q43 0 61 22t18 75v453q0 97 -45 142.5t-137 45.5q-178 0 -181 -181h173v-17q-68 -9 -105.5 -47.5t-37.5 -104.5v-178
q0 -29 -29 -29h-68v19h76v178q0 128 109 160v3h-139v12q0 204 202 204z" />
    <glyph glyph-name="uni0E10" unicode="&#xe10;" horiz-adv-x="528" 
d="M498 577h-96v-71q56 -71 56 -218q0 -142 -57.5 -215t-150.5 -73h-40l-74 293h-76v19h68q25 0 31 -23l68 -271h23q81 0 133 63.5t52 178.5v56q0 113 -46.5 177t-142.5 64q-121 0 -175 -102l-17 10q57 111 192 111q86 0 136 -48v41q0 27 27 27h89v-19zM404 -91v22h20v-20
q0 -41 -24 -66t-67 -25q-42 0 -69 25t-34 72h-3l-27 -64q-6 -16 -13 -20t-21 -4h-102v19h112l38 83h26q14 -50 35 -71.5t56 -21.5q33 0 53 19.5t20 51.5z" />
    <glyph glyph-name="uni0E11" unicode="&#xe11;" horiz-adv-x="596" 
d="M106 0v210q0 72 53 154q29 50 29 75v76h-2q-27 -62 -97 -62q-33 0 -33 32v81h21v-94q53 0 82 25t29 66v3h20v-124h3q94 135 185 135q98 0 98 -131v-446h-21v446q0 59 -19.5 85.5t-59.5 26.5q-83 0 -179 -142q-52 -74 -70 -117t-18 -87v-212h-21z" />
    <glyph glyph-name="uni0E12" unicode="&#xe12;" horiz-adv-x="919" 
d="M649 -12q-63 0 -106 28t-59 69h-3v-85h-21v399q0 84 -28 121.5t-83 36.5l-64 -76h-2l-63 76q-58 0 -94.5 -66.5t-36.5 -179.5v-54q0 -121 39 -179.5t126 -58.5h43v-19h-43q-98 0 -143 67.5t-45 216.5q0 142 44 217t118 75l55 -68h2l56 68q71 0 105.5 -42.5t34.5 -131.5
v-245q0 -71 49.5 -110.5t116.5 -39.5q74 0 115 46.5t41 141.5v371h21v-374q0 -99 -46 -151.5t-129 -52.5z" />
    <glyph glyph-name="uni0E13" unicode="&#xe13;" horiz-adv-x="929" 
d="M803 566h21v-566h-21v85h-3q-16 -41 -59 -69t-106 -28q-83 0 -129 52.5t-46 151.5v177q0 96 -45 142t-135 46q-176 0 -179 -181h164v-17q-68 -9 -105.5 -47.5t-37.5 -104.5v-188h106v-19h-98q-29 0 -29 29v168q0 128 109 160v3h-130v12q0 204 200 204q201 0 201 -204
v-177q0 -95 41 -141.5t115 -46.5q67 0 116.5 39.5t49.5 110.5v409z" />
    <glyph glyph-name="uni0E14" unicode="&#xe14;" horiz-adv-x="580" 
d="M252 0q-100 0 -143 70.5t-43 217.5q0 141 57.5 214.5t164.5 73.5q98 0 147.5 -53.5t49.5 -154.5v-368h-21v365q0 192 -177 192q-95 -1 -146.5 -65.5t-51.5 -176.5v-54q0 -118 37.5 -180t125.5 -62h43v-19h-43z" />
    <glyph glyph-name="uni0E15" unicode="&#xe15;" horiz-adv-x="592" 
d="M255 0q-102 0 -145.5 66.5t-43.5 217.5q0 292 173 292l55 -68h2l56 68q71 0 105.5 -42.5t34.5 -131.5v-402h-21v399q0 84 -28 121.5t-83 36.5l-64 -76h-2l-63 76q-68 0 -105 -66t-37 -180v-54q0 -123 37.5 -180.5t128.5 -57.5h43v-19h-43z" />
    <glyph glyph-name="uni0E16" unicode="&#xe16;" horiz-adv-x="576" 
d="M280 576q201 0 201 -204v-372h-21v369q0 96 -45 142t-135 46q-176 0 -179 -181h164v-17q-68 -9 -105.5 -47.5t-37.5 -104.5v-188h106v-19h-98q-29 0 -29 29v168q0 128 109 160v3h-130v12q0 204 200 204z" />
    <glyph glyph-name="uni0E17" unicode="&#xe17;" horiz-adv-x="588" 
d="M105 0v566h21v-87h3q17 42 61 69.5t115 27.5q92 0 140 -52t48 -152v-372h-21v369q0 188 -169 188q-74 0 -125.5 -39t-51.5 -111v-407h-21z" />
    <glyph glyph-name="uni0E18" unicode="&#xe18;" horiz-adv-x="522" 
d="M270 -7q-88 0 -167 46v215h21v-204q67 -38 146 -38q169 0 169 157q0 77 -32.5 112.5t-101.5 47.5l-191 27q-22 4 -29 12t-7 30v21q0 78 49 117t133 39q72 0 115 -22t75 -59l-16 -14q-30 36 -68 56t-105 20q-78 0 -120.5 -34t-42.5 -100v-44l211 -30q74 -10 112.5 -51.5
t38.5 -126.5q0 -87 -48.5 -132t-141.5 -45z" />
    <glyph glyph-name="uni0E19" unicode="&#xe19;" horiz-adv-x="588" 
d="M282 -12q-91 0 -139 52t-48 152v374h21v-371q0 -188 168 -188q75 0 126.5 39t51.5 111v409h21v-566h-21v85h-3q-17 -42 -61.5 -69.5t-115.5 -27.5z" />
    <glyph glyph-name="uni0E1A" unicode="&#xe1a;" horiz-adv-x="578" 
d="M289 -12q-108 0 -151 52t-43 178v348h21v-343q0 -121 37 -168.5t136 -47.5t136 47.5t37 168.5v343h21v-348q0 -126 -43 -178t-151 -52z" />
    <glyph glyph-name="uni0E1B" unicode="&#xe1b;" horiz-adv-x="578" 
d="M289 -12q-108 0 -151 52t-43 178v348h21v-343q0 -121 37 -169t136 -48t136 48t37 169v557h21v-562q0 -126 -43 -178t-151 -52z" />
    <glyph glyph-name="uni0E1C" unicode="&#xe1c;" horiz-adv-x="606" 
d="M105 0v537q0 29 29 29h98v-19h-106v-520l176 265h2l176 -265v539h21v-566h-28l-169 257h-2l-169 -257h-28z" />
    <glyph glyph-name="uni0E1D" unicode="&#xe1d;" horiz-adv-x="606" 
d="M105 0v537q0 29 29 29h98v-19h-106v-520l176 265h2l176 -265v753h21v-780h-28l-169 257h-2l-169 -257h-28z" />
    <glyph glyph-name="uni0E1E" unicode="&#xe1e;" horiz-adv-x="667" 
d="M160 0l-94 566h22l86 -536h2l144 536h27l144 -536h2l86 536h22l-94 -566h-27l-145 528h-3l-145 -528h-27z" />
    <glyph glyph-name="uni0E1F" unicode="&#xe1f;" horiz-adv-x="623" 
d="M156 0l-90 566h22l82 -536h2l143 536h27l145 -536h2l94 750h22l-102 -780h-27l-146 528h-3l-144 -528h-27z" />
    <glyph glyph-name="uni0E20" unicode="&#xe20;" horiz-adv-x="576" 
d="M278 576q203 0 203 -204v-372h-21v369q0 97 -45 142.5t-137 45.5q-178 0 -181 -181h173v-17q-68 -9 -105.5 -47.5t-37.5 -104.5v-178q0 -29 -29 -29h-68v19h76v178q0 128 109 160v3h-139v12q0 204 202 204z" />
    <glyph glyph-name="uni0E21" unicode="&#xe21;" horiz-adv-x="588" 
d="M306 -12q-71 0 -115.5 27.5t-61.5 69.5h-3v-85h-21v566h21v-409q0 -72 51.5 -111t126.5 -39q168 0 168 188v371h21v-374q0 -100 -48 -152t-139 -52z" />
    <glyph glyph-name="uni0E22" unicode="&#xe22;" horiz-adv-x="578" 
d="M286 -12q-109 0 -154 43.5t-45 143.5v29q0 126 94 126v4q-86 37 -86 174v29q0 29 29 29h125v-19h-133v-43q0 -82 35 -127.5t97 -45.5h26v-18h-87q-50 0 -64.5 -32t-14.5 -99v-2q0 -95 38.5 -134.5t139.5 -39.5t138.5 47.5t37.5 169.5v343h21v-348q0 -126 -44 -178
t-153 -52z" />
    <glyph glyph-name="uni0E23" unicode="&#xe23;" horiz-adv-x="480" 
d="M247 -12q-125 0 -195 105l16 11q36 -52 78 -74.5t101 -22.5q75 0 114.5 34.5t39.5 96.5q0 60 -33 91t-101 43l-47 8q-74 13 -111.5 47.5t-37.5 103.5t47 106.5t121 37.5q106 0 175 -81l-16 -14q-30 35 -65.5 55.5t-92.5 20.5q-67 0 -107.5 -33t-40.5 -91q0 -61 31 -90.5
t101 -41.5l47 -8q74 -13 112.5 -48.5t38.5 -104.5q0 -71 -46.5 -111t-128.5 -40z" />
    <glyph glyph-name="uni0E24" unicode="&#xe24;" horiz-adv-x="576" 
d="M280 576q201 0 201 -204v-572h-21v569q0 96 -45 142t-135 46q-176 0 -179 -181h164v-17q-68 -9 -105.5 -47.5t-37.5 -104.5v-188h106v-19h-98q-29 0 -29 29v168q0 128 109 160v3h-130v12q0 204 200 204z" />
    <glyph glyph-name="uni0E25" unicode="&#xe25;" horiz-adv-x="539" 
d="M255 576q189 0 189 -190v-386h-21v302h-155q-93 0 -139 -35t-46 -94v-32q0 -58 44 -90.5t115 -32.5h43v-18h-43q-87 0 -134.5 41t-47.5 116q0 163 207 163h156v63q0 94 -42.5 134t-125.5 40q-126 0 -168 -97l-19 8q22 52 70.5 80t116.5 28z" />
    <glyph glyph-name="uni0E26" unicode="&#xe26;" horiz-adv-x="576" 
d="M278 576q203 0 203 -204v-572h-21v569q0 97 -45 142.5t-137 45.5q-178 0 -181 -181h173v-17q-68 -9 -105.5 -47.5t-37.5 -104.5v-178q0 -29 -29 -29h-68v19h76v178q0 128 109 160v3h-139v12q0 204 202 204z" />
    <glyph glyph-name="uni0E27" unicode="&#xe27;" horiz-adv-x="494" 
d="M230 -12q-130 0 -182 112l20 8q47 -101 162 -101q87 0 133 61.5t46 183.5v60q0 122 -46 183.5t-133 61.5q-115 0 -162 -101l-20 8q52 112 182 112q101 0 151.5 -70t50.5 -224q0 -294 -202 -294z" />
    <glyph glyph-name="uni0E28" unicode="&#xe28;" horiz-adv-x="603" 
d="M545 577h-97v-55q48 -51 48 -150v-372h-21v369q0 97 -44 143t-133 46t-133 -46t-44 -143v-140h3q43 87 158 87h33v-19h-36q-66 0 -112 -36t-46 -102v-159h-21v372q0 204 198 204q84 0 131 -37v30q0 27 27 27h89v-19z" />
    <glyph glyph-name="uni0E29" unicode="&#xe29;" horiz-adv-x="592" 
d="M576 331v-17h-93v-96q0 -126 -43 -178t-151 -52t-151 52t-43 178v348h21v-343q0 -121 37 -169t136 -48t136 48t37 169v91h-159v18l159 -1v235h21v-235h93z" />
    <glyph glyph-name="uni0E2A" unicode="&#xe2a;" horiz-adv-x="554" 
d="M509 577h-97v-64q34 -45 34 -127v-386h-21v302h-155q-93 0 -139 -35t-46 -94v-32q0 -58 44 -90.5t115 -32.5h43v-18h-43q-87 0 -134.5 41t-47.5 116q0 163 207 163h156v63q0 94 -42.5 134t-125.5 40q-126 0 -168 -97l-19 8q22 52 70.5 80t116.5 28q90 0 136 -43v36
q0 27 27 27h89v-19z" />
    <glyph glyph-name="uni0E2B" unicode="&#xe2b;" horiz-adv-x="562" 
d="M105 0v566h21v-223h185q67 0 104 43.5t37 109.5v70h21v-62q0 -121 -95 -161v-4q99 -18 99 -153v-186h-21v194q0 130 -113 130h-217v-324h-21z" />
    <glyph glyph-name="uni0E2C" unicode="&#xe2c;" horiz-adv-x="646" 
d="M160 0l-94 566h22l86 -536h2l144 491h27l144 -491h2l77 482q9 59 -7.5 86.5t-63.5 27.5h-66v19h32q26 0 52.5 10.5t53.5 42.5t38 82h22q-10 -54 -38.5 -90.5t-63.5 -42.5v-3q40 -7 56 -42t7 -90l-85 -512h-27l-145 490h-3l-145 -490h-27z" />
    <glyph glyph-name="uni0E2D" unicode="&#xe2d;" horiz-adv-x="552" 
d="M278 -12q-98 0 -156 59t-58 174v55q0 29 29 29h124v-19h-132v-70q0 -101 49.5 -155t143.5 -54q89 0 141 66t52 196v23q0 132 -53.5 198.5t-146.5 66.5q-126 0 -176 -101l-20 8q55 112 196 112q104 0 163.5 -74t59.5 -221q0 -145 -58 -219t-158 -74z" />
    <glyph glyph-name="uni0E2E" unicode="&#xe2e;" horiz-adv-x="559" 
d="M519 577h-97v-61q72 -77 72 -235q0 -145 -58 -219t-158 -74q-98 0 -156 59t-58 174v55q0 29 29 29h118v-19h-126v-70q0 -101 49.5 -155t143.5 -54q89 0 141 66t52 196v23q0 132 -53.5 198.5t-146.5 66.5q-126 0 -176 -101l-20 8q55 112 196 112q79 0 132 -42v35
q0 27 27 27h89v-19z" />
    <glyph glyph-name="uni0E2F" unicode="&#xe2f;" horiz-adv-x="490" 
d="M364 0v351h-3q-17 -42 -56 -69.5t-99 -27.5q-75 0 -115.5 42t-40.5 114t40.5 114t115.5 42h50v-19h-50q-62 0 -98.5 -36t-36.5 -101q0 -64 36.5 -100t98.5 -36q64 0 111 39t47 110v143h21v-566h-21z" />
    <glyph glyph-name="uni0E30" unicode="&#xe30;" horiz-adv-x="377" 
d="M99 380q-29 0 -29 29v105h20v-115h227v-19h-218zM99 90q-29 0 -29 29v105h20v-115h227v-19h-218z" />
    <glyph glyph-name="uni0E31" unicode="&#xe31;" horiz-adv-x="0" 
d="M-210 666q-29 0 -29 29v75h20v-85h260v-19h-251z" />
    <glyph glyph-name="uni0E32" unicode="&#xe32;" horiz-adv-x="435" 
d="M321 0v411q0 146 -137 146q-106 0 -145 -93l-19 9q43 103 164 103q78 0 118 -41.5t40 -120.5v-414h-21z" />
    <glyph glyph-name="uni0E33" unicode="&#xe33;" horiz-adv-x="441" 
d="M-108 666q-35 0 -56 21t-21 55v6q0 32 21.5 52t55.5 20t55 -20t21 -52v-6q0 -34 -21 -55t-55 -21zM-108 684q25 0 40.5 16.5t15.5 44.5q0 26 -15.5 41.5t-40.5 15.5q-26 0 -42 -15.5t-16 -41.5q0 -28 16 -44.5t42 -16.5zM325 0v411q0 146 -137 146q-106 0 -145 -93l-19 9
q43 103 164 103q78 0 118 -41.5t40 -120.5v-414h-21z" />
    <glyph glyph-name="uni0E34" unicode="&#xe34;" horiz-adv-x="0" 
d="M-456 666v19h358v-19h-358z" />
    <glyph glyph-name="uni0E35" unicode="&#xe35;" horiz-adv-x="0" 
d="M-456 666v19h338v115h20v-105q0 -29 -29 -29h-329z" />
    <glyph glyph-name="uni0E36" unicode="&#xe36;" horiz-adv-x="0" 
d="M-147 810q32 0 51 -18.5t19 -49.5v-5q0 -32 -19 -51.5t-51 -19.5h-308v19h258q-20 18 -20 52v5q0 31 19.5 49.5t50.5 18.5zM-147 683q22 0 36 15.5t14 41.5q0 24 -13.5 38.5t-36.5 14.5t-36.5 -14.5t-13.5 -38.5q0 -26 14 -41.5t36 -15.5z" />
    <glyph glyph-name="uni0E37" unicode="&#xe37;" horiz-adv-x="0" 
d="M-118 800h20v-105q0 -29 -29 -29h-329v19h243v115h20v-115h75v115z" />
    <glyph glyph-name="uni0E38" unicode="&#xe38;" horiz-adv-x="0" 
d="M-119 -236v143h-66v19h58q29 0 29 -29v-133h-21z" />
    <glyph glyph-name="uni0E39" unicode="&#xe39;" horiz-adv-x="0" 
d="M-211 -236q-29 0 -29 29v114h-66v19h58q29 0 29 -29v-114h100v143h21v-133q0 -29 -29 -29h-84z" />
    <glyph glyph-name="uni0E3A" unicode="&#xe3a;" horiz-adv-x="0" 
d="M-116 -127q-23 0 -23 21v7q0 21 23 21t23 -21v-7q0 -21 -23 -21z" />
    <glyph glyph-name="uni0E3F" unicode="&#xe3f;" horiz-adv-x="605" 
d="M286 -82v103h-178v656h178v103h20v-103h44q76 0 117 -42.5t41 -118.5q0 -114 -97 -146v-2q64 -9 96.5 -54t32.5 -115q0 -83 -45 -130.5t-129 -47.5h-60v-103h-20zM130 376h156v281h-156v-281zM306 376h44q65 0 99.5 34.5t34.5 84.5v43q0 51 -34.5 85t-99.5 34h-44v-281z
M130 41h156v315h-156v-315zM306 41h60q73 0 111.5 39.5t38.5 96.5v43q0 57 -38.5 96.5t-111.5 39.5h-60v-315z" />
    <glyph glyph-name="uni0E40" unicode="&#xe40;" horiz-adv-x="243" 
d="M134 0q-29 0 -29 29v537h21v-547h95v-19h-87z" />
    <glyph glyph-name="uni0E41" unicode="&#xe41;" horiz-adv-x="488" 
d="M134 0q-29 0 -29 29v537h21v-547h95v-19h-87zM379 0q-29 0 -29 29v537h21v-547h95v-19h-87z" />
    <glyph glyph-name="uni0E42" unicode="&#xe42;" horiz-adv-x="279" 
d="M169 0q-29 0 -29 29v694q0 72 -31 113.5t-87 44.5v19h294v-19h-238v-3q83 -34 83 -158v-701h96v-19h-88z" />
    <glyph glyph-name="uni0E43" unicode="&#xe43;" horiz-adv-x="284" 
d="M159 0q-29 0 -29 29v612q76 1 117.5 33.5t41.5 89.5v26q0 55 -34.5 89t-87.5 34q-105 0 -139 -117l-20 5q37 131 159 131q66 0 105.5 -40.5t39.5 -112.5q0 -71 -41 -111t-120 -45v-604h96v-19h-88z" />
    <glyph glyph-name="uni0E44" unicode="&#xe44;" horiz-adv-x="259" 
d="M149 0q-29 0 -29 29v681q0 124 89 168v3h-197v19h247v-19q-57 -10 -87.5 -53t-30.5 -115v-694h96v-19h-88z" />
    <glyph glyph-name="uni0E45" unicode="&#xe45;" horiz-adv-x="435" 
d="M321 -200v611q0 146 -137 146q-106 0 -145 -93l-19 9q43 103 164 103q78 0 118 -41.5t40 -120.5v-614h-21z" />
    <glyph glyph-name="uni0E46" unicode="&#xe46;" horiz-adv-x="526" 
d="M405 -158v581q0 71 -22.5 101.5t-73.5 32.5l-64 -75h-2l-64 75q-51 -2 -73.5 -32.5t-22.5 -101.5v-51q0 -61 28 -88t90 -27h52v-19h-52q-73 0 -106 33.5t-33 107.5v47q0 76 29 113t96 37l56 -64h2l56 64q67 0 96 -37t29 -113v-584h-21z" />
    <glyph glyph-name="uni0E47" unicode="&#xe47;" horiz-adv-x="0" 
d="M-324 789q-34 0 -49 -13t-15 -42q0 -55 60 -55h6l23 59h21q2 -26 15.5 -42t33.5 -16q29 0 29 46v14h21v-14q0 -66 -48 -66q-51 0 -57 61h-3l-7 -19q-8 -24 -18 -33t-28 -9q-32 0 -51 20t-19 54q0 74 86 74h160v-19h-160z" />
    <glyph glyph-name="uni0E48" unicode="&#xe48;" horiz-adv-x="0" 
d="M-118 666v154h20v-154h-20z" />
    <glyph glyph-name="uni0E49" unicode="&#xe49;" horiz-adv-x="0" 
d="M-246 666v85h-73v19h65q29 0 29 -29v-56h200v-19h-221z" />
    <glyph glyph-name="uni0E4A" unicode="&#xe4a;" horiz-adv-x="0" 
d="M-118 684h72v-18h-92v67q0 24 -8 36t-29 16l-50 -43l-50 43q-37 -8 -37 -51q0 -50 49 -50h59v-18h-59q-33 0 -51.5 18.5t-18.5 51.5q0 30 16.5 48.5t46.5 21.5l45 -40h1l44 40q62 -8 62 -69v-53z" />
    <glyph glyph-name="uni0E4B" unicode="&#xe4b;" horiz-adv-x="0" 
d="M-111 751v-19h-90v-82h-20v82h-90v19h90v82h20v-82h90z" />
    <glyph glyph-name="uni0E4C" unicode="&#xe4c;" horiz-adv-x="0" 
d="M-282 666v75q0 29 29 29h159v-19h-168v-85h-20z" />
    <glyph glyph-name="uni0E4D" unicode="&#xe4d;" horiz-adv-x="0" 
d="M-107 666q-35 0 -56 21t-21 55v6q0 32 21.5 52t55.5 20t55 -20t21 -52v-6q0 -34 -20.5 -55t-55.5 -21zM-107 684q25 0 40.5 16.5t15.5 44.5q0 26 -15.5 41.5t-40.5 15.5q-26 0 -42 -15.5t-16 -41.5q0 -28 16 -44.5t42 -16.5z" />
    <glyph glyph-name="uni0E4E" unicode="&#xe4e;" horiz-adv-x="0" 
d="M-167 819h68v-19h-88v-71h-85v-79h-21v58q0 40 41 40h44v32q0 39 41 39z" />
    <glyph glyph-name="uni0E4F" unicode="&#xe4f;" horiz-adv-x="580" 
d="M290 20q-100 0 -155 64t-55 186t55 186t155 64t155 -64t55 -186t-55 -186t-155 -64zM290 38q89 0 138 56t49 153v46q0 97 -49 153t-138 56t-138 -56t-49 -153v-46q0 -97 49 -153t138 -56zM290 88q-65 0 -101 41t-36 116v50q0 75 36 116t101 41t101 -41t36 -116v-50
q0 -75 -36 -116t-101 -41z" />
    <glyph glyph-name="uni0E50" unicode="&#xe50;" horiz-adv-x="540" 
d="M270 -12q-100 0 -155 67.5t-55 197.5t55 197.5t155 67.5t155 -67.5t55 -197.5t-55 -197.5t-155 -67.5zM270 7q89 0 138 59.5t49 162.5v48q0 103 -49 162.5t-138 59.5t-138 -59.5t-49 -162.5v-48q0 -103 49 -162.5t138 -59.5z" />
    <glyph glyph-name="uni0E51" unicode="&#xe51;" horiz-adv-x="523" 
d="M257 -64q95 78 139.5 164t44.5 193q0 96 -48.5 151t-134.5 55q-83 0 -133 -52.5t-50 -137.5v-20q0 -172 158 -172h28v-19h-28q-88 0 -134.5 51t-46.5 150q0 98 55.5 158.5t150.5 60.5q96 0 150.5 -60t54.5 -165q0 -216 -175 -357h-31z" />
    <glyph glyph-name="uni0E52" unicode="&#xe52;" horiz-adv-x="682" 
d="M289 -12q-107 0 -150.5 49t-43.5 161v452h21v-447q0 -107 37.5 -151.5t135.5 -44.5h112q98 0 135.5 44.5t37.5 151.5v170q0 67 -20.5 93.5t-69.5 26.5l-64 -86h-2l-64 86q-50 0 -70 -26.5t-20 -93.5v-134h105v-19h-97q-29 0 -29 29v127q0 73 26.5 104.5t92.5 31.5l56 -74
h2l56 74q65 0 92 -32t27 -104v-178q0 -112 -43.5 -161t-150.5 -49h-112z" />
    <glyph glyph-name="uni0E53" unicode="&#xe53;" horiz-adv-x="677" 
d="M124 0q-29 0 -29 29v359q0 62 33 96t94 34q91 0 119 -75h2q20 75 112 75q61 0 94 -34t33 -96v-388h-21v388q0 111 -106 111t-106 -111v-283h-21v283q0 111 -106 111t-106 -111v-369h95v-19h-87z" />
    <glyph glyph-name="uni0E54" unicode="&#xe54;" horiz-adv-x="540" 
d="M270 0q-100 0 -155 65.5t-55 187.5t55 187.5t155 65.5h203v132h20v-122q0 -29 -29 -29h-194q-88 0 -137.5 -57.5t-49.5 -152.5v-48q0 -95 49.5 -152.5t137.5 -57.5h117v3q-89 37 -89 174v34q0 29 29 29h118v-19h-126v-51q0 -74 35.5 -122t102.5 -48h51v-19h-238z" />
    <glyph glyph-name="uni0E55" unicode="&#xe55;" horiz-adv-x="540" 
d="M457 19h51v-19h-238q-100 0 -155 65.5t-55 187.5q0 115 49.5 180t140.5 72q-24 22 -24 58v6q0 32 21.5 52t55.5 20t55 -20t21 -52v-6q0 -37 -23 -57h117v132h20v-122q0 -29 -29 -29h-194q-88 0 -137.5 -57.5t-49.5 -152.5v-48q0 -95 49.5 -152.5t137.5 -57.5h117v3
q-89 37 -89 174v34q0 29 29 29h118v-19h-126v-51q0 -74 35.5 -122t102.5 -48zM245 566q0 -28 16 -44.5t42 -16.5q25 0 40.5 16.5t15.5 44.5q0 26 -15.5 41.5t-40.5 15.5q-26 0 -42 -15.5t-16 -41.5z" />
    <glyph glyph-name="uni0E56" unicode="&#xe56;" horiz-adv-x="540" 
d="M271 -12q-90 0 -141.5 45.5t-51.5 119.5q0 22 7.5 30.5t26.5 8.5h96v-19h-109v-28q0 -61 44.5 -99.5t127.5 -38.5q89 0 137.5 59.5t48.5 162.5v48q0 102 -48.5 162t-131.5 60q-113 0 -152 -106h-21l-49 257h21l42 -233h3q40 101 156 101q94 0 148.5 -68t54.5 -197
q0 -130 -54.5 -197.5t-154.5 -67.5z" />
    <glyph glyph-name="uni0E57" unicode="&#xe57;" horiz-adv-x="797" 
d="M691 650h21v-470q0 -180 -176 -180h-15v388q0 111 -96 111t-96 -111v-228h-21v228q0 111 -96 111t-96 -111v-369h95v-19h-87q-29 0 -29 29v359q0 62 30.5 96t86.5 34q81 0 109 -75h2q20 75 102 75q56 0 86.5 -34t30.5 -96v-369q149 0 149 161v470z" />
    <glyph glyph-name="uni0E58" unicode="&#xe58;" horiz-adv-x="584" 
d="M229 -12q-76 0 -121.5 67t-45.5 192q0 126 56 192.5t157 66.5h213v132h20v-122q0 -29 -29 -29h-204q-89 0 -139.5 -58t-50.5 -158v-48q0 -99 40.5 -157.5t108.5 -58.5h15l60 191h19q0 -93 31.5 -142t85.5 -49q47 0 66.5 34.5t19.5 111.5v80h-91v19h71q23 0 32 -8.5
t9 -30.5v-60q0 -83 -25 -124t-82 -41q-54 0 -88.5 41.5t-38.5 120.5h-3l-44 -135q-4 -15 -13.5 -21t-28.5 -6z" />
    <glyph glyph-name="uni0E59" unicode="&#xe59;" horiz-adv-x="632" 
d="M576 650h21v-190q0 -112 -80 -112h-16l-48 97q-13 27 -27.5 40t-39.5 13q-62 0 -68 -99l154 -399h-21l-157 403q-21 54 -43 75t-55 21q-80 0 -80 -101v-379h95v-19h-87q-29 0 -29 29v369q0 59 27 89.5t74 30.5q38 0 63 -20t47 -71h2q0 43 21.5 67t56.5 24q54 0 84 -61
l46 -90q60 -1 60 93v190z" />
    <glyph glyph-name="uni0E5A" unicode="&#xe5a;" horiz-adv-x="632" 
d="M506 566h21v-566h-21v351h-3q-32 -79 -118 -94v-257h-21v351h-3q-17 -42 -56 -69.5t-99 -27.5q-75 0 -115.5 42t-40.5 114t40.5 114t115.5 42h50v-19h-50q-62 0 -98.5 -36t-36.5 -101t36.5 -101t98.5 -36q64 0 111 39.5t47 110.5v143h21v-289q52 10 86.5 48t34.5 98v143z
" />
    <glyph glyph-name="uni0E5B" unicode="&#xe5b;" horiz-adv-x="793" 
d="M202 124q-72 0 -112 42t-40 114t40.5 114t115.5 42h50v-19h-50q-62 0 -98.5 -36t-36.5 -101q0 -64 36 -100t96 -36q138 0 178 240h25l83 -211h4l84 211h23l67 -163h76v-19h-63q-17 0 -24.5 5t-13.5 21l-52 131h-3l-84 -211h-24l-83 211h-4q-35 -235 -190 -235z" />
    <glyph glyph-name="Wgrave" unicode="&#x1e80;" horiz-adv-x="872" 
d="M453 767l-115 152l19 12l111 -154zM216 0l-186 698h24l85 -324l91 -343h3l187 667h32l90 -322l97 -345h3l177 667h23l-186 -698h-30l-91 324l-98 350h-3l-188 -674h-30z" />
    <glyph glyph-name="wgrave" unicode="&#x1e81;" horiz-adv-x="725" 
d="M380 587l-115 152l19 12l111 -154zM189 0l-154 506h22l56 -187l88 -292h3l51 166l97 313h22l95 -306l53 -173h3l144 479h21l-154 -506h-26l-100 322l-46 150h-3l-47 -151l-99 -321h-26z" />
    <glyph glyph-name="Wacute" unicode="&#x1e82;" horiz-adv-x="872" 
d="M418 767l-15 10l111 154l19 -12zM216 0l-186 698h24l85 -324l91 -343h3l187 667h32l90 -322l97 -345h3l177 667h23l-186 -698h-30l-91 324l-98 350h-3l-188 -674h-30z" />
    <glyph glyph-name="wacute" unicode="&#x1e83;" horiz-adv-x="725" 
d="M345 587l-15 10l111 154l19 -12zM189 0l-154 506h22l56 -187l88 -292h3l51 166l97 313h22l95 -306l53 -173h3l144 479h21l-154 -506h-26l-100 322l-46 150h-3l-47 -151l-99 -321h-26z" />
    <glyph glyph-name="Wdieresis" unicode="&#x1e84;" horiz-adv-x="872" 
d="M345 819q-23 0 -23 21v7q0 21 23 21t23 -21v-7q0 -21 -23 -21zM527 819q-23 0 -23 21v7q0 21 23 21t23 -21v-7q0 -21 -23 -21zM216 0l-186 698h24l85 -324l91 -343h3l187 667h32l90 -322l97 -345h3l177 667h23l-186 -698h-30l-91 324l-98 350h-3l-188 -674h-30z" />
    <glyph glyph-name="wdieresis" unicode="&#x1e85;" horiz-adv-x="725" 
d="M272 642q-23 0 -23 21v7q0 21 23 21t23 -21v-7q0 -21 -23 -21zM454 642q-23 0 -23 21v7q0 21 23 21t23 -21v-7q0 -21 -23 -21zM189 0l-154 506h22l56 -187l88 -292h3l51 166l97 313h22l95 -306l53 -173h3l144 479h21l-154 -506h-26l-100 322l-46 150h-3l-47 -151
l-99 -321h-26z" />
    <glyph glyph-name="uni1E9E" unicode="&#x1e9e;" horiz-adv-x="680" 
d="M429 -12q-121 0 -188 91l18 13q64 -84 170 -84q77 0 124.5 41.5t47.5 119.5v42q0 168 -216 168h-25v20l196 279h-426v-678h-22v698h471v-22l-193 -274v-4q239 0 239 -206q0 -100 -52.5 -152t-143.5 -52z" />
    <glyph glyph-name="uni1EA0" unicode="&#x1ea0;" 
d="M32 0l253 698h30l253 -698h-23l-85 234h-320l-85 -234h-23zM147 253h306l-152 422h-3zM300 -134q-23 0 -23 21v7q0 21 23 21t23 -21v-7q0 -21 -23 -21z" />
    <glyph glyph-name="uni1EA1" unicode="&#x1ea1;" horiz-adv-x="519" 
d="M224 -12q-78 0 -120.5 37t-42.5 105q0 145 190 145h142v74q0 150 -144 150q-113 0 -153 -95l-18 8q46 106 171 106q82 0 123.5 -42.5t41.5 -123.5v-333h85v-19h-77q-29 0 -29 29v48h-3q-46 -89 -166 -89zM224 7q72 0 120.5 37t48.5 104v109h-141q-168 0 -168 -112v-30
q0 -51 38.5 -79.5t101.5 -28.5zM245 -134q-23 0 -23 21v7q0 21 23 21t23 -21v-7q0 -21 -23 -21z" />
    <glyph glyph-name="uni1EA2" unicode="&#x1ea2;" 
d="M305 765l-16 8l77 126h-141v18h137q23 0 23 -18q0 -10 -31 -58zM32 0l253 698h30l253 -698h-23l-85 234h-320l-85 -234h-23zM147 253h306l-152 422h-3z" />
    <glyph glyph-name="uni1EA3" unicode="&#x1ea3;" horiz-adv-x="519" 
d="M254 585l-16 8l77 126h-141v18h137q23 0 23 -18q0 -10 -31 -58zM224 -12q-78 0 -120.5 37t-42.5 105q0 145 190 145h142v74q0 150 -144 150q-113 0 -153 -95l-18 8q46 106 171 106q82 0 123.5 -42.5t41.5 -123.5v-333h85v-19h-77q-29 0 -29 29v48h-3q-46 -89 -166 -89z
M224 7q72 0 120.5 37t48.5 104v109h-141q-168 0 -168 -112v-30q0 -51 38.5 -79.5t101.5 -28.5z" />
    <glyph glyph-name="uni1EA4" unicode="&#x1ea4;" 
d="M414 877l-15 10l111 154l19 -12zM174 771l-14 11l128 133h24l128 -133l-14 -11l-126 127zM32 0l253 698h30l253 -698h-23l-85 234h-320l-85 -234h-23zM147 253h306l-152 422h-3z" />
    <glyph glyph-name="uni1EA5" unicode="&#x1ea5;" horiz-adv-x="519" 
d="M364 697l-15 10l111 154l19 -12zM124 591l-14 11l128 133h24l128 -133l-14 -11l-126 127zM224 -12q-78 0 -120.5 37t-42.5 105q0 145 190 145h142v74q0 150 -144 150q-113 0 -153 -95l-18 8q46 106 171 106q82 0 123.5 -42.5t41.5 -123.5v-333h85v-19h-77q-29 0 -29 29
v48h-3q-46 -89 -166 -89zM224 7q72 0 120.5 37t48.5 104v109h-141q-168 0 -168 -112v-30q0 -51 38.5 -79.5t101.5 -28.5z" />
    <glyph glyph-name="uni1EA6" unicode="&#x1ea6;" 
d="M186 877l-115 152l19 12l111 -154zM174 771l-14 11l128 133h24l128 -133l-14 -11l-126 127zM32 0l253 698h30l253 -698h-23l-85 234h-320l-85 -234h-23zM147 253h306l-152 422h-3z" />
    <glyph glyph-name="uni1EA7" unicode="&#x1ea7;" horiz-adv-x="519" 
d="M135 697l-115 152l19 12l111 -154zM123 591l-14 11l128 133h24l128 -133l-14 -11l-126 127zM224 -12q-78 0 -120.5 37t-42.5 105q0 145 190 145h142v74q0 150 -144 150q-113 0 -153 -95l-18 8q46 106 171 106q82 0 123.5 -42.5t41.5 -123.5v-333h85v-19h-77q-29 0 -29 29
v48h-3q-46 -89 -166 -89zM224 7q72 0 120.5 37t48.5 104v109h-141q-168 0 -168 -112v-30q0 -51 38.5 -79.5t101.5 -28.5z" />
    <glyph glyph-name="uni1EA8" unicode="&#x1ea8;" 
d="M419 875l-16 8l77 126h-141v18h137q23 0 23 -18q0 -10 -31 -58zM174 771l-14 11l128 133h24l128 -133l-14 -11l-126 127zM32 0l253 698h30l253 -698h-23l-85 234h-320l-85 -234h-23zM147 253h306l-152 422h-3z" />
    <glyph glyph-name="uni1EA9" unicode="&#x1ea9;" horiz-adv-x="519" 
d="M369 695l-16 8l77 126h-141v18h137q23 0 23 -18q0 -10 -31 -58zM124 591l-14 11l128 133h24l128 -133l-14 -11l-126 127zM224 -12q-78 0 -120.5 37t-42.5 105q0 145 190 145h142v74q0 150 -144 150q-113 0 -153 -95l-18 8q46 106 171 106q82 0 123.5 -42.5t41.5 -123.5
v-333h85v-19h-77q-29 0 -29 29v48h-3q-46 -89 -166 -89zM224 7q72 0 120.5 37t48.5 104v109h-141q-168 0 -168 -112v-30q0 -51 38.5 -79.5t101.5 -28.5z" />
    <glyph glyph-name="uni1EAA" unicode="&#x1eaa;" 
d="M371 953q-31 0 -77 30q-40 26 -66 26q-34 0 -65 -33l-12 12q35 39 78 39q31 0 77 -30q40 -26 66 -26q34 0 65 33l12 -12q-35 -39 -78 -39zM174 771l-14 11l128 133h24l128 -133l-14 -11l-126 127zM32 0l253 698h30l253 -698h-23l-85 234h-320l-85 -234h-23zM147 253h306
l-152 422h-3z" />
    <glyph glyph-name="uni1EAB" unicode="&#x1eab;" horiz-adv-x="519" 
d="M320 773q-31 0 -77 30q-40 26 -66 26q-33 0 -65 -33l-12 12q35 39 78 39q31 0 77 -30q40 -26 66 -26q33 0 65 33l12 -12q-35 -39 -78 -39zM123 591l-14 11l128 133h24l128 -133l-14 -11l-126 127zM224 -12q-78 0 -120.5 37t-42.5 105q0 145 190 145h142v74
q0 150 -144 150q-113 0 -153 -95l-18 8q46 106 171 106q82 0 123.5 -42.5t41.5 -123.5v-333h85v-19h-77q-29 0 -29 29v48h-3q-46 -89 -166 -89zM224 7q72 0 120.5 37t48.5 104v109h-141q-168 0 -168 -112v-30q0 -51 38.5 -79.5t101.5 -28.5z" />
    <glyph glyph-name="uni1EAC" unicode="&#x1eac;" 
d="M174 779l-14 11l128 133h24l128 -133l-14 -11l-126 127zM32 0l253 698h30l253 -698h-23l-85 234h-320l-85 -234h-23zM147 253h306l-152 422h-3zM300 -134q-23 0 -23 21v7q0 21 23 21t23 -21v-7q0 -21 -23 -21z" />
    <glyph glyph-name="uni1EAD" unicode="&#x1ead;" horiz-adv-x="519" 
d="M123 599l-14 11l128 133h24l128 -133l-14 -11l-126 127zM224 -12q-78 0 -120.5 37t-42.5 105q0 145 190 145h142v74q0 150 -144 150q-113 0 -153 -95l-18 8q46 106 171 106q82 0 123.5 -42.5t41.5 -123.5v-333h85v-19h-77q-29 0 -29 29v48h-3q-46 -89 -166 -89zM224 7
q72 0 120.5 37t48.5 104v109h-141q-168 0 -168 -112v-30q0 -51 38.5 -79.5t101.5 -28.5zM245 -134q-23 0 -23 21v7q0 21 23 21t23 -21v-7q0 -21 -23 -21z" />
    <glyph glyph-name="uni1EAE" unicode="&#x1eae;" 
d="M291 877l-15 10l111 154l19 -12zM300 774q-48 0 -76 25.5t-56 81.5l16 7l16 -27q24 -41 45 -54.5t55 -13.5t55 13.5t45 54.5l16 27l16 -7q-28 -57 -56 -82t-76 -25zM32 0l253 698h30l253 -698h-23l-85 234h-320l-85 -234h-23zM147 253h306l-152 422h-3z" />
    <glyph glyph-name="uni1EAF" unicode="&#x1eaf;" horiz-adv-x="519" 
d="M241 697l-15 10l111 154l19 -12zM250 594q-48 0 -76 25.5t-56 81.5l16 7l16 -27q24 -41 45 -54.5t55 -13.5t55 13.5t45 54.5l16 27l16 -7q-28 -57 -56 -82t-76 -25zM224 -12q-78 0 -120.5 37t-42.5 105q0 145 190 145h142v74q0 150 -144 150q-113 0 -153 -95l-18 8
q46 106 171 106q82 0 123.5 -42.5t41.5 -123.5v-333h85v-19h-77q-29 0 -29 29v48h-3q-46 -89 -166 -89zM224 7q72 0 120.5 37t48.5 104v109h-141q-168 0 -168 -112v-30q0 -51 38.5 -79.5t101.5 -28.5z" />
    <glyph glyph-name="uni1EB0" unicode="&#x1eb0;" 
d="M309 877l-115 152l19 12l111 -154zM300 774q-48 0 -76 25.5t-56 81.5l16 7l16 -27q24 -41 45 -54.5t55 -13.5t55 13.5t45 54.5l16 27l16 -7q-28 -57 -56 -82t-76 -25zM32 0l253 698h30l253 -698h-23l-85 234h-320l-85 -234h-23zM147 253h306l-152 422h-3z" />
    <glyph glyph-name="uni1EB1" unicode="&#x1eb1;" horiz-adv-x="519" 
d="M258 697l-115 152l19 12l111 -154zM249 594q-48 0 -76 25.5t-56 81.5l16 7l16 -27q24 -41 45 -54.5t55 -13.5t55 13.5t45 54.5l16 27l16 -7q-28 -57 -56 -82t-76 -25zM224 -12q-78 0 -120.5 37t-42.5 105q0 145 190 145h142v74q0 150 -144 150q-113 0 -153 -95l-18 8
q46 106 171 106q82 0 123.5 -42.5t41.5 -123.5v-333h85v-19h-77q-29 0 -29 29v48h-3q-46 -89 -166 -89zM224 7q72 0 120.5 37t48.5 104v109h-141q-168 0 -168 -112v-30q0 -51 38.5 -79.5t101.5 -28.5z" />
    <glyph glyph-name="uni1EB2" unicode="&#x1eb2;" 
d="M306 875l-16 8l77 126h-141v18h137q23 0 23 -18q0 -10 -31 -58zM300 774q-48 0 -76 25.5t-56 81.5l16 7l16 -27q24 -41 45 -54.5t55 -13.5t55 13.5t45 54.5l16 27l16 -7q-28 -57 -56 -82t-76 -25zM32 0l253 698h30l253 -698h-23l-85 234h-320l-85 -234h-23zM147 253h306
l-152 422h-3z" />
    <glyph glyph-name="uni1EB3" unicode="&#x1eb3;" horiz-adv-x="519" 
d="M255 695l-16 8l77 126h-141v18h137q23 0 23 -18q0 -10 -31 -58zM249 594q-48 0 -76 25.5t-56 81.5l16 7l16 -27q24 -41 45 -54.5t55 -13.5t55 13.5t45 54.5l16 27l16 -7q-28 -57 -56 -82t-76 -25zM224 -12q-78 0 -120.5 37t-42.5 105q0 145 190 145h142v74
q0 150 -144 150q-113 0 -153 -95l-18 8q46 106 171 106q82 0 123.5 -42.5t41.5 -123.5v-333h85v-19h-77q-29 0 -29 29v48h-3q-46 -89 -166 -89zM224 7q72 0 120.5 37t48.5 104v109h-141q-168 0 -168 -112v-30q0 -51 38.5 -79.5t101.5 -28.5z" />
    <glyph glyph-name="uni1EB4" unicode="&#x1eb4;" 
d="M371 943q-31 0 -77 30q-40 26 -66 26q-34 0 -65 -33l-12 12q35 39 78 39q31 0 77 -30q40 -26 66 -26q34 0 65 33l12 -12q-35 -39 -78 -39zM300 774q-48 0 -76 25.5t-56 81.5l16 7l16 -27q24 -41 45 -54.5t55 -13.5t55 13.5t45 54.5l16 27l16 -7q-28 -57 -56 -82t-76 -25z
M32 0l253 698h30l253 -698h-23l-85 234h-320l-85 -234h-23zM147 253h306l-152 422h-3z" />
    <glyph glyph-name="uni1EB5" unicode="&#x1eb5;" horiz-adv-x="519" 
d="M320 763q-31 0 -77 30q-40 26 -66 26q-33 0 -65 -33l-12 12q35 39 78 39q31 0 77 -30q40 -26 66 -26q33 0 65 33l12 -12q-35 -39 -78 -39zM249 594q-48 0 -76 25.5t-56 81.5l16 7l16 -27q24 -41 45 -54.5t55 -13.5t55 13.5t45 54.5l16 27l16 -7q-28 -57 -56 -82t-76 -25z
M224 -12q-78 0 -120.5 37t-42.5 105q0 145 190 145h142v74q0 150 -144 150q-113 0 -153 -95l-18 8q46 106 171 106q82 0 123.5 -42.5t41.5 -123.5v-333h85v-19h-77q-29 0 -29 29v48h-3q-46 -89 -166 -89zM224 7q72 0 120.5 37t48.5 104v109h-141q-168 0 -168 -112v-30
q0 -51 38.5 -79.5t101.5 -28.5z" />
    <glyph glyph-name="uni1EB6" unicode="&#x1eb6;" 
d="M300 786q-47 0 -73.5 27t-58.5 90l16 7l15 -27q26 -47 46.5 -62.5t54.5 -15.5t54.5 15.5t46.5 62.5l15 27l16 -7q-32 -63 -58.5 -90t-73.5 -27zM32 0l253 698h30l253 -698h-23l-85 234h-320l-85 -234h-23zM147 253h306l-152 422h-3zM300 -134q-23 0 -23 21v7q0 21 23 21
t23 -21v-7q0 -21 -23 -21z" />
    <glyph glyph-name="uni1EB7" unicode="&#x1eb7;" horiz-adv-x="519" 
d="M249 606q-47 0 -73.5 27t-58.5 90l16 7l15 -27q26 -47 46.5 -62.5t54.5 -15.5t54.5 15.5t46.5 62.5l15 27l16 -7q-32 -63 -58.5 -90t-73.5 -27zM224 -12q-78 0 -120.5 37t-42.5 105q0 145 190 145h142v74q0 150 -144 150q-113 0 -153 -95l-18 8q46 106 171 106
q82 0 123.5 -42.5t41.5 -123.5v-333h85v-19h-77q-29 0 -29 29v48h-3q-46 -89 -166 -89zM224 7q72 0 120.5 37t48.5 104v109h-141q-168 0 -168 -112v-30q0 -51 38.5 -79.5t101.5 -28.5zM245 -134q-23 0 -23 21v7q0 21 23 21t23 -21v-7q0 -21 -23 -21z" />
    <glyph glyph-name="uni1EB8" unicode="&#x1eb8;" horiz-adv-x="561" 
d="M108 0v698h381v-20h-359v-314h347v-20h-347v-324h359v-20h-381zM299 -134q-23 0 -23 21v7q0 21 23 21t23 -21v-7q0 -21 -23 -21z" />
    <glyph glyph-name="uni1EB9" unicode="&#x1eb9;" horiz-adv-x="533" 
d="M272 -12q-100 0 -156 68t-56 197q0 128 54.5 196.5t153.5 68.5q92 0 148.5 -68.5t56.5 -183.5v-10h-390v-27q0 -103 50 -162.5t139 -59.5q128 0 175 124l18 -7q-23 -64 -72.5 -100t-120.5 -36zM83 275h367v4q0 100 -50 160t-132 60q-88 0 -136.5 -59.5t-48.5 -162.5v-2z
M274 -134q-23 0 -23 21v7q0 21 23 21t23 -21v-7q0 -21 -23 -21z" />
    <glyph glyph-name="uni1EBA" unicode="&#x1eba;" horiz-adv-x="561" 
d="M304 765l-16 8l77 126h-141v18h137q23 0 23 -18q0 -10 -31 -58zM108 0v698h381v-20h-359v-314h347v-20h-347v-324h359v-20h-381z" />
    <glyph glyph-name="uni1EBB" unicode="&#x1ebb;" horiz-adv-x="533" 
d="M275 586l-16 8l77 126h-141v18h137q23 0 23 -18q0 -10 -31 -58zM272 -12q-100 0 -156 68t-56 197q0 128 54.5 196.5t153.5 68.5q92 0 148.5 -68.5t56.5 -183.5v-10h-390v-27q0 -103 50 -162.5t139 -59.5q128 0 175 124l18 -7q-23 -64 -72.5 -100t-120.5 -36zM83 275h367
v4q0 100 -50 160t-132 60q-88 0 -136.5 -59.5t-48.5 -162.5v-2z" />
    <glyph glyph-name="uni1EBC" unicode="&#x1ebc;" horiz-adv-x="561" 
d="M370 808q-31 0 -77 30q-40 26 -66 26q-33 0 -65 -33l-12 12q35 39 78 39q31 0 77 -30q40 -26 66 -26q33 0 65 33l12 -12q-35 -39 -78 -39zM108 0v698h381v-20h-359v-314h347v-20h-347v-324h359v-20h-381z" />
    <glyph glyph-name="uni1EBD" unicode="&#x1ebd;" horiz-adv-x="533" 
d="M338 628q-31 0 -77 30q-40 26 -66 26q-33 0 -65 -33l-12 12q35 39 78 39q31 0 77 -30q40 -26 66 -26q33 0 65 33l12 -12q-35 -39 -78 -39zM272 -12q-100 0 -156 68t-56 197q0 128 54.5 196.5t153.5 68.5q92 0 148.5 -68.5t56.5 -183.5v-10h-390v-27q0 -103 50 -162.5
t139 -59.5q128 0 175 124l18 -7q-23 -64 -72.5 -100t-120.5 -36zM83 275h367v4q0 100 -50 160t-132 60q-88 0 -136.5 -59.5t-48.5 -162.5v-2z" />
    <glyph glyph-name="uni1EBE" unicode="&#x1ebe;" horiz-adv-x="561" 
d="M413 877l-15 10l111 154l19 -12zM173 771l-14 11l128 133h24l128 -133l-14 -11l-126 127zM108 0v698h381v-20h-359v-314h347v-20h-347v-324h359v-20h-381z" />
    <glyph glyph-name="uni1EBF" unicode="&#x1ebf;" horiz-adv-x="533" 
d="M382 697l-15 10l111 154l19 -12zM142 591l-14 11l128 133h24l128 -133l-14 -11l-126 127zM272 -12q-100 0 -156 68t-56 197q0 128 54.5 196.5t153.5 68.5q92 0 148.5 -68.5t56.5 -183.5v-10h-390v-27q0 -103 50 -162.5t139 -59.5q128 0 175 124l18 -7q-23 -64 -72.5 -100
t-120.5 -36zM83 275h367v4q0 100 -50 160t-132 60q-88 0 -136.5 -59.5t-48.5 -162.5v-2z" />
    <glyph glyph-name="uni1EC0" unicode="&#x1ec0;" horiz-adv-x="561" 
d="M185 877l-115 152l19 12l111 -154zM173 771l-14 11l128 133h24l128 -133l-14 -11l-126 127zM108 0v698h381v-20h-359v-314h347v-20h-347v-324h359v-20h-381z" />
    <glyph glyph-name="uni1EC1" unicode="&#x1ec1;" horiz-adv-x="533" 
d="M154 697l-115 152l19 12l111 -154zM142 591l-14 11l128 133h24l128 -133l-14 -11l-126 127zM272 -12q-100 0 -156 68t-56 197q0 128 54.5 196.5t153.5 68.5q92 0 148.5 -68.5t56.5 -183.5v-10h-390v-27q0 -103 50 -162.5t139 -59.5q128 0 175 124l18 -7
q-23 -64 -72.5 -100t-120.5 -36zM83 275h367v4q0 100 -50 160t-132 60q-88 0 -136.5 -59.5t-48.5 -162.5v-2z" />
    <glyph glyph-name="uni1EC2" unicode="&#x1ec2;" horiz-adv-x="561" 
d="M418 875l-16 8l77 126h-141v18h137q23 0 23 -18q0 -10 -31 -58zM173 771l-14 11l128 133h24l128 -133l-14 -11l-126 127zM108 0v698h381v-20h-359v-314h347v-20h-347v-324h359v-20h-381z" />
    <glyph glyph-name="uni1EC3" unicode="&#x1ec3;" horiz-adv-x="533" 
d="M387 695l-16 8l77 126h-141v18h137q23 0 23 -18q0 -10 -31 -58zM142 591l-14 11l128 133h24l128 -133l-14 -11l-126 127zM272 -12q-100 0 -156 68t-56 197q0 128 54.5 196.5t153.5 68.5q92 0 148.5 -68.5t56.5 -183.5v-10h-390v-27q0 -103 50 -162.5t139 -59.5
q128 0 175 124l18 -7q-23 -64 -72.5 -100t-120.5 -36zM83 275h367v4q0 100 -50 160t-132 60q-88 0 -136.5 -59.5t-48.5 -162.5v-2z" />
    <glyph glyph-name="uni1EC4" unicode="&#x1ec4;" horiz-adv-x="561" 
d="M370 953q-31 0 -77 30q-40 26 -66 26q-33 0 -65 -33l-12 12q35 39 78 39q31 0 77 -30q40 -26 66 -26q33 0 65 33l12 -12q-35 -39 -78 -39zM173 771l-14 11l128 133h24l128 -133l-14 -11l-126 127zM108 0v698h381v-20h-359v-314h347v-20h-347v-324h359v-20h-381z" />
    <glyph glyph-name="uni1EC5" unicode="&#x1ec5;" horiz-adv-x="533" 
d="M339 774q-31 0 -77 30q-40 26 -66 26q-34 0 -65 -33l-12 12q35 39 78 39q31 0 77 -30q40 -26 66 -26q34 0 65 33l12 -12q-35 -39 -78 -39zM142 592l-14 11l128 133h24l128 -133l-14 -11l-126 127zM272 -12q-100 0 -156 68t-56 197q0 128 54.5 196.5t153.5 68.5
q92 0 148.5 -68.5t56.5 -183.5v-10h-390v-27q0 -103 50 -162.5t139 -59.5q128 0 175 124l18 -7q-23 -64 -72.5 -100t-120.5 -36zM83 275h367v4q0 100 -50 160t-132 60q-88 0 -136.5 -59.5t-48.5 -162.5v-2z" />
    <glyph glyph-name="uni1EC6" unicode="&#x1ec6;" horiz-adv-x="561" 
d="M173 779l-14 11l128 133h24l128 -133l-14 -11l-126 127zM108 0v698h381v-20h-359v-314h347v-20h-347v-324h359v-20h-381zM299 -134q-23 0 -23 21v7q0 21 23 21t23 -21v-7q0 -21 -23 -21z" />
    <glyph glyph-name="uni1EC7" unicode="&#x1ec7;" horiz-adv-x="533" 
d="M141 599l-14 11l128 133h24l128 -133l-14 -11l-126 127zM272 -12q-100 0 -156 68t-56 197q0 128 54.5 196.5t153.5 68.5q92 0 148.5 -68.5t56.5 -183.5v-10h-390v-27q0 -103 50 -162.5t139 -59.5q128 0 175 124l18 -7q-23 -64 -72.5 -100t-120.5 -36zM83 275h367v4
q0 100 -50 160t-132 60q-88 0 -136.5 -59.5t-48.5 -162.5v-2zM274 -134q-23 0 -23 21v7q0 21 23 21t23 -21v-7q0 -21 -23 -21z" />
    <glyph glyph-name="uni1EC8" unicode="&#x1ec8;" horiz-adv-x="372" 
d="M191 765l-16 8l77 126h-141v18h137q23 0 23 -18q0 -10 -31 -58zM68 0v19h107v660h-107v19h236v-19h-107v-660h107v-19h-236z" />
    <glyph glyph-name="uni1EC9" unicode="&#x1ec9;" horiz-adv-x="231" 
d="M121 607l-16 8l77 126h-141v18h137q23 0 23 -18q0 -10 -31 -58zM105 0v506h21v-506h-21z" />
    <glyph glyph-name="uni1ECA" unicode="&#x1eca;" horiz-adv-x="372" 
d="M68 0v19h107v660h-107v19h236v-19h-107v-660h107v-19h-236zM186 -134q-23 0 -23 21v7q0 21 23 21t23 -21v-7q0 -21 -23 -21z" />
    <glyph glyph-name="uni1ECB" unicode="&#x1ecb;" horiz-adv-x="231" 
d="M115 673q-23 0 -23 21v7q0 21 23 21t23 -21v-7q0 -21 -23 -21zM105 0v506h21v-506h-21zM116 -134q-23 0 -23 21v7q0 21 23 21t23 -21v-7q0 -21 -23 -21z" />
    <glyph glyph-name="uni1ECC" unicode="&#x1ecc;" horiz-adv-x="680" 
d="M340 -12q-131 0 -200.5 91.5t-69.5 269.5t69.5 269.5t200.5 91.5t200.5 -91.5t69.5 -269.5t-69.5 -269.5t-200.5 -91.5zM340 8q116 0 181 82t65 238v42q0 156 -65 238t-181 82t-181 -82t-65 -238v-42q0 -156 65 -238t181 -82zM340 -134q-23 0 -23 21v7q0 21 23 21t23 -21
v-7q0 -21 -23 -21z" />
    <glyph glyph-name="uni1ECD" unicode="&#x1ecd;" horiz-adv-x="540" 
d="M270 -12q-100 0 -155 67.5t-55 197.5t55 197.5t155 67.5t155 -67.5t55 -197.5t-55 -197.5t-155 -67.5zM270 7q89 0 138 59.5t49 162.5v48q0 103 -49 162.5t-138 59.5t-138 -59.5t-49 -162.5v-48q0 -103 49 -162.5t138 -59.5zM270 -134q-23 0 -23 21v7q0 21 23 21t23 -21
v-7q0 -21 -23 -21z" />
    </font>
</defs>
</svg>
