<?xml version="1.0" standalone="no"?>
<!DOCTYPE svg PUBLIC "-//W3C//DTD SVG 1.1//EN" "http://www.w3.org/Graphics/SVG/1.1/DTD/svg11.dtd" >
<svg xmlns="http://www.w3.org/2000/svg" xmlns:xlink="http://www.w3.org/1999/xlink" version="1.1">
<metadata>
Created by FontForge 20170731 at Fri Dec 20 16:33:15 2019
 By Aleksey,,,
Copyright (c) 2019 by Mike Abbink, Paul van der Laan, Pieter van Rosmalen, Mint Tantisuwanna. All rights reserved.
</metadata>
<defs>
<font id="Anuphan-SemiBold" horiz-adv-x="0" >
  <font-face 
    font-family="Anuphan SemiBold"
    font-weight="600"
    font-stretch="normal"
    units-per-em="1000"
    panose-1="2 11 5 3 5 2 3 0 2 3"
    ascent="780"
    descent="-220"
    x-height="522"
    cap-height="698"
    bbox="-640 -296 1302 1140"
    underline-thickness="87"
    underline-position="-291"
    unicode-range="U+0020-FB02"
  />
<missing-glyph horiz-adv-x="472" 
d="M32 0v780h408v-780h-408zM119 87h234v606h-234v-606z" />
    <glyph glyph-name="fi" unicode="fi" horiz-adv-x="620" 
d="M483 600q-73 0 -73 63v19q0 29 18 46.5t55 17.5q74 0 74 -64v-19q0 -63 -74 -63zM101 0v422h-77v100h77v76q0 69 36.5 105.5t105.5 36.5h90v-100h-107v-118h320v-522h-125v422h-195v-422h-125z" />
    <glyph glyph-name="fl" unicode="fl" horiz-adv-x="641" 
d="M101 0v422h-77v100h77v76q0 69 36.5 105.5t105.5 36.5h90v-100h-107v-118h107v-100h-107v-422h-125zM549 0q-63 0 -94.5 32t-31.5 92v616h125v-640h70v-100h-69z" />
    <glyph glyph-name="uni0E240E45" unicode="&#xe24;&#xe45;" horiz-adv-x="1011" 
d="M732 585q100 0 153.5 -59t53.5 -169v-570h-127v544q0 149 -131 149q-63 0 -97 -35.5t-34 -105.5v-552h-127v567q0 61 -31.5 93.5t-90.5 32.5q-106 0 -120 -89h116v-88q-55 -3 -78.5 -34t-23.5 -102v-64h91v-103h-81q-137 0 -137 136v18q0 123 117 147v5h-126v46
q0 112 64.5 172.5t181.5 60.5q175 0 227 -128h6q18 58 69.5 93t124.5 35z" />
    <glyph glyph-name="uni0E260E45" unicode="&#xe26;&#xe45;" horiz-adv-x="1022" 
d="M743 585q100 0 153.5 -59t53.5 -169v-570h-127v544q0 149 -131 149q-63 0 -97 -35.5t-34 -105.5v-552h-127v567q0 61 -32.5 93.5t-92.5 32.5q-110 0 -122 -89h120v-84q-42 -2 -58 -29.5t-16 -92.5v-61q0 -68 -27.5 -96t-92.5 -28h-72v101h72v64q0 120 98 140v5h-147v42
q0 112 65 172.5t184 60.5q177 0 229 -128h7q18 58 69.5 93t124.5 35z" />
    <glyph glyph-name=".notdef" horiz-adv-x="472" 
d="M32 0v780h408v-780h-408zM119 87h234v606h-234v-606z" />
    <glyph glyph-name=".null" 
 />
    <glyph glyph-name="nonmarkingreturn" horiz-adv-x="333" 
 />
    <glyph glyph-name="space" unicode=" " horiz-adv-x="236" 
 />
    <glyph glyph-name="exclam" unicode="!" horiz-adv-x="308" 
d="M127 208l-39 293v197h133v-197l-38 -293h-56zM154 -12q-40 0 -60 19t-20 51v20q0 70 80 70t80 -70v-20q0 -32 -20 -51t-60 -19z" />
    <glyph glyph-name="quotedbl" unicode="&#x22;" horiz-adv-x="468" 
d="M74 429v311h112v-311h-112zM283 429v311h112v-311h-112z" />
    <glyph glyph-name="numbersign" unicode="#" horiz-adv-x="659" 
d="M105 0l32 184h-110v80h124l29 170h-110v80h124l32 184h83l-31 -184h158l31 184h84l-31 -184h110v-80h-125l-28 -170h110v-80h-124l-32 -184h-84l32 184h-158l-32 -184h-84zM235 264h158l29 170h-158z" />
    <glyph glyph-name="dollar" unicode="$" horiz-adv-x="600" 
d="M257 -82v89q-135 11 -218 109l79 73q63 -73 148 -84v206q-108 23 -157.5 70t-49.5 122q0 79 52 127.5t146 59.5v90h96v-90q120 -11 190 -97l-81 -70q-44 54 -117 69v-189q108 -24 157.5 -69.5t49.5 -122.5q0 -79 -51.5 -133.5t-147.5 -68.5v-91h-96zM266 421v172
q-89 -15 -89 -85q0 -35 21 -55t68 -32zM345 106q43 9 66 34.5t23 61.5q0 34 -20 56t-69 36v-188z" />
    <glyph glyph-name="percent" unicode="%" horiz-adv-x="958" 
d="M228 314q-84 0 -128.5 51t-44.5 147t44.5 147t128.5 51q83 0 127.5 -50.5t44.5 -147.5t-44.5 -147.5t-127.5 -50.5zM180 0l484 698h114l-484 -698h-114zM228 389q63 0 63 96v54q0 96 -63 96q-64 0 -64 -96v-54q0 -96 64 -96zM731 -12q-84 0 -128.5 51t-44.5 147t44.5 147
t128.5 51q83 0 127.5 -50.5t44.5 -147.5t-44.5 -147.5t-127.5 -50.5zM731 63q63 0 63 96v54q0 96 -63 96q-64 0 -64 -96v-54q0 -96 64 -96z" />
    <glyph glyph-name="ampersand" unicode="&#x26;" horiz-adv-x="712" 
d="M287 -12q-109 0 -169.5 54.5t-60.5 139.5q0 68 36.5 112.5t104.5 82.5q-78 85 -78 166q0 71 55.5 119t144.5 48q83 0 136.5 -42.5t53.5 -114.5q0 -61 -38 -104.5t-108 -84.5l124 -134q25 64 30 149h157v-105h-66q-15 -69 -46 -125l138 -149h-154l-59 65q-86 -77 -201 -77
zM301 432q89 51 89 107v7q0 31 -21 48.5t-53 17.5q-33 0 -54.5 -19t-21.5 -50v-7q0 -36 61 -104zM304 93q71 0 117 43l-160 173q-38 -21 -56.5 -45.5t-18.5 -60.5v-11q0 -45 31 -72t87 -27z" />
    <glyph glyph-name="quotesingle" unicode="'" horiz-adv-x="259" 
d="M74 429v311h112v-311h-112z" />
    <glyph glyph-name="parenleft" unicode="(" horiz-adv-x="337" 
d="M229 -138q-77 66 -127 187.5t-50 262.5q0 140 49.5 260t127.5 188h118q-82 -76 -129 -184t-47 -227v-76q0 -121 47.5 -229t128.5 -182h-118z" />
    <glyph glyph-name="parenright" unicode=")" horiz-adv-x="337" 
d="M-10 -138q81 74 128.5 182t47.5 229v76q0 119 -47 227t-129 184h118q78 -68 127.5 -188t49.5 -260q0 -141 -50 -262.5t-127 -187.5h-118z" />
    <glyph glyph-name="asterisk" unicode="*" horiz-adv-x="551" 
d="M176 288l-88 60l115 141l-170 50l34 98l162 -66l-8 176h109l-8 -176l162 66l33 -98l-169 -50l114 -141l-88 -59l-99 149z" />
    <glyph glyph-name="plus" unicode="+" horiz-adv-x="600" 
d="M245 63v192h-178v101h178v193h110v-193h178v-101h-178v-192h-110z" />
    <glyph glyph-name="comma" unicode="," horiz-adv-x="297" 
d="M38 -142q72 69 91 133q-58 10 -58 70v18q0 33 20 53t59 20t59 -20t20 -53v-18q0 -54 -28 -110.5t-74 -92.5h-89z" />
    <glyph glyph-name="hyphen" unicode="-" horiz-adv-x="402" 
d="M58 242v125h285v-125h-285z" />
    <glyph glyph-name="period" unicode="." horiz-adv-x="297" 
d="M149 -11q-39 0 -59 19.5t-20 52.5v18q0 33 20 53t59 20t59 -20t20 -53v-18q0 -33 -20 -52.5t-59 -19.5z" />
    <glyph glyph-name="slash" unicode="/" horiz-adv-x="434" 
d="M5 -151l286 891h105l-286 -891h-105z" />
    <glyph glyph-name="zero" unicode="0" horiz-adv-x="600" 
d="M300 -12q-131 0 -195 93t-64 268t64 268t195 93t195 -93t64 -268t-64 -268t-195 -93zM300 97q121 0 121 189v126q0 189 -121 189t-121 -189v-126q0 -189 121 -189z" />
    <glyph glyph-name="one" unicode="1" horiz-adv-x="600" 
d="M92 0v105h190v500h-8l-153 -179l-81 68l173 204h197v-593h159v-105h-477z" />
    <glyph glyph-name="two" unicode="2" horiz-adv-x="600" 
d="M63 0v120l219 193q57 49 83 89.5t26 85.5v14q0 45 -29.5 70.5t-75.5 25.5q-94 0 -123 -104l-112 43q25 77 86 125t160 48q107 0 168.5 -57.5t61.5 -150.5q0 -55 -26 -105t-58.5 -83.5t-90.5 -80.5l-149 -124h342v-109h-482z" />
    <glyph glyph-name="three" unicode="3" horiz-adv-x="600" 
d="M272 -12q-162 0 -247 129l95 73q27 -47 62 -71.5t90 -24.5q58 0 90 28.5t32 78.5v6q0 49 -34.5 75t-97.5 26h-69v107h69q58 0 88 24.5t30 64.5v7q0 43 -28 68t-76 25q-90 0 -143 -85l-83 75q84 116 230 116q105 0 170 -49.5t65 -132.5q0 -64 -37.5 -105.5t-95.5 -53.5v-5
q64 -12 105 -56t41 -115q0 -92 -70.5 -148.5t-185.5 -56.5z" />
    <glyph glyph-name="four" unicode="4" horiz-adv-x="600" 
d="M350 0v135h-317v110l278 453h161v-462h92v-101h-92v-135h-122zM139 236h211v337h-9z" />
    <glyph glyph-name="five" unicode="5" horiz-adv-x="600" 
d="M295 -12q-158 0 -239 129l94 73q28 -47 61 -71.5t85 -24.5q58 0 89.5 33t31.5 91v9q0 55 -31.5 86t-87.5 31q-69 0 -113 -52l-106 15l26 391h409v-112h-313l-17 -236h8q24 50 56.5 75t90.5 25q92 0 152.5 -59.5t60.5 -160.5q0 -108 -68.5 -175t-188.5 -67z" />
    <glyph glyph-name="six" unicode="6" horiz-adv-x="600" 
d="M303 -12q-118 0 -185.5 74t-67.5 200q0 138 74.5 253t175.5 183h174q-133 -96 -200.5 -174.5t-89.5 -179.5l8 -3q51 104 158 104q89 0 147 -59.5t58 -157.5q0 -107 -69 -173.5t-183 -66.5zM303 90q56 0 87.5 31.5t31.5 88.5v15q0 57 -31.5 88t-87.5 31q-57 0 -88.5 -31
t-31.5 -88v-15q0 -57 31.5 -88.5t88.5 -31.5z" />
    <glyph glyph-name="seven" unicode="7" horiz-adv-x="600" 
d="M169 0l245 593h-245v-128h-109v233h482v-111l-238 -587h-135z" />
    <glyph glyph-name="eight" unicode="8" horiz-adv-x="600" 
d="M300 -12q-119 0 -186.5 56.5t-67.5 146.5q0 66 36.5 109t101.5 61v8q-54 20 -85.5 60.5t-31.5 99.5q0 82 61.5 131.5t171.5 49.5t171.5 -49.5t61.5 -131.5q0 -59 -31.5 -99.5t-85.5 -60.5v-8q65 -18 101.5 -61t36.5 -109q0 -90 -67.5 -146.5t-186.5 -56.5zM300 408
q53 0 81.5 24.5t28.5 68.5v15q0 44 -28.5 68.5t-81.5 24.5t-81.5 -24.5t-28.5 -68.5v-15q0 -44 28.5 -68.5t81.5 -24.5zM300 89q57 0 88.5 27t31.5 74v20q0 47 -31.5 74t-88.5 27t-88.5 -27t-31.5 -74v-20q0 -47 31.5 -74t88.5 -27z" />
    <glyph glyph-name="nine" unicode="9" horiz-adv-x="600" 
d="M126 0q133 96 200.5 174.5t89.5 179.5l-8 3q-51 -104 -158 -104q-89 0 -147 59.5t-58 157.5q0 107 69 173.5t183 66.5q118 0 185.5 -74t67.5 -200q0 -138 -74.5 -253t-175.5 -183h-174zM297 354q57 0 88.5 31t31.5 88v15q0 57 -31.5 88.5t-88.5 31.5q-56 0 -87.5 -31.5
t-31.5 -88.5v-15q0 -57 31.5 -88t87.5 -31z" />
    <glyph glyph-name="colon" unicode=":" horiz-adv-x="317" 
d="M159 370q-39 0 -59 20t-20 53v18q0 33 20 52.5t59 19.5t59 -19.5t20 -52.5v-18q0 -33 -20 -53t-59 -20zM159 -11q-39 0 -59 19.5t-20 52.5v18q0 33 20 53t59 20t59 -20t20 -53v-18q0 -33 -20 -52.5t-59 -19.5z" />
    <glyph glyph-name="semicolon" unicode=";" horiz-adv-x="317" 
d="M159 370q-39 0 -59 20t-20 53v18q0 33 20 52.5t59 19.5t59 -19.5t20 -52.5v-18q0 -33 -20 -53t-59 -20zM48 -142q72 69 91 133q-58 10 -58 70v18q0 33 20 53t59 20t59 -20t20 -53v-18q0 -54 -28 -110.5t-74 -92.5h-89z" />
    <glyph glyph-name="less" unicode="&#x3c;" horiz-adv-x="600" 
d="M501 -5l-402 256v85l402 255v-127l-273 -167v-7l273 -167v-128z" />
    <glyph glyph-name="equal" unicode="=" horiz-adv-x="600" 
d="M67 365v102h466v-102h-466zM67 144v101h466v-101h-466z" />
    <glyph glyph-name="greater" unicode="&#x3e;" horiz-adv-x="600" 
d="M99 -5v128l273 167v7l-273 167v127l402 -255v-84z" />
    <glyph glyph-name="question" unicode="?" horiz-adv-x="492" 
d="M165 225v156q164 8 164 117v14q0 42 -25.5 66t-68.5 24t-72.5 -26.5t-39.5 -69.5l-106 43q20 69 75.5 115t147.5 46q100 0 161 -55t61 -145q0 -84 -51.5 -136.5t-126.5 -64.5v-84h-119zM226 -12q-40 0 -60 19t-20 51v20q0 70 80 70t80 -70v-20q0 -32 -20 -51t-60 -19z
" />
    <glyph glyph-name="at" unicode="@" horiz-adv-x="899" 
d="M457 -121q-182 0 -288.5 112.5t-106.5 298.5t109 302.5t289 116.5q167 0 273 -100t106 -278q0 -116 -47.5 -184.5t-134.5 -68.5q-51 0 -82.5 25t-34.5 66h-5q-28 -90 -118 -90q-71 0 -116 55t-45 156q0 102 45 157t116 55q41 0 68.5 -21.5t38.5 -56.5h4v69h97v-281
q0 -55 48 -55q39 0 60.5 41t21.5 119v34q0 127 -82.5 203.5t-212.5 76.5q-140 0 -226.5 -89.5t-86.5 -227.5v-45q0 -139 85 -225t225 -86h217v-79h-217zM449 162q34 0 56.5 21.5t22.5 51.5v118q0 29 -22 47.5t-57 18.5q-41 0 -64 -25.5t-23 -67.5v-72q0 -42 23 -67t64 -25z
" />
    <glyph glyph-name="A" unicode="A" horiz-adv-x="670" 
d="M21 0l235 698h161l232 -698h-134l-57 179h-249l-57 -179h-131zM239 290h187l-91 290h-5z" />
    <glyph glyph-name="B" unicode="B" horiz-adv-x="662" 
d="M82 0v698h322q86 0 135.5 -48.5t49.5 -130.5q0 -74 -35.5 -110t-89.5 -40v-6q56 -1 103.5 -41.5t47.5 -121.5q0 -84 -51.5 -142t-128.5 -58h-353zM212 407h165q36 0 57 19.5t21 55.5v31q0 35 -21 55t-57 20h-165v-181zM212 110h185q39 0 60.5 20.5t21.5 57.5v34
q0 37 -21.5 57.5t-60.5 20.5h-185v-190z" />
    <glyph glyph-name="C" unicode="C" horiz-adv-x="641" 
d="M352 -12q-140 0 -219.5 91.5t-79.5 264.5q0 174 80 270t219 96q182 0 254 -160l-110 -59q-35 104 -144 104q-75 0 -118.5 -51.5t-43.5 -141.5v-109q0 -90 43.5 -140t118.5 -50q111 0 152 111l105 -62q-78 -164 -257 -164z" />
    <glyph glyph-name="D" unicode="D" horiz-adv-x="688" 
d="M82 0v698h254q139 0 219.5 -89.5t80.5 -259.5t-80.5 -259.5t-219.5 -89.5h-254zM212 115h124q75 0 118.5 45.5t43.5 133.5v110q0 88 -43.5 133.5t-118.5 45.5h-124v-468z" />
    <glyph glyph-name="E" unicode="E" horiz-adv-x="599" 
d="M82 0v698h459v-115h-329v-173h292v-114h-292v-181h329v-115h-459z" />
    <glyph glyph-name="F" unicode="F" horiz-adv-x="576" 
d="M82 0v698h448v-115h-318v-173h277v-114h-277v-296h-130z" />
    <glyph glyph-name="G" unicode="G" horiz-adv-x="711" 
d="M340 -12q-127 0 -207 94.5t-80 264.5q0 173 84 268t225 95q188 0 264 -159l-105 -61q-44 105 -159 105q-79 0 -125.5 -49.5t-46.5 -140.5v-112q0 -91 47 -140.5t128 -49.5q65 0 108 31.5t43 88.5v47h-138v109h262v-379h-112v108h-4q-9 -53 -58 -86.5t-126 -33.5z" />
    <glyph glyph-name="H" unicode="H" horiz-adv-x="718" 
d="M82 0v698h130v-288h295v288h129v-698h-129v296h-295v-296h-130z" />
    <glyph glyph-name="I" unicode="I" horiz-adv-x="421" 
d="M53 0v104h93v490h-93v104h315v-104h-93v-490h93v-104h-315z" />
    <glyph glyph-name="J" unicode="J" horiz-adv-x="543" 
d="M245 -11q-93 0 -148 49t-71 134l120 25q19 -95 98 -95q41 0 66 26t25 77v387h-221v106h351v-503q0 -94 -59.5 -150t-160.5 -56z" />
    <glyph glyph-name="K" unicode="K" horiz-adv-x="675" 
d="M82 0v698h130v-345h5l99 130l175 215h149l-243 -291l263 -407h-154l-201 317l-93 -110v-207h-130z" />
    <glyph glyph-name="L" unicode="L" horiz-adv-x="520" 
d="M82 0v698h130v-583h276v-115h-406z" />
    <glyph glyph-name="M" unicode="M" horiz-adv-x="817" 
d="M82 0v698h145l181 -343h3l179 343h144v-698h-122v501h-4l-54 -107l-146 -266l-144 266l-55 112h-4v-506h-123z" />
    <glyph glyph-name="N" unicode="N" horiz-adv-x="718" 
d="M82 0v698h143l213 -362l72 -145h3v507h123v-698h-143l-212 362l-73 145h-3v-507h-123z" />
    <glyph glyph-name="O" unicode="O" horiz-adv-x="712" 
d="M356 -12q-140 0 -221.5 93.5t-81.5 267.5t81.5 267.5t221.5 93.5t221.5 -93.5t81.5 -267.5t-81.5 -267.5t-221.5 -93.5zM356 103q76 0 121 51.5t45 140.5v108q0 89 -45 140.5t-121 51.5t-121 -51.5t-45 -140.5v-108q0 -89 45 -140.5t121 -51.5z" />
    <glyph glyph-name="P" unicode="P" horiz-adv-x="639" 
d="M82 0v698h313q95 0 150.5 -58.5t55.5 -156.5t-55.5 -157t-150.5 -59h-183v-267h-130zM212 380h171q39 0 61.5 20.5t22.5 58.5v47q0 38 -22.5 58.5t-61.5 20.5h-171v-205z" />
    <glyph glyph-name="Q" unicode="Q" horiz-adv-x="712" 
d="M434 -177q-132 0 -132 126v43q-117 18 -183 109.5t-66 247.5q0 174 81.5 267.5t221.5 93.5t221.5 -93.5t81.5 -267.5q0 -152 -62 -243t-173 -112v-65h107v-106h-97zM356 103q76 0 121 51.5t45 140.5v108q0 89 -45 140.5t-121 51.5t-121 -51.5t-45 -140.5v-108
q0 -89 45 -140.5t121 -51.5z" />
    <glyph glyph-name="R" unicode="R" horiz-adv-x="663" 
d="M82 0v698h314q94 0 149.5 -58.5t55.5 -156.5q0 -73 -33.5 -125t-97.5 -73l145 -285h-145l-131 271h-127v-271h-130zM212 380h171q39 0 61.5 20.5t22.5 58.5v47q0 38 -22.5 58.5t-61.5 20.5h-171v-205z" />
    <glyph glyph-name="S" unicode="S" horiz-adv-x="610" 
d="M298 -12q-160 0 -259 116l88 85q72 -87 179 -87q61 0 93 26.5t32 73.5q0 37 -22 59t-75 31l-65 10q-209 34 -209 203q0 94 68 149.5t184 55.5q152 0 238 -103l-88 -84q-58 73 -157 73q-56 0 -86 -21.5t-30 -61.5q0 -39 23 -59t76 -30l65 -12q106 -19 156.5 -68t50.5 -135
q0 -100 -69.5 -160.5t-192.5 -60.5z" />
    <glyph glyph-name="T" unicode="T" horiz-adv-x="580" 
d="M225 0v583h-200v115h530v-115h-200v-583h-130z" />
    <glyph glyph-name="U" unicode="U" horiz-adv-x="689" 
d="M343 -12q-144 0 -204.5 70.5t-60.5 227.5v412h127v-429q0 -85 32.5 -125.5t106.5 -40.5q75 0 107.5 40.5t32.5 125.5v429h127v-412q0 -156 -61.5 -227t-206.5 -71z" />
    <glyph glyph-name="V" unicode="V" horiz-adv-x="636" 
d="M243 0l-227 698h133l107 -341l63 -233h3l62 233l108 341h128l-229 -698h-148z" />
    <glyph glyph-name="W" unicode="W" horiz-adv-x="946" 
d="M188 0l-162 698h130l69 -335l44 -217h2l51 217l81 335h143l80 -335l50 -216h3l45 216l71 335h125l-168 -698h-146l-89 368l-44 187h-3l-45 -187l-90 -368h-147z" />
    <glyph glyph-name="X" unicode="X" horiz-adv-x="653" 
d="M19 0l225 359l-216 339h152l149 -250h2l152 250h141l-218 -340l228 -358h-151l-161 269h-3l-159 -269h-141z" />
    <glyph glyph-name="Y" unicode="Y" horiz-adv-x="630" 
d="M250 0v274l-240 424h146l162 -297h2l158 297h142l-240 -422v-276h-130z" />
    <glyph glyph-name="Z" unicode="Z" horiz-adv-x="598" 
d="M38 0v115l364 468h-346v115h494v-115l-365 -468h375v-115h-522z" />
    <glyph glyph-name="bracketleft" unicode="[" horiz-adv-x="328" 
d="M82 -138v898h193v-90h-78v-718h78v-90h-193z" />
    <glyph glyph-name="backslash" unicode="\" horiz-adv-x="434" 
d="M322 -151l-285 891h106l285 -891h-106z" />
    <glyph glyph-name="bracketright" unicode="]" horiz-adv-x="328" 
d="M53 -138v90h79v718h-79v90h193v-898h-193z" />
    <glyph glyph-name="asciicircum" unicode="^" horiz-adv-x="600" 
d="M140 283l-95 49l202 366h109l200 -366l-100 -49l-155 283h-6z" />
    <glyph glyph-name="underscore" unicode="_" horiz-adv-x="559" 
d="M30 -182v106h499v-106h-499z" />
    <glyph glyph-name="grave" unicode="`" horiz-adv-x="600" 
d="M287 581l-125 170l107 53l94 -186z" />
    <glyph glyph-name="a" unicode="a" horiz-adv-x="557" 
d="M204 -12q-79 0 -123 41.5t-44 112.5q0 79 58 119.5t166 40.5h89v39q0 93 -99 93q-74 0 -119 -67l-74 67q63 100 202 100q105 0 160 -48t55 -138v-248h53v-100h-70q-38 0 -62 21.5t-32 57.5l-2 10h-6q-13 -49 -53 -75t-99 -26zM245 79q46 0 75.5 20.5t29.5 56.5v70h-83
q-102 0 -102 -66v-17q0 -64 80 -64z" />
    <glyph glyph-name="b" unicode="b" horiz-adv-x="599" 
d="M349 -12q-51 0 -90 27t-55 72h-4v-87h-126v740h126v-305h4q14 46 53.5 72.5t91.5 26.5q98 0 151 -71t53 -202q0 -130 -53 -201.5t-151 -71.5zM309 92q50 0 81.5 34t31.5 90v90q0 56 -31.5 90t-81.5 34q-47 0 -78 -23t-31 -61v-168q0 -40 30.5 -63t78.5 -23z" />
    <glyph glyph-name="c" unicode="c" horiz-adv-x="512" 
d="M280 -12q-114 0 -177 73t-63 200t63 200t177 73q153 0 204 -132l-102 -46q-22 76 -102 76q-53 0 -81 -33.5t-28 -90.5v-95q0 -57 28 -90t81 -33q78 0 112 82l96 -47q-53 -137 -208 -137z" />
    <glyph glyph-name="d" unicode="d" horiz-adv-x="599" 
d="M250 -12q-99 0 -152 71.5t-53 201.5q0 131 53 202t152 71q52 0 91 -26.5t53 -72.5h5v305h125v-740h-125v87h-5q-15 -45 -54 -72t-90 -27zM290 92q48 0 78.5 23t30.5 63v168q0 38 -31 61t-78 23q-50 0 -81.5 -34t-31.5 -90v-90q0 -56 31.5 -90t81.5 -34z" />
    <glyph glyph-name="e" unicode="e" horiz-adv-x="558" 
d="M285 -12q-115 0 -180 73.5t-65 199.5t64 199.5t177 73.5q116 0 176.5 -74t60.5 -189v-42h-348v-13q0 -59 33 -93t95 -34q79 0 133 71l69 -75q-71 -97 -215 -97zM170 307h217v10q0 56 -27.5 89t-76.5 33q-51 0 -82 -34.5t-31 -89.5v-8z" />
    <glyph glyph-name="f" unicode="f" horiz-adv-x="349" 
d="M101 0v422h-77v100h77v76q0 69 36.5 105.5t105.5 36.5h90v-100h-107v-118h107v-100h-107v-422h-125z" />
    <glyph glyph-name="g" unicode="g" horiz-adv-x="544" 
d="M271 -212q-242 0 -242 124q0 84 93 100v11q-32 7 -49 30t-17 55q0 71 95 92v4q-95 44 -95 153q0 81 56 129t158 48q54 0 92 -13v16q0 76 73 76h81v-97h-110v-15q80 -45 80 -144q0 -81 -56 -128.5t-159 -47.5q-38 0 -79 9q-38 -16 -38 -47q0 -40 68 -40h138
q183 0 183 -147q0 -85 -63.5 -126.5t-208.5 -41.5zM271 267q95 0 95 82v17q0 81 -95 81t-95 -81v-17q0 -82 95 -82zM241 -125h64q121 0 121 65q0 54 -90 54h-177q-29 -19 -29 -54q0 -65 111 -65z" />
    <glyph glyph-name="h" unicode="h" horiz-adv-x="587" 
d="M74 0v740h126v-305h5q37 99 146 99q80 0 123.5 -53.5t43.5 -150.5v-330h-125v317q0 113 -88 113q-43 0 -74 -22t-31 -62v-346h-126z" />
    <glyph glyph-name="i" unicode="i" horiz-adv-x="274" 
d="M137 600q-37 0 -55.5 17t-18.5 46v19q0 29 18.5 46.5t55.5 17.5t55.5 -17.5t18.5 -46.5v-19q0 -29 -18.5 -46t-55.5 -17zM74 0v522h126v-522h-126z" />
    <glyph glyph-name="j" unicode="j" horiz-adv-x="274" 
d="M137 600q-37 0 -55.5 17t-18.5 46v19q0 29 18.5 46.5t55.5 17.5t55.5 -17.5t18.5 -46.5v-19q0 -29 -18.5 -46t-55.5 -17zM-6 -200v100h80v622h126v-586q0 -136 -136 -136h-70z" />
    <glyph glyph-name="k" unicode="k" horiz-adv-x="560" 
d="M74 0v740h126v-448h5l70 94l118 136h142l-180 -202l200 -320h-150l-136 236l-69 -76v-160h-126z" />
    <glyph glyph-name="l" unicode="l" horiz-adv-x="293" 
d="M201 0q-127 0 -127 124v616h126v-640h69v-100h-68z" />
    <glyph glyph-name="m" unicode="m" horiz-adv-x="887" 
d="M74 0v522h126v-87h5q36 99 140 99q114 0 151 -106h3q15 46 57 76t102 30q76 0 118 -53.5t42 -150.5v-330h-125v317q0 113 -86 113q-41 0 -69.5 -22t-28.5 -62v-346h-125v317q0 113 -85 113q-41 0 -70 -22t-29 -62v-346h-126z" />
    <glyph glyph-name="n" unicode="n" horiz-adv-x="587" 
d="M74 0v522h126v-87h5q37 99 146 99q80 0 123.5 -53.5t43.5 -150.5v-330h-125v317q0 113 -88 113q-43 0 -74 -22t-31 -62v-346h-126z" />
    <glyph glyph-name="o" unicode="o" horiz-adv-x="563" 
d="M281 -12q-111 0 -176 74t-65 199q0 126 65 199.5t176 73.5q112 0 177 -73.5t65 -199.5q0 -125 -65 -199t-177 -74zM281 90q52 0 81.5 32t29.5 91v96q0 59 -29.5 91t-81.5 32q-51 0 -80.5 -32t-29.5 -91v-96q0 -59 29.5 -91t80.5 -32z" />
    <glyph glyph-name="p" unicode="p" horiz-adv-x="599" 
d="M74 -200v722h126v-87h4q14 46 53.5 72.5t91.5 26.5q98 0 151 -71t53 -202q0 -130 -53 -201.5t-151 -71.5q-51 0 -90 27t-55 72h-4v-287h-126zM309 92q50 0 81.5 34t31.5 90v90q0 56 -31.5 90t-81.5 34q-47 0 -78 -23t-31 -61v-168q0 -40 30.5 -63t78.5 -23z" />
    <glyph glyph-name="q" unicode="q" horiz-adv-x="599" 
d="M399 -200v287h-5q-15 -45 -54 -72t-90 -27q-99 0 -152 71.5t-53 201.5q0 131 53 202t152 71q52 0 91 -26.5t53 -72.5h5v87h125v-722h-125zM290 92q48 0 78.5 23t30.5 63v168q0 38 -31 61t-78 23q-50 0 -81.5 -34t-31.5 -90v-90q0 -56 31.5 -90t81.5 -34z" />
    <glyph glyph-name="r" unicode="r" horiz-adv-x="392" 
d="M74 0v522h126v-108h5q12 46 46.5 77t92.5 31h27v-119h-40q-131 0 -131 -82v-321h-126z" />
    <glyph glyph-name="s" unicode="s" horiz-adv-x="498" 
d="M245 -12q-133 0 -216 96l77 74q61 -71 144 -71q88 0 88 62q0 46 -65 56l-52 7q-173 22 -173 157q0 76 54 120.5t143 44.5q72 0 117.5 -20t85.5 -62l-75 -74q-52 57 -125 57q-80 0 -80 -56q0 -27 16 -40.5t54 -19.5l52 -7q168 -24 168 -154q0 -76 -58.5 -123t-154.5 -47z
" />
    <glyph glyph-name="t" unicode="t" horiz-adv-x="372" 
d="M235 0q-64 0 -98 33.5t-34 96.5v292h-78v100h41q28 0 38.5 12.5t10.5 40.5v89h113v-142h107v-100h-107v-322h99v-100h-92z" />
    <glyph glyph-name="u" unicode="u" horiz-adv-x="586" 
d="M235 -12q-80 0 -123.5 53.5t-43.5 150.5v330h125v-317q0 -113 90 -113q42 0 72.5 22t30.5 62v346h126v-522h-126v87h-4q-36 -99 -147 -99z" />
    <glyph glyph-name="v" unicode="v" horiz-adv-x="523" 
d="M187 0l-175 522h124l73 -227l52 -185h7l51 185l73 227h119l-176 -522h-148z" />
    <glyph glyph-name="w" unicode="w" horiz-adv-x="817" 
d="M167 0l-144 522h121l53 -216l42 -182h3l49 182l62 216h114l63 -216l50 -182h3l42 182l52 216h117l-143 -522h-136l-67 231l-39 143h-3l-39 -143l-66 -231h-134z" />
    <glyph glyph-name="x" unicode="x" horiz-adv-x="542" 
d="M19 0l179 265l-175 257h143l109 -174h4l109 174h133l-176 -259l178 -263h-143l-112 181h-4l-113 -181h-132z" />
    <glyph glyph-name="y" unicode="y" horiz-adv-x="522" 
d="M79 -200v100h93l25 75l-187 547h124l93 -280l33 -130h6l35 130l93 280h119l-212 -616q-20 -58 -52.5 -82t-94.5 -24h-75z" />
    <glyph glyph-name="z" unicode="z" horiz-adv-x="500" 
d="M37 0v100l272 322h-263v100h410v-97l-275 -325h282v-100h-426z" />
    <glyph glyph-name="braceleft" unicode="{" horiz-adv-x="362" 
d="M208 -138q-40 0 -65.5 25.5t-25.5 69.5v215q0 42 -27 65.5t-70 23.5v101q43 0 70 23.5t27 65.5v214q0 44 25.5 69.5t65.5 25.5h101v-90h-78v-227q0 -47 -29 -83.5t-72 -44.5v-8q43 -8 72 -44.5t29 -83.5v-227h78v-90h-101z" />
    <glyph glyph-name="bar" unicode="|" horiz-adv-x="373" 
d="M133 -138v898h107v-898h-107z" />
    <glyph glyph-name="braceright" unicode="}" horiz-adv-x="362" 
d="M53 -138v90h78v228q0 47 29 83.5t72 44.5v8q-43 8 -72 44t-29 84v226h-78v90h101q41 0 66 -25.5t25 -69.5v-214q0 -42 27 -65.5t70 -23.5v-101q-43 0 -70 -23.5t-27 -65.5v-215q0 -44 -25 -69.5t-66 -25.5h-101z" />
    <glyph glyph-name="asciitilde" unicode="~" horiz-adv-x="600" 
d="M417 220q-53 0 -127 36q-68 34 -111 34q-37 0 -80 -29l-43 71q45 59 127 59q53 0 127 -36q66 -33 111 -33q38 0 80 28l43 -70q-44 -60 -127 -60z" />
    <glyph glyph-name="uni00A0" unicode="&#xa0;" horiz-adv-x="236" 
 />
    <glyph glyph-name="exclamdown" unicode="&#xa1;" horiz-adv-x="308" 
d="M154 374q-80 0 -80 70v20q0 32 20 51t60 19t60 -19t20 -51v-20q0 -70 -80 -70zM87 -176v197l39 293h55l39 -293v-197h-133z" />
    <glyph glyph-name="cent" unicode="&#xa2;" horiz-adv-x="539" 
d="M236 -114v106q-91 16 -142 86t-51 180t51 180t142 86v106h97v-105q114 -15 162 -121l-92 -50q-25 58 -76 72v-337q57 14 86 76l90 -53q-50 -107 -170 -121v-105h-97zM243 92v332q-77 -25 -77 -123v-86q0 -46 20 -78.5t57 -44.5z" />
    <glyph glyph-name="sterling" unicode="&#xa3;" horiz-adv-x="586" 
d="M71 0v124q80 35 80 127q0 14 -4 38h-104v104h67q-22 66 -22 110q0 93 66 150t177 57q152 0 229 -119l-94 -66q-54 73 -133 73q-54 0 -84 -29.5t-30 -84.5q0 -38 19 -91h202v-104h-166q3 -15 3 -32q0 -49 -22.5 -85t-54.5 -54v-8h344v-110h-473z" />
    <glyph glyph-name="currency" unicode="&#xa4;" horiz-adv-x="623" 
d="M83 51l-70 69l96 96q-32 55 -32 133t32 133l-96 96l70 69l94 -95q56 35 134 35t134 -35l95 95l70 -69l-96 -96q32 -55 32 -133t-32 -133l96 -96l-70 -69l-95 95q-56 -35 -134 -35t-134 35zM311 205q51 0 79.5 29.5t28.5 85.5v58q0 56 -28.5 85.5t-79.5 29.5
q-50 0 -78.5 -29.5t-28.5 -85.5v-58q0 -56 28.5 -85.5t78.5 -29.5z" />
    <glyph glyph-name="yen" unicode="&#xa5;" horiz-adv-x="635" 
d="M251 0v137h-171v82h171v78h-171v82h119l-175 319h146l150 -288h3l148 288h140l-178 -319h118v-82h-170v-78h170v-82h-170v-137h-130z" />
    <glyph glyph-name="brokenbar" unicode="&#xa6;" horiz-adv-x="373" 
d="M133 403v357h107v-357h-107zM133 -138v357h107v-357h-107z" />
    <glyph glyph-name="section" unicode="&#xa7;" horiz-adv-x="575" 
d="M273 -159q-116 0 -188 67l63 77q54 -51 127 -51q46 0 73 19t27 52q0 30 -22.5 48.5t-70.5 31.5l-72 20q-151 44 -151 150q0 95 107 140v13q-76 51 -76 137q0 77 58 121t152 44q118 0 190 -67l-64 -77q-54 51 -128 51q-46 0 -72.5 -17.5t-26.5 -51.5q0 -29 22 -46.5
t71 -30.5l72 -21q79 -22 115.5 -61.5t36.5 -89.5q0 -94 -109 -139v-13q77 -50 77 -137q0 -78 -58.5 -123.5t-152.5 -45.5zM362 170q46 44 46 92q0 68 -93 93l-71 20q-18 5 -32 10q-46 -43 -46 -93q0 -66 92 -91l72 -20q14 -4 32 -11z" />
    <glyph glyph-name="dieresis" unicode="&#xa8;" horiz-adv-x="600" 
d="M196 606q-70 0 -70 57v21q0 57 70 57q69 0 69 -57v-21q0 -57 -69 -57zM404 606q-69 0 -69 57v21q0 57 69 57q70 0 70 -57v-21q0 -57 -70 -57z" />
    <glyph glyph-name="copyright" unicode="&#xa9;" horiz-adv-x="787" 
d="M393 -12q-150 0 -246.5 98t-96.5 263t96.5 263t246.5 98q151 0 247.5 -98t96.5 -263t-96.5 -263t-247.5 -98zM393 51q118 0 195 76t77 189v66q0 113 -77 189t-195 76t-194.5 -76t-76.5 -189v-66q0 -113 76.5 -189t194.5 -76zM401 141q-91 0 -142.5 56.5t-51.5 151.5
t51.5 151.5t142.5 56.5q121 0 165 -104l-86 -43q-26 57 -79 57q-36 0 -56.5 -22t-20.5 -59v-75q0 -37 20.5 -59t56.5 -22q56 0 87 59l85 -43q-48 -105 -172 -105z" />
    <glyph glyph-name="ordfeminine" unicode="&#xaa;" horiz-adv-x="432" 
d="M156 331q-51 0 -81.5 28t-30.5 77q0 109 156 109h61v22q0 69 -67 69q-58 0 -88 -47l-51 44q39 71 148 71q70 0 109.5 -34.5t39.5 -99.5v-165h38v-68h-51q-61 0 -69 55l-1 5h-4q-21 -66 -109 -66zM188 393q31 0 52 15t21 41v43h-59q-70 0 -70 -44v-13q0 -42 56 -42z" />
    <glyph glyph-name="guillemotleft" unicode="&#xab;" horiz-adv-x="543" 
d="M225 59l-188 162v110l188 162l37 -80l-126 -137l126 -137zM456 59l-188 162v110l188 162l36 -80l-125 -137l125 -137z" />
    <glyph glyph-name="logicalnot" unicode="&#xac;" horiz-adv-x="600" 
d="M429 78v177h-372v101h476v-278h-104z" />
    <glyph glyph-name="uni00AD" unicode="&#xad;" horiz-adv-x="402" 
d="M58 242v125h285v-125h-285z" />
    <glyph glyph-name="registered" unicode="&#xae;" horiz-adv-x="468" 
d="M234 298q-84 0 -142.5 59t-58.5 147t58.5 147t142.5 59t142.5 -59t58.5 -147t-58.5 -147t-142.5 -59zM234 343q64 0 107 41.5t43 105.5v28q0 64 -43 105.5t-107 41.5t-107 -41.5t-43 -105.5v-28q0 -64 43 -105.5t107 -41.5zM151 399v209h98q37 0 56 -18.5t19 -49.5
q0 -47 -38 -64l45 -77h-61l-36 67h-27v-67h-56zM207 508h33q26 0 26 22v12q0 23 -26 23h-33v-57z" />
    <glyph glyph-name="macron" unicode="&#xaf;" horiz-adv-x="600" 
d="M151 628v92h298v-92h-298z" />
    <glyph glyph-name="degree" unicode="&#xb0;" horiz-adv-x="469" 
d="M235 345q-77 0 -128.5 52t-51.5 130q0 79 51.5 131t128.5 52q76 0 127.5 -52.5t51.5 -130.5t-51.5 -130t-127.5 -52zM235 429q40 0 64 28t24 70q0 43 -24 70.5t-64 27.5t-64.5 -27.5t-24.5 -70.5q0 -42 24.5 -70t64.5 -28z" />
    <glyph glyph-name="plusminus" unicode="&#xb1;" horiz-adv-x="600" 
d="M245 173v178h-178v102h178v176h110v-176h178v-102h-178v-178h-110zM67 0v102h466v-102h-466z" />
    <glyph glyph-name="uni00B2" unicode="&#xb2;" horiz-adv-x="347" 
d="M35 329v78l116 90q37 29 51 47t14 41v3q0 41 -50 41q-47 0 -63 -49l-77 29q15 43 52 69t96 26q64 0 100.5 -31t36.5 -81q0 -78 -107 -144l-72 -47h186v-72h-283z" />
    <glyph glyph-name="uni00B3" unicode="&#xb3;" horiz-adv-x="345" 
d="M159 323q-102 0 -148 72l66 50q28 -53 82 -53q28 0 43.5 13t15.5 34v4q0 39 -66 39h-36v72h36q59 0 59 35v4q0 18 -13.5 30t-37.5 12q-50 0 -81 -44l-56 51q51 62 139 62q66 0 105 -27t39 -72q0 -34 -22 -55.5t-55 -26.5v-4q37 -6 60 -28.5t23 -58.5q0 -50 -42 -79.5
t-111 -29.5z" />
    <glyph glyph-name="acute" unicode="&#xb4;" horiz-adv-x="600" 
d="M313 581l-76 37l94 186l107 -53z" />
    <glyph glyph-name="uni00B5" unicode="&#xb5;" horiz-adv-x="592" 
d="M74 -200v722h126v-318q0 -112 88 -112q44 0 74.5 23t30.5 62v345h125v-522h-125v87h-5q-34 -99 -125 -99q-59 0 -81 45h-5l23 -119v-114h-126z" />
    <glyph glyph-name="paragraph" unicode="&#xb6;" horiz-adv-x="669" 
d="M243 -149v422q-85 0 -145 63t-60 150t60 149.5t145 62.5h363v-93h-66v-754h-97v754h-103v-754h-97z" />
    <glyph glyph-name="periodcentered" unicode="&#xb7;" horiz-adv-x="347" 
d="M174 222q-39 0 -59 20t-20 53v17q0 33 20 53t59 20t59 -20t20 -53v-17q0 -33 -20 -53t-59 -20z" />
    <glyph glyph-name="cedilla" unicode="&#xb8;" horiz-adv-x="600" 
d="M313 -210q-81 0 -115 43l43 51q24 -29 64 -29q44 0 44 27q0 33 -72 40l-24 3l21 102h62l-18 -84l4 -4q26 7 45 7q32 0 51.5 -17t19.5 -51q0 -45 -35.5 -66.5t-89.5 -21.5z" />
    <glyph glyph-name="uni00B9" unicode="&#xb9;" horiz-adv-x="349" 
d="M51 329v69h98v230h-6l-70 -85l-57 44l91 111h131v-300h86v-69h-273z" />
    <glyph glyph-name="ordmasculine" unicode="&#xba;" horiz-adv-x="421" 
d="M211 331q-80 0 -125.5 49.5t-45.5 136.5t45.5 137t125.5 50t125.5 -50t45.5 -137t-45.5 -136.5t-125.5 -49.5zM211 400q37 0 57 23t20 65v59q0 42 -20 65t-57 23t-57 -23t-20 -65v-59q0 -42 20 -65t57 -23z" />
    <glyph glyph-name="guillemotright" unicode="&#xbb;" horiz-adv-x="543" 
d="M87 59l-36 80l125 137l-125 137l36 80l188 -162v-110zM318 59l-37 80l126 137l-126 137l37 80l188 -162v-110z" />
    <glyph glyph-name="onequarter" unicode="&#xbc;" horiz-adv-x="840" 
d="M51 329v69h98v230h-6l-70 -85l-57 44l91 111h131v-300h86v-69h-273zM133 0l515 698h94l-515 -698h-94zM686 0v71h-174v74l154 224h105v-232h50v-66h-50v-71h-85zM583 137h103v140h-6z" />
    <glyph glyph-name="onehalf" unicode="&#xbd;" horiz-adv-x="863" 
d="M51 329v69h98v230h-6l-70 -85l-57 44l91 111h131v-300h86v-69h-273zM133 0l515 698h94l-515 -698h-94zM552 0v78l116 90q36 28 50.5 47t14.5 41v3q0 20 -14.5 30.5t-35.5 10.5q-48 0 -63 -49l-77 29q15 43 52 69t96 26q64 0 100.5 -31t36.5 -81q0 -77 -108 -144l-71 -47
h186v-72h-283z" />
    <glyph glyph-name="threequarters" unicode="&#xbe;" horiz-adv-x="827" 
d="M159 323q-102 0 -148 72l66 50q28 -53 82 -53q28 0 43.5 13t15.5 34v4q0 39 -66 39h-36v72h36q59 0 59 35v4q0 18 -13.5 30t-37.5 12q-50 0 -81 -44l-56 51q51 62 139 62q66 0 105 -27t39 -72q0 -34 -22 -55.5t-55 -26.5v-4q37 -6 60 -28.5t23 -58.5q0 -50 -42 -79.5
t-111 -29.5zM119 0l515 698h94l-514 -698h-95zM672 0v71h-173v74l154 224h105v-232h49v-66h-49v-71h-86zM570 137h102v140h-6z" />
    <glyph glyph-name="questiondown" unicode="&#xbf;" horiz-adv-x="485" 
d="M267 374q-79 0 -79 70v20q0 32 19.5 51t59.5 19t60 -19t20 -51v-20q0 -70 -80 -70zM253 -188q-101 0 -162 55t-61 145q0 84 51.5 136.5t126.5 64.5v84h119v-156q-163 -8 -163 -117v-14q0 -42 25 -66t68 -24t72.5 26.5t39.5 69.5l106 -43q-19 -69 -74.5 -115t-147.5 -46z
" />
    <glyph glyph-name="Agrave" unicode="&#xc0;" horiz-adv-x="670" 
d="M322 745l-125 170l107 53l94 -186zM21 0l235 698h161l232 -698h-134l-57 179h-249l-57 -179h-131zM239 290h187l-91 290h-5z" />
    <glyph glyph-name="Aacute" unicode="&#xc1;" horiz-adv-x="670" 
d="M347 745l-76 37l94 186l107 -53zM21 0l235 698h161l232 -698h-134l-57 179h-249l-57 -179h-131zM239 290h187l-91 290h-5z" />
    <glyph glyph-name="Acircumflex" unicode="&#xc2;" horiz-adv-x="670" 
d="M215 746l-63 49l125 154h116l125 -154l-63 -49l-120 116zM21 0l235 698h161l232 -698h-134l-57 179h-249l-57 -179h-131zM239 290h187l-91 290h-5z" />
    <glyph glyph-name="Atilde" unicode="&#xc3;" horiz-adv-x="670" 
d="M410 769q-30 0 -78 22q-51 22 -75 22q-28 0 -59 -25l-46 58q41 61 108 61q30 0 78 -22q49 -23 75 -23q27 0 59 26l46 -59q-40 -60 -108 -60zM21 0l235 698h161l232 -698h-134l-57 179h-249l-57 -179h-131zM239 290h187l-91 290h-5z" />
    <glyph glyph-name="Adieresis" unicode="&#xc4;" horiz-adv-x="670" 
d="M231 770q-70 0 -70 58v20q0 58 70 58t70 -58v-20q0 -58 -70 -58zM439 770q-70 0 -70 58v20q0 58 70 58t70 -58v-20q0 -58 -70 -58zM21 0l235 698h161l232 -698h-134l-57 179h-249l-57 -179h-131zM239 290h187l-91 290h-5z" />
    <glyph glyph-name="Aring" unicode="&#xc5;" horiz-adv-x="670" 
d="M335 728q-58 0 -97.5 38t-39.5 96q0 57 39.5 95t97.5 38t97.5 -38t39.5 -95q0 -58 -39.5 -96t-97.5 -38zM335 794q25 0 39 14t14 39v30q0 24 -14 38t-39 14t-39 -14t-14 -38v-30q0 -25 14 -39t39 -14zM21 0l235 698h161l232 -698h-134l-57 179h-249l-57 -179h-131z
M239 290h187l-91 290h-5z" />
    <glyph glyph-name="AE" unicode="&#xc6;" horiz-adv-x="948" 
d="M1 0l346 698h543v-115h-331v-173h293v-114h-293v-181h331v-115h-459v179h-214l-86 -179h-130zM269 290h162v293h-20z" />
    <glyph glyph-name="Ccedilla" unicode="&#xc7;" horiz-adv-x="641" 
d="M349 -210q-82 0 -116 43l43 51q24 -29 65 -29q44 0 44 27q0 33 -73 40l-23 3l13 67q-118 14 -183.5 104.5t-65.5 247.5q0 174 80 270t219 96q182 0 254 -160l-110 -59q-35 104 -144 104q-75 0 -118.5 -51.5t-43.5 -141.5v-109q0 -90 43.5 -140t118.5 -50q111 0 152 111
l105 -62q-76 -160 -246 -164l-9 -45l3 -4q26 7 45 7q32 0 52 -17t20 -51q0 -45 -35.5 -66.5t-89.5 -21.5z" />
    <glyph glyph-name="Egrave" unicode="&#xc8;" horiz-adv-x="599" 
d="M299 745l-125 170l107 53l94 -186zM82 0v698h459v-115h-329v-173h292v-114h-292v-181h329v-115h-459z" />
    <glyph glyph-name="Eacute" unicode="&#xc9;" horiz-adv-x="599" 
d="M324 745l-76 37l94 186l107 -53zM82 0v698h459v-115h-329v-173h292v-114h-292v-181h329v-115h-459z" />
    <glyph glyph-name="Ecircumflex" unicode="&#xca;" horiz-adv-x="599" 
d="M192 746l-63 49l125 154h116l125 -154l-63 -49l-120 116zM82 0v698h459v-115h-329v-173h292v-114h-292v-181h329v-115h-459z" />
    <glyph glyph-name="Edieresis" unicode="&#xcb;" horiz-adv-x="599" 
d="M208 770q-70 0 -70 58v20q0 58 70 58t70 -58v-20q0 -58 -70 -58zM416 770q-70 0 -70 58v20q0 58 70 58t70 -58v-20q0 -58 -70 -58zM82 0v698h459v-115h-329v-173h292v-114h-292v-181h329v-115h-459z" />
    <glyph glyph-name="Igrave" unicode="&#xcc;" horiz-adv-x="421" 
d="M198 745l-125 170l107 53l94 -186zM53 0v104h93v490h-93v104h315v-104h-93v-490h93v-104h-315z" />
    <glyph glyph-name="Iacute" unicode="&#xcd;" horiz-adv-x="421" 
d="M223 745l-76 37l94 186l107 -53zM53 0v104h93v490h-93v104h315v-104h-93v-490h93v-104h-315z" />
    <glyph glyph-name="Icircumflex" unicode="&#xce;" horiz-adv-x="421" 
d="M91 746l-63 49l125 154h116l125 -154l-63 -49l-120 116zM53 0v104h93v490h-93v104h315v-104h-93v-490h93v-104h-315z" />
    <glyph glyph-name="Idieresis" unicode="&#xcf;" horiz-adv-x="421" 
d="M107 770q-70 0 -70 58v20q0 58 70 58t70 -58v-20q0 -58 -70 -58zM315 770q-70 0 -70 58v20q0 58 70 58t70 -58v-20q0 -58 -70 -58zM53 0v104h93v490h-93v104h315v-104h-93v-490h93v-104h-315z" />
    <glyph glyph-name="Eth" unicode="&#xd0;" horiz-adv-x="693" 
d="M87 0v310h-77v98h77v290h253q139 0 219.5 -89.5t80.5 -259.5t-80.5 -259.5t-219.5 -89.5h-253zM216 115h124q76 0 119.5 45.5t43.5 133.5v110q0 88 -43.5 133.5t-119.5 45.5h-124v-175h125v-98h-125v-195z" />
    <glyph glyph-name="Ntilde" unicode="&#xd1;" horiz-adv-x="718" 
d="M434 769q-30 0 -78 22q-51 22 -75 22q-28 0 -59 -25l-46 58q41 61 108 61q30 0 78 -22q49 -23 75 -23q27 0 59 26l46 -59q-40 -60 -108 -60zM82 0v698h143l213 -362l72 -145h3v507h123v-698h-143l-212 362l-73 145h-3v-507h-123z" />
    <glyph glyph-name="Ograve" unicode="&#xd2;" horiz-adv-x="712" 
d="M343 745l-125 170l107 53l94 -186zM356 -12q-140 0 -221.5 93.5t-81.5 267.5t81.5 267.5t221.5 93.5t221.5 -93.5t81.5 -267.5t-81.5 -267.5t-221.5 -93.5zM356 103q76 0 121 51.5t45 140.5v108q0 89 -45 140.5t-121 51.5t-121 -51.5t-45 -140.5v-108q0 -89 45 -140.5
t121 -51.5z" />
    <glyph glyph-name="Oacute" unicode="&#xd3;" horiz-adv-x="712" 
d="M368 745l-76 37l94 186l107 -53zM356 -12q-140 0 -221.5 93.5t-81.5 267.5t81.5 267.5t221.5 93.5t221.5 -93.5t81.5 -267.5t-81.5 -267.5t-221.5 -93.5zM356 103q76 0 121 51.5t45 140.5v108q0 89 -45 140.5t-121 51.5t-121 -51.5t-45 -140.5v-108q0 -89 45 -140.5
t121 -51.5z" />
    <glyph glyph-name="Ocircumflex" unicode="&#xd4;" horiz-adv-x="712" 
d="M236 746l-63 49l125 154h116l125 -154l-63 -49l-120 116zM356 -12q-140 0 -221.5 93.5t-81.5 267.5t81.5 267.5t221.5 93.5t221.5 -93.5t81.5 -267.5t-81.5 -267.5t-221.5 -93.5zM356 103q76 0 121 51.5t45 140.5v108q0 89 -45 140.5t-121 51.5t-121 -51.5t-45 -140.5
v-108q0 -89 45 -140.5t121 -51.5z" />
    <glyph glyph-name="Otilde" unicode="&#xd5;" horiz-adv-x="712" 
d="M431 769q-30 0 -78 22q-51 22 -75 22q-28 0 -59 -25l-46 58q41 61 108 61q30 0 78 -22q49 -23 75 -23q27 0 59 26l46 -59q-40 -60 -108 -60zM356 -12q-140 0 -221.5 93.5t-81.5 267.5t81.5 267.5t221.5 93.5t221.5 -93.5t81.5 -267.5t-81.5 -267.5t-221.5 -93.5zM356 103
q76 0 121 51.5t45 140.5v108q0 89 -45 140.5t-121 51.5t-121 -51.5t-45 -140.5v-108q0 -89 45 -140.5t121 -51.5z" />
    <glyph glyph-name="Odieresis" unicode="&#xd6;" horiz-adv-x="712" 
d="M252 770q-70 0 -70 58v20q0 58 70 58t70 -58v-20q0 -58 -70 -58zM460 770q-70 0 -70 58v20q0 58 70 58t70 -58v-20q0 -58 -70 -58zM356 -12q-140 0 -221.5 93.5t-81.5 267.5t81.5 267.5t221.5 93.5t221.5 -93.5t81.5 -267.5t-81.5 -267.5t-221.5 -93.5zM356 103
q76 0 121 51.5t45 140.5v108q0 89 -45 140.5t-121 51.5t-121 -51.5t-45 -140.5v-108q0 -89 45 -140.5t121 -51.5z" />
    <glyph glyph-name="multiply" unicode="&#xd7;" horiz-adv-x="600" 
d="M154 78l-71 71l146 152l-146 152l71 71l146 -152l146 152l71 -71l-146 -152l146 -152l-71 -71l-146 152z" />
    <glyph glyph-name="Oslash" unicode="&#xd8;" horiz-adv-x="712" 
d="M143 -52l-80 51l63 93q-73 93 -73 257q0 174 81.5 267.5t221.5 93.5q89 0 158 -40l55 80l80 -51l-63 -93q73 -93 73 -257q0 -174 -81.5 -267.5t-221.5 -93.5q-89 0 -158 40zM204 194l249 380q-38 28 -97 28q-79 0 -125 -52.5t-46 -144.5v-112q0 -55 19 -99zM356 96
q79 0 125 52.5t46 144.5v112q0 55 -19 99l-249 -380q38 -28 97 -28z" />
    <glyph glyph-name="Ugrave" unicode="&#xd9;" horiz-adv-x="689" 
d="M331 745l-125 170l107 53l94 -186zM343 -12q-144 0 -204.5 70.5t-60.5 227.5v412h127v-429q0 -85 32.5 -125.5t106.5 -40.5q75 0 107.5 40.5t32.5 125.5v429h127v-412q0 -156 -61.5 -227t-206.5 -71z" />
    <glyph glyph-name="Uacute" unicode="&#xda;" horiz-adv-x="689" 
d="M356 745l-76 37l94 186l107 -53zM343 -12q-144 0 -204.5 70.5t-60.5 227.5v412h127v-429q0 -85 32.5 -125.5t106.5 -40.5q75 0 107.5 40.5t32.5 125.5v429h127v-412q0 -156 -61.5 -227t-206.5 -71z" />
    <glyph glyph-name="Ucircumflex" unicode="&#xdb;" horiz-adv-x="689" 
d="M224 746l-63 49l125 154h116l125 -154l-63 -49l-120 116zM343 -12q-144 0 -204.5 70.5t-60.5 227.5v412h127v-429q0 -85 32.5 -125.5t106.5 -40.5q75 0 107.5 40.5t32.5 125.5v429h127v-412q0 -156 -61.5 -227t-206.5 -71z" />
    <glyph glyph-name="Udieresis" unicode="&#xdc;" horiz-adv-x="689" 
d="M240 770q-70 0 -70 58v20q0 58 70 58t70 -58v-20q0 -58 -70 -58zM448 770q-70 0 -70 58v20q0 58 70 58t70 -58v-20q0 -58 -70 -58zM343 -12q-144 0 -204.5 70.5t-60.5 227.5v412h127v-429q0 -85 32.5 -125.5t106.5 -40.5q75 0 107.5 40.5t32.5 125.5v429h127v-412
q0 -156 -61.5 -227t-206.5 -71z" />
    <glyph glyph-name="Yacute" unicode="&#xdd;" horiz-adv-x="630" 
d="M328 745l-76 37l94 186l107 -53zM250 0v274l-240 424h146l162 -297h2l158 297h142l-240 -422v-276h-130z" />
    <glyph glyph-name="Thorn" unicode="&#xde;" horiz-adv-x="639" 
d="M82 0v698h130v-128h183q95 0 150.5 -59.5t55.5 -155.5q0 -97 -55.5 -156.5t-150.5 -59.5h-183v-139h-130zM212 252h171q39 0 61.5 21t22.5 59v46q0 38 -22.5 58.5t-61.5 20.5h-171v-205z" />
    <glyph glyph-name="germandbls" unicode="&#xdf;" horiz-adv-x="675" 
d="M459 -12q-123 0 -183 78l74 73q46 -55 110 -55q34 0 53.5 17.5t19.5 48.5q0 27 -15.5 43.5t-52.5 26.5l-31 9q-123 35 -123 146q0 62 40.5 101.5t112.5 50.5v3q0 126 -119 126t-119 -126v-530h-125v422h-77v100h77v4q0 104 65.5 165t175.5 61t174.5 -60t64.5 -164v-85
h-53q-53 0 -77 -13.5t-24 -44.5q0 -27 15.5 -40.5t52.5 -24.5l31 -9q123 -35 123 -146q0 -81 -52 -129t-138 -48z" />
    <glyph glyph-name="agrave" unicode="&#xe0;" horiz-adv-x="557" 
d="M250 581l-125 170l107 53l94 -186zM204 -12q-79 0 -123 41.5t-44 112.5q0 79 58 119.5t166 40.5h89v39q0 93 -99 93q-74 0 -119 -67l-74 67q63 100 202 100q105 0 160 -48t55 -138v-248h53v-100h-70q-38 0 -62 21.5t-32 57.5l-2 10h-6q-13 -49 -53 -75t-99 -26zM245 79
q46 0 75.5 20.5t29.5 56.5v70h-83q-102 0 -102 -66v-17q0 -64 80 -64z" />
    <glyph glyph-name="aacute" unicode="&#xe1;" horiz-adv-x="557" 
d="M276 581l-76 37l94 186l107 -53zM204 -12q-79 0 -123 41.5t-44 112.5q0 79 58 119.5t166 40.5h89v39q0 93 -99 93q-74 0 -119 -67l-74 67q63 100 202 100q105 0 160 -48t55 -138v-248h53v-100h-70q-38 0 -62 21.5t-32 57.5l-2 10h-6q-13 -49 -53 -75t-99 -26zM245 79
q46 0 75.5 20.5t29.5 56.5v70h-83q-102 0 -102 -66v-17q0 -64 80 -64z" />
    <glyph glyph-name="acircumflex" unicode="&#xe2;" horiz-adv-x="557" 
d="M143 582l-63 49l125 154h116l125 -154l-63 -49l-120 116zM204 -12q-79 0 -123 41.5t-44 112.5q0 79 58 119.5t166 40.5h89v39q0 93 -99 93q-74 0 -119 -67l-74 67q63 100 202 100q105 0 160 -48t55 -138v-248h53v-100h-70q-38 0 -62 21.5t-32 57.5l-2 10h-6
q-13 -49 -53 -75t-99 -26zM245 79q46 0 75.5 20.5t29.5 56.5v70h-83q-102 0 -102 -66v-17q0 -64 80 -64z" />
    <glyph glyph-name="atilde" unicode="&#xe3;" horiz-adv-x="557" 
d="M338 605q-30 0 -78 22q-51 22 -75 22q-28 0 -59 -25l-46 58q41 61 108 61q30 0 78 -22q49 -23 75 -23q27 0 59 26l46 -59q-40 -60 -108 -60zM204 -12q-79 0 -123 41.5t-44 112.5q0 79 58 119.5t166 40.5h89v39q0 93 -99 93q-74 0 -119 -67l-74 67q63 100 202 100
q105 0 160 -48t55 -138v-248h53v-100h-70q-38 0 -62 21.5t-32 57.5l-2 10h-6q-13 -49 -53 -75t-99 -26zM245 79q46 0 75.5 20.5t29.5 56.5v70h-83q-102 0 -102 -66v-17q0 -64 80 -64z" />
    <glyph glyph-name="adieresis" unicode="&#xe4;" horiz-adv-x="557" 
d="M159 606q-70 0 -70 57v21q0 57 70 57q69 0 69 -57v-21q0 -57 -69 -57zM367 606q-69 0 -69 57v21q0 57 69 57q70 0 70 -57v-21q0 -57 -70 -57zM204 -12q-79 0 -123 41.5t-44 112.5q0 79 58 119.5t166 40.5h89v39q0 93 -99 93q-74 0 -119 -67l-74 67q63 100 202 100
q105 0 160 -48t55 -138v-248h53v-100h-70q-38 0 -62 21.5t-32 57.5l-2 10h-6q-13 -49 -53 -75t-99 -26zM245 79q46 0 75.5 20.5t29.5 56.5v70h-83q-102 0 -102 -66v-17q0 -64 80 -64z" />
    <glyph glyph-name="aring" unicode="&#xe5;" horiz-adv-x="557" 
d="M263 564q-58 0 -97.5 38t-39.5 96q0 57 39.5 95t97.5 38t97.5 -38t39.5 -95q0 -58 -39.5 -96t-97.5 -38zM263 630q25 0 39 14t14 39v30q0 52 -53 52t-53 -52v-30q0 -25 14 -39t39 -14zM204 -12q-79 0 -123 41.5t-44 112.5q0 79 58 119.5t166 40.5h89v39q0 93 -99 93
q-74 0 -119 -67l-74 67q63 100 202 100q105 0 160 -48t55 -138v-248h53v-100h-70q-38 0 -62 21.5t-32 57.5l-2 10h-6q-13 -49 -53 -75t-99 -26zM245 79q46 0 75.5 20.5t29.5 56.5v70h-83q-102 0 -102 -66v-17q0 -64 80 -64z" />
    <glyph glyph-name="ae" unicode="&#xe6;" horiz-adv-x="864" 
d="M204 -12q-78 0 -122.5 42.5t-44.5 112.5q0 80 60 122t164 42h89v34q0 93 -98 93q-75 0 -120 -67l-74 67q63 100 202 100q107 0 153 -88h6q20 38 66.5 63t107.5 25q114 0 172.5 -74t58.5 -189v-42h-349v-13q0 -57 35 -91.5t96 -34.5q82 0 134 70l68 -75q-32 -45 -87.5 -71
t-124.5 -26q-73 0 -127 31.5t-72 75.5h-6q-15 -44 -62.5 -75.5t-124.5 -31.5zM476 307h218v10q0 56 -27.5 89t-77.5 33q-51 0 -82 -34.5t-31 -89.5v-8zM246 79q45 0 74.5 20.5t29.5 56.5v73h-83q-102 -2 -102 -66v-16q0 -68 81 -68z" />
    <glyph glyph-name="ccedilla" unicode="&#xe7;" horiz-adv-x="512" 
d="M279 -210q-81 0 -115 43l43 51q24 -29 64 -29q44 0 44 27q0 33 -72 40l-24 3l14 67q-92 14 -142.5 85t-50.5 184q0 127 63 200t177 73q76 0 128 -34.5t76 -96.5l-102 -47q-22 76 -102 76q-53 0 -81 -33.5t-28 -90.5v-95q0 -57 28 -90t81 -33q78 0 112 82l96 -47
q-50 -131 -194 -137l-10 -45l4 -4q26 7 45 7q32 0 51.5 -17t19.5 -51q0 -45 -35.5 -66.5t-89.5 -21.5z" />
    <glyph glyph-name="egrave" unicode="&#xe8;" horiz-adv-x="558" 
d="M271 581l-125 170l107 53l94 -186zM285 -12q-115 0 -180 73.5t-65 199.5t64 199.5t177 73.5q116 0 176.5 -74t60.5 -189v-42h-348v-13q0 -59 33 -93t95 -34q79 0 133 71l69 -75q-71 -97 -215 -97zM170 307h217v10q0 56 -27.5 89t-76.5 33q-51 0 -82 -34.5t-31 -89.5v-8z
" />
    <glyph glyph-name="eacute" unicode="&#xe9;" horiz-adv-x="558" 
d="M297 581l-76 37l94 186l107 -53zM285 -12q-115 0 -180 73.5t-65 199.5t64 199.5t177 73.5q116 0 176.5 -74t60.5 -189v-42h-348v-13q0 -59 33 -93t95 -34q79 0 133 71l69 -75q-71 -97 -215 -97zM170 307h217v10q0 56 -27.5 89t-76.5 33q-51 0 -82 -34.5t-31 -89.5v-8z
" />
    <glyph glyph-name="ecircumflex" unicode="&#xea;" horiz-adv-x="558" 
d="M164 582l-63 49l125 154h116l125 -154l-63 -49l-120 116zM285 -12q-115 0 -180 73.5t-65 199.5t64 199.5t177 73.5q116 0 176.5 -74t60.5 -189v-42h-348v-13q0 -59 33 -93t95 -34q79 0 133 71l69 -75q-71 -97 -215 -97zM170 307h217v10q0 56 -27.5 89t-76.5 33
q-51 0 -82 -34.5t-31 -89.5v-8z" />
    <glyph glyph-name="edieresis" unicode="&#xeb;" horiz-adv-x="558" 
d="M180 606q-70 0 -70 57v21q0 57 70 57q69 0 69 -57v-21q0 -57 -69 -57zM388 606q-69 0 -69 57v21q0 57 69 57q70 0 70 -57v-21q0 -57 -70 -57zM285 -12q-115 0 -180 73.5t-65 199.5t64 199.5t177 73.5q116 0 176.5 -74t60.5 -189v-42h-348v-13q0 -59 33 -93t95 -34
q79 0 133 71l69 -75q-71 -97 -215 -97zM170 307h217v10q0 56 -27.5 89t-76.5 33q-51 0 -82 -34.5t-31 -89.5v-8z" />
    <glyph glyph-name="igrave" unicode="&#xec;" horiz-adv-x="274" 
d="M124 581l-125 170l107 53l94 -186zM74 0v522h126v-522h-126z" />
    <glyph glyph-name="iacute" unicode="&#xed;" horiz-adv-x="274" 
d="M150 581l-76 37l94 186l107 -53zM74 0v522h126v-522h-126z" />
    <glyph glyph-name="icircumflex" unicode="&#xee;" horiz-adv-x="274" 
d="M17 582l-63 49l125 154h116l125 -154l-63 -49l-120 116zM74 0v522h126v-522h-126z" />
    <glyph glyph-name="idieresis" unicode="&#xef;" horiz-adv-x="274" 
d="M33 606q-70 0 -70 57v21q0 57 70 57q69 0 69 -57v-21q0 -57 -69 -57zM241 606q-69 0 -69 57v21q0 57 69 57q70 0 70 -57v-21q0 -57 -70 -57zM74 0v522h126v-522h-126z" />
    <glyph glyph-name="eth" unicode="&#xf0;" horiz-adv-x="587" 
d="M293 -12q-116 0 -183 71t-67 192q0 113 57 181.5t151 68.5q103 0 148 -98l6 3q-24 95 -118 186l-85 -54l-45 54l77 48q-65 53 -150 100h192q19 -12 55 -40l83 53l45 -54l-75 -48q154 -157 154 -375q0 -144 -66 -216t-179 -72zM291 84q54 0 85.5 35t31.5 96v58
q0 61 -31.5 96t-85.5 35t-85.5 -35t-31.5 -96v-58q0 -61 31.5 -96t85.5 -35z" />
    <glyph glyph-name="ntilde" unicode="&#xf1;" horiz-adv-x="587" 
d="M370 603q-30 0 -78 22q-51 22 -75 22q-28 0 -59 -25l-46 58q41 61 108 61q30 0 78 -22q49 -23 75 -23q27 0 59 26l46 -59q-40 -60 -108 -60zM74 0v522h126v-87h5q37 99 146 99q80 0 123.5 -53.5t43.5 -150.5v-330h-125v317q0 113 -88 113q-43 0 -74 -22t-31 -62v-346
h-126z" />
    <glyph glyph-name="ograve" unicode="&#xf2;" horiz-adv-x="563" 
d="M268 580l-125 170l107 53l94 -186zM281 -12q-111 0 -176 74t-65 199q0 126 65 199.5t176 73.5q112 0 177 -73.5t65 -199.5q0 -125 -65 -199t-177 -74zM281 90q52 0 81.5 32t29.5 91v96q0 59 -29.5 91t-81.5 32q-51 0 -80.5 -32t-29.5 -91v-96q0 -59 29.5 -91t80.5 -32z
" />
    <glyph glyph-name="oacute" unicode="&#xf3;" horiz-adv-x="563" 
d="M294 580l-76 37l94 186l107 -53zM281 -12q-111 0 -176 74t-65 199q0 126 65 199.5t176 73.5q112 0 177 -73.5t65 -199.5q0 -125 -65 -199t-177 -74zM281 90q52 0 81.5 32t29.5 91v96q0 59 -29.5 91t-81.5 32q-51 0 -80.5 -32t-29.5 -91v-96q0 -59 29.5 -91t80.5 -32z" />
    <glyph glyph-name="ocircumflex" unicode="&#xf4;" horiz-adv-x="563" 
d="M161 581l-63 49l125 154h116l125 -154l-63 -49l-120 116zM281 -12q-111 0 -176 74t-65 199q0 126 65 199.5t176 73.5q112 0 177 -73.5t65 -199.5q0 -125 -65 -199t-177 -74zM281 90q52 0 81.5 32t29.5 91v96q0 59 -29.5 91t-81.5 32q-51 0 -80.5 -32t-29.5 -91v-96
q0 -59 29.5 -91t80.5 -32z" />
    <glyph glyph-name="otilde" unicode="&#xf5;" horiz-adv-x="563" 
d="M356 604q-30 0 -78 22q-51 22 -75 22q-28 0 -59 -25l-46 58q41 61 108 61q30 0 78 -22q49 -23 75 -23q27 0 59 26l46 -59q-40 -60 -108 -60zM281 -12q-111 0 -176 74t-65 199q0 126 65 199.5t176 73.5q112 0 177 -73.5t65 -199.5q0 -125 -65 -199t-177 -74zM281 90
q52 0 81.5 32t29.5 91v96q0 59 -29.5 91t-81.5 32q-51 0 -80.5 -32t-29.5 -91v-96q0 -59 29.5 -91t80.5 -32z" />
    <glyph glyph-name="odieresis" unicode="&#xf6;" horiz-adv-x="563" 
d="M177 605q-70 0 -70 57v21q0 57 70 57q69 0 69 -57v-21q0 -57 -69 -57zM385 605q-69 0 -69 57v21q0 57 69 57q70 0 70 -57v-21q0 -57 -70 -57zM281 -12q-111 0 -176 74t-65 199q0 126 65 199.5t176 73.5q112 0 177 -73.5t65 -199.5q0 -125 -65 -199t-177 -74zM281 90
q52 0 81.5 32t29.5 91v96q0 59 -29.5 91t-81.5 32q-51 0 -80.5 -32t-29.5 -91v-96q0 -59 29.5 -91t80.5 -32z" />
    <glyph glyph-name="divide" unicode="&#xf7;" horiz-adv-x="600" 
d="M300 427q-40 0 -59.5 17t-19.5 45v23q0 28 19.5 45t59.5 17t59.5 -17t19.5 -45v-23q0 -28 -19.5 -45t-59.5 -17zM67 255v101h465v-101h-465zM300 36q-40 0 -59.5 17t-19.5 45v23q0 28 19.5 45t59.5 17t59.5 -17t19.5 -45v-23q0 -28 -19.5 -45t-59.5 -17z" />
    <glyph glyph-name="oslash" unicode="&#xf8;" horiz-adv-x="571" 
d="M89 -47l-68 52l67 83q-44 68 -44 173q0 126 65 199.5t176 73.5q77 0 136 -39l60 74l69 -52l-68 -84q45 -68 45 -172q0 -126 -65 -199.5t-177 -73.5q-76 0 -135 38zM177 189l183 223q-29 26 -75 26q-52 0 -82.5 -35t-30.5 -97v-42q0 -45 5 -75zM285 84q53 0 83.5 35
t30.5 97v50q0 34 -5 67l-184 -223q29 -26 75 -26z" />
    <glyph glyph-name="ugrave" unicode="&#xf9;" horiz-adv-x="586" 
d="M277 581l-125 170l107 53l94 -186zM235 -12q-80 0 -123.5 53.5t-43.5 150.5v330h125v-317q0 -113 90 -113q42 0 72.5 22t30.5 62v346h126v-522h-126v87h-4q-36 -99 -147 -99z" />
    <glyph glyph-name="uacute" unicode="&#xfa;" horiz-adv-x="586" 
d="M303 581l-76 37l94 186l107 -53zM235 -12q-80 0 -123.5 53.5t-43.5 150.5v330h125v-317q0 -113 90 -113q42 0 72.5 22t30.5 62v346h126v-522h-126v87h-4q-36 -99 -147 -99z" />
    <glyph glyph-name="ucircumflex" unicode="&#xfb;" horiz-adv-x="586" 
d="M170 582l-63 49l125 154h116l125 -154l-63 -49l-120 116zM235 -12q-80 0 -123.5 53.5t-43.5 150.5v330h125v-317q0 -113 90 -113q42 0 72.5 22t30.5 62v346h126v-522h-126v87h-4q-36 -99 -147 -99z" />
    <glyph glyph-name="udieresis" unicode="&#xfc;" horiz-adv-x="586" 
d="M186 606q-70 0 -70 57v21q0 57 70 57q69 0 69 -57v-21q0 -57 -69 -57zM394 606q-69 0 -69 57v21q0 57 69 57q70 0 70 -57v-21q0 -57 -70 -57zM235 -12q-80 0 -123.5 53.5t-43.5 150.5v330h125v-317q0 -113 90 -113q42 0 72.5 22t30.5 62v346h126v-522h-126v87h-4
q-36 -99 -147 -99z" />
    <glyph glyph-name="yacute" unicode="&#xfd;" horiz-adv-x="522" 
d="M276 581l-76 37l94 186l107 -53zM79 -200v100h93l25 75l-187 547h124l93 -280l33 -130h6l35 130l93 280h119l-212 -616q-20 -58 -52.5 -82t-94.5 -24h-75z" />
    <glyph glyph-name="thorn" unicode="&#xfe;" horiz-adv-x="599" 
d="M74 -200v940h126v-305h4q14 46 53.5 72.5t91.5 26.5q98 0 151 -71t53 -202q0 -130 -53 -201.5t-151 -71.5q-51 0 -90 27t-55 72h-4v-287h-126zM309 92q50 0 81.5 34t31.5 90v90q0 56 -31.5 90t-81.5 34q-47 0 -78 -23t-31 -61v-168q0 -40 30.5 -63t78.5 -23z" />
    <glyph glyph-name="ydieresis" unicode="&#xff;" horiz-adv-x="522" 
d="M159 606q-70 0 -70 57v21q0 57 70 57q69 0 69 -57v-21q0 -57 -69 -57zM367 606q-69 0 -69 57v21q0 57 69 57q70 0 70 -57v-21q0 -57 -70 -57zM79 -200v100h93l25 75l-187 547h124l93 -280l33 -130h6l35 130l93 280h119l-212 -616q-20 -58 -52.5 -82t-94.5 -24h-75z" />
    <glyph glyph-name="Amacron" unicode="&#x100;" horiz-adv-x="670" 
d="M186 792v92h298v-92h-298zM21 0l235 698h161l232 -698h-134l-57 179h-249l-57 -179h-131zM239 290h187l-91 290h-5z" />
    <glyph glyph-name="amacron" unicode="&#x101;" horiz-adv-x="557" 
d="M114 628v92h298v-92h-298zM204 -12q-79 0 -123 41.5t-44 112.5q0 79 58 119.5t166 40.5h89v39q0 93 -99 93q-74 0 -119 -67l-74 67q63 100 202 100q105 0 160 -48t55 -138v-248h53v-100h-70q-38 0 -62 21.5t-32 57.5l-2 10h-6q-13 -49 -53 -75t-99 -26zM245 79
q46 0 75.5 20.5t29.5 56.5v70h-83q-102 0 -102 -66v-17q0 -64 80 -64z" />
    <glyph glyph-name="Abreve" unicode="&#x102;" horiz-adv-x="670" 
d="M335 749q-40 0 -72 14t-52 39.5t-31.5 48.5t-21.5 53l69 35l19 -32q22 -36 41 -52.5t48 -16.5t48.5 16.5t40.5 52.5l20 32l68 -35q-51 -155 -177 -155zM21 0l235 698h161l232 -698h-134l-57 179h-249l-57 -179h-131zM239 290h187l-91 290h-5z" />
    <glyph glyph-name="abreve" unicode="&#x103;" horiz-adv-x="557" 
d="M263 585q-40 0 -72 14t-52 39.5t-31.5 48.5t-21.5 53l69 35l20 -33q21 -35 40.5 -51.5t47.5 -16.5t47.5 16.5t41.5 51.5l20 33l68 -35q-51 -155 -177 -155zM204 -12q-79 0 -123 41.5t-44 112.5q0 79 58 119.5t166 40.5h89v39q0 93 -99 93q-74 0 -119 -67l-74 67
q63 100 202 100q105 0 160 -48t55 -138v-248h53v-100h-70q-38 0 -62 21.5t-32 57.5l-2 10h-6q-13 -49 -53 -75t-99 -26zM245 79q46 0 75.5 20.5t29.5 56.5v70h-83q-102 0 -102 -66v-17q0 -64 80 -64z" />
    <glyph glyph-name="Aogonek" unicode="&#x104;" horiz-adv-x="670" 
d="M567 -210q-50 0 -82 19.5t-32 62.5q0 38 28 66t85 58l-1 4h-50l-57 179h-249l-57 -179h-131l235 698h161l232 -698q-66 -47 -87 -69.5t-21 -41.5q0 -32 35 -32q31 0 53 27l49 -47q-26 -47 -111 -47zM239 290h187l-91 290h-5z" />
    <glyph glyph-name="aogonek" unicode="&#x105;" horiz-adv-x="557" 
d="M445 -210q-50 0 -82 19.5t-32 62.5q0 38 28.5 66.5t84.5 58.5l-1 4l-6 1q-61 12 -74 82l-1 5h-6q-13 -49 -53 -75t-99 -26q-79 0 -123 41.5t-44 112.5q0 79 58 119.5t166 40.5h89v39q0 93 -99 93q-74 0 -119 -67l-74 67q63 100 202 100q105 0 160 -48t55 -138v-247h53
v-101q-67 -47 -88 -69.5t-21 -41.5q0 -32 36 -32q30 0 52 27l49 -47q-24 -47 -111 -47zM245 79q46 0 75.5 20.5t29.5 56.5v70h-83q-102 0 -102 -66v-17q0 -64 80 -64z" />
    <glyph glyph-name="Cacute" unicode="&#x106;" horiz-adv-x="641" 
d="M364 745l-76 37l94 186l107 -53zM352 -12q-140 0 -219.5 91.5t-79.5 264.5q0 174 80 270t219 96q182 0 254 -160l-110 -59q-35 104 -144 104q-75 0 -118.5 -51.5t-43.5 -141.5v-109q0 -90 43.5 -140t118.5 -50q111 0 152 111l105 -62q-78 -164 -257 -164z" />
    <glyph glyph-name="cacute" unicode="&#x107;" horiz-adv-x="512" 
d="M288 580l-76 37l94 186l107 -53zM280 -12q-114 0 -177 73t-63 200t63 200t177 73q153 0 204 -132l-102 -46q-22 76 -102 76q-53 0 -81 -33.5t-28 -90.5v-95q0 -57 28 -90t81 -33q78 0 112 82l96 -47q-53 -137 -208 -137z" />
    <glyph glyph-name="Ccircumflex" unicode="&#x108;" horiz-adv-x="641" 
d="M232 746l-63 49l125 154h116l125 -154l-63 -49l-120 116zM352 -12q-140 0 -219.5 91.5t-79.5 264.5q0 174 80 270t219 96q182 0 254 -160l-110 -59q-35 104 -144 104q-75 0 -118.5 -51.5t-43.5 -141.5v-109q0 -90 43.5 -140t118.5 -50q111 0 152 111l105 -62
q-78 -164 -257 -164z" />
    <glyph glyph-name="ccircumflex" unicode="&#x109;" horiz-adv-x="512" 
d="M155 581l-63 49l125 154h116l125 -154l-63 -49l-120 116zM280 -12q-114 0 -177 73t-63 200t63 200t177 73q153 0 204 -132l-102 -46q-22 76 -102 76q-53 0 -81 -33.5t-28 -90.5v-95q0 -57 28 -90t81 -33q78 0 112 82l96 -47q-53 -137 -208 -137z" />
    <glyph glyph-name="Cdotaccent" unicode="&#x10a;" horiz-adv-x="641" 
d="M352 761q-78 0 -78 65v24q0 64 78 64t78 -64v-24q0 -65 -78 -65zM352 -12q-140 0 -219.5 91.5t-79.5 264.5q0 174 80 270t219 96q182 0 254 -160l-110 -59q-35 104 -144 104q-75 0 -118.5 -51.5t-43.5 -141.5v-109q0 -90 43.5 -140t118.5 -50q111 0 152 111l105 -62
q-78 -164 -257 -164z" />
    <glyph glyph-name="cdotaccent" unicode="&#x10b;" horiz-adv-x="512" 
d="M275 598q-76 0 -76 62v23q0 62 76 62t76 -62v-23q0 -62 -76 -62zM280 -12q-114 0 -177 73t-63 200t63 200t177 73q153 0 204 -132l-102 -46q-22 76 -102 76q-53 0 -81 -33.5t-28 -90.5v-95q0 -57 28 -90t81 -33q78 0 112 82l96 -47q-53 -137 -208 -137z" />
    <glyph glyph-name="Ccaron" unicode="&#x10c;" horiz-adv-x="641" 
d="M294 755l-125 154l63 49l120 -116l120 116l63 -49l-125 -154h-116zM352 -12q-140 0 -219.5 91.5t-79.5 264.5q0 174 80 270t219 96q182 0 254 -160l-110 -59q-35 104 -144 104q-75 0 -118.5 -51.5t-43.5 -141.5v-109q0 -90 43.5 -140t118.5 -50q111 0 152 111l105 -62
q-78 -164 -257 -164z" />
    <glyph glyph-name="ccaron" unicode="&#x10d;" horiz-adv-x="512" 
d="M217 590l-125 154l63 49l120 -116l120 116l63 -49l-125 -154h-116zM280 -12q-114 0 -177 73t-63 200t63 200t177 73q153 0 204 -132l-102 -46q-22 76 -102 76q-53 0 -81 -33.5t-28 -90.5v-95q0 -57 28 -90t81 -33q78 0 112 82l96 -47q-53 -137 -208 -137z" />
    <glyph glyph-name="Dcaron" unicode="&#x10e;" horiz-adv-x="688" 
d="M259 755l-125 154l63 49l120 -116l120 116l63 -49l-125 -154h-116zM82 0v698h254q139 0 219.5 -89.5t80.5 -259.5t-80.5 -259.5t-219.5 -89.5h-254zM212 115h124q75 0 118.5 45.5t43.5 133.5v110q0 88 -43.5 133.5t-118.5 45.5h-124v-468z" />
    <glyph glyph-name="dcaron" unicode="&#x10f;" horiz-adv-x="601" 
d="M250 -12q-99 0 -152 71.5t-53 201.5q0 131 53 202t152 71q52 0 91 -26.5t53 -72.5h5v305h125v-740h-125v87h-5q-15 -45 -54 -72t-90 -27zM585 535l8 205h136l-62 -205h-82zM290 92q48 0 78.5 23t30.5 63v168q0 38 -31 61t-78 23q-50 0 -81.5 -34t-31.5 -90v-90
q0 -56 31.5 -90t81.5 -34z" />
    <glyph glyph-name="Dcroat" unicode="&#x110;" horiz-adv-x="693" 
d="M87 0v310h-77v98h77v290h253q139 0 219.5 -89.5t80.5 -259.5t-80.5 -259.5t-219.5 -89.5h-253zM216 115h124q76 0 119.5 45.5t43.5 133.5v110q0 88 -43.5 133.5t-119.5 45.5h-124v-175h125v-98h-125v-195z" />
    <glyph glyph-name="dcroat" unicode="&#x111;" horiz-adv-x="602" 
d="M250 -12q-99 0 -152 71.5t-53 201.5q0 131 53 202t152 71q52 0 91 -26.5t53 -72.5h5v161h-144v87h144v57h125v-57h62v-87h-62v-596h-125v87h-5q-15 -45 -54 -72t-90 -27zM290 92q48 0 78.5 23t30.5 63v168q0 38 -31 61t-78 23q-50 0 -81.5 -34t-31.5 -90v-90
q0 -56 31.5 -90t81.5 -34z" />
    <glyph glyph-name="Emacron" unicode="&#x112;" horiz-adv-x="599" 
d="M163 792v92h298v-92h-298zM82 0v698h459v-115h-329v-173h292v-114h-292v-181h329v-115h-459z" />
    <glyph glyph-name="emacron" unicode="&#x113;" horiz-adv-x="558" 
d="M135 628v92h298v-92h-298zM285 -12q-115 0 -180 73.5t-65 199.5t64 199.5t177 73.5q116 0 176.5 -74t60.5 -189v-42h-348v-13q0 -59 33 -93t95 -34q79 0 133 71l69 -75q-71 -97 -215 -97zM170 307h217v10q0 56 -27.5 89t-76.5 33q-51 0 -82 -34.5t-31 -89.5v-8z" />
    <glyph glyph-name="Ebreve" unicode="&#x114;" horiz-adv-x="599" 
d="M312 749q-40 0 -72 14t-52 39.5t-31.5 48.5t-21.5 53l69 35l19 -32q22 -36 41 -52.5t48 -16.5t48.5 16.5t40.5 52.5l20 32l68 -35q-51 -155 -177 -155zM82 0v698h459v-115h-329v-173h292v-114h-292v-181h329v-115h-459z" />
    <glyph glyph-name="ebreve" unicode="&#x115;" horiz-adv-x="558" 
d="M284 585q-40 0 -72 14t-52 39.5t-31.5 48.5t-21.5 53l69 35l20 -33q21 -35 40.5 -51.5t47.5 -16.5t47.5 16.5t41.5 51.5l20 33l68 -35q-51 -155 -177 -155zM285 -12q-115 0 -180 73.5t-65 199.5t64 199.5t177 73.5q116 0 176.5 -74t60.5 -189v-42h-348v-13q0 -59 33 -93
t95 -34q79 0 133 71l69 -75q-71 -97 -215 -97zM170 307h217v10q0 56 -27.5 89t-76.5 33q-51 0 -82 -34.5t-31 -89.5v-8z" />
    <glyph glyph-name="Edotaccent" unicode="&#x116;" horiz-adv-x="599" 
d="M312 761q-78 0 -78 65v24q0 64 78 64t78 -64v-24q0 -65 -78 -65zM82 0v698h459v-115h-329v-173h292v-114h-292v-181h329v-115h-459z" />
    <glyph glyph-name="edotaccent" unicode="&#x117;" horiz-adv-x="558" 
d="M284 599q-76 0 -76 62v23q0 62 76 62t76 -62v-23q0 -62 -76 -62zM285 -12q-115 0 -180 73.5t-65 199.5t64 199.5t177 73.5q116 0 176.5 -74t60.5 -189v-42h-348v-13q0 -59 33 -93t95 -34q79 0 133 71l69 -75q-71 -97 -215 -97zM170 307h217v10q0 56 -27.5 89t-76.5 33
q-51 0 -82 -34.5t-31 -89.5v-8z" />
    <glyph glyph-name="Eogonek" unicode="&#x118;" horiz-adv-x="599" 
d="M459 -210q-50 0 -82 19.5t-32 62.5q0 38 28.5 66.5t84.5 57.5l-1 4h-375v698h459v-115h-329v-173h292v-114h-292v-181h329v-115q-66 -46 -87 -69t-21 -42q0 -32 36 -32q30 0 52 27l49 -47q-24 -47 -111 -47z" />
    <glyph glyph-name="eogonek" unicode="&#x119;" horiz-adv-x="558" 
d="M343 -210q-50 0 -81.5 19.5t-31.5 61.5q0 40 28 67.5t82 53.5l-2 4q-29 -8 -56 -8q-113 0 -177.5 74t-64.5 199q0 126 64 199.5t177 73.5q116 0 176.5 -74t60.5 -189v-42h-348v-13q0 -59 33 -93t96 -34q82 0 133 71l68 -75q-15 -21 -82 -74q-4 -4 -16.5 -14.5
t-17.5 -14.5t-15 -13.5t-14.5 -14t-12 -13t-11 -14t-7.5 -12.5t-5.5 -13.5t-1.5 -12.5q0 -32 36 -32q30 0 52 27l48 -47q-26 -47 -110 -47zM170 307h217v10q0 56 -27.5 89t-76.5 33q-51 0 -82 -34.5t-31 -89.5v-8z" />
    <glyph glyph-name="Ecaron" unicode="&#x11a;" horiz-adv-x="599" 
d="M254 755l-125 154l63 49l120 -116l120 116l63 -49l-125 -154h-116zM82 0v698h459v-115h-329v-173h292v-114h-292v-181h329v-115h-459z" />
    <glyph glyph-name="ecaron" unicode="&#x11b;" horiz-adv-x="558" 
d="M226 591l-125 154l63 49l120 -116l120 116l63 -49l-125 -154h-116zM285 -12q-115 0 -180 73.5t-65 199.5t64 199.5t177 73.5q116 0 176.5 -74t60.5 -189v-42h-348v-13q0 -59 33 -93t95 -34q79 0 133 71l69 -75q-71 -97 -215 -97zM170 307h217v10q0 56 -27.5 89t-76.5 33
q-51 0 -82 -34.5t-31 -89.5v-8z" />
    <glyph glyph-name="Gcircumflex" unicode="&#x11c;" horiz-adv-x="711" 
d="M237 746l-63 49l125 154h116l125 -154l-63 -49l-120 116zM340 -12q-127 0 -207 94.5t-80 264.5q0 173 84 268t225 95q188 0 264 -159l-105 -61q-44 105 -159 105q-79 0 -125.5 -49.5t-46.5 -140.5v-112q0 -91 47 -140.5t128 -49.5q65 0 108 31.5t43 88.5v47h-138v109h262
v-379h-112v108h-4q-9 -53 -58 -86.5t-126 -33.5z" />
    <glyph glyph-name="gcircumflex" unicode="&#x11d;" horiz-adv-x="552" 
d="M151 582l-63 49l125 154h116l125 -154l-63 -49l-120 116zM271 -212q-242 0 -242 124q0 84 93 100v11q-32 7 -49 30t-17 55q0 71 95 92v4q-95 44 -95 153q0 81 56 129t158 48q56 0 92 -12h170v-87h-69q23 -34 23 -78q0 -81 -56 -128.5t-159 -47.5q-38 0 -79 9
q-38 -16 -38 -47q0 -40 68 -40h138q183 0 183 -147q0 -85 -63.5 -126.5t-208.5 -41.5zM271 267q95 0 95 82v17q0 81 -95 81t-95 -81v-17q0 -82 95 -82zM241 -125h64q121 0 121 65q0 54 -90 54h-177q-29 -19 -29 -54q0 -65 111 -65z" />
    <glyph glyph-name="Gbreve" unicode="&#x11e;" horiz-adv-x="711" 
d="M357 749q-40 0 -72 14t-52 39.5t-31.5 48.5t-21.5 53l69 35l19 -32q22 -36 41 -52.5t48 -16.5t48.5 16.5t40.5 52.5l20 32l68 -35q-51 -155 -177 -155zM340 -12q-127 0 -207 94.5t-80 264.5q0 173 84 268t225 95q188 0 264 -159l-105 -61q-44 105 -159 105
q-79 0 -125.5 -49.5t-46.5 -140.5v-112q0 -91 47 -140.5t128 -49.5q65 0 108 31.5t43 88.5v47h-138v109h262v-379h-112v108h-4q-9 -53 -58 -86.5t-126 -33.5z" />
    <glyph glyph-name="gbreve" unicode="&#x11f;" horiz-adv-x="552" 
d="M271 585q-41 0 -72.5 14t-51.5 39.5t-31.5 48t-22.5 53.5l69 35l21 -33q21 -35 40 -51.5t48 -16.5q28 0 47.5 16.5t40.5 51.5l21 33l68 -35q-53 -155 -177 -155zM271 -212q-242 0 -242 124q0 84 93 100v11q-32 7 -49 30t-17 55q0 71 95 92v4q-95 44 -95 153q0 81 56 129
t158 48q56 0 92 -12h170v-87h-69q23 -34 23 -78q0 -81 -56 -128.5t-159 -47.5q-38 0 -79 9q-38 -16 -38 -47q0 -40 68 -40h138q183 0 183 -147q0 -85 -63.5 -126.5t-208.5 -41.5zM271 267q95 0 95 82v17q0 81 -95 81t-95 -81v-17q0 -82 95 -82zM241 -125h64q121 0 121 65
q0 54 -90 54h-177q-29 -19 -29 -54q0 -65 111 -65z" />
    <glyph glyph-name="Gdotaccent" unicode="&#x120;" horiz-adv-x="711" 
d="M357 761q-78 0 -78 65v24q0 64 78 64t78 -64v-24q0 -65 -78 -65zM340 -12q-127 0 -207 94.5t-80 264.5q0 173 84 268t225 95q188 0 264 -159l-105 -61q-44 105 -159 105q-79 0 -125.5 -49.5t-46.5 -140.5v-112q0 -91 47 -140.5t128 -49.5q65 0 108 31.5t43 88.5v47h-138
v109h262v-379h-112v108h-4q-9 -53 -58 -86.5t-126 -33.5z" />
    <glyph glyph-name="gdotaccent" unicode="&#x121;" horiz-adv-x="552" 
d="M271 599q-76 0 -76 62v23q0 62 76 62t76 -62v-23q0 -62 -76 -62zM271 -212q-242 0 -242 124q0 84 93 100v11q-32 7 -49 30t-17 55q0 71 95 92v4q-95 44 -95 153q0 81 56 129t158 48q56 0 92 -12h170v-87h-69q23 -34 23 -78q0 -81 -56 -128.5t-159 -47.5q-38 0 -79 9
q-38 -16 -38 -47q0 -40 68 -40h138q183 0 183 -147q0 -85 -63.5 -126.5t-208.5 -41.5zM271 267q95 0 95 82v17q0 81 -95 81t-95 -81v-17q0 -82 95 -82zM241 -125h64q121 0 121 65q0 54 -90 54h-177q-29 -19 -29 -54q0 -65 111 -65z" />
    <glyph glyph-name="uni0122" unicode="&#x122;" horiz-adv-x="711" 
d="M340 -12q-127 0 -207 94.5t-80 264.5q0 173 84 268t225 95q188 0 264 -159l-105 -61q-44 105 -159 105q-79 0 -125.5 -49.5t-46.5 -140.5v-112q0 -91 47 -140.5t128 -49.5q65 0 108 31.5t43 88.5v47h-138v109h262v-379h-112v108h-4q-9 -53 -58 -86.5t-126 -33.5z
M271 -265q45 41 59 92q-45 5 -45 55v11q0 27 16.5 42t46.5 15q31 0 47.5 -15t16.5 -42v-13q0 -41 -18.5 -80.5t-46.5 -64.5h-76z" />
    <glyph glyph-name="uni0123" unicode="&#x123;" horiz-adv-x="552" 
d="M272 582q-30 0 -47 15t-17 42v13q0 41 18.5 80.5t46.5 64.5h76q-45 -40 -58 -92q45 -4 45 -55v-11q0 -27 -17 -42t-47 -15zM271 -212q-242 0 -242 124q0 84 93 100v11q-32 7 -49 30t-17 55q0 71 95 92v4q-95 44 -95 153q0 81 56 129t158 48q56 0 92 -12h170v-87h-69
q23 -34 23 -78q0 -81 -56 -128.5t-159 -47.5q-38 0 -79 9q-38 -16 -38 -47q0 -40 68 -40h138q183 0 183 -147q0 -85 -63.5 -126.5t-208.5 -41.5zM271 267q95 0 95 82v17q0 81 -95 81t-95 -81v-17q0 -82 95 -82zM241 -125h64q121 0 121 65q0 54 -90 54h-177q-29 -19 -29 -54
q0 -65 111 -65z" />
    <glyph glyph-name="Hcircumflex" unicode="&#x124;" horiz-adv-x="718" 
d="M239 746l-63 49l125 154h116l125 -154l-63 -49l-120 116zM82 0v698h130v-288h295v288h129v-698h-129v296h-295v-296h-130z" />
    <glyph glyph-name="hcircumflex" unicode="&#x125;" horiz-adv-x="587" 
d="M17 740l-63 49l125 154h116l125 -154l-63 -49l-120 116zM74 0v740h126v-305h5q37 99 146 99q80 0 123.5 -53.5t43.5 -150.5v-330h-125v317q0 113 -88 113q-43 0 -74 -22t-31 -62v-346h-126z" />
    <glyph glyph-name="Hbar" unicode="&#x126;" horiz-adv-x="727" 
d="M87 0v510h-73v97h73v91h129v-91h295v91h129v-91h73v-97h-73v-510h-129v296h-295v-296h-129zM216 410h295v100h-295v-100z" />
    <glyph glyph-name="hbar" unicode="&#x127;" horiz-adv-x="587" 
d="M74 0v596h-62v87h62v57h126v-57h143v-87h-143v-161h5q37 99 146 99q80 0 123.5 -53.5t43.5 -150.5v-330h-125v317q0 113 -88 113q-43 0 -74 -22t-31 -62v-346h-126z" />
    <glyph glyph-name="Itilde" unicode="&#x128;" horiz-adv-x="421" 
d="M286 769q-30 0 -78 22q-51 22 -75 22q-28 0 -59 -25l-46 58q41 61 108 61q30 0 78 -22q49 -23 75 -23q27 0 59 26l46 -59q-40 -60 -108 -60zM53 0v104h93v490h-93v104h315v-104h-93v-490h93v-104h-315z" />
    <glyph glyph-name="itilde" unicode="&#x129;" horiz-adv-x="274" 
d="M212 605q-30 0 -78 22q-51 22 -75 22q-28 0 -59 -25l-46 58q41 61 108 61q30 0 78 -22q49 -23 75 -23q27 0 59 26l46 -59q-40 -60 -108 -60zM74 0v522h126v-522h-126z" />
    <glyph glyph-name="Imacron" unicode="&#x12a;" horiz-adv-x="421" 
d="M62 792v92h298v-92h-298zM53 0v104h93v490h-93v104h315v-104h-93v-490h93v-104h-315z" />
    <glyph glyph-name="imacron" unicode="&#x12b;" horiz-adv-x="274" 
d="M-12 628v92h298v-92h-298zM74 0v522h126v-522h-126z" />
    <glyph glyph-name="Ibreve" unicode="&#x12c;" horiz-adv-x="421" 
d="M211 749q-40 0 -72 14t-52 39.5t-31.5 48.5t-21.5 53l69 35l19 -32q22 -36 41 -52.5t48 -16.5t48.5 16.5t40.5 52.5l20 32l68 -35q-51 -155 -177 -155zM53 0v104h93v490h-93v104h315v-104h-93v-490h93v-104h-315z" />
    <glyph glyph-name="ibreve" unicode="&#x12d;" horiz-adv-x="274" 
d="M137 585q-40 0 -72 14t-52 39.5t-31.5 48.5t-21.5 53l69 35l20 -33q21 -35 40.5 -51.5t47.5 -16.5t47.5 16.5t41.5 51.5l20 33l68 -35q-51 -155 -177 -155zM74 0v522h126v-522h-126z" />
    <glyph glyph-name="Iogonek" unicode="&#x12e;" horiz-adv-x="421" 
d="M286 -210q-50 0 -82 19.5t-32 62.5q0 38 27.5 65.5t85.5 58.5l-1 4h-231v104h93v490h-93v104h316v-104h-94v-490h94v-104q-67 -47 -88 -69.5t-21 -41.5q0 -32 36 -32q30 0 52 27l49 -47q-24 -47 -111 -47z" />
    <glyph glyph-name="iogonek" unicode="&#x12f;" horiz-adv-x="274" 
d="M137 600q-37 0 -55.5 17t-18.5 46v19q0 29 18.5 46.5t55.5 17.5t55.5 -17.5t18.5 -46.5v-19q0 -29 -18.5 -46t-55.5 -17zM117 -210q-50 0 -82 19.5t-32 62.5q0 38 28 66t85 58l-1 4h-41v522h126v-522q-67 -47 -88 -69.5t-21 -41.5q0 -32 36 -32q30 0 52 27l49 -47
q-24 -47 -111 -47z" />
    <glyph glyph-name="Idotaccent" unicode="&#x130;" horiz-adv-x="421" 
d="M211 761q-78 0 -78 65v24q0 64 78 64t78 -64v-24q0 -65 -78 -65zM53 0v104h93v490h-93v104h315v-104h-93v-490h93v-104h-315z" />
    <glyph glyph-name="dotlessi" unicode="&#x131;" horiz-adv-x="274" 
d="M74 0v522h126v-522h-126z" />
    <glyph glyph-name="IJ" unicode="&#x132;" horiz-adv-x="652" 
d="M78 303v395h129v-395h-129zM327 -11q-104 0 -165.5 50t-77.5 136l120 24q21 -97 123 -97q53 0 85.5 28t32.5 85v377h-109v106h238v-483q0 -105 -67 -165.5t-180 -60.5z" />
    <glyph glyph-name="ij" unicode="&#x133;" horiz-adv-x="543" 
d="M137 600q-37 0 -55.5 17t-18.5 46v19q0 29 18.5 46.5t55.5 17.5t55.5 -17.5t18.5 -46.5v-19q0 -29 -18.5 -46t-55.5 -17zM406 600q-74 0 -74 63v19q0 64 74 64q37 0 55 -17.5t18 -46.5v-19q0 -63 -73 -63zM74 0v522h126v-522h-126zM263 -200v100h80v622h125v-586
q0 -136 -136 -136h-69z" />
    <glyph glyph-name="Jcircumflex" unicode="&#x134;" horiz-adv-x="543" 
d="M171 746l-63 49l125 154h116l125 -154l-63 -49l-120 116zM245 -11q-93 0 -148 49t-71 134l120 25q19 -95 98 -95q41 0 66 26t25 77v387h-221v106h351v-503q0 -94 -59.5 -150t-160.5 -56z" />
    <glyph glyph-name="jcircumflex" unicode="&#x135;" horiz-adv-x="274" 
d="M17 582l-63 49l125 154h116l125 -154l-63 -49l-120 116zM-6 -200v100h80v622h126v-586q0 -136 -136 -136h-70z" />
    <glyph glyph-name="uni0136" unicode="&#x136;" horiz-adv-x="675" 
d="M82 0v698h130v-345h5l99 130l175 215h149l-243 -291l263 -407h-154l-201 317l-93 -110v-207h-130zM277 -265q45 41 59 92q-45 5 -45 55v11q0 27 16.5 42t46.5 15q31 0 47.5 -15t16.5 -42v-13q0 -41 -18.5 -80.5t-46.5 -64.5h-76z" />
    <glyph glyph-name="uni0137" unicode="&#x137;" horiz-adv-x="560" 
d="M74 0v740h126v-448h5l70 94l118 136h142l-180 -202l200 -320h-150l-136 236l-69 -76v-160h-126zM235 -265q45 41 59 92q-45 5 -45 55v11q0 27 16.5 42t46.5 15q31 0 47.5 -15t16.5 -42v-13q0 -41 -18.5 -80.5t-46.5 -64.5h-76z" />
    <glyph glyph-name="kgreenlandic" unicode="&#x138;" horiz-adv-x="560" 
d="M74 0v522h126v-229h5l73 91l124 138h143l-188 -204l198 -318h-148l-138 234l-69 -74v-160h-126z" />
    <glyph glyph-name="Lacute" unicode="&#x139;" horiz-adv-x="520" 
d="M162 745l-76 37l94 186l107 -53zM82 0v698h130v-583h276v-115h-406z" />
    <glyph glyph-name="lacute" unicode="&#x13a;" horiz-adv-x="293" 
d="M156 781l-76 37l94 186l107 -53zM201 0q-127 0 -127 124v616h126v-640h69v-100h-68z" />
    <glyph glyph-name="uni013B" unicode="&#x13b;" horiz-adv-x="520" 
d="M82 0v698h130v-583h276v-115h-406zM212 -265q45 41 59 92q-45 5 -45 55v11q0 27 16.5 42t46.5 15q31 0 47.5 -15t16.5 -42v-13q0 -41 -18.5 -80.5t-46.5 -64.5h-76z" />
    <glyph glyph-name="uni013C" unicode="&#x13c;" horiz-adv-x="293" 
d="M201 0q-127 0 -127 124v616h126v-640h69v-100h-68zM93 -265q45 41 59 92q-45 5 -45 55v11q0 27 16.5 42t46.5 15q31 0 47.5 -15t16.5 -42v-13q0 -41 -18.5 -80.5t-46.5 -64.5h-76z" />
    <glyph glyph-name="Lcaron" unicode="&#x13d;" horiz-adv-x="520" 
d="M285 536l8 205h136l-61 -205h-83zM82 0v698h130v-583h276v-115h-406z" />
    <glyph glyph-name="lcaron" unicode="&#x13e;" horiz-adv-x="331" 
d="M201 0q-127 0 -127 124v616h126v-640h69v-100h-68zM260 535l8 205h136l-62 -205h-82z" />
    <glyph glyph-name="Ldot" unicode="&#x13f;" horiz-adv-x="520" 
d="M82 0v698h130v-583h276v-115h-406zM404 311q-76 0 -76 62v23q0 62 76 62q77 0 77 -62v-23q0 -62 -77 -62z" />
    <glyph glyph-name="ldot" unicode="&#x140;" horiz-adv-x="418" 
d="M201 0q-127 0 -127 124v616h126v-640h69v-100h-68zM343 266q-76 0 -76 62v23q0 62 76 62q77 0 77 -62v-23q0 -62 -77 -62z" />
    <glyph glyph-name="Lslash" unicode="&#x141;" horiz-adv-x="529" 
d="M87 0v252l-94 -30v97l94 31v348h129v-306l166 54v-99l-166 -54v-178h276v-115h-405z" />
    <glyph glyph-name="lslash" unicode="&#x142;" horiz-adv-x="302" 
d="M206 0q-127 0 -127 124v181l-74 -24v95l74 24v340h126v-299l103 34v-95l-103 -34v-246h69v-100h-68z" />
    <glyph glyph-name="Nacute" unicode="&#x143;" horiz-adv-x="718" 
d="M371 745l-76 37l94 186l107 -53zM82 0v698h143l213 -362l72 -145h3v507h123v-698h-143l-212 362l-73 145h-3v-507h-123z" />
    <glyph glyph-name="nacute" unicode="&#x144;" horiz-adv-x="587" 
d="M308 579l-76 37l94 186l107 -53zM74 0v522h126v-87h5q37 99 146 99q80 0 123.5 -53.5t43.5 -150.5v-330h-125v317q0 113 -88 113q-43 0 -74 -22t-31 -62v-346h-126z" />
    <glyph glyph-name="uni0145" unicode="&#x145;" horiz-adv-x="718" 
d="M82 0v698h143l213 -362l72 -145h3v507h123v-698h-143l-212 362l-73 145h-3v-507h-123zM281 -265q45 41 59 92q-45 5 -45 55v11q0 27 16.5 42t46.5 15q31 0 47.5 -15t16.5 -42v-13q0 -41 -18.5 -80.5t-46.5 -64.5h-76z" />
    <glyph glyph-name="uni0146" unicode="&#x146;" horiz-adv-x="587" 
d="M74 0v522h126v-87h5q37 99 146 99q80 0 123.5 -53.5t43.5 -150.5v-330h-125v317q0 113 -88 113q-43 0 -74 -22t-31 -62v-346h-126zM216 -265q45 41 59 92q-45 5 -45 55v11q0 27 16.5 42t46.5 15q31 0 47.5 -15t16.5 -42v-13q0 -41 -18.5 -80.5t-46.5 -64.5h-76z" />
    <glyph glyph-name="Ncaron" unicode="&#x147;" horiz-adv-x="718" 
d="M301 755l-125 154l63 49l120 -116l120 116l63 -49l-125 -154h-116zM82 0v698h143l213 -362l72 -145h3v507h123v-698h-143l-212 362l-73 145h-3v-507h-123z" />
    <glyph glyph-name="ncaron" unicode="&#x148;" horiz-adv-x="587" 
d="M237 589l-125 154l63 49l120 -116l120 116l63 -49l-125 -154h-116zM74 0v522h126v-87h5q37 99 146 99q80 0 123.5 -53.5t43.5 -150.5v-330h-125v317q0 113 -88 113q-43 0 -74 -22t-31 -62v-346h-126z" />
    <glyph glyph-name="napostrophe" unicode="&#x149;" horiz-adv-x="861" 
d="M39 467q67 63 86 128q-54 10 -54 66v21q0 31 19.5 49.5t58.5 18.5t58 -18.5t19 -49.5v-18q0 -52 -29 -106.5t-74 -90.5h-84zM349 0v522h125v-87h6q37 99 146 99q79 0 123 -53.5t44 -150.5v-330h-126v317q0 113 -87 113q-44 0 -75 -22t-31 -62v-346h-125z" />
    <glyph glyph-name="Eng" unicode="&#x14a;" horiz-adv-x="718" 
d="M429 -200v101h84v99h-20l-212 362l-73 145h-3v-507h-123v698h143l213 -362l72 -145h3v507h123v-760q0 -138 -137 -138h-70z" />
    <glyph glyph-name="eng" unicode="&#x14b;" horiz-adv-x="587" 
d="M313 -200v100h80v417q0 113 -88 113q-43 0 -74 -22t-31 -62v-346h-126v522h126v-87h5q37 99 146 99q80 0 123.5 -53.5t43.5 -150.5v-395q0 -135 -135 -135h-70z" />
    <glyph glyph-name="Omacron" unicode="&#x14c;" horiz-adv-x="712" 
d="M207 792v92h298v-92h-298zM356 -12q-140 0 -221.5 93.5t-81.5 267.5t81.5 267.5t221.5 93.5t221.5 -93.5t81.5 -267.5t-81.5 -267.5t-221.5 -93.5zM356 103q76 0 121 51.5t45 140.5v108q0 89 -45 140.5t-121 51.5t-121 -51.5t-45 -140.5v-108q0 -89 45 -140.5t121 -51.5z
" />
    <glyph glyph-name="omacron" unicode="&#x14d;" horiz-adv-x="563" 
d="M132 627v92h298v-92h-298zM281 -12q-111 0 -176 74t-65 199q0 126 65 199.5t176 73.5q112 0 177 -73.5t65 -199.5q0 -125 -65 -199t-177 -74zM281 90q52 0 81.5 32t29.5 91v96q0 59 -29.5 91t-81.5 32q-51 0 -80.5 -32t-29.5 -91v-96q0 -59 29.5 -91t80.5 -32z" />
    <glyph glyph-name="Obreve" unicode="&#x14e;" horiz-adv-x="712" 
d="M356 749q-40 0 -72 14t-52 39.5t-31.5 48.5t-21.5 53l69 35l19 -32q22 -36 41 -52.5t48 -16.5t48.5 16.5t40.5 52.5l20 32l68 -35q-51 -155 -177 -155zM356 -12q-140 0 -221.5 93.5t-81.5 267.5t81.5 267.5t221.5 93.5t221.5 -93.5t81.5 -267.5t-81.5 -267.5
t-221.5 -93.5zM356 103q76 0 121 51.5t45 140.5v108q0 89 -45 140.5t-121 51.5t-121 -51.5t-45 -140.5v-108q0 -89 45 -140.5t121 -51.5z" />
    <glyph glyph-name="obreve" unicode="&#x14f;" horiz-adv-x="563" 
d="M281 584q-40 0 -72 14t-52 39.5t-31.5 48.5t-21.5 53l69 35l20 -33q21 -35 40.5 -51.5t47.5 -16.5t47.5 16.5t41.5 51.5l20 33l68 -35q-51 -155 -177 -155zM281 -12q-111 0 -176 74t-65 199q0 126 65 199.5t176 73.5q112 0 177 -73.5t65 -199.5q0 -125 -65 -199t-177 -74
zM281 90q52 0 81.5 32t29.5 91v96q0 59 -29.5 91t-81.5 32q-51 0 -80.5 -32t-29.5 -91v-96q0 -59 29.5 -91t80.5 -32z" />
    <glyph glyph-name="Ohungarumlaut" unicode="&#x150;" horiz-adv-x="712" 
d="M272 745l-70 34l94 186l100 -49zM462 745l-70 34l94 186l100 -49zM356 -12q-140 0 -221.5 93.5t-81.5 267.5t81.5 267.5t221.5 93.5t221.5 -93.5t81.5 -267.5t-81.5 -267.5t-221.5 -93.5zM356 103q76 0 121 51.5t45 140.5v108q0 89 -45 140.5t-121 51.5t-121 -51.5
t-45 -140.5v-108q0 -89 45 -140.5t121 -51.5z" />
    <glyph glyph-name="ohungarumlaut" unicode="&#x151;" horiz-adv-x="563" 
d="M197 580l-70 34l94 186l100 -49zM387 580l-70 34l94 186l100 -49zM281 -12q-111 0 -176 74t-65 199q0 126 65 199.5t176 73.5q112 0 177 -73.5t65 -199.5q0 -125 -65 -199t-177 -74zM281 90q52 0 81.5 32t29.5 91v96q0 59 -29.5 91t-81.5 32q-51 0 -80.5 -32t-29.5 -91
v-96q0 -59 29.5 -91t80.5 -32z" />
    <glyph glyph-name="OE" unicode="&#x152;" horiz-adv-x="994" 
d="M360 -12q-143 0 -225 93.5t-82 267.5t82 267.5t225 93.5q70 0 125 -12h451v-115h-331v-173h293v-114h-293v-181h331v-115h-456q-48 -12 -120 -12zM364 103q60 0 112 12v467q-57 13 -112 13q-83 0 -128.5 -50.5t-45.5 -141.5v-108q0 -91 45.5 -141.5t128.5 -50.5z" />
    <glyph glyph-name="oe" unicode="&#x153;" horiz-adv-x="911" 
d="M281 -12q-111 0 -176 74.5t-65 200.5t65 198.5t176 72.5q127 0 174 -88h6q21 41 66.5 64.5t109.5 23.5q110 0 172 -71.5t62 -191.5v-42h-349v-13q0 -58 34 -92.5t97 -34.5q80 0 134 71l68 -75q-69 -97 -213 -97q-67 0 -115 24.5t-67 63.5h-5q-21 -41 -66.5 -64.5
t-107.5 -23.5zM522 307h218v10q0 56 -27.5 89t-76.5 33q-51 0 -82.5 -34.5t-31.5 -89.5v-8zM281 90q52 0 81.5 32t29.5 91v96q0 59 -29.5 91t-81.5 32q-51 0 -80.5 -32t-29.5 -91v-96q0 -59 29.5 -91t80.5 -32z" />
    <glyph glyph-name="Racute" unicode="&#x154;" horiz-adv-x="663" 
d="M333 745l-76 37l94 186l107 -53zM82 0v698h314q94 0 149.5 -58.5t55.5 -156.5q0 -73 -33.5 -125t-97.5 -73l145 -285h-145l-131 271h-127v-271h-130zM212 380h171q39 0 61.5 20.5t22.5 58.5v47q0 38 -22.5 58.5t-61.5 20.5h-171v-205z" />
    <glyph glyph-name="racute" unicode="&#x155;" horiz-adv-x="392" 
d="M235 580l-76 37l94 186l107 -53zM74 0v522h126v-108h5q12 46 46.5 77t92.5 31h27v-119h-40q-131 0 -131 -82v-321h-126z" />
    <glyph glyph-name="uni0156" unicode="&#x156;" horiz-adv-x="663" 
d="M82 0v698h314q94 0 149.5 -58.5t55.5 -156.5q0 -73 -33.5 -125t-97.5 -73l145 -285h-145l-131 271h-127v-271h-130zM212 380h171q39 0 61.5 20.5t22.5 58.5v47q0 38 -22.5 58.5t-61.5 20.5h-171v-205zM266 -265q45 41 59 92q-45 5 -45 55v11q0 27 16.5 42t46.5 15
q31 0 47.5 -15t16.5 -42v-13q0 -41 -18.5 -80.5t-46.5 -64.5h-76z" />
    <glyph glyph-name="uni0157" unicode="&#x157;" horiz-adv-x="392" 
d="M74 0v522h126v-108h5q12 46 46.5 77t92.5 31h27v-119h-40q-131 0 -131 -82v-321h-126zM60 -265q45 41 59 92q-45 5 -45 55v11q0 27 16.5 42t46.5 15q31 0 47.5 -15t16.5 -42v-13q0 -41 -18.5 -80.5t-46.5 -64.5h-76z" />
    <glyph glyph-name="Rcaron" unicode="&#x158;" horiz-adv-x="663" 
d="M262 755l-125 154l63 49l120 -116l120 116l63 -49l-125 -154h-116zM82 0v698h314q94 0 149.5 -58.5t55.5 -156.5q0 -73 -33.5 -125t-97.5 -73l145 -285h-145l-131 271h-127v-271h-130zM212 380h171q39 0 61.5 20.5t22.5 58.5v47q0 38 -22.5 58.5t-61.5 20.5h-171v-205z
" />
    <glyph glyph-name="rcaron" unicode="&#x159;" horiz-adv-x="392" 
d="M164 590l-125 154l63 49l120 -116l120 116l63 -49l-125 -154h-116zM74 0v522h126v-108h5q12 46 46.5 77t92.5 31h27v-119h-40q-131 0 -131 -82v-321h-126z" />
    <glyph glyph-name="Sacute" unicode="&#x15a;" horiz-adv-x="610" 
d="M316 745l-76 37l94 186l107 -53zM298 -12q-160 0 -259 116l88 85q72 -87 179 -87q61 0 93 26.5t32 73.5q0 37 -22 59t-75 31l-65 10q-209 34 -209 203q0 94 68 149.5t184 55.5q152 0 238 -103l-88 -84q-58 73 -157 73q-56 0 -86 -21.5t-30 -61.5q0 -39 23 -59t76 -30
l65 -12q106 -19 156.5 -68t50.5 -135q0 -100 -69.5 -160.5t-192.5 -60.5z" />
    <glyph glyph-name="sacute" unicode="&#x15b;" horiz-adv-x="498" 
d="M260 580l-76 37l94 186l107 -53zM245 -12q-133 0 -216 96l77 74q61 -71 144 -71q88 0 88 62q0 46 -65 56l-52 7q-173 22 -173 157q0 76 54 120.5t143 44.5q72 0 117.5 -20t85.5 -62l-75 -74q-52 57 -125 57q-80 0 -80 -56q0 -27 16 -40.5t54 -19.5l52 -7
q168 -24 168 -154q0 -76 -58.5 -123t-154.5 -47z" />
    <glyph glyph-name="Scircumflex" unicode="&#x15c;" horiz-adv-x="610" 
d="M184 746l-63 49l125 154h116l125 -154l-63 -49l-120 116zM298 -12q-160 0 -259 116l88 85q72 -87 179 -87q61 0 93 26.5t32 73.5q0 37 -22 59t-75 31l-65 10q-209 34 -209 203q0 94 68 149.5t184 55.5q152 0 238 -103l-88 -84q-58 73 -157 73q-56 0 -86 -21.5t-30 -61.5
q0 -39 23 -59t76 -30l65 -12q106 -19 156.5 -68t50.5 -135q0 -100 -69.5 -160.5t-192.5 -60.5z" />
    <glyph glyph-name="scircumflex" unicode="&#x15d;" horiz-adv-x="498" 
d="M127 581l-63 49l125 154h116l125 -154l-63 -49l-120 116zM245 -12q-133 0 -216 96l77 74q61 -71 144 -71q88 0 88 62q0 46 -65 56l-52 7q-173 22 -173 157q0 76 54 120.5t143 44.5q72 0 117.5 -20t85.5 -62l-75 -74q-52 57 -125 57q-80 0 -80 -56q0 -27 16 -40.5
t54 -19.5l52 -7q168 -24 168 -154q0 -76 -58.5 -123t-154.5 -47z" />
    <glyph glyph-name="Scedilla" unicode="&#x15e;" horiz-adv-x="610" 
d="M312 -210q-81 0 -115 43l43 51q24 -29 64 -29q44 0 44 27q0 33 -72 40l-24 3l13 64q-138 11 -226 115l88 85q72 -87 179 -87q61 0 93 26.5t32 73.5q0 37 -22 59t-75 31l-65 10q-209 34 -209 203q0 94 68 149.5t184 55.5q152 0 238 -103l-88 -84q-58 73 -157 73
q-56 0 -86 -21.5t-30 -61.5q0 -39 23 -59t76 -30l65 -12q106 -19 156.5 -68t50.5 -135q0 -94 -61.5 -153.5t-171.5 -66.5l-10 -46l4 -4q26 7 45 7q32 0 51.5 -17t19.5 -51q0 -45 -35.5 -66.5t-89.5 -21.5z" />
    <glyph glyph-name="scedilla" unicode="&#x15f;" horiz-adv-x="498" 
d="M259 -210q-82 0 -116 43l43 51q24 -29 65 -29q44 0 44 27q0 33 -73 40l-23 3l13 65q-111 10 -183 94l77 74q61 -71 144 -71q88 0 88 62q0 46 -65 56l-52 7q-173 22 -173 157q0 76 54 120.5t143 44.5q72 0 117.5 -20t85.5 -62l-75 -74q-52 57 -125 57q-80 0 -80 -56
q0 -27 16 -40.5t54 -19.5l52 -7q168 -24 168 -154q0 -70 -50 -116t-135 -53l-9 -46l3 -4q26 7 45 7q32 0 52 -17t20 -51q0 -45 -35.5 -66.5t-89.5 -21.5z" />
    <glyph glyph-name="Scaron" unicode="&#x160;" horiz-adv-x="610" 
d="M246 755l-125 154l63 49l120 -116l120 116l63 -49l-125 -154h-116zM298 -12q-160 0 -259 116l88 85q72 -87 179 -87q61 0 93 26.5t32 73.5q0 37 -22 59t-75 31l-65 10q-209 34 -209 203q0 94 68 149.5t184 55.5q152 0 238 -103l-88 -84q-58 73 -157 73q-56 0 -86 -21.5
t-30 -61.5q0 -39 23 -59t76 -30l65 -12q106 -19 156.5 -68t50.5 -135q0 -100 -69.5 -160.5t-192.5 -60.5z" />
    <glyph glyph-name="scaron" unicode="&#x161;" horiz-adv-x="498" 
d="M189 590l-125 154l63 49l120 -116l120 116l63 -49l-125 -154h-116zM245 -12q-133 0 -216 96l77 74q61 -71 144 -71q88 0 88 62q0 46 -65 56l-52 7q-173 22 -173 157q0 76 54 120.5t143 44.5q72 0 117.5 -20t85.5 -62l-75 -74q-52 57 -125 57q-80 0 -80 -56
q0 -27 16 -40.5t54 -19.5l52 -7q168 -24 168 -154q0 -76 -58.5 -123t-154.5 -47z" />
    <glyph glyph-name="uni0162" unicode="&#x162;" horiz-adv-x="580" 
d="M225 0v583h-200v115h530v-115h-200v-583h-130zM212 -265q45 41 59 92q-45 5 -45 55v11q0 27 16.5 42t46.5 15q31 0 47.5 -15t16.5 -42v-13q0 -41 -18.5 -80.5t-46.5 -64.5h-76z" />
    <glyph glyph-name="uni0163" unicode="&#x163;" horiz-adv-x="372" 
d="M235 0q-64 0 -98 33.5t-34 96.5v292h-78v100h41q28 0 38.5 12.5t10.5 40.5v89h113v-142h107v-100h-107v-322h99v-100h-92zM146 -265q45 41 59 92q-45 5 -45 55v11q0 27 16.5 42t46.5 15q31 0 47.5 -15t16.5 -42v-13q0 -41 -18.5 -80.5t-46.5 -64.5h-76z" />
    <glyph glyph-name="Tcaron" unicode="&#x164;" horiz-adv-x="580" 
d="M232 755l-125 154l63 49l120 -116l120 116l63 -49l-125 -154h-116zM225 0v583h-200v115h530v-115h-200v-583h-130z" />
    <glyph glyph-name="tcaron" unicode="&#x165;" horiz-adv-x="376" 
d="M293 573l8 205h136l-62 -205h-82zM235 0q-64 0 -98 33.5t-34 96.5v292h-78v100h41q28 0 38.5 12.5t10.5 40.5v89h113v-142h107v-100h-107v-322h99v-100h-92z" />
    <glyph glyph-name="Tbar" unicode="&#x166;" horiz-adv-x="590" 
d="M230 0v295h-147v98h147v190h-200v115h530v-115h-200v-190h147v-98h-147v-295h-130z" />
    <glyph glyph-name="tbar" unicode="&#x167;" horiz-adv-x="380" 
d="M239 0q-65 0 -99 33.5t-34 96.5v100h-64v87h64v105h-77v100h40q28 0 39 12.5t11 40.5v89h113v-142h107v-100h-107v-105h87v-87h-87v-130h99v-100h-92z" />
    <glyph glyph-name="Utilde" unicode="&#x168;" horiz-adv-x="689" 
d="M419 769q-30 0 -78 22q-51 22 -75 22q-28 0 -59 -25l-46 58q41 61 108 61q30 0 78 -22q49 -23 75 -23q27 0 59 26l46 -59q-40 -60 -108 -60zM343 -12q-144 0 -204.5 70.5t-60.5 227.5v412h127v-429q0 -85 32.5 -125.5t106.5 -40.5q75 0 107.5 40.5t32.5 125.5v429h127
v-412q0 -156 -61.5 -227t-206.5 -71z" />
    <glyph glyph-name="utilde" unicode="&#x169;" horiz-adv-x="586" 
d="M365 605q-30 0 -78 22q-51 22 -75 22q-28 0 -59 -25l-46 58q41 61 108 61q30 0 78 -22q49 -23 75 -23q27 0 59 26l46 -59q-40 -60 -108 -60zM235 -12q-80 0 -123.5 53.5t-43.5 150.5v330h125v-317q0 -113 90 -113q42 0 72.5 22t30.5 62v346h126v-522h-126v87h-4
q-36 -99 -147 -99z" />
    <glyph glyph-name="Umacron" unicode="&#x16a;" horiz-adv-x="689" 
d="M195 792v92h298v-92h-298zM343 -12q-144 0 -204.5 70.5t-60.5 227.5v412h127v-429q0 -85 32.5 -125.5t106.5 -40.5q75 0 107.5 40.5t32.5 125.5v429h127v-412q0 -156 -61.5 -227t-206.5 -71z" />
    <glyph glyph-name="umacron" unicode="&#x16b;" horiz-adv-x="586" 
d="M141 628v92h298v-92h-298zM235 -12q-80 0 -123.5 53.5t-43.5 150.5v330h125v-317q0 -113 90 -113q42 0 72.5 22t30.5 62v346h126v-522h-126v87h-4q-36 -99 -147 -99z" />
    <glyph glyph-name="Ubreve" unicode="&#x16c;" horiz-adv-x="689" 
d="M344 749q-40 0 -72 14t-52 39.5t-31.5 48.5t-21.5 53l69 35l19 -32q22 -36 41 -52.5t48 -16.5t48.5 16.5t40.5 52.5l20 32l68 -35q-51 -155 -177 -155zM343 -12q-144 0 -204.5 70.5t-60.5 227.5v412h127v-429q0 -85 32.5 -125.5t106.5 -40.5q75 0 107.5 40.5t32.5 125.5
v429h127v-412q0 -156 -61.5 -227t-206.5 -71z" />
    <glyph glyph-name="ubreve" unicode="&#x16d;" horiz-adv-x="586" 
d="M290 585q-40 0 -72 14t-52 39.5t-31.5 48.5t-21.5 53l69 35l20 -33q21 -35 40.5 -51.5t47.5 -16.5t47.5 16.5t41.5 51.5l20 33l68 -35q-51 -155 -177 -155zM235 -12q-80 0 -123.5 53.5t-43.5 150.5v330h125v-317q0 -113 90 -113q42 0 72.5 22t30.5 62v346h126v-522h-126
v87h-4q-36 -99 -147 -99z" />
    <glyph glyph-name="Uring" unicode="&#x16e;" horiz-adv-x="689" 
d="M344 728q-58 0 -97.5 38t-39.5 96q0 57 39.5 95t97.5 38t97.5 -38t39.5 -95q0 -58 -39.5 -96t-97.5 -38zM344 794q25 0 39 14t14 39v30q0 24 -14 38t-39 14t-39 -14t-14 -38v-30q0 -25 14 -39t39 -14zM343 -12q-144 0 -204.5 70.5t-60.5 227.5v412h127v-429
q0 -85 32.5 -125.5t106.5 -40.5q75 0 107.5 40.5t32.5 125.5v429h127v-412q0 -156 -61.5 -227t-206.5 -71z" />
    <glyph glyph-name="uring" unicode="&#x16f;" horiz-adv-x="586" 
d="M290 564q-58 0 -97.5 38t-39.5 96q0 57 39.5 95t97.5 38t97.5 -38t39.5 -95q0 -58 -39.5 -96t-97.5 -38zM290 630q25 0 39 14t14 39v30q0 52 -53 52t-53 -52v-30q0 -25 14 -39t39 -14zM235 -12q-80 0 -123.5 53.5t-43.5 150.5v330h125v-317q0 -113 90 -113q42 0 72.5 22
t30.5 62v346h126v-522h-126v87h-4q-36 -99 -147 -99z" />
    <glyph glyph-name="Uhungarumlaut" unicode="&#x170;" horiz-adv-x="689" 
d="M260 745l-70 34l94 186l100 -49zM450 745l-70 34l94 186l100 -49zM343 -12q-144 0 -204.5 70.5t-60.5 227.5v412h127v-429q0 -85 32.5 -125.5t106.5 -40.5q75 0 107.5 40.5t32.5 125.5v429h127v-412q0 -156 -61.5 -227t-206.5 -71z" />
    <glyph glyph-name="uhungarumlaut" unicode="&#x171;" horiz-adv-x="586" 
d="M206 581l-70 34l94 186l100 -49zM396 581l-70 34l94 186l100 -49zM235 -12q-80 0 -123.5 53.5t-43.5 150.5v330h125v-317q0 -113 90 -113q42 0 72.5 22t30.5 62v346h126v-522h-126v87h-4q-36 -99 -147 -99z" />
    <glyph glyph-name="Uogonek" unicode="&#x172;" horiz-adv-x="689" 
d="M421 -210q-50 0 -82 19.5t-32 60.5q0 38 28 63.5t90 57.5l-3 5q-32 -8 -79 -8q-144 0 -204.5 70.5t-60.5 227.5v412h127v-429q0 -85 32.5 -125.5t106.5 -40.5q75 0 107.5 40.5t32.5 125.5v429h127v-412q0 -106 -25.5 -172t-94.5 -122q-11 -9 -29 -23.5t-27.5 -22.5
t-20.5 -18.5t-15.5 -20t-4.5 -19.5q0 -31 36 -31q30 0 52 27l49 -47q-26 -47 -110 -47z" />
    <glyph glyph-name="uogonek" unicode="&#x173;" horiz-adv-x="587" 
d="M430 -210q-50 0 -82 19.5t-32 62.5q0 38 28.5 66.5t84.5 57.5l-1 4h-41v87h-5q-34 -99 -146 -99q-80 0 -123.5 53t-43.5 151v330h125v-317q0 -113 89 -113q42 0 73 22t31 62v346h125v-522q-66 -46 -87 -69t-21 -42q0 -32 35 -32q31 0 53 27l49 -47q-26 -47 -111 -47z" />
    <glyph glyph-name="Wcircumflex" unicode="&#x174;" horiz-adv-x="946" 
d="M353 746l-63 49l125 154h116l125 -154l-63 -49l-120 116zM188 0l-162 698h130l69 -335l44 -217h2l51 217l81 335h143l80 -335l50 -216h3l45 216l71 335h125l-168 -698h-146l-89 368l-44 187h-3l-45 -187l-90 -368h-147z" />
    <glyph glyph-name="wcircumflex" unicode="&#x175;" horiz-adv-x="817" 
d="M289 582l-63 49l125 154h116l125 -154l-63 -49l-120 116zM167 0l-144 522h121l53 -216l42 -182h3l49 182l62 216h114l63 -216l50 -182h3l42 182l52 216h117l-143 -522h-136l-67 231l-39 143h-3l-39 -143l-66 -231h-134z" />
    <glyph glyph-name="Ycircumflex" unicode="&#x176;" horiz-adv-x="630" 
d="M196 746l-63 49l125 154h116l125 -154l-63 -49l-120 116zM250 0v274l-240 424h146l162 -297h2l158 297h142l-240 -422v-276h-130z" />
    <glyph glyph-name="ycircumflex" unicode="&#x177;" horiz-adv-x="522" 
d="M143 582l-63 49l125 154h116l125 -154l-63 -49l-120 116zM79 -200v100h93l25 75l-187 547h124l93 -280l33 -130h6l35 130l93 280h119l-212 -616q-20 -58 -52.5 -82t-94.5 -24h-75z" />
    <glyph glyph-name="Ydieresis" unicode="&#x178;" horiz-adv-x="630" 
d="M212 770q-70 0 -70 58v20q0 58 70 58t70 -58v-20q0 -58 -70 -58zM420 770q-70 0 -70 58v20q0 58 70 58t70 -58v-20q0 -58 -70 -58zM250 0v274l-240 424h146l162 -297h2l158 297h142l-240 -422v-276h-130z" />
    <glyph glyph-name="Zacute" unicode="&#x179;" horiz-adv-x="598" 
d="M314 745l-76 37l94 186l107 -53zM38 0v115l364 468h-346v115h494v-115l-365 -468h375v-115h-522z" />
    <glyph glyph-name="zacute" unicode="&#x17a;" horiz-adv-x="500" 
d="M263 581l-76 37l94 186l107 -53zM37 0v100l272 322h-263v100h410v-97l-275 -325h282v-100h-426z" />
    <glyph glyph-name="Zdotaccent" unicode="&#x17b;" horiz-adv-x="598" 
d="M302 761q-78 0 -78 65v24q0 64 78 64t78 -64v-24q0 -65 -78 -65zM38 0v115l364 468h-346v115h494v-115l-365 -468h375v-115h-522z" />
    <glyph glyph-name="zdotaccent" unicode="&#x17c;" horiz-adv-x="500" 
d="M250 599q-76 0 -76 62v23q0 62 76 62t76 -62v-23q0 -62 -76 -62zM37 0v100l272 322h-263v100h410v-97l-275 -325h282v-100h-426z" />
    <glyph glyph-name="Zcaron" unicode="&#x17d;" horiz-adv-x="598" 
d="M244 755l-125 154l63 49l120 -116l120 116l63 -49l-125 -154h-116zM38 0v115l364 468h-346v115h494v-115l-365 -468h375v-115h-522z" />
    <glyph glyph-name="zcaron" unicode="&#x17e;" horiz-adv-x="500" 
d="M192 591l-125 154l63 49l120 -116l120 116l63 -49l-125 -154h-116zM37 0v100l272 322h-263v100h410v-97l-275 -325h282v-100h-426z" />
    <glyph glyph-name="uni018F" unicode="&#x18f;" horiz-adv-x="712" 
d="M356 -12q-142 0 -222.5 93t-80.5 268v41h469v12q0 91 -44 142t-120 51q-125 0 -164 -120l-115 44q30 85 101 138t178 53q141 0 221 -94.5t80 -266.5t-81 -266.5t-222 -94.5zM356 103q70 0 115.5 46.5t49.5 126.5l1 7h-332v-7q5 -80 50 -126.5t116 -46.5z" />
    <glyph glyph-name="florin" unicode="&#x192;" horiz-adv-x="484" 
d="M2 -134l11 100h125l31 302h-119l11 104h118l19 185q6 64 46.5 102.5t110.5 38.5h113l-10 -100h-131l-23 -226h140l-9 -104h-141l-27 -262q-6 -64 -46 -102t-111 -38h-108z" />
    <glyph glyph-name="Ohorn" unicode="&#x1a0;" horiz-adv-x="712" 
d="M356 -12q-140 0 -221.5 93.5t-81.5 267.5t81.5 267.5t221.5 93.5q50 0 92 -12h121v108h106v-96q0 -44 -18 -66t-65 -22h-21q88 -95 88 -273q0 -174 -81.5 -267.5t-221.5 -93.5zM356 103q76 0 121 51.5t45 140.5v108q0 89 -45 140.5t-121 51.5t-121 -51.5t-45 -140.5v-108
q0 -89 45 -140.5t121 -51.5z" />
    <glyph glyph-name="ohorn" unicode="&#x1a1;" horiz-adv-x="563" 
d="M281 -12q-111 0 -176 74.5t-65 200.5t65 198.5t176 72.5q45 0 82 -12h71v108h106v-95q0 -40 -14 -61t-48 -25l-11 -1q56 -71 56 -185q0 -126 -65.5 -200.5t-176.5 -74.5zM281 90q52 0 81.5 32t29.5 91v96q0 59 -29.5 91t-81.5 32q-51 0 -80.5 -32t-29.5 -91v-96
q0 -59 29.5 -91t80.5 -32z" />
    <glyph glyph-name="Uhorn" unicode="&#x1af;" horiz-adv-x="689" 
d="M343 -12q-144 0 -204.5 70.5t-60.5 227.5v412h127v-429q0 -85 32.5 -125.5t106.5 -40.5q75 0 107.5 40.5t32.5 125.5v429h82v108h106v-97q0 -70 -53 -82l-8 -1v-340q0 -156 -61.5 -227t-206.5 -71z" />
    <glyph glyph-name="uhorn" unicode="&#x1b0;" horiz-adv-x="587" 
d="M236 -12q-80 0 -123.5 53t-43.5 151v330h125v-317q0 -113 89 -113q42 0 73 22t31 62v346h89v108h106v-97q0 -77 -60 -85l-10 -1v-447h-125v87h-5q-34 -99 -146 -99z" />
    <glyph glyph-name="uni01B3" unicode="&#x1b3;" horiz-adv-x="630" 
d="M347 735l-65 31l47 96h-121v91h132q88 0 88 -67q0 -52 -54 -119zM250 0v274l-240 424h146l162 -297h2l158 297h142l-240 -422v-276h-130z" />
    <glyph glyph-name="uni01B4" unicode="&#x1b4;" horiz-adv-x="522" 
d="M294 577l-65 31l47 96h-121v91h132q88 0 88 -67q0 -52 -54 -119zM79 -200v100h93l25 75l-187 547h124l93 -280l33 -130h6l35 130l93 280h119l-212 -616q-20 -58 -52.5 -82t-94.5 -24h-75z" />
    <glyph glyph-name="Aringacute" unicode="&#x1fa;" horiz-adv-x="670" 
d="M335 980l-51 44l110 116l73 -63zM335 729q-60 0 -100 32.5t-40 85.5t40 85.5t100 32.5t100 -32.5t40 -85.5t-40 -85.5t-100 -32.5zM335 792q56 0 56 48v14q0 48 -56 48t-56 -48v-14q0 -48 56 -48zM21 0l235 698h161l232 -698h-134l-57 179h-249l-57 -179h-131zM239 290
h187l-91 290h-5z" />
    <glyph glyph-name="aringacute" unicode="&#x1fb;" horiz-adv-x="557" 
d="M263 818l-51 44l110 116l73 -63zM263 567q-61 0 -100.5 32t-39.5 86t39.5 86t100.5 32q60 0 100 -32.5t40 -85.5t-40 -85.5t-100 -32.5zM263 630q56 0 56 48v14q0 48 -56 48t-56 -48v-14q0 -48 56 -48zM204 -12q-79 0 -123 41.5t-44 112.5q0 79 58 119.5t166 40.5h89v39
q0 93 -99 93q-74 0 -119 -67l-74 67q63 100 202 100q105 0 160 -48t55 -138v-248h53v-100h-70q-38 0 -62 21.5t-32 57.5l-2 10h-6q-13 -49 -53 -75t-99 -26zM245 79q46 0 75.5 20.5t29.5 56.5v70h-83q-102 0 -102 -66v-17q0 -64 80 -64z" />
    <glyph glyph-name="AEacute" unicode="&#x1fc;" horiz-adv-x="948" 
d="M532 745l-76 37l94 186l107 -53zM1 0l346 698h543v-115h-331v-173h293v-114h-293v-181h331v-115h-459v179h-214l-86 -179h-130zM269 290h162v293h-20z" />
    <glyph glyph-name="aeacute" unicode="&#x1fd;" horiz-adv-x="864" 
d="M439 587l-76 37l94 186l107 -53zM204 -12q-78 0 -122.5 42.5t-44.5 112.5q0 80 60 122t164 42h89v34q0 93 -98 93q-75 0 -120 -67l-74 67q63 100 202 100q107 0 153 -88h6q20 38 66.5 63t107.5 25q114 0 172.5 -74t58.5 -189v-42h-349v-13q0 -57 35 -91.5t96 -34.5
q82 0 134 70l68 -75q-32 -45 -87.5 -71t-124.5 -26q-73 0 -127 31.5t-72 75.5h-6q-15 -44 -62.5 -75.5t-124.5 -31.5zM476 307h218v10q0 56 -27.5 89t-77.5 33q-51 0 -82 -34.5t-31 -89.5v-8zM246 79q45 0 74.5 20.5t29.5 56.5v73h-83q-102 -2 -102 -66v-16q0 -68 81 -68z
" />
    <glyph glyph-name="Oslashacute" unicode="&#x1fe;" horiz-adv-x="712" 
d="M368 745l-76 37l94 186l107 -53zM143 -52l-80 51l63 93q-73 93 -73 257q0 174 81.5 267.5t221.5 93.5q89 0 158 -40l55 80l80 -51l-63 -93q73 -93 73 -257q0 -174 -81.5 -267.5t-221.5 -93.5q-89 0 -158 40zM204 194l249 380q-38 28 -97 28q-79 0 -125 -52.5t-46 -144.5
v-112q0 -55 19 -99zM356 96q79 0 125 52.5t46 144.5v112q0 55 -19 99l-249 -380q38 -28 97 -28z" />
    <glyph glyph-name="oslashacute" unicode="&#x1ff;" horiz-adv-x="571" 
d="M298 580l-76 37l94 186l107 -53zM89 -47l-68 52l67 83q-44 68 -44 173q0 126 65 199.5t176 73.5q77 0 136 -39l60 74l69 -52l-68 -84q45 -68 45 -172q0 -126 -65 -199.5t-177 -73.5q-76 0 -135 38zM177 189l183 223q-29 26 -75 26q-52 0 -82.5 -35t-30.5 -97v-42
q0 -45 5 -75zM285 84q53 0 83.5 35t30.5 97v50q0 34 -5 67l-184 -223q29 -26 75 -26z" />
    <glyph glyph-name="uni0218" unicode="&#x218;" horiz-adv-x="610" 
d="M298 -12q-160 0 -259 116l88 85q72 -87 179 -87q61 0 93 26.5t32 73.5q0 37 -22 59t-75 31l-65 10q-209 34 -209 203q0 94 68 149.5t184 55.5q152 0 238 -103l-88 -84q-58 73 -157 73q-56 0 -86 -21.5t-30 -61.5q0 -39 23 -59t76 -30l65 -12q106 -19 156.5 -68t50.5 -135
q0 -100 -69.5 -160.5t-192.5 -60.5zM226 -265q45 41 59 92q-45 5 -45 55v11q0 27 16.5 42t46.5 15q31 0 47.5 -15t16.5 -42v-13q0 -41 -18.5 -80.5t-46.5 -64.5h-76z" />
    <glyph glyph-name="uni0219" unicode="&#x219;" horiz-adv-x="498" 
d="M245 -12q-133 0 -216 96l77 74q61 -71 144 -71q88 0 88 62q0 46 -65 56l-52 7q-173 22 -173 157q0 76 54 120.5t143 44.5q72 0 117.5 -20t85.5 -62l-75 -74q-52 57 -125 57q-80 0 -80 -56q0 -27 16 -40.5t54 -19.5l52 -7q168 -24 168 -154q0 -76 -58.5 -123t-154.5 -47z
M168 -265q45 41 59 92q-45 5 -45 55v11q0 27 16.5 42t46.5 15q31 0 47.5 -15t16.5 -42v-13q0 -41 -18.5 -80.5t-46.5 -64.5h-76z" />
    <glyph glyph-name="uni021A" unicode="&#x21a;" horiz-adv-x="580" 
d="M225 0v583h-200v115h530v-115h-200v-583h-130zM212 -265q45 41 59 92q-45 5 -45 55v11q0 27 16.5 42t46.5 15q31 0 47.5 -15t16.5 -42v-13q0 -41 -18.5 -80.5t-46.5 -64.5h-76z" />
    <glyph glyph-name="uni021B" unicode="&#x21b;" horiz-adv-x="372" 
d="M235 0q-64 0 -98 33.5t-34 96.5v292h-78v100h41q28 0 38.5 12.5t10.5 40.5v89h113v-142h107v-100h-107v-322h99v-100h-92zM146 -265q45 41 59 92q-45 5 -45 55v11q0 27 16.5 42t46.5 15q31 0 47.5 -15t16.5 -42v-13q0 -41 -18.5 -80.5t-46.5 -64.5h-76z" />
    <glyph glyph-name="uni0237" unicode="&#x237;" horiz-adv-x="274" 
d="M-6 -200v100h80v622h126v-586q0 -136 -136 -136h-70z" />
    <glyph glyph-name="uni0259" unicode="&#x259;" horiz-adv-x="558" 
d="M277 -12q-116 0 -176.5 74t-60.5 189v42h348v13q0 59 -32 93t-93 34q-81 0 -131 -71l-69 75q71 97 213 97q113 0 177.5 -74t64.5 -199q0 -126 -64 -199.5t-177 -73.5zM275 83q51 0 82 34.5t31 89.5v8h-218v-10q0 -56 27.5 -89t77.5 -33z" />
    <glyph glyph-name="uni02BB" unicode="&#x2bb;" horiz-adv-x="600" 
d="M301 582q-30 0 -47 15t-17 42v13q0 41 18.5 80.5t46.5 64.5h76q-45 -40 -58 -92q45 -4 45 -55v-11q0 -27 -17 -42t-47 -15z" />
    <glyph glyph-name="uni02BC" unicode="&#x2bc;" horiz-adv-x="600" 
d="M191 535l8 205h136l-61 -205h-83z" />
    <glyph glyph-name="circumflex" unicode="&#x2c6;" horiz-adv-x="600" 
d="M180 582l-63 49l125 154h116l125 -154l-63 -49l-120 116z" />
    <glyph glyph-name="caron" unicode="&#x2c7;" horiz-adv-x="600" 
d="M242 591l-125 154l63 49l120 -116l120 116l63 -49l-125 -154h-116z" />
    <glyph glyph-name="breve" unicode="&#x2d8;" horiz-adv-x="600" 
d="M300 585q-40 0 -72 14t-52 39.5t-31.5 48.5t-21.5 53l69 35l20 -33q21 -35 40.5 -51.5t47.5 -16.5t47.5 16.5t41.5 51.5l20 33l68 -35q-51 -155 -177 -155z" />
    <glyph glyph-name="dotaccent" unicode="&#x2d9;" horiz-adv-x="600" 
d="M300 599q-76 0 -76 62v23q0 62 76 62t76 -62v-23q0 -62 -76 -62z" />
    <glyph glyph-name="ring" unicode="&#x2da;" horiz-adv-x="600" 
d="M300 564q-58 0 -97.5 38t-39.5 96q0 57 39.5 95t97.5 38t97.5 -38t39.5 -95q0 -58 -39.5 -96t-97.5 -38zM300 630q25 0 39 14t14 39v30q0 52 -53 52t-53 -52v-30q0 -25 14 -39t39 -14z" />
    <glyph glyph-name="ogonek" unicode="&#x2db;" horiz-adv-x="600" 
d="M227 -210q-50 0 -82 19.5t-32 62.5q0 39 28 67t86 60l-7 23h80l9 -22q-66 -47 -87 -69.5t-21 -41.5q0 -32 35 -32q31 0 53 27l49 -47q-26 -47 -111 -47z" />
    <glyph glyph-name="tilde" unicode="&#x2dc;" horiz-adv-x="600" 
d="M375 605q-30 0 -78 22q-51 22 -75 22q-28 0 -59 -25l-46 58q41 61 108 61q30 0 78 -22q49 -23 75 -23q27 0 59 26l46 -59q-40 -60 -108 -60z" />
    <glyph glyph-name="hungarumlaut" unicode="&#x2dd;" horiz-adv-x="600" 
d="M216 581l-70 34l94 186l100 -49zM406 581l-70 34l94 186l100 -49z" />
    <glyph glyph-name="gravecomb" unicode="&#x300;" 
d="M-13 581l-125 170l107 53l94 -186z" />
    <glyph glyph-name="acutecomb" unicode="&#x301;" 
d="M13 581l-76 37l94 186l107 -53z" />
    <glyph glyph-name="uni0302" unicode="&#x302;" 
d="M-120 582l-63 49l125 154h116l125 -154l-63 -49l-120 116z" />
    <glyph glyph-name="tildecomb" unicode="&#x303;" 
d="M75 605q-30 0 -78 22q-51 22 -75 22q-28 0 -59 -25l-46 58q41 61 108 61q30 0 78 -22q49 -23 75 -23q27 0 59 26l46 -59q-40 -60 -108 -60z" />
    <glyph glyph-name="uni0304" unicode="&#x304;" 
d="M-149 628v92h298v-92h-298z" />
    <glyph glyph-name="uni0306" unicode="&#x306;" 
d="M0 585q-40 0 -72 14t-52 39.5t-31.5 48.5t-21.5 53l69 35l20 -33q21 -35 40.5 -51.5t47.5 -16.5t47.5 16.5t41.5 51.5l20 33l68 -35q-51 -155 -177 -155z" />
    <glyph glyph-name="uni0307" unicode="&#x307;" 
d="M0 599q-76 0 -76 62v23q0 62 76 62t76 -62v-23q0 -62 -76 -62z" />
    <glyph glyph-name="uni0308" unicode="&#x308;" 
d="M-104 606q-70 0 -70 57v21q0 57 70 57q69 0 69 -57v-21q0 -57 -69 -57zM104 606q-69 0 -69 57v21q0 57 69 57q70 0 70 -57v-21q0 -57 -70 -57z" />
    <glyph glyph-name="hookabovecomb" unicode="&#x309;" 
d="M31 572l-65 31l47 96h-121v91h132q88 0 88 -67q0 -51 -54 -119z" />
    <glyph glyph-name="uni030A" unicode="&#x30a;" 
d="M0 564q-58 0 -97.5 38t-39.5 96q0 57 39.5 95t97.5 38t97.5 -38t39.5 -95q0 -58 -39.5 -96t-97.5 -38zM0 630q25 0 39 14t14 39v30q0 52 -53 52t-53 -52v-30q0 -25 14 -39t39 -14z" />
    <glyph glyph-name="uni030B" unicode="&#x30b;" 
d="M-84 581l-70 34l94 186l100 -49zM106 581l-70 34l94 186l100 -49z" />
    <glyph glyph-name="uni030C" unicode="&#x30c;" 
d="M-58 591l-125 154l63 49l120 -116l120 116l63 -49l-125 -154h-116z" />
    <glyph glyph-name="uni0312" unicode="&#x312;" 
d="M1 582q-30 0 -47 15t-17 42v13q0 41 18.5 80.5t46.5 64.5h76q-45 -40 -58 -92q45 -4 45 -55v-11q0 -27 -17 -42t-47 -15z" />
    <glyph glyph-name="uni0315" unicode="&#x315;" 
d="M0 535l8 205h136l-62 -205h-82z" />
    <glyph glyph-name="uni031B" unicode="&#x31b;" 
d="M-109 445v77h112v108h106v-97q0 -45 -19 -66.5t-69 -21.5h-130z" />
    <glyph glyph-name="dotbelowcomb" unicode="&#x323;" 
d="M0 -192q-71 0 -71 57v21q0 57 71 57t71 -57v-21q0 -57 -71 -57z" />
    <glyph glyph-name="uni0326" unicode="&#x326;" 
d="M-78 -265q45 41 59 92q-45 5 -45 55v11q0 27 16.5 42t46.5 15q31 0 47.5 -15t16.5 -42v-13q0 -41 -18.5 -80.5t-46.5 -64.5h-76z" />
    <glyph glyph-name="uni0327" unicode="&#x327;" 
d="M13 -210q-81 0 -115 43l43 51q24 -29 64 -29q44 0 44 27q0 33 -72 40l-24 3l21 102h62l-18 -84l4 -4q26 7 45 7q32 0 51.5 -17t19.5 -51q0 -45 -35.5 -66.5t-89.5 -21.5z" />
    <glyph glyph-name="uni0328" unicode="&#x328;" 
d="M-82 -210q-115 0 -115 82q0 38 28 66.5t87 60.5l-7 23h80l9 -22q-67 -47 -88 -69.5t-21 -41.5q0 -32 36 -32q29 0 53 27l48 -47q-24 -47 -110 -47z" />
    <glyph glyph-name="uni037E" unicode="&#x37e;" horiz-adv-x="317" 
d="M158 368q-39 0 -59 20t-20 53v17q0 33 20 53t59 20t59 -20t20 -53v-17q0 -33 -20 -53t-59 -20zM47 -142q71 68 90 133q-57 10 -57 70v18q0 33 20 53t59 20t59 -20t20 -53v-18q0 -54 -28 -110.5t-74 -92.5h-89z" />
    <glyph glyph-name="tonos" unicode="&#x384;" horiz-adv-x="600" 
d="M347 581l-83 12l33 211l116 -17z" />
    <glyph glyph-name="dieresistonos" unicode="&#x385;" horiz-adv-x="600" 
d="M327 581l-58 10l33 213l91 -15zM183 609q-58 0 -58 54v20q0 55 58 55t58 -54v-20q0 -55 -58 -55zM457 609q-58 0 -58 54v20q0 55 58 55t58 -54v-20q0 -55 -58 -55z" />
    <glyph glyph-name="Alphatonos" unicode="&#x386;" horiz-adv-x="670" 
d="M121 581l-83 12l33 211l116 -17zM21 0l235 698h161l232 -698h-134l-57 179h-249l-57 -179h-131zM239 290h187l-91 290h-5z" />
    <glyph glyph-name="anoteleia" unicode="&#x387;" horiz-adv-x="317" 
d="M159 368q-39 0 -59 20t-20 53v17q0 33 20 53t59 20t59 -20t20 -53v-17q0 -33 -20 -53t-59 -20z" />
    <glyph glyph-name="Epsilontonos" unicode="&#x388;" horiz-adv-x="672" 
d="M63 581l-82 12l33 211l115 -17zM155 0v698h459v-115h-330v-173h292v-114h-292v-181h330v-115h-459z" />
    <glyph glyph-name="Etatonos" unicode="&#x389;" horiz-adv-x="791" 
d="M63 581l-82 12l33 211l115 -17zM155 0v698h129v-288h295v288h130v-698h-130v296h-295v-296h-129z" />
    <glyph glyph-name="Iotatonos" unicode="&#x38a;" horiz-adv-x="523" 
d="M85 581l-82 12l33 211l115 -17zM155 0v104h93v490h-93v104h315v-104h-93v-490h93v-104h-315z" />
    <glyph glyph-name="Omicrontonos" unicode="&#x38c;" horiz-adv-x="741" 
d="M63 581l-83 12l33 211l116 -17zM385 -12q-140 0 -221.5 93.5t-81.5 267.5t81.5 267.5t221.5 93.5q141 0 222.5 -93.5t81.5 -267.5t-81.5 -267.5t-222.5 -93.5zM385 103q76 0 121 51.5t45 140.5v108q0 89 -45 140.5t-121 51.5t-121 -51.5t-45 -140.5v-108q0 -89 45 -140.5
t121 -51.5z" />
    <glyph glyph-name="Upsilontonos" unicode="&#x38e;" horiz-adv-x="754" 
d="M63 581l-82 12l33 211l115 -17zM374 0v274l-240 424h146l162 -297h2l158 297h142l-240 -422v-276h-130z" />
    <glyph glyph-name="Omegatonos" unicode="&#x38f;" horiz-adv-x="750" 
d="M64 581l-82 12l33 211l115 -17zM81 0v114h159v10q-154 75 -154 269q0 134 80.5 225.5t222.5 91.5q143 0 223.5 -91.5t80.5 -225.5q0 -195 -155 -269v-10h159v-114h-256v174q48 15 81.5 65t33.5 108v84q0 65 -46 114.5t-121 49.5t-120.5 -49.5t-45.5 -114.5v-84
q0 -58 33.5 -108t80.5 -65v-174h-256z" />
    <glyph glyph-name="iotadieresistonos" unicode="&#x390;" horiz-adv-x="318" 
d="M156 581l-58 10l33 213l91 -15zM12 609q-58 0 -58 54v20q0 55 58 55t58 -54v-20q0 -55 -58 -55zM286 609q-58 0 -58 54v20q0 55 58 55t58 -54v-20q0 -55 -58 -55zM207 0q-65 0 -99 33.5t-34 96.5v392h126v-422h99v-100h-92z" />
    <glyph glyph-name="Alpha" unicode="&#x391;" horiz-adv-x="670" 
d="M21 0l235 698h161l232 -698h-134l-57 179h-249l-57 -179h-131zM239 290h187l-91 290h-5z" />
    <glyph glyph-name="Beta" unicode="&#x392;" horiz-adv-x="662" 
d="M82 0v698h322q86 0 135.5 -48.5t49.5 -130.5q0 -74 -35.5 -110t-89.5 -40v-6q56 -1 103.5 -41.5t47.5 -121.5q0 -84 -51.5 -142t-128.5 -58h-353zM212 407h165q36 0 57 19.5t21 55.5v31q0 35 -21 55t-57 20h-165v-181zM212 110h185q39 0 60.5 20.5t21.5 57.5v34
q0 37 -21.5 57.5t-60.5 20.5h-185v-190z" />
    <glyph glyph-name="Gamma" unicode="&#x393;" horiz-adv-x="509" 
d="M82 0v698h400v-115h-270v-583h-130z" />
    <glyph glyph-name="uni0394" unicode="&#x394;" horiz-adv-x="670" 
d="M47 0v106l208 592h161l207 -592v-106h-576zM179 115h308l-152 465h-5z" />
    <glyph glyph-name="Epsilon" unicode="&#x395;" horiz-adv-x="599" 
d="M82 0v698h459v-115h-329v-173h292v-114h-292v-181h329v-115h-459z" />
    <glyph glyph-name="Zeta" unicode="&#x396;" horiz-adv-x="598" 
d="M38 0v115l364 468h-346v115h494v-115l-365 -468h375v-115h-522z" />
    <glyph glyph-name="Eta" unicode="&#x397;" horiz-adv-x="718" 
d="M82 0v698h130v-288h295v288h129v-698h-129v296h-295v-296h-130z" />
    <glyph glyph-name="Theta" unicode="&#x398;" horiz-adv-x="719" 
d="M359 -12q-143 0 -224.5 93.5t-81.5 267.5t81.5 267.5t224.5 93.5t225 -93.5t82 -267.5t-82 -267.5t-225 -93.5zM359 103q79 0 124.5 51t45.5 141v108q0 90 -45.5 141t-124.5 51t-124 -51t-45 -141v-108q0 -90 45 -141t124 -51zM245 296v114h229v-114h-229z" />
    <glyph glyph-name="Iota" unicode="&#x399;" horiz-adv-x="421" 
d="M53 0v104h93v490h-93v104h315v-104h-93v-490h93v-104h-315z" />
    <glyph glyph-name="Kappa" unicode="&#x39a;" horiz-adv-x="675" 
d="M82 0v698h130v-345h5l99 130l175 215h149l-243 -291l263 -407h-154l-201 317l-93 -110v-207h-130z" />
    <glyph glyph-name="Lambda" unicode="&#x39b;" horiz-adv-x="657" 
d="M21 0l231 698h155l229 -698h-135l-107 341l-66 235h-4l-64 -235l-108 -341h-131z" />
    <glyph glyph-name="Mu" unicode="&#x39c;" horiz-adv-x="817" 
d="M82 0v698h145l181 -343h3l179 343h144v-698h-122v501h-4l-54 -107l-146 -266l-144 266l-55 112h-4v-506h-123z" />
    <glyph glyph-name="Nu" unicode="&#x39d;" horiz-adv-x="718" 
d="M82 0v698h143l213 -362l72 -145h3v507h123v-698h-143l-212 362l-73 145h-3v-507h-123z" />
    <glyph glyph-name="Xi" unicode="&#x39e;" horiz-adv-x="598" 
d="M58 583v115h482v-115h-482zM112 296v114h374v-114h-374zM58 0v115h482v-115h-482z" />
    <glyph glyph-name="Omicron" unicode="&#x39f;" horiz-adv-x="712" 
d="M356 -12q-140 0 -221.5 93.5t-81.5 267.5t81.5 267.5t221.5 93.5t221.5 -93.5t81.5 -267.5t-81.5 -267.5t-221.5 -93.5zM356 103q76 0 121 51.5t45 140.5v108q0 89 -45 140.5t-121 51.5t-121 -51.5t-45 -140.5v-108q0 -89 45 -140.5t121 -51.5z" />
    <glyph glyph-name="Pi" unicode="&#x3a0;" horiz-adv-x="704" 
d="M82 0v698h539v-698h-129v583h-280v-583h-130z" />
    <glyph glyph-name="Rho" unicode="&#x3a1;" horiz-adv-x="639" 
d="M82 0v698h313q95 0 150.5 -58.5t55.5 -156.5t-55.5 -157t-150.5 -59h-183v-267h-130zM212 380h171q39 0 61.5 20.5t22.5 58.5v47q0 38 -22.5 58.5t-61.5 20.5h-171v-205z" />
    <glyph glyph-name="Sigma" unicode="&#x3a3;" horiz-adv-x="597" 
d="M43 0v115l230 236l-221 232v115h490v-114h-331l218 -229l-235 -241h348v-114h-499z" />
    <glyph glyph-name="Tau" unicode="&#x3a4;" horiz-adv-x="580" 
d="M225 0v583h-200v115h530v-115h-200v-583h-130z" />
    <glyph glyph-name="Upsilon" unicode="&#x3a5;" horiz-adv-x="630" 
d="M250 0v274l-240 424h146l162 -297h2l158 297h142l-240 -422v-276h-130z" />
    <glyph glyph-name="Phi" unicode="&#x3a6;" horiz-adv-x="849" 
d="M359 -39v71h-12q-140 0 -221 88t-81 233q0 147 81 235t221 88h12v59h131v-59h13q140 0 221 -88t81 -233q0 -147 -81 -235t-221 -88h-13v-71h-131zM349 138h13v432h-13q-73 0 -121.5 -51.5t-48.5 -133.5v-62q0 -82 48.5 -133.5t121.5 -51.5zM487 138h14q72 0 121 51.5
t49 133.5v62q0 82 -49 133.5t-121 51.5h-14v-432z" />
    <glyph glyph-name="Chi" unicode="&#x3a7;" horiz-adv-x="653" 
d="M19 0l225 359l-216 339h152l149 -250h2l152 250h141l-218 -340l228 -358h-151l-161 269h-3l-159 -269h-141z" />
    <glyph glyph-name="Psi" unicode="&#x3a8;" horiz-adv-x="823" 
d="M346 0v185q-136 0 -207.5 73.5t-71.5 210.5v229h129v-229q0 -95 38.5 -136t111.5 -41v406h131v-406q73 0 111.5 41t38.5 136v229h130v-229q0 -137 -72 -210.5t-208 -73.5v-185h-131z" />
    <glyph glyph-name="uni03A9" unicode="&#x3a9;" horiz-adv-x="721" 
d="M53 0v114h159v10q-155 74 -155 269q0 134 80.5 225.5t223.5 91.5q142 0 222.5 -91.5t80.5 -225.5q0 -194 -154 -269v-10h159v-114h-256v174q47 15 80.5 65t33.5 108v84q0 65 -45.5 114.5t-120.5 49.5t-121 -49.5t-46 -114.5v-84q0 -58 33.5 -108t81.5 -65v-174h-256z" />
    <glyph glyph-name="Iotadieresis" unicode="&#x3aa;" horiz-adv-x="421" 
d="M107 770q-70 0 -70 58v20q0 58 70 58t70 -58v-20q0 -58 -70 -58zM315 770q-70 0 -70 58v20q0 58 70 58t70 -58v-20q0 -58 -70 -58zM53 0v104h93v490h-93v104h315v-104h-93v-490h93v-104h-315z" />
    <glyph glyph-name="Upsilondieresis" unicode="&#x3ab;" horiz-adv-x="630" 
d="M212 770q-70 0 -70 58v20q0 58 70 58t70 -58v-20q0 -58 -70 -58zM420 770q-70 0 -70 58v20q0 58 70 58t70 -58v-20q0 -58 -70 -58zM250 0v274l-240 424h146l162 -297h2l158 297h142l-240 -422v-276h-130z" />
    <glyph glyph-name="alphatonos" unicode="&#x3ac;" horiz-adv-x="659" 
d="M337 591l-83 12l33 211l116 -17zM253 -12q-96 0 -152 72t-56 201t56 201t152 72q75 0 121.5 -42t69.5 -130h4l22 84l24 76h128l-114 -258l61 -164h56v-100h-55q-53 0 -79.5 21.5t-36.5 75.5l-11 63h-4q-23 -87 -67.5 -129.5t-118.5 -42.5zM262 92q32 0 55 22.5t42 75.5
l25 71l-25 71q-19 53 -42 75.5t-55 22.5q-40 0 -62.5 -33t-22.5 -98v-76q0 -65 22.5 -98t62.5 -33z" />
    <glyph glyph-name="epsilontonos" unicode="&#x3ad;" horiz-adv-x="525" 
d="M309 591l-83 12l33 211l116 -17zM269 -12q-104 0 -163 42.5t-59 113.5q0 109 125 126v5q-113 14 -113 110q0 66 57 107.5t156 41.5q143 0 220 -88l-76 -74q-48 61 -137 61q-45 0 -68.5 -16t-23.5 -41v-11q0 -54 72 -54h109v-88h-118q-75 0 -75 -57v-11q0 -66 107 -66
q94 0 150 69l68 -75q-75 -95 -231 -95z" />
    <glyph glyph-name="etatonos" unicode="&#x3ae;" horiz-adv-x="598" 
d="M342 591l-83 12l33 211l116 -17zM404 -200v517q0 113 -88 113q-43 0 -74 -22t-31 -62v-346h-126v422h-52v100h73q88 0 102 -84l1 -7h6q36 103 147 103q80 0 123.5 -53.5t43.5 -150.5v-530h-125z" />
    <glyph glyph-name="iotatonos" unicode="&#x3af;" horiz-adv-x="318" 
d="M178 581l-83 12l33 211l116 -17zM207 0q-65 0 -99 33.5t-34 96.5v392h126v-422h99v-100h-92z" />
    <glyph glyph-name="upsilondieresistonos" unicode="&#x3b0;" horiz-adv-x="577" 
d="M305 581l-58 10l33 213l91 -15zM161 609q-57 0 -57 54v20q0 55 57 55q58 0 58 -54v-20q0 -55 -58 -55zM435 609q-57 0 -57 54v20q0 55 57 55q58 0 58 -54v-20q0 -55 -58 -55zM289 -12q-223 0 -223 253v281h125v-304q0 -66 23.5 -97t74.5 -31t74 31t23 97v304h125v-281
q0 -253 -222 -253z" />
    <glyph glyph-name="alpha" unicode="&#x3b1;" horiz-adv-x="659" 
d="M253 -12q-96 0 -152 72t-56 201t56 201t152 72q75 0 121.5 -42t69.5 -130h4l22 84l24 76h128l-114 -258l61 -164h56v-100h-55q-53 0 -79.5 21.5t-36.5 75.5l-11 63h-4q-23 -87 -67.5 -129.5t-118.5 -42.5zM262 92q32 0 55 22.5t42 75.5l25 71l-25 71q-19 53 -42 75.5
t-55 22.5q-40 0 -62.5 -33t-22.5 -98v-76q0 -65 22.5 -98t62.5 -33z" />
    <glyph glyph-name="beta" unicode="&#x3b2;" horiz-adv-x="601" 
d="M74 -200v692q0 126 57 193t168 67q108 0 165 -52t57 -135q0 -68 -33.5 -111t-90.5 -59v-5q71 -9 113.5 -53t42.5 -122q0 -101 -54 -164t-150 -63q-52 0 -91 25t-54 66h-4v-279h-126zM309 90q55 0 85.5 29t30.5 82v30q0 49 -31 77t-84 28h-43v100h37q41 0 65 24.5t24 65.5
v28q0 45 -24 70.5t-71 25.5t-72.5 -30.5t-25.5 -89.5v-361q0 -37 30.5 -58t78.5 -21z" />
    <glyph glyph-name="gamma" unicode="&#x3b3;" horiz-adv-x="527" 
d="M200 -200v200l-141 422h-50v100h49q51 0 78.5 -20t42.5 -71l45 -149l38 -154h7l45 154l82 240h119l-190 -522v-200h-125z" />
    <glyph glyph-name="delta" unicode="&#x3b4;" horiz-adv-x="563" 
d="M281 -12q-110 0 -175.5 73t-65.5 189q0 117 56.5 183.5t138.5 66.5v6l-136 110v124h375v-100h-172l-86 9v-4l118 -81q102 -69 145.5 -140.5t43.5 -161.5q0 -127 -65 -200.5t-177 -73.5zM281 90q52 0 81.5 32t29.5 92v33q0 68 -20 112.5t-77 96.5q-58 -8 -91 -50.5
t-33 -111.5v-80q0 -60 29.5 -92t80.5 -32z" />
    <glyph glyph-name="epsilon" unicode="&#x3b5;" horiz-adv-x="525" 
d="M269 -12q-104 0 -163 42.5t-59 113.5q0 109 125 126v5q-113 14 -113 110q0 66 57 107.5t156 41.5q143 0 220 -88l-76 -74q-48 61 -137 61q-45 0 -68.5 -16t-23.5 -41v-11q0 -54 72 -54h109v-88h-118q-75 0 -75 -57v-11q0 -66 107 -66q94 0 150 69l68 -75
q-75 -95 -231 -95z" />
    <glyph glyph-name="zeta" unicode="&#x3b6;" horiz-adv-x="435" 
d="M360 -170l-105 37l43 121l-73 19q-100 26 -142.5 74.5t-42.5 127.5q0 65 25 122t100 149l135 163v5l-76 -8h-164v100h367v-97l-172 -225q-84 -109 -84 -185v-14q0 -80 93 -104l74 -20q78 -21 78 -92q0 -24 -10 -48z" />
    <glyph glyph-name="eta" unicode="&#x3b7;" horiz-adv-x="598" 
d="M404 -200v517q0 113 -88 113q-43 0 -74 -22t-31 -62v-346h-126v422h-52v100h73q88 0 102 -84l1 -7h6q36 103 147 103q80 0 123.5 -53.5t43.5 -150.5v-530h-125z" />
    <glyph glyph-name="theta" unicode="&#x3b8;" horiz-adv-x="571" 
d="M286 -12q-118 0 -178.5 88t-60.5 294t60.5 294t178.5 88q117 0 178 -88t61 -294t-61 -294t-178 -88zM178 420h215v56q0 97 -26.5 136t-80.5 39q-55 0 -81.5 -39t-26.5 -136v-56zM286 89q54 0 80.5 39t26.5 136v56h-215v-56q0 -97 26.5 -136t81.5 -39z" />
    <glyph glyph-name="iota" unicode="&#x3b9;" horiz-adv-x="318" 
d="M207 0q-65 0 -99 33.5t-34 96.5v392h126v-422h99v-100h-92z" />
    <glyph glyph-name="kappa" unicode="&#x3ba;" horiz-adv-x="562" 
d="M74 0v522h126v-234h5l61 78l104 114q21 24 42.5 33t56.5 9h51v-100h-61l-109 -113l197 -309h-147l-134 228l-66 -68v-160h-126z" />
    <glyph glyph-name="lambda" unicode="&#x3bb;" horiz-adv-x="528" 
d="M5 0l194 522l-39 118h-92v100h91q50 0 76 -19t41 -65l181 -556h62v-100h-61q-50 0 -76 19t-41 65l-50 154l-34 142h-9l-39 -142l-85 -238h-119z" />
    <glyph glyph-name="uni03BC" unicode="&#x3bc;" horiz-adv-x="603" 
d="M74 -200v722h126v-318q0 -112 88 -112q44 0 74.5 23t30.5 62v345h125v-422h52v-100h-51q-102 0 -121 85l-2 7h-5q-26 -104 -114 -104q-69 0 -104 69h-5l31 -143v-114h-125z" />
    <glyph glyph-name="nu" unicode="&#x3bd;" horiz-adv-x="530" 
d="M190 0l-131 422h-50v100h49q51 0 79 -20.5t42 -71.5l46 -161l38 -159h7l46 159l83 253h119l-180 -522h-148z" />
    <glyph glyph-name="xi" unicode="&#x3be;" horiz-adv-x="446" 
d="M363 -170l-106 37l44 121l-72 19q-100 26 -141 74.5t-41 132.5q0 65 40.5 112t110.5 57v5q-121 24 -121 130q0 40 21.5 70.5t60.5 43.5v8h-122v100h398v-100h-131q-49 0 -76 -26t-27 -76v-15q0 -43 27.5 -68t76.5 -25h61v-100h-92q-47 0 -73 -25.5t-26 -68.5v-22
q0 -40 21.5 -63t71.5 -36l72 -20q78 -21 78 -92q0 -23 -9 -48z" />
    <glyph glyph-name="omicron" unicode="&#x3bf;" horiz-adv-x="563" 
d="M281 -12q-111 0 -176 74t-65 199q0 126 65 199.5t176 73.5q112 0 177 -73.5t65 -199.5q0 -125 -65 -199t-177 -74zM281 90q52 0 81.5 31.5t29.5 91.5v96q0 59 -29.5 91t-81.5 32q-51 0 -80.5 -32t-29.5 -91v-96q0 -59 29.5 -91t80.5 -32z" />
    <glyph glyph-name="pi" unicode="&#x3c0;" horiz-adv-x="644" 
d="M108 0v422h-85v100h588v-100h-98v-322h65v-100h-58q-64 0 -98 33.5t-34 95.5v293h-154v-422h-126z" />
    <glyph glyph-name="rho" unicode="&#x3c1;" horiz-adv-x="569" 
d="M51 -200v474q0 124 59 192t176 68q237 0 237 -271q0 -133 -52 -204t-148 -71q-49 0 -88.5 25t-53.5 65h-4v-278h-126zM282 90q51 0 80.5 33.5t29.5 94.5v91q0 58 -28.5 90.5t-79.5 32.5t-79 -32t-28 -91v-140q0 -36 30.5 -57.5t74.5 -21.5z" />
    <glyph glyph-name="uni03C2" unicode="&#x3c2;" horiz-adv-x="499" 
d="M382 -170l-106 37l44 121l-83 22q-105 28 -151 88t-46 176q0 118 63.5 189t172.5 71q75 0 126 -34.5t75 -97.5l-102 -46q-9 35 -35 55.5t-65 20.5q-49 0 -76.5 -33.5t-27.5 -90.5v-61q0 -101 115 -132l73 -20q78 -21 78 -92q0 -23 -9 -48z" />
    <glyph glyph-name="sigma" unicode="&#x3c3;" horiz-adv-x="585" 
d="M281 -12q-111 0 -176 73t-65 194q0 125 64.5 196t180.5 71h277v-100h-123v-8q84 -46 84 -165q0 -117 -65.5 -189t-176.5 -72zM281 90q52 0 81.5 32t29.5 91v88q0 75 -51 121h-56q-54 0 -84 -31t-30 -90v-88q0 -59 29.5 -91t80.5 -32z" />
    <glyph glyph-name="tau" unicode="&#x3c4;" horiz-adv-x="492" 
d="M303 0q-64 0 -98 33.5t-34 96.5v292h-151v100h443v-100h-167v-322h109v-100h-102z" />
    <glyph glyph-name="upsilon" unicode="&#x3c5;" horiz-adv-x="577" 
d="M289 -12q-223 0 -223 253v281h125v-304q0 -66 23.5 -97t74.5 -31t74 31t23 97v304h125v-281q0 -253 -222 -253z" />
    <glyph glyph-name="phi" unicode="&#x3c6;" horiz-adv-x="754" 
d="M310 -200v188q-120 0 -192.5 73t-72.5 199q0 204 135 274l78 -78q-81 -53 -81 -167v-62q0 -68 37 -103.5t96 -35.5v209q0 237 195 237q103 0 153 -61.5t50 -199.5q0 -137 -72 -211t-203 -74v-188h-123zM433 88q67 0 105 34.5t38 104.5v93q0 62 -17.5 88t-53.5 26
q-37 0 -54.5 -26t-17.5 -88v-232z" />
    <glyph glyph-name="chi" unicode="&#x3c7;" horiz-adv-x="529" 
d="M14 -200l179 368l-109 254h-67v100h66q49 0 74 -17.5t42 -61.5l70 -177h4l109 256h133l-173 -350l114 -272h67v-100h-66q-50 0 -75.5 18t-41.5 61l-74 196h-4l-115 -275h-133z" />
    <glyph glyph-name="psi" unicode="&#x3c8;" horiz-adv-x="748" 
d="M312 -200v188q-120 0 -183 67.5t-63 199.5v267h125v-296q0 -138 121 -138v622h124v-622q121 0 121 138v296h125v-267q0 -132 -63 -199.5t-183 -67.5v-188h-124z" />
    <glyph glyph-name="omega" unicode="&#x3c9;" horiz-adv-x="759" 
d="M230 -12q-86 0 -135 65t-49 194q0 218 135 287l78 -78q-82 -52 -82 -167v-85q0 -62 17 -88t53 -26t53 26t17 88v158h125v-158q0 -62 17 -88t53 -26t52.5 26t16.5 88v85q0 111 -81 167l78 78q68 -34 101.5 -103t33.5 -184q0 -129 -49 -194t-136 -65q-117 0 -147 134h-4
q-28 -134 -147 -134z" />
    <glyph glyph-name="iotadieresis" unicode="&#x3ca;" horiz-adv-x="318" 
d="M39 606q-70 0 -70 57v21q0 57 70 57t70 -57v-21q0 -57 -70 -57zM248 606q-70 0 -70 57v21q0 57 70 57q69 0 69 -57v-21q0 -57 -69 -57zM207 0q-65 0 -99 33.5t-34 96.5v392h126v-422h99v-100h-92z" />
    <glyph glyph-name="upsilondieresis" unicode="&#x3cb;" horiz-adv-x="577" 
d="M188 606q-70 0 -70 57v21q0 57 70 57q69 0 69 -57v-21q0 -57 -69 -57zM396 606q-69 0 -69 57v21q0 57 69 57q70 0 70 -57v-21q0 -57 -70 -57zM289 -12q-223 0 -223 253v281h125v-304q0 -66 23.5 -97t74.5 -31t74 31t23 97v304h125v-281q0 -253 -222 -253z" />
    <glyph glyph-name="omicrontonos" unicode="&#x3cc;" horiz-adv-x="563" 
d="M316 581l-83 12l33 211l116 -17zM281 -12q-111 0 -176 74t-65 199q0 126 65 199.5t176 73.5q112 0 177 -73.5t65 -199.5q0 -125 -65 -199t-177 -74zM281 90q52 0 81.5 31.5t29.5 91.5v96q0 59 -29.5 91t-81.5 32q-51 0 -80.5 -32t-29.5 -91v-96q0 -59 29.5 -91t80.5 -32z
" />
    <glyph glyph-name="upsilontonos" unicode="&#x3cd;" horiz-adv-x="577" 
d="M330 581l-82 12l33 211l115 -17zM289 -12q-223 0 -223 253v281h125v-304q0 -66 23.5 -97t74.5 -31t74 31t23 97v304h125v-281q0 -253 -222 -253z" />
    <glyph glyph-name="omegatonos" unicode="&#x3ce;" horiz-adv-x="759" 
d="M416 580l-83 12l33 211l116 -17zM230 -12q-86 0 -135 65t-49 194q0 218 135 287l78 -78q-82 -52 -82 -167v-85q0 -62 17 -88t53 -26t53 26t17 88v158h125v-158q0 -62 17 -88t53 -26t52.5 26t16.5 88v85q0 111 -81 167l78 78q68 -34 101.5 -103t33.5 -184q0 -129 -49 -194
t-136 -65q-117 0 -147 134h-4q-28 -134 -147 -134z" />
    <glyph glyph-name="uni0400" unicode="&#x400;" horiz-adv-x="599" 
d="M299 745l-125 170l107 53l94 -186zM82 0v698h459v-115h-329v-173h292v-114h-292v-181h329v-115h-459z" />
    <glyph glyph-name="uni0401" unicode="&#x401;" horiz-adv-x="599" 
d="M208 770q-70 0 -70 58v20q0 58 70 58t70 -58v-20q0 -58 -70 -58zM416 770q-70 0 -70 58v20q0 58 70 58t70 -58v-20q0 -58 -70 -58zM82 0v698h459v-115h-329v-173h292v-114h-292v-181h329v-115h-459z" />
    <glyph glyph-name="uni0402" unicode="&#x402;" horiz-adv-x="800" 
d="M484 -177v118h97q34 39 34 126v126q0 138 -131 138q-83 0 -129 -20v-311h-130v583h-200v115h530v-115h-200v-163h5q54 23 135 23q250 0 250 -254v-126q0 -119 -54.5 -179.5t-156.5 -60.5h-50z" />
    <glyph glyph-name="uni0403" unicode="&#x403;" horiz-adv-x="509" 
d="M294 745l-76 37l94 186l107 -53zM82 0v698h400v-115h-270v-583h-130z" />
    <glyph glyph-name="uni0404" unicode="&#x404;" horiz-adv-x="658" 
d="M361 -12q-148 0 -228 91t-80 265q0 176 80.5 271t227.5 95q95 0 157 -38.5t104 -116.5l-108 -62q-20 50 -55.5 76t-97.5 26q-79 0 -123 -47.5t-48 -133.5v-4h252v-114h-252v-10q2 -88 46 -135.5t125 -47.5q119 0 160 109l104 -65q-77 -159 -264 -159z" />
    <glyph glyph-name="uni0405" unicode="&#x405;" horiz-adv-x="610" 
d="M298 -12q-160 0 -259 116l88 85q72 -87 179 -87q61 0 93 26.5t32 73.5q0 37 -22 59t-75 31l-65 10q-209 34 -209 203q0 94 68 149.5t184 55.5q152 0 238 -103l-88 -84q-58 73 -157 73q-56 0 -86 -21.5t-30 -61.5q0 -39 23 -59t76 -30l65 -12q106 -19 156.5 -68t50.5 -135
q0 -100 -69.5 -160.5t-192.5 -60.5z" />
    <glyph glyph-name="uni0406" unicode="&#x406;" horiz-adv-x="421" 
d="M53 0v104h93v490h-93v104h315v-104h-93v-490h93v-104h-315z" />
    <glyph glyph-name="uni0407" unicode="&#x407;" horiz-adv-x="421" 
d="M107 770q-70 0 -70 58v20q0 58 70 58t70 -58v-20q0 -58 -70 -58zM315 770q-70 0 -70 58v20q0 58 70 58t70 -58v-20q0 -58 -70 -58zM53 0v104h93v490h-93v104h315v-104h-93v-490h93v-104h-315z" />
    <glyph glyph-name="uni0408" unicode="&#x408;" horiz-adv-x="543" 
d="M245 -11q-93 0 -148 49t-71 134l120 25q19 -95 98 -95q41 0 66 26t25 77v387h-221v106h351v-503q0 -94 -59.5 -150t-160.5 -56z" />
    <glyph glyph-name="uni0409" unicode="&#x409;" horiz-adv-x="1036" 
d="M17 -4v119h79q39 40 56.5 121.5t17.5 249.5v212h443v-261h181q96 0 151.5 -59.5t55.5 -159.5t-55.5 -159t-151.5 -59h-310v583h-189v-113q0 -184 -23.5 -280.5t-68.5 -141.5q-52 -52 -140 -52h-46zM613 113h169q40 0 62 21t22 61v47q0 40 -22 61t-62 21h-169v-211z" />
    <glyph glyph-name="uni040A" unicode="&#x40a;" horiz-adv-x="1039" 
d="M82 0v698h130v-288h275v288h129v-261h181q96 0 151.5 -59.5t55.5 -159.5t-55.5 -159t-151.5 -59h-310v296h-275v-296h-130zM616 113h169q40 0 62 21t22 61v47q0 40 -22 61t-62 21h-169v-211z" />
    <glyph glyph-name="uni040B" unicode="&#x40b;" horiz-adv-x="810" 
d="M225 0v583h-200v115h530v-115h-200v-163h5q54 23 140 23q255 0 255 -254v-189h-130v193q0 138 -136 138q-88 0 -134 -20v-311h-130z" />
    <glyph glyph-name="uni040C" unicode="&#x40c;" horiz-adv-x="671" 
d="M356 745l-76 37l94 186l107 -53zM82 0v698h130v-288h112l116 209q23 42 50 60.5t67 18.5h56v-115h-62l-89 -161q-28 -49 -69 -61v-6q49 -9 77 -63l98 -177h62v-115h-73q-37 0 -62.5 17t-49.5 61l-121 218h-112v-296h-130z" />
    <glyph glyph-name="uni040D" unicode="&#x40d;" horiz-adv-x="718" 
d="M348 745l-125 170l107 53l94 -186zM82 0v698h126v-373l-13 -146h3l69 131l253 388h116v-698h-126v373l13 146h-3l-69 -131l-253 -388h-116z" />
    <glyph glyph-name="uni040E" unicode="&#x40e;" horiz-adv-x="619" 
d="M314 749q-114 0 -160 100l-20 47l100 39l33 -95q15 -6 47 -6t47 6l33 95l100 -39l-20 -47q-46 -100 -160 -100zM127 0v115h115l21 53l-248 530h137l115 -251l56 -133h4l49 135l99 249h128l-245 -603q-23 -54 -54 -74.5t-92 -20.5h-85z" />
    <glyph glyph-name="uni040F" unicode="&#x40f;" horiz-adv-x="704" 
d="M291 -150v150h-209v698h130v-583h280v583h129v-698h-209v-150h-121z" />
    <glyph glyph-name="uni0410" unicode="&#x410;" horiz-adv-x="670" 
d="M21 0l235 698h161l232 -698h-134l-57 179h-249l-57 -179h-131zM239 290h187l-91 290h-5z" />
    <glyph glyph-name="uni0411" unicode="&#x411;" horiz-adv-x="650" 
d="M82 0v698h457v-115h-327v-156h188q95 0 150.5 -58.5t55.5 -155.5q0 -96 -55.5 -154.5t-150.5 -58.5h-318zM212 113h176q39 0 61 21t22 61v37q0 41 -21.5 62t-61.5 21h-176v-202z" />
    <glyph glyph-name="uni0412" unicode="&#x412;" horiz-adv-x="662" 
d="M82 0v698h322q86 0 135.5 -48.5t49.5 -130.5q0 -74 -35.5 -110t-89.5 -40v-6q56 -1 103.5 -41.5t47.5 -121.5q0 -84 -51.5 -142t-128.5 -58h-353zM212 407h165q36 0 57 19.5t21 55.5v31q0 35 -21 55t-57 20h-165v-181zM212 110h185q39 0 60.5 20.5t21.5 57.5v34
q0 37 -21.5 57.5t-60.5 20.5h-185v-190z" />
    <glyph glyph-name="uni0413" unicode="&#x413;" horiz-adv-x="509" 
d="M82 0v698h400v-115h-270v-583h-130z" />
    <glyph glyph-name="uni0414" unicode="&#x414;" horiz-adv-x="785" 
d="M15 -150v265h75q85 99 85 367v216h474v-583h108v-265h-121v150h-500v-150h-121zM237 115h282v469h-219v-118q0 -253 -63 -348v-3z" />
    <glyph glyph-name="uni0415" unicode="&#x415;" horiz-adv-x="599" 
d="M82 0v698h459v-115h-329v-173h292v-114h-292v-181h329v-115h-459z" />
    <glyph glyph-name="uni0416" unicode="&#x416;" horiz-adv-x="997" 
d="M41 0v115h62l87 178q26 53 75 62v6q-46 12 -71 65l-75 157h-62v115h59q78 0 117 -80l99 -208h102v288h129v-288h102l100 208q39 80 116 80h58v-115h-62l-75 -157q-25 -53 -70 -65v-6q49 -9 75 -62l87 -178h62v-115h-75q-39 0 -64.5 18t-47.5 64l-104 214h-102v-296h-129
v296h-102l-105 -214q-22 -46 -47.5 -64t-64.5 -18h-74z" />
    <glyph glyph-name="uni0417" unicode="&#x417;" horiz-adv-x="603" 
d="M284 -12q-157 0 -252 110l87 84q66 -79 165 -79q65 0 99.5 24.5t34.5 70.5v10q0 89 -116 89h-116v114h110q109 0 109 92v8q0 84 -116 84q-98 0 -154 -69l-83 78q87 106 237 106q120 0 186.5 -51t66.5 -140q0 -68 -38.5 -106.5t-102.5 -47.5v-5q66 -5 110 -45t44 -113
q0 -96 -73 -155t-198 -59z" />
    <glyph glyph-name="uni0418" unicode="&#x418;" horiz-adv-x="718" 
d="M82 0v698h126v-373l-13 -146h3l69 131l253 388h116v-698h-126v373l13 146h-3l-69 -131l-253 -388h-116z" />
    <glyph glyph-name="uni0419" unicode="&#x419;" horiz-adv-x="718" 
d="M360 749q-114 0 -160 100l-20 47l100 39l33 -95q15 -6 47 -6t47 6l33 95l100 -39l-20 -47q-46 -100 -160 -100zM82 0v698h126v-373l-13 -146h3l69 131l253 388h116v-698h-126v373l13 146h-3l-69 -131l-253 -388h-116z" />
    <glyph glyph-name="uni041A" unicode="&#x41a;" horiz-adv-x="671" 
d="M82 0v698h130v-288h112l116 209q23 42 50 60.5t67 18.5h56v-115h-62l-89 -161q-28 -49 -69 -61v-6q49 -9 77 -63l98 -177h62v-115h-73q-37 0 -62.5 17t-49.5 61l-121 218h-112v-296h-130z" />
    <glyph glyph-name="uni041B" unicode="&#x41b;" horiz-adv-x="721" 
d="M17 -4v119h79q39 40 56.5 121.5t17.5 249.5v212h468v-698h-129v583h-214v-113q0 -184 -23.5 -280.5t-68.5 -141.5q-52 -52 -140 -52h-46z" />
    <glyph glyph-name="uni041C" unicode="&#x41c;" horiz-adv-x="817" 
d="M82 0v698h145l181 -343h3l179 343h144v-698h-122v501h-4l-54 -107l-146 -266l-144 266l-55 112h-4v-506h-123z" />
    <glyph glyph-name="uni041D" unicode="&#x41d;" horiz-adv-x="718" 
d="M82 0v698h130v-288h295v288h129v-698h-129v296h-295v-296h-130z" />
    <glyph glyph-name="uni041E" unicode="&#x41e;" horiz-adv-x="712" 
d="M356 -12q-140 0 -221.5 93.5t-81.5 267.5t81.5 267.5t221.5 93.5t221.5 -93.5t81.5 -267.5t-81.5 -267.5t-221.5 -93.5zM356 103q76 0 121 51.5t45 140.5v108q0 89 -45 140.5t-121 51.5t-121 -51.5t-45 -140.5v-108q0 -89 45 -140.5t121 -51.5z" />
    <glyph glyph-name="uni041F" unicode="&#x41f;" horiz-adv-x="704" 
d="M82 0v698h539v-698h-129v583h-280v-583h-130z" />
    <glyph glyph-name="uni0420" unicode="&#x420;" horiz-adv-x="639" 
d="M82 0v698h313q95 0 150.5 -58.5t55.5 -156.5t-55.5 -157t-150.5 -59h-183v-267h-130zM212 380h171q39 0 61.5 20.5t22.5 58.5v47q0 38 -22.5 58.5t-61.5 20.5h-171v-205z" />
    <glyph glyph-name="uni0421" unicode="&#x421;" horiz-adv-x="641" 
d="M352 -12q-140 0 -219.5 91.5t-79.5 264.5q0 174 80 270t219 96q182 0 254 -160l-110 -59q-35 104 -144 104q-75 0 -118.5 -51.5t-43.5 -141.5v-109q0 -90 43.5 -140t118.5 -50q111 0 152 111l105 -62q-78 -164 -257 -164z" />
    <glyph glyph-name="uni0422" unicode="&#x422;" horiz-adv-x="580" 
d="M225 0v583h-200v115h530v-115h-200v-583h-130z" />
    <glyph glyph-name="uni0423" unicode="&#x423;" horiz-adv-x="619" 
d="M127 0v115h115l21 53l-248 530h137l115 -251l56 -133h4l49 135l99 249h128l-245 -603q-23 -54 -54 -74.5t-92 -20.5h-85z" />
    <glyph glyph-name="uni0424" unicode="&#x424;" horiz-adv-x="884" 
d="M377 -39v90h-38q-134 0 -216.5 84t-82.5 212q0 129 82 213.5t217 84.5h38v90h130v-90h38q135 0 217 -84.5t82 -213.5q0 -128 -82.5 -212t-216.5 -84h-38v-90h-130zM339 158h40v380h-40q-78 0 -121.5 -44.5t-43.5 -114.5v-62q0 -70 44 -114.5t121 -44.5zM505 158h40
q77 0 121 44.5t44 114.5v62q0 70 -43.5 114.5t-121.5 44.5h-40v-380z" />
    <glyph glyph-name="uni0425" unicode="&#x425;" horiz-adv-x="653" 
d="M19 0l225 359l-216 339h152l149 -250h2l152 250h141l-218 -340l228 -358h-151l-161 269h-3l-159 -269h-141z" />
    <glyph glyph-name="uni0426" unicode="&#x426;" horiz-adv-x="758" 
d="M608 -150v150h-526v698h130v-583h280v583h129v-583h108v-265h-121z" />
    <glyph glyph-name="uni0427" unicode="&#x427;" horiz-adv-x="667" 
d="M455 0v256h-5q-54 -23 -140 -23q-255 0 -255 254v211h130v-215q0 -137 136 -137q88 0 134 20v332h130v-698h-130z" />
    <glyph glyph-name="uni0428" unicode="&#x428;" horiz-adv-x="1005" 
d="M82 0v698h130v-583h227v583h129v-583h226v583h129v-698h-841z" />
    <glyph glyph-name="uni0429" unicode="&#x429;" horiz-adv-x="1060" 
d="M910 -150v150h-828v698h130v-583h226v583h129v-583h227v583h129v-583h108v-265h-121z" />
    <glyph glyph-name="uni042A" unicode="&#x42a;" horiz-adv-x="752" 
d="M183 0v583h-161v115h291v-261h198q95 0 150.5 -59.5t55.5 -159.5t-55.5 -159t-150.5 -59h-328zM313 113h186q39 0 61 21t22 61v47q0 40 -22 61t-61 21h-186v-211z" />
    <glyph glyph-name="uni042B" unicode="&#x42b;" horiz-adv-x="914" 
d="M82 0v698h130v-261h188q95 0 150.5 -59.5t55.5 -159.5t-55.5 -159t-150.5 -59h-318zM702 0v698h129v-698h-129zM212 113h176q39 0 61 21t22 61v47q0 40 -22 61t-61 21h-176v-211z" />
    <glyph glyph-name="uni042C" unicode="&#x42c;" horiz-adv-x="651" 
d="M82 0v698h130v-261h198q95 0 150.5 -59.5t55.5 -159.5t-55.5 -159t-150.5 -59h-328zM212 113h186q39 0 61 21t22 61v47q0 40 -22 61t-61 21h-186v-211z" />
    <glyph glyph-name="uni042D" unicode="&#x42d;" horiz-adv-x="658" 
d="M298 -12q-189 0 -266 159l105 65q41 -109 161 -109q79 0 124.5 48.5t45.5 134.5v10h-252v114h252v7q-1 84 -46 131t-124 47q-113 0 -154 -102l-107 62q41 77 103.5 116t157.5 39q147 0 227 -91t80 -265q0 -175 -80.5 -270.5t-226.5 -95.5z" />
    <glyph glyph-name="uni042E" unicode="&#x42e;" horiz-adv-x="997" 
d="M645 -12q-130 0 -208 79t-91 229h-134v-296h-130v698h130v-288h136q12 145 91 222.5t206 77.5q140 0 220 -93t80 -268t-80 -268t-220 -93zM645 103q76 0 119 50.5t43 141.5v108q0 91 -43 141.5t-119 50.5t-119.5 -50.5t-43.5 -141.5v-108q0 -91 43.5 -141.5t119.5 -50.5z
" />
    <glyph glyph-name="uni042F" unicode="&#x42f;" horiz-adv-x="665" 
d="M42 0v115h61l67 115q14 24 28.5 36t39.5 17v5q-82 6 -128 58t-46 137q0 99 55.5 157t150.5 58h313v-698h-129v271h-113l-117 -199q-25 -42 -49.5 -57t-62.5 -15h-70zM282 380h172v205h-172q-39 0 -61 -20.5t-22 -58.5v-46q0 -39 22 -59.5t61 -20.5z" />
    <glyph glyph-name="uni0430" unicode="&#x430;" horiz-adv-x="557" 
d="M204 -12q-79 0 -123 41.5t-44 112.5q0 79 58 119.5t166 40.5h89v39q0 93 -99 93q-74 0 -119 -67l-74 67q63 100 202 100q105 0 160 -48t55 -138v-248h53v-100h-70q-38 0 -62 21.5t-32 57.5l-2 10h-6q-13 -49 -53 -75t-99 -26zM245 79q46 0 75.5 20.5t29.5 56.5v70h-83
q-102 0 -102 -66v-17q0 -64 80 -64z" />
    <glyph glyph-name="uni0431" unicode="&#x431;" horiz-adv-x="566" 
d="M285 -12q-241 0 -241 331q0 207 65.5 304.5t212.5 111.5l167 16v-122l-171 -16q-79 -7 -108.5 -49.5t-35.5 -155.5h5q19 53 53 78.5t90 25.5q90 0 147 -68t57 -185q0 -124 -65 -197.5t-176 -73.5zM287 90q50 0 79.5 31.5t29.5 89.5v75q0 60 -29.5 92t-82.5 32t-81 -29.5
t-28 -82.5v-84q0 -60 29.5 -92t82.5 -32z" />
    <glyph glyph-name="uni0432" unicode="&#x432;" horiz-adv-x="570" 
d="M74 0v522h286q68 0 106 -36t38 -96q0 -98 -108 -113v-4q62 -6 94.5 -37t32.5 -83q0 -69 -42.5 -111t-114.5 -42h-292zM197 306h128q24 0 37.5 13t13.5 36v26q0 23 -13.5 36t-37.5 13h-128v-124zM197 92h143q26 0 40.5 13.5t14.5 38.5v29q0 25 -14.5 39t-40.5 14h-143
v-134z" />
    <glyph glyph-name="uni0433" unicode="&#x433;" horiz-adv-x="441" 
d="M74 0v522h346v-100h-220v-422h-126z" />
    <glyph glyph-name="uni0434" unicode="&#x434;" horiz-adv-x="638" 
d="M9 -140v240h66q58 85 58 273v149h397v-422h89v-240h-114v140h-382v-140h-114zM207 100h198v322h-152v-56q0 -183 -46 -266z" />
    <glyph glyph-name="uni0435" unicode="&#x435;" horiz-adv-x="558" 
d="M285 -12q-115 0 -180 73.5t-65 199.5t64 199.5t177 73.5q116 0 176.5 -74t60.5 -189v-42h-348v-13q0 -59 33 -93t95 -34q79 0 133 71l69 -75q-71 -97 -215 -97zM170 307h217v10q0 56 -27.5 89t-76.5 33q-51 0 -82 -34.5t-31 -89.5v-8z" />
    <glyph glyph-name="uni0436" unicode="&#x436;" horiz-adv-x="834" 
d="M40 0v100h56l56 118q20 41 60 49v4q-39 11 -58 51l-48 100h-56v100h57q72 0 107 -70l66 -136h74v206h126v-206h74l66 136q35 70 107 70h57v-100h-56l-48 -100q-19 -40 -58 -51v-4q40 -8 60 -49l56 -118h56v-100h-64q-38 0 -63 16.5t-44 56.5l-69 144h-74v-217h-126v217
h-74l-69 -144q-19 -40 -44 -56.5t-63 -16.5h-64z" />
    <glyph glyph-name="uni0437" unicode="&#x437;" horiz-adv-x="521" 
d="M245 -12q-139 0 -220 97l78 75q54 -71 143 -71q49 0 74.5 17.5t25.5 48.5v11q0 57 -73 57h-114v88h102q73 0 73 54v11q0 57 -92 57q-88 0 -130 -67l-76 67q72 101 215 101q103 0 157 -38.5t54 -103.5q0 -99 -107 -115v-5q56 -7 87.5 -38t31.5 -80q0 -77 -61 -121.5
t-168 -44.5z" />
    <glyph glyph-name="uni0438" unicode="&#x438;" horiz-adv-x="604" 
d="M74 0v522h123v-236l-11 -123h3l62 112l166 247h113v-522h-123v236l11 123h-3l-62 -112l-166 -247h-113z" />
    <glyph glyph-name="uni0439" unicode="&#x439;" horiz-adv-x="604" 
d="M303 585q-114 0 -160 100l-20 47l100 39l33 -95q15 -6 47 -6t47 6l33 95l100 -39l-20 -47q-46 -100 -160 -100zM74 0v522h123v-236l-11 -123h3l62 112l166 247h113v-522h-123v236l11 123h-3l-62 -112l-166 -247h-113z" />
    <glyph glyph-name="uni043A" unicode="&#x43a;" horiz-adv-x="577" 
d="M74 0v522h126v-206h85l79 138q22 38 45.5 53t60.5 15h57v-100h-56l-57 -99q-23 -42 -58 -52v-4q39 -8 61 -49l66 -118h56v-100h-66q-36 0 -60.5 16t-46.5 55l-81 146h-85v-217h-126z" />
    <glyph glyph-name="uni043B" unicode="&#x43b;" horiz-adv-x="596" 
d="M13 -4v104h68q46 66 46 262v160h394v-522h-125v422h-149v-66q0 -247 -72 -319q-41 -41 -122 -41h-40z" />
    <glyph glyph-name="uni043C" unicode="&#x43c;" horiz-adv-x="716" 
d="M74 0v522h142l140 -233h4l140 233h142v-522h-122v367h-4l-36 -67l-122 -201l-122 201l-36 67h-4v-367h-122z" />
    <glyph glyph-name="uni043D" unicode="&#x43d;" horiz-adv-x="604" 
d="M74 0v522h126v-206h204v206h126v-522h-126v216h-204v-216h-126z" />
    <glyph glyph-name="uni043E" unicode="&#x43e;" horiz-adv-x="563" 
d="M281 -12q-111 0 -176 74t-65 199q0 126 65 199.5t176 73.5q112 0 177 -73.5t65 -199.5q0 -125 -65 -199t-177 -74zM281 90q52 0 81.5 32t29.5 91v96q0 59 -29.5 91t-81.5 32q-51 0 -80.5 -32t-29.5 -91v-96q0 -59 29.5 -91t80.5 -32z" />
    <glyph glyph-name="uni043F" unicode="&#x43f;" horiz-adv-x="589" 
d="M74 0v522h441v-522h-126v422h-189v-422h-126z" />
    <glyph glyph-name="uni0440" unicode="&#x440;" horiz-adv-x="599" 
d="M74 -200v722h126v-87h4q14 46 53.5 72.5t91.5 26.5q98 0 151 -71t53 -202q0 -130 -53 -201.5t-151 -71.5q-51 0 -90 27t-55 72h-4v-287h-126zM309 92q50 0 81.5 34t31.5 90v90q0 56 -31.5 90t-81.5 34q-47 0 -78 -23t-31 -61v-168q0 -40 30.5 -63t78.5 -23z" />
    <glyph glyph-name="uni0441" unicode="&#x441;" horiz-adv-x="512" 
d="M280 -12q-114 0 -177 73t-63 200t63 200t177 73q153 0 204 -132l-102 -46q-22 76 -102 76q-53 0 -81 -33.5t-28 -90.5v-95q0 -57 28 -90t81 -33q78 0 112 82l96 -47q-53 -137 -208 -137z" />
    <glyph glyph-name="uni0442" unicode="&#x442;" horiz-adv-x="485" 
d="M180 0v422h-160v100h445v-100h-160v-422h-125z" />
    <glyph glyph-name="uni0443" unicode="&#x443;" horiz-adv-x="522" 
d="M79 -200v100h93l25 75l-187 547h124l93 -280l33 -130h6l35 130l93 280h119l-212 -616q-20 -58 -52.5 -82t-94.5 -24h-75z" />
    <glyph glyph-name="uni0444" unicode="&#x444;" horiz-adv-x="786" 
d="M330 -200v255h-4q-38 -67 -113 -67q-88 0 -128.5 65t-40.5 208t41 208t128 65q74 0 113 -69h4v245h126v-245h4q39 69 113 69q87 0 128 -65t41 -208t-40.5 -208t-128.5 -65q-75 0 -113 67h-4v-255h-126zM259 82q72 0 72 62v234q0 62 -72 62q-45 0 -65 -30.5t-20 -99.5v-98
q0 -69 20 -99.5t65 -30.5zM527 82q45 0 65 30.5t20 99.5v98q0 69 -20 99.5t-65 30.5q-72 0 -72 -62v-234q0 -62 72 -62z" />
    <glyph glyph-name="uni0445" unicode="&#x445;" horiz-adv-x="542" 
d="M19 0l179 265l-175 257h143l109 -174h4l109 174h133l-176 -259l178 -263h-143l-112 181h-4l-113 -181h-132z" />
    <glyph glyph-name="uni0446" unicode="&#x446;" horiz-adv-x="622" 
d="M490 -140v140h-416v522h126v-422h189v422h126v-422h88v-240h-113z" />
    <glyph glyph-name="uni0447" unicode="&#x447;" horiz-adv-x="565" 
d="M365 0v228h-5q-45 -67 -141 -67q-169 0 -169 178v183h125v-176q0 -42 21.5 -61.5t68.5 -19.5t73.5 15t26.5 41v201h125v-522h-125z" />
    <glyph glyph-name="uni0448" unicode="&#x448;" horiz-adv-x="829" 
d="M74 0v522h126v-422h152v422h125v-422h152v422h125v-522h-680z" />
    <glyph glyph-name="uni0449" unicode="&#x449;" horiz-adv-x="862" 
d="M729 -140v140h-655v522h126v-422h152v422h125v-422h152v422h125v-422h89v-240h-114z" />
    <glyph glyph-name="uni044A" unicode="&#x44a;" horiz-adv-x="623" 
d="M150 0v422h-130v100h255v-166h141q79 0 128 -47.5t49 -130.5q0 -84 -49 -131t-128 -47h-266zM275 93h116q74 0 74 65v40q0 64 -74 64h-116v-169z" />
    <glyph glyph-name="uni044B" unicode="&#x44b;" horiz-adv-x="781" 
d="M74 0v522h126v-166h130q79 0 128 -47.5t49 -130.5q0 -84 -49 -131t-128 -47h-256zM581 0v522h125v-522h-125zM200 93h105q74 0 74 65v40q0 64 -74 64h-105v-169z" />
    <glyph glyph-name="uni044C" unicode="&#x44c;" horiz-adv-x="547" 
d="M74 0v522h126v-166h141q78 0 127.5 -47.5t49.5 -130.5q0 -84 -49 -131t-128 -47h-267zM200 93h116q74 0 74 65v40q0 64 -74 64h-116v-169z" />
    <glyph glyph-name="uni044D" unicode="&#x44d;" horiz-adv-x="527" 
d="M239 -12q-81 0 -130 30.5t-83 97.5l98 51q30 -78 115 -78q117 0 117 124v8h-184v88h184v4q0 55 -29.5 87.5t-85.5 32.5q-88 0 -116 -76l-98 54q59 123 214 123q119 0 182.5 -73t63.5 -200t-64 -200t-184 -73z" />
    <glyph glyph-name="uni044E" unicode="&#x44e;" horiz-adv-x="808" 
d="M533 -12q-101 0 -162 60.5t-72 168.5h-99v-217h-126v522h126v-206h100q13 103 73.5 160.5t159.5 57.5q111 0 173.5 -72.5t62.5 -200.5q0 -127 -62.5 -200t-173.5 -73zM533 90q104 0 104 123v96q0 123 -104 123q-105 0 -105 -123v-96q0 -123 105 -123z" />
    <glyph glyph-name="uni044F" unicode="&#x44f;" horiz-adv-x="568" 
d="M42 0v100h56l27 57q19 40 58 45v5q-63 7 -98 44.5t-35 100.5q0 78 49.5 124t127.5 46h267v-522h-125v188h-99l-55 -114q-19 -40 -44.5 -57t-63.5 -17h-65zM253 281h116v148h-116q-75 0 -75 -65v-22q0 -29 20 -45t55 -16z" />
    <glyph glyph-name="uni0450" unicode="&#x450;" horiz-adv-x="558" 
d="M271 581l-125 170l107 53l94 -186zM285 -12q-115 0 -180 73.5t-65 199.5t64 199.5t177 73.5q116 0 176.5 -74t60.5 -189v-42h-348v-13q0 -59 33 -93t95 -34q79 0 133 71l69 -75q-71 -97 -215 -97zM170 307h217v10q0 56 -27.5 89t-76.5 33q-51 0 -82 -34.5t-31 -89.5v-8z
" />
    <glyph glyph-name="uni0451" unicode="&#x451;" horiz-adv-x="558" 
d="M180 606q-70 0 -70 57v21q0 57 70 57q69 0 69 -57v-21q0 -57 -69 -57zM388 606q-69 0 -69 57v21q0 57 69 57q70 0 70 -57v-21q0 -57 -70 -57zM285 -12q-115 0 -180 73.5t-65 199.5t64 199.5t177 73.5q116 0 176.5 -74t60.5 -189v-42h-348v-13q0 -59 33 -93t95 -34
q79 0 133 71l69 -75q-71 -97 -215 -97zM170 307h217v10q0 56 -27.5 89t-76.5 33q-51 0 -82 -34.5t-31 -89.5v-8z" />
    <glyph glyph-name="uni0452" unicode="&#x452;" horiz-adv-x="591" 
d="M313 -200v100h80v417q0 113 -88 113q-43 0 -74 -22t-31 -62v-346h-126v596h-62v87h62v57h126v-57h143v-87h-143v-161h5q37 99 146 99q80 0 123.5 -53.5t43.5 -150.5v-395q0 -135 -136 -135h-69z" />
    <glyph glyph-name="uni0453" unicode="&#x453;" horiz-adv-x="441" 
d="M255 581l-76 37l94 186l107 -53zM74 0v522h346v-100h-220v-422h-126z" />
    <glyph glyph-name="uni0454" unicode="&#x454;" horiz-adv-x="527" 
d="M288 -12q-120 0 -184 72.5t-64 200.5q0 127 63.5 200t182.5 73q153 0 213 -123l-101 -52q-25 74 -112 74q-56 0 -85 -32.5t-30 -87.5v-4h184v-88h-184v-8q0 -58 29 -91t88 -33q86 0 120 80l94 -52q-34 -67 -84 -98t-130 -31z" />
    <glyph glyph-name="uni0455" unicode="&#x455;" horiz-adv-x="498" 
d="M245 -12q-133 0 -216 96l77 74q61 -71 144 -71q88 0 88 62q0 46 -65 56l-52 7q-173 22 -173 157q0 76 54 120.5t143 44.5q72 0 117.5 -20t85.5 -62l-75 -74q-52 57 -125 57q-80 0 -80 -56q0 -27 16 -40.5t54 -19.5l52 -7q168 -24 168 -154q0 -76 -58.5 -123t-154.5 -47z
" />
    <glyph glyph-name="uni0456" unicode="&#x456;" horiz-adv-x="274" 
d="M137 600q-37 0 -55.5 17t-18.5 46v19q0 29 18.5 46.5t55.5 17.5t55.5 -17.5t18.5 -46.5v-19q0 -29 -18.5 -46t-55.5 -17zM74 0v522h126v-522h-126z" />
    <glyph glyph-name="uni0457" unicode="&#x457;" horiz-adv-x="274" 
d="M33 606q-70 0 -70 57v21q0 57 70 57q69 0 69 -57v-21q0 -57 -69 -57zM241 606q-69 0 -69 57v21q0 57 69 57q70 0 70 -57v-21q0 -57 -70 -57zM74 0v522h126v-522h-126z" />
    <glyph glyph-name="uni0458" unicode="&#x458;" horiz-adv-x="274" 
d="M137 600q-37 0 -55.5 17t-18.5 46v19q0 29 18.5 46.5t55.5 17.5t55.5 -17.5t18.5 -46.5v-19q0 -29 -18.5 -46t-55.5 -17zM-6 -200v100h80v622h126v-586q0 -136 -136 -136h-70z" />
    <glyph glyph-name="uni0459" unicode="&#x459;" horiz-adv-x="844" 
d="M13 -4v104h68q46 66 46 262v160h380v-166h130q79 0 128 -47.5t49 -130.5q0 -84 -49 -131t-128 -47h-256v422h-134v-66q0 -247 -72 -319q-41 -41 -122 -41h-40zM507 93h105q74 0 74 65v40q0 64 -74 64h-105v-169z" />
    <glyph glyph-name="uni045A" unicode="&#x45a;" horiz-adv-x="857" 
d="M74 0v522h126v-206h194v206h126v-166h130q79 0 128 -47.5t49 -130.5q0 -84 -49 -131t-128 -47h-256v216h-194v-216h-126zM520 93h105q74 0 74 65v40q0 64 -74 64h-105v-169z" />
    <glyph glyph-name="uni045B" unicode="&#x45b;" horiz-adv-x="587" 
d="M74 0v596h-62v87h62v57h126v-57h143v-87h-143v-161h5q37 99 146 99q80 0 123.5 -53.5t43.5 -150.5v-330h-125v317q0 113 -88 113q-43 0 -74 -22t-31 -62v-346h-126z" />
    <glyph glyph-name="uni045C" unicode="&#x45c;" horiz-adv-x="577" 
d="M307 581l-76 37l94 186l107 -53zM74 0v522h126v-206h85l79 138q22 38 45.5 53t60.5 15h57v-100h-56l-57 -99q-23 -42 -58 -52v-4q39 -8 61 -49l66 -118h56v-100h-66q-36 0 -60.5 16t-46.5 55l-81 146h-85v-217h-126z" />
    <glyph glyph-name="uni045D" unicode="&#x45d;" horiz-adv-x="604" 
d="M290 581l-125 170l107 53l94 -186zM74 0v522h123v-236l-11 -123h3l62 112l166 247h113v-522h-123v236l11 123h-3l-62 -112l-166 -247h-113z" />
    <glyph glyph-name="uni045E" unicode="&#x45e;" horiz-adv-x="522" 
d="M263 585q-114 0 -160 100l-20 47l100 39l33 -95q15 -6 47 -6t47 6l33 95l100 -39l-20 -47q-46 -100 -160 -100zM79 -200v100h93l25 75l-187 547h124l93 -280l33 -130h6l35 130l93 280h119l-212 -616q-20 -58 -52.5 -82t-94.5 -24h-75z" />
    <glyph glyph-name="uni045F" unicode="&#x45f;" horiz-adv-x="590" 
d="M238 -140v140h-164v522h126v-422h190v422h125v-522h-163v-140h-114z" />
    <glyph glyph-name="uni0472" unicode="&#x472;" horiz-adv-x="712" 
d="M356 -12q-140 0 -221.5 93.5t-81.5 267.5t81.5 267.5t221.5 93.5t221.5 -93.5t81.5 -267.5t-81.5 -267.5t-221.5 -93.5zM183 409h346l-1 15q-4 83 -50.5 130.5t-121.5 47.5t-121.5 -47.5t-50.5 -131.5zM356 96q76 0 122 48t50 133l1 18h-346l1 -19q4 -85 50.5 -132.5
t121.5 -47.5z" />
    <glyph glyph-name="uni0473" unicode="&#x473;" horiz-adv-x="563" 
d="M281 -12q-111 0 -176 74t-65 199q0 126 65 199.5t176 73.5q112 0 177 -73.5t65 -199.5q0 -125 -65 -199t-177 -74zM164 306h234v6q0 61 -31.5 94t-85.5 33t-85.5 -33t-31.5 -94v-6zM281 83q54 0 85.5 33t31.5 94v10h-234v-10q0 -61 31.5 -94t85.5 -33z" />
    <glyph glyph-name="uni0490" unicode="&#x490;" horiz-adv-x="509" 
d="M82 0v698h279v150h121v-265h-270v-583h-130z" />
    <glyph glyph-name="uni0491" unicode="&#x491;" horiz-adv-x="441" 
d="M74 0v522h232v140h114v-240h-220v-422h-126z" />
    <glyph glyph-name="uni0492" unicode="&#x492;" horiz-adv-x="536" 
d="M110 0v301h-91v97h91v300h400v-115h-271v-185h181v-97h-181v-301h-129z" />
    <glyph glyph-name="uni0493" unicode="&#x493;" horiz-adv-x="458" 
d="M92 0v213h-68v86h68v223h345v-100h-220v-123h137v-86h-137v-213h-125z" />
    <glyph glyph-name="uni0494" unicode="&#x494;" horiz-adv-x="657" 
d="M329 -177v118h96q47 42 47 141v66q0 137 -131 137q-81 0 -129 -19v-266h-130v698h400v-115h-270v-208h5q54 23 135 23q250 0 250 -254v-67q0 -124 -60 -189t-163 -65h-50z" />
    <glyph glyph-name="uni0495" unicode="&#x495;" horiz-adv-x="562" 
d="M279 -200v100h85q25 30 25 111v95q0 55 -20.5 76.5t-68.5 21.5q-47 0 -73.5 -15.5t-26.5 -41.5v-147h-126v522h346v-100h-220v-181h5q44 67 141 67q87 0 128 -46.5t41 -148.5v-114q0 -199 -175 -199h-61z" />
    <glyph glyph-name="uni0496" unicode="&#x496;" horiz-adv-x="1015" 
d="M881 -150v150l-16 1q-60 3 -96 81l-104 214h-102v-296h-129v296h-102l-105 -214q-22 -46 -47.5 -64t-64.5 -18h-74v115h62l87 178q26 53 75 62v6q-46 12 -71 65l-75 157h-62v115h59q78 0 117 -80l99 -208h102v288h129v-288h102l100 208q39 80 116 80h58v-115h-62
l-75 -157q-25 -53 -70 -65v-6q49 -9 75 -62l87 -178h108v-265h-121z" />
    <glyph glyph-name="uni0497" unicode="&#x497;" horiz-adv-x="841" 
d="M713 -140v141l-7 1q-53 7 -83 71l-69 144h-74v-217h-126v217h-74l-69 -144q-19 -40 -44 -56.5t-63 -16.5h-64v100h56l56 118q20 41 60 49v4q-39 11 -58 51l-48 100h-56v100h57q72 0 107 -70l66 -136h74v206h126v-206h74l66 136q35 70 107 70h57v-100h-56l-48 -100
q-19 -40 -58 -51v-4q40 -8 60 -49l56 -118h89v-240h-114z" />
    <glyph glyph-name="uni0498" unicode="&#x498;" horiz-adv-x="603" 
d="M225 -150v143q-117 15 -193 105l87 84q66 -79 165 -79q65 0 99.5 24.5t34.5 70.5v10q0 89 -116 89h-116v114h110q109 0 109 92v8q0 84 -116 84q-98 0 -154 -69l-83 78q87 106 237 106q120 0 186.5 -51t66.5 -140q0 -68 -38.5 -106.5t-102.5 -47.5v-5q66 -5 110 -45
t44 -113q0 -83 -56 -139.5t-153 -69.5v-143h-121z" />
    <glyph glyph-name="uni0499" unicode="&#x499;" horiz-adv-x="521" 
d="M189 -140v133q-100 14 -164 92l78 75q54 -71 143 -71q49 0 74.5 17.5t25.5 48.5v11q0 57 -73 57h-114v88h102q73 0 73 54v11q0 57 -92 57q-88 0 -130 -67l-76 67q72 101 215 101q103 0 157 -38.5t54 -103.5q0 -99 -107 -115v-5q56 -7 87.5 -38t31.5 -80
q0 -66 -45.5 -108.5t-125.5 -53.5v-132h-114z" />
    <glyph glyph-name="uni049A" unicode="&#x49a;" horiz-adv-x="689" 
d="M555 -150v150l-13 1q-57 4 -97 77l-121 218h-112v-296h-130v698h130v-288h112l116 209q23 42 50 60.5t67 18.5h56v-115h-62l-89 -161q-28 -49 -69 -61v-6q49 -9 77 -63l98 -177h108v-265h-121z" />
    <glyph glyph-name="uni049B" unicode="&#x49b;" horiz-adv-x="586" 
d="M458 -140v141l-9 1q-48 4 -83 69l-81 146h-85v-217h-126v522h126v-206h85l79 138q22 38 45.5 53t60.5 15h57v-100h-56l-57 -99q-23 -42 -58 -52v-4q39 -8 61 -49l66 -118h89v-240h-114z" />
    <glyph glyph-name="uni049C" unicode="&#x49c;" horiz-adv-x="734" 
d="M82 0v698h130v-288h47v140h97v-140h42l106 209q22 42 49 60.5t67 18.5h57v-115h-63l-81 -159q-24 -49 -66 -63v-6q48 -11 76 -66l89 -174h61v-115h-73q-38 0 -64 17.5t-48 61.5l-110 217h-42v-140h-97v140h-47v-296h-130z" />
    <glyph glyph-name="uni049D" unicode="&#x49d;" horiz-adv-x="641" 
d="M74 0v522h126v-206h42v115h82v-115h34l67 130q21 42 45.5 59t63.5 17h56v-100h-56l-51 -99q-21 -42 -54 -52v-4q21 -5 34.5 -15t24.5 -34l58 -118h56v-100h-65q-73 0 -108 74l-71 143h-34v-115h-82v115h-42v-217h-126z" />
    <glyph glyph-name="uni04A0" unicode="&#x4a0;" horiz-adv-x="772" 
d="M183 0v583h-161v115h291v-288h112l116 209q23 42 50 60.5t67 18.5h56v-115h-62l-89 -161q-28 -49 -69 -61v-6q49 -9 77 -63l98 -177h62v-115h-73q-37 0 -62.5 17t-49.5 61l-121 218h-112v-296h-130z" />
    <glyph glyph-name="uni04A1" unicode="&#x4a1;" horiz-adv-x="653" 
d="M150 0v422h-130v100h255v-206h85l79 138q22 38 45.5 53t61.5 15h56v-100h-56l-57 -99q-14 -25 -26.5 -36t-31.5 -16v-4q40 -8 62 -49l65 -118h56v-100h-65q-37 0 -61.5 16t-46.5 55l-81 146h-85v-217h-125z" />
    <glyph glyph-name="uni04A2" unicode="&#x4a2;" horiz-adv-x="773" 
d="M623 -150v150h-116v296h-295v-296h-130v698h130v-288h295v288h129v-583h108v-265h-121z" />
    <glyph glyph-name="uni04A3" unicode="&#x4a3;" horiz-adv-x="637" 
d="M505 -140v140h-101v216h-204v-216h-126v522h126v-206h204v206h126v-422h88v-240h-113z" />
    <glyph glyph-name="uni04A4" unicode="&#x4a4;" horiz-adv-x="913" 
d="M82 0v698h130v-288h275v288h400v-115h-271v-583h-129v296h-275v-296h-130z" />
    <glyph glyph-name="uni04A5" unicode="&#x4a5;" horiz-adv-x="761" 
d="M74 0v522h126v-206h194v206h346v-100h-220v-422h-126v216h-194v-216h-126z" />
    <glyph glyph-name="uni04AA" unicode="&#x4aa;" horiz-adv-x="641" 
d="M293 -150v143q-114 18 -177 107.5t-63 243.5q0 174 80 270t219 96q182 0 254 -160l-110 -59q-35 104 -144 104q-75 0 -118.5 -51.5t-43.5 -141.5v-109q0 -90 43.5 -140t118.5 -50q111 0 152 111l105 -62q-65 -135 -195 -158v-144h-121z" />
    <glyph glyph-name="uni04AB" unicode="&#x4ab;" horiz-adv-x="512" 
d="M223 -140v134q-88 16 -135.5 86.5t-47.5 180.5q0 127 63 200t177 73q153 0 204 -132l-102 -46q-22 76 -102 76q-53 0 -81 -33.5t-28 -90.5v-95q0 -57 28 -90.5t81 -33.5q77 0 112 83l96 -47q-43 -110 -151 -131v-134h-114z" />
    <glyph glyph-name="uni04AE" unicode="&#x4ae;" horiz-adv-x="630" 
d="M250 0v274l-240 424h146l162 -297h2l158 297h142l-240 -422v-276h-130z" />
    <glyph glyph-name="uni04AF" unicode="&#x4af;" horiz-adv-x="523" 
d="M199 -200v200l-187 522h124l77 -227l48 -167h7l48 167l76 227h119l-187 -522v-200h-125z" />
    <glyph glyph-name="uni04B0" unicode="&#x4b0;" horiz-adv-x="630" 
d="M250 0v177h-148v97h148l-240 424h146l162 -298h2l158 298h142l-240 -424h146v-97h-146v-177h-130z" />
    <glyph glyph-name="uni04B1" unicode="&#x4b1;" horiz-adv-x="523" 
d="M199 -200v114h-122v86h122l-187 522h124l77 -227l48 -167h7l48 167l76 227h119l-187 -522h121v-86h-121v-114h-125z" />
    <glyph glyph-name="uni04B2" unicode="&#x4b2;" horiz-adv-x="678" 
d="M548 -150v150h-65l-161 269h-3l-159 -269h-141l225 359l-216 339h152l149 -250h2l152 250h141l-218 -340l155 -243h108v-265h-121z" />
    <glyph glyph-name="uni04B3" unicode="&#x4b3;" horiz-adv-x="559" 
d="M437 -140v140h-57l-112 181h-4l-113 -181h-132l179 265l-175 257h143l109 -174h4l109 174h133l-176 -259l111 -163h95v-240h-114z" />
    <glyph glyph-name="uni04B6" unicode="&#x4b6;" horiz-adv-x="721" 
d="M572 -150v150h-117v256h-5q-54 -23 -140 -23q-255 0 -255 254v211h130v-215q0 -137 136 -137q88 0 134 20v332h130v-583h108v-265h-121z" />
    <glyph glyph-name="uni04B7" unicode="&#x4b7;" horiz-adv-x="598" 
d="M465 -140v140h-100v228h-5q-45 -67 -141 -67q-169 0 -169 178v183h125v-176q0 -42 21.5 -61.5t68.5 -19.5t73.5 15t26.5 41v201h125v-422h89v-240h-114z" />
    <glyph glyph-name="uni04B8" unicode="&#x4b8;" horiz-adv-x="680" 
d="M469 0v256h-5q-38 -15 -85 -19v-130h-98v127q-226 15 -226 253v211h130v-215q0 -116 96 -134v151h98v-153q50 3 90 19v332h129v-698h-129z" />
    <glyph glyph-name="uni04B9" unicode="&#x4b9;" horiz-adv-x="578" 
d="M378 0v216h-5q-20 -30 -55 -46v-92h-83v83q-94 0 -139.5 44t-45.5 134v183h125v-176q0 -66 60 -77v139h83v-139q26 2 43 16t17 33v204h126v-522h-126z" />
    <glyph glyph-name="uni04BA" unicode="&#x4ba;" horiz-adv-x="667" 
d="M82 0v698h130v-256h5q54 23 140 23q255 0 255 -254v-211h-130v215q0 137 -136 137q-88 0 -134 -20v-332h-130z" />
    <glyph glyph-name="uni04BB" unicode="&#x4bb;" horiz-adv-x="587" 
d="M74 0v740h126v-305h5q37 99 146 99q80 0 123.5 -53.5t43.5 -150.5v-330h-125v317q0 113 -88 113q-43 0 -74 -22t-31 -62v-346h-126z" />
    <glyph glyph-name="uni04C0" unicode="&#x4c0;" horiz-adv-x="421" 
d="M53 0v104h93v490h-93v104h315v-104h-93v-490h93v-104h-315z" />
    <glyph glyph-name="uni04C1" unicode="&#x4c1;" horiz-adv-x="997" 
d="M497 749q-114 0 -160 100l-20 47l100 39l33 -95q15 -6 47 -6t47 6l33 95l100 -39l-20 -47q-46 -100 -160 -100zM41 0v115h62l87 178q26 53 75 62v6q-46 12 -71 65l-75 157h-62v115h59q78 0 117 -80l99 -208h102v288h129v-288h102l100 208q39 80 116 80h58v-115h-62
l-75 -157q-25 -53 -70 -65v-6q49 -9 75 -62l87 -178h62v-115h-75q-39 0 -64.5 18t-47.5 64l-104 214h-102v-296h-129v296h-102l-105 -214q-22 -46 -47.5 -64t-64.5 -18h-74z" />
    <glyph glyph-name="uni04C2" unicode="&#x4c2;" horiz-adv-x="834" 
d="M417 585q-114 0 -160 100l-20 47l100 39l33 -95q15 -6 47 -6t47 6l33 95l100 -39l-20 -47q-46 -100 -160 -100zM40 0v100h56l56 118q20 41 60 49v4q-39 11 -58 51l-48 100h-56v100h57q72 0 107 -70l66 -136h74v206h126v-206h74l66 136q35 70 107 70h57v-100h-56l-48 -100
q-19 -40 -58 -51v-4q40 -8 60 -49l56 -118h56v-100h-64q-38 0 -63 16.5t-44 56.5l-69 144h-74v-217h-126v217h-74l-69 -144q-19 -40 -44 -56.5t-63 -16.5h-64z" />
    <glyph glyph-name="uni04CF" unicode="&#x4cf;" horiz-adv-x="274" 
d="M74 0v740h126v-740h-126z" />
    <glyph glyph-name="uni04D0" unicode="&#x4d0;" horiz-adv-x="670" 
d="M334 749q-114 0 -160 100l-20 47l100 39l33 -95q15 -6 47 -6t47 6l33 95l100 -39l-20 -47q-46 -100 -160 -100zM21 0l235 698h161l232 -698h-134l-57 179h-249l-57 -179h-131zM239 290h187l-91 290h-5z" />
    <glyph glyph-name="uni04D1" unicode="&#x4d1;" horiz-adv-x="557" 
d="M263 585q-114 0 -160 100l-20 47l100 39l33 -95q15 -6 47 -6t47 6l33 95l100 -39l-20 -47q-46 -100 -160 -100zM204 -12q-79 0 -123 41.5t-44 112.5q0 79 58 119.5t166 40.5h89v39q0 93 -99 93q-74 0 -119 -67l-74 67q63 100 202 100q105 0 160 -48t55 -138v-248h53v-100
h-70q-38 0 -62 21.5t-32 57.5l-2 10h-6q-13 -49 -53 -75t-99 -26zM245 79q46 0 75.5 20.5t29.5 56.5v70h-83q-102 0 -102 -66v-17q0 -64 80 -64z" />
    <glyph glyph-name="uni04D2" unicode="&#x4d2;" horiz-adv-x="670" 
d="M231 770q-70 0 -70 58v20q0 58 70 58t70 -58v-20q0 -58 -70 -58zM439 770q-70 0 -70 58v20q0 58 70 58t70 -58v-20q0 -58 -70 -58zM21 0l235 698h161l232 -698h-134l-57 179h-249l-57 -179h-131zM239 290h187l-91 290h-5z" />
    <glyph glyph-name="uni04D3" unicode="&#x4d3;" horiz-adv-x="557" 
d="M159 606q-70 0 -70 57v21q0 57 70 57q69 0 69 -57v-21q0 -57 -69 -57zM367 606q-69 0 -69 57v21q0 57 69 57q70 0 70 -57v-21q0 -57 -70 -57zM204 -12q-79 0 -123 41.5t-44 112.5q0 79 58 119.5t166 40.5h89v39q0 93 -99 93q-74 0 -119 -67l-74 67q63 100 202 100
q105 0 160 -48t55 -138v-248h53v-100h-70q-38 0 -62 21.5t-32 57.5l-2 10h-6q-13 -49 -53 -75t-99 -26zM245 79q46 0 75.5 20.5t29.5 56.5v70h-83q-102 0 -102 -66v-17q0 -64 80 -64z" />
    <glyph glyph-name="uni04D4" unicode="&#x4d4;" horiz-adv-x="948" 
d="M1 0l346 698h543v-115h-331v-173h293v-114h-293v-181h331v-115h-459v179h-214l-86 -179h-130zM269 290h162v293h-20z" />
    <glyph glyph-name="uni04D5" unicode="&#x4d5;" horiz-adv-x="864" 
d="M204 -12q-78 0 -122.5 42.5t-44.5 112.5q0 80 60 122t164 42h89v34q0 93 -98 93q-75 0 -120 -67l-74 67q63 100 202 100q107 0 153 -88h6q20 38 66.5 63t107.5 25q114 0 172.5 -74t58.5 -189v-42h-349v-13q0 -57 35 -91.5t96 -34.5q82 0 134 70l68 -75q-32 -45 -87.5 -71
t-124.5 -26q-73 0 -127 31.5t-72 75.5h-6q-15 -44 -62.5 -75.5t-124.5 -31.5zM476 307h218v10q0 56 -27.5 89t-77.5 33q-51 0 -82 -34.5t-31 -89.5v-8zM246 79q45 0 74.5 20.5t29.5 56.5v73h-83q-102 -2 -102 -66v-16q0 -68 81 -68z" />
    <glyph glyph-name="uni04D6" unicode="&#x4d6;" horiz-adv-x="599" 
d="M311 749q-114 0 -160 100l-20 47l100 39l33 -95q15 -6 47 -6t47 6l33 95l100 -39l-20 -47q-46 -100 -160 -100zM82 0v698h459v-115h-329v-173h292v-114h-292v-181h329v-115h-459z" />
    <glyph glyph-name="uni04D7" unicode="&#x4d7;" horiz-adv-x="558" 
d="M284 585q-114 0 -160 100l-20 47l100 39l33 -95q15 -6 47 -6t47 6l33 95l100 -39l-20 -47q-46 -100 -160 -100zM285 -12q-115 0 -180 73.5t-65 199.5t64 199.5t177 73.5q116 0 176.5 -74t60.5 -189v-42h-348v-13q0 -59 33 -93t95 -34q79 0 133 71l69 -75
q-71 -97 -215 -97zM170 307h217v10q0 56 -27.5 89t-76.5 33q-51 0 -82 -34.5t-31 -89.5v-8z" />
    <glyph glyph-name="uni04D8" unicode="&#x4d8;" horiz-adv-x="712" 
d="M356 -12q-142 0 -222.5 93t-80.5 268v41h469v12q0 91 -44 142t-120 51q-125 0 -164 -120l-115 44q30 85 101 138t178 53q141 0 221 -94.5t80 -266.5t-81 -266.5t-222 -94.5zM356 103q70 0 115.5 46.5t49.5 126.5l1 7h-332v-7q5 -80 50 -126.5t116 -46.5z" />
    <glyph glyph-name="uni04D9" unicode="&#x4d9;" horiz-adv-x="558" 
d="M277 -12q-116 0 -176.5 74t-60.5 189v42h348v13q0 59 -32 93t-93 34q-81 0 -131 -71l-69 75q71 97 213 97q113 0 177.5 -74t64.5 -199q0 -126 -64 -199.5t-177 -73.5zM275 83q51 0 82 34.5t31 89.5v8h-218v-10q0 -56 27.5 -89t77.5 -33z" />
    <glyph glyph-name="uni04DC" unicode="&#x4dc;" horiz-adv-x="997" 
d="M394 770q-70 0 -70 58v20q0 58 70 58t70 -58v-20q0 -58 -70 -58zM602 770q-70 0 -70 58v20q0 58 70 58t70 -58v-20q0 -58 -70 -58zM41 0v115h62l87 178q26 53 75 62v6q-46 12 -71 65l-75 157h-62v115h59q78 0 117 -80l99 -208h102v288h129v-288h102l100 208q39 80 116 80
h58v-115h-62l-75 -157q-25 -53 -70 -65v-6q49 -9 75 -62l87 -178h62v-115h-75q-39 0 -64.5 18t-47.5 64l-104 214h-102v-296h-129v296h-102l-105 -214q-22 -46 -47.5 -64t-64.5 -18h-74z" />
    <glyph glyph-name="uni04DD" unicode="&#x4dd;" horiz-adv-x="834" 
d="M313 606q-70 0 -70 57v21q0 57 70 57q69 0 69 -57v-21q0 -57 -69 -57zM521 606q-69 0 -69 57v21q0 57 69 57q70 0 70 -57v-21q0 -57 -70 -57zM40 0v100h56l56 118q20 41 60 49v4q-39 11 -58 51l-48 100h-56v100h57q72 0 107 -70l66 -136h74v206h126v-206h74l66 136
q35 70 107 70h57v-100h-56l-48 -100q-19 -40 -58 -51v-4q40 -8 60 -49l56 -118h56v-100h-64q-38 0 -63 16.5t-44 56.5l-69 144h-74v-217h-126v217h-74l-69 -144q-19 -40 -44 -56.5t-63 -16.5h-64z" />
    <glyph glyph-name="uni04DE" unicode="&#x4de;" horiz-adv-x="603" 
d="M185 770q-70 0 -70 58v20q0 58 70 58t70 -58v-20q0 -58 -70 -58zM393 770q-70 0 -70 58v20q0 58 70 58t70 -58v-20q0 -58 -70 -58zM284 -12q-157 0 -252 110l87 84q66 -79 165 -79q65 0 99.5 24.5t34.5 70.5v10q0 89 -116 89h-116v114h110q109 0 109 92v8q0 84 -116 84
q-98 0 -154 -69l-83 78q87 106 237 106q120 0 186.5 -51t66.5 -140q0 -68 -38.5 -106.5t-102.5 -47.5v-5q66 -5 110 -45t44 -113q0 -96 -73 -155t-198 -59z" />
    <glyph glyph-name="uni04DF" unicode="&#x4df;" horiz-adv-x="521" 
d="M146 606q-70 0 -70 57v21q0 57 70 57q69 0 69 -57v-21q0 -57 -69 -57zM354 606q-69 0 -69 57v21q0 57 69 57q70 0 70 -57v-21q0 -57 -70 -57zM245 -12q-139 0 -220 97l78 75q54 -71 143 -71q49 0 74.5 17.5t25.5 48.5v11q0 57 -73 57h-114v88h102q73 0 73 54v11
q0 57 -92 57q-88 0 -130 -67l-76 67q72 101 215 101q103 0 157 -38.5t54 -103.5q0 -99 -107 -115v-5q56 -7 87.5 -38t31.5 -80q0 -77 -61 -121.5t-168 -44.5z" />
    <glyph glyph-name="uni04E2" unicode="&#x4e2;" horiz-adv-x="718" 
d="M212 792v92h298v-92h-298zM82 0v698h126v-373l-13 -146h3l69 131l253 388h116v-698h-126v373l13 146h-3l-69 -131l-253 -388h-116z" />
    <glyph glyph-name="uni04E3" unicode="&#x4e3;" horiz-adv-x="604" 
d="M154 628v92h298v-92h-298zM74 0v522h123v-236l-11 -123h3l62 112l166 247h113v-522h-123v236l11 123h-3l-62 -112l-166 -247h-113z" />
    <glyph glyph-name="uni04E4" unicode="&#x4e4;" horiz-adv-x="718" 
d="M257 770q-70 0 -70 58v20q0 58 70 58t70 -58v-20q0 -58 -70 -58zM465 770q-70 0 -70 58v20q0 58 70 58t70 -58v-20q0 -58 -70 -58zM82 0v698h126v-373l-13 -146h3l69 131l253 388h116v-698h-126v373l13 146h-3l-69 -131l-253 -388h-116z" />
    <glyph glyph-name="uni04E5" unicode="&#x4e5;" horiz-adv-x="604" 
d="M199 606q-70 0 -70 57v21q0 57 70 57q69 0 69 -57v-21q0 -57 -69 -57zM407 606q-69 0 -69 57v21q0 57 69 57q70 0 70 -57v-21q0 -57 -70 -57zM74 0v522h123v-236l-11 -123h3l62 112l166 247h113v-522h-123v236l11 123h-3l-62 -112l-166 -247h-113z" />
    <glyph glyph-name="uni04E6" unicode="&#x4e6;" horiz-adv-x="712" 
d="M252 770q-70 0 -70 58v20q0 58 70 58t70 -58v-20q0 -58 -70 -58zM460 770q-70 0 -70 58v20q0 58 70 58t70 -58v-20q0 -58 -70 -58zM356 -12q-140 0 -221.5 93.5t-81.5 267.5t81.5 267.5t221.5 93.5t221.5 -93.5t81.5 -267.5t-81.5 -267.5t-221.5 -93.5zM356 103
q76 0 121 51.5t45 140.5v108q0 89 -45 140.5t-121 51.5t-121 -51.5t-45 -140.5v-108q0 -89 45 -140.5t121 -51.5z" />
    <glyph glyph-name="uni04E7" unicode="&#x4e7;" horiz-adv-x="563" 
d="M177 605q-70 0 -70 57v21q0 57 70 57q69 0 69 -57v-21q0 -57 -69 -57zM385 605q-69 0 -69 57v21q0 57 69 57q70 0 70 -57v-21q0 -57 -70 -57zM281 -12q-111 0 -176 74t-65 199q0 126 65 199.5t176 73.5q112 0 177 -73.5t65 -199.5q0 -125 -65 -199t-177 -74zM281 90
q52 0 81.5 32t29.5 91v96q0 59 -29.5 91t-81.5 32q-51 0 -80.5 -32t-29.5 -91v-96q0 -59 29.5 -91t80.5 -32z" />
    <glyph glyph-name="uni04E8" unicode="&#x4e8;" horiz-adv-x="712" 
d="M356 -12q-140 0 -221.5 93.5t-81.5 267.5t81.5 267.5t221.5 93.5t221.5 -93.5t81.5 -267.5t-81.5 -267.5t-221.5 -93.5zM183 409h346l-1 15q-4 83 -50.5 130.5t-121.5 47.5t-121.5 -47.5t-50.5 -131.5zM356 96q76 0 122 48t50 133l1 18h-346l1 -19q4 -85 50.5 -132.5
t121.5 -47.5z" />
    <glyph glyph-name="uni04E9" unicode="&#x4e9;" horiz-adv-x="563" 
d="M281 -12q-111 0 -176 74t-65 199q0 126 65 199.5t176 73.5q112 0 177 -73.5t65 -199.5q0 -125 -65 -199t-177 -74zM164 306h234v6q0 61 -31.5 94t-85.5 33t-85.5 -33t-31.5 -94v-6zM281 83q54 0 85.5 33t31.5 94v10h-234v-10q0 -61 31.5 -94t85.5 -33z" />
    <glyph glyph-name="uni04EE" unicode="&#x4ee;" horiz-adv-x="619" 
d="M166 792v92h298v-92h-298zM127 0v115h115l21 53l-248 530h137l115 -251l56 -133h4l49 135l99 249h128l-245 -603q-23 -54 -54 -74.5t-92 -20.5h-85z" />
    <glyph glyph-name="uni04EF" unicode="&#x4ef;" horiz-adv-x="522" 
d="M114 628v92h298v-92h-298zM79 -200v100h93l25 75l-187 547h124l93 -280l33 -130h6l35 130l93 280h119l-212 -616q-20 -58 -52.5 -82t-94.5 -24h-75z" />
    <glyph glyph-name="uni04F0" unicode="&#x4f0;" horiz-adv-x="619" 
d="M211 770q-70 0 -70 58v20q0 58 70 58t70 -58v-20q0 -58 -70 -58zM419 770q-70 0 -70 58v20q0 58 70 58t70 -58v-20q0 -58 -70 -58zM127 0v115h115l21 53l-248 530h137l115 -251l56 -133h4l49 135l99 249h128l-245 -603q-23 -54 -54 -74.5t-92 -20.5h-85z" />
    <glyph glyph-name="uni04F1" unicode="&#x4f1;" horiz-adv-x="522" 
d="M159 606q-70 0 -70 57v21q0 57 70 57q69 0 69 -57v-21q0 -57 -69 -57zM367 606q-69 0 -69 57v21q0 57 69 57q70 0 70 -57v-21q0 -57 -70 -57zM79 -200v100h93l25 75l-187 547h124l93 -280l33 -130h6l35 130l93 280h119l-212 -616q-20 -58 -52.5 -82t-94.5 -24h-75z" />
    <glyph glyph-name="uni04F2" unicode="&#x4f2;" horiz-adv-x="619" 
d="M231 745l-70 34l94 186l100 -49zM421 745l-70 34l94 186l100 -49zM127 0v115h115l21 53l-248 530h137l115 -251l56 -133h4l49 135l99 249h128l-245 -603q-23 -54 -54 -74.5t-92 -20.5h-85z" />
    <glyph glyph-name="uni04F3" unicode="&#x4f3;" horiz-adv-x="522" 
d="M179 581l-70 34l94 186l100 -49zM369 581l-70 34l94 186l100 -49zM79 -200v100h93l25 75l-187 547h124l93 -280l33 -130h6l35 130l93 280h119l-212 -616q-20 -58 -52.5 -82t-94.5 -24h-75z" />
    <glyph glyph-name="uni04F4" unicode="&#x4f4;" horiz-adv-x="667" 
d="M216 770q-70 0 -70 58v20q0 58 70 58t70 -58v-20q0 -58 -70 -58zM424 770q-70 0 -70 58v20q0 58 70 58t70 -58v-20q0 -58 -70 -58zM455 0v256h-5q-54 -23 -140 -23q-255 0 -255 254v211h130v-215q0 -137 136 -137q88 0 134 20v332h130v-698h-130z" />
    <glyph glyph-name="uni04F5" unicode="&#x4f5;" horiz-adv-x="565" 
d="M166 606q-70 0 -70 57v21q0 57 70 57q69 0 69 -57v-21q0 -57 -69 -57zM374 606q-69 0 -69 57v21q0 57 69 57q70 0 70 -57v-21q0 -57 -70 -57zM365 0v228h-5q-45 -67 -141 -67q-169 0 -169 178v183h125v-176q0 -42 21.5 -61.5t68.5 -19.5t73.5 15t26.5 41v201h125v-522
h-125z" />
    <glyph glyph-name="uni04F8" unicode="&#x4f8;" horiz-adv-x="914" 
d="M353 770q-70 0 -70 58v20q0 58 70 58t70 -58v-20q0 -58 -70 -58zM561 770q-70 0 -70 58v20q0 58 70 58t70 -58v-20q0 -58 -70 -58zM82 0v698h130v-261h188q95 0 150.5 -59.5t55.5 -159.5t-55.5 -159t-150.5 -59h-318zM702 0v698h129v-698h-129zM212 113h176q39 0 61 21
t22 61v47q0 40 -22 61t-61 21h-176v-211z" />
    <glyph glyph-name="uni04F9" unicode="&#x4f9;" horiz-adv-x="781" 
d="M286 606q-70 0 -70 57v21q0 57 70 57q69 0 69 -57v-21q0 -57 -69 -57zM494 606q-69 0 -69 57v21q0 57 69 57q70 0 70 -57v-21q0 -57 -70 -57zM74 0v522h126v-166h130q79 0 128 -47.5t49 -130.5q0 -84 -49 -131t-128 -47h-256zM581 0v522h125v-522h-125zM200 93h105
q74 0 74 65v40q0 64 -74 64h-105v-169z" />
    <glyph glyph-name="uni0E01" unicode="&#xe01;" horiz-adv-x="623" 
d="M307 585q121 0 183 -62t62 -175v-348h-128v354q0 61 -31 93.5t-90 32.5q-104 0 -118 -89h115v-88q-50 -3 -72 -34t-22 -102v-167h-128v154q0 64 34 100.5t84 46.5v5h-135v46q0 111 65.5 172t180.5 61z" />
    <glyph glyph-name="uni0E02" unicode="&#xe02;" horiz-adv-x="578" 
d="M284 -12q-112 0 -166.5 55t-54.5 151q0 54 15.5 94t33.5 59t33.5 45t15.5 56v25h-106v100h109q117 0 117 -103v-7q0 -42 -14 -77t-31 -55t-31 -53.5t-14 -72.5q0 -109 93 -109t93 111v366h127v-353q0 -119 -52.5 -175.5t-167.5 -56.5z" />
    <glyph glyph-name="uni0E03" unicode="&#xe03;" horiz-adv-x="594" 
d="M300 -12q-111 0 -165.5 55t-54.5 151q0 45 13.5 79.5t32.5 56t38.5 40.5t33 41.5t13.5 49.5v38h-5q-5 -40 -28.5 -65t-58.5 -25q-40 0 -61.5 24t-21.5 69v71h104v-82q28 0 46 20t18 48v14h113v-108q0 -44 -17.5 -79.5t-38 -56t-37.5 -53t-17 -71.5q0 -109 93 -109t93 111
v366h128v-353q0 -119 -53 -175.5t-168 -56.5z" />
    <glyph glyph-name="uni0E04" unicode="&#xe04;" horiz-adv-x="631" 
d="M71 0v348q0 113 63 175t182 62q118 0 181 -62t63 -175v-348h-127v353q0 60 -30 92t-87 32t-87 -31.5t-30 -92.5v-113h4q24 97 121 97h35v-111h-51q-109 0 -109 -88v-138h-128z" />
    <glyph glyph-name="uni0E05" unicode="&#xe05;" horiz-adv-x="640" 
d="M73 0v391q0 92 49.5 143t137.5 51l59 -62h2l59 62q88 0 137.5 -51t49.5 -143v-391h-127v376q0 53 -10.5 75t-38.5 24l-70 -69h-2l-70 69q-28 -2 -38.5 -24t-10.5 -75v-141h5q23 96 120 96h36v-110h-52q-109 0 -109 -89v-132h-127z" />
    <glyph glyph-name="uni0E06" unicode="&#xe06;" horiz-adv-x="637" 
d="M384 -12q-120 0 -157 103h-5v-91h-127v203q0 42 13 75.5t31.5 55t37 40t31.5 40.5t13 47v38h-4q-6 -40 -31.5 -65t-63.5 -25q-39 0 -60.5 24t-21.5 69v71h103v-82q32 0 52 20t20 48v14h112v-114q0 -48 -16.5 -83.5t-36 -53.5t-36 -47t-16.5 -66v-11q0 -47 34.5 -73
t82.5 -26q52 0 74.5 31t22.5 97v346h128v-374q0 -102 -45.5 -156.5t-134.5 -54.5z" />
    <glyph glyph-name="uni0E07" unicode="&#xe07;" horiz-adv-x="570" 
d="M189 0l-163 573h126l123 -470h16q45 0 66 36t21 114v214h-94v106h99q58 0 89.5 -37.5t31.5 -108.5v-147q0 -144 -53.5 -212t-160.5 -68h-101z" />
    <glyph glyph-name="uni0E08" unicode="&#xe08;" horiz-adv-x="559" 
d="M261 585q126 0 187.5 -72t61.5 -218q0 -154 -57.5 -224.5t-178.5 -70.5h-79l-55 232h-74v107h91q38 0 57 -18.5t31 -69.5l36 -148h8q43 0 68 35.5t25 106.5v107q0 60 -31 92.5t-91 32.5q-88 0 -138 -71l-81 73q70 106 220 106z" />
    <glyph glyph-name="uni0E09" unicode="&#xe09;" horiz-adv-x="611" 
d="M260 -12q-69 0 -105.5 39t-36.5 114v85h-61v102h84q48 0 70 -23t22 -72v-66q0 -68 61 -68q44 0 77.5 26t33.5 77v149q0 124 -126 124q-96 0 -153 -80l-81 75q75 115 241 115q120 0 183 -58.5t63 -169.5v-256h57v-101h-69q-91 0 -103 99h-6q-43 -111 -151 -111z" />
    <glyph glyph-name="uni0E0A" unicode="&#xe0a;" horiz-adv-x="558" 
d="M283 -12q-112 0 -166.5 55t-54.5 151q0 54 13.5 94t29 59t29 45t13.5 56v25h-98v100h101q115 0 115 -103v-7q-1 -64 -39 -131t-38 -124q0 -112 96 -112q94 0 94 111v24q0 48 -17.5 68.5t-57.5 20.5h-14v95h10q73 0 73 104v54h128v-17q0 -115 -98 -141v-5
q102 -19 102 -172v-31q0 -110 -53.5 -164.5t-167.5 -54.5z" />
    <glyph glyph-name="uni0E0B" unicode="&#xe0b;" horiz-adv-x="583" 
d="M308 -12q-112 0 -166 54.5t-54 151.5q0 44 12 79t29 56.5t34 40t29 41.5t12 50v38h-4q-6 -40 -29.5 -65t-58.5 -25q-39 0 -60.5 24t-21.5 69v71h103v-82q28 0 46.5 20t18.5 48v14h112v-108q0 -44 -15.5 -79t-33.5 -55t-33 -52t-15 -71q0 -112 96 -112q94 0 94 111v24
q0 48 -15 68.5t-50 20.5h-13v95h8q69 0 69 104v54h129v-17q0 -115 -97 -141v-5q94 -26 94 -172v-31q0 -110 -53 -164.5t-167 -54.5z" />
    <glyph glyph-name="uni0E0C" unicode="&#xe0c;" horiz-adv-x="929" 
d="M729 573h127v-383q0 -99 -43 -150.5t-121 -51.5q-108 0 -146 103h-5v-91h-123v354q0 61 -31 93.5t-88 32.5q-104 0 -118 -89h116v-88q-55 -3 -78.5 -34t-23.5 -102v-64h91v-103h-81q-137 0 -137 136v18q0 123 117 147v5h-126v46q0 112 62.5 172.5t177.5 60.5
q118 0 180 -62t62 -175v-166q0 -39 31 -61t72 -22q43 0 64 26.5t21 85.5v362z" />
    <glyph glyph-name="uni0E0D" unicode="&#xe0d;" horiz-adv-x="929" 
d="M728 573h127v-558q0 -102 -58 -156.5t-166 -54.5q-153 0 -224 108l83 73q48 -73 136 -73q50 0 76.5 28t26.5 81v88h-6q-38 -96 -146 -96q-76 0 -118 48t-42 141v152q0 61 -30.5 93.5t-87.5 32.5q-104 0 -118 -89h116v-88q-55 -3 -78.5 -34t-23.5 -102v-64h91v-103h-81
q-137 0 -137 136v18q0 123 117 147v5h-126v46q0 112 63.5 172.5t179.5 60.5q114 0 176.5 -62.5t62.5 -174.5v-119q0 -59 20.5 -85.5t63.5 -26.5q41 0 72 22t31 61v373z" />
    <glyph glyph-name="uni0E0E" unicode="&#xe0e;" horiz-adv-x="633" 
d="M313 585q123 0 185.5 -61.5t62.5 -175.5v-561h-128q-60 64 -144 64q-90 0 -137 -74l-83 72q32 51 81.5 78.5t104.5 27.5q111 0 174 -104h5v503q0 61 -32.5 93.5t-92.5 32.5q-110 0 -122 -89h120v-84q-42 -2 -58 -29.5t-16 -92.5v-61q0 -68 -27.5 -96t-92.5 -28h-72v101
h72v64q0 120 98 140v5h-147v42q0 112 65 172.5t184 60.5z" />
    <glyph glyph-name="uni0E0F" unicode="&#xe0f;" horiz-adv-x="633" 
d="M313 585q123 0 185.5 -61.5t62.5 -175.5v-374q0 -102 -44 -144.5t-140 -42.5l-74 63h-3q-30 -68 -104 -68q-91 0 -131 94l83 65q23 -57 70 -57q25 0 44.5 16.5t39.5 54.5h3l79 -62q26 2 38 17t12 48v396q0 61 -32.5 93.5t-92.5 32.5q-110 0 -122 -89h120v-84
q-42 -2 -58 -29.5t-16 -92.5v-61q0 -68 -27.5 -96t-92.5 -28h-72v101h72v64q0 120 98 140v5h-147v42q0 112 65 172.5t184 60.5z" />
    <glyph glyph-name="uni0E10" unicode="&#xe10;" horiz-adv-x="590" 
d="M562 508h-101v-18q49 -67 49 -198q0 -292 -236 -292h-79l-55 232h-74v107h91q38 0 57 -18.5t31 -69.5l36 -148h8q43 0 68 35.5t25 106.5v97q0 64 -32.5 98t-91.5 34q-89 0 -136 -71l-81 73q70 106 218 106q97 0 150 -44q1 66 70 66h83v-96zM398 -82v32h110v-63
q0 -57 -28.5 -87.5t-76.5 -30.5t-81 30t-43 83h-4l-7 -24q-11 -45 -34 -62t-69 -17h-98v102h103l22 69h98q7 -85 65 -85q43 0 43 53z" />
    <glyph glyph-name="uni0E11" unicode="&#xe11;" horiz-adv-x="643" 
d="M91 0v203q0 43 10 71t40 71q60 86 60 131v23h-4q-6 -40 -29.5 -65t-58.5 -25q-39 0 -60.5 24t-21.5 69v71h103v-82q28 0 46.5 20t18.5 48v14h112v-105h4q54 117 141 117q114 0 114 -160v-425h-127v407q0 67 -45 67q-26 0 -49.5 -23.5t-63.5 -89.5q-36 -59 -49.5 -93
t-13.5 -72v-196h-127z" />
    <glyph glyph-name="uni0E12" unicode="&#xe12;" horiz-adv-x="916" 
d="M679 -12q-107 0 -147 103h-5v-91h-123v376q0 52 -9.5 72t-36.5 22l-59 -68h-2l-60 68q-62 0 -62 -125v-99q0 -77 23.5 -108t84.5 -31h25v-107h-43q-119 0 -168 68t-49 229q0 149 46 218.5t144 69.5l59 -73h2l57 73q80 0 126 -46t46 -138v-219q0 -39 31 -61t72 -22
q43 0 63.5 26.5t20.5 85.5v362h127v-383q0 -99 -42.5 -150.5t-120.5 -51.5z" />
    <glyph glyph-name="uni0E13" unicode="&#xe13;" horiz-adv-x="934" 
d="M728 573h127v-573h-126v91h-6q-38 -103 -146 -103q-76 0 -118 51.5t-42 150.5v164q0 61 -30.5 93.5t-87.5 32.5q-104 0 -118 -89h116v-88q-55 -3 -78.5 -34t-23.5 -102v-64h91v-103h-81q-137 0 -137 136v18q0 123 117 147v5h-126v46q0 112 62.5 172.5t177.5 60.5
q119 0 180.5 -62t61.5 -175v-137q0 -59 20.5 -85.5t63.5 -26.5q41 0 72 22t31 61v391z" />
    <glyph glyph-name="uni0E14" unicode="&#xe14;" horiz-adv-x="608" 
d="M273 0q-118 0 -172 65.5t-54 211.5q0 308 252 308q116 0 176.5 -61.5t60.5 -175.5v-348h-127v348q0 62 -29 94.5t-85 32.5t-86.5 -34.5t-30.5 -99.5v-94q0 -74 25.5 -105t84.5 -31h26v-111h-41z" />
    <glyph glyph-name="uni0E15" unicode="&#xe15;" horiz-adv-x="620" 
d="M268 0q-120 0 -170 67t-50 228q0 290 196 290l63 -78h2l63 78q79 0 127.5 -46.5t48.5 -137.5v-401h-128v376q0 51 -10.5 71.5t-37.5 22.5l-63 -72h-2l-62 72q-33 0 -50.5 -34t-17.5 -95v-98q0 -76 24 -106t85 -30h40v-107h-58z" />
    <glyph glyph-name="uni0E16" unicode="&#xe16;" horiz-adv-x="622" 
d="M306 585q121 0 183 -62t62 -175v-348h-127v354q0 61 -31.5 93.5t-90.5 32.5q-106 0 -120 -89h116v-88q-55 -3 -79 -34t-24 -102v-64h92v-103h-81q-137 0 -137 136v18q0 123 117 147v5h-127v46q0 111 65 172t182 61z" />
    <glyph glyph-name="uni0E17" unicode="&#xe17;" horiz-adv-x="627" 
d="M79 0v573h127v-95h5q41 107 161 107q87 0 134.5 -57.5t47.5 -162.5v-365h-127v348q0 126 -100 126q-49 0 -85 -24.5t-36 -69.5v-380h-127z" />
    <glyph glyph-name="uni0E18" unicode="&#xe18;" horiz-adv-x="549" 
d="M287 -12q-134 0 -214 60v195h114v-128q46 -20 98 -20t77 21.5t25 68.5q0 43 -19.5 62t-69.5 26l-113 13q-126 20 -126 119v11q0 77 58.5 123t161.5 46q150 0 222 -94l-84 -74q-56 62 -139 62q-100 0 -100 -68v-23l144 -18q98 -15 141 -58t43 -127q0 -97 -56 -147
t-163 -50z" />
    <glyph glyph-name="uni0E19" unicode="&#xe19;" horiz-adv-x="625" 
d="M255 -12q-86 0 -134 57.5t-48 162.5v365h128v-348q0 -126 99 -126q48 0 83.5 24.5t35.5 69.5v380h127v-573h-127v95h-5q-39 -107 -159 -107z" />
    <glyph glyph-name="uni0E1A" unicode="&#xe1a;" horiz-adv-x="618" 
d="M309 -12q-124 0 -180 60.5t-56 188.5v336h128v-351q0 -126 108 -126t108 126v351h127v-336q0 -128 -56 -188.5t-179 -60.5z" />
    <glyph glyph-name="uni0E1B" unicode="&#xe1b;" horiz-adv-x="618" 
d="M309 -12q-124 0 -180 60.5t-56 188.5v336h128v-351q0 -126 108 -126t108 126v558h127v-543q0 -128 -56 -188.5t-179 -60.5z" />
    <glyph glyph-name="uni0E1C" unicode="&#xe1c;" horiz-adv-x="652" 
d="M75 0v428q0 77 28.5 111t97.5 34h96v-103h-96v-339l122 184h2l122 -184v442h126v-573h-131l-117 180h-2l-117 -180h-131z" />
    <glyph glyph-name="uni0E1D" unicode="&#xe1d;" horiz-adv-x="652" 
d="M75 0v425q0 77 28.5 111t97.5 34h96v-103h-95v-335l121 182h2l121 -182v648h127v-780h-132l-116 179h-2l-116 -179h-132z" />
    <glyph glyph-name="uni0E1E" unicode="&#xe1e;" horiz-adv-x="739" 
d="M130 0l-80 573h121l41 -447h2l96 447h119l95 -447h3l41 447h121l-81 -573h-145l-92 428h-3l-92 -428h-146z" />
    <glyph glyph-name="uni0E1F" unicode="&#xe1f;" horiz-adv-x="705" 
d="M128 0l-81 573h120l42 -447h3l91 447h119l89 -447h3l49 654h121l-89 -780h-145l-86 428h-3l-88 -428h-145z" />
    <glyph glyph-name="uni0E20" unicode="&#xe20;" horiz-adv-x="633" 
d="M313 585q123 0 185.5 -61.5t62.5 -175.5v-348h-127v354q0 61 -32.5 93.5t-92.5 32.5q-110 0 -122 -89h120v-84q-42 -2 -58 -30t-16 -92v-61q0 -68 -27.5 -96t-92.5 -28h-72v101h72v64q0 120 98 140v5h-147v42q0 112 65 172.5t184 60.5z" />
    <glyph glyph-name="uni0E21" unicode="&#xe21;" horiz-adv-x="628" 
d="M371 -12q-123 0 -160 103h-5v-91h-127v573h127v-379q0 -46 35.5 -70.5t85.5 -24.5q52 0 76 31.5t24 96.5v346h127v-374q0 -101 -47 -156t-136 -55z" />
    <glyph glyph-name="uni0E22" unicode="&#xe22;" horiz-adv-x="601" 
d="M293 -12q-114 0 -176 53.5t-62 150.5v17q0 63 32.5 104t85.5 41h10v5q-51 6 -84 35t-33 76v4q0 45 30.5 72t86.5 27h103v-100h-101v-13q0 -43 24.5 -71.5t67.5 -28.5h18v-98h-112v-48q0 -118 110 -118q108 0 108 126v351h127v-336q0 -128 -56 -188.5t-179 -60.5z" />
    <glyph glyph-name="uni0E23" unicode="&#xe23;" horiz-adv-x="531" 
d="M272 -12q-145 0 -233 113l83 76q65 -82 154 -82q40 0 64.5 18.5t24.5 49.5q0 60 -85 73l-36 6q-89 14 -133 53.5t-44 111.5q0 88 57.5 133t147.5 45q134 0 206 -94l-84 -74q-54 62 -125 62q-38 0 -60.5 -18t-22.5 -47q0 -58 83 -68l42 -6q172 -23 172 -171
q0 -85 -57 -133t-154 -48z" />
    <glyph glyph-name="uni0E24" unicode="&#xe24;" horiz-adv-x="622" 
d="M306 585q121 0 183 -62t62 -175v-561h-127v567q0 61 -31.5 93.5t-90.5 32.5q-106 0 -120 -89h116v-88q-55 -3 -79 -34t-24 -102v-64h92v-103h-81q-137 0 -137 136v18q0 123 117 147v5h-127v46q0 111 65 172t182 61z" />
    <glyph glyph-name="uni0E25" unicode="&#xe25;" horiz-adv-x="582" 
d="M279 585q232 0 232 -214v-371h-126v244h-129q-85 0 -85 -61v-16q0 -61 77 -61h54v-106h-69q-89 0 -138.5 44t-49.5 126q0 81 52.5 124t152.5 43h135v30q0 110 -114 110q-84 0 -138 -76l-79 72q69 112 225 112z" />
    <glyph glyph-name="uni0E26" unicode="&#xe26;" horiz-adv-x="633" 
d="M313 585q123 0 185.5 -61.5t62.5 -175.5v-561h-127v567q0 61 -32.5 93.5t-92.5 32.5q-110 0 -122 -89h120v-84q-42 -2 -58 -29.5t-16 -92.5v-61q0 -68 -27.5 -96t-92.5 -28h-72v101h72v64q0 120 98 140v5h-147v42q0 112 65 172.5t184 60.5z" />
    <glyph glyph-name="uni0E27" unicode="&#xe27;" horiz-adv-x="534" 
d="M253 -12q-79 0 -136 37t-84 109l108 48q15 -41 39 -63t68 -22q51 0 79 35t28 98v114q0 63 -28.5 97.5t-78.5 34.5q-78 0 -101 -80l-112 50q26 66 82 102.5t135 36.5q115 0 174.5 -75t59.5 -223q0 -149 -59 -224t-174 -75z" />
    <glyph glyph-name="uni0E28" unicode="&#xe28;" horiz-adv-x="651" 
d="M619 508h-102v-17q43 -52 43 -146v-345h-127v347q0 60 -30 92t-87 32t-87 -31.5t-30 -92.5v-107h4q24 97 121 97h35v-111h-51q-109 0 -109 -88v-138h-128v345q0 112 63 174.5t180 62.5q96 0 152 -46v2q0 66 68 66h85v-96z" />
    <glyph glyph-name="uni0E29" unicode="&#xe29;" horiz-adv-x="634" 
d="M619 391v-107h-71v-59q0 -112 -61 -174.5t-176 -62.5t-176.5 62.5t-61.5 174.5v348h128v-350q0 -61 29 -92.5t83 -31.5t83 32t29 92v61h-112v108h112v181h123v-182h71z" />
    <glyph glyph-name="uni0E2A" unicode="&#xe2a;" horiz-adv-x="607" 
d="M575 508h-101v-17q40 -43 40 -138v-353h-126v244h-129q-84 0 -84 -61v-16q0 -61 76 -61h54v-106h-68q-90 0 -139 43.5t-49 126.5q0 82 53.5 124.5t157.5 42.5h128v27q0 110 -113 110q-85 0 -138 -76l-80 72q70 112 224 112q93 0 141 -41q1 63 69 63h84v-96z" />
    <glyph glyph-name="uni0E2B" unicode="&#xe2b;" horiz-adv-x="605" 
d="M79 0v573h127v-196h100q100 0 100 104v92h130v-54q0 -58 -33.5 -93t-83.5 -48v-5q123 -22 123 -171v-202h-124v176q0 103 -89 103h-123v-279h-127z" />
    <glyph glyph-name="uni0E2C" unicode="&#xe2c;" horiz-adv-x="718" 
d="M130 0l-80 573h121l41 -447h2l96 379h119l95 -379h3l34 342q8 83 -58 83h-64v98h54q53 0 83.5 28.5t47.5 102.5h112q-16 -87 -42.5 -119.5t-76.5 -38.5v-4q69 -31 54 -149l-63 -469h-145l-92 381h-3l-92 -381h-146z" />
    <glyph glyph-name="uni0E2D" unicode="&#xe2d;" horiz-adv-x="583" 
d="M286 -12q-110 0 -173.5 58.5t-63.5 161.5v7q0 119 114 119h104v-100h-95v-21q0 -122 114 -122q115 0 115 127v124q0 65 -30.5 101t-87.5 36q-84 0 -119 -80l-110 55q59 131 227 131q125 0 189.5 -76t64.5 -217q0 -147 -63 -225.5t-186 -78.5z" />
    <glyph glyph-name="uni0E2E" unicode="&#xe2e;" horiz-adv-x="608" 
d="M580 508h-97v-24q52 -60 52 -192q0 -147 -63.5 -225.5t-186.5 -78.5q-109 0 -173 58t-64 159v8q0 121 114 121h105v-100h-96v-21q0 -122 114 -122q56 0 86 32.5t30 94.5v124q0 64 -31 100.5t-88 36.5q-85 0 -118 -80l-111 55q28 63 85 97t135 34q100 0 158 -51
q0 37 16.5 53.5t53.5 16.5h79v-96z" />
    <glyph glyph-name="uni0E2F" unicode="&#xe2f;" horiz-adv-x="558" 
d="M352 0l1 337h-6q-15 -49 -55 -82.5t-100 -33.5q-78 0 -124.5 46t-46.5 125q0 82 50.5 131.5t134.5 49.5h84v-100h-64q-37 0 -58.5 -20t-21.5 -55t22 -55t65 -20q55 0 87.5 40.5t32.5 118.5v91h126v-573h-127z" />
    <glyph glyph-name="uni0E30" unicode="&#xe30;" horiz-adv-x="423" 
d="M185 332q-124 0 -124 126v77l122 1v-93h188v-111h-186zM185 40q-124 0 -124 126v77l122 1v-93h188v-111h-186z" />
    <glyph glyph-name="uni0E31" unicode="&#xe31;" 
d="M-171 647q-134 0 -134 131v44h114v-80h215v-95h-195z" />
    <glyph glyph-name="uni0E32" unicode="&#xe32;" horiz-adv-x="496" 
d="M296 0v379q0 98 -87 98q-75 0 -124 -72l-81 73q67 107 212 107q100 0 154 -51.5t54 -148.5v-385h-128z" />
    <glyph glyph-name="uni0E33" unicode="&#xe33;" horiz-adv-x="495" 
d="M-141 644q-54 0 -81 25t-27 67v28q0 42 27 67t81 25q55 0 82 -25t27 -67v-28q0 -42 -27 -67t-82 -25zM-141 710q37 0 37 40q0 41 -37 41q-38 0 -38 -41q0 -40 38 -40zM296 0v379q0 98 -88 98q-75 0 -124 -72l-81 73q67 107 212 107q100 0 154 -51.5t54 -148.5v-385h-127z
" />
    <glyph glyph-name="uni0E34" unicode="&#xe34;" 
d="M-499 647v95h425v-95h-425z" />
    <glyph glyph-name="uni0E35" unicode="&#xe35;" 
d="M-494 647v95h310v104h115v-74q0 -125 -123 -125h-302z" />
    <glyph glyph-name="uni0E36" unicode="&#xe36;" 
d="M-157 850q53 0 79 -24.5t26 -65.5v-24q0 -41 -26 -65t-79 -24h-1h-342v95h240v18q0 41 25.5 65.5t77.5 24.5zM-157 710q35 0 35 39t-35 39q-36 0 -36 -39t36 -39z" />
    <glyph glyph-name="uni0E37" unicode="&#xe37;" 
d="M-180 846h106v-74q0 -125 -123 -125h-302v95h171v104h102v-104h46v104z" />
    <glyph glyph-name="uni0E38" unicode="&#xe38;" 
d="M-176 -296l-1 132h-80v96h80q53 0 78 -24.5t25 -76.5v-127h-102z" />
    <glyph glyph-name="uni0E39" unicode="&#xe39;" 
d="M-233 -293q-85 0 -85 83v52h-54v90h61q46 0 67.5 -21t21.5 -67v-61h53l-1 149h96v-142q0 -83 -84 -83h-75z" />
    <glyph glyph-name="uni0E3A" unicode="&#xe3a;" 
d="M-138 -224q-39 0 -58 18.5t-19 49.5v19q0 31 19 49.5t58 18.5t58.5 -18.5t19.5 -49.5v-19q0 -31 -19.5 -49.5t-58.5 -18.5z" />
    <glyph glyph-name="uni0E3F" unicode="&#xe3f;" horiz-adv-x="658" 
d="M279 -87v107h-197v658h197v102h97v-102h32q82 0 129.5 -46t47.5 -123q0 -66 -31 -99t-93 -42v-6q66 -6 107.5 -42t41.5 -111q0 -79 -49.5 -134t-123.5 -55h-61v-107h-97zM205 403h81v169h-81v-169zM369 403h16q73 0 73 69v31q0 69 -73 69h-16v-169zM205 126h81v177h-81
v-177zM369 126h33q38 0 59.5 18.5t21.5 53.5v32q0 35 -21.5 54t-59.5 19h-33v-177z" />
    <glyph glyph-name="uni0E40" unicode="&#xe40;" horiz-adv-x="317" 
d="M208 0q-63 0 -94.5 32t-31.5 92v449h127v-466h90v-107h-91z" />
    <glyph glyph-name="uni0E41" unicode="&#xe41;" horiz-adv-x="604" 
d="M205 0q-126 0 -126 124v449h127v-466h90v-107h-91zM495 0q-127 0 -127 124v449h128v-466h89v-107h-90z" />
    <glyph glyph-name="uni0E42" unicode="&#xe42;" horiz-adv-x="364" 
d="M244 0q-63 0 -94.5 32t-31.5 92v475q0 88 -31.5 137t-88.5 57v108h395v-106h-280v-4q132 -33 132 -258v-426h97v-107h-98z" />
    <glyph glyph-name="uni0E43" unicode="&#xe43;" horiz-adv-x="372" 
d="M243 0q-126 0 -126 124v528q135 6 135 94v12q0 33 -19 51t-51 18q-70 0 -90 -89l-107 50q18 63 69 102t132 39q87 0 138 -47t51 -125q0 -67 -37 -111t-95 -57v-482h97v-107h-97z" />
    <glyph glyph-name="uni0E44" unicode="&#xe44;" horiz-adv-x="359" 
d="M234 0q-126 0 -126 124v412q0 219 153 255v4h-229v106h347v-108q-68 -7 -106 -60t-38 -138v-488h96v-107h-97z" />
    <glyph glyph-name="uni0E45" unicode="&#xe45;" horiz-adv-x="500" 
d="M300 -213v587q0 100 -90 100q-73 0 -122 -72l-84 76q69 107 210 107q104 0 159 -53.5t55 -152.5v-592h-128z" />
    <glyph glyph-name="uni0E46" unicode="&#xe46;" horiz-adv-x="553" 
d="M343 -126v542q0 40 -8.5 55t-31.5 17l-52 -52h-2l-53 52q-44 0 -44 -61v-28q0 -32 15 -48.5t52 -16.5h32v-103h-43q-171 0 -171 161v14q0 179 170 179l42 -48h3l42 48q88 0 132 -39.5t44 -127.5v-544h-127z" />
    <glyph glyph-name="uni0E47" unicode="&#xe47;" 
d="M-340 788q-41 0 -41 -44q0 -41 36 -44l16 52h64q0 -50 30 -50q25 0 25 31v25h73v-47q0 -37 -18.5 -55t-47.5 -18q-31 0 -50.5 20.5t-23.5 58.5h-1l-4 -20q-9 -59 -73 -59q-50 0 -78.5 30t-28.5 81q0 50 31.5 80.5t84.5 30.5h221v-72h-215z" />
    <glyph glyph-name="uni0E48" unicode="&#xe48;" 
d="M-200 647v197h119v-197h-119z" />
    <glyph glyph-name="uni0E49" unicode="&#xe49;" 
d="M-194 742h158v-95h-259v105h-75v96h61q62 0 86.5 -22.5t28.5 -83.5z" />
    <glyph glyph-name="uni0E4A" unicode="&#xe4a;" 
d="M-84 732h66v-82h-151v106q0 29 -23 34l-46 -33l-51 33q-27 -5 -27 -34q0 -17 14 -26.5t38 -9.5h39v-70h-58q-60 0 -91.5 29t-31.5 79q0 47 30.5 77.5t76.5 33.5l58 -40h1l59 40q43 -5 70 -32t27 -75v-30z" />
    <glyph glyph-name="uni0E4B" unicode="&#xe4b;" 
d="M-30 822v-127h-29v-29h-147v29h-29v127h29v29h147v-29h29z" />
    <glyph glyph-name="uni0E4C" unicode="&#xe4c;" 
d="M-333 653v48q0 131 134 131h105v-95h-129v-84h-110z" />
    <glyph glyph-name="uni0E4D" unicode="&#xe4d;" 
d="M-142 640q-54 0 -81 25.5t-27 67.5v28q0 41 27 66.5t81 25.5t81 -25.5t27 -66.5v-28q0 -42 -27 -67.5t-81 -25.5zM-142 708q34 0 34 39t-34 39q-36 0 -36 -39t36 -39z" />
    <glyph glyph-name="uni0E4E" unicode="&#xe4e;" 
d="M-119 879h78v-84h-81v-83h-85v-65h-99v62q0 84 77 84h24v8q0 78 86 78z" />
    <glyph glyph-name="uni0E4F" unicode="&#xe4f;" horiz-adv-x="559" 
d="M280 20q-103 0 -168 70.5t-65 179.5t65 179.5t168 70.5t168 -70.5t65 -179.5t-65 -179.5t-168 -70.5zM280 107q58 0 94 33t36 90v80q0 57 -36 90t-94 33q-59 0 -95 -33t-36 -90v-80q0 -57 36 -90t95 -33zM280 163q-40 0 -64 22.5t-24 62.5v44q0 40 24 62.5t64 22.5
q39 0 63 -22.5t24 -62.5v-44q0 -40 -24 -62.5t-63 -22.5z" />
    <glyph glyph-name="uni0E50" unicode="&#xe50;" horiz-adv-x="563" 
d="M281 -12q-111 0 -176 74t-65 199q0 126 65 199.5t176 73.5q112 0 177 -73.5t65 -199.5q0 -125 -65 -199t-177 -74zM281 90q52 0 81.5 32t29.5 91v96q0 59 -29.5 91t-81.5 32q-51 0 -80.5 -32t-29.5 -91v-96q0 -59 29.5 -91t80.5 -32z" />
    <glyph glyph-name="uni0E51" unicode="&#xe51;" horiz-adv-x="536" 
d="M167 -34q114 85 159.5 160.5t45.5 175.5q0 130 -110 130q-51 0 -79 -27t-28 -76v-17q0 -84 83 -84h25v-100h-38q-92 0 -141.5 49.5t-49.5 141.5q0 99 62 157t167 58q111 0 173 -64t62 -181q0 -91 -45.5 -176.5t-126.5 -146.5h-159z" />
    <glyph glyph-name="uni0E52" unicode="&#xe52;" horiz-adv-x="727" 
d="M297 0q-121 0 -174.5 55t-53.5 174v410h119v-419q0 -61 24 -89.5t77 -28.5h152q53 0 77.5 29t24.5 89v154q0 56 -36 56l-51 -49h-2l-51 49q-37 0 -37 -55v-95h85v-97h-62q-129 0 -129 128v47q0 86 35.5 127t112.5 41l46 -55h3l46 55q160 0 160 -174v-123q0 -119 -57 -174
t-183 -55h-126z" />
    <glyph glyph-name="uni0E53" unicode="&#xe53;" horiz-adv-x="718" 
d="M190 0q-63 0 -94.5 32t-31.5 92v224q0 95 43 140.5t132 45.5q126 0 161 -93h5q20 93 118 93q126 0 126 -137v-397h-120v360q0 72 -59 72q-60 0 -60 -68v-234h-107v230q0 72 -59 72q-60 0 -60 -72v-260h68v-100h-62z" />
    <glyph glyph-name="uni0E54" unicode="&#xe54;" horiz-adv-x="567" 
d="M280 0q-113 0 -176.5 70t-63.5 191t64 191.5t176 70.5h149v116h115v-92q0 -126 -125 -126h-139q-52 0 -80.5 -30t-28.5 -87v-86q0 -57 28.5 -86.5t80.5 -29.5h102v5q-49 7 -81 35.5t-32 77.5v3q0 101 113 101h100v-97h-94v-16q0 -109 98 -109h39v-102h-245z" />
    <glyph glyph-name="uni0E55" unicode="&#xe55;" horiz-adv-x="567" 
d="M280 428q-52 0 -80.5 -31t-28.5 -89v-87q0 -59 28.5 -89t80.5 -30h102v5q-49 7 -81 35.5t-32 77.5v3q0 101 113 101h100v-97h-94v-16q0 -109 98 -109h39v-102h-245q-113 0 -176.5 71t-63.5 194q0 95 40 160.5t100 86.5q-1 6 -1 18v25q0 43 27 68t81 25t81 -25t27 -68v-25
v-11h42v120h107v-85q0 -126 -125 -126h-139zM287 584q-38 0 -38 -41t38 -41q36 0 36 41t-36 41z" />
    <glyph glyph-name="uni0E56" unicode="&#xe56;" horiz-adv-x="559" 
d="M276 -12q-97 0 -158.5 50t-61.5 132q-1 52 26 78.5t81 26.5h89v-96h-81v-8q0 -38 28.5 -59.5t77.5 -21.5q53 0 82 31.5t29 91.5v96q0 59 -28 91t-82 32q-72 0 -98 -52h-109l-48 259h112l36 -204h5q8 40 44 69.5t95 29.5q98 0 151 -72.5t53 -200.5q0 -126 -64.5 -199.5
t-178.5 -73.5z" />
    <glyph glyph-name="uni0E57" unicode="&#xe57;" horiz-adv-x="878" 
d="M694 639h115v-431q0 -107 -54.5 -157.5t-164.5 -50.5h-102v368q0 64 -51 64q-22 0 -36.5 -14.5t-14.5 -41.5v-206h-104v197q0 65 -51 65t-51 -64v-268h72v-100h-62q-63 0 -94.5 32t-31.5 92v223q0 187 163 187q113 0 147 -96h5q27 96 112 96q53 0 83 -36.5t30 -110.5
v-285q50 2 70 28t20 85v424z" />
    <glyph glyph-name="uni0E58" unicode="&#xe58;" horiz-adv-x="611" 
d="M217 -7q-82 0 -129 70t-47 186q0 127 64 200.5t176 73.5h156v116h115v-92q0 -126 -125 -126h-150q-52 0 -81 -31t-29 -90v-97q0 -54 17.5 -81t43.5 -27h3l40 137h94q0 -74 16 -108.5t50 -34.5q51 0 51 70v51h-65v97h58q112 0 112 -139v-8q0 -82 -31.5 -124.5t-89.5 -42.5
q-57 0 -91 39t-35 101h-6l-11 -48q-11 -48 -36.5 -70t-69.5 -22z" />
    <glyph glyph-name="uni0E59" unicode="&#xe59;" horiz-adv-x="677" 
d="M554 639h103v-155q0 -183 -155 -183h-40l-39 83q-11 26 -21.5 36t-24.5 10q-22 0 -32 -23l167 -407h-105l-156 386q-15 43 -42 43q-34 0 -34 -53v-276h73v-100h-62q-127 0 -127 124v253q0 76 35 116.5t100 40.5q88 0 136 -95h6q5 95 73 95q26 0 43 -14.5t34 -49.5l37 -79
q31 1 31 85v163z" />
    <glyph glyph-name="uni0E5A" unicode="&#xe5a;" horiz-adv-x="793" 
d="M590 573h124v-573h-124v341h-5q-11 -38 -39 -67.5t-69 -41.5v-232h-124v337h-6q-15 -49 -55.5 -82.5t-104.5 -33.5q-75 0 -120.5 46.5t-45.5 125.5q0 82 50.5 131t134.5 49h84v-101h-64q-37 0 -58.5 -19.5t-21.5 -54.5t22 -55t65 -20q55 0 87.5 40.5t32.5 118.5v91h124
v-247q52 2 82.5 43t30.5 117v87z" />
    <glyph glyph-name="uni0E5B" unicode="&#xe5b;" horiz-adv-x="889" 
d="M254 88q-80 0 -128.5 46.5t-48.5 123.5q0 80 50.5 127.5t134.5 47.5h63v-97h-40q-38 0 -59 -19t-21 -54q0 -34 19 -53.5t51 -19.5q48 0 76 44t56 163h106l43 -152h2l39 152h97l63 -145h80v-93h-66q-39 0 -61 14.5t-36 47.5l-25 60h-2l-32 -154h-118l-34 154h-2
q-29 -104 -79.5 -148.5t-127.5 -44.5z" />
    <glyph glyph-name="Wgrave" unicode="&#x1e80;" horiz-adv-x="946" 
d="M460 745l-125 170l107 53l94 -186zM188 0l-162 698h130l69 -335l44 -217h2l51 217l81 335h143l80 -335l50 -216h3l45 216l71 335h125l-168 -698h-146l-89 368l-44 187h-3l-45 -187l-90 -368h-147z" />
    <glyph glyph-name="wgrave" unicode="&#x1e81;" horiz-adv-x="817" 
d="M396 581l-125 170l107 53l94 -186zM167 0l-144 522h121l53 -216l42 -182h3l49 182l62 216h114l63 -216l50 -182h3l42 182l52 216h117l-143 -522h-136l-67 231l-39 143h-3l-39 -143l-66 -231h-134z" />
    <glyph glyph-name="Wacute" unicode="&#x1e82;" horiz-adv-x="946" 
d="M486 745l-76 37l94 186l107 -53zM188 0l-162 698h130l69 -335l44 -217h2l51 217l81 335h143l80 -335l50 -216h3l45 216l71 335h125l-168 -698h-146l-89 368l-44 187h-3l-45 -187l-90 -368h-147z" />
    <glyph glyph-name="wacute" unicode="&#x1e83;" horiz-adv-x="817" 
d="M422 581l-76 37l94 186l107 -53zM167 0l-144 522h121l53 -216l42 -182h3l49 182l62 216h114l63 -216l50 -182h3l42 182l52 216h117l-143 -522h-136l-67 231l-39 143h-3l-39 -143l-66 -231h-134z" />
    <glyph glyph-name="Wdieresis" unicode="&#x1e84;" horiz-adv-x="946" 
d="M369 770q-70 0 -70 58v20q0 58 70 58t70 -58v-20q0 -58 -70 -58zM577 770q-70 0 -70 58v20q0 58 70 58t70 -58v-20q0 -58 -70 -58zM188 0l-162 698h130l69 -335l44 -217h2l51 217l81 335h143l80 -335l50 -216h3l45 216l71 335h125l-168 -698h-146l-89 368l-44 187h-3
l-45 -187l-90 -368h-147z" />
    <glyph glyph-name="wdieresis" unicode="&#x1e85;" horiz-adv-x="817" 
d="M305 606q-70 0 -70 57v21q0 57 70 57q69 0 69 -57v-21q0 -57 -69 -57zM513 606q-69 0 -69 57v21q0 57 69 57q70 0 70 -57v-21q0 -57 -70 -57zM167 0l-144 522h121l53 -216l42 -182h3l49 182l62 216h114l63 -216l50 -182h3l42 182l52 216h117l-143 -522h-136l-67 231
l-39 143h-3l-39 -143l-66 -231h-134z" />
    <glyph glyph-name="uni1E9E" unicode="&#x1e9e;" horiz-adv-x="721" 
d="M457 -12q-128 0 -198 84l83 81q48 -57 115 -57q44 0 69 25.5t25 66.5v34q0 42 -26.5 66t-80.5 24h-95v104l148 172h-285v-588h-130v698h544v-120l-143 -166v-4q83 -4 141.5 -55t58.5 -144q0 -99 -61 -160t-165 -61z" />
    <glyph glyph-name="uni1EA0" unicode="&#x1ea0;" horiz-adv-x="670" 
d="M21 0l235 698h161l232 -698h-134l-57 179h-249l-57 -179h-131zM239 290h187l-91 290h-5zM336 -192q-71 0 -71 57v21q0 57 71 57t71 -57v-21q0 -57 -71 -57z" />
    <glyph glyph-name="uni1EA1" unicode="&#x1ea1;" horiz-adv-x="557" 
d="M204 -12q-79 0 -123 41.5t-44 112.5q0 79 58 119.5t166 40.5h89v39q0 93 -99 93q-74 0 -119 -67l-74 67q63 100 202 100q105 0 160 -48t55 -138v-248h53v-100h-70q-38 0 -62 21.5t-32 57.5l-2 10h-6q-13 -49 -53 -75t-99 -26zM245 79q46 0 75.5 20.5t29.5 56.5v70h-83
q-102 0 -102 -66v-17q0 -64 80 -64zM261 -192q-71 0 -71 57v21q0 57 71 57t71 -57v-21q0 -57 -71 -57z" />
    <glyph glyph-name="uni1EA2" unicode="&#x1ea2;" horiz-adv-x="670" 
d="M366 735l-65 31l47 96h-121v91h132q88 0 88 -67q0 -52 -54 -119zM21 0l235 698h161l232 -698h-134l-57 179h-249l-57 -179h-131zM239 290h187l-91 290h-5z" />
    <glyph glyph-name="uni1EA3" unicode="&#x1ea3;" horiz-adv-x="557" 
d="M294 577l-65 31l47 96h-121v91h132q88 0 88 -67q0 -52 -54 -119zM204 -12q-79 0 -123 41.5t-44 112.5q0 79 58 119.5t166 40.5h89v39q0 93 -99 93q-74 0 -119 -67l-74 67q63 100 202 100q105 0 160 -48t55 -138v-248h53v-100h-70q-38 0 -62 21.5t-32 57.5l-2 10h-6
q-13 -49 -53 -75t-99 -26zM245 79q46 0 75.5 20.5t29.5 56.5v70h-83q-102 0 -102 -66v-17q0 -64 80 -64z" />
    <glyph glyph-name="uni1EA4" unicode="&#x1ea4;" horiz-adv-x="670" 
d="M502 885l-69 34l94 186l99 -49zM213 738l-59 52l133 143h96l133 -143l-59 -52l-122 106zM21 0l235 698h161l232 -698h-134l-57 179h-249l-57 -179h-131zM239 290h187l-91 290h-5z" />
    <glyph glyph-name="uni1EA5" unicode="&#x1ea5;" horiz-adv-x="557" 
d="M429 723l-69 34l95 186l99 -49zM140 576l-59 52l134 143h96l133 -143l-59 -52l-122 106zM204 -12q-79 0 -123 41.5t-44 112.5q0 79 58 119.5t166 40.5h89v39q0 93 -99 93q-74 0 -119 -67l-74 67q63 100 202 100q105 0 160 -48t55 -138v-248h53v-100h-70q-38 0 -62 21.5
t-32 57.5l-2 10h-6q-13 -49 -53 -75t-99 -26zM245 79q46 0 75.5 20.5t29.5 56.5v70h-83q-102 0 -102 -66v-17q0 -64 80 -64z" />
    <glyph glyph-name="uni1EA6" unicode="&#x1ea6;" horiz-adv-x="670" 
d="M168 885l-124 171l99 49l94 -186zM213 738l-59 52l133 143h96l133 -143l-59 -52l-122 106zM21 0l235 698h161l232 -698h-134l-57 179h-249l-57 -179h-131zM239 290h187l-91 290h-5z" />
    <glyph glyph-name="uni1EA7" unicode="&#x1ea7;" horiz-adv-x="557" 
d="M96 723l-125 171l100 49l94 -186zM140 576l-59 52l134 143h96l133 -143l-59 -52l-122 106zM204 -12q-79 0 -123 41.5t-44 112.5q0 79 58 119.5t166 40.5h89v39q0 93 -99 93q-74 0 -119 -67l-74 67q63 100 202 100q105 0 160 -48t55 -138v-248h53v-100h-70q-38 0 -62 21.5
t-32 57.5l-2 10h-6q-13 -49 -53 -75t-99 -26zM245 79q46 0 75.5 20.5t29.5 56.5v70h-83q-102 0 -102 -66v-17q0 -64 80 -64z" />
    <glyph glyph-name="uni1EA8" unicode="&#x1ea8;" horiz-adv-x="670" 
d="M507 875l-59 30l49 100h-120v87h126q88 0 88 -66q0 -48 -58 -119zM213 738l-59 52l133 143h96l133 -143l-59 -52l-122 106zM21 0l235 698h161l232 -698h-134l-57 179h-249l-57 -179h-131zM239 290h187l-91 290h-5z" />
    <glyph glyph-name="uni1EA9" unicode="&#x1ea9;" horiz-adv-x="557" 
d="M435 713l-59 30l49 101h-120v86h125q89 0 89 -66q0 -46 -58 -119zM140 576l-59 53l134 142h96l133 -142l-59 -53l-122 107zM204 -12q-79 0 -123 41.5t-44 112.5q0 79 58 119.5t166 40.5h89v39q0 93 -99 93q-74 0 -119 -67l-74 67q63 100 202 100q105 0 160 -48t55 -138
v-248h53v-100h-70q-38 0 -62 21.5t-32 57.5l-2 10h-6q-13 -49 -53 -75t-99 -26zM245 79q46 0 75.5 20.5t29.5 56.5v70h-83q-102 0 -102 -66v-17q0 -64 80 -64z" />
    <glyph glyph-name="uni1EAA" unicode="&#x1eaa;" horiz-adv-x="670" 
d="M409 953q-30 0 -78 22q-51 22 -75 22q-28 0 -59 -25l-44 54q41 61 108 61q30 0 78 -22q49 -23 75 -23q27 0 59 26l44 -55q-40 -60 -108 -60zM213 738l-58 52l131 134h98l131 -134l-58 -52l-122 100zM21 0l235 698h161l232 -698h-134l-57 179h-249l-57 -179h-131zM239 290
h187l-91 290h-5z" />
    <glyph glyph-name="uni1EAB" unicode="&#x1eab;" horiz-adv-x="557" 
d="M337 791q-32 0 -78 22q-49 23 -76 23t-58 -26l-44 55q40 60 108 60q30 0 78 -22q49 -23 75 -23q27 0 59 26l43 -55q-40 -60 -107 -60zM140 576l-57 53l131 134h97l132 -134l-58 -53l-122 101zM204 -12q-79 0 -123 41.5t-44 112.5q0 79 58 119.5t166 40.5h89v39
q0 93 -99 93q-74 0 -119 -67l-74 67q63 100 202 100q105 0 160 -48t55 -138v-248h53v-100h-70q-38 0 -62 21.5t-32 57.5l-2 10h-6q-13 -49 -53 -75t-99 -26zM245 79q46 0 75.5 20.5t29.5 56.5v70h-83q-102 0 -102 -66v-17q0 -64 80 -64z" />
    <glyph glyph-name="uni1EAC" unicode="&#x1eac;" horiz-adv-x="670" 
d="M215 746l-63 49l125 154h116l125 -154l-63 -49l-120 116zM21 0l235 698h161l232 -698h-134l-57 179h-249l-57 -179h-131zM239 290h187l-91 290h-5zM336 -192q-71 0 -71 57v21q0 57 71 57t71 -57v-21q0 -57 -71 -57z" />
    <glyph glyph-name="uni1EAD" unicode="&#x1ead;" horiz-adv-x="557" 
d="M143 582l-63 49l125 154h116l125 -154l-63 -49l-120 116zM204 -12q-79 0 -123 41.5t-44 112.5q0 79 58 119.5t166 40.5h89v39q0 93 -99 93q-74 0 -119 -67l-74 67q63 100 202 100q105 0 160 -48t55 -138v-248h53v-100h-70q-38 0 -62 21.5t-32 57.5l-2 10h-6
q-13 -49 -53 -75t-99 -26zM245 79q46 0 75.5 20.5t29.5 56.5v70h-83q-102 0 -102 -66v-17q0 -64 80 -64zM261 -192q-71 0 -71 57v21q0 57 71 57t71 -57v-21q0 -57 -71 -57z" />
    <glyph glyph-name="uni1EAE" unicode="&#x1eae;" horiz-adv-x="670" 
d="M350 885l-69 34l92 186l99 -49zM335 741q-130 0 -183 141l65 38l21 -32q38 -61 97 -61q58 0 97 61l21 32l65 -38q-53 -141 -183 -141zM21 0l235 698h161l232 -698h-134l-57 179h-249l-57 -179h-131zM239 290h187l-91 290h-5z" />
    <glyph glyph-name="uni1EAF" unicode="&#x1eaf;" horiz-adv-x="557" 
d="M277 723l-69 34l93 186l98 -49zM263 579q-132 0 -183 141l65 38l20 -32q39 -61 98 -61q58 0 97 61l20 32l65 -38q-51 -141 -182 -141zM204 -12q-79 0 -123 41.5t-44 112.5q0 79 58 119.5t166 40.5h89v39q0 93 -99 93q-74 0 -119 -67l-74 67q63 100 202 100q105 0 160 -48
t55 -138v-248h53v-100h-70q-38 0 -62 21.5t-32 57.5l-2 10h-6q-13 -49 -53 -75t-99 -26zM245 79q46 0 75.5 20.5t29.5 56.5v70h-83q-102 0 -102 -66v-17q0 -64 80 -64z" />
    <glyph glyph-name="uni1EB0" unicode="&#x1eb0;" horiz-adv-x="670" 
d="M320 885l-120 171l98 49l92 -185zM335 741q-130 0 -183 141l65 38l21 -32q38 -61 97 -61q58 0 97 61l21 32l65 -38q-53 -141 -183 -141zM21 0l235 698h161l232 -698h-134l-57 179h-249l-57 -179h-131zM239 290h187l-91 290h-5z" />
    <glyph glyph-name="uni1EB1" unicode="&#x1eb1;" horiz-adv-x="557" 
d="M248 723l-120 171l97 49l93 -185zM263 579q-132 0 -183 141l65 38l20 -32q39 -61 98 -61q58 0 97 61l20 32l65 -38q-51 -141 -182 -141zM204 -12q-79 0 -123 41.5t-44 112.5q0 79 58 119.5t166 40.5h89v39q0 93 -99 93q-74 0 -119 -67l-74 67q63 100 202 100
q105 0 160 -48t55 -138v-248h53v-100h-70q-38 0 -62 21.5t-32 57.5l-2 10h-6q-13 -49 -53 -75t-99 -26zM245 79q46 0 75.5 20.5t29.5 56.5v70h-83q-102 0 -102 -66v-17q0 -64 80 -64z" />
    <glyph glyph-name="uni1EB2" unicode="&#x1eb2;" horiz-adv-x="670" 
d="M346 875l-59 29l49 101h-117v87h122q88 0 88 -66q0 -48 -57 -119zM335 741q-130 0 -183 141l65 38l21 -32q38 -61 97 -61q58 0 97 61l21 32l65 -38q-53 -141 -183 -141zM21 0l235 698h161l232 -698h-134l-57 179h-249l-57 -179h-131zM239 290h187l-91 290h-5z" />
    <glyph glyph-name="uni1EB3" unicode="&#x1eb3;" horiz-adv-x="557" 
d="M273 712l-58 29l48 102h-117v87h122q89 0 89 -67q0 -47 -58 -119zM263 578q-132 0 -183 141l65 39l20 -33q40 -60 98 -60t97 60l20 33l65 -39q-51 -141 -182 -141zM204 -12q-79 0 -123 41.5t-44 112.5q0 79 58 119.5t166 40.5h89v39q0 93 -99 93q-74 0 -119 -67l-74 67
q63 100 202 100q105 0 160 -48t55 -138v-248h53v-100h-70q-38 0 -62 21.5t-32 57.5l-2 10h-6q-13 -49 -53 -75t-99 -26zM245 79q46 0 75.5 20.5t29.5 56.5v70h-83q-102 0 -102 -66v-17q0 -64 80 -64z" />
    <glyph glyph-name="uni1EB4" unicode="&#x1eb4;" horiz-adv-x="670" 
d="M406 946q-31 0 -75 21q-49 22 -73 22q-28 0 -59 -25l-44 55q40 60 108 60q30 0 76 -22q49 -22 73 -22q27 0 58 26l44 -55q-40 -60 -108 -60zM335 741q-130 0 -183 141l65 38l21 -32q38 -61 97 -61q58 0 97 61l21 32l65 -38q-53 -141 -183 -141zM21 0l235 698h161
l232 -698h-134l-57 179h-249l-57 -179h-131zM239 290h187l-91 290h-5z" />
    <glyph glyph-name="uni1EB5" unicode="&#x1eb5;" horiz-adv-x="557" 
d="M334 784q-29 0 -75 20q-49 23 -74 23q-29 0 -58 -25l-44 55q39 59 108 59q30 0 76 -22q47 -21 72 -21q27 0 59 26l44 -55q-40 -60 -108 -60zM263 578q-132 0 -183 141l65 39l20 -33q40 -60 98 -60t97 60l20 33l65 -39q-51 -141 -182 -141zM204 -12q-79 0 -123 41.5
t-44 112.5q0 79 58 119.5t166 40.5h89v39q0 93 -99 93q-74 0 -119 -67l-74 67q63 100 202 100q105 0 160 -48t55 -138v-248h53v-100h-70q-38 0 -62 21.5t-32 57.5l-2 10h-6q-13 -49 -53 -75t-99 -26zM245 79q46 0 75.5 20.5t29.5 56.5v70h-83q-102 0 -102 -66v-17
q0 -64 80 -64z" />
    <glyph glyph-name="uni1EB6" unicode="&#x1eb6;" horiz-adv-x="670" 
d="M335 749q-40 0 -72 14t-52 39.5t-31.5 48.5t-21.5 53l69 35l19 -32q22 -36 41 -52.5t48 -16.5t48.5 16.5t40.5 52.5l20 32l68 -35q-51 -155 -177 -155zM21 0l235 698h161l232 -698h-134l-57 179h-249l-57 -179h-131zM239 290h187l-91 290h-5zM336 -192q-71 0 -71 57v21
q0 57 71 57t71 -57v-21q0 -57 -71 -57z" />
    <glyph glyph-name="uni1EB7" unicode="&#x1eb7;" horiz-adv-x="557" 
d="M263 585q-40 0 -72 14t-52 39.5t-31.5 48.5t-21.5 53l69 35l20 -33q21 -35 40.5 -51.5t47.5 -16.5t47.5 16.5t41.5 51.5l20 33l68 -35q-51 -155 -177 -155zM204 -12q-79 0 -123 41.5t-44 112.5q0 79 58 119.5t166 40.5h89v39q0 93 -99 93q-74 0 -119 -67l-74 67
q63 100 202 100q105 0 160 -48t55 -138v-248h53v-100h-70q-38 0 -62 21.5t-32 57.5l-2 10h-6q-13 -49 -53 -75t-99 -26zM245 79q46 0 75.5 20.5t29.5 56.5v70h-83q-102 0 -102 -66v-17q0 -64 80 -64zM261 -192q-71 0 -71 57v21q0 57 71 57t71 -57v-21q0 -57 -71 -57z" />
    <glyph glyph-name="uni1EB8" unicode="&#x1eb8;" horiz-adv-x="599" 
d="M82 0v698h459v-115h-329v-173h292v-114h-292v-181h329v-115h-459zM312 -192q-71 0 -71 57v21q0 57 71 57t71 -57v-21q0 -57 -71 -57z" />
    <glyph glyph-name="uni1EB9" unicode="&#x1eb9;" horiz-adv-x="558" 
d="M285 -12q-115 0 -180 73.5t-65 199.5t64 199.5t177 73.5q116 0 176.5 -74t60.5 -189v-42h-348v-13q0 -59 33 -93t95 -34q79 0 133 71l69 -75q-71 -97 -215 -97zM170 307h217v10q0 56 -27.5 89t-76.5 33q-51 0 -82 -34.5t-31 -89.5v-8zM290 -192q-71 0 -71 57v21
q0 57 71 57t71 -57v-21q0 -57 -71 -57z" />
    <glyph glyph-name="uni1EBA" unicode="&#x1eba;" horiz-adv-x="599" 
d="M343 735l-65 31l47 96h-121v91h132q88 0 88 -67q0 -52 -54 -119zM82 0v698h459v-115h-329v-173h292v-114h-292v-181h329v-115h-459z" />
    <glyph glyph-name="uni1EBB" unicode="&#x1ebb;" horiz-adv-x="558" 
d="M315 577l-65 31l47 96h-121v91h132q88 0 88 -67q0 -52 -54 -119zM285 -12q-115 0 -180 73.5t-65 199.5t64 199.5t177 73.5q116 0 176.5 -74t60.5 -189v-42h-348v-13q0 -59 33 -93t95 -34q79 0 133 71l69 -75q-71 -97 -215 -97zM170 307h217v10q0 56 -27.5 89t-76.5 33
q-51 0 -82 -34.5t-31 -89.5v-8z" />
    <glyph glyph-name="uni1EBC" unicode="&#x1ebc;" horiz-adv-x="599" 
d="M387 769q-30 0 -78 22q-51 22 -75 22q-28 0 -59 -25l-46 58q41 61 108 61q30 0 78 -22q49 -23 75 -23q27 0 59 26l46 -59q-40 -60 -108 -60zM82 0v698h459v-115h-329v-173h292v-114h-292v-181h329v-115h-459z" />
    <glyph glyph-name="uni1EBD" unicode="&#x1ebd;" horiz-adv-x="558" 
d="M359 605q-30 0 -78 22q-51 22 -75 22q-28 0 -59 -25l-46 58q41 61 108 61q30 0 78 -22q49 -23 75 -23q27 0 59 26l46 -59q-40 -60 -108 -60zM285 -12q-115 0 -180 73.5t-65 199.5t64 199.5t177 73.5q116 0 176.5 -74t60.5 -189v-42h-348v-13q0 -59 33 -93t95 -34
q79 0 133 71l69 -75q-71 -97 -215 -97zM170 307h217v10q0 56 -27.5 89t-76.5 33q-51 0 -82 -34.5t-31 -89.5v-8z" />
    <glyph glyph-name="uni1EBE" unicode="&#x1ebe;" horiz-adv-x="599" 
d="M479 885l-69 34l94 186l99 -49zM190 738l-59 52l133 143h96l133 -143l-59 -52l-122 106zM82 0v698h459v-115h-329v-173h292v-114h-292v-181h329v-115h-459z" />
    <glyph glyph-name="uni1EBF" unicode="&#x1ebf;" horiz-adv-x="558" 
d="M451 724l-69 33l94 186l100 -49zM162 576l-59 53l133 142h96l134 -142l-59 -53l-123 107zM285 -12q-115 0 -180 73.5t-65 199.5t64 199.5t177 73.5q116 0 176.5 -74t60.5 -189v-42h-348v-13q0 -59 33 -93t95 -34q79 0 133 71l69 -75q-71 -97 -215 -97zM170 307h217v10
q0 56 -27.5 89t-76.5 33q-51 0 -82 -34.5t-31 -89.5v-8z" />
    <glyph glyph-name="uni1EC0" unicode="&#x1ec0;" horiz-adv-x="599" 
d="M145 885l-124 171l99 49l94 -186zM190 738l-59 52l133 143h96l133 -143l-59 -52l-122 106zM82 0v698h459v-115h-329v-173h292v-114h-292v-181h329v-115h-459z" />
    <glyph glyph-name="uni1EC1" unicode="&#x1ec1;" horiz-adv-x="558" 
d="M118 723l-125 171l99 49l95 -186zM162 576l-59 52l133 143h96l134 -143l-59 -52l-123 106zM285 -12q-115 0 -180 73.5t-65 199.5t64 199.5t177 73.5q116 0 176.5 -74t60.5 -189v-42h-348v-13q0 -59 33 -93t95 -34q79 0 133 71l69 -75q-71 -97 -215 -97zM170 307h217v10
q0 56 -27.5 89t-76.5 33q-51 0 -82 -34.5t-31 -89.5v-8z" />
    <glyph glyph-name="uni1EC2" unicode="&#x1ec2;" horiz-adv-x="599" 
d="M484 875l-59 30l49 100h-120v87h126q88 0 88 -66q0 -48 -58 -119zM190 738l-59 52l133 143h96l133 -143l-59 -52l-122 106zM82 0v698h459v-115h-329v-173h292v-114h-292v-181h329v-115h-459z" />
    <glyph glyph-name="uni1EC3" unicode="&#x1ec3;" horiz-adv-x="558" 
d="M456 713l-58 30l48 100h-120v87h126q46 0 67.5 -18.5t21.5 -47.5q0 -49 -59 -119zM162 576l-59 52l133 143h96l134 -143l-59 -52l-123 106zM285 -12q-115 0 -180 73.5t-65 199.5t64 199.5t177 73.5q116 0 176.5 -74t60.5 -189v-42h-348v-13q0 -59 33 -93t95 -34
q79 0 133 71l69 -75q-71 -97 -215 -97zM170 307h217v10q0 56 -27.5 89t-76.5 33q-51 0 -82 -34.5t-31 -89.5v-8z" />
    <glyph glyph-name="uni1EC4" unicode="&#x1ec4;" horiz-adv-x="599" 
d="M386 953q-30 0 -78 22q-51 22 -75 22q-28 0 -59 -25l-44 54q41 61 108 61q30 0 78 -22q49 -23 75 -23q27 0 59 26l44 -55q-40 -60 -108 -60zM190 738l-58 52l131 134h98l131 -134l-58 -52l-122 100zM82 0v698h459v-115h-329v-173h292v-114h-292v-181h329v-115h-459z" />
    <glyph glyph-name="uni1EC5" unicode="&#x1ec5;" horiz-adv-x="558" 
d="M358 791q-30 0 -78 22q-51 22 -75 22q-28 0 -59 -25l-43 54q41 61 107 61q32 0 78 -22q49 -23 76 -23t58 26l44 -55q-40 -60 -108 -60zM162 576l-58 52l132 134h97l131 -134l-57 -52l-123 100zM285 -12q-115 0 -180 73.5t-65 199.5t64 199.5t177 73.5q116 0 176.5 -74
t60.5 -189v-42h-348v-13q0 -59 33 -93t95 -34q79 0 133 71l69 -75q-71 -97 -215 -97zM170 307h217v10q0 56 -27.5 89t-76.5 33q-51 0 -82 -34.5t-31 -89.5v-8z" />
    <glyph glyph-name="uni1EC6" unicode="&#x1ec6;" horiz-adv-x="599" 
d="M192 746l-63 49l125 154h116l125 -154l-63 -49l-120 116zM82 0v698h459v-115h-329v-173h292v-114h-292v-181h329v-115h-459zM312 -192q-71 0 -71 57v21q0 57 71 57t71 -57v-21q0 -57 -71 -57z" />
    <glyph glyph-name="uni1EC7" unicode="&#x1ec7;" horiz-adv-x="558" 
d="M164 582l-63 49l125 154h116l125 -154l-63 -49l-120 116zM285 -12q-115 0 -180 73.5t-65 199.5t64 199.5t177 73.5q116 0 176.5 -74t60.5 -189v-42h-348v-13q0 -59 33 -93t95 -34q79 0 133 71l69 -75q-71 -97 -215 -97zM170 307h217v10q0 56 -27.5 89t-76.5 33
q-51 0 -82 -34.5t-31 -89.5v-8zM290 -192q-71 0 -71 57v21q0 57 71 57t71 -57v-21q0 -57 -71 -57z" />
    <glyph glyph-name="uni1EC8" unicode="&#x1ec8;" horiz-adv-x="421" 
d="M242 735l-65 31l47 96h-121v91h132q88 0 88 -67q0 -52 -54 -119zM53 0v104h93v490h-93v104h315v-104h-93v-490h93v-104h-315z" />
    </font>
</defs>
</svg>
